<svg xmlns="http://www.w3.org/2000/svg" width="900" height="560" viewBox="0 0 900 560"><rect width="900" height="560" fill="#0d1117"/><text x="450.0" y="30" font-family="Segoe UI, Helvetica, Arial, sans-serif" font-size="26" font-weight="600" fill="#e6e6e6" text-anchor="middle">Emission measurement positions (ECMA-74)</text><line x1="40" y1="470.0" x2="860" y2="470.0" stroke="#e6e6e6" stroke-width="2.2" stroke-linecap="round"/><line x1="40" y1="470.0" x2="32" y2="479.0" stroke="#9a9a9a" stroke-width="1.1" stroke-linecap="round"/><line x1="64" y1="470.0" x2="56" y2="479.0" stroke="#9a9a9a" stroke-width="1.1" stroke-linecap="round"/><line x1="88" y1="470.0" x2="80" y2="479.0" stroke="#9a9a9a" stroke-width="1.1" stroke-linecap="round"/><line x1="112" y1="470.0" x2="104" y2="479.0" stroke="#9a9a9a" stroke-width="1.1" stroke-linecap="round"/><line x1="136" y1="470.0" x2="128" y2="479.0" stroke="#9a9a9a" stroke-width="1.1" stroke-linecap="round"/><line x1="160" y1="470.0" x2="152" y2="479.0" stroke="#9a9a9a" stroke-width="1.1" stroke-linecap="round"/><line x1="184" y1="470.0" x2="176" y2="479.0" stroke="#9a9a9a" stroke-width="1.1" stroke-linecap="round"/><line x1="208" y1="470.0" x2="200" y2="479.0" stroke="#9a9a9a" stroke-width="1.1" stroke-linecap="round"/><line x1="232" y1="470.0" x2="224" y2="479.0" stroke="#9a9a9a" stroke-width="1.1" stroke-linecap="round"/><line x1="256" y1="470.0" x2="248" y2="479.0" stroke="#9a9a9a" stroke-width="1.1" stroke-linecap="round"/><line x1="280" y1="470.0" x2="272" y2="479.0" stroke="#9a9a9a" stroke-width="1.1" stroke-linecap="round"/><line x1="304" y1="470.0" x2="296" y2="479.0" stroke="#9a9a9a" stroke-width="1.1" stroke-linecap="round"/><line x1="328" y1="470.0" x2="320" y2="479.0" stroke="#9a9a9a" stroke-width="1.1" stroke-linecap="round"/><line x1="352" y1="470.0" x2="344" y2="479.0" stroke="#9a9a9a" stroke-width="1.1" stroke-linecap="round"/><line x1="376" y1="470.0" x2="368" y2="479.0" stroke="#9a9a9a" stroke-width="1.1" stroke-linecap="round"/><line x1="400" y1="470.0" x2="392" y2="479.0" stroke="#9a9a9a" stroke-width="1.1" stroke-linecap="round"/><line x1="424" y1="470.0" x2="416" y2="479.0" stroke="#9a9a9a" stroke-width="1.1" stroke-linecap="round"/><line x1="448" y1="470.0" x2="440" y2="479.0" stroke="#9a9a9a" stroke-width="1.1" stroke-linecap="round"/><line x1="472" y1="470.0" x2="464" y2="479.0" stroke="#9a9a9a" stroke-width="1.1" stroke-linecap="round"/><line x1="496" y1="470.0" x2="488" y2="479.0" stroke="#9a9a9a" stroke-width="1.1" stroke-linecap="round"/><line x1="520" y1="470.0" x2="512" y2="479.0" stroke="#9a9a9a" stroke-width="1.1" stroke-linecap="round"/><line x1="544" y1="470.0" x2="536" y2="479.0" stroke="#9a9a9a" stroke-width="1.1" stroke-linecap="round"/><line x1="568" y1="470.0" x2="560" y2="479.0" stroke="#9a9a9a" stroke-width="1.1" stroke-linecap="round"/><line x1="592" y1="470.0" x2="584" y2="479.0" stroke="#9a9a9a" stroke-width="1.1" stroke-linecap="round"/><line x1="616" y1="470.0" x2="608" y2="479.0" stroke="#9a9a9a" stroke-width="1.1" stroke-linecap="round"/><line x1="640" y1="470.0" x2="632" y2="479.0" stroke="#9a9a9a" stroke-width="1.1" stroke-linecap="round"/><line x1="664" y1="470.0" x2="656" y2="479.0" stroke="#9a9a9a" stroke-width="1.1" stroke-linecap="round"/><line x1="688" y1="470.0" x2="680" y2="479.0" stroke="#9a9a9a" stroke-width="1.1" stroke-linecap="round"/><line x1="712" y1="470.0" x2="704" y2="479.0" stroke="#9a9a9a" stroke-width="1.1" stroke-linecap="round"/><line x1="736" y1="470.0" x2="728" y2="479.0" stroke="#9a9a9a" stroke-width="1.1" stroke-linecap="round"/><line x1="760" y1="470.0" x2="752" y2="479.0" stroke="#9a9a9a" stroke-width="1.1" stroke-linecap="round"/><line x1="784" y1="470.0" x2="776" y2="479.0" stroke="#9a9a9a" stroke-width="1.1" stroke-linecap="round"/><line x1="808" y1="470.0" x2="800" y2="479.0" stroke="#9a9a9a" stroke-width="1.1" stroke-linecap="round"/><line x1="832" y1="470.0" x2="824" y2="479.0" stroke="#9a9a9a" stroke-width="1.1" stroke-linecap="round"/><line x1="856" y1="470.0" x2="848" y2="479.0" stroke="#9a9a9a" stroke-width="1.1" stroke-linecap="round"/><text x="240" y="72" font-family="Segoe UI, Helvetica, Arial, sans-serif" font-size="24" fill="#e6e6e6" text-anchor="middle" font-weight="600">Operator — seated (P2)</text><line x1="98.0" y1="470.0" x2="98.0" y2="320.0" stroke="#e6e6e6" stroke-width="3" stroke-linecap="round"/><line x1="312.0" y1="470.0" x2="312.0" y2="320.0" stroke="#e6e6e6" stroke-width="3" stroke-linecap="round"/><line x1="80.0" y1="320.0" x2="330.0" y2="320.0" stroke="#e6e6e6" stroke-width="4" stroke-linecap="round"/><rect x="96.0" y="244.0" width="118" height="76" rx="8" fill="#1c2128" stroke="#4da3d8" stroke-width="2"/><text x="155.0" y="288.0" font-family="Segoe UI, Helvetica, Arial, sans-serif" font-size="22" fill="#4da3d8" text-anchor="middle" font-weight="600">EUT</text><rect x="285.6" y="202.0" width="8.8" height="13.200000000000001" rx="2.75" fill="#e6e6e6" stroke="none" stroke-width="1.5"/><rect x="283.4" y="215.2" width="13.200000000000001" height="37.400000000000006" rx="4.4" fill="#4da3d8" stroke="none" stroke-width="1.5"/><line x1="290.0" y1="252.6" x2="290.0" y2="320.0" stroke="#e6e6e6" stroke-width="2.2" stroke-linecap="round"/><line x1="272.4" y1="320.0" x2="307.6" y2="320.0" stroke="#e6e6e6" stroke-width="2.2" stroke-linecap="round"/><line x1="272.0" y1="320.0" x2="308.0" y2="320.0" stroke="#e6e6e6" stroke-width="2.2" stroke-linecap="round"/><line x1="214.0" y1="244.0" x2="214.0" y2="208.0" stroke="#9a9a9a" stroke-width="0.9" stroke-dasharray="3,3" stroke-linecap="round"/><line x1="290.0" y1="202.0" x2="290.0" y2="208.0" stroke="#9a9a9a" stroke-width="0.9" stroke-dasharray="3,3" stroke-linecap="round"/><line x1="248.0" y1="208.0" x2="223.0" y2="208.0" stroke="#9a9a9a" stroke-width="1.2" stroke-linecap="round"/><path d="M 214.0 208.0 L 223.0 204.4 L 223.0 211.6 Z" fill="#9a9a9a" stroke="none" stroke-width="1.5" stroke-linejoin="round"/><line x1="256.0" y1="208.0" x2="281.0" y2="208.0" stroke="#9a9a9a" stroke-width="1.2" stroke-linecap="round"/><path d="M 290.0 208.0 L 281.0 211.6 L 281.0 204.4 Z" fill="#9a9a9a" stroke="none" stroke-width="1.5" stroke-linejoin="round"/><text x="252.0" y="201.0" font-family="Segoe UI, Helvetica, Arial, sans-serif" font-size="20" fill="#e6e6e6" text-anchor="middle">0.25 m</text><line x1="500.0" y1="332.0" x2="500.0" y2="461.0" stroke="#9a9a9a" stroke-width="1.2" stroke-linecap="round"/><path d="M 500.0 470.0 L 496.4 461.0 L 503.6 461.0 Z" fill="#9a9a9a" stroke="none" stroke-width="1.5" stroke-linejoin="round"/><line x1="500.0" y1="340.0" x2="500.0" y2="211.0" stroke="#9a9a9a" stroke-width="1.2" stroke-linecap="round"/><path d="M 500.0 202.0 L 503.6 211.0 L 496.4 211.0 Z" fill="#9a9a9a" stroke="none" stroke-width="1.5" stroke-linejoin="round"/><text x="491.0" y="342.0" font-family="Segoe UI, Helvetica, Arial, sans-serif" font-size="20" fill="#e6e6e6" text-anchor="end">1.20 m</text><line x1="300.0" y1="202.0" x2="500.0" y2="202.0" stroke="#9a9a9a" stroke-width="0.9" stroke-dasharray="3,3" stroke-linecap="round"/><line x1="382.0" y1="355.0" x2="442.0" y2="355.0" stroke="#9a9a9a" stroke-width="3" stroke-linecap="round"/><line x1="386.0" y1="355.0" x2="386.0" y2="470.0" stroke="#9a9a9a" stroke-width="2.6" stroke-linecap="round"/><line x1="438.0" y1="355.0" x2="438.0" y2="470.0" stroke="#9a9a9a" stroke-width="2.6" stroke-linecap="round"/><line x1="442.0" y1="355.0" x2="442.0" y2="269.0" stroke="#9a9a9a" stroke-width="2.6" stroke-linecap="round"/><circle cx="410.0" cy="230.0" r="15" fill="#9a9a9a" stroke="none" stroke-width="1.5"/><line x1="410.0" y1="245.0" x2="416.0" y2="355.0" stroke="#9a9a9a" stroke-width="3.4" stroke-linecap="round"/><line x1="416.0" y1="355.0" x2="376.0" y2="353.0" stroke="#9a9a9a" stroke-width="2.8" stroke-linecap="round"/><line x1="376.0" y1="353.0" x2="376.0" y2="470.0" stroke="#9a9a9a" stroke-width="2.8" stroke-linecap="round"/><line x1="409.0" y1="265.0" x2="372.0" y2="292.0" stroke="#9a9a9a" stroke-width="2.6" stroke-linecap="round"/><text x="700.0" y="72" font-family="Segoe UI, Helvetica, Arial, sans-serif" font-size="24" fill="#e6e6e6" text-anchor="middle" font-weight="600">Bystanders — top view</text><text x="700.0" y="100" font-family="Segoe UI, Helvetica, Arial, sans-serif" font-size="20" fill="#9a9a9a" text-anchor="middle">height 1.50 m</text><rect x="648.0" y="230.0" width="104" height="80" rx="8" fill="#1c2128" stroke="#4da3d8" stroke-width="2"/><text x="700.0" y="278.0" font-family="Segoe UI, Helvetica, Arial, sans-serif" font-size="22" fill="#4da3d8" text-anchor="middle" font-weight="600">EUT</text><circle cx="700.0" cy="138.0" r="8" fill="#e46a6a" stroke="none" stroke-width="1.5"/><circle cx="700.0" cy="138.0" r="2.8" fill="#0d1117" stroke="none" stroke-width="1.5"/><circle cx="700.0" cy="402.0" r="8" fill="#e46a6a" stroke="none" stroke-width="1.5"/><circle cx="700.0" cy="402.0" r="2.8" fill="#0d1117" stroke="none" stroke-width="1.5"/><circle cx="556.0" cy="270.0" r="8" fill="#e46a6a" stroke="none" stroke-width="1.5"/><circle cx="556.0" cy="270.0" r="2.8" fill="#0d1117" stroke="none" stroke-width="1.5"/><circle cx="844.0" cy="270.0" r="8" fill="#e46a6a" stroke="none" stroke-width="1.5"/><circle cx="844.0" cy="270.0" r="2.8" fill="#0d1117" stroke="none" stroke-width="1.5"/><line x1="752.0" y1="250.0" x2="752.0" y2="206.0" stroke="#9a9a9a" stroke-width="0.9" stroke-dasharray="3,3" stroke-linecap="round"/><line x1="844.0" y1="270.0" x2="844.0" y2="206.0" stroke="#9a9a9a" stroke-width="0.9" stroke-dasharray="3,3" stroke-linecap="round"/><line x1="794.0" y1="206.0" x2="761.0" y2="206.0" stroke="#9a9a9a" stroke-width="1.2" stroke-linecap="round"/><path d="M 752.0 206.0 L 761.0 202.4 L 761.0 209.6 Z" fill="#9a9a9a" stroke="none" stroke-width="1.5" stroke-linejoin="round"/><line x1="802.0" y1="206.0" x2="835.0" y2="206.0" stroke="#9a9a9a" stroke-width="1.2" stroke-linecap="round"/><path d="M 844.0 206.0 L 835.0 209.6 L 835.0 202.4 Z" fill="#9a9a9a" stroke="none" stroke-width="1.5" stroke-linejoin="round"/><text x="798.0" y="199.0" font-family="Segoe UI, Helvetica, Arial, sans-serif" font-size="20" fill="#e6e6e6" text-anchor="middle">1.00 m</text></svg>