<svg xmlns="http://www.w3.org/2000/svg" width="900" height="540" viewBox="0 0 900 540"><rect width="900" height="540" fill="#0d1117"/><text x="450.0" y="30" font-family="Segoe UI, Helvetica, Arial, sans-serif" font-size="26" font-weight="600" fill="#e6e6e6" text-anchor="middle">Uncertainty: GUM propagation vs Monte Carlo (Guide 98-3)</text><rect x="170.0" y="56" width="560.0" height="62.0" rx="10" fill="#1c2128" stroke="#e6e6e6" stroke-width="2"/><text x="450.0" y="84" font-family="Segoe UI, Helvetica, Arial, sans-serif" font-size="20" fill="#e6e6e6" text-anchor="middle" font-weight="600">Measurement model  y = f(x_1, …, x_N)</text><text x="450.0" y="106" font-family="Segoe UI, Helvetica, Arial, sans-serif" font-size="15" fill="#9a9a9a" text-anchor="middle">input estimates x_i with standard uncertainties u(x_i)</text><line x1="450.0" y1="118" x2="240.85221883805474" y2="156.37573966274226" stroke="#e6e6e6" stroke-width="1.8" stroke-linecap="round"/><path d="M 232.0 158.0 L 240.2 152.8 L 241.5 159.9 Z" fill="#e6e6e6" stroke="none" stroke-width="1.5" stroke-linejoin="round"/><line x1="450.0" y1="118" x2="659.1477811619452" y2="156.37573966274226" stroke="#e6e6e6" stroke-width="1.8" stroke-linecap="round"/><path d="M 668.0 158.0 L 658.5 159.9 L 659.8 152.8 Z" fill="#e6e6e6" stroke="none" stroke-width="1.5" stroke-linejoin="round"/><rect x="46.0" y="158" width="372.0" height="62.0" rx="10" fill="#1c2128" stroke="#4da3d8" stroke-width="2"/><text x="232.0" y="185" font-family="Segoe UI, Helvetica, Arial, sans-serif" font-size="18" fill="#e6e6e6" text-anchor="middle" font-weight="600">Law of propagation  (GUM 5)</text><text x="232.0" y="206" font-family="Segoe UI, Helvetica, Arial, sans-serif" font-size="14" fill="#9a9a9a" text-anchor="middle">sensitivity c_i = ∂f / ∂x_i</text><rect x="46.0" y="250" width="372.0" height="62.0" rx="10" fill="#1c2128" stroke="#e6e6e6" stroke-width="2"/><text x="232.0" y="277" font-family="Segoe UI, Helvetica, Arial, sans-serif" font-size="18" fill="#e6e6e6" text-anchor="middle" font-weight="600">Combine in quadrature</text><text x="232.0" y="298" font-family="Segoe UI, Helvetica, Arial, sans-serif" font-size="14" fill="#9a9a9a" text-anchor="middle">uc² = Σ c_i² u²(x_i) + correlation</text><rect x="46.0" y="342" width="372.0" height="62.0" rx="10" fill="#1c2128" stroke="#e6e6e6" stroke-width="2"/><text x="232.0" y="369" font-family="Segoe UI, Helvetica, Arial, sans-serif" font-size="18" fill="#e6e6e6" text-anchor="middle" font-weight="600">Effective dof  (Annex G.4)</text><text x="232.0" y="390" font-family="Segoe UI, Helvetica, Arial, sans-serif" font-size="14" fill="#9a9a9a" text-anchor="middle">v_eff — Welch–Satterthwaite</text><line x1="232.0" y1="220" x2="232.0" y2="241.0" stroke="#e6e6e6" stroke-width="1.8" stroke-linecap="round"/><path d="M 232.0 250.0 L 228.4 241.0 L 235.6 241.0 Z" fill="#e6e6e6" stroke="none" stroke-width="1.5" stroke-linejoin="round"/><line x1="232.0" y1="312" x2="232.0" y2="333.0" stroke="#e6e6e6" stroke-width="1.8" stroke-linecap="round"/><path d="M 232.0 342.0 L 228.4 333.0 L 235.6 333.0 Z" fill="#e6e6e6" stroke="none" stroke-width="1.5" stroke-linejoin="round"/><line x1="232.0" y1="404" x2="232.0" y2="425.0" stroke="#e6e6e6" stroke-width="1.8" stroke-linecap="round"/><path d="M 232.0 434.0 L 228.4 425.0 L 235.6 425.0 Z" fill="#e6e6e6" stroke="none" stroke-width="1.5" stroke-linejoin="round"/><rect x="46.0" y="434" width="372.0" height="58" rx="10" fill="none" stroke="#4da3d8" stroke-width="2.4"/><text x="232.0" y="462" font-family="Segoe UI, Helvetica, Arial, sans-serif" font-size="22" fill="#e6e6e6" text-anchor="middle" font-weight="600">U = k · uc</text><text x="232.0" y="482" font-family="Segoe UI, Helvetica, Arial, sans-serif" font-size="14" fill="#9a9a9a" text-anchor="middle">k = t_p(v_eff)   (clause 6)</text><rect x="482.0" y="158" width="372.0" height="62.0" rx="10" fill="#1c2128" stroke="#e46a6a" stroke-width="2"/><text x="668.0" y="185" font-family="Segoe UI, Helvetica, Arial, sans-serif" font-size="18" fill="#e6e6e6" text-anchor="middle" font-weight="600">Monte Carlo  (Suppl. 1, 7)</text><text x="668.0" y="206" font-family="Segoe UI, Helvetica, Arial, sans-serif" font-size="14" fill="#9a9a9a" text-anchor="middle">draw x_i from its PDF g(x_i)</text><rect x="482.0" y="250" width="372.0" height="62.0" rx="10" fill="#1c2128" stroke="#e6e6e6" stroke-width="2"/><text x="668.0" y="277" font-family="Segoe UI, Helvetica, Arial, sans-serif" font-size="18" fill="#e6e6e6" text-anchor="middle" font-weight="600">Propagate M trials</text><text x="668.0" y="298" font-family="Segoe UI, Helvetica, Arial, sans-serif" font-size="14" fill="#9a9a9a" text-anchor="middle">y_r = f(x_1r, …, x_Nr)</text><rect x="482.0" y="342" width="372.0" height="62.0" rx="10" fill="#1c2128" stroke="#e6e6e6" stroke-width="2"/><text x="668.0" y="369" font-family="Segoe UI, Helvetica, Arial, sans-serif" font-size="18" fill="#e6e6e6" text-anchor="middle" font-weight="600">Sort {y_r}, take fractiles</text><text x="668.0" y="390" font-family="Segoe UI, Helvetica, Arial, sans-serif" font-size="14" fill="#9a9a9a" text-anchor="middle">prob.-symmetric 95 % interval</text><line x1="668.0" y1="220" x2="668.0" y2="241.0" stroke="#e6e6e6" stroke-width="1.8" stroke-linecap="round"/><path d="M 668.0 250.0 L 664.4 241.0 L 671.6 241.0 Z" fill="#e6e6e6" stroke="none" stroke-width="1.5" stroke-linejoin="round"/><line x1="668.0" y1="312" x2="668.0" y2="333.0" stroke="#e6e6e6" stroke-width="1.8" stroke-linecap="round"/><path d="M 668.0 342.0 L 664.4 333.0 L 671.6 333.0 Z" fill="#e6e6e6" stroke="none" stroke-width="1.5" stroke-linejoin="round"/><line x1="668.0" y1="404" x2="668.0" y2="425.0" stroke="#e6e6e6" stroke-width="1.8" stroke-linecap="round"/><path d="M 668.0 434.0 L 664.4 425.0 L 671.6 425.0 Z" fill="#e6e6e6" stroke="none" stroke-width="1.5" stroke-linejoin="round"/><rect x="482.0" y="434" width="372.0" height="58" rx="10" fill="none" stroke="#e46a6a" stroke-width="2.4"/><text x="668.0" y="462" font-family="Segoe UI, Helvetica, Arial, sans-serif" font-size="22" fill="#e6e6e6" text-anchor="middle" font-weight="600">coverage interval</text><text x="668.0" y="482" font-family="Segoe UI, Helvetica, Arial, sans-serif" font-size="14" fill="#9a9a9a" text-anchor="middle">[y_low, y_high]   (clause 7.7)</text></svg>