<svg xmlns="http://www.w3.org/2000/svg" width="900" height="400" viewBox="0 0 900 400"><rect width="900" height="400" fill="#ffffff"/><text x="450.0" y="30" font-family="Segoe UI, Helvetica, Arial, sans-serif" font-size="26" font-weight="600" fill="#1a1a1a" text-anchor="middle">phonometry processing chain</text><rect x="21.0" y="170.0" width="128.0" height="92.0" rx="12" fill="#f0f2f5" stroke="#1a1a1a" stroke-width="2"/><text x="85.0" y="210.0" font-family="Segoe UI, Helvetica, Arial, sans-serif" font-size="22" fill="#1a1a1a" text-anchor="middle" font-weight="600">Signal</text><text x="85.0" y="238.0" font-family="Consolas, Menlo, monospace" font-size="19" fill="#1a1a1a" text-anchor="middle">x, fs</text><line x1="150.0" y1="216.0" x2="156.0" y2="216.0" stroke="#1a1a1a" stroke-width="2" stroke-linecap="round"/><path d="M 165.0 216.0 L 156.0 219.6 L 156.0 212.4 Z" fill="#1a1a1a" stroke="none" stroke-width="1.5" stroke-linejoin="round"/><rect x="167.0" y="170.0" width="128.0" height="92.0" rx="12" fill="#f0f2f5" stroke="#1f77b4" stroke-width="2"/><text x="231.0" y="210.0" font-family="Segoe UI, Helvetica, Arial, sans-serif" font-size="22" fill="#1a1a1a" text-anchor="middle" font-weight="600">Calibrate</text><text x="231.0" y="238.0" font-family="Consolas, Menlo, monospace" font-size="19" fill="#1f77b4" text-anchor="middle">→ Pa</text><line x1="296.0" y1="216.0" x2="302.0" y2="216.0" stroke="#1a1a1a" stroke-width="2" stroke-linecap="round"/><path d="M 311.0 216.0 L 302.0 219.6 L 302.0 212.4 Z" fill="#1a1a1a" stroke="none" stroke-width="1.5" stroke-linejoin="round"/><rect x="313.0" y="170.0" width="128.0" height="92.0" rx="12" fill="#f0f2f5" stroke="#1f77b4" stroke-width="2"/><text x="377.0" y="210.0" font-family="Segoe UI, Helvetica, Arial, sans-serif" font-size="22" fill="#1a1a1a" text-anchor="middle" font-weight="600">Weighting</text><text x="377.0" y="238.0" font-family="Consolas, Menlo, monospace" font-size="19" fill="#1f77b4" text-anchor="middle">A/C/G/Z</text><line x1="442.0" y1="216.0" x2="448.0" y2="216.0" stroke="#1a1a1a" stroke-width="2" stroke-linecap="round"/><path d="M 457.0 216.0 L 448.0 219.6 L 448.0 212.4 Z" fill="#1a1a1a" stroke="none" stroke-width="1.5" stroke-linejoin="round"/><rect x="459.0" y="170.0" width="128.0" height="92.0" rx="12" fill="#f0f2f5" stroke="#1f77b4" stroke-width="2"/><text x="523.0" y="210.0" font-family="Segoe UI, Helvetica, Arial, sans-serif" font-size="22" fill="#1a1a1a" text-anchor="middle" font-weight="600">Octave</text><text x="523.0" y="238.0" font-family="Consolas, Menlo, monospace" font-size="19" fill="#1f77b4" text-anchor="middle">bands 1/b</text><line x1="588.0" y1="216.0" x2="594.0" y2="216.0" stroke="#1a1a1a" stroke-width="2" stroke-linecap="round"/><path d="M 603.0 216.0 L 594.0 219.6 L 594.0 212.4 Z" fill="#1a1a1a" stroke="none" stroke-width="1.5" stroke-linejoin="round"/><rect x="605.0" y="170.0" width="128.0" height="92.0" rx="12" fill="#f0f2f5" stroke="#1f77b4" stroke-width="2"/><text x="669.0" y="210.0" font-family="Segoe UI, Helvetica, Arial, sans-serif" font-size="22" fill="#1a1a1a" text-anchor="middle" font-weight="600">Ballistics</text><text x="669.0" y="238.0" font-family="Consolas, Menlo, monospace" font-size="19" fill="#1f77b4" text-anchor="middle">F / S / I</text><line x1="734.0" y1="216.0" x2="740.0" y2="216.0" stroke="#1a1a1a" stroke-width="2" stroke-linecap="round"/><path d="M 749.0 216.0 L 740.0 219.6 L 740.0 212.4 Z" fill="#1a1a1a" stroke="none" stroke-width="1.5" stroke-linejoin="round"/><rect x="751.0" y="170.0" width="128.0" height="92.0" rx="12" fill="#f0f2f5" stroke="#2ca02c" stroke-width="2"/><text x="815.0" y="210.0" font-family="Segoe UI, Helvetica, Arial, sans-serif" font-size="22" fill="#1a1a1a" text-anchor="middle" font-weight="600">Metrics</text><text x="815.0" y="238.0" font-family="Consolas, Menlo, monospace" font-size="19" fill="#2ca02c" text-anchor="middle">Leq, LN…</text></svg>