<svg xmlns="http://www.w3.org/2000/svg" width="900" height="560" viewBox="0 0 900 560"><rect width="900" height="560" fill="#0d1117"/><text x="450.0" y="30" font-family="Segoe UI, Helvetica, Arial, sans-serif" font-size="26" font-weight="600" fill="#e6e6e6" text-anchor="middle">Por qué la ponderación A: una isófona invertida (ISO 226)</text><text x="230.0" y="92" font-family="Segoe UI, Helvetica, Arial, sans-serif" font-size="17" fill="#e6e6e6" text-anchor="middle" font-weight="600">Líneas isofónicas (ISO 226)</text><rect x="70.0" y="110.0" width="320.0" height="320.0" rx="0.0" fill="none" stroke="#9a9a9a" stroke-width="1.2"/><line x1="70.0" y1="430.0" x2="70.0" y2="435.0" stroke="#9a9a9a" stroke-width="1.2" stroke-linecap="round"/><text x="70.0" y="451.0" font-family="Segoe UI, Helvetica, Arial, sans-serif" font-size="13" fill="#9a9a9a" text-anchor="middle">20</text><line x1="150.0" y1="430.0" x2="150.0" y2="435.0" stroke="#9a9a9a" stroke-width="1.2" stroke-linecap="round"/><text x="150.0" y="451.0" font-family="Segoe UI, Helvetica, Arial, sans-serif" font-size="13" fill="#9a9a9a" text-anchor="middle">100</text><line x1="264.4541246458715" y1="430.0" x2="264.4541246458715" y2="435.0" stroke="#9a9a9a" stroke-width="1.2" stroke-linecap="round"/><text x="264.4541246458715" y="451.0" font-family="Segoe UI, Helvetica, Arial, sans-serif" font-size="13" fill="#9a9a9a" text-anchor="middle">1k</text><line x1="378.9082492917429" y1="430.0" x2="378.9082492917429" y2="435.0" stroke="#9a9a9a" stroke-width="1.2" stroke-linecap="round"/><text x="378.9082492917429" y="451.0" font-family="Segoe UI, Helvetica, Arial, sans-serif" font-size="13" fill="#9a9a9a" text-anchor="middle">10k</text><text x="230.0" y="472.0" font-family="Segoe UI, Helvetica, Arial, sans-serif" font-size="14" fill="#e6e6e6" text-anchor="middle">Frecuencia [Hz]</text><line x1="65.0" y1="430.0" x2="70.0" y2="430.0" stroke="#9a9a9a" stroke-width="1.2" stroke-linecap="round"/><text x="61.0" y="435.0" font-family="Segoe UI, Helvetica, Arial, sans-serif" font-size="13" fill="#9a9a9a" text-anchor="end">0</text><line x1="65.0" y1="323.33333333333337" x2="70.0" y2="323.33333333333337" stroke="#9a9a9a" stroke-width="1.2" stroke-linecap="round"/><text x="61.0" y="328.33333333333337" font-family="Segoe UI, Helvetica, Arial, sans-serif" font-size="13" fill="#9a9a9a" text-anchor="end">40</text><line x1="65.0" y1="216.66666666666669" x2="70.0" y2="216.66666666666669" stroke="#9a9a9a" stroke-width="1.2" stroke-linecap="round"/><text x="61.0" y="221.66666666666669" font-family="Segoe UI, Helvetica, Arial, sans-serif" font-size="13" fill="#9a9a9a" text-anchor="end">80</text><line x1="65.0" y1="110.0" x2="70.0" y2="110.0" stroke="#9a9a9a" stroke-width="1.2" stroke-linecap="round"/><text x="61.0" y="115.0" font-family="Segoe UI, Helvetica, Arial, sans-serif" font-size="13" fill="#9a9a9a" text-anchor="end">120</text><text x="50.0" y="98.0" font-family="Segoe UI, Helvetica, Arial, sans-serif" font-size="12" fill="#9a9a9a" text-anchor="middle">dB SPL</text><path d="M 70.0 191.2 L 81.1 209.0 L 92.6 226.6 L 104.5 243.5 L 115.5 258.5 L 127.0 273.3 L 138.9 287.7 L 150.0 300.5 L 161.1 312.4 L 173.4 324.4 L 184.5 335.0 L 195.5 344.4 L 207.0 353.0 L 218.9 360.9 L 230.0 367.0 L 241.5 372.4 L 253.4 376.5 L 264.5 376.7 L 275.5 372.8 L 287.8 372.7 L 298.9 381.6 L 310.0 388.7 L 321.5 392.3 L 333.4 389.3 L 344.5 380.1 L 355.9 363.3 L 367.8 346.3 L 378.9 337.6 L 390.0 342.0" fill="none" stroke="#9a9a9a" stroke-width="1.5" stroke-linejoin="round"/><text x="173.36237393761436" y="314.3780846351859" font-family="Segoe UI, Helvetica, Arial, sans-serif" font-size="12" fill="#9a9a9a" text-anchor="middle">20</text><path d="M 70.0 164.0 L 81.1 179.5 L 92.6 194.8 L 104.5 209.6 L 115.5 222.6 L 127.0 235.4 L 138.9 247.8 L 150.0 258.7 L 161.1 268.8 L 173.4 278.9 L 184.5 287.9 L 195.5 295.9 L 207.0 303.1 L 218.9 309.8 L 230.0 315.0 L 241.5 319.7 L 253.4 323.4 L 264.5 323.3 L 275.5 318.6 L 287.8 316.5 L 298.9 325.4 L 310.0 332.4 L 321.5 335.4 L 333.4 332.1 L 344.5 323.2 L 355.9 307.8 L 367.8 292.4 L 378.9 285.0 L 390.0 293.2" fill="none" stroke="#4da3d8" stroke-width="2.8" stroke-linejoin="round"/><text x="173.36237393761436" y="268.9388321019205" font-family="Segoe UI, Helvetica, Arial, sans-serif" font-size="14" fill="#4da3d8" text-anchor="middle" font-weight="600">40 fonios</text><path d="M 70.0 138.4 L 81.1 152.2 L 92.6 165.8 L 104.5 178.8 L 115.5 190.2 L 127.0 201.2 L 138.9 211.6 L 150.0 220.7 L 161.1 228.9 L 173.4 237.0 L 184.5 244.1 L 195.5 250.2 L 207.0 255.7 L 218.9 260.6 L 230.0 264.5 L 241.5 268.0 L 253.4 270.5 L 264.5 270.0 L 275.5 264.3 L 287.8 261.4 L 298.9 270.0 L 310.0 277.0 L 321.5 279.7 L 333.4 276.3 L 344.5 267.4 L 355.9 253.0 L 367.8 239.3 L 378.9 234.7 L 390.0 247.1" fill="none" stroke="#9a9a9a" stroke-width="1.5" stroke-linejoin="round"/><text x="173.36237393761436" y="226.98371999455847" font-family="Segoe UI, Helvetica, Arial, sans-serif" font-size="12" fill="#9a9a9a" text-anchor="middle">60</text><path d="M 70.0 113.0 L 81.1 125.5 L 92.6 137.5 L 104.5 148.8 L 115.5 158.5 L 127.0 167.7 L 138.9 176.3 L 150.0 183.4 L 161.1 189.8 L 173.4 195.8 L 184.5 200.9 L 195.5 205.2 L 207.0 208.9 L 218.9 212.0 L 230.0 214.4 L 241.5 216.4 L 253.4 217.6 L 264.5 216.7 L 275.5 210.1 L 287.8 206.5 L 298.9 214.8 L 310.0 221.7 L 321.5 224.2 L 333.4 220.8 L 344.5 212.0 L 355.9 198.4 L 367.8 186.5 L 378.9 185.0 L 390.0 201.7" fill="none" stroke="#9a9a9a" stroke-width="1.5" stroke-linejoin="round"/><text x="173.36237393761436" y="185.80875433742938" font-family="Segoe UI, Helvetica, Arial, sans-serif" font-size="12" fill="#9a9a9a" text-anchor="middle">80</text><text x="462" y="226" font-family="Segoe UI, Helvetica, Arial, sans-serif" font-size="16" fill="#e6e6e6" text-anchor="middle" font-weight="600">invertir</text><text x="462" y="248" font-family="Segoe UI, Helvetica, Arial, sans-serif" font-size="13" fill="#9a9a9a" text-anchor="middle">0 dB en 1 kHz</text><line x1="400" y1="272" x2="537.0" y2="272.0" stroke="#e6e6e6" stroke-width="2.2" stroke-linecap="round"/><path d="M 546.0 272.0 L 537.0 275.6 L 537.0 268.4 Z" fill="#e6e6e6" stroke="none" stroke-width="1.5" stroke-linejoin="round"/><text x="715.0" y="92" font-family="Segoe UI, Helvetica, Arial, sans-serif" font-size="17" fill="#e6e6e6" text-anchor="middle" font-weight="600">Ponderación A (IEC 61672-1)</text><rect x="558.0" y="110.0" width="314.0" height="320.0" rx="0.0" fill="none" stroke="#9a9a9a" stroke-width="1.2"/><line x1="558.0" y1="430.0" x2="558.0" y2="435.0" stroke="#9a9a9a" stroke-width="1.2" stroke-linecap="round"/><text x="558.0" y="451.0" font-family="Segoe UI, Helvetica, Arial, sans-serif" font-size="13" fill="#9a9a9a" text-anchor="middle">20</text><line x1="636.5" y1="430.0" x2="636.5" y2="435.0" stroke="#9a9a9a" stroke-width="1.2" stroke-linecap="round"/><text x="636.5" y="451.0" font-family="Segoe UI, Helvetica, Arial, sans-serif" font-size="13" fill="#9a9a9a" text-anchor="middle">100</text><line x1="748.8081098087614" y1="430.0" x2="748.8081098087614" y2="435.0" stroke="#9a9a9a" stroke-width="1.2" stroke-linecap="round"/><text x="748.8081098087614" y="451.0" font-family="Segoe UI, Helvetica, Arial, sans-serif" font-size="13" fill="#9a9a9a" text-anchor="middle">1k</text><line x1="861.1162196175228" y1="430.0" x2="861.1162196175228" y2="435.0" stroke="#9a9a9a" stroke-width="1.2" stroke-linecap="round"/><text x="861.1162196175228" y="451.0" font-family="Segoe UI, Helvetica, Arial, sans-serif" font-size="13" fill="#9a9a9a" text-anchor="middle">10k</text><text x="715.0" y="472.0" font-family="Segoe UI, Helvetica, Arial, sans-serif" font-size="14" fill="#e6e6e6" text-anchor="middle">Frecuencia [Hz]</text><line x1="553.0" y1="150.0" x2="558.0" y2="150.0" stroke="#9a9a9a" stroke-width="1.2" stroke-linecap="round"/><text x="549.0" y="155.0" font-family="Segoe UI, Helvetica, Arial, sans-serif" font-size="13" fill="#9a9a9a" text-anchor="end">0</text><line x1="553.0" y1="230.0" x2="558.0" y2="230.0" stroke="#9a9a9a" stroke-width="1.2" stroke-linecap="round"/><text x="549.0" y="235.0" font-family="Segoe UI, Helvetica, Arial, sans-serif" font-size="13" fill="#9a9a9a" text-anchor="end">-20</text><line x1="553.0" y1="310.0" x2="558.0" y2="310.0" stroke="#9a9a9a" stroke-width="1.2" stroke-linecap="round"/><text x="549.0" y="315.0" font-family="Segoe UI, Helvetica, Arial, sans-serif" font-size="13" fill="#9a9a9a" text-anchor="end">-40</text><line x1="553.0" y1="390.0" x2="558.0" y2="390.0" stroke="#9a9a9a" stroke-width="1.2" stroke-linecap="round"/><text x="549.0" y="395.0" font-family="Segoe UI, Helvetica, Arial, sans-serif" font-size="13" fill="#9a9a9a" text-anchor="end">-60</text><text x="538.0" y="98.0" font-family="Segoe UI, Helvetica, Arial, sans-serif" font-size="12" fill="#9a9a9a" text-anchor="middle">dB</text><line x1="558.0" y1="150.0" x2="872.0" y2="150.0" stroke="#9a9a9a" stroke-width="0.9" stroke-dasharray="3,4" stroke-linecap="round"/><path d="M 558.0 389.0 L 568.9 365.8 L 580.2 342.8 L 591.8 320.6 L 602.7 301.1 L 614.0 281.9 L 625.6 263.3 L 636.5 247.0 L 647.4 231.8 L 659.4 216.6 L 670.3 203.1 L 681.2 191.1 L 692.5 180.3 L 704.1 170.4 L 715.0 162.5 L 726.3 155.4 L 737.9 150.0 L 748.8 150.0 L 759.7 157.1 L 771.7 160.2 L 782.6 146.9 L 793.5 136.4 L 804.8 131.9 L 816.4 136.9 L 827.3 150.2 L 838.6 173.2 L 850.2 196.4 L 861.1 207.5 L 872.0 195.2" fill="none" stroke="#e46a6a" stroke-width="2.0" stroke-linejoin="round" stroke-dasharray="6,5"/><path d="M 558.0 351.6 L 563.3 340.4 L 568.6 329.7 L 574.0 319.5 L 579.3 309.7 L 584.6 300.3 L 589.9 291.2 L 595.3 282.6 L 600.6 274.3 L 605.9 266.3 L 611.2 258.7 L 616.5 251.4 L 621.9 244.3 L 627.2 237.6 L 632.5 231.2 L 637.8 225.1 L 643.2 219.2 L 648.5 213.6 L 653.8 208.3 L 659.1 203.3 L 664.4 198.4 L 669.8 193.8 L 675.1 189.5 L 680.4 185.3 L 685.7 181.3 L 691.1 177.5 L 696.4 174.0 L 701.7 170.6 L 707.0 167.4 L 712.3 164.4 L 717.7 161.6 L 723.0 159.1 L 728.3 156.8 L 733.6 154.7 L 738.9 152.8 L 744.3 151.2 L 749.6 149.8 L 754.9 148.6 L 760.2 147.6 L 765.6 146.8 L 770.9 146.1 L 776.2 145.6 L 781.5 145.3 L 786.8 145.0 L 792.2 144.9 L 797.5 144.9 L 802.8 145.1 L 808.1 145.4 L 813.5 145.8 L 818.8 146.4 L 824.1 147.2 L 829.4 148.2 L 834.7 149.4 L 840.1 150.9 L 845.4 152.7 L 850.7 154.8 L 856.0 157.3 L 861.4 160.1 L 866.7 163.4 L 872.0 167.0" fill="none" stroke="#4da3d8" stroke-width="2.8" stroke-linejoin="round"/><line x1="636" y1="386" x2="668" y2="386" stroke="#4da3d8" stroke-width="2.8" stroke-linecap="round"/><text x="676" y="391" font-family="Segoe UI, Helvetica, Arial, sans-serif" font-size="13" fill="#e6e6e6" text-anchor="start">Ponderación A (IEC 61672-1)</text><line x1="636" y1="408" x2="668" y2="408" stroke="#e46a6a" stroke-width="2.0" stroke-dasharray="6,5" stroke-linecap="round"/><text x="676" y="413" font-family="Segoe UI, Helvetica, Arial, sans-serif" font-size="13" fill="#e6e6e6" text-anchor="start">isófona de 40 fonios invertida</text><text x="450" y="507" font-family="Segoe UI, Helvetica, Arial, sans-serif" font-size="14" fill="#e6e6e6" text-anchor="middle">A es la isófona de 40 fonios convertida en un filtro realizable: niveles bajos, donde el oído descarta más los graves.</text><text x="450" y="529" font-family="Segoe UI, Helvetica, Arial, sans-serif" font-size="13" fill="#9a9a9a" text-anchor="middle">Coincidencia laxa a propósito (convención de los años 30, no un modelo de sonoridad); C sigue la isófona plana de ~100 fonios.</text></svg>