<svg xmlns="http://www.w3.org/2000/svg" width="900" height="560" viewBox="0 0 900 560"><rect width="900" height="560" fill="#ffffff"/><text x="450.0" y="30" font-family="Segoe UI, Helvetica, Arial, sans-serif" font-size="26" font-weight="600" fill="#1a1a1a" text-anchor="middle">Dynamic-stiffness resonance rig (ISO 9052-1)</text><text x="240" y="74" font-family="Segoe UI, Helvetica, Arial, sans-serif" font-size="22" fill="#1a1a1a" text-anchor="middle" font-weight="600">Resonance rig</text><line x1="50" y1="466.0" x2="430" y2="466.0" stroke="#1a1a1a" stroke-width="2.2" stroke-linecap="round"/><line x1="50" y1="466.0" x2="42" y2="475.0" stroke="#666666" stroke-width="1.1" stroke-linecap="round"/><line x1="74" y1="466.0" x2="66" y2="475.0" stroke="#666666" stroke-width="1.1" stroke-linecap="round"/><line x1="98" y1="466.0" x2="90" y2="475.0" stroke="#666666" stroke-width="1.1" stroke-linecap="round"/><line x1="122" y1="466.0" x2="114" y2="475.0" stroke="#666666" stroke-width="1.1" stroke-linecap="round"/><line x1="146" y1="466.0" x2="138" y2="475.0" stroke="#666666" stroke-width="1.1" stroke-linecap="round"/><line x1="170" y1="466.0" x2="162" y2="475.0" stroke="#666666" stroke-width="1.1" stroke-linecap="round"/><line x1="194" y1="466.0" x2="186" y2="475.0" stroke="#666666" stroke-width="1.1" stroke-linecap="round"/><line x1="218" y1="466.0" x2="210" y2="475.0" stroke="#666666" stroke-width="1.1" stroke-linecap="round"/><line x1="242" y1="466.0" x2="234" y2="475.0" stroke="#666666" stroke-width="1.1" stroke-linecap="round"/><line x1="266" y1="466.0" x2="258" y2="475.0" stroke="#666666" stroke-width="1.1" stroke-linecap="round"/><line x1="290" y1="466.0" x2="282" y2="475.0" stroke="#666666" stroke-width="1.1" stroke-linecap="round"/><line x1="314" y1="466.0" x2="306" y2="475.0" stroke="#666666" stroke-width="1.1" stroke-linecap="round"/><line x1="338" y1="466.0" x2="330" y2="475.0" stroke="#666666" stroke-width="1.1" stroke-linecap="round"/><line x1="362" y1="466.0" x2="354" y2="475.0" stroke="#666666" stroke-width="1.1" stroke-linecap="round"/><line x1="386" y1="466.0" x2="378" y2="475.0" stroke="#666666" stroke-width="1.1" stroke-linecap="round"/><line x1="410" y1="466.0" x2="402" y2="475.0" stroke="#666666" stroke-width="1.1" stroke-linecap="round"/><text x="56" y="500.0" font-family="Segoe UI, Helvetica, Arial, sans-serif" font-size="17" fill="#666666" text-anchor="start">Rigid foundation</text><rect x="150.0" y="400.0" width="180.0" height="66.0" rx="0.0" fill="#f0f2f5" stroke="#2ca02c" stroke-width="2"/><line x1="164" y1="400.0" x2="152" y2="466.0" stroke="#2ca02c" stroke-width="0.9" stroke-linecap="round"/><line x1="186" y1="400.0" x2="174" y2="466.0" stroke="#2ca02c" stroke-width="0.9" stroke-linecap="round"/><line x1="208" y1="400.0" x2="196" y2="466.0" stroke="#2ca02c" stroke-width="0.9" stroke-linecap="round"/><line x1="230" y1="400.0" x2="218" y2="466.0" stroke="#2ca02c" stroke-width="0.9" stroke-linecap="round"/><line x1="252" y1="400.0" x2="240" y2="466.0" stroke="#2ca02c" stroke-width="0.9" stroke-linecap="round"/><line x1="274" y1="400.0" x2="262" y2="466.0" stroke="#2ca02c" stroke-width="0.9" stroke-linecap="round"/><line x1="296" y1="400.0" x2="284" y2="466.0" stroke="#2ca02c" stroke-width="0.9" stroke-linecap="round"/><line x1="318" y1="400.0" x2="306" y2="466.0" stroke="#2ca02c" stroke-width="0.9" stroke-linecap="round"/><rect x="138.0" y="374.0" width="204.0" height="26.0" rx="3" fill="#f0f2f5" stroke="#1f77b4" stroke-width="2.2"/><text x="356.0" y="393.0" font-family="Segoe UI, Helvetica, Arial, sans-serif" font-size="18" fill="#1a1a1a" text-anchor="start" font-weight="600">Load plate</text><text x="356.0" y="417.0" font-family="Segoe UI, Helvetica, Arial, sans-serif" font-size="15" fill="#666666" text-anchor="start">m′t = 200 kg/m²</text><text x="356.0" y="440.0" font-family="Segoe UI, Helvetica, Arial, sans-serif" font-size="17" fill="#1a1a1a" text-anchor="start">Resilient specimen</text><text x="356.0" y="462.0" font-family="Segoe UI, Helvetica, Arial, sans-serif" font-size="15" fill="#666666" text-anchor="start">200 mm × 200 mm</text><line x1="150.0" y1="400.0" x2="120.0" y2="400.0" stroke="#666666" stroke-width="0.9" stroke-dasharray="3,3" stroke-linecap="round"/><line x1="150.0" y1="466.0" x2="120.0" y2="466.0" stroke="#666666" stroke-width="0.9" stroke-dasharray="3,3" stroke-linecap="round"/><line x1="120.0" y1="429.0" x2="120.0" y2="409.0" stroke="#666666" stroke-width="1.2" stroke-linecap="round"/><path d="M 120.0 400.0 L 123.6 409.0 L 116.4 409.0 Z" fill="#666666" stroke="none" stroke-width="1.5" stroke-linejoin="round"/><line x1="120.0" y1="437.0" x2="120.0" y2="457.0" stroke="#666666" stroke-width="1.2" stroke-linecap="round"/><path d="M 120.0 466.0 L 116.4 457.0 L 123.6 457.0 Z" fill="#666666" stroke="none" stroke-width="1.5" stroke-linejoin="round"/><text x="111.0" y="439.0" font-family="Segoe UI, Helvetica, Arial, sans-serif" font-size="18" fill="#1a1a1a" text-anchor="end">d</text><line x1="205.0" y1="374.0" x2="205.0" y2="352.0" stroke="#1a1a1a" stroke-width="2.2" stroke-linecap="round"/><rect x="168.0" y="304.0" width="74.0" height="48.0" rx="9" fill="#f0f2f5" stroke="#1f77b4" stroke-width="2"/><text x="205" y="274.0" font-family="Segoe UI, Helvetica, Arial, sans-serif" font-size="18" fill="#1a1a1a" text-anchor="middle" font-weight="600">Exciter</text><line x1="256.0" y1="338.0" x2="256.0" y2="323.0" stroke="#d62728" stroke-width="2.0" stroke-linecap="round"/><path d="M 256.0 314.0 L 259.6 323.0 L 252.4 323.0 Z" fill="#d62728" stroke="none" stroke-width="1.5" stroke-linejoin="round"/><line x1="256.0" y1="338.0" x2="256.0" y2="353.0" stroke="#d62728" stroke-width="2.0" stroke-linecap="round"/><path d="M 256.0 362.0 L 252.4 353.0 L 259.6 353.0 Z" fill="#d62728" stroke="none" stroke-width="1.5" stroke-linejoin="round"/><text x="268" y="344.0" font-family="Consolas, Menlo, monospace" font-size="16" fill="#d62728" text-anchor="start">F(t)</text><rect x="293.0" y="360.0" width="14.0" height="14.0" rx="2.5" fill="#d62728" stroke="#1a1a1a" stroke-width="1.3"/><line x1="300.0" y1="360.0" x2="300.0" y2="352.0" stroke="#1a1a1a" stroke-width="1.3" stroke-linecap="round"/><text x="356.0" y="360.0" font-family="Segoe UI, Helvetica, Arial, sans-serif" font-size="16" fill="#1a1a1a" text-anchor="start">Accelerometer</text><line x1="309" y1="366.0" x2="350.0" y2="356.0" stroke="#666666" stroke-width="1.1" stroke-dasharray="3,3" stroke-linecap="round"/><text x="680" y="74" font-family="Segoe UI, Helvetica, Arial, sans-serif" font-size="22" fill="#1a1a1a" text-anchor="middle" font-weight="600">Mass-spring model</text><rect x="620.0" y="120" width="120" height="62" rx="8" fill="#f0f2f5" stroke="#1f77b4" stroke-width="2.2"/><text x="680.0" y="158" font-family="Consolas, Menlo, monospace" font-size="22" fill="#1a1a1a" text-anchor="middle" font-weight="600">m′t</text><path d="M 680.0 182.0 L 680.0 192.0 L 693.0 202.8 L 667.0 213.5 L 693.0 224.2 L 667.0 235.0 L 693.0 245.8 L 667.0 256.5 L 693.0 267.2 L 680.0 278.0 L 680.0 288.0" fill="none" stroke="#2ca02c" stroke-width="2.2" stroke-linejoin="round"/><text x="706.0" y="240" font-family="Consolas, Menlo, monospace" font-size="20" fill="#2ca02c" text-anchor="start" font-weight="600">s′t</text><line x1="610.0" y1="288" x2="750.0" y2="288" stroke="#1a1a1a" stroke-width="2.2" stroke-linecap="round"/><line x1="610.0" y1="288" x2="602.0" y2="297" stroke="#666666" stroke-width="1.1" stroke-linecap="round"/><line x1="634.0" y1="288" x2="626.0" y2="297" stroke="#666666" stroke-width="1.1" stroke-linecap="round"/><line x1="658.0" y1="288" x2="650.0" y2="297" stroke="#666666" stroke-width="1.1" stroke-linecap="round"/><line x1="682.0" y1="288" x2="674.0" y2="297" stroke="#666666" stroke-width="1.1" stroke-linecap="round"/><line x1="706.0" y1="288" x2="698.0" y2="297" stroke="#666666" stroke-width="1.1" stroke-linecap="round"/><line x1="730.0" y1="288" x2="722.0" y2="297" stroke="#666666" stroke-width="1.1" stroke-linecap="round"/><line x1="588.0" y1="151" x2="588.0" y2="134.0" stroke="#d62728" stroke-width="2.0" stroke-linecap="round"/><path d="M 588.0 125.0 L 591.6 134.0 L 584.4 134.0 Z" fill="#d62728" stroke="none" stroke-width="1.5" stroke-linejoin="round"/><line x1="588.0" y1="151" x2="588.0" y2="168.0" stroke="#d62728" stroke-width="2.0" stroke-linecap="round"/><path d="M 588.0 177.0 L 584.4 168.0 L 591.6 168.0 Z" fill="#d62728" stroke="none" stroke-width="1.5" stroke-linejoin="round"/><line x1="540.0" y1="420.0" x2="850.0" y2="420.0" stroke="#666666" stroke-width="1.4" stroke-linecap="round"/><line x1="540.0" y1="420.0" x2="540.0" y2="330.0" stroke="#666666" stroke-width="1.4" stroke-linecap="round"/><path d="M 546.0 408.0 C 600.0 404.0 626.0 336 660.0 334 C 694.0 336 730.0 412.0 844.0 416.0" fill="none" stroke="#1f77b4" stroke-width="2.4" stroke-linejoin="round"/><line x1="660.0" y1="420.0" x2="660.0" y2="336" stroke="#666666" stroke-width="1.2" stroke-dasharray="4,3" stroke-linecap="round"/><text x="660.0" y="442.0" font-family="Consolas, Menlo, monospace" font-size="18" fill="#d62728" text-anchor="middle" font-weight="600">fr</text><text x="695.0" y="468.0" font-family="Segoe UI, Helvetica, Arial, sans-serif" font-size="15" fill="#666666" text-anchor="middle" font-style="italic">resonance read from the response peak</text><text x="450" y="524" font-family="Consolas, Menlo, monospace" font-size="21" fill="#1f77b4" text-anchor="middle" font-weight="600">s′t = 4π² m′t fr²   (Formula 4)</text><text x="450" y="550" font-family="Consolas, Menlo, monospace" font-size="16" fill="#666666" text-anchor="middle">then f₀ = (1/2π)·√(s′/m′) for the installed floating floor   (Formula 2)</text></svg>