<svg xmlns="http://www.w3.org/2000/svg" width="900" height="540" viewBox="0 0 900 540"><rect width="900" height="540" fill="#0d1117"/><text x="450.0" y="30" font-family="Segoe UI, Helvetica, Arial, sans-serif" font-size="26" font-weight="600" fill="#e6e6e6" text-anchor="middle">Resistencia al flujo: métodos estático y alternante (ISO 9053-1/-2)</text><rect x="55" y="70" width="385" height="430" rx="8" fill="#1c2128" stroke="#e6e6e6" stroke-width="2"/><text x="247" y="100" font-family="Segoe UI, Helvetica, Arial, sans-serif" font-size="21" fill="#e6e6e6" text-anchor="middle" font-weight="600">Método estático (ISO 9053-1)</text><line x1="155.0" y1="170.0" x2="155.0" y2="430.0" stroke="#e6e6e6" stroke-width="2.5" stroke-linecap="round"/><line x1="245.0" y1="170.0" x2="245.0" y2="430.0" stroke="#e6e6e6" stroke-width="2.5" stroke-linecap="round"/><rect x="155.0" y="285.0" width="90" height="46.0" rx="0.0" fill="#0d1117" stroke="#e46a6a" stroke-width="2"/><line x1="159.0" y1="293" x2="241.0" y2="285" stroke="#e46a6a" stroke-width="1.0" stroke-linecap="round"/><line x1="159.0" y1="303" x2="241.0" y2="295" stroke="#e46a6a" stroke-width="1.0" stroke-linecap="round"/><line x1="159.0" y1="313" x2="241.0" y2="305" stroke="#e46a6a" stroke-width="1.0" stroke-linecap="round"/><line x1="159.0" y1="323" x2="241.0" y2="315" stroke="#e46a6a" stroke-width="1.0" stroke-linecap="round"/><text x="200.0" y="353.0" font-family="Segoe UI, Helvetica, Arial, sans-serif" font-size="17" fill="#e46a6a" text-anchor="middle" font-weight="600">probeta (A, d)</text><line x1="200.0" y1="424.0" x2="200.0" y2="374.0" stroke="#5abf5a" stroke-width="2.4" stroke-linecap="round"/><path d="M 200.0 365.0 L 203.6 374.0 L 196.4 374.0 Z" fill="#5abf5a" stroke="none" stroke-width="1.5" stroke-linejoin="round"/><line x1="200.0" y1="273.0" x2="200.0" y2="187.0" stroke="#5abf5a" stroke-width="2.4" stroke-linecap="round"/><path d="M 200.0 178.0 L 203.6 187.0 L 196.4 187.0 Z" fill="#5abf5a" stroke="none" stroke-width="1.5" stroke-linejoin="round"/><text x="200.0" y="452.0" font-family="Segoe UI, Helvetica, Arial, sans-serif" font-size="18" fill="#5abf5a" text-anchor="middle" font-weight="600">flujo laminar  q_v</text><line x1="245.0" y1="281.0" x2="293.0" y2="281.0" stroke="#4da3d8" stroke-width="1.6" stroke-linecap="round"/><line x1="245.0" y1="335.0" x2="293.0" y2="335.0" stroke="#4da3d8" stroke-width="1.6" stroke-linecap="round"/><rect x="293.0" y="259.0" width="74" height="90.0" rx="8" fill="#0d1117" stroke="#4da3d8" stroke-width="2"/><text x="330.0" y="293.0" font-family="Consolas, Menlo, monospace" font-size="22" fill="#4da3d8" text-anchor="middle" font-weight="600">Δp</text><text x="330.0" y="319.0" font-family="Segoe UI, Helvetica, Arial, sans-serif" font-size="15" fill="#9a9a9a" text-anchor="middle">manóm.</text><text x="247" y="478" font-family="Segoe UI, Helvetica, Arial, sans-serif" font-size="16" fill="#e6e6e6" text-anchor="middle" font-weight="600">R = Δp / q_v   (ajuste por el origen a 0,5 mm/s)</text><rect x="460" y="70" width="385" height="430" rx="8" fill="#1c2128" stroke="#e6e6e6" stroke-width="2"/><text x="652" y="100" font-family="Segoe UI, Helvetica, Arial, sans-serif" font-size="21" fill="#e6e6e6" text-anchor="middle" font-weight="600">Método alternante (ISO 9053-2)</text><rect x="590.0" y="160.0" width="125.0" height="200.0" rx="0.0" fill="#0d1117" stroke="#e6e6e6" stroke-width="2.5"/><text x="652.5" y="254.0" font-family="Segoe UI, Helvetica, Arial, sans-serif" font-size="18" fill="#e6e6e6" text-anchor="middle">cavidad</text><text x="652.5" y="278.0" font-family="Segoe UI, Helvetica, Arial, sans-serif" font-size="20" fill="#e6e6e6" text-anchor="middle" font-weight="600" font-style="italic">V</text><rect x="590.0" y="134.0" width="125.0" height="26" rx="0.0" fill="#0d1117" stroke="#e46a6a" stroke-width="2"/><line x1="598" y1="156.0" x2="584" y2="138.0" stroke="#e46a6a" stroke-width="1.0" stroke-linecap="round"/><line x1="609" y1="156.0" x2="595" y2="138.0" stroke="#e46a6a" stroke-width="1.0" stroke-linecap="round"/><line x1="620" y1="156.0" x2="606" y2="138.0" stroke="#e46a6a" stroke-width="1.0" stroke-linecap="round"/><line x1="631" y1="156.0" x2="617" y2="138.0" stroke="#e46a6a" stroke-width="1.0" stroke-linecap="round"/><line x1="642" y1="156.0" x2="628" y2="138.0" stroke="#e46a6a" stroke-width="1.0" stroke-linecap="round"/><line x1="653" y1="156.0" x2="639" y2="138.0" stroke="#e46a6a" stroke-width="1.0" stroke-linecap="round"/><line x1="664" y1="156.0" x2="650" y2="138.0" stroke="#e46a6a" stroke-width="1.0" stroke-linecap="round"/><line x1="675" y1="156.0" x2="661" y2="138.0" stroke="#e46a6a" stroke-width="1.0" stroke-linecap="round"/><line x1="686" y1="156.0" x2="672" y2="138.0" stroke="#e46a6a" stroke-width="1.0" stroke-linecap="round"/><line x1="697" y1="156.0" x2="683" y2="138.0" stroke="#e46a6a" stroke-width="1.0" stroke-linecap="round"/><line x1="708" y1="156.0" x2="694" y2="138.0" stroke="#e46a6a" stroke-width="1.0" stroke-linecap="round"/><text x="652.5" y="124.0" font-family="Segoe UI, Helvetica, Arial, sans-serif" font-size="16" fill="#e46a6a" text-anchor="middle" font-weight="600">probeta / cierre estanco</text><rect x="590.0" y="360.0" width="125.0" height="26" rx="0.0" fill="#1c2128" stroke="#4da3d8" stroke-width="2"/><line x1="652.5" y1="418.0" x2="652.5" y2="399.0" stroke="#4da3d8" stroke-width="2.2" stroke-linecap="round"/><path d="M 652.5 390.0 L 656.1 399.0 L 648.9 399.0 Z" fill="#4da3d8" stroke="none" stroke-width="1.5" stroke-linejoin="round"/><line x1="652.5" y1="390.0" x2="652.5" y2="409.0" stroke="#4da3d8" stroke-width="2.2" stroke-linecap="round"/><path d="M 652.5 418.0 L 648.9 409.0 L 656.1 409.0 Z" fill="#4da3d8" stroke="none" stroke-width="1.5" stroke-linejoin="round"/><text x="652.5" y="440.0" font-family="Segoe UI, Helvetica, Arial, sans-serif" font-size="18" fill="#4da3d8" text-anchor="middle" font-weight="600">pistón  f = 1–4 Hz</text><circle cx="717.0" cy="260.0" r="6" fill="#e6e6e6" stroke="none" stroke-width="1.5"/><line x1="717.0" y1="260.0" x2="775.0" y2="260.0" stroke="#9a9a9a" stroke-width="1.4" stroke-linecap="round"/><text x="781.0" y="266.0" font-family="Consolas, Menlo, monospace" font-size="20" fill="#e6e6e6" text-anchor="start" font-weight="600">L_p</text><text x="652" y="478" font-family="Segoe UI, Helvetica, Arial, sans-serif" font-size="16" fill="#e6e6e6" text-anchor="middle" font-weight="600">R por L_p,s − L_p,t   (κ′ según Anexo A)</text></svg>