<svg xmlns="http://www.w3.org/2000/svg" width="900" height="560" viewBox="0 0 900 560"><rect width="900" height="560" fill="#ffffff"/><text x="450.0" y="30" font-family="Segoe UI, Helvetica, Arial, sans-serif" font-size="26" font-weight="600" fill="#1a1a1a" text-anchor="middle">Dispersión a incidencia aleatoria en cámara reverberante (ISO 17497-1)</text><path d="M 60 80 L 782 66 L 796 400 L 72 400 Z" fill="#f0f2f5" stroke="#1a1a1a" stroke-width="3" stroke-linejoin="round"/><text x="80" y="106" font-family="Segoe UI, Helvetica, Arial, sans-serif" font-size="20" fill="#1a1a1a" text-anchor="start" font-weight="600">Cámara reverberante</text><ellipse cx="285.0" cy="366.0" rx="150" ry="26" fill="#f0f2f5" stroke="#1f77b4" stroke-width="2.2"/><ellipse cx="285.0" cy="354.0" rx="82" ry="15" fill="#ffffff" stroke="#d62728" stroke-width="2.2"/><line x1="225" y1="356.0" x2="235" y2="348.0" stroke="#d62728" stroke-width="1.0" stroke-linecap="round"/><line x1="237" y1="356.0" x2="247" y2="348.0" stroke="#d62728" stroke-width="1.0" stroke-linecap="round"/><line x1="249" y1="356.0" x2="259" y2="348.0" stroke="#d62728" stroke-width="1.0" stroke-linecap="round"/><line x1="261" y1="356.0" x2="271" y2="348.0" stroke="#d62728" stroke-width="1.0" stroke-linecap="round"/><line x1="273" y1="356.0" x2="283" y2="348.0" stroke="#d62728" stroke-width="1.0" stroke-linecap="round"/><line x1="285" y1="356.0" x2="295" y2="348.0" stroke="#d62728" stroke-width="1.0" stroke-linecap="round"/><line x1="297" y1="356.0" x2="307" y2="348.0" stroke="#d62728" stroke-width="1.0" stroke-linecap="round"/><line x1="309" y1="356.0" x2="319" y2="348.0" stroke="#d62728" stroke-width="1.0" stroke-linecap="round"/><line x1="321" y1="356.0" x2="331" y2="348.0" stroke="#d62728" stroke-width="1.0" stroke-linecap="round"/><line x1="333" y1="356.0" x2="343" y2="348.0" stroke="#d62728" stroke-width="1.0" stroke-linecap="round"/><text x="285.0" y="422.0" font-family="Segoe UI, Helvetica, Arial, sans-serif" font-size="17" fill="#1a1a1a" text-anchor="middle" font-weight="600">Plataforma giratoria (probeta)</text><path d="M 149.1 355.0 A 150.0 26.0 0 0 1 426.0 357.1" fill="none" stroke="#2ca02c" stroke-width="2.2" stroke-linejoin="round"/><path d="M 426.0 357.1 L 418.4 349.2 L 426.7 346.2 Z" fill="#2ca02c" stroke="none" stroke-width="1.5" stroke-linejoin="round"/><text x="445" y="372.0" font-family="Segoe UI, Helvetica, Arial, sans-serif" font-size="15" fill="#2ca02c" text-anchor="start">girando → α_spec</text><text x="285.0" y="324.0" font-family="Segoe UI, Helvetica, Arial, sans-serif" font-size="15" fill="#666666" text-anchor="middle">estática → α_s</text><circle cx="560.0" cy="100.0" r="5" fill="#1a1a1a" stroke="none" stroke-width="1.5"/><line x1="560.0" y1="100.0" x2="668.0" y2="202.0" stroke="#1a1a1a" stroke-width="3" stroke-linecap="round"/><rect x="642.0" y="176.0" width="40" height="52" rx="6" fill="#f0f2f5" stroke="#1f77b4" stroke-width="2"/><circle cx="662.0" cy="202.0" r="11" fill="#1f77b4" stroke="none" stroke-width="1.5"/><circle cx="662.0" cy="202.0" r="4" fill="#ffffff" stroke="none" stroke-width="1.5"/><path d="M 672.2 63.5 A 118.0 118.0 0 0 1 642.0 184.9" fill="none" stroke="#2ca02c" stroke-width="2.0" stroke-linejoin="round"/><path d="M 642.0 184.9 L 646.1 174.8 L 652.2 181.1 Z" fill="#2ca02c" stroke="none" stroke-width="1.5" stroke-linejoin="round"/><text x="676.0" y="248.0" font-family="Segoe UI, Helvetica, Arial, sans-serif" font-size="18" fill="#1a1a1a" text-anchor="middle" font-weight="600">Fuente en brazo giratorio</text><rect x="464.0" y="246.0" width="8.0" height="12.0" rx="2.5" fill="#1a1a1a" stroke="none" stroke-width="1.5"/><rect x="462.0" y="258.0" width="12.0" height="34.0" rx="4.0" fill="#1f77b4" stroke="none" stroke-width="1.5"/><line x1="468.0" y1="292.0" x2="468.0" y2="400.0" stroke="#1a1a1a" stroke-width="2.2" stroke-linecap="round"/><line x1="452.0" y1="400.0" x2="484.0" y2="400.0" stroke="#1a1a1a" stroke-width="2.2" stroke-linecap="round"/><text x="468.0" y="234.0" font-family="Segoe UI, Helvetica, Arial, sans-serif" font-size="18" fill="#1a1a1a" text-anchor="middle" font-weight="600">Micrófono</text><text x="450" y="448" font-family="Segoe UI, Helvetica, Arial, sans-serif" font-size="19" fill="#1a1a1a" text-anchor="middle" font-weight="600">Probeta estática → α_s (Ec. 1)   ·   girando / promediada → α_spec (Ec. 4)</text><text x="450" y="478" font-family="Segoe UI, Helvetica, Arial, sans-serif" font-size="19" fill="#2ca02c" text-anchor="middle" font-weight="600">s = (α_spec − α_s) / (1 − α_s)   (Ec. 5)</text><text x="450" y="508" font-family="Segoe UI, Helvetica, Arial, sans-serif" font-size="18" fill="#666666" text-anchor="middle">α con 55,3·(V/S)·(1/cT) − 4(V/S)m   (Sabine, filas T1–T4 de la Tabla 2)</text><text x="450" y="534" font-family="Segoe UI, Helvetica, Arial, sans-serif" font-size="18" fill="#666666" text-anchor="middle">Placa base: s_base ≤ límite de la Tabla 1 (Cláusula 6.2)</text></svg>