<svg xmlns="http://www.w3.org/2000/svg" width="900" height="560" viewBox="0 0 900 560"><rect width="900" height="560" fill="#0d1117"/><text x="450.0" y="30" font-family="Segoe UI, Helvetica, Arial, sans-serif" font-size="26" font-weight="600" fill="#e6e6e6" text-anchor="middle">Calibration chain — from calibrator to physical units</text><line x1="40" y1="470.0" x2="860" y2="470.0" stroke="#e6e6e6" stroke-width="2.2" stroke-linecap="round"/><line x1="40" y1="470.0" x2="32" y2="479.0" stroke="#9a9a9a" stroke-width="1.1" stroke-linecap="round"/><line x1="64" y1="470.0" x2="56" y2="479.0" stroke="#9a9a9a" stroke-width="1.1" stroke-linecap="round"/><line x1="88" y1="470.0" x2="80" y2="479.0" stroke="#9a9a9a" stroke-width="1.1" stroke-linecap="round"/><line x1="112" y1="470.0" x2="104" y2="479.0" stroke="#9a9a9a" stroke-width="1.1" stroke-linecap="round"/><line x1="136" y1="470.0" x2="128" y2="479.0" stroke="#9a9a9a" stroke-width="1.1" stroke-linecap="round"/><line x1="160" y1="470.0" x2="152" y2="479.0" stroke="#9a9a9a" stroke-width="1.1" stroke-linecap="round"/><line x1="184" y1="470.0" x2="176" y2="479.0" stroke="#9a9a9a" stroke-width="1.1" stroke-linecap="round"/><line x1="208" y1="470.0" x2="200" y2="479.0" stroke="#9a9a9a" stroke-width="1.1" stroke-linecap="round"/><line x1="232" y1="470.0" x2="224" y2="479.0" stroke="#9a9a9a" stroke-width="1.1" stroke-linecap="round"/><line x1="256" y1="470.0" x2="248" y2="479.0" stroke="#9a9a9a" stroke-width="1.1" stroke-linecap="round"/><line x1="280" y1="470.0" x2="272" y2="479.0" stroke="#9a9a9a" stroke-width="1.1" stroke-linecap="round"/><line x1="304" y1="470.0" x2="296" y2="479.0" stroke="#9a9a9a" stroke-width="1.1" stroke-linecap="round"/><line x1="328" y1="470.0" x2="320" y2="479.0" stroke="#9a9a9a" stroke-width="1.1" stroke-linecap="round"/><line x1="352" y1="470.0" x2="344" y2="479.0" stroke="#9a9a9a" stroke-width="1.1" stroke-linecap="round"/><line x1="376" y1="470.0" x2="368" y2="479.0" stroke="#9a9a9a" stroke-width="1.1" stroke-linecap="round"/><line x1="400" y1="470.0" x2="392" y2="479.0" stroke="#9a9a9a" stroke-width="1.1" stroke-linecap="round"/><line x1="424" y1="470.0" x2="416" y2="479.0" stroke="#9a9a9a" stroke-width="1.1" stroke-linecap="round"/><line x1="448" y1="470.0" x2="440" y2="479.0" stroke="#9a9a9a" stroke-width="1.1" stroke-linecap="round"/><line x1="472" y1="470.0" x2="464" y2="479.0" stroke="#9a9a9a" stroke-width="1.1" stroke-linecap="round"/><line x1="496" y1="470.0" x2="488" y2="479.0" stroke="#9a9a9a" stroke-width="1.1" stroke-linecap="round"/><line x1="520" y1="470.0" x2="512" y2="479.0" stroke="#9a9a9a" stroke-width="1.1" stroke-linecap="round"/><line x1="544" y1="470.0" x2="536" y2="479.0" stroke="#9a9a9a" stroke-width="1.1" stroke-linecap="round"/><line x1="568" y1="470.0" x2="560" y2="479.0" stroke="#9a9a9a" stroke-width="1.1" stroke-linecap="round"/><line x1="592" y1="470.0" x2="584" y2="479.0" stroke="#9a9a9a" stroke-width="1.1" stroke-linecap="round"/><line x1="616" y1="470.0" x2="608" y2="479.0" stroke="#9a9a9a" stroke-width="1.1" stroke-linecap="round"/><line x1="640" y1="470.0" x2="632" y2="479.0" stroke="#9a9a9a" stroke-width="1.1" stroke-linecap="round"/><line x1="664" y1="470.0" x2="656" y2="479.0" stroke="#9a9a9a" stroke-width="1.1" stroke-linecap="round"/><line x1="688" y1="470.0" x2="680" y2="479.0" stroke="#9a9a9a" stroke-width="1.1" stroke-linecap="round"/><line x1="712" y1="470.0" x2="704" y2="479.0" stroke="#9a9a9a" stroke-width="1.1" stroke-linecap="round"/><line x1="736" y1="470.0" x2="728" y2="479.0" stroke="#9a9a9a" stroke-width="1.1" stroke-linecap="round"/><line x1="760" y1="470.0" x2="752" y2="479.0" stroke="#9a9a9a" stroke-width="1.1" stroke-linecap="round"/><line x1="784" y1="470.0" x2="776" y2="479.0" stroke="#9a9a9a" stroke-width="1.1" stroke-linecap="round"/><line x1="808" y1="470.0" x2="800" y2="479.0" stroke="#9a9a9a" stroke-width="1.1" stroke-linecap="round"/><line x1="832" y1="470.0" x2="824" y2="479.0" stroke="#9a9a9a" stroke-width="1.1" stroke-linecap="round"/><line x1="856" y1="470.0" x2="848" y2="479.0" stroke="#9a9a9a" stroke-width="1.1" stroke-linecap="round"/><text x="150.0" y="88.0" font-family="Segoe UI, Helvetica, Arial, sans-serif" font-size="22" fill="#e6e6e6" text-anchor="middle" font-weight="600">Sound calibrator</text><rect x="88.0" y="110.0" width="124" height="86" rx="10" fill="#1c2128" stroke="#e6e6e6" stroke-width="2"/><text x="150.0" y="148.0" font-family="Consolas, Menlo, monospace" font-size="26" fill="#e46a6a" text-anchor="middle" font-weight="600">94.0 dB</text><text x="150.0" y="176.0" font-family="Consolas, Menlo, monospace" font-size="20" fill="#9a9a9a" text-anchor="middle">1 kHz</text><rect x="135.0" y="196.0" width="30" height="12" rx="3" fill="#e6e6e6" stroke="none" stroke-width="1.5"/><rect x="144.8" y="208.0" width="10.4" height="15.600000000000001" rx="3.25" fill="#e6e6e6" stroke="none" stroke-width="1.5"/><rect x="142.2" y="223.6" width="15.600000000000001" height="44.2" rx="5.2" fill="#4da3d8" stroke="none" stroke-width="1.5"/><line x1="150.0" y1="267.8" x2="150.0" y2="470.0" stroke="#e6e6e6" stroke-width="2.2" stroke-linecap="round"/><line x1="129.2" y1="470.0" x2="170.8" y2="470.0" stroke="#e6e6e6" stroke-width="2.2" stroke-linecap="round"/><rect x="295.0" y="176.0" width="210.0" height="78.0" rx="12" fill="#1c2128" stroke="#4da3d8" stroke-width="2"/><text x="400" y="209.0" font-family="Segoe UI, Helvetica, Arial, sans-serif" font-size="22" fill="#e6e6e6" text-anchor="middle" font-weight="600">Microphone +</text><text x="400" y="236.0" font-family="Segoe UI, Helvetica, Arial, sans-serif" font-size="22" fill="#e6e6e6" text-anchor="middle" font-weight="600">preamplifier</text><line x1="212.0" y1="215.0" x2="280.0" y2="215.0" stroke="#e6e6e6" stroke-width="2" stroke-linecap="round"/><path d="M 289.0 215.0 L 280.0 218.6 L 280.0 211.4 Z" fill="#e6e6e6" stroke="none" stroke-width="1.5" stroke-linejoin="round"/><rect x="545.0" y="176.0" width="210.0" height="78.0" rx="12" fill="#1c2128" stroke="#4da3d8" stroke-width="2"/><text x="650" y="209.0" font-family="Segoe UI, Helvetica, Arial, sans-serif" font-size="22" fill="#e6e6e6" text-anchor="middle" font-weight="600">Audio interface</text><text x="650" y="236.0" font-family="Segoe UI, Helvetica, Arial, sans-serif" font-size="22" fill="#e6e6e6" text-anchor="middle" font-weight="600">(ADC)</text><line x1="511.0" y1="215.0" x2="530.0" y2="215.0" stroke="#e6e6e6" stroke-width="2" stroke-linecap="round"/><path d="M 539.0 215.0 L 530.0 218.6 L 530.0 211.4 Z" fill="#e6e6e6" stroke="none" stroke-width="1.5" stroke-linejoin="round"/><line x1="761.0" y1="215.0" x2="853.0" y2="215.0" stroke="#5abf5a" stroke-width="2.4" stroke-linecap="round"/><path d="M 862.0 215.0 L 853.0 218.6 L 853.0 211.4 Z" fill="#5abf5a" stroke="none" stroke-width="1.5" stroke-linejoin="round"/><text x="818" y="249.0" font-family="Consolas, Menlo, monospace" font-size="20" fill="#5abf5a" text-anchor="middle">Pa per</text><text x="818" y="273.0" font-family="Consolas, Menlo, monospace" font-size="20" fill="#5abf5a" text-anchor="middle">digital unit</text><rect x="250" y="340" width="560" height="96" rx="12" fill="none" stroke="#e46a6a" stroke-width="1.5" stroke-dasharray="6,5"/><text x="530" y="376" font-family="Segoe UI, Helvetica, Arial, sans-serif" font-size="22" fill="#e46a6a" text-anchor="middle" font-weight="600">Stability: |max − mean| and |min − mean| ≤ 0.07 dB</text><text x="530" y="408" font-family="Segoe UI, Helvetica, Arial, sans-serif" font-size="20" fill="#e6e6e6" text-anchor="middle">(IEC 60942:2017 Table 2, class 1) — else CalibrationWarning</text></svg>