<svg xmlns="http://www.w3.org/2000/svg" width="980" height="520" viewBox="0 0 980 520"><rect width="980" height="520" fill="#ffffff"/><text x="490.0" y="30" font-family="Segoe UI, Helvetica, Arial, sans-serif" font-size="26" font-weight="600" fill="#1a1a1a" text-anchor="middle">Environmental noise measurement positions (ISO 1996-2)</text><line x1="40" y1="430.0" x2="940" y2="430.0" stroke="#1a1a1a" stroke-width="2.2" stroke-linecap="round"/><line x1="40" y1="430.0" x2="32" y2="439.0" stroke="#666666" stroke-width="1.1" stroke-linecap="round"/><line x1="64" y1="430.0" x2="56" y2="439.0" stroke="#666666" stroke-width="1.1" stroke-linecap="round"/><line x1="88" y1="430.0" x2="80" y2="439.0" stroke="#666666" stroke-width="1.1" stroke-linecap="round"/><line x1="112" y1="430.0" x2="104" y2="439.0" stroke="#666666" stroke-width="1.1" stroke-linecap="round"/><line x1="136" y1="430.0" x2="128" y2="439.0" stroke="#666666" stroke-width="1.1" stroke-linecap="round"/><line x1="160" y1="430.0" x2="152" y2="439.0" stroke="#666666" stroke-width="1.1" stroke-linecap="round"/><line x1="184" y1="430.0" x2="176" y2="439.0" stroke="#666666" stroke-width="1.1" stroke-linecap="round"/><line x1="208" y1="430.0" x2="200" y2="439.0" stroke="#666666" stroke-width="1.1" stroke-linecap="round"/><line x1="232" y1="430.0" x2="224" y2="439.0" stroke="#666666" stroke-width="1.1" stroke-linecap="round"/><line x1="256" y1="430.0" x2="248" y2="439.0" stroke="#666666" stroke-width="1.1" stroke-linecap="round"/><line x1="280" y1="430.0" x2="272" y2="439.0" stroke="#666666" stroke-width="1.1" stroke-linecap="round"/><line x1="304" y1="430.0" x2="296" y2="439.0" stroke="#666666" stroke-width="1.1" stroke-linecap="round"/><line x1="328" y1="430.0" x2="320" y2="439.0" stroke="#666666" stroke-width="1.1" stroke-linecap="round"/><line x1="352" y1="430.0" x2="344" y2="439.0" stroke="#666666" stroke-width="1.1" stroke-linecap="round"/><line x1="376" y1="430.0" x2="368" y2="439.0" stroke="#666666" stroke-width="1.1" stroke-linecap="round"/><line x1="400" y1="430.0" x2="392" y2="439.0" stroke="#666666" stroke-width="1.1" stroke-linecap="round"/><line x1="424" y1="430.0" x2="416" y2="439.0" stroke="#666666" stroke-width="1.1" stroke-linecap="round"/><line x1="448" y1="430.0" x2="440" y2="439.0" stroke="#666666" stroke-width="1.1" stroke-linecap="round"/><line x1="472" y1="430.0" x2="464" y2="439.0" stroke="#666666" stroke-width="1.1" stroke-linecap="round"/><line x1="496" y1="430.0" x2="488" y2="439.0" stroke="#666666" stroke-width="1.1" stroke-linecap="round"/><line x1="520" y1="430.0" x2="512" y2="439.0" stroke="#666666" stroke-width="1.1" stroke-linecap="round"/><line x1="544" y1="430.0" x2="536" y2="439.0" stroke="#666666" stroke-width="1.1" stroke-linecap="round"/><line x1="568" y1="430.0" x2="560" y2="439.0" stroke="#666666" stroke-width="1.1" stroke-linecap="round"/><line x1="592" y1="430.0" x2="584" y2="439.0" stroke="#666666" stroke-width="1.1" stroke-linecap="round"/><line x1="616" y1="430.0" x2="608" y2="439.0" stroke="#666666" stroke-width="1.1" stroke-linecap="round"/><line x1="640" y1="430.0" x2="632" y2="439.0" stroke="#666666" stroke-width="1.1" stroke-linecap="round"/><line x1="664" y1="430.0" x2="656" y2="439.0" stroke="#666666" stroke-width="1.1" stroke-linecap="round"/><line x1="688" y1="430.0" x2="680" y2="439.0" stroke="#666666" stroke-width="1.1" stroke-linecap="round"/><line x1="712" y1="430.0" x2="704" y2="439.0" stroke="#666666" stroke-width="1.1" stroke-linecap="round"/><line x1="736" y1="430.0" x2="728" y2="439.0" stroke="#666666" stroke-width="1.1" stroke-linecap="round"/><line x1="760" y1="430.0" x2="752" y2="439.0" stroke="#666666" stroke-width="1.1" stroke-linecap="round"/><line x1="784" y1="430.0" x2="776" y2="439.0" stroke="#666666" stroke-width="1.1" stroke-linecap="round"/><line x1="808" y1="430.0" x2="800" y2="439.0" stroke="#666666" stroke-width="1.1" stroke-linecap="round"/><line x1="832" y1="430.0" x2="824" y2="439.0" stroke="#666666" stroke-width="1.1" stroke-linecap="round"/><line x1="856" y1="430.0" x2="848" y2="439.0" stroke="#666666" stroke-width="1.1" stroke-linecap="round"/><line x1="880" y1="430.0" x2="872" y2="439.0" stroke="#666666" stroke-width="1.1" stroke-linecap="round"/><line x1="904" y1="430.0" x2="896" y2="439.0" stroke="#666666" stroke-width="1.1" stroke-linecap="round"/><line x1="928" y1="430.0" x2="920" y2="439.0" stroke="#666666" stroke-width="1.1" stroke-linecap="round"/><rect x="760.0" y="120" width="150" height="310.0" rx="0.0" fill="#f0f2f5" stroke="#1a1a1a" stroke-width="2"/><rect x="782.0" y="160" width="34" height="40" rx="2" fill="#ffffff" stroke="#666666" stroke-width="1"/><rect x="846.0" y="160" width="34" height="40" rx="2" fill="#ffffff" stroke="#666666" stroke-width="1"/><rect x="782.0" y="230" width="34" height="40" rx="2" fill="#ffffff" stroke="#666666" stroke-width="1"/><rect x="846.0" y="230" width="34" height="40" rx="2" fill="#ffffff" stroke="#666666" stroke-width="1"/><rect x="782.0" y="300" width="34" height="40" rx="2" fill="#ffffff" stroke="#666666" stroke-width="1"/><rect x="846.0" y="300" width="34" height="40" rx="2" fill="#ffffff" stroke="#666666" stroke-width="1"/><rect x="782.0" y="370" width="34" height="40" rx="2" fill="#ffffff" stroke="#666666" stroke-width="1"/><rect x="846.0" y="370" width="34" height="40" rx="2" fill="#ffffff" stroke="#666666" stroke-width="1"/><text x="835.0" y="108" font-family="Segoe UI, Helvetica, Arial, sans-serif" font-size="20" fill="#1a1a1a" text-anchor="middle" font-weight="600">Building façade</text><rect x="60" y="422.0" width="150" height="8" rx="0.0" fill="#666666" stroke="none" stroke-width="1.5"/><path d="M 90 404.0 L 110 386.0 L 150 386.0 L 170 404.0 Z" fill="#d62728" stroke="none" stroke-width="1.5" stroke-linejoin="round"/><rect x="84" y="402.0" width="96" height="18" rx="4" fill="#d62728" stroke="none" stroke-width="1.5"/><circle cx="104" cy="418.0" r="8" fill="#1a1a1a" stroke="none" stroke-width="1.5"/><circle cx="160" cy="418.0" r="8" fill="#1a1a1a" stroke="none" stroke-width="1.5"/><text x="132" y="456.0" font-family="Segoe UI, Helvetica, Arial, sans-serif" font-size="18" fill="#666666" text-anchor="middle">Noise source (road traffic)</text><path d="M 190.0 378.0 A 40 40 0 0 1 204.8 404.0" fill="none" stroke="#2ca02c" stroke-width="1.4" stroke-linejoin="round"/><path d="M 205.0 361.5 A 70 70 0 0 1 230.9 407.0" fill="none" stroke="#2ca02c" stroke-width="1.4" stroke-linejoin="round"/><path d="M 220.0 345.0 A 100 100 0 0 1 257.0 410.0" fill="none" stroke="#2ca02c" stroke-width="1.4" stroke-linejoin="round"/><line x1="420.0" y1="240.0" x2="420.0" y2="290.6" stroke="#1a1a1a" stroke-width="2.0" stroke-linecap="round"/><line x1="406.8" y1="290.6" x2="433.2" y2="290.6" stroke="#1a1a1a" stroke-width="2.0" stroke-linecap="round"/><rect x="415.6" y="211.4" width="8.8" height="28.6" rx="3.3000000000000003" fill="#1f77b4" stroke="none" stroke-width="1.5"/><rect x="416.7" y="202.6" width="6.6000000000000005" height="8.8" rx="2.2" fill="#1a1a1a" stroke="none" stroke-width="1.5"/><line x1="374.0" y1="430.0" x2="374.0" y2="430.0" stroke="#666666" stroke-width="0.9" stroke-dasharray="3,3" stroke-linecap="round"/><line x1="374.0" y1="210.0" x2="374.0" y2="210.0" stroke="#666666" stroke-width="0.9" stroke-dasharray="3,3" stroke-linecap="round"/><line x1="374.0" y1="316.0" x2="374.0" y2="421.0" stroke="#666666" stroke-width="1.2" stroke-linecap="round"/><path d="M 374.0 430.0 L 370.4 421.0 L 377.6 421.0 Z" fill="#666666" stroke="none" stroke-width="1.5" stroke-linejoin="round"/><line x1="374.0" y1="324.0" x2="374.0" y2="219.0" stroke="#666666" stroke-width="1.2" stroke-linecap="round"/><path d="M 374.0 210.0 L 377.6 219.0 L 370.4 219.0 Z" fill="#666666" stroke="none" stroke-width="1.5" stroke-linejoin="round"/><text x="381.0" y="324.0" font-family="Segoe UI, Helvetica, Arial, sans-serif" font-size="18" fill="#1a1a1a" text-anchor="start">4.0 ± 0.2 m</text><text x="420.0" y="176.0" font-family="Segoe UI, Helvetica, Arial, sans-serif" font-size="20" fill="#1a1a1a" text-anchor="middle" font-weight="600">A — free field (mapping)</text><text x="420.0" y="196.0" font-family="Consolas, Menlo, monospace" font-size="18" fill="#2ca02c" text-anchor="middle">correction: 0 dB</text><line x1="670.0" y1="240.0" x2="670.0" y2="290.6" stroke="#1a1a1a" stroke-width="2.0" stroke-linecap="round"/><line x1="656.8" y1="290.6" x2="683.2" y2="290.6" stroke="#1a1a1a" stroke-width="2.0" stroke-linecap="round"/><rect x="665.6" y="211.4" width="8.8" height="28.6" rx="3.3000000000000003" fill="#1f77b4" stroke="none" stroke-width="1.5"/><rect x="666.7" y="202.6" width="6.6000000000000005" height="8.8" rx="2.2" fill="#1a1a1a" stroke="none" stroke-width="1.5"/><line x1="670.0" y1="270.0" x2="670.0" y2="270.0" stroke="#666666" stroke-width="0.9" stroke-dasharray="3,3" stroke-linecap="round"/><line x1="760.0" y1="270.0" x2="760.0" y2="270.0" stroke="#666666" stroke-width="0.9" stroke-dasharray="3,3" stroke-linecap="round"/><line x1="711.0" y1="270.0" x2="679.0" y2="270.0" stroke="#666666" stroke-width="1.2" stroke-linecap="round"/><path d="M 670.0 270.0 L 679.0 266.4 L 679.0 273.6 Z" fill="#666666" stroke="none" stroke-width="1.5" stroke-linejoin="round"/><line x1="719.0" y1="270.0" x2="751.0" y2="270.0" stroke="#666666" stroke-width="1.2" stroke-linecap="round"/><path d="M 760.0 270.0 L 751.0 273.6 L 751.0 266.4 Z" fill="#666666" stroke="none" stroke-width="1.5" stroke-linejoin="round"/><text x="715.0" y="265.0" font-family="Segoe UI, Helvetica, Arial, sans-serif" font-size="18" fill="#1a1a1a" text-anchor="middle">2 m</text><text x="610.0" y="140.0" font-family="Segoe UI, Helvetica, Arial, sans-serif" font-size="20" fill="#1a1a1a" text-anchor="middle" font-weight="600">B — 2 m in front of façade</text><text x="610.0" y="162.0" font-family="Consolas, Menlo, monospace" font-size="18" fill="#d62728" text-anchor="middle">correction: −3 dB</text><circle cx="763.0" cy="270.0" r="6" fill="#1a1a1a" stroke="none" stroke-width="1.5"/><line x1="763.0" y1="270.0" x2="730.0" y2="330.0" stroke="#666666" stroke-width="1.2" stroke-linecap="round"/><text x="736.0" y="354.0" font-family="Segoe UI, Helvetica, Arial, sans-serif" font-size="20" fill="#1a1a1a" text-anchor="end" font-weight="600">C — flush-mounted</text><text x="736.0" y="374.0" font-family="Consolas, Menlo, monospace" font-size="18" fill="#d62728" text-anchor="end">correction: −6 dB</text></svg>