<svg xmlns="http://www.w3.org/2000/svg" width="980" height="520" viewBox="0 0 980 520"><rect width="980" height="520" fill="#0d1117"/><text x="490.0" y="30" font-family="Segoe UI, Helvetica, Arial, sans-serif" font-size="26" font-weight="600" fill="#e6e6e6" text-anchor="middle">Emission measurement positions (ECMA-74)</text><line x1="40" y1="420.0" x2="940" y2="420.0" stroke="#e6e6e6" stroke-width="2.2" stroke-linecap="round"/><line x1="40" y1="420.0" x2="32" y2="429.0" stroke="#9a9a9a" stroke-width="1.1" stroke-linecap="round"/><line x1="64" y1="420.0" x2="56" y2="429.0" stroke="#9a9a9a" stroke-width="1.1" stroke-linecap="round"/><line x1="88" y1="420.0" x2="80" y2="429.0" stroke="#9a9a9a" stroke-width="1.1" stroke-linecap="round"/><line x1="112" y1="420.0" x2="104" y2="429.0" stroke="#9a9a9a" stroke-width="1.1" stroke-linecap="round"/><line x1="136" y1="420.0" x2="128" y2="429.0" stroke="#9a9a9a" stroke-width="1.1" stroke-linecap="round"/><line x1="160" y1="420.0" x2="152" y2="429.0" stroke="#9a9a9a" stroke-width="1.1" stroke-linecap="round"/><line x1="184" y1="420.0" x2="176" y2="429.0" stroke="#9a9a9a" stroke-width="1.1" stroke-linecap="round"/><line x1="208" y1="420.0" x2="200" y2="429.0" stroke="#9a9a9a" stroke-width="1.1" stroke-linecap="round"/><line x1="232" y1="420.0" x2="224" y2="429.0" stroke="#9a9a9a" stroke-width="1.1" stroke-linecap="round"/><line x1="256" y1="420.0" x2="248" y2="429.0" stroke="#9a9a9a" stroke-width="1.1" stroke-linecap="round"/><line x1="280" y1="420.0" x2="272" y2="429.0" stroke="#9a9a9a" stroke-width="1.1" stroke-linecap="round"/><line x1="304" y1="420.0" x2="296" y2="429.0" stroke="#9a9a9a" stroke-width="1.1" stroke-linecap="round"/><line x1="328" y1="420.0" x2="320" y2="429.0" stroke="#9a9a9a" stroke-width="1.1" stroke-linecap="round"/><line x1="352" y1="420.0" x2="344" y2="429.0" stroke="#9a9a9a" stroke-width="1.1" stroke-linecap="round"/><line x1="376" y1="420.0" x2="368" y2="429.0" stroke="#9a9a9a" stroke-width="1.1" stroke-linecap="round"/><line x1="400" y1="420.0" x2="392" y2="429.0" stroke="#9a9a9a" stroke-width="1.1" stroke-linecap="round"/><line x1="424" y1="420.0" x2="416" y2="429.0" stroke="#9a9a9a" stroke-width="1.1" stroke-linecap="round"/><line x1="448" y1="420.0" x2="440" y2="429.0" stroke="#9a9a9a" stroke-width="1.1" stroke-linecap="round"/><line x1="472" y1="420.0" x2="464" y2="429.0" stroke="#9a9a9a" stroke-width="1.1" stroke-linecap="round"/><line x1="496" y1="420.0" x2="488" y2="429.0" stroke="#9a9a9a" stroke-width="1.1" stroke-linecap="round"/><line x1="520" y1="420.0" x2="512" y2="429.0" stroke="#9a9a9a" stroke-width="1.1" stroke-linecap="round"/><line x1="544" y1="420.0" x2="536" y2="429.0" stroke="#9a9a9a" stroke-width="1.1" stroke-linecap="round"/><line x1="568" y1="420.0" x2="560" y2="429.0" stroke="#9a9a9a" stroke-width="1.1" stroke-linecap="round"/><line x1="592" y1="420.0" x2="584" y2="429.0" stroke="#9a9a9a" stroke-width="1.1" stroke-linecap="round"/><line x1="616" y1="420.0" x2="608" y2="429.0" stroke="#9a9a9a" stroke-width="1.1" stroke-linecap="round"/><line x1="640" y1="420.0" x2="632" y2="429.0" stroke="#9a9a9a" stroke-width="1.1" stroke-linecap="round"/><line x1="664" y1="420.0" x2="656" y2="429.0" stroke="#9a9a9a" stroke-width="1.1" stroke-linecap="round"/><line x1="688" y1="420.0" x2="680" y2="429.0" stroke="#9a9a9a" stroke-width="1.1" stroke-linecap="round"/><line x1="712" y1="420.0" x2="704" y2="429.0" stroke="#9a9a9a" stroke-width="1.1" stroke-linecap="round"/><line x1="736" y1="420.0" x2="728" y2="429.0" stroke="#9a9a9a" stroke-width="1.1" stroke-linecap="round"/><line x1="760" y1="420.0" x2="752" y2="429.0" stroke="#9a9a9a" stroke-width="1.1" stroke-linecap="round"/><line x1="784" y1="420.0" x2="776" y2="429.0" stroke="#9a9a9a" stroke-width="1.1" stroke-linecap="round"/><line x1="808" y1="420.0" x2="800" y2="429.0" stroke="#9a9a9a" stroke-width="1.1" stroke-linecap="round"/><line x1="832" y1="420.0" x2="824" y2="429.0" stroke="#9a9a9a" stroke-width="1.1" stroke-linecap="round"/><line x1="856" y1="420.0" x2="848" y2="429.0" stroke="#9a9a9a" stroke-width="1.1" stroke-linecap="round"/><line x1="880" y1="420.0" x2="872" y2="429.0" stroke="#9a9a9a" stroke-width="1.1" stroke-linecap="round"/><line x1="904" y1="420.0" x2="896" y2="429.0" stroke="#9a9a9a" stroke-width="1.1" stroke-linecap="round"/><line x1="928" y1="420.0" x2="920" y2="429.0" stroke="#9a9a9a" stroke-width="1.1" stroke-linecap="round"/><line x1="126.0" y1="420.0" x2="126.0" y2="280.0" stroke="#e6e6e6" stroke-width="3" stroke-linecap="round"/><line x1="354.0" y1="420.0" x2="354.0" y2="280.0" stroke="#e6e6e6" stroke-width="3" stroke-linecap="round"/><line x1="110.0" y1="280.0" x2="370.0" y2="280.0" stroke="#e6e6e6" stroke-width="4" stroke-linecap="round"/><rect x="130.0" y="210.0" width="110" height="70" rx="6" fill="#1c2128" stroke="#4da3d8" stroke-width="2"/><text x="185.0" y="250.0" font-family="Segoe UI, Helvetica, Arial, sans-serif" font-size="20" fill="#4da3d8" text-anchor="middle" font-weight="600">EUT</text><text x="185.0" y="200.0" font-family="Segoe UI, Helvetica, Arial, sans-serif" font-size="16" fill="#9a9a9a" text-anchor="middle">reference box</text><rect x="297.0" y="185.0" width="10" height="13" rx="3" fill="#e6e6e6" stroke="none" stroke-width="1.5"/><rect x="295.0" y="198.0" width="14" height="38" rx="4" fill="#4da3d8" stroke="none" stroke-width="1.5"/><line x1="302.0" y1="236.0" x2="302.0" y2="280.0" stroke="#e6e6e6" stroke-width="2.2" stroke-linecap="round"/><line x1="288.0" y1="280.0" x2="316.0" y2="280.0" stroke="#e6e6e6" stroke-width="2.2" stroke-linecap="round"/><line x1="240.0" y1="163.0" x2="240.0" y2="163.0" stroke="#9a9a9a" stroke-width="0.9" stroke-dasharray="3,3" stroke-linecap="round"/><line x1="302.0" y1="163.0" x2="302.0" y2="163.0" stroke="#9a9a9a" stroke-width="0.9" stroke-dasharray="3,3" stroke-linecap="round"/><line x1="267.0" y1="163.0" x2="249.0" y2="163.0" stroke="#9a9a9a" stroke-width="1.2" stroke-linecap="round"/><path d="M 240.0 163.0 L 249.0 159.4 L 249.0 166.6 Z" fill="#9a9a9a" stroke="none" stroke-width="1.5" stroke-linejoin="round"/><line x1="275.0" y1="163.0" x2="293.0" y2="163.0" stroke="#9a9a9a" stroke-width="1.2" stroke-linecap="round"/><path d="M 302.0 163.0 L 293.0 166.6 L 293.0 159.4 Z" fill="#9a9a9a" stroke="none" stroke-width="1.5" stroke-linejoin="round"/><text x="271.0" y="158.0" font-family="Segoe UI, Helvetica, Arial, sans-serif" font-size="18" fill="#e6e6e6" text-anchor="middle">0.25 ± 0.03 m</text><line x1="376.0" y1="420.0" x2="376.0" y2="420.0" stroke="#9a9a9a" stroke-width="0.9" stroke-dasharray="3,3" stroke-linecap="round"/><line x1="376.0" y1="185.0" x2="376.0" y2="185.0" stroke="#9a9a9a" stroke-width="0.9" stroke-dasharray="3,3" stroke-linecap="round"/><line x1="376.0" y1="298.5" x2="376.0" y2="411.0" stroke="#9a9a9a" stroke-width="1.2" stroke-linecap="round"/><path d="M 376.0 420.0 L 372.4 411.0 L 379.6 411.0 Z" fill="#9a9a9a" stroke="none" stroke-width="1.5" stroke-linejoin="round"/><line x1="376.0" y1="306.5" x2="376.0" y2="194.0" stroke="#9a9a9a" stroke-width="1.2" stroke-linecap="round"/><path d="M 376.0 185.0 L 379.6 194.0 L 372.4 194.0 Z" fill="#9a9a9a" stroke="none" stroke-width="1.5" stroke-linejoin="round"/><text x="383.0" y="306.5" font-family="Segoe UI, Helvetica, Arial, sans-serif" font-size="18" fill="#e6e6e6" text-anchor="start">1.20 ± 0.03 m</text><line x1="444.0" y1="315.0" x2="500.0" y2="315.0" stroke="#9a9a9a" stroke-width="3" stroke-linecap="round"/><line x1="448.0" y1="315.0" x2="448.0" y2="420.0" stroke="#9a9a9a" stroke-width="2.4" stroke-linecap="round"/><line x1="496.0" y1="315.0" x2="496.0" y2="420.0" stroke="#9a9a9a" stroke-width="2.4" stroke-linecap="round"/><line x1="500.0" y1="315.0" x2="500.0" y2="237.0" stroke="#9a9a9a" stroke-width="2.4" stroke-linecap="round"/><circle cx="470.0" cy="202.0" r="20" fill="#9a9a9a" stroke="none" stroke-width="1.5"/><line x1="470.0" y1="215.0" x2="476.0" y2="315.0" stroke="#9a9a9a" stroke-width="3.2" stroke-linecap="round"/><line x1="476.0" y1="315.0" x2="436.0" y2="313.0" stroke="#9a9a9a" stroke-width="2.6" stroke-linecap="round"/><line x1="436.0" y1="313.0" x2="436.0" y2="420.0" stroke="#9a9a9a" stroke-width="2.6" stroke-linecap="round"/><line x1="468.0" y1="235.0" x2="430.0" y2="260.0" stroke="#9a9a9a" stroke-width="2.4" stroke-linecap="round"/><text x="474.0" y="176.0" font-family="Segoe UI, Helvetica, Arial, sans-serif" font-size="16" fill="#9a9a9a" text-anchor="middle">operator</text><text x="300.0" y="70" font-family="Segoe UI, Helvetica, Arial, sans-serif" font-size="22" fill="#e6e6e6" text-anchor="middle" font-weight="600">Operator's position — seated (P2)</text><text x="300.0" y="90" font-family="Segoe UI, Helvetica, Arial, sans-serif" font-size="18" fill="#9a9a9a" text-anchor="middle">standing: height 1.50 ± 0.03 m (P1)</text><text x="760.0" y="70" font-family="Segoe UI, Helvetica, Arial, sans-serif" font-size="22" fill="#e6e6e6" text-anchor="middle" font-weight="600">Bystander positions — top view</text><text x="760.0" y="90" font-family="Segoe UI, Helvetica, Arial, sans-serif" font-size="18" fill="#9a9a9a" text-anchor="middle">height 1.50 ± 0.03 m, ≥ 4 positions</text><rect x="705.0" y="210.0" width="110" height="80" rx="6" fill="#1c2128" stroke="#4da3d8" stroke-width="2"/><text x="760.0" y="255.0" font-family="Segoe UI, Helvetica, Arial, sans-serif" font-size="20" fill="#4da3d8" text-anchor="middle" font-weight="600">EUT</text><circle cx="760.0" cy="140.0" r="7" fill="#e46a6a" stroke="none" stroke-width="1.5"/><circle cx="760.0" cy="140.0" r="2.4" fill="#0d1117" stroke="none" stroke-width="1.5"/><text x="760.0" y="124.0" font-family="Segoe UI, Helvetica, Arial, sans-serif" font-size="16" fill="#9a9a9a" text-anchor="middle">front</text><circle cx="760.0" cy="360.0" r="7" fill="#e46a6a" stroke="none" stroke-width="1.5"/><circle cx="760.0" cy="360.0" r="2.4" fill="#0d1117" stroke="none" stroke-width="1.5"/><text x="760.0" y="384.0" font-family="Segoe UI, Helvetica, Arial, sans-serif" font-size="16" fill="#9a9a9a" text-anchor="middle">rear</text><circle cx="600.0" cy="250.0" r="7" fill="#e46a6a" stroke="none" stroke-width="1.5"/><circle cx="600.0" cy="250.0" r="2.4" fill="#0d1117" stroke="none" stroke-width="1.5"/><text x="600.0" y="274.0" font-family="Segoe UI, Helvetica, Arial, sans-serif" font-size="16" fill="#9a9a9a" text-anchor="middle">left</text><circle cx="920.0" cy="250.0" r="7" fill="#e46a6a" stroke="none" stroke-width="1.5"/><circle cx="920.0" cy="250.0" r="2.4" fill="#0d1117" stroke="none" stroke-width="1.5"/><text x="920.0" y="274.0" font-family="Segoe UI, Helvetica, Arial, sans-serif" font-size="16" fill="#9a9a9a" text-anchor="middle">right</text><line x1="815.0" y1="330.0" x2="815.0" y2="330.0" stroke="#9a9a9a" stroke-width="0.9" stroke-dasharray="3,3" stroke-linecap="round"/><line x1="920.0" y1="330.0" x2="920.0" y2="330.0" stroke="#9a9a9a" stroke-width="0.9" stroke-dasharray="3,3" stroke-linecap="round"/><line x1="863.5" y1="330.0" x2="824.0" y2="330.0" stroke="#9a9a9a" stroke-width="1.2" stroke-linecap="round"/><path d="M 815.0 330.0 L 824.0 326.4 L 824.0 333.6 Z" fill="#9a9a9a" stroke="none" stroke-width="1.5" stroke-linejoin="round"/><line x1="871.5" y1="330.0" x2="911.0" y2="330.0" stroke="#9a9a9a" stroke-width="1.2" stroke-linecap="round"/><path d="M 920.0 330.0 L 911.0 333.6 L 911.0 326.4 Z" fill="#9a9a9a" stroke="none" stroke-width="1.5" stroke-linejoin="round"/><text x="867.5" y="325.0" font-family="Segoe UI, Helvetica, Arial, sans-serif" font-size="18" fill="#e6e6e6" text-anchor="middle">1.00 ± 0.03 m</text></svg>