<svg xmlns="http://www.w3.org/2000/svg" width="900" height="560" viewBox="0 0 900 560"><rect width="900" height="560" fill="#0d1117"/><text x="450.0" y="30" font-family="Segoe UI, Helvetica, Arial, sans-serif" font-size="26" font-weight="600" fill="#e6e6e6" text-anchor="middle">Posiciones de medida de ruido ambiental (ISO 1996-2)</text><line x1="40" y1="470.0" x2="860" y2="470.0" stroke="#e6e6e6" stroke-width="2.2" stroke-linecap="round"/><line x1="40" y1="470.0" x2="32" y2="479.0" stroke="#9a9a9a" stroke-width="1.1" stroke-linecap="round"/><line x1="64" y1="470.0" x2="56" y2="479.0" stroke="#9a9a9a" stroke-width="1.1" stroke-linecap="round"/><line x1="88" y1="470.0" x2="80" y2="479.0" stroke="#9a9a9a" stroke-width="1.1" stroke-linecap="round"/><line x1="112" y1="470.0" x2="104" y2="479.0" stroke="#9a9a9a" stroke-width="1.1" stroke-linecap="round"/><line x1="136" y1="470.0" x2="128" y2="479.0" stroke="#9a9a9a" stroke-width="1.1" stroke-linecap="round"/><line x1="160" y1="470.0" x2="152" y2="479.0" stroke="#9a9a9a" stroke-width="1.1" stroke-linecap="round"/><line x1="184" y1="470.0" x2="176" y2="479.0" stroke="#9a9a9a" stroke-width="1.1" stroke-linecap="round"/><line x1="208" y1="470.0" x2="200" y2="479.0" stroke="#9a9a9a" stroke-width="1.1" stroke-linecap="round"/><line x1="232" y1="470.0" x2="224" y2="479.0" stroke="#9a9a9a" stroke-width="1.1" stroke-linecap="round"/><line x1="256" y1="470.0" x2="248" y2="479.0" stroke="#9a9a9a" stroke-width="1.1" stroke-linecap="round"/><line x1="280" y1="470.0" x2="272" y2="479.0" stroke="#9a9a9a" stroke-width="1.1" stroke-linecap="round"/><line x1="304" y1="470.0" x2="296" y2="479.0" stroke="#9a9a9a" stroke-width="1.1" stroke-linecap="round"/><line x1="328" y1="470.0" x2="320" y2="479.0" stroke="#9a9a9a" stroke-width="1.1" stroke-linecap="round"/><line x1="352" y1="470.0" x2="344" y2="479.0" stroke="#9a9a9a" stroke-width="1.1" stroke-linecap="round"/><line x1="376" y1="470.0" x2="368" y2="479.0" stroke="#9a9a9a" stroke-width="1.1" stroke-linecap="round"/><line x1="400" y1="470.0" x2="392" y2="479.0" stroke="#9a9a9a" stroke-width="1.1" stroke-linecap="round"/><line x1="424" y1="470.0" x2="416" y2="479.0" stroke="#9a9a9a" stroke-width="1.1" stroke-linecap="round"/><line x1="448" y1="470.0" x2="440" y2="479.0" stroke="#9a9a9a" stroke-width="1.1" stroke-linecap="round"/><line x1="472" y1="470.0" x2="464" y2="479.0" stroke="#9a9a9a" stroke-width="1.1" stroke-linecap="round"/><line x1="496" y1="470.0" x2="488" y2="479.0" stroke="#9a9a9a" stroke-width="1.1" stroke-linecap="round"/><line x1="520" y1="470.0" x2="512" y2="479.0" stroke="#9a9a9a" stroke-width="1.1" stroke-linecap="round"/><line x1="544" y1="470.0" x2="536" y2="479.0" stroke="#9a9a9a" stroke-width="1.1" stroke-linecap="round"/><line x1="568" y1="470.0" x2="560" y2="479.0" stroke="#9a9a9a" stroke-width="1.1" stroke-linecap="round"/><line x1="592" y1="470.0" x2="584" y2="479.0" stroke="#9a9a9a" stroke-width="1.1" stroke-linecap="round"/><line x1="616" y1="470.0" x2="608" y2="479.0" stroke="#9a9a9a" stroke-width="1.1" stroke-linecap="round"/><line x1="640" y1="470.0" x2="632" y2="479.0" stroke="#9a9a9a" stroke-width="1.1" stroke-linecap="round"/><line x1="664" y1="470.0" x2="656" y2="479.0" stroke="#9a9a9a" stroke-width="1.1" stroke-linecap="round"/><line x1="688" y1="470.0" x2="680" y2="479.0" stroke="#9a9a9a" stroke-width="1.1" stroke-linecap="round"/><line x1="712" y1="470.0" x2="704" y2="479.0" stroke="#9a9a9a" stroke-width="1.1" stroke-linecap="round"/><line x1="736" y1="470.0" x2="728" y2="479.0" stroke="#9a9a9a" stroke-width="1.1" stroke-linecap="round"/><line x1="760" y1="470.0" x2="752" y2="479.0" stroke="#9a9a9a" stroke-width="1.1" stroke-linecap="round"/><line x1="784" y1="470.0" x2="776" y2="479.0" stroke="#9a9a9a" stroke-width="1.1" stroke-linecap="round"/><line x1="808" y1="470.0" x2="800" y2="479.0" stroke="#9a9a9a" stroke-width="1.1" stroke-linecap="round"/><line x1="832" y1="470.0" x2="824" y2="479.0" stroke="#9a9a9a" stroke-width="1.1" stroke-linecap="round"/><line x1="856" y1="470.0" x2="848" y2="479.0" stroke="#9a9a9a" stroke-width="1.1" stroke-linecap="round"/><rect x="700.0" y="120" width="160" height="350.0" rx="0.0" fill="#1c2128" stroke="#e6e6e6" stroke-width="2"/><rect x="724.0" y="158" width="38" height="46" rx="3" fill="#0d1117" stroke="#9a9a9a" stroke-width="1.2"/><rect x="796.0" y="158" width="38" height="46" rx="3" fill="#0d1117" stroke="#9a9a9a" stroke-width="1.2"/><rect x="724.0" y="236" width="38" height="46" rx="3" fill="#0d1117" stroke="#9a9a9a" stroke-width="1.2"/><rect x="796.0" y="236" width="38" height="46" rx="3" fill="#0d1117" stroke="#9a9a9a" stroke-width="1.2"/><rect x="724.0" y="314" width="38" height="46" rx="3" fill="#0d1117" stroke="#9a9a9a" stroke-width="1.2"/><rect x="796.0" y="314" width="38" height="46" rx="3" fill="#0d1117" stroke="#9a9a9a" stroke-width="1.2"/><rect x="724.0" y="392" width="38" height="46" rx="3" fill="#0d1117" stroke="#9a9a9a" stroke-width="1.2"/><rect x="796.0" y="392" width="38" height="46" rx="3" fill="#0d1117" stroke="#9a9a9a" stroke-width="1.2"/><text x="780.0" y="104" font-family="Segoe UI, Helvetica, Arial, sans-serif" font-size="22" fill="#e6e6e6" text-anchor="middle" font-weight="600">Fachada del edificio</text><rect x="60" y="461.0" width="140" height="9" rx="0.0" fill="#9a9a9a" stroke="none" stroke-width="1.5"/><path d="M 88 440.0 L 106 422.0 L 146 422.0 L 164 440.0 Z" fill="#e46a6a" stroke="none" stroke-width="1.5" stroke-linejoin="round"/><rect x="80" y="438.0" width="96" height="14" rx="5" fill="#e46a6a" stroke="none" stroke-width="1.5"/><circle cx="102" cy="457.0" r="9" fill="#e6e6e6" stroke="none" stroke-width="1.5"/><circle cx="156" cy="457.0" r="9" fill="#e6e6e6" stroke="none" stroke-width="1.5"/><path d="M 190.0 411.8 A 44 44 0 0 1 206.28 440.4" fill="none" stroke="#5abf5a" stroke-width="1.6" stroke-linejoin="round"/><path d="M 206.0 394.2 A 76 76 0 0 1 234.12 443.6" fill="none" stroke="#5abf5a" stroke-width="1.6" stroke-linejoin="round"/><path d="M 222.0 376.6 A 108 108 0 0 1 261.96 446.8" fill="none" stroke="#5abf5a" stroke-width="1.6" stroke-linejoin="round"/><rect x="325.4" y="240.0" width="9.2" height="13.799999999999999" rx="2.875" fill="#e6e6e6" stroke="none" stroke-width="1.5"/><rect x="323.1" y="253.8" width="13.799999999999999" height="39.099999999999994" rx="4.6" fill="#4da3d8" stroke="none" stroke-width="1.5"/><line x1="330.0" y1="292.9" x2="330.0" y2="470.0" stroke="#e6e6e6" stroke-width="2.2" stroke-linecap="round"/><line x1="311.6" y1="470.0" x2="348.4" y2="470.0" stroke="#e6e6e6" stroke-width="2.2" stroke-linecap="round"/><line x1="330.0" y1="470.0" x2="270.0" y2="470.0" stroke="#9a9a9a" stroke-width="0.9" stroke-dasharray="3,3" stroke-linecap="round"/><line x1="330.0" y1="240.0" x2="270.0" y2="240.0" stroke="#9a9a9a" stroke-width="0.9" stroke-dasharray="3,3" stroke-linecap="round"/><line x1="270.0" y1="351.0" x2="270.0" y2="461.0" stroke="#9a9a9a" stroke-width="1.2" stroke-linecap="round"/><path d="M 270.0 470.0 L 266.4 461.0 L 273.6 461.0 Z" fill="#9a9a9a" stroke="none" stroke-width="1.5" stroke-linejoin="round"/><line x1="270.0" y1="359.0" x2="270.0" y2="249.0" stroke="#9a9a9a" stroke-width="1.2" stroke-linecap="round"/><path d="M 270.0 240.0 L 273.6 249.0 L 266.4 249.0 Z" fill="#9a9a9a" stroke="none" stroke-width="1.5" stroke-linejoin="round"/><text x="261.0" y="361.0" font-family="Segoe UI, Helvetica, Arial, sans-serif" font-size="20" fill="#e6e6e6" text-anchor="end">4,0 ± 0,2 m</text><text x="310.0" y="182.0" font-family="Segoe UI, Helvetica, Arial, sans-serif" font-size="22" fill="#e6e6e6" text-anchor="middle" font-weight="600">A — campo libre</text><text x="310.0" y="210.0" font-family="Consolas, Menlo, monospace" font-size="22" fill="#5abf5a" text-anchor="middle" font-weight="600">0 dB</text><rect x="587.4" y="240.0" width="9.2" height="13.799999999999999" rx="2.875" fill="#e6e6e6" stroke="none" stroke-width="1.5"/><rect x="585.1" y="253.8" width="13.799999999999999" height="39.099999999999994" rx="4.6" fill="#4da3d8" stroke="none" stroke-width="1.5"/><line x1="592.0" y1="292.9" x2="592.0" y2="470.0" stroke="#e6e6e6" stroke-width="2.2" stroke-linecap="round"/><line x1="573.6" y1="470.0" x2="610.4" y2="470.0" stroke="#e6e6e6" stroke-width="2.2" stroke-linecap="round"/><line x1="592.0" y1="246.0" x2="592.0" y2="232.0" stroke="#9a9a9a" stroke-width="0.9" stroke-dasharray="3,3" stroke-linecap="round"/><line x1="700.0" y1="246.0" x2="700.0" y2="232.0" stroke="#9a9a9a" stroke-width="0.9" stroke-dasharray="3,3" stroke-linecap="round"/><line x1="642.0" y1="232.0" x2="601.0" y2="232.0" stroke="#9a9a9a" stroke-width="1.2" stroke-linecap="round"/><path d="M 592.0 232.0 L 601.0 228.4 L 601.0 235.6 Z" fill="#9a9a9a" stroke="none" stroke-width="1.5" stroke-linejoin="round"/><line x1="650.0" y1="232.0" x2="691.0" y2="232.0" stroke="#9a9a9a" stroke-width="1.2" stroke-linecap="round"/><path d="M 700.0 232.0 L 691.0 235.6 L 691.0 228.4 Z" fill="#9a9a9a" stroke="none" stroke-width="1.5" stroke-linejoin="round"/><text x="646.0" y="225.0" font-family="Segoe UI, Helvetica, Arial, sans-serif" font-size="20" fill="#e6e6e6" text-anchor="middle">2 m</text><text x="562.0" y="182.0" font-family="Segoe UI, Helvetica, Arial, sans-serif" font-size="22" fill="#e6e6e6" text-anchor="middle" font-weight="600">B — a 2 m de la fachada</text><text x="562.0" y="210.0" font-family="Consolas, Menlo, monospace" font-size="22" fill="#e46a6a" text-anchor="middle" font-weight="600">−3 dB</text><circle cx="703.0" cy="350.0" r="7" fill="#e6e6e6" stroke="none" stroke-width="1.5"/><line x1="698.0" y1="355.0" x2="470" y2="410.0" stroke="#9a9a9a" stroke-width="1.4" stroke-linecap="round"/><text x="462" y="434.0" font-family="Segoe UI, Helvetica, Arial, sans-serif" font-size="22" fill="#e6e6e6" text-anchor="middle" font-weight="600">C — enrasado en fachada</text><text x="462" y="460.0" font-family="Consolas, Menlo, monospace" font-size="22" fill="#e46a6a" text-anchor="middle" font-weight="600">−6 dB</text></svg>