<svg xmlns="http://www.w3.org/2000/svg" width="900" height="600" viewBox="0 0 900 600"><rect width="900" height="600" fill="#ffffff"/><text x="450.0" y="30" font-family="Segoe UI, Helvetica, Arial, sans-serif" font-size="26" font-weight="600" fill="#1a1a1a" text-anchor="middle">Flujo de cálculo del índice de inteligibilidad del habla (ANSI S3.5-1997)</text><rect x="40.0" y="40.0" width="220.0" height="66.0" rx="10" fill="#f0f2f5" stroke="#1f77b4" stroke-width="2"/><text x="150.0" y="68.0" font-family="Segoe UI, Helvetica, Arial, sans-serif" font-size="21" fill="#1a1a1a" text-anchor="middle" font-weight="600">Habla  Ei'</text><text x="150.0" y="91.0" font-family="Segoe UI, Helvetica, Arial, sans-serif" font-size="16" fill="#666666" text-anchor="middle">nivel espectral (dB)</text><line x1="150.0" y1="106.0" x2="150.0" y2="141.0" stroke="#1a1a1a" stroke-width="1.8" stroke-linecap="round"/><path d="M 150.0 150.0 L 146.4 141.0 L 153.6 141.0 Z" fill="#1a1a1a" stroke="none" stroke-width="1.5" stroke-linejoin="round"/><rect x="340.0" y="40.0" width="220.0" height="66.0" rx="10" fill="#f0f2f5" stroke="#d62728" stroke-width="2"/><text x="450.0" y="68.0" font-family="Segoe UI, Helvetica, Arial, sans-serif" font-size="21" fill="#1a1a1a" text-anchor="middle" font-weight="600">Ruido  Ni'</text><text x="450.0" y="91.0" font-family="Segoe UI, Helvetica, Arial, sans-serif" font-size="16" fill="#666666" text-anchor="middle">nivel espectral (dB)</text><line x1="450.0" y1="106.0" x2="450.0" y2="141.0" stroke="#1a1a1a" stroke-width="1.8" stroke-linecap="round"/><path d="M 450.0 150.0 L 446.4 141.0 L 453.6 141.0 Z" fill="#1a1a1a" stroke="none" stroke-width="1.5" stroke-linejoin="round"/><rect x="640.0" y="40.0" width="220.0" height="66.0" rx="10" fill="#f0f2f5" stroke="#2ca02c" stroke-width="2"/><text x="750.0" y="68.0" font-family="Segoe UI, Helvetica, Arial, sans-serif" font-size="21" fill="#1a1a1a" text-anchor="middle" font-weight="600">Umbral  Ti'</text><text x="750.0" y="91.0" font-family="Segoe UI, Helvetica, Arial, sans-serif" font-size="16" fill="#666666" text-anchor="middle">nivel espectral (dB)</text><line x1="750.0" y1="106.0" x2="750.0" y2="141.0" stroke="#1a1a1a" stroke-width="1.8" stroke-linecap="round"/><path d="M 750.0 150.0 L 746.4 141.0 L 753.6 141.0 Z" fill="#1a1a1a" stroke="none" stroke-width="1.5" stroke-linejoin="round"/><rect x="215.0" y="150.0" width="470.0" height="70.0" rx="12" fill="#f0f2f5" stroke="#1a1a1a" stroke-width="2"/><text x="450.0" y="180.0" font-family="Segoe UI, Helvetica, Arial, sans-serif" font-size="20" fill="#1a1a1a" text-anchor="middle" font-weight="600">Automáscara + propagación de la máscara</text><text x="450.0" y="204.0" font-family="Segoe UI, Helvetica, Arial, sans-serif" font-size="17" fill="#666666" text-anchor="middle">Zi   (cláusula 5.4)</text><rect x="215.0" y="264.0" width="470.0" height="70.0" rx="12" fill="#f0f2f5" stroke="#1a1a1a" stroke-width="2"/><text x="450.0" y="294.0" font-family="Segoe UI, Helvetica, Arial, sans-serif" font-size="20" fill="#1a1a1a" text-anchor="middle" font-weight="600">Perturbación equivalente Di</text><text x="450.0" y="318.0" font-family="Segoe UI, Helvetica, Arial, sans-serif" font-size="17" fill="#666666" text-anchor="middle">máx(máscara, ruido interno) (5.6)</text><rect x="215.0" y="378.0" width="470.0" height="70.0" rx="12" fill="#f0f2f5" stroke="#1a1a1a" stroke-width="2"/><text x="450.0" y="408.0" font-family="Segoe UI, Helvetica, Arial, sans-serif" font-size="20" fill="#1a1a1a" text-anchor="middle" font-weight="600">Audibilidad de banda Ai = (Ei' − Di + 15)/30</text><text x="450.0" y="432.0" font-family="Segoe UI, Helvetica, Arial, sans-serif" font-size="17" fill="#666666" text-anchor="middle">acotada a [0, 1]   (cláusula 5.8)</text><line x1="450.0" y1="220" x2="450.0" y2="255.0" stroke="#1a1a1a" stroke-width="2.0" stroke-linecap="round"/><path d="M 450.0 264.0 L 446.4 255.0 L 453.6 255.0 Z" fill="#1a1a1a" stroke="none" stroke-width="1.5" stroke-linejoin="round"/><line x1="450.0" y1="334" x2="450.0" y2="369.0" stroke="#1a1a1a" stroke-width="2.0" stroke-linecap="round"/><path d="M 450.0 378.0 L 446.4 369.0 L 453.6 369.0 Z" fill="#1a1a1a" stroke="none" stroke-width="1.5" stroke-linejoin="round"/><line x1="450.0" y1="448" x2="450.0" y2="477.0" stroke="#1a1a1a" stroke-width="2.0" stroke-linecap="round"/><path d="M 450.0 486.0 L 446.4 477.0 L 453.6 477.0 Z" fill="#1a1a1a" stroke="none" stroke-width="1.5" stroke-linejoin="round"/><rect x="215.0" y="486" width="470.0" height="74" rx="12" fill="none" stroke="#1f77b4" stroke-width="2.4"/><text x="450.0" y="516" font-family="Segoe UI, Helvetica, Arial, sans-serif" font-size="26" fill="#1a1a1a" text-anchor="middle" font-weight="600">SII = Σ I_i A_i</text><text x="450.0" y="542" font-family="Segoe UI, Helvetica, Arial, sans-serif" font-size="16" fill="#1f77b4" text-anchor="middle">importancia de banda I_i (Tabla 3)  ·  índice en [0, 1]  (cláusula 6)</text></svg>