<svg xmlns="http://www.w3.org/2000/svg" width="900" height="510" viewBox="0 0 900 510"><rect width="900" height="510" fill="#ffffff"/><text x="450.0" y="30" font-family="Segoe UI, Helvetica, Arial, sans-serif" font-size="26" font-weight="600" fill="#1a1a1a" text-anchor="middle">Block processing: carrying the filter state versus resetting it</text><text x="450" y="62" font-family="Segoe UI, Helvetica, Arial, sans-serif" font-size="19" fill="#1a1a1a" text-anchor="middle" font-weight="600">State carried across blocks — TimeWeighting.process()</text><text x="450" y="84" font-family="Segoe UI, Helvetica, Arial, sans-serif" font-size="13" fill="#666666" text-anchor="middle">y[-1] (or the sosfilt zi vector) seeds the next block → identical to one continuous call</text><line x1="150.0" y1="200.0" x2="720.0" y2="200.0" stroke="#666666" stroke-width="1.4" stroke-linecap="round"/><line x1="150.0" y1="118.0" x2="150.0" y2="212.0" stroke="#666666" stroke-width="1.0" stroke-dasharray="3,4" stroke-linecap="round"/><line x1="340.0" y1="118.0" x2="340.0" y2="212.0" stroke="#666666" stroke-width="1.0" stroke-dasharray="3,4" stroke-linecap="round"/><line x1="530.0" y1="118.0" x2="530.0" y2="212.0" stroke="#666666" stroke-width="1.0" stroke-dasharray="3,4" stroke-linecap="round"/><line x1="720.0" y1="118.0" x2="720.0" y2="212.0" stroke="#666666" stroke-width="1.0" stroke-dasharray="3,4" stroke-linecap="round"/><path d="M 150.0 200.0 L 156.3 197.6 L 162.7 195.3 L 169.0 193.1 L 175.3 190.9 L 181.7 188.8 L 188.0 186.8 L 194.3 184.9 L 200.7 183.1 L 207.0 181.3 L 213.3 179.6 L 219.7 177.9 L 226.0 176.3 L 232.3 174.8 L 238.7 173.3 L 245.0 171.9 L 251.3 170.5 L 257.7 169.2 L 264.0 167.9 L 270.3 166.7 L 276.7 165.5 L 283.0 164.3 L 289.3 163.2 L 295.7 162.2 L 302.0 161.1 L 308.3 160.1 L 314.7 159.2 L 321.0 158.3 L 327.3 157.4 L 333.7 156.5 L 340.0 155.7" fill="none" stroke="#1f77b4" stroke-width="2.6" stroke-linejoin="round"/><text x="245.0" y="230.0" font-family="Segoe UI, Helvetica, Arial, sans-serif" font-size="13" fill="#666666" text-anchor="middle">block 1</text><path d="M 340.0 155.7 L 346.3 154.9 L 352.7 154.2 L 359.0 153.4 L 365.3 152.7 L 371.7 152.1 L 378.0 151.4 L 384.3 150.8 L 390.7 150.2 L 397.0 149.6 L 403.3 149.0 L 409.7 148.5 L 416.0 147.9 L 422.3 147.4 L 428.7 146.9 L 435.0 146.5 L 441.3 146.0 L 447.7 145.6 L 454.0 145.2 L 460.3 144.7 L 466.7 144.4 L 473.0 144.0 L 479.3 143.6 L 485.7 143.3 L 492.0 142.9 L 498.3 142.6 L 504.7 142.3 L 511.0 142.0 L 517.3 141.7 L 523.7 141.4 L 530.0 141.2" fill="none" stroke="#1f77b4" stroke-width="2.6" stroke-linejoin="round"/><text x="435.0" y="230.0" font-family="Segoe UI, Helvetica, Arial, sans-serif" font-size="13" fill="#666666" text-anchor="middle">block 2</text><path d="M 530.0 141.2 L 536.3 140.9 L 542.7 140.6 L 549.0 140.4 L 555.3 140.2 L 561.7 139.9 L 568.0 139.7 L 574.3 139.5 L 580.7 139.3 L 587.0 139.1 L 593.3 138.9 L 599.7 138.8 L 606.0 138.6 L 612.3 138.4 L 618.7 138.3 L 625.0 138.1 L 631.3 138.0 L 637.7 137.8 L 644.0 137.7 L 650.3 137.5 L 656.7 137.4 L 663.0 137.3 L 669.3 137.2 L 675.7 137.1 L 682.0 136.9 L 688.3 136.8 L 694.7 136.7 L 701.0 136.6 L 707.3 136.5 L 713.7 136.4 L 720.0 136.4" fill="none" stroke="#1f77b4" stroke-width="2.6" stroke-linejoin="round"/><text x="625.0" y="230.0" font-family="Segoe UI, Helvetica, Arial, sans-serif" font-size="13" fill="#666666" text-anchor="middle">block 3</text><rect x="313.0" y="94.0" width="54" height="22" rx="6" fill="#ffffff" stroke="#1f77b4" stroke-width="1.4"/><text x="340.0" y="109.0" font-family="Consolas, Menlo, monospace" font-size="12" fill="#1a1a1a" text-anchor="middle">y[-1]</text><rect x="503.0" y="94.0" width="54" height="22" rx="6" fill="#ffffff" stroke="#1f77b4" stroke-width="1.4"/><text x="530.0" y="109.0" font-family="Consolas, Menlo, monospace" font-size="12" fill="#1a1a1a" text-anchor="middle">y[-1]</text><text x="450" y="300" font-family="Segoe UI, Helvetica, Arial, sans-serif" font-size="19" fill="#1a1a1a" text-anchor="middle" font-weight="600">State reset each block — reset() or a fresh call</text><text x="450" y="322" font-family="Segoe UI, Helvetica, Arial, sans-serif" font-size="13" fill="#666666" text-anchor="middle">every block restarts from rest → spurious discontinuities at the seams</text><line x1="150.0" y1="430.0" x2="720.0" y2="430.0" stroke="#666666" stroke-width="1.4" stroke-linecap="round"/><line x1="150.0" y1="348.0" x2="150.0" y2="442.0" stroke="#666666" stroke-width="1.0" stroke-dasharray="3,4" stroke-linecap="round"/><line x1="340.0" y1="348.0" x2="340.0" y2="442.0" stroke="#666666" stroke-width="1.0" stroke-dasharray="3,4" stroke-linecap="round"/><line x1="530.0" y1="348.0" x2="530.0" y2="442.0" stroke="#666666" stroke-width="1.0" stroke-dasharray="3,4" stroke-linecap="round"/><line x1="720.0" y1="348.0" x2="720.0" y2="442.0" stroke="#666666" stroke-width="1.0" stroke-dasharray="3,4" stroke-linecap="round"/><path d="M 150.0 430.0 L 156.3 427.6 L 162.7 425.3 L 169.0 423.1 L 175.3 420.9 L 181.7 418.8 L 188.0 416.8 L 194.3 414.9 L 200.7 413.1 L 207.0 411.3 L 213.3 409.6 L 219.7 407.9 L 226.0 406.3 L 232.3 404.8 L 238.7 403.3 L 245.0 401.9 L 251.3 400.5 L 257.7 399.2 L 264.0 397.9 L 270.3 396.7 L 276.7 395.5 L 283.0 394.3 L 289.3 393.2 L 295.7 392.2 L 302.0 391.1 L 308.3 390.1 L 314.7 389.2 L 321.0 388.3 L 327.3 387.4 L 333.7 386.5 L 340.0 385.7" fill="none" stroke="#d62728" stroke-width="2.6" stroke-linejoin="round"/><text x="245.0" y="460.0" font-family="Segoe UI, Helvetica, Arial, sans-serif" font-size="13" fill="#666666" text-anchor="middle">block 1</text><path d="M 340.0 430.0 L 346.3 427.6 L 352.7 425.3 L 359.0 423.1 L 365.3 420.9 L 371.7 418.8 L 378.0 416.8 L 384.3 414.9 L 390.7 413.1 L 397.0 411.3 L 403.3 409.6 L 409.7 407.9 L 416.0 406.3 L 422.3 404.8 L 428.7 403.3 L 435.0 401.9 L 441.3 400.5 L 447.7 399.2 L 454.0 397.9 L 460.3 396.7 L 466.7 395.5 L 473.0 394.3 L 479.3 393.2 L 485.7 392.2 L 492.0 391.1 L 498.3 390.1 L 504.7 389.2 L 511.0 388.3 L 517.3 387.4 L 523.7 386.5 L 530.0 385.7" fill="none" stroke="#d62728" stroke-width="2.6" stroke-linejoin="round"/><text x="435.0" y="460.0" font-family="Segoe UI, Helvetica, Arial, sans-serif" font-size="13" fill="#666666" text-anchor="middle">block 2</text><path d="M 530.0 430.0 L 536.3 427.6 L 542.7 425.3 L 549.0 423.1 L 555.3 420.9 L 561.7 418.8 L 568.0 416.8 L 574.3 414.9 L 580.7 413.1 L 587.0 411.3 L 593.3 409.6 L 599.7 407.9 L 606.0 406.3 L 612.3 404.8 L 618.7 403.3 L 625.0 401.9 L 631.3 400.5 L 637.7 399.2 L 644.0 397.9 L 650.3 396.7 L 656.7 395.5 L 663.0 394.3 L 669.3 393.2 L 675.7 392.2 L 682.0 391.1 L 688.3 390.1 L 694.7 389.2 L 701.0 388.3 L 707.3 387.4 L 713.7 386.5 L 720.0 385.7" fill="none" stroke="#d62728" stroke-width="2.6" stroke-linejoin="round"/><text x="625.0" y="460.0" font-family="Segoe UI, Helvetica, Arial, sans-serif" font-size="13" fill="#666666" text-anchor="middle">block 3</text><line x1="340.0" y1="385.7267371953218" x2="340.0" y2="430.0" stroke="#d62728" stroke-width="1.6" stroke-dasharray="2,3" stroke-linecap="round"/><line x1="530.0" y1="385.7267371953218" x2="530.0" y2="430.0" stroke="#d62728" stroke-width="1.6" stroke-dasharray="2,3" stroke-linecap="round"/></svg>