<svg xmlns="http://www.w3.org/2000/svg" width="980" height="520" viewBox="0 0 980 520"><rect width="980" height="520" fill="#0d1117"/><text x="490.0" y="30" font-family="Segoe UI, Helvetica, Arial, sans-serif" font-size="26" font-weight="600" fill="#e6e6e6" text-anchor="middle">Calibration chain — from calibrator to physical units</text><line x1="40" y1="440.0" x2="940" y2="440.0" stroke="#e6e6e6" stroke-width="2.2" stroke-linecap="round"/><line x1="40" y1="440.0" x2="32" y2="449.0" stroke="#9a9a9a" stroke-width="1.1" stroke-linecap="round"/><line x1="64" y1="440.0" x2="56" y2="449.0" stroke="#9a9a9a" stroke-width="1.1" stroke-linecap="round"/><line x1="88" y1="440.0" x2="80" y2="449.0" stroke="#9a9a9a" stroke-width="1.1" stroke-linecap="round"/><line x1="112" y1="440.0" x2="104" y2="449.0" stroke="#9a9a9a" stroke-width="1.1" stroke-linecap="round"/><line x1="136" y1="440.0" x2="128" y2="449.0" stroke="#9a9a9a" stroke-width="1.1" stroke-linecap="round"/><line x1="160" y1="440.0" x2="152" y2="449.0" stroke="#9a9a9a" stroke-width="1.1" stroke-linecap="round"/><line x1="184" y1="440.0" x2="176" y2="449.0" stroke="#9a9a9a" stroke-width="1.1" stroke-linecap="round"/><line x1="208" y1="440.0" x2="200" y2="449.0" stroke="#9a9a9a" stroke-width="1.1" stroke-linecap="round"/><line x1="232" y1="440.0" x2="224" y2="449.0" stroke="#9a9a9a" stroke-width="1.1" stroke-linecap="round"/><line x1="256" y1="440.0" x2="248" y2="449.0" stroke="#9a9a9a" stroke-width="1.1" stroke-linecap="round"/><line x1="280" y1="440.0" x2="272" y2="449.0" stroke="#9a9a9a" stroke-width="1.1" stroke-linecap="round"/><line x1="304" y1="440.0" x2="296" y2="449.0" stroke="#9a9a9a" stroke-width="1.1" stroke-linecap="round"/><line x1="328" y1="440.0" x2="320" y2="449.0" stroke="#9a9a9a" stroke-width="1.1" stroke-linecap="round"/><line x1="352" y1="440.0" x2="344" y2="449.0" stroke="#9a9a9a" stroke-width="1.1" stroke-linecap="round"/><line x1="376" y1="440.0" x2="368" y2="449.0" stroke="#9a9a9a" stroke-width="1.1" stroke-linecap="round"/><line x1="400" y1="440.0" x2="392" y2="449.0" stroke="#9a9a9a" stroke-width="1.1" stroke-linecap="round"/><line x1="424" y1="440.0" x2="416" y2="449.0" stroke="#9a9a9a" stroke-width="1.1" stroke-linecap="round"/><line x1="448" y1="440.0" x2="440" y2="449.0" stroke="#9a9a9a" stroke-width="1.1" stroke-linecap="round"/><line x1="472" y1="440.0" x2="464" y2="449.0" stroke="#9a9a9a" stroke-width="1.1" stroke-linecap="round"/><line x1="496" y1="440.0" x2="488" y2="449.0" stroke="#9a9a9a" stroke-width="1.1" stroke-linecap="round"/><line x1="520" y1="440.0" x2="512" y2="449.0" stroke="#9a9a9a" stroke-width="1.1" stroke-linecap="round"/><line x1="544" y1="440.0" x2="536" y2="449.0" stroke="#9a9a9a" stroke-width="1.1" stroke-linecap="round"/><line x1="568" y1="440.0" x2="560" y2="449.0" stroke="#9a9a9a" stroke-width="1.1" stroke-linecap="round"/><line x1="592" y1="440.0" x2="584" y2="449.0" stroke="#9a9a9a" stroke-width="1.1" stroke-linecap="round"/><line x1="616" y1="440.0" x2="608" y2="449.0" stroke="#9a9a9a" stroke-width="1.1" stroke-linecap="round"/><line x1="640" y1="440.0" x2="632" y2="449.0" stroke="#9a9a9a" stroke-width="1.1" stroke-linecap="round"/><line x1="664" y1="440.0" x2="656" y2="449.0" stroke="#9a9a9a" stroke-width="1.1" stroke-linecap="round"/><line x1="688" y1="440.0" x2="680" y2="449.0" stroke="#9a9a9a" stroke-width="1.1" stroke-linecap="round"/><line x1="712" y1="440.0" x2="704" y2="449.0" stroke="#9a9a9a" stroke-width="1.1" stroke-linecap="round"/><line x1="736" y1="440.0" x2="728" y2="449.0" stroke="#9a9a9a" stroke-width="1.1" stroke-linecap="round"/><line x1="760" y1="440.0" x2="752" y2="449.0" stroke="#9a9a9a" stroke-width="1.1" stroke-linecap="round"/><line x1="784" y1="440.0" x2="776" y2="449.0" stroke="#9a9a9a" stroke-width="1.1" stroke-linecap="round"/><line x1="808" y1="440.0" x2="800" y2="449.0" stroke="#9a9a9a" stroke-width="1.1" stroke-linecap="round"/><line x1="832" y1="440.0" x2="824" y2="449.0" stroke="#9a9a9a" stroke-width="1.1" stroke-linecap="round"/><line x1="856" y1="440.0" x2="848" y2="449.0" stroke="#9a9a9a" stroke-width="1.1" stroke-linecap="round"/><line x1="880" y1="440.0" x2="872" y2="449.0" stroke="#9a9a9a" stroke-width="1.1" stroke-linecap="round"/><line x1="904" y1="440.0" x2="896" y2="449.0" stroke="#9a9a9a" stroke-width="1.1" stroke-linecap="round"/><line x1="928" y1="440.0" x2="920" y2="449.0" stroke="#9a9a9a" stroke-width="1.1" stroke-linecap="round"/><rect x="118.0" y="120.0" width="104" height="74" rx="8" fill="#1c2128" stroke="#e6e6e6" stroke-width="2"/><text x="170.0" y="150.0" font-family="Consolas, Menlo, monospace" font-size="22" fill="#e46a6a" text-anchor="middle" font-weight="600">94.0 dB</text><text x="170.0" y="170.0" font-family="Consolas, Menlo, monospace" font-size="18" fill="#9a9a9a" text-anchor="middle">1 kHz</text><rect x="156.0" y="194.0" width="28" height="10" rx="2" fill="#e6e6e6" stroke="none" stroke-width="1.5"/><text x="170.0" y="106.0" font-family="Segoe UI, Helvetica, Arial, sans-serif" font-size="20" fill="#e6e6e6" text-anchor="middle" font-weight="600">Sound calibrator</text><rect x="166.0" y="204.0" width="8" height="10" rx="2" fill="#e6e6e6" stroke="none" stroke-width="1.5"/><rect x="164.0" y="214.0" width="12" height="66" rx="4" fill="#4da3d8" stroke="none" stroke-width="1.5"/><line x1="170.0" y1="280.0" x2="170.0" y2="440.0" stroke="#e6e6e6" stroke-width="2.0" stroke-linecap="round"/><line x1="154.0" y1="440.0" x2="186.0" y2="440.0" stroke="#e6e6e6" stroke-width="2.0" stroke-linecap="round"/><text x="170.0" y="466.0" font-family="Segoe UI, Helvetica, Arial, sans-serif" font-size="18" fill="#9a9a9a" text-anchor="middle">Class 1 calibrator (IEC 60942)</text><text x="170.0" y="482.0" font-family="Segoe UI, Helvetica, Arial, sans-serif" font-size="18" fill="#9a9a9a" text-anchor="middle">coupled to the microphone</text><line x1="176.0" y1="212.0" x2="210.0" y2="212.0" stroke="#e6e6e6" stroke-width="1.6" stroke-linecap="round"/><rect x="295.0" y="180.0" width="170.0" height="64.0" rx="10" fill="#1c2128" stroke="#4da3d8" stroke-width="2"/><text x="380" y="207.0" font-family="Segoe UI, Helvetica, Arial, sans-serif" font-size="20" fill="#e6e6e6" text-anchor="middle" font-weight="600">Microphone +</text><text x="380" y="226.0" font-family="Segoe UI, Helvetica, Arial, sans-serif" font-size="20" fill="#e6e6e6" text-anchor="middle" font-weight="600">preamplifier</text><line x1="210.0" y1="212.0" x2="280.0" y2="212.0" stroke="#e6e6e6" stroke-width="1.6" stroke-linecap="round"/><path d="M 289.0 212.0 L 280.0 215.6 L 280.0 208.4 Z" fill="#e6e6e6" stroke="none" stroke-width="1.5" stroke-linejoin="round"/><rect x="500.0" y="180.0" width="170.0" height="64.0" rx="10" fill="#1c2128" stroke="#4da3d8" stroke-width="2"/><text x="585" y="207.0" font-family="Segoe UI, Helvetica, Arial, sans-serif" font-size="20" fill="#e6e6e6" text-anchor="middle" font-weight="600">Audio interface</text><text x="585" y="226.0" font-family="Segoe UI, Helvetica, Arial, sans-serif" font-size="20" fill="#e6e6e6" text-anchor="middle" font-weight="600">(ADC)</text><line x1="471.0" y1="212.0" x2="485.0" y2="212.0" stroke="#e6e6e6" stroke-width="1.6" stroke-linecap="round"/><path d="M 494.0 212.0 L 485.0 215.6 L 485.0 208.4 Z" fill="#e6e6e6" stroke="none" stroke-width="1.5" stroke-linejoin="round"/><rect x="705.0" y="180.0" width="170.0" height="64.0" rx="10" fill="#1c2128" stroke="#4da3d8" stroke-width="2"/><text x="790" y="207.0" font-family="Consolas, Menlo, monospace" font-size="20" fill="#e6e6e6" text-anchor="middle">sensitivity</text><text x="790" y="226.0" font-family="Consolas, Menlo, monospace" font-size="20" fill="#e6e6e6" text-anchor="middle">factor</text><line x1="676.0" y1="212.0" x2="690.0" y2="212.0" stroke="#e6e6e6" stroke-width="1.6" stroke-linecap="round"/><path d="M 699.0 212.0 L 690.0 215.6 L 690.0 208.4 Z" fill="#e6e6e6" stroke="none" stroke-width="1.5" stroke-linejoin="round"/><line x1="890" y1="244.0" x2="890.0" y2="269.0" stroke="#5abf5a" stroke-width="2" stroke-linecap="round"/><path d="M 890.0 278.0 L 886.4 269.0 L 893.6 269.0 Z" fill="#5abf5a" stroke="none" stroke-width="1.5" stroke-linejoin="round"/><text x="892" y="304.0" font-family="Consolas, Menlo, monospace" font-size="18" fill="#5abf5a" text-anchor="end">Pa / digital unit</text><text x="872" y="224.0" font-family="Consolas, Menlo, monospace" font-size="18" fill="#5abf5a" text-anchor="start">digital</text><text x="872" y="240.0" font-family="Consolas, Menlo, monospace" font-size="18" fill="#5abf5a" text-anchor="start">unit</text><rect x="270" y="296" width="600" height="104" rx="10" fill="none" stroke="#e46a6a" stroke-width="1.5" stroke-dasharray="5,4"/><text x="560" y="326" font-family="Segoe UI, Helvetica, Arial, sans-serif" font-size="20" fill="#e46a6a" text-anchor="middle" font-weight="600">Stability check (IEC 60942:2017, 5.3.3)</text><text x="560" y="348" font-family="Segoe UI, Helvetica, Arial, sans-serif" font-size="18" fill="#e6e6e6" text-anchor="middle">|max − mean| and |min − mean| of the F-weighted level</text><text x="560" y="366" font-family="Segoe UI, Helvetica, Arial, sans-serif" font-size="18" fill="#e6e6e6" text-anchor="middle">must stay ≤ 0.07 dB (class 1, 160 Hz – 1.25 kHz),</text><text x="560" y="384" font-family="Segoe UI, Helvetica, Arial, sans-serif" font-size="18" fill="#e6e6e6" text-anchor="middle">otherwise a CalibrationWarning is raised</text></svg>