<?xml version="1.0" encoding="utf-8" standalone="no"?>
<!DOCTYPE svg PUBLIC "-//W3C//DTD SVG 1.1//EN"
  "http://www.w3.org/Graphics/SVG/1.1/DTD/svg11.dtd">
<svg xmlns:xlink="http://www.w3.org/1999/xlink" width="551.208906pt" height="532.798125pt" viewBox="0 0 551.208906 532.798125" xmlns="http://www.w3.org/2000/svg" version="1.1">
 <metadata>
  <rdf:RDF xmlns:dc="http://purl.org/dc/elements/1.1/" xmlns:cc="http://creativecommons.org/ns#" xmlns:rdf="http://www.w3.org/1999/02/22-rdf-syntax-ns#">
   <cc:Work>
    <dc:type rdf:resource="http://purl.org/dc/dcmitype/StillImage"/>
    <dc:format>image/svg+xml</dc:format>
    <dc:creator>
     <cc:Agent>
      <dc:title>Matplotlib v3.11.1, https://matplotlib.org/</dc:title>
     </cc:Agent>
    </dc:creator>
   </cc:Work>
  </rdf:RDF>
 </metadata>
 <defs>
  <style type="text/css">*{stroke-linejoin: round; stroke-linecap: butt}</style>
 </defs>
 <g id="figure_1">
  <g id="patch_1">
   <path d="M 0 532.798125 
L 551.208906 532.798125 
L 551.208906 0 
L 0 0 
z
"/>
  </g>
  <g id="axes_1">
   <g id="patch_2">
    <path d="M 521.146406 403.278125 
C 521.146406 338.420447 495.354313 276.152826 449.493009 230.291522 
C 403.631705 184.430218 341.364084 158.638125 276.506406 158.638125 
C 211.648728 158.638125 149.381107 184.430218 103.519803 230.291522 
C 57.658499 276.152826 31.866406 338.420447 31.866406 403.278125 
L 276.506406 403.278125 
C 276.506406 403.278125 276.506406 403.278125 276.506406 403.278125 
C 276.506406 403.278125 276.506406 403.278125 276.506406 403.278125 
C 276.506406 403.278125 276.506406 403.278125 276.506406 403.278125 
C 276.506406 403.278125 276.506406 403.278125 276.506406 403.278125 
z
"/>
   </g>
   <g id="patch_3">
    <path d="M 34.764687 403.278125 
L 39.3375 382.528534 
L 60.336716 365.161576 
L 81.807154 351.108618 
L 66.324426 326.77814 
L 64.413635 304.377642 
L 72.344655 285.405283 
L 85.905468 269.817911 
L 100.676744 255.73952 
L 114.12955 240.901269 
L 127.334075 225.501464 
L 142.102899 211.330024 
L 159.239462 200.16582 
L 177.915195 191.84859 
L 197.636739 186.585494 
L 217.796363 184.16926 
L 237.701873 183.206679 
L 257.235084 183.005901 
L 276.506406 184.737599 
L 295.598389 185.055765 
L 314.795805 186.128153 
L 334.116687 188.273632 
L 353.388555 192.046159 
L 371.807032 198.905274 
L 388.475672 209.341668 
L 402.580498 223.225663 
L 411.885639 241.939438 
L 417.339103 262.445428 
L 429.189086 275.162145 
L 451.618198 280.663528 
L 471.635417 290.620338 
L 485.675235 305.741098 
L 490.62953 325.343681 
L 475.918086 349.845927 
L 457.490547 371.365738 
L 505.424903 383.250352 
L 518.248126 403.278125 
z
" clip-path="url(#pb4d1a531d6)" style="fill: #1f77b4; opacity: 0.15; stroke: #1f77b4; stroke-linejoin: miter"/>
   </g>
   <g id="matplotlib.axis_1">
    <g id="xtick_1">
     <g id="line2d_1">
      <path d="M 276.506406 403.278125 
L 31.866406 403.278125 
" clip-path="url(#pb4d1a531d6)" style="fill: none; stroke-dasharray: 2.96,1.28; stroke-dashoffset: 0; stroke: #ffffff; stroke-opacity: 0.5; stroke-width: 0.8"/>
     </g>
     <g id="text_1">
      <text style="font-size: 10px; font-family: sans-serif; text-anchor: middle; fill: #ffffff" x="17.866406" y="405.875781" transform="rotate(-0 17.866406 405.875781)">-90°</text>
     </g>
    </g>
    <g id="xtick_2">
     <g id="line2d_2">
      <path d="M 276.506406 403.278125 
L 64.641951 280.958125 
" clip-path="url(#pb4d1a531d6)" style="fill: none; stroke-dasharray: 2.96,1.28; stroke-dashoffset: 0; stroke: #ffffff; stroke-opacity: 0.5; stroke-width: 0.8"/>
     </g>
     <g id="text_2">
      <text style="font-size: 10px; font-family: sans-serif; text-anchor: middle; fill: #ffffff" x="52.517596" y="276.555781" transform="rotate(-0 52.517596 276.555781)">-60°</text>
     </g>
    </g>
    <g id="xtick_3">
     <g id="line2d_3">
      <path d="M 276.506406 403.278125 
L 154.186406 191.41367 
" clip-path="url(#pb4d1a531d6)" style="fill: none; stroke-dasharray: 2.96,1.28; stroke-dashoffset: 0; stroke: #ffffff; stroke-opacity: 0.5; stroke-width: 0.8"/>
     </g>
     <g id="text_3">
      <text style="font-size: 10px; font-family: sans-serif; text-anchor: middle; fill: #ffffff" x="147.186406" y="181.886971" transform="rotate(-0 147.186406 181.886971)">-30°</text>
     </g>
    </g>
    <g id="xtick_4">
     <g id="line2d_4">
      <path d="M 276.506406 403.278125 
L 276.506406 158.638125 
" clip-path="url(#pb4d1a531d6)" style="fill: none; stroke-dasharray: 2.96,1.28; stroke-dashoffset: 0; stroke: #ffffff; stroke-opacity: 0.5; stroke-width: 0.8"/>
     </g>
     <g id="text_4">
      <text style="font-size: 10px; font-family: sans-serif; text-anchor: middle; fill: #ffffff" x="276.506406" y="147.235781" transform="rotate(-0 276.506406 147.235781)">0°</text>
     </g>
    </g>
    <g id="xtick_5">
     <g id="line2d_5">
      <path d="M 276.506406 403.278125 
L 398.826406 191.41367 
" clip-path="url(#pb4d1a531d6)" style="fill: none; stroke-dasharray: 2.96,1.28; stroke-dashoffset: 0; stroke: #ffffff; stroke-opacity: 0.5; stroke-width: 0.8"/>
     </g>
     <g id="text_5">
      <text style="font-size: 10px; font-family: sans-serif; text-anchor: middle; fill: #ffffff" x="405.826406" y="181.886971" transform="rotate(-0 405.826406 181.886971)">30°</text>
     </g>
    </g>
    <g id="xtick_6">
     <g id="line2d_6">
      <path d="M 276.506406 403.278125 
L 488.370861 280.958125 
" clip-path="url(#pb4d1a531d6)" style="fill: none; stroke-dasharray: 2.96,1.28; stroke-dashoffset: 0; stroke: #ffffff; stroke-opacity: 0.5; stroke-width: 0.8"/>
     </g>
     <g id="text_6">
      <text style="font-size: 10px; font-family: sans-serif; text-anchor: middle; fill: #ffffff" x="500.495217" y="276.555781" transform="rotate(-0 500.495217 276.555781)">60°</text>
     </g>
    </g>
    <g id="xtick_7">
     <g id="line2d_7">
      <path d="M 276.506406 403.278125 
L 521.146406 403.278125 
" clip-path="url(#pb4d1a531d6)" style="fill: none; stroke-dasharray: 2.96,1.28; stroke-dashoffset: 0; stroke: #ffffff; stroke-opacity: 0.5; stroke-width: 0.8"/>
     </g>
     <g id="text_7">
      <text style="font-size: 10px; font-family: sans-serif; text-anchor: middle; fill: #ffffff" x="535.146406" y="405.875781" transform="rotate(-0 535.146406 405.875781)">90°</text>
     </g>
    </g>
   </g>
   <g id="matplotlib.axis_2">
    <g id="ytick_1">
     <g id="line2d_8">
      <path d="M 276.506406 403.278125 
C 276.506406 403.278125 276.506406 403.278125 276.506406 403.278125 
C 276.506406 403.278125 276.506406 403.278125 276.506406 403.278125 
C 276.506406 403.278125 276.506406 403.278125 276.506406 403.278125 
C 276.506406 403.278125 276.506406 403.278125 276.506406 403.278125 
" clip-path="url(#pb4d1a531d6)" style="fill: none; stroke-dasharray: 2.96,1.28; stroke-dashoffset: 0; stroke: #ffffff; stroke-opacity: 0.5; stroke-width: 0.8"/>
     </g>
     <g id="text_8">
      <text style="font-size: 10px; font-family: sans-serif; text-anchor: middle; fill: #ffffff" x="276.506406" y="417.875781" transform="rotate(-0 276.506406 417.875781)">0</text>
     </g>
    </g>
    <g id="ytick_2">
     <g id="line2d_9">
      <path d="M 237.162344 403.278125 
C 237.162344 392.847433 241.31034 382.833285 248.685953 375.457672 
C 256.061566 368.082059 266.075714 363.934063 276.506406 363.934063 
C 286.937098 363.934063 296.951246 368.082059 304.326859 375.457672 
C 311.702472 382.833285 315.850468 392.847433 315.850468 403.278125 
" clip-path="url(#pb4d1a531d6)" style="fill: none; stroke-dasharray: 2.96,1.28; stroke-dashoffset: 0; stroke: #ffffff; stroke-opacity: 0.5; stroke-width: 0.8"/>
     </g>
     <g id="text_9">
      <text style="font-size: 10px; font-family: sans-serif; text-anchor: middle; fill: #ffffff" x="237.162344" y="417.875781" transform="rotate(-0 237.162344 417.875781)">10</text>
     </g>
    </g>
    <g id="ytick_3">
     <g id="line2d_10">
      <path d="M 197.818282 403.278125 
C 197.818282 382.416741 206.114274 362.388445 220.8655 347.637219 
C 235.616726 332.885993 255.645022 324.590001 276.506406 324.590001 
C 297.36779 324.590001 317.396086 332.885993 332.147312 347.637219 
C 346.898538 362.388445 355.19453 382.416741 355.19453 403.278125 
" clip-path="url(#pb4d1a531d6)" style="fill: none; stroke-dasharray: 2.96,1.28; stroke-dashoffset: 0; stroke: #ffffff; stroke-opacity: 0.5; stroke-width: 0.8"/>
     </g>
     <g id="text_10">
      <text style="font-size: 10px; font-family: sans-serif; text-anchor: middle; fill: #ffffff" x="197.818282" y="417.875781" transform="rotate(-0 197.818282 417.875781)">20</text>
     </g>
    </g>
    <g id="ytick_4">
     <g id="line2d_11">
      <path d="M 158.47422 403.278125 
C 158.47422 371.986049 170.918208 341.943605 193.045047 319.816766 
C 215.171887 297.689927 245.21433 285.245939 276.506406 285.245939 
C 307.798482 285.245939 337.840926 297.689927 359.967765 319.816766 
C 382.094604 341.943605 394.538592 371.986049 394.538592 403.278125 
" clip-path="url(#pb4d1a531d6)" style="fill: none; stroke-dasharray: 2.96,1.28; stroke-dashoffset: 0; stroke: #ffffff; stroke-opacity: 0.5; stroke-width: 0.8"/>
     </g>
     <g id="text_11">
      <text style="font-size: 10px; font-family: sans-serif; text-anchor: middle; fill: #ffffff" x="158.47422" y="417.875781" transform="rotate(-0 158.47422 417.875781)">30</text>
     </g>
    </g>
    <g id="ytick_5">
     <g id="line2d_12">
      <path d="M 119.130159 403.278125 
C 119.130159 361.555357 135.722142 321.498765 165.224594 291.996313 
C 194.727047 262.493861 234.783638 245.901877 276.506406 245.901877 
C 318.229175 245.901877 358.285766 262.493861 387.788218 291.996313 
C 417.290671 321.498765 433.882654 361.555357 433.882654 403.278125 
" clip-path="url(#pb4d1a531d6)" style="fill: none; stroke-dasharray: 2.96,1.28; stroke-dashoffset: 0; stroke: #ffffff; stroke-opacity: 0.5; stroke-width: 0.8"/>
     </g>
     <g id="text_12">
      <text style="font-size: 10px; font-family: sans-serif; text-anchor: middle; fill: #ffffff" x="119.130159" y="417.875781" transform="rotate(-0 119.130159 417.875781)">40</text>
     </g>
    </g>
    <g id="ytick_6">
     <g id="line2d_13">
      <path d="M 79.786097 403.278125 
C 79.786097 351.124665 100.526076 301.053926 137.404141 264.17586 
C 174.282207 227.297795 224.352946 206.557815 276.506406 206.557815 
C 328.659867 206.557815 378.730606 227.297795 415.608671 264.17586 
C 452.486737 301.053926 473.226716 351.124665 473.226716 403.278125 
" clip-path="url(#pb4d1a531d6)" style="fill: none; stroke-dasharray: 2.96,1.28; stroke-dashoffset: 0; stroke: #ffffff; stroke-opacity: 0.5; stroke-width: 0.8"/>
     </g>
     <g id="text_13">
      <text style="font-size: 10px; font-family: sans-serif; text-anchor: middle; fill: #ffffff" x="79.786097" y="417.875781" transform="rotate(-0 79.786097 417.875781)">50</text>
     </g>
    </g>
    <g id="ytick_7">
     <g id="line2d_14">
      <path d="M 40.442035 403.278125 
C 40.442035 340.693973 65.33001 280.609086 109.583688 236.355407 
C 153.837367 192.101729 213.922254 167.213753 276.506406 167.213753 
C 339.090559 167.213753 399.175446 192.101729 443.429124 236.355407 
C 487.682803 280.609086 512.570778 340.693973 512.570778 403.278125 
" clip-path="url(#pb4d1a531d6)" style="fill: none; stroke-dasharray: 2.96,1.28; stroke-dashoffset: 0; stroke: #ffffff; stroke-opacity: 0.5; stroke-width: 0.8"/>
     </g>
     <g id="text_14">
      <text style="font-size: 10px; font-family: sans-serif; text-anchor: middle; fill: #ffffff" x="40.442035" y="417.875781" transform="rotate(-0 40.442035 417.875781)">60</text>
     </g>
    </g>
   </g>
   <g id="patch_4">
    <path d="M 521.146406 403.278125 
C 521.146406 338.420447 495.354313 276.152826 449.493009 230.291522 
C 403.631705 184.430218 341.364084 158.638125 276.506406 158.638125 
C 211.648728 158.638125 149.381107 184.430218 103.519803 230.291522 
C 57.658499 276.152826 31.866406 338.420447 31.866406 403.278125 
" style="fill: none; stroke: #ffffff; stroke-width: 0.8; stroke-linejoin: miter; stroke-linecap: square"/>
   </g>
   <g id="patch_5">
    <path d="M 276.506406 403.278125 
L 31.866406 403.278125 
" style="fill: none; stroke: #ffffff; stroke-width: 0.8; stroke-linejoin: miter; stroke-linecap: square"/>
   </g>
   <g id="patch_6">
    <path d="M 276.506406 403.278125 
L 521.146406 403.278125 
" style="fill: none; stroke: #ffffff; stroke-width: 0.8; stroke-linejoin: miter; stroke-linecap: square"/>
   </g>
   <g id="line2d_15">
    <path d="M 34.764687 403.278125 
L 39.3375 382.528534 
L 60.336716 365.161576 
L 81.807154 351.108618 
L 66.324426 326.77814 
L 64.413635 304.377642 
L 72.344655 285.405283 
L 85.905468 269.817911 
L 100.676744 255.73952 
L 114.12955 240.901269 
L 127.334075 225.501464 
L 142.102899 211.330024 
L 159.239462 200.16582 
L 177.915195 191.84859 
L 197.636739 186.585494 
L 217.796363 184.16926 
L 237.701873 183.206679 
L 257.235084 183.005901 
L 276.506406 184.737599 
L 295.598389 185.055765 
L 314.795805 186.128153 
L 334.116687 188.273632 
L 353.388555 192.046159 
L 371.807032 198.905274 
L 388.475672 209.341668 
L 402.580498 223.225663 
L 411.885639 241.939438 
L 417.339103 262.445428 
L 429.189086 275.162145 
L 451.618198 280.663528 
L 471.635417 290.620338 
L 485.675235 305.741098 
L 490.62953 325.343681 
L 475.918086 349.845927 
L 457.490547 371.365738 
L 505.424903 383.250352 
L 518.248126 403.278125 
" clip-path="url(#pb4d1a531d6)" style="fill: none; stroke: #1f77b4; stroke-width: 1.9; stroke-linecap: square"/>
    <defs>
     <path id="mc6338cc71e" d="M 0 2 
C 0.530406 2 1.03916 1.789267 1.414214 1.414214 
C 1.789267 1.03916 2 0.530406 2 0 
C 2 -0.530406 1.789267 -1.03916 1.414214 -1.414214 
C 1.03916 -1.789267 0.530406 -2 0 -2 
C -0.530406 -2 -1.03916 -1.789267 -1.414214 -1.414214 
C -1.789267 -1.03916 -2 -0.530406 -2 0 
C -2 0.530406 -1.789267 1.03916 -1.414214 1.414214 
C -1.03916 1.789267 -0.530406 2 0 2 
z
" style="stroke: #1f77b4"/>
    </defs>
    <g clip-path="url(#pb4d1a531d6)">
     <use xlink:href="#mc6338cc71e" x="34.764687" y="403.278125" style="fill: #1f77b4; stroke: #1f77b4"/>
     <use xlink:href="#mc6338cc71e" x="39.3375" y="382.528534" style="fill: #1f77b4; stroke: #1f77b4"/>
     <use xlink:href="#mc6338cc71e" x="60.336716" y="365.161576" style="fill: #1f77b4; stroke: #1f77b4"/>
     <use xlink:href="#mc6338cc71e" x="81.807154" y="351.108618" style="fill: #1f77b4; stroke: #1f77b4"/>
     <use xlink:href="#mc6338cc71e" x="66.324426" y="326.77814" style="fill: #1f77b4; stroke: #1f77b4"/>
     <use xlink:href="#mc6338cc71e" x="64.413635" y="304.377642" style="fill: #1f77b4; stroke: #1f77b4"/>
     <use xlink:href="#mc6338cc71e" x="72.344655" y="285.405283" style="fill: #1f77b4; stroke: #1f77b4"/>
     <use xlink:href="#mc6338cc71e" x="85.905468" y="269.817911" style="fill: #1f77b4; stroke: #1f77b4"/>
     <use xlink:href="#mc6338cc71e" x="100.676744" y="255.73952" style="fill: #1f77b4; stroke: #1f77b4"/>
     <use xlink:href="#mc6338cc71e" x="114.12955" y="240.901269" style="fill: #1f77b4; stroke: #1f77b4"/>
     <use xlink:href="#mc6338cc71e" x="127.334075" y="225.501464" style="fill: #1f77b4; stroke: #1f77b4"/>
     <use xlink:href="#mc6338cc71e" x="142.102899" y="211.330024" style="fill: #1f77b4; stroke: #1f77b4"/>
     <use xlink:href="#mc6338cc71e" x="159.239462" y="200.16582" style="fill: #1f77b4; stroke: #1f77b4"/>
     <use xlink:href="#mc6338cc71e" x="177.915195" y="191.84859" style="fill: #1f77b4; stroke: #1f77b4"/>
     <use xlink:href="#mc6338cc71e" x="197.636739" y="186.585494" style="fill: #1f77b4; stroke: #1f77b4"/>
     <use xlink:href="#mc6338cc71e" x="217.796363" y="184.16926" style="fill: #1f77b4; stroke: #1f77b4"/>
     <use xlink:href="#mc6338cc71e" x="237.701873" y="183.206679" style="fill: #1f77b4; stroke: #1f77b4"/>
     <use xlink:href="#mc6338cc71e" x="257.235084" y="183.005901" style="fill: #1f77b4; stroke: #1f77b4"/>
     <use xlink:href="#mc6338cc71e" x="276.506406" y="184.737599" style="fill: #1f77b4; stroke: #1f77b4"/>
     <use xlink:href="#mc6338cc71e" x="295.598389" y="185.055765" style="fill: #1f77b4; stroke: #1f77b4"/>
     <use xlink:href="#mc6338cc71e" x="314.795805" y="186.128153" style="fill: #1f77b4; stroke: #1f77b4"/>
     <use xlink:href="#mc6338cc71e" x="334.116687" y="188.273632" style="fill: #1f77b4; stroke: #1f77b4"/>
     <use xlink:href="#mc6338cc71e" x="353.388555" y="192.046159" style="fill: #1f77b4; stroke: #1f77b4"/>
     <use xlink:href="#mc6338cc71e" x="371.807032" y="198.905274" style="fill: #1f77b4; stroke: #1f77b4"/>
     <use xlink:href="#mc6338cc71e" x="388.475672" y="209.341668" style="fill: #1f77b4; stroke: #1f77b4"/>
     <use xlink:href="#mc6338cc71e" x="402.580498" y="223.225663" style="fill: #1f77b4; stroke: #1f77b4"/>
     <use xlink:href="#mc6338cc71e" x="411.885639" y="241.939438" style="fill: #1f77b4; stroke: #1f77b4"/>
     <use xlink:href="#mc6338cc71e" x="417.339103" y="262.445428" style="fill: #1f77b4; stroke: #1f77b4"/>
     <use xlink:href="#mc6338cc71e" x="429.189086" y="275.162145" style="fill: #1f77b4; stroke: #1f77b4"/>
     <use xlink:href="#mc6338cc71e" x="451.618198" y="280.663528" style="fill: #1f77b4; stroke: #1f77b4"/>
     <use xlink:href="#mc6338cc71e" x="471.635417" y="290.620338" style="fill: #1f77b4; stroke: #1f77b4"/>
     <use xlink:href="#mc6338cc71e" x="485.675235" y="305.741098" style="fill: #1f77b4; stroke: #1f77b4"/>
     <use xlink:href="#mc6338cc71e" x="490.62953" y="325.343681" style="fill: #1f77b4; stroke: #1f77b4"/>
     <use xlink:href="#mc6338cc71e" x="475.918086" y="349.845927" style="fill: #1f77b4; stroke: #1f77b4"/>
     <use xlink:href="#mc6338cc71e" x="457.490547" y="371.365738" style="fill: #1f77b4; stroke: #1f77b4"/>
     <use xlink:href="#mc6338cc71e" x="505.424903" y="383.250352" style="fill: #1f77b4; stroke: #1f77b4"/>
     <use xlink:href="#mc6338cc71e" x="518.248126" y="403.278125" style="fill: #1f77b4; stroke: #1f77b4"/>
    </g>
   </g>
   <g id="text_15">
    <text style="font-weight: 700; font-size: 12px; font-family: sans-serif; text-anchor: middle; fill: #ffffff" x="276.506406" y="16.318125" transform="rotate(-0 276.506406 16.318125)">Directional diffusion  d = 0.76  (ISO 17497-2)</text>
   </g>
  </g>
 </g>
 <defs>
  <clipPath id="pb4d1a531d6">
   <path d="M 521.146406 403.278125 
C 521.146406 338.420447 495.354313 276.152826 449.493009 230.291522 
C 403.631705 184.430218 341.364084 158.638125 276.506406 158.638125 
C 211.648728 158.638125 149.381107 184.430218 103.519803 230.291522 
C 57.658499 276.152826 31.866406 338.420447 31.866406 403.278125 
L 276.506406 403.278125 
C 276.506406 403.278125 276.506406 403.278125 276.506406 403.278125 
C 276.506406 403.278125 276.506406 403.278125 276.506406 403.278125 
C 276.506406 403.278125 276.506406 403.278125 276.506406 403.278125 
C 276.506406 403.278125 276.506406 403.278125 276.506406 403.278125 
z
"/>
  </clipPath>
 </defs>
</svg>
