<?xml version="1.0" encoding="utf-8" standalone="no"?>
<!DOCTYPE svg PUBLIC "-//W3C//DTD SVG 1.1//EN"
  "http://www.w3.org/Graphics/SVG/1.1/DTD/svg11.dtd">
<svg xmlns:xlink="http://www.w3.org/1999/xlink" width="551.208906pt" height="533.278125pt" viewBox="0 0 551.208906 533.278125" xmlns="http://www.w3.org/2000/svg" version="1.1">
 <metadata>
  <rdf:RDF xmlns:dc="http://purl.org/dc/elements/1.1/" xmlns:cc="http://creativecommons.org/ns#" xmlns:rdf="http://www.w3.org/1999/02/22-rdf-syntax-ns#">
   <cc:Work>
    <dc:type rdf:resource="http://purl.org/dc/dcmitype/StillImage"/>
    <dc:format>image/svg+xml</dc:format>
    <dc:creator>
     <cc:Agent>
      <dc:title>Matplotlib v3.11.1, https://matplotlib.org/</dc:title>
     </cc:Agent>
    </dc:creator>
   </cc:Work>
  </rdf:RDF>
 </metadata>
 <defs>
  <style type="text/css">*{stroke-linejoin: round; stroke-linecap: butt}</style>
 </defs>
 <g id="figure_1">
  <g id="patch_1">
   <path d="M 0 533.278125 
L 551.208906 533.278125 
L 551.208906 0 
L 0 0 
z
"/>
  </g>
  <g id="axes_1">
   <g id="patch_2">
    <path d="M 521.146406 403.758125 
C 521.146406 338.900447 495.354313 276.632826 449.493009 230.771522 
C 403.631705 184.910218 341.364084 159.118125 276.506406 159.118125 
C 211.648728 159.118125 149.381107 184.910218 103.519803 230.771522 
C 57.658499 276.632826 31.866406 338.900447 31.866406 403.758125 
L 276.506406 403.758125 
C 276.506406 403.758125 276.506406 403.758125 276.506406 403.758125 
C 276.506406 403.758125 276.506406 403.758125 276.506406 403.758125 
C 276.506406 403.758125 276.506406 403.758125 276.506406 403.758125 
C 276.506406 403.758125 276.506406 403.758125 276.506406 403.758125 
z
"/>
   </g>
   <g id="patch_3">
    <path d="M 34.764687 403.758125 
L 39.3375 383.008534 
L 60.336716 365.641576 
L 81.807154 351.588618 
L 66.324426 327.25814 
L 64.413635 304.857642 
L 72.344655 285.885283 
L 85.905468 270.297911 
L 100.676744 256.21952 
L 114.12955 241.381269 
L 127.334075 225.981464 
L 142.102899 211.810024 
L 159.239462 200.64582 
L 177.915195 192.32859 
L 197.636739 187.065494 
L 217.796363 184.64926 
L 237.701873 183.686679 
L 257.235084 183.485901 
L 276.506406 185.217599 
L 295.598389 185.535765 
L 314.795805 186.608153 
L 334.116687 188.753632 
L 353.388555 192.526159 
L 371.807032 199.385274 
L 388.475672 209.821668 
L 402.580498 223.705663 
L 411.885639 242.419438 
L 417.339103 262.925428 
L 429.189086 275.642145 
L 451.618198 281.143528 
L 471.635417 291.100338 
L 485.675235 306.221098 
L 490.62953 325.823681 
L 475.918086 350.325927 
L 457.490547 371.845738 
L 505.424903 383.730352 
L 518.248126 403.758125 
z
" clip-path="url(#p90fb4576c3)" style="fill: #1f77b4; opacity: 0.15; stroke: #1f77b4; stroke-linejoin: miter"/>
   </g>
   <g id="matplotlib.axis_1">
    <g id="xtick_1">
     <g id="line2d_1">
      <path d="M 276.506406 403.758125 
L 31.866406 403.758125 
" clip-path="url(#p90fb4576c3)" style="fill: none; stroke-dasharray: 2.96,1.28; stroke-dashoffset: 0; stroke: #ffffff; stroke-opacity: 0.5; stroke-width: 0.8"/>
     </g>
     <g id="text_1">
      <text style="font-size: 10px; font-family: sans-serif; text-anchor: middle; fill: #ffffff" x="17.866406" y="406.355781" transform="rotate(-0 17.866406 406.355781)">-90°</text>
     </g>
    </g>
    <g id="xtick_2">
     <g id="line2d_2">
      <path d="M 276.506406 403.758125 
L 64.641951 281.438125 
" clip-path="url(#p90fb4576c3)" style="fill: none; stroke-dasharray: 2.96,1.28; stroke-dashoffset: 0; stroke: #ffffff; stroke-opacity: 0.5; stroke-width: 0.8"/>
     </g>
     <g id="text_2">
      <text style="font-size: 10px; font-family: sans-serif; text-anchor: middle; fill: #ffffff" x="52.517596" y="277.035781" transform="rotate(-0 52.517596 277.035781)">-60°</text>
     </g>
    </g>
    <g id="xtick_3">
     <g id="line2d_3">
      <path d="M 276.506406 403.758125 
L 154.186406 191.89367 
" clip-path="url(#p90fb4576c3)" style="fill: none; stroke-dasharray: 2.96,1.28; stroke-dashoffset: 0; stroke: #ffffff; stroke-opacity: 0.5; stroke-width: 0.8"/>
     </g>
     <g id="text_3">
      <text style="font-size: 10px; font-family: sans-serif; text-anchor: middle; fill: #ffffff" x="147.186406" y="182.366971" transform="rotate(-0 147.186406 182.366971)">-30°</text>
     </g>
    </g>
    <g id="xtick_4">
     <g id="line2d_4">
      <path d="M 276.506406 403.758125 
L 276.506406 159.118125 
" clip-path="url(#p90fb4576c3)" style="fill: none; stroke-dasharray: 2.96,1.28; stroke-dashoffset: 0; stroke: #ffffff; stroke-opacity: 0.5; stroke-width: 0.8"/>
     </g>
     <g id="text_4">
      <text style="font-size: 10px; font-family: sans-serif; text-anchor: middle; fill: #ffffff" x="276.506406" y="147.715781" transform="rotate(-0 276.506406 147.715781)">0°</text>
     </g>
    </g>
    <g id="xtick_5">
     <g id="line2d_5">
      <path d="M 276.506406 403.758125 
L 398.826406 191.89367 
" clip-path="url(#p90fb4576c3)" style="fill: none; stroke-dasharray: 2.96,1.28; stroke-dashoffset: 0; stroke: #ffffff; stroke-opacity: 0.5; stroke-width: 0.8"/>
     </g>
     <g id="text_5">
      <text style="font-size: 10px; font-family: sans-serif; text-anchor: middle; fill: #ffffff" x="405.826406" y="182.366971" transform="rotate(-0 405.826406 182.366971)">30°</text>
     </g>
    </g>
    <g id="xtick_6">
     <g id="line2d_6">
      <path d="M 276.506406 403.758125 
L 488.370861 281.438125 
" clip-path="url(#p90fb4576c3)" style="fill: none; stroke-dasharray: 2.96,1.28; stroke-dashoffset: 0; stroke: #ffffff; stroke-opacity: 0.5; stroke-width: 0.8"/>
     </g>
     <g id="text_6">
      <text style="font-size: 10px; font-family: sans-serif; text-anchor: middle; fill: #ffffff" x="500.495217" y="277.035781" transform="rotate(-0 500.495217 277.035781)">60°</text>
     </g>
    </g>
    <g id="xtick_7">
     <g id="line2d_7">
      <path d="M 276.506406 403.758125 
L 521.146406 403.758125 
" clip-path="url(#p90fb4576c3)" style="fill: none; stroke-dasharray: 2.96,1.28; stroke-dashoffset: 0; stroke: #ffffff; stroke-opacity: 0.5; stroke-width: 0.8"/>
     </g>
     <g id="text_7">
      <text style="font-size: 10px; font-family: sans-serif; text-anchor: middle; fill: #ffffff" x="535.146406" y="406.355781" transform="rotate(-0 535.146406 406.355781)">90°</text>
     </g>
    </g>
   </g>
   <g id="matplotlib.axis_2">
    <g id="ytick_1">
     <g id="line2d_8">
      <path d="M 276.506406 403.758125 
C 276.506406 403.758125 276.506406 403.758125 276.506406 403.758125 
C 276.506406 403.758125 276.506406 403.758125 276.506406 403.758125 
C 276.506406 403.758125 276.506406 403.758125 276.506406 403.758125 
C 276.506406 403.758125 276.506406 403.758125 276.506406 403.758125 
" clip-path="url(#p90fb4576c3)" style="fill: none; stroke-dasharray: 2.96,1.28; stroke-dashoffset: 0; stroke: #ffffff; stroke-opacity: 0.5; stroke-width: 0.8"/>
     </g>
     <g id="text_8">
      <text style="font-size: 10px; font-family: sans-serif; text-anchor: middle; fill: #ffffff" x="276.506406" y="418.355781" transform="rotate(-0 276.506406 418.355781)">0</text>
     </g>
    </g>
    <g id="ytick_2">
     <g id="line2d_9">
      <path d="M 237.162344 403.758125 
C 237.162344 393.327433 241.31034 383.313285 248.685953 375.937672 
C 256.061566 368.562059 266.075714 364.414063 276.506406 364.414063 
C 286.937098 364.414063 296.951246 368.562059 304.326859 375.937672 
C 311.702472 383.313285 315.850468 393.327433 315.850468 403.758125 
" clip-path="url(#p90fb4576c3)" style="fill: none; stroke-dasharray: 2.96,1.28; stroke-dashoffset: 0; stroke: #ffffff; stroke-opacity: 0.5; stroke-width: 0.8"/>
     </g>
     <g id="text_9">
      <text style="font-size: 10px; font-family: sans-serif; text-anchor: middle; fill: #ffffff" x="237.162344" y="418.355781" transform="rotate(-0 237.162344 418.355781)">10</text>
     </g>
    </g>
    <g id="ytick_3">
     <g id="line2d_10">
      <path d="M 197.818282 403.758125 
C 197.818282 382.896741 206.114274 362.868445 220.8655 348.117219 
C 235.616726 333.365993 255.645022 325.070001 276.506406 325.070001 
C 297.36779 325.070001 317.396086 333.365993 332.147312 348.117219 
C 346.898538 362.868445 355.19453 382.896741 355.19453 403.758125 
" clip-path="url(#p90fb4576c3)" style="fill: none; stroke-dasharray: 2.96,1.28; stroke-dashoffset: 0; stroke: #ffffff; stroke-opacity: 0.5; stroke-width: 0.8"/>
     </g>
     <g id="text_10">
      <text style="font-size: 10px; font-family: sans-serif; text-anchor: middle; fill: #ffffff" x="197.818282" y="418.355781" transform="rotate(-0 197.818282 418.355781)">20</text>
     </g>
    </g>
    <g id="ytick_4">
     <g id="line2d_11">
      <path d="M 158.47422 403.758125 
C 158.47422 372.466049 170.918208 342.423605 193.045047 320.296766 
C 215.171887 298.169927 245.21433 285.725939 276.506406 285.725939 
C 307.798482 285.725939 337.840926 298.169927 359.967765 320.296766 
C 382.094604 342.423605 394.538592 372.466049 394.538592 403.758125 
" clip-path="url(#p90fb4576c3)" style="fill: none; stroke-dasharray: 2.96,1.28; stroke-dashoffset: 0; stroke: #ffffff; stroke-opacity: 0.5; stroke-width: 0.8"/>
     </g>
     <g id="text_11">
      <text style="font-size: 10px; font-family: sans-serif; text-anchor: middle; fill: #ffffff" x="158.47422" y="418.355781" transform="rotate(-0 158.47422 418.355781)">30</text>
     </g>
    </g>
    <g id="ytick_5">
     <g id="line2d_12">
      <path d="M 119.130159 403.758125 
C 119.130159 362.035357 135.722142 321.978765 165.224594 292.476313 
C 194.727047 262.973861 234.783638 246.381877 276.506406 246.381877 
C 318.229175 246.381877 358.285766 262.973861 387.788218 292.476313 
C 417.290671 321.978765 433.882654 362.035357 433.882654 403.758125 
" clip-path="url(#p90fb4576c3)" style="fill: none; stroke-dasharray: 2.96,1.28; stroke-dashoffset: 0; stroke: #ffffff; stroke-opacity: 0.5; stroke-width: 0.8"/>
     </g>
     <g id="text_12">
      <text style="font-size: 10px; font-family: sans-serif; text-anchor: middle; fill: #ffffff" x="119.130159" y="418.355781" transform="rotate(-0 119.130159 418.355781)">40</text>
     </g>
    </g>
    <g id="ytick_6">
     <g id="line2d_13">
      <path d="M 79.786097 403.758125 
C 79.786097 351.604665 100.526076 301.533926 137.404141 264.65586 
C 174.282207 227.777795 224.352946 207.037815 276.506406 207.037815 
C 328.659867 207.037815 378.730606 227.777795 415.608671 264.65586 
C 452.486737 301.533926 473.226716 351.604665 473.226716 403.758125 
" clip-path="url(#p90fb4576c3)" style="fill: none; stroke-dasharray: 2.96,1.28; stroke-dashoffset: 0; stroke: #ffffff; stroke-opacity: 0.5; stroke-width: 0.8"/>
     </g>
     <g id="text_13">
      <text style="font-size: 10px; font-family: sans-serif; text-anchor: middle; fill: #ffffff" x="79.786097" y="418.355781" transform="rotate(-0 79.786097 418.355781)">50</text>
     </g>
    </g>
    <g id="ytick_7">
     <g id="line2d_14">
      <path d="M 40.442035 403.758125 
C 40.442035 341.173973 65.33001 281.089086 109.583688 236.835407 
C 153.837367 192.581729 213.922254 167.693753 276.506406 167.693753 
C 339.090559 167.693753 399.175446 192.581729 443.429124 236.835407 
C 487.682803 281.089086 512.570778 341.173973 512.570778 403.758125 
" clip-path="url(#p90fb4576c3)" style="fill: none; stroke-dasharray: 2.96,1.28; stroke-dashoffset: 0; stroke: #ffffff; stroke-opacity: 0.5; stroke-width: 0.8"/>
     </g>
     <g id="text_14">
      <text style="font-size: 10px; font-family: sans-serif; text-anchor: middle; fill: #ffffff" x="40.442035" y="418.355781" transform="rotate(-0 40.442035 418.355781)">60</text>
     </g>
    </g>
   </g>
   <g id="patch_4">
    <path d="M 521.146406 403.758125 
C 521.146406 338.900447 495.354313 276.632826 449.493009 230.771522 
C 403.631705 184.910218 341.364084 159.118125 276.506406 159.118125 
C 211.648728 159.118125 149.381107 184.910218 103.519803 230.771522 
C 57.658499 276.632826 31.866406 338.900447 31.866406 403.758125 
" style="fill: none; stroke: #ffffff; stroke-width: 0.8; stroke-linejoin: miter; stroke-linecap: square"/>
   </g>
   <g id="patch_5">
    <path d="M 276.506406 403.758125 
L 31.866406 403.758125 
" style="fill: none; stroke: #ffffff; stroke-width: 0.8; stroke-linejoin: miter; stroke-linecap: square"/>
   </g>
   <g id="patch_6">
    <path d="M 276.506406 403.758125 
L 521.146406 403.758125 
" style="fill: none; stroke: #ffffff; stroke-width: 0.8; stroke-linejoin: miter; stroke-linecap: square"/>
   </g>
   <g id="line2d_15">
    <path d="M 34.764687 403.758125 
L 39.3375 383.008534 
L 60.336716 365.641576 
L 81.807154 351.588618 
L 66.324426 327.25814 
L 64.413635 304.857642 
L 72.344655 285.885283 
L 85.905468 270.297911 
L 100.676744 256.21952 
L 114.12955 241.381269 
L 127.334075 225.981464 
L 142.102899 211.810024 
L 159.239462 200.64582 
L 177.915195 192.32859 
L 197.636739 187.065494 
L 217.796363 184.64926 
L 237.701873 183.686679 
L 257.235084 183.485901 
L 276.506406 185.217599 
L 295.598389 185.535765 
L 314.795805 186.608153 
L 334.116687 188.753632 
L 353.388555 192.526159 
L 371.807032 199.385274 
L 388.475672 209.821668 
L 402.580498 223.705663 
L 411.885639 242.419438 
L 417.339103 262.925428 
L 429.189086 275.642145 
L 451.618198 281.143528 
L 471.635417 291.100338 
L 485.675235 306.221098 
L 490.62953 325.823681 
L 475.918086 350.325927 
L 457.490547 371.845738 
L 505.424903 383.730352 
L 518.248126 403.758125 
" clip-path="url(#p90fb4576c3)" style="fill: none; stroke: #1f77b4; stroke-width: 1.9; stroke-linecap: square"/>
    <defs>
     <path id="mc6338cc71e" d="M 0 2 
C 0.530406 2 1.03916 1.789267 1.414214 1.414214 
C 1.789267 1.03916 2 0.530406 2 0 
C 2 -0.530406 1.789267 -1.03916 1.414214 -1.414214 
C 1.03916 -1.789267 0.530406 -2 0 -2 
C -0.530406 -2 -1.03916 -1.789267 -1.414214 -1.414214 
C -1.789267 -1.03916 -2 -0.530406 -2 0 
C -2 0.530406 -1.789267 1.03916 -1.414214 1.414214 
C -1.03916 1.789267 -0.530406 2 0 2 
z
" style="stroke: #1f77b4"/>
    </defs>
    <g clip-path="url(#p90fb4576c3)">
     <use xlink:href="#mc6338cc71e" x="34.764687" y="403.758125" style="fill: #1f77b4; stroke: #1f77b4"/>
     <use xlink:href="#mc6338cc71e" x="39.3375" y="383.008534" style="fill: #1f77b4; stroke: #1f77b4"/>
     <use xlink:href="#mc6338cc71e" x="60.336716" y="365.641576" style="fill: #1f77b4; stroke: #1f77b4"/>
     <use xlink:href="#mc6338cc71e" x="81.807154" y="351.588618" style="fill: #1f77b4; stroke: #1f77b4"/>
     <use xlink:href="#mc6338cc71e" x="66.324426" y="327.25814" style="fill: #1f77b4; stroke: #1f77b4"/>
     <use xlink:href="#mc6338cc71e" x="64.413635" y="304.857642" style="fill: #1f77b4; stroke: #1f77b4"/>
     <use xlink:href="#mc6338cc71e" x="72.344655" y="285.885283" style="fill: #1f77b4; stroke: #1f77b4"/>
     <use xlink:href="#mc6338cc71e" x="85.905468" y="270.297911" style="fill: #1f77b4; stroke: #1f77b4"/>
     <use xlink:href="#mc6338cc71e" x="100.676744" y="256.21952" style="fill: #1f77b4; stroke: #1f77b4"/>
     <use xlink:href="#mc6338cc71e" x="114.12955" y="241.381269" style="fill: #1f77b4; stroke: #1f77b4"/>
     <use xlink:href="#mc6338cc71e" x="127.334075" y="225.981464" style="fill: #1f77b4; stroke: #1f77b4"/>
     <use xlink:href="#mc6338cc71e" x="142.102899" y="211.810024" style="fill: #1f77b4; stroke: #1f77b4"/>
     <use xlink:href="#mc6338cc71e" x="159.239462" y="200.64582" style="fill: #1f77b4; stroke: #1f77b4"/>
     <use xlink:href="#mc6338cc71e" x="177.915195" y="192.32859" style="fill: #1f77b4; stroke: #1f77b4"/>
     <use xlink:href="#mc6338cc71e" x="197.636739" y="187.065494" style="fill: #1f77b4; stroke: #1f77b4"/>
     <use xlink:href="#mc6338cc71e" x="217.796363" y="184.64926" style="fill: #1f77b4; stroke: #1f77b4"/>
     <use xlink:href="#mc6338cc71e" x="237.701873" y="183.686679" style="fill: #1f77b4; stroke: #1f77b4"/>
     <use xlink:href="#mc6338cc71e" x="257.235084" y="183.485901" style="fill: #1f77b4; stroke: #1f77b4"/>
     <use xlink:href="#mc6338cc71e" x="276.506406" y="185.217599" style="fill: #1f77b4; stroke: #1f77b4"/>
     <use xlink:href="#mc6338cc71e" x="295.598389" y="185.535765" style="fill: #1f77b4; stroke: #1f77b4"/>
     <use xlink:href="#mc6338cc71e" x="314.795805" y="186.608153" style="fill: #1f77b4; stroke: #1f77b4"/>
     <use xlink:href="#mc6338cc71e" x="334.116687" y="188.753632" style="fill: #1f77b4; stroke: #1f77b4"/>
     <use xlink:href="#mc6338cc71e" x="353.388555" y="192.526159" style="fill: #1f77b4; stroke: #1f77b4"/>
     <use xlink:href="#mc6338cc71e" x="371.807032" y="199.385274" style="fill: #1f77b4; stroke: #1f77b4"/>
     <use xlink:href="#mc6338cc71e" x="388.475672" y="209.821668" style="fill: #1f77b4; stroke: #1f77b4"/>
     <use xlink:href="#mc6338cc71e" x="402.580498" y="223.705663" style="fill: #1f77b4; stroke: #1f77b4"/>
     <use xlink:href="#mc6338cc71e" x="411.885639" y="242.419438" style="fill: #1f77b4; stroke: #1f77b4"/>
     <use xlink:href="#mc6338cc71e" x="417.339103" y="262.925428" style="fill: #1f77b4; stroke: #1f77b4"/>
     <use xlink:href="#mc6338cc71e" x="429.189086" y="275.642145" style="fill: #1f77b4; stroke: #1f77b4"/>
     <use xlink:href="#mc6338cc71e" x="451.618198" y="281.143528" style="fill: #1f77b4; stroke: #1f77b4"/>
     <use xlink:href="#mc6338cc71e" x="471.635417" y="291.100338" style="fill: #1f77b4; stroke: #1f77b4"/>
     <use xlink:href="#mc6338cc71e" x="485.675235" y="306.221098" style="fill: #1f77b4; stroke: #1f77b4"/>
     <use xlink:href="#mc6338cc71e" x="490.62953" y="325.823681" style="fill: #1f77b4; stroke: #1f77b4"/>
     <use xlink:href="#mc6338cc71e" x="475.918086" y="350.325927" style="fill: #1f77b4; stroke: #1f77b4"/>
     <use xlink:href="#mc6338cc71e" x="457.490547" y="371.845738" style="fill: #1f77b4; stroke: #1f77b4"/>
     <use xlink:href="#mc6338cc71e" x="505.424903" y="383.730352" style="fill: #1f77b4; stroke: #1f77b4"/>
     <use xlink:href="#mc6338cc71e" x="518.248126" y="403.758125" style="fill: #1f77b4; stroke: #1f77b4"/>
    </g>
   </g>
   <g id="text_15">
    <text style="font-weight: 700; font-size: 12px; font-family: sans-serif; text-anchor: middle; fill: #ffffff" x="276.506406" y="16.798125" transform="rotate(-0 276.506406 16.798125)">Difusión direccional  d = 0,76  (ISO 17497-2)</text>
   </g>
  </g>
 </g>
 <defs>
  <clipPath id="p90fb4576c3">
   <path d="M 521.146406 403.758125 
C 521.146406 338.900447 495.354313 276.632826 449.493009 230.771522 
C 403.631705 184.910218 341.364084 159.118125 276.506406 159.118125 
C 211.648728 159.118125 149.381107 184.910218 103.519803 230.771522 
C 57.658499 276.632826 31.866406 338.900447 31.866406 403.758125 
L 276.506406 403.758125 
C 276.506406 403.758125 276.506406 403.758125 276.506406 403.758125 
C 276.506406 403.758125 276.506406 403.758125 276.506406 403.758125 
C 276.506406 403.758125 276.506406 403.758125 276.506406 403.758125 
C 276.506406 403.758125 276.506406 403.758125 276.506406 403.758125 
z
"/>
  </clipPath>
 </defs>
</svg>
