<?xml version="1.0" encoding="utf-8" standalone="no"?>
<!DOCTYPE svg PUBLIC "-//W3C//DTD SVG 1.1//EN"
  "http://www.w3.org/Graphics/SVG/1.1/DTD/svg11.dtd">
<svg xmlns:xlink="http://www.w3.org/1999/xlink" width="713.365313pt" height="424.716563pt" viewBox="0 0 713.365313 424.716563" xmlns="http://www.w3.org/2000/svg" version="1.1">
 <metadata>
  <rdf:RDF xmlns:dc="http://purl.org/dc/elements/1.1/" xmlns:cc="http://creativecommons.org/ns#" xmlns:rdf="http://www.w3.org/1999/02/22-rdf-syntax-ns#">
   <cc:Work>
    <dc:type rdf:resource="http://purl.org/dc/dcmitype/StillImage"/>
    <dc:format>image/svg+xml</dc:format>
    <dc:creator>
     <cc:Agent>
      <dc:title>Matplotlib v3.11.1, https://matplotlib.org/</dc:title>
     </cc:Agent>
    </dc:creator>
   </cc:Work>
  </rdf:RDF>
 </metadata>
 <defs>
  <style type="text/css">*{stroke-linejoin: round; stroke-linecap: butt}</style>
 </defs>
 <g id="figure_1">
  <g id="patch_1">
   <path d="M 0 424.716563 
L 713.365313 424.716563 
L 713.365313 0 
L 0 0 
z
"/>
  </g>
  <g id="axes_1">
   <g id="patch_2">
    <path d="M 44.503906 386.515781 
L 696.621562 386.515781 
L 696.621562 28.318125 
L 44.503906 28.318125 
z
"/>
   </g>
   <g id="matplotlib.axis_1">
    <g id="xtick_1">
     <g id="line2d_1">
      <path d="M 44.503906 386.515781 
L 44.503906 28.318125 
" clip-path="url(#pf268e4773f)" style="fill: none; stroke-dasharray: 2.96,1.28; stroke-dashoffset: 0; stroke: #555555; stroke-opacity: 0.5; stroke-width: 0.8"/>
     </g>
     <g id="line2d_2">
      <defs>
       <path id="m8d14ee1197" d="M 0 0 
L 0 3.5 
" style="stroke: #ffffff; stroke-width: 0.8"/>
      </defs>
      <g>
       <use xlink:href="#m8d14ee1197" x="44.503906" y="386.515781" style="fill: #ffffff; stroke: #ffffff; stroke-width: 0.8"/>
      </g>
     </g>
     <g id="text_1">
      <text style="font-size: 10px; font-family: sans-serif; text-anchor: middle; fill: #ffffff" x="44.503906" y="401.113438" transform="rotate(-0 44.503906 401.113438)">0</text>
     </g>
    </g>
    <g id="xtick_2">
     <g id="line2d_3">
      <path d="M 174.927437 386.515781 
L 174.927437 28.318125 
" clip-path="url(#pf268e4773f)" style="fill: none; stroke-dasharray: 2.96,1.28; stroke-dashoffset: 0; stroke: #555555; stroke-opacity: 0.5; stroke-width: 0.8"/>
     </g>
     <g id="line2d_4">
      <g>
       <use xlink:href="#m8d14ee1197" x="174.927437" y="386.515781" style="fill: #ffffff; stroke: #ffffff; stroke-width: 0.8"/>
      </g>
     </g>
     <g id="text_2">
      <text style="font-size: 10px; font-family: sans-serif; text-anchor: middle; fill: #ffffff" x="174.927437" y="401.113438" transform="rotate(-0 174.927437 401.113438)">20</text>
     </g>
    </g>
    <g id="xtick_3">
     <g id="line2d_5">
      <path d="M 305.350969 386.515781 
L 305.350969 28.318125 
" clip-path="url(#pf268e4773f)" style="fill: none; stroke-dasharray: 2.96,1.28; stroke-dashoffset: 0; stroke: #555555; stroke-opacity: 0.5; stroke-width: 0.8"/>
     </g>
     <g id="line2d_6">
      <g>
       <use xlink:href="#m8d14ee1197" x="305.350969" y="386.515781" style="fill: #ffffff; stroke: #ffffff; stroke-width: 0.8"/>
      </g>
     </g>
     <g id="text_3">
      <text style="font-size: 10px; font-family: sans-serif; text-anchor: middle; fill: #ffffff" x="305.350969" y="401.113438" transform="rotate(-0 305.350969 401.113438)">40</text>
     </g>
    </g>
    <g id="xtick_4">
     <g id="line2d_7">
      <path d="M 435.7745 386.515781 
L 435.7745 28.318125 
" clip-path="url(#pf268e4773f)" style="fill: none; stroke-dasharray: 2.96,1.28; stroke-dashoffset: 0; stroke: #555555; stroke-opacity: 0.5; stroke-width: 0.8"/>
     </g>
     <g id="line2d_8">
      <g>
       <use xlink:href="#m8d14ee1197" x="435.7745" y="386.515781" style="fill: #ffffff; stroke: #ffffff; stroke-width: 0.8"/>
      </g>
     </g>
     <g id="text_4">
      <text style="font-size: 10px; font-family: sans-serif; text-anchor: middle; fill: #ffffff" x="435.7745" y="401.113438" transform="rotate(-0 435.7745 401.113438)">60</text>
     </g>
    </g>
    <g id="xtick_5">
     <g id="line2d_9">
      <path d="M 566.198031 386.515781 
L 566.198031 28.318125 
" clip-path="url(#pf268e4773f)" style="fill: none; stroke-dasharray: 2.96,1.28; stroke-dashoffset: 0; stroke: #555555; stroke-opacity: 0.5; stroke-width: 0.8"/>
     </g>
     <g id="line2d_10">
      <g>
       <use xlink:href="#m8d14ee1197" x="566.198031" y="386.515781" style="fill: #ffffff; stroke: #ffffff; stroke-width: 0.8"/>
      </g>
     </g>
     <g id="text_5">
      <text style="font-size: 10px; font-family: sans-serif; text-anchor: middle; fill: #ffffff" x="566.198031" y="401.113438" transform="rotate(-0 566.198031 401.113438)">80</text>
     </g>
    </g>
    <g id="xtick_6">
     <g id="line2d_11">
      <path d="M 696.621562 386.515781 
L 696.621562 28.318125 
" clip-path="url(#pf268e4773f)" style="fill: none; stroke-dasharray: 2.96,1.28; stroke-dashoffset: 0; stroke: #555555; stroke-opacity: 0.5; stroke-width: 0.8"/>
     </g>
     <g id="line2d_12">
      <g>
       <use xlink:href="#m8d14ee1197" x="696.621562" y="386.515781" style="fill: #ffffff; stroke: #ffffff; stroke-width: 0.8"/>
      </g>
     </g>
     <g id="text_6">
      <text style="font-size: 10px; font-family: sans-serif; text-anchor: middle; fill: #ffffff" x="696.621562" y="401.113438" transform="rotate(-0 696.621562 401.113438)">100</text>
     </g>
    </g>
    <g id="text_7">
     <text style="font-size: 10px; font-family: sans-serif; text-anchor: middle; fill: #ffffff" x="370.562734" y="415.114219" transform="rotate(-0 370.562734 415.114219)">Frecuencia [Hz]</text>
    </g>
   </g>
   <g id="matplotlib.axis_2">
    <g id="ytick_1">
     <g id="line2d_13">
      <path d="M 44.503906 386.515781 
L 696.621562 386.515781 
" clip-path="url(#pf268e4773f)" style="fill: none; stroke-dasharray: 2.96,1.28; stroke-dashoffset: 0; stroke: #555555; stroke-opacity: 0.5; stroke-width: 0.8"/>
     </g>
     <g id="line2d_14">
      <defs>
       <path id="m5e07181663" d="M 0 0 
L -3.5 0 
" style="stroke: #ffffff; stroke-width: 0.8"/>
      </defs>
      <g>
       <use xlink:href="#m5e07181663" x="44.503906" y="386.515781" style="fill: #ffffff; stroke: #ffffff; stroke-width: 0.8"/>
      </g>
     </g>
     <g id="text_8">
      <text style="font-size: 10px; font-family: sans-serif; text-anchor: end; fill: #ffffff" x="37.503906" y="390.314609" transform="rotate(-0 37.503906 390.314609)">0</text>
     </g>
    </g>
    <g id="ytick_2">
     <g id="line2d_15">
      <path d="M 44.503906 314.87625 
L 696.621562 314.87625 
" clip-path="url(#pf268e4773f)" style="fill: none; stroke-dasharray: 2.96,1.28; stroke-dashoffset: 0; stroke: #555555; stroke-opacity: 0.5; stroke-width: 0.8"/>
     </g>
     <g id="line2d_16">
      <g>
       <use xlink:href="#m5e07181663" x="44.503906" y="314.87625" style="fill: #ffffff; stroke: #ffffff; stroke-width: 0.8"/>
      </g>
     </g>
     <g id="text_9">
      <text style="font-size: 10px; font-family: sans-serif; text-anchor: end; fill: #ffffff" x="37.503906" y="318.675078" transform="rotate(-0 37.503906 318.675078)">0,1</text>
     </g>
    </g>
    <g id="ytick_3">
     <g id="line2d_17">
      <path d="M 44.503906 243.236719 
L 696.621562 243.236719 
" clip-path="url(#pf268e4773f)" style="fill: none; stroke-dasharray: 2.96,1.28; stroke-dashoffset: 0; stroke: #555555; stroke-opacity: 0.5; stroke-width: 0.8"/>
     </g>
     <g id="line2d_18">
      <g>
       <use xlink:href="#m5e07181663" x="44.503906" y="243.236719" style="fill: #ffffff; stroke: #ffffff; stroke-width: 0.8"/>
      </g>
     </g>
     <g id="text_10">
      <text style="font-size: 10px; font-family: sans-serif; text-anchor: end; fill: #ffffff" x="37.503906" y="247.035547" transform="rotate(-0 37.503906 247.035547)">0,2</text>
     </g>
    </g>
    <g id="ytick_4">
     <g id="line2d_19">
      <path d="M 44.503906 171.597187 
L 696.621562 171.597187 
" clip-path="url(#pf268e4773f)" style="fill: none; stroke-dasharray: 2.96,1.28; stroke-dashoffset: 0; stroke: #555555; stroke-opacity: 0.5; stroke-width: 0.8"/>
     </g>
     <g id="line2d_20">
      <g>
       <use xlink:href="#m5e07181663" x="44.503906" y="171.597187" style="fill: #ffffff; stroke: #ffffff; stroke-width: 0.8"/>
      </g>
     </g>
     <g id="text_11">
      <text style="font-size: 10px; font-family: sans-serif; text-anchor: end; fill: #ffffff" x="37.503906" y="175.396016" transform="rotate(-0 37.503906 175.396016)">0,3</text>
     </g>
    </g>
    <g id="ytick_5">
     <g id="line2d_21">
      <path d="M 44.503906 99.957656 
L 696.621562 99.957656 
" clip-path="url(#pf268e4773f)" style="fill: none; stroke-dasharray: 2.96,1.28; stroke-dashoffset: 0; stroke: #555555; stroke-opacity: 0.5; stroke-width: 0.8"/>
     </g>
     <g id="line2d_22">
      <g>
       <use xlink:href="#m5e07181663" x="44.503906" y="99.957656" style="fill: #ffffff; stroke: #ffffff; stroke-width: 0.8"/>
      </g>
     </g>
     <g id="text_12">
      <text style="font-size: 10px; font-family: sans-serif; text-anchor: end; fill: #ffffff" x="37.503906" y="103.756484" transform="rotate(-0 37.503906 103.756484)">0,4</text>
     </g>
    </g>
    <g id="ytick_6">
     <g id="line2d_23">
      <path d="M 44.503906 28.318125 
L 696.621562 28.318125 
" clip-path="url(#pf268e4773f)" style="fill: none; stroke-dasharray: 2.96,1.28; stroke-dashoffset: 0; stroke: #555555; stroke-opacity: 0.5; stroke-width: 0.8"/>
     </g>
     <g id="line2d_24">
      <g>
       <use xlink:href="#m5e07181663" x="44.503906" y="28.318125" style="fill: #ffffff; stroke: #ffffff; stroke-width: 0.8"/>
      </g>
     </g>
     <g id="text_13">
      <text style="font-size: 10px; font-family: sans-serif; text-anchor: end; fill: #ffffff" x="37.503906" y="32.116953" transform="rotate(-0 37.503906 32.116953)">0,5</text>
     </g>
    </g>
    <g id="text_14">
     <text style="font-size: 10px; font-family: sans-serif; text-anchor: middle; fill: #ffffff" x="15.198438" y="207.416953" transform="rotate(-90 15.198438 207.416953)">Amplitud de modulación</text>
    </g>
   </g>
   <g id="line2d_25">
    <path d="M 44.503906 386.3344 
L 46.1342 385.940697 
L 47.764495 385.781163 
L 49.394789 385.974624 
L 51.025083 386.367281 
L 54.285671 385.897459 
L 55.915965 386.30114 
L 59.176554 386.324771 
L 60.806848 386.258678 
L 62.437142 386.476597 
L 64.067436 386.231944 
L 65.69773 386.26762 
L 67.328024 385.723384 
L 68.958318 385.825272 
L 70.588613 386.316064 
L 72.218907 386.15922 
L 73.849201 386.417955 
L 75.479495 385.752605 
L 77.109789 385.6345 
L 78.740083 386.107436 
L 80.370377 385.765216 
L 83.630966 385.636623 
L 86.891554 386.41163 
L 88.521848 386.095617 
L 90.152142 385.991893 
L 91.782436 386.230994 
L 93.41273 386.290567 
L 96.673319 386.152485 
L 98.303613 386.084012 
L 99.933907 386.444668 
L 101.564201 386.295126 
L 103.194495 386.288124 
L 104.824789 386.039961 
L 106.455084 386.414787 
L 108.085378 385.851817 
L 112.97626 386.307175 
L 116.236848 386.290317 
L 117.867143 386.403565 
L 119.497437 386.233346 
L 121.127731 386.32159 
L 124.388319 385.850072 
L 127.648907 386.297861 
L 129.279202 386.083015 
L 130.909496 386.312421 
L 134.170084 386.171763 
L 135.800378 385.898703 
L 137.430672 385.914917 
L 139.060966 386.219606 
L 140.691261 386.329238 
L 142.321555 386.214496 
L 143.951849 385.904683 
L 145.582143 385.862356 
L 147.212437 386.064212 
L 148.842731 386.107844 
L 152.10332 385.921596 
L 153.733614 386.490828 
L 155.363908 385.832136 
L 156.994202 385.691594 
L 158.624496 386.181046 
L 160.25479 386.257178 
L 161.885084 386.211597 
L 163.515379 386.388044 
L 165.145673 386.277673 
L 166.775967 385.885729 
L 170.036555 386.047939 
L 171.666849 385.914991 
L 173.297143 386.314841 
L 174.927437 385.820542 
L 176.557732 385.700486 
L 179.81832 386.19608 
L 181.448614 386.190652 
L 183.078908 386.3684 
L 184.709202 386.237715 
L 186.339496 386.349886 
L 187.969791 386.052959 
L 189.600085 386.257604 
L 191.230379 386.034631 
L 192.860673 386.239527 
L 196.121261 386.280649 
L 199.38185 385.949788 
L 201.012144 385.960329 
L 202.642438 386.238161 
L 204.272732 386.239957 
L 207.53332 100.230405 
L 210.793909 386.295539 
L 214.054497 385.848559 
L 217.315085 386.379022 
L 222.205968 386.078971 
L 223.836262 386.241753 
L 225.466556 386.055484 
L 227.09685 386.049811 
L 228.727144 386.475203 
L 230.357438 386.366613 
L 231.987732 386.041537 
L 235.248321 386.300417 
L 236.878615 385.97357 
L 238.508909 385.946686 
L 245.030086 386.269739 
L 246.66038 386.277155 
L 248.290674 386.038996 
L 251.551262 385.816853 
L 253.181556 386.10367 
L 254.81185 386.103508 
L 256.442145 385.956021 
L 258.072439 386.364984 
L 259.702733 386.179105 
L 261.333027 386.116279 
L 264.593615 386.259256 
L 267.854204 385.938398 
L 271.114792 386.416713 
L 272.745086 386.235142 
L 274.37538 385.780799 
L 279.266263 386.222093 
L 284.157145 386.179486 
L 285.787439 386.337292 
L 289.048027 386.169887 
L 290.678321 386.201169 
L 292.308616 385.769062 
L 293.93891 385.84384 
L 295.569204 386.086996 
L 298.829792 386.372368 
L 300.460086 386.185387 
L 302.09038 386.327749 
L 306.981263 386.235388 
L 308.611557 386.041688 
L 310.241851 385.980026 
L 311.872145 386.397454 
L 313.502439 386.09124 
L 315.132734 386.403414 
L 316.763028 385.964124 
L 318.393322 385.820279 
L 321.65391 386.131625 
L 323.284204 386.082857 
L 326.544793 386.186344 
L 328.175087 385.726161 
L 329.805381 385.879659 
L 331.435675 386.173196 
L 333.065969 386.086407 
L 334.696263 386.264198 
L 336.326557 385.88762 
L 337.956852 385.760783 
L 339.587146 385.85219 
L 341.21744 386.244392 
L 342.847734 386.029827 
L 344.478028 386.154257 
L 346.108322 386.127873 
L 347.738616 385.93147 
L 350.999205 386.198494 
L 352.629499 385.962774 
L 354.259793 385.97567 
L 355.890087 386.234871 
L 357.520381 386.331142 
L 359.150675 386.025819 
L 360.78097 386.376891 
L 362.411264 386.298071 
L 364.041558 386.384847 
L 365.671852 386.287433 
L 367.302146 386.461224 
L 368.93244 386.347158 
L 370.562734 385.973745 
L 372.193029 385.81276 
L 373.823323 386.087246 
L 377.083911 386.291017 
L 380.344499 385.956479 
L 383.605088 386.282173 
L 386.865676 386.166178 
L 388.49597 386.313136 
L 390.126264 386.094612 
L 391.756558 386.242849 
L 393.386852 386.138676 
L 395.017146 385.712492 
L 396.647441 385.652225 
L 398.277735 386.194872 
L 399.908029 386.396644 
L 401.538323 386.407594 
L 403.168617 386.191158 
L 404.798911 386.353204 
L 406.429205 386.024202 
L 411.320088 386.030336 
L 414.580676 386.397656 
L 416.21097 386.145449 
L 419.471559 385.937936 
L 421.101853 386.210812 
L 424.362441 386.497069 
L 425.992735 386.406351 
L 427.623029 386.032537 
L 432.513912 385.903753 
L 434.144206 386.242052 
L 435.7745 386.256017 
L 437.404794 386.045507 
L 439.035088 385.959851 
L 445.556265 386.341169 
L 447.186559 386.286506 
L 448.816853 386.343325 
L 450.447147 386.095858 
L 452.077441 385.983666 
L 453.707736 385.997047 
L 455.33803 386.368546 
L 458.598618 385.821273 
L 460.228912 385.841053 
L 461.859206 386.099371 
L 463.4895 386.214512 
L 465.119795 386.482552 
L 466.750089 386.272493 
L 468.380383 386.428208 
L 470.010677 386.385778 
L 471.640971 385.902498 
L 473.271265 385.734324 
L 478.162148 386.145681 
L 479.792442 386.034777 
L 481.422736 386.250092 
L 484.683324 385.915459 
L 487.943913 385.912345 
L 489.574207 385.849812 
L 492.834795 386.388247 
L 494.465089 386.342774 
L 496.095383 386.418523 
L 497.725677 386.381435 
L 500.986266 386.132171 
L 502.61656 386.21077 
L 504.246854 386.029234 
L 514.028619 386.271124 
L 515.658913 385.946946 
L 518.919501 386.184998 
L 522.180089 386.072288 
L 523.810384 385.724486 
L 525.440678 385.831409 
L 527.070972 386.298933 
L 528.701266 386.429036 
L 531.961854 386.279189 
L 533.592148 386.013928 
L 535.222443 386.135858 
L 540.113325 385.855463 
L 541.743619 386.125822 
L 545.004207 386.310314 
L 546.634502 386.114769 
L 549.89509 386.145289 
L 551.525384 386.020508 
L 553.155678 386.245406 
L 554.785972 386.202493 
L 556.416266 385.81524 
L 561.307149 385.839192 
L 562.937443 386.247117 
L 569.45862 386.112794 
L 572.719208 385.879893 
L 574.349502 386.142102 
L 580.870679 386.306497 
L 582.500973 386.229878 
L 585.761561 386.265743 
L 587.391855 386.017389 
L 589.022149 386.152551 
L 590.652443 386.426349 
L 592.282738 386.18633 
L 593.913032 386.257962 
L 597.17362 385.981414 
L 598.803914 385.888175 
L 600.434208 386.021288 
L 602.064502 386.281783 
L 603.694796 386.131087 
L 605.325091 385.719047 
L 606.955385 385.666693 
L 608.585679 386.148383 
L 610.215973 386.285054 
L 615.106855 385.979637 
L 616.73715 386.245155 
L 619.997738 385.329306 
L 621.628032 385.62761 
L 623.258326 386.171937 
L 624.88862 386.370117 
L 639.561268 386.215547 
L 642.821856 386.050055 
L 650.973327 385.841955 
L 652.603621 386.20754 
L 654.233915 386.264875 
L 655.864209 385.81886 
L 657.494503 385.681222 
L 660.755091 385.84269 
L 662.385386 386.124792 
L 664.01568 386.079285 
L 668.906562 386.331658 
L 672.16715 386.207248 
L 673.797445 386.377588 
L 675.427739 386.240499 
L 677.058033 386.405262 
L 680.318621 386.116492 
L 681.948915 386.149425 
L 683.579209 386.40959 
L 685.209504 385.963289 
L 686.839798 385.90561 
L 690.100386 386.303295 
L 691.73068 386.249322 
L 693.360974 386.324671 
L 694.991268 386.150431 
L 698.251857 386.222337 
L 698.251857 386.222337 
" clip-path="url(#pf268e4773f)" style="fill: none; stroke: #1f77b4; stroke-width: 1.4; stroke-linecap: square"/>
   </g>
   <g id="line2d_26">
    <path d="M 207.53332 386.515781 
L 207.53332 28.318125 
" clip-path="url(#pf268e4773f)" style="fill: none; stroke-dasharray: 4.81,2.08; stroke-dashoffset: 0; stroke: #ffffff; stroke-opacity: 0.7; stroke-width: 1.3"/>
   </g>
   <g id="line2d_27">
    <path d="M 44.503906 99.957656 
L 696.621562 99.957656 
" clip-path="url(#pf268e4773f)" style="fill: none; stroke-dasharray: 1.4,2.31; stroke-dashoffset: 0; stroke: #d62728; stroke-width: 1.4"/>
   </g>
   <g id="patch_3">
    <path d="M 44.503906 386.515781 
L 44.503906 28.318125 
" style="fill: none; stroke: #ffffff; stroke-width: 0.8; stroke-linejoin: miter; stroke-linecap: square"/>
   </g>
   <g id="patch_4">
    <path d="M 696.621562 386.515781 
L 696.621562 28.318125 
" style="fill: none; stroke: #ffffff; stroke-width: 0.8; stroke-linejoin: miter; stroke-linecap: square"/>
   </g>
   <g id="patch_5">
    <path d="M 44.503906 386.515781 
L 696.621562 386.515781 
" style="fill: none; stroke: #ffffff; stroke-width: 0.8; stroke-linejoin: miter; stroke-linecap: square"/>
   </g>
   <g id="patch_6">
    <path d="M 44.503906 28.318125 
L 696.621562 28.318125 
" style="fill: none; stroke: #ffffff; stroke-width: 0.8; stroke-linejoin: miter; stroke-linecap: square"/>
   </g>
   <g id="text_15">
    <text style="font-size: 8.5px; font-family: sans-serif; fill: #ffffff" transform="translate(452.539954 143.426924)">la portadora está en 1 kHz; su modulación de amplitud</text>
    <!-- aparece como una línea exactamente en $f_m$ -->
    <g style="fill: #ffffff" transform="translate(500.859798 153.970576)">
     <text>
      <tspan x="0" y="-0.203125" style="font-size: 8.5px; font-family: sans-serif; fill: #ffffff">a</tspan>
      <tspan x="5.20874" y="-0.203125" style="font-size: 8.5px; font-family: sans-serif; fill: #ffffff">p</tspan>
      <tspan x="10.604248" y="-0.203125" style="font-size: 8.5px; font-family: sans-serif; fill: #ffffff">a</tspan>
      <tspan x="15.812988" y="-0.203125" style="font-size: 8.5px; font-family: sans-serif; fill: #ffffff">r</tspan>
      <tspan x="19.307617" y="-0.203125" style="font-size: 8.5px; font-family: sans-serif; fill: #ffffff">e</tspan>
      <tspan x="24.537109" y="-0.203125" style="font-size: 8.5px; font-family: sans-serif; fill: #ffffff">c</tspan>
      <tspan x="29.210449" y="-0.203125" style="font-size: 8.5px; font-family: sans-serif; fill: #ffffff">e</tspan>
      <tspan x="34.439941" y="-0.203125" style="font-size: 8.5px; font-family: sans-serif; fill: #ffffff"> </tspan>
      <tspan x="37.141846" y="-0.203125" style="font-size: 8.5px; font-family: sans-serif; fill: #ffffff">c</tspan>
      <tspan x="41.815186" y="-0.203125" style="font-size: 8.5px; font-family: sans-serif; fill: #ffffff">o</tspan>
      <tspan x="47.015625" y="-0.203125" style="font-size: 8.5px; font-family: sans-serif; fill: #ffffff">m</tspan>
      <tspan x="55.295654" y="-0.203125" style="font-size: 8.5px; font-family: sans-serif; fill: #ffffff">o</tspan>
      <tspan x="60.496094" y="-0.203125" style="font-size: 8.5px; font-family: sans-serif; fill: #ffffff"> </tspan>
      <tspan x="63.197998" y="-0.203125" style="font-size: 8.5px; font-family: sans-serif; fill: #ffffff">u</tspan>
      <tspan x="68.585205" y="-0.203125" style="font-size: 8.5px; font-family: sans-serif; fill: #ffffff">n</tspan>
      <tspan x="73.972412" y="-0.203125" style="font-size: 8.5px; font-family: sans-serif; fill: #ffffff">a</tspan>
      <tspan x="79.181152" y="-0.203125" style="font-size: 8.5px; font-family: sans-serif; fill: #ffffff"> </tspan>
      <tspan x="81.883057" y="-0.203125" style="font-size: 8.5px; font-family: sans-serif; fill: #ffffff">l</tspan>
      <tspan x="84.244629" y="-0.203125" style="font-size: 8.5px; font-family: sans-serif; fill: #ffffff">í</tspan>
      <tspan x="86.606201" y="-0.203125" style="font-size: 8.5px; font-family: sans-serif; fill: #ffffff">n</tspan>
      <tspan x="91.993408" y="-0.203125" style="font-size: 8.5px; font-family: sans-serif; fill: #ffffff">e</tspan>
      <tspan x="97.2229" y="-0.203125" style="font-size: 8.5px; font-family: sans-serif; fill: #ffffff">a</tspan>
      <tspan x="102.431641" y="-0.203125" style="font-size: 8.5px; font-family: sans-serif; fill: #ffffff"> </tspan>
      <tspan x="105.133545" y="-0.203125" style="font-size: 8.5px; font-family: sans-serif; fill: #ffffff">e</tspan>
      <tspan x="110.363037" y="-0.203125" style="font-size: 8.5px; font-family: sans-serif; fill: #ffffff">x</tspan>
      <tspan x="115.393311" y="-0.203125" style="font-size: 8.5px; font-family: sans-serif; fill: #ffffff">a</tspan>
      <tspan x="120.602051" y="-0.203125" style="font-size: 8.5px; font-family: sans-serif; fill: #ffffff">c</tspan>
      <tspan x="125.275391" y="-0.203125" style="font-size: 8.5px; font-family: sans-serif; fill: #ffffff">t</tspan>
      <tspan x="128.608154" y="-0.203125" style="font-size: 8.5px; font-family: sans-serif; fill: #ffffff">a</tspan>
      <tspan x="133.816895" y="-0.203125" style="font-size: 8.5px; font-family: sans-serif; fill: #ffffff">m</tspan>
      <tspan x="142.096924" y="-0.203125" style="font-size: 8.5px; font-family: sans-serif; fill: #ffffff">e</tspan>
      <tspan x="147.326416" y="-0.203125" style="font-size: 8.5px; font-family: sans-serif; fill: #ffffff">n</tspan>
      <tspan x="152.713623" y="-0.203125" style="font-size: 8.5px; font-family: sans-serif; fill: #ffffff">t</tspan>
      <tspan x="156.046387" y="-0.203125" style="font-size: 8.5px; font-family: sans-serif; fill: #ffffff">e</tspan>
      <tspan x="161.275879" y="-0.203125" style="font-size: 8.5px; font-family: sans-serif; fill: #ffffff"> </tspan>
      <tspan x="163.977783" y="-0.203125" style="font-size: 8.5px; font-family: sans-serif; fill: #ffffff">e</tspan>
      <tspan x="169.207275" y="-0.203125" style="font-size: 8.5px; font-family: sans-serif; fill: #ffffff">n</tspan>
      <tspan x="174.594482" y="-0.203125" style="font-size: 8.5px; font-family: sans-serif; fill: #ffffff"> </tspan>
      <tspan x="177.296387" y="-0.203125" style="font-style: oblique; font-size: 8.5px; font-family: sans-serif; fill: #ffffff">f</tspan>
      <tspan x="180.288818" y="1.071871" style="font-style: oblique; font-size: 5.95px; font-family: sans-serif; fill: #ffffff">m</tspan>
     </text>
    </g>
   </g>
   <g id="text_16">
    <text style="font-weight: 700; font-size: 12px; font-family: sans-serif; text-anchor: middle; fill: #ffffff" x="370.562734" y="16.318125" transform="rotate(-0 370.562734 16.318125)">Espectro de la envolvente de un tono AM (Bendat y Piersol 13,3)</text>
   </g>
   <g id="legend_1">
    <g id="patch_7">
     <path d="M 488.631563 76.741641 
L 690.321563 76.741641 
Q 692.121562 76.741641 692.121562 74.941641 
L 692.121562 34.618125 
Q 692.121562 32.818125 690.321563 32.818125 
L 488.631563 32.818125 
Q 486.831563 32.818125 486.831563 34.618125 
L 486.831563 74.941641 
Q 486.831563 76.741641 488.631563 76.741641 
z
" style="opacity: 0.8; stroke: #cccccc; stroke-linejoin: miter"/>
    </g>
    <g id="line2d_28">
     <path d="M 490.431563 40.106719 
L 499.431563 40.106719 
L 508.431563 40.106719 
" style="fill: none; stroke: #1f77b4; stroke-width: 1.4; stroke-linecap: square"/>
    </g>
    <g id="text_17">
     <text style="font-size: 9px; font-family: sans-serif; text-anchor: start; fill: #ffffff" x="515.631563" y="43.256719" transform="rotate(-0 515.631563 43.256719)">Espectro de la envolvente</text>
    </g>
    <g id="line2d_29">
     <path d="M 490.431563 53.967422 
L 499.431563 53.967422 
L 508.431563 53.967422 
" style="fill: none; stroke-dasharray: 4.81,2.08; stroke-dashoffset: 0; stroke: #ffffff; stroke-opacity: 0.7; stroke-width: 1.3"/>
    </g>
    <g id="text_18">
     <text style="font-size: 9px; font-family: sans-serif; text-anchor: start; fill: #ffffff" x="515.631563" y="57.117422" transform="rotate(-0 515.631563 57.117422)">Frecuencia de modulación (25 Hz)</text>
    </g>
    <g id="line2d_30">
     <path d="M 490.431563 67.829531 
L 499.431563 67.829531 
L 508.431563 67.829531 
" style="fill: none; stroke-dasharray: 1.4,2.31; stroke-dashoffset: 0; stroke: #d62728; stroke-width: 1.4"/>
    </g>
    <g id="text_19">
     <!-- Amplitud exacta de la línea $A_0 m$ = 0,4 -->
     <g style="fill: #ffffff" transform="translate(515.631563 70.979531)">
      <text>
       <tspan x="0" y="-0.796875" style="font-size: 9px; font-family: sans-serif; fill: #ffffff">A</tspan>
       <tspan x="6.156738" y="-0.796875" style="font-size: 9px; font-family: sans-serif; fill: #ffffff">m</tspan>
       <tspan x="14.923828" y="-0.796875" style="font-size: 9px; font-family: sans-serif; fill: #ffffff">p</tspan>
       <tspan x="20.636719" y="-0.796875" style="font-size: 9px; font-family: sans-serif; fill: #ffffff">l</tspan>
       <tspan x="23.137207" y="-0.796875" style="font-size: 9px; font-family: sans-serif; fill: #ffffff">i</tspan>
       <tspan x="25.637695" y="-0.796875" style="font-size: 9px; font-family: sans-serif; fill: #ffffff">t</tspan>
       <tspan x="29.166504" y="-0.796875" style="font-size: 9px; font-family: sans-serif; fill: #ffffff">u</tspan>
       <tspan x="34.870605" y="-0.796875" style="font-size: 9px; font-family: sans-serif; fill: #ffffff">d</tspan>
       <tspan x="40.583496" y="-0.796875" style="font-size: 9px; font-family: sans-serif; fill: #ffffff"> </tspan>
       <tspan x="43.444336" y="-0.796875" style="font-size: 9px; font-family: sans-serif; fill: #ffffff">e</tspan>
       <tspan x="48.981445" y="-0.796875" style="font-size: 9px; font-family: sans-serif; fill: #ffffff">x</tspan>
       <tspan x="54.307617" y="-0.796875" style="font-size: 9px; font-family: sans-serif; fill: #ffffff">a</tspan>
       <tspan x="59.822754" y="-0.796875" style="font-size: 9px; font-family: sans-serif; fill: #ffffff">c</tspan>
       <tspan x="64.770996" y="-0.796875" style="font-size: 9px; font-family: sans-serif; fill: #ffffff">t</tspan>
       <tspan x="68.299805" y="-0.796875" style="font-size: 9px; font-family: sans-serif; fill: #ffffff">a</tspan>
       <tspan x="73.814941" y="-0.796875" style="font-size: 9px; font-family: sans-serif; fill: #ffffff"> </tspan>
       <tspan x="76.675781" y="-0.796875" style="font-size: 9px; font-family: sans-serif; fill: #ffffff">d</tspan>
       <tspan x="82.388672" y="-0.796875" style="font-size: 9px; font-family: sans-serif; fill: #ffffff">e</tspan>
       <tspan x="87.925781" y="-0.796875" style="font-size: 9px; font-family: sans-serif; fill: #ffffff"> </tspan>
       <tspan x="90.786621" y="-0.796875" style="font-size: 9px; font-family: sans-serif; fill: #ffffff">l</tspan>
       <tspan x="93.287109" y="-0.796875" style="font-size: 9px; font-family: sans-serif; fill: #ffffff">a</tspan>
       <tspan x="98.802246" y="-0.796875" style="font-size: 9px; font-family: sans-serif; fill: #ffffff"> </tspan>
       <tspan x="101.663086" y="-0.796875" style="font-size: 9px; font-family: sans-serif; fill: #ffffff">l</tspan>
       <tspan x="104.163574" y="-0.796875" style="font-size: 9px; font-family: sans-serif; fill: #ffffff">í</tspan>
       <tspan x="106.664062" y="-0.796875" style="font-size: 9px; font-family: sans-serif; fill: #ffffff">n</tspan>
       <tspan x="112.368164" y="-0.796875" style="font-size: 9px; font-family: sans-serif; fill: #ffffff">e</tspan>
       <tspan x="117.905273" y="-0.796875" style="font-size: 9px; font-family: sans-serif; fill: #ffffff">a</tspan>
       <tspan x="123.42041" y="-0.796875" style="font-size: 9px; font-family: sans-serif; fill: #ffffff"> </tspan>
       <tspan x="145.459424" y="-0.796875" style="font-size: 9px; font-family: sans-serif; fill: #ffffff"> </tspan>
       <tspan x="148.320264" y="-0.796875" style="font-size: 9px; font-family: sans-serif; fill: #ffffff">=</tspan>
       <tspan x="155.861279" y="-0.796875" style="font-size: 9px; font-family: sans-serif; fill: #ffffff"> </tspan>
       <tspan x="158.722119" y="-0.796875" style="font-size: 9px; font-family: sans-serif; fill: #ffffff">0</tspan>
       <tspan x="164.448193" y="-0.796875" style="font-size: 9px; font-family: sans-serif; fill: #ffffff">,</tspan>
       <tspan x="167.309033" y="-0.796875" style="font-size: 9px; font-family: sans-serif; fill: #ffffff">4</tspan>
       <tspan x="126.28125" y="-0.796875" style="font-style: oblique; font-size: 9px; font-family: sans-serif; fill: #ffffff">A</tspan>
       <tspan x="136.692334" y="-0.796875" style="font-style: oblique; font-size: 9px; font-family: sans-serif; fill: #ffffff">m</tspan>
       <tspan x="132.437988" y="0.553121" style="font-size: 6.3px; font-family: sans-serif; fill: #ffffff">0</tspan>
      </text>
     </g>
    </g>
   </g>
  </g>
 </g>
 <defs>
  <clipPath id="pf268e4773f">
   <rect x="44.503906" y="28.318125" width="652.117656" height="358.197656"/>
  </clipPath>
 </defs>
</svg>
