<?xml version="1.0" encoding="utf-8" standalone="no"?>
<!DOCTYPE svg PUBLIC "-//W3C//DTD SVG 1.1//EN"
  "http://www.w3.org/Graphics/SVG/1.1/DTD/svg11.dtd">
<svg xmlns:xlink="http://www.w3.org/1999/xlink" width="612.488281pt" height="454.599688pt" viewBox="0 0 612.488281 454.599688" xmlns="http://www.w3.org/2000/svg" version="1.1">
 <metadata>
  <rdf:RDF xmlns:dc="http://purl.org/dc/elements/1.1/" xmlns:cc="http://creativecommons.org/ns#" xmlns:rdf="http://www.w3.org/1999/02/22-rdf-syntax-ns#">
   <cc:Work>
    <dc:type rdf:resource="http://purl.org/dc/dcmitype/StillImage"/>
    <dc:format>image/svg+xml</dc:format>
    <dc:creator>
     <cc:Agent>
      <dc:title>Matplotlib v3.11.1, https://matplotlib.org/</dc:title>
     </cc:Agent>
    </dc:creator>
   </cc:Work>
  </rdf:RDF>
 </metadata>
 <defs>
  <style type="text/css">*{stroke-linejoin: round; stroke-linecap: butt}</style>
 </defs>
 <g id="figure_1">
  <g id="patch_1">
   <path d="M 0 454.599688 
L 612.488281 454.599688 
L 612.488281 0 
L 0 0 
z
"/>
  </g>
  <g id="axes_1">
   <g id="patch_2">
    <path d="M 47.288281 416.398125 
L 605.288281 416.398125 
L 605.288281 28.318125 
L 47.288281 28.318125 
z
"/>
   </g>
   <g id="matplotlib.axis_1">
    <g id="xtick_1">
     <g id="line2d_1">
      <path d="M 86.661413 416.398125 
L 86.661413 28.318125 
" clip-path="url(#p8d607be130)" style="fill: none; stroke-dasharray: 2.96,1.28; stroke-dashoffset: 0; stroke: #ffffff; stroke-opacity: 0.3; stroke-width: 0.8"/>
     </g>
     <g id="line2d_2">
      <defs>
       <path id="m8d14ee1197" d="M 0 0 
L 0 3.5 
" style="stroke: #ffffff; stroke-width: 0.8"/>
      </defs>
      <g>
       <use xlink:href="#m8d14ee1197" x="86.661413" y="416.398125" style="fill: #ffffff; stroke: #ffffff; stroke-width: 0.8"/>
      </g>
     </g>
     <g id="text_1">
      <text style="font-size: 10px; font-family: sans-serif; text-anchor: middle; fill: #ffffff" x="86.661413" y="430.995781" transform="rotate(-0 86.661413 430.995781)">31.5</text>
     </g>
    </g>
    <g id="xtick_2">
     <g id="line2d_3">
      <path d="M 146.740793 416.398125 
L 146.740793 28.318125 
" clip-path="url(#p8d607be130)" style="fill: none; stroke-dasharray: 2.96,1.28; stroke-dashoffset: 0; stroke: #ffffff; stroke-opacity: 0.3; stroke-width: 0.8"/>
     </g>
     <g id="line2d_4">
      <g>
       <use xlink:href="#m8d14ee1197" x="146.740793" y="416.398125" style="fill: #ffffff; stroke: #ffffff; stroke-width: 0.8"/>
      </g>
     </g>
     <g id="text_2">
      <text style="font-size: 10px; font-family: sans-serif; text-anchor: middle; fill: #ffffff" x="146.740793" y="430.995781" transform="rotate(-0 146.740793 430.995781)">63</text>
     </g>
    </g>
    <g id="xtick_3">
     <g id="line2d_5">
      <path d="M 206.129522 416.398125 
L 206.129522 28.318125 
" clip-path="url(#p8d607be130)" style="fill: none; stroke-dasharray: 2.96,1.28; stroke-dashoffset: 0; stroke: #ffffff; stroke-opacity: 0.3; stroke-width: 0.8"/>
     </g>
     <g id="line2d_6">
      <g>
       <use xlink:href="#m8d14ee1197" x="206.129522" y="416.398125" style="fill: #ffffff; stroke: #ffffff; stroke-width: 0.8"/>
      </g>
     </g>
     <g id="text_3">
      <text style="font-size: 10px; font-family: sans-serif; text-anchor: middle; fill: #ffffff" x="206.129522" y="430.995781" transform="rotate(-0 206.129522 430.995781)">125</text>
     </g>
    </g>
    <g id="xtick_4">
     <g id="line2d_7">
      <path d="M 266.208901 416.398125 
L 266.208901 28.318125 
" clip-path="url(#p8d607be130)" style="fill: none; stroke-dasharray: 2.96,1.28; stroke-dashoffset: 0; stroke: #ffffff; stroke-opacity: 0.3; stroke-width: 0.8"/>
     </g>
     <g id="line2d_8">
      <g>
       <use xlink:href="#m8d14ee1197" x="266.208901" y="416.398125" style="fill: #ffffff; stroke: #ffffff; stroke-width: 0.8"/>
      </g>
     </g>
     <g id="text_4">
      <text style="font-size: 10px; font-family: sans-serif; text-anchor: middle; fill: #ffffff" x="266.208901" y="430.995781" transform="rotate(-0 266.208901 430.995781)">250</text>
     </g>
    </g>
    <g id="xtick_5">
     <g id="line2d_9">
      <path d="M 326.288281 416.398125 
L 326.288281 28.318125 
" clip-path="url(#p8d607be130)" style="fill: none; stroke-dasharray: 2.96,1.28; stroke-dashoffset: 0; stroke: #ffffff; stroke-opacity: 0.3; stroke-width: 0.8"/>
     </g>
     <g id="line2d_10">
      <g>
       <use xlink:href="#m8d14ee1197" x="326.288281" y="416.398125" style="fill: #ffffff; stroke: #ffffff; stroke-width: 0.8"/>
      </g>
     </g>
     <g id="text_5">
      <text style="font-size: 10px; font-family: sans-serif; text-anchor: middle; fill: #ffffff" x="326.288281" y="430.995781" transform="rotate(-0 326.288281 430.995781)">500</text>
     </g>
    </g>
    <g id="xtick_6">
     <g id="line2d_11">
      <path d="M 386.367661 416.398125 
L 386.367661 28.318125 
" clip-path="url(#p8d607be130)" style="fill: none; stroke-dasharray: 2.96,1.28; stroke-dashoffset: 0; stroke: #ffffff; stroke-opacity: 0.3; stroke-width: 0.8"/>
     </g>
     <g id="line2d_12">
      <g>
       <use xlink:href="#m8d14ee1197" x="386.367661" y="416.398125" style="fill: #ffffff; stroke: #ffffff; stroke-width: 0.8"/>
      </g>
     </g>
     <g id="text_6">
      <text style="font-size: 10px; font-family: sans-serif; text-anchor: middle; fill: #ffffff" x="386.367661" y="430.996563" transform="rotate(-0 386.367661 430.996563)">1k</text>
     </g>
    </g>
    <g id="xtick_7">
     <g id="line2d_13">
      <path d="M 446.447041 416.398125 
L 446.447041 28.318125 
" clip-path="url(#p8d607be130)" style="fill: none; stroke-dasharray: 2.96,1.28; stroke-dashoffset: 0; stroke: #ffffff; stroke-opacity: 0.3; stroke-width: 0.8"/>
     </g>
     <g id="line2d_14">
      <g>
       <use xlink:href="#m8d14ee1197" x="446.447041" y="416.398125" style="fill: #ffffff; stroke: #ffffff; stroke-width: 0.8"/>
      </g>
     </g>
     <g id="text_7">
      <text style="font-size: 10px; font-family: sans-serif; text-anchor: middle; fill: #ffffff" x="446.447041" y="430.996563" transform="rotate(-0 446.447041 430.996563)">2k</text>
     </g>
    </g>
    <g id="xtick_8">
     <g id="line2d_15">
      <path d="M 506.526421 416.398125 
L 506.526421 28.318125 
" clip-path="url(#p8d607be130)" style="fill: none; stroke-dasharray: 2.96,1.28; stroke-dashoffset: 0; stroke: #ffffff; stroke-opacity: 0.3; stroke-width: 0.8"/>
     </g>
     <g id="line2d_16">
      <g>
       <use xlink:href="#m8d14ee1197" x="506.526421" y="416.398125" style="fill: #ffffff; stroke: #ffffff; stroke-width: 0.8"/>
      </g>
     </g>
     <g id="text_8">
      <text style="font-size: 10px; font-family: sans-serif; text-anchor: middle; fill: #ffffff" x="506.526421" y="430.996563" transform="rotate(-0 506.526421 430.996563)">4k</text>
     </g>
    </g>
    <g id="xtick_9">
     <g id="line2d_17">
      <path d="M 566.605801 416.398125 
L 566.605801 28.318125 
" clip-path="url(#p8d607be130)" style="fill: none; stroke-dasharray: 2.96,1.28; stroke-dashoffset: 0; stroke: #ffffff; stroke-opacity: 0.3; stroke-width: 0.8"/>
     </g>
     <g id="line2d_18">
      <g>
       <use xlink:href="#m8d14ee1197" x="566.605801" y="416.398125" style="fill: #ffffff; stroke: #ffffff; stroke-width: 0.8"/>
      </g>
     </g>
     <g id="text_9">
      <text style="font-size: 10px; font-family: sans-serif; text-anchor: middle; fill: #ffffff" x="566.605801" y="430.996563" transform="rotate(-0 566.605801 430.996563)">8k</text>
     </g>
    </g>
    <g id="xtick_10">
     <g id="line2d_19">
      <path d="M 47.288281 416.398125 
L 47.288281 28.318125 
" clip-path="url(#p8d607be130)" style="fill: none; stroke-dasharray: 2.96,1.28; stroke-dashoffset: 0; stroke: #ffffff; stroke-opacity: 0.3; stroke-width: 0.8"/>
     </g>
     <g id="line2d_20">
      <defs>
       <path id="m1caa325441" d="M 0 0 
L 0 2 
" style="stroke: #ffffff; stroke-width: 0.6"/>
      </defs>
      <g>
       <use xlink:href="#m1caa325441" x="47.288281" y="416.398125" style="fill: #ffffff; stroke: #ffffff; stroke-width: 0.6"/>
      </g>
     </g>
    </g>
    <g id="xtick_11">
     <g id="line2d_21">
      <path d="M 66.629522 416.398125 
L 66.629522 28.318125 
" clip-path="url(#p8d607be130)" style="fill: none; stroke-dasharray: 2.96,1.28; stroke-dashoffset: 0; stroke: #ffffff; stroke-opacity: 0.3; stroke-width: 0.8"/>
     </g>
     <g id="line2d_22">
      <g>
       <use xlink:href="#m1caa325441" x="66.629522" y="416.398125" style="fill: #ffffff; stroke: #ffffff; stroke-width: 0.6"/>
      </g>
     </g>
    </g>
    <g id="xtick_12">
     <g id="line2d_23">
      <path d="M 107.367661 416.398125 
L 107.367661 28.318125 
" clip-path="url(#p8d607be130)" style="fill: none; stroke-dasharray: 2.96,1.28; stroke-dashoffset: 0; stroke: #ffffff; stroke-opacity: 0.3; stroke-width: 0.8"/>
     </g>
     <g id="line2d_24">
      <g>
       <use xlink:href="#m1caa325441" x="107.367661" y="416.398125" style="fill: #ffffff; stroke: #ffffff; stroke-width: 0.6"/>
      </g>
     </g>
    </g>
    <g id="xtick_13">
     <g id="line2d_25">
      <path d="M 126.708901 416.398125 
L 126.708901 28.318125 
" clip-path="url(#p8d607be130)" style="fill: none; stroke-dasharray: 2.96,1.28; stroke-dashoffset: 0; stroke: #ffffff; stroke-opacity: 0.3; stroke-width: 0.8"/>
     </g>
     <g id="line2d_26">
      <g>
       <use xlink:href="#m1caa325441" x="126.708901" y="416.398125" style="fill: #ffffff; stroke: #ffffff; stroke-width: 0.6"/>
      </g>
     </g>
    </g>
    <g id="xtick_14">
     <g id="line2d_27">
      <path d="M 167.447041 416.398125 
L 167.447041 28.318125 
" clip-path="url(#p8d607be130)" style="fill: none; stroke-dasharray: 2.96,1.28; stroke-dashoffset: 0; stroke: #ffffff; stroke-opacity: 0.3; stroke-width: 0.8"/>
     </g>
     <g id="line2d_28">
      <g>
       <use xlink:href="#m1caa325441" x="167.447041" y="416.398125" style="fill: #ffffff; stroke: #ffffff; stroke-width: 0.6"/>
      </g>
     </g>
    </g>
    <g id="xtick_15">
     <g id="line2d_29">
      <path d="M 186.788281 416.398125 
L 186.788281 28.318125 
" clip-path="url(#p8d607be130)" style="fill: none; stroke-dasharray: 2.96,1.28; stroke-dashoffset: 0; stroke: #ffffff; stroke-opacity: 0.3; stroke-width: 0.8"/>
     </g>
     <g id="line2d_30">
      <g>
       <use xlink:href="#m1caa325441" x="186.788281" y="416.398125" style="fill: #ffffff; stroke: #ffffff; stroke-width: 0.6"/>
      </g>
     </g>
    </g>
    <g id="xtick_16">
     <g id="line2d_31">
      <path d="M 227.526421 416.398125 
L 227.526421 28.318125 
" clip-path="url(#p8d607be130)" style="fill: none; stroke-dasharray: 2.96,1.28; stroke-dashoffset: 0; stroke: #ffffff; stroke-opacity: 0.3; stroke-width: 0.8"/>
     </g>
     <g id="line2d_32">
      <g>
       <use xlink:href="#m1caa325441" x="227.526421" y="416.398125" style="fill: #ffffff; stroke: #ffffff; stroke-width: 0.6"/>
      </g>
     </g>
    </g>
    <g id="xtick_17">
     <g id="line2d_33">
      <path d="M 246.867661 416.398125 
L 246.867661 28.318125 
" clip-path="url(#p8d607be130)" style="fill: none; stroke-dasharray: 2.96,1.28; stroke-dashoffset: 0; stroke: #ffffff; stroke-opacity: 0.3; stroke-width: 0.8"/>
     </g>
     <g id="line2d_34">
      <g>
       <use xlink:href="#m1caa325441" x="246.867661" y="416.398125" style="fill: #ffffff; stroke: #ffffff; stroke-width: 0.6"/>
      </g>
     </g>
    </g>
    <g id="xtick_18">
     <g id="line2d_35">
      <path d="M 286.240793 416.398125 
L 286.240793 28.318125 
" clip-path="url(#p8d607be130)" style="fill: none; stroke-dasharray: 2.96,1.28; stroke-dashoffset: 0; stroke: #ffffff; stroke-opacity: 0.3; stroke-width: 0.8"/>
     </g>
     <g id="line2d_36">
      <g>
       <use xlink:href="#m1caa325441" x="286.240793" y="416.398125" style="fill: #ffffff; stroke: #ffffff; stroke-width: 0.6"/>
      </g>
     </g>
    </g>
    <g id="xtick_19">
     <g id="line2d_37">
      <path d="M 306.947041 416.398125 
L 306.947041 28.318125 
" clip-path="url(#p8d607be130)" style="fill: none; stroke-dasharray: 2.96,1.28; stroke-dashoffset: 0; stroke: #ffffff; stroke-opacity: 0.3; stroke-width: 0.8"/>
     </g>
     <g id="line2d_38">
      <g>
       <use xlink:href="#m1caa325441" x="306.947041" y="416.398125" style="fill: #ffffff; stroke: #ffffff; stroke-width: 0.6"/>
      </g>
     </g>
    </g>
    <g id="xtick_20">
     <g id="line2d_39">
      <path d="M 346.320172 416.398125 
L 346.320172 28.318125 
" clip-path="url(#p8d607be130)" style="fill: none; stroke-dasharray: 2.96,1.28; stroke-dashoffset: 0; stroke: #ffffff; stroke-opacity: 0.3; stroke-width: 0.8"/>
     </g>
     <g id="line2d_40">
      <g>
       <use xlink:href="#m1caa325441" x="346.320172" y="416.398125" style="fill: #ffffff; stroke: #ffffff; stroke-width: 0.6"/>
      </g>
     </g>
    </g>
    <g id="xtick_21">
     <g id="line2d_41">
      <path d="M 367.026421 416.398125 
L 367.026421 28.318125 
" clip-path="url(#p8d607be130)" style="fill: none; stroke-dasharray: 2.96,1.28; stroke-dashoffset: 0; stroke: #ffffff; stroke-opacity: 0.3; stroke-width: 0.8"/>
     </g>
     <g id="line2d_42">
      <g>
       <use xlink:href="#m1caa325441" x="367.026421" y="416.398125" style="fill: #ffffff; stroke: #ffffff; stroke-width: 0.6"/>
      </g>
     </g>
    </g>
    <g id="xtick_22">
     <g id="line2d_43">
      <path d="M 405.708901 416.398125 
L 405.708901 28.318125 
" clip-path="url(#p8d607be130)" style="fill: none; stroke-dasharray: 2.96,1.28; stroke-dashoffset: 0; stroke: #ffffff; stroke-opacity: 0.3; stroke-width: 0.8"/>
     </g>
     <g id="line2d_44">
      <g>
       <use xlink:href="#m1caa325441" x="405.708901" y="416.398125" style="fill: #ffffff; stroke: #ffffff; stroke-width: 0.6"/>
      </g>
     </g>
    </g>
    <g id="xtick_23">
     <g id="line2d_45">
      <path d="M 427.105801 416.398125 
L 427.105801 28.318125 
" clip-path="url(#p8d607be130)" style="fill: none; stroke-dasharray: 2.96,1.28; stroke-dashoffset: 0; stroke: #ffffff; stroke-opacity: 0.3; stroke-width: 0.8"/>
     </g>
     <g id="line2d_46">
      <g>
       <use xlink:href="#m1caa325441" x="427.105801" y="416.398125" style="fill: #ffffff; stroke: #ffffff; stroke-width: 0.6"/>
      </g>
     </g>
    </g>
    <g id="xtick_24">
     <g id="line2d_47">
      <path d="M 465.788281 416.398125 
L 465.788281 28.318125 
" clip-path="url(#p8d607be130)" style="fill: none; stroke-dasharray: 2.96,1.28; stroke-dashoffset: 0; stroke: #ffffff; stroke-opacity: 0.3; stroke-width: 0.8"/>
     </g>
     <g id="line2d_48">
      <g>
       <use xlink:href="#m1caa325441" x="465.788281" y="416.398125" style="fill: #ffffff; stroke: #ffffff; stroke-width: 0.6"/>
      </g>
     </g>
    </g>
    <g id="xtick_25">
     <g id="line2d_49">
      <path d="M 485.820172 416.398125 
L 485.820172 28.318125 
" clip-path="url(#p8d607be130)" style="fill: none; stroke-dasharray: 2.96,1.28; stroke-dashoffset: 0; stroke: #ffffff; stroke-opacity: 0.3; stroke-width: 0.8"/>
     </g>
     <g id="line2d_50">
      <g>
       <use xlink:href="#m1caa325441" x="485.820172" y="416.398125" style="fill: #ffffff; stroke: #ffffff; stroke-width: 0.6"/>
      </g>
     </g>
    </g>
    <g id="xtick_26">
     <g id="line2d_51">
      <path d="M 525.867661 416.398125 
L 525.867661 28.318125 
" clip-path="url(#p8d607be130)" style="fill: none; stroke-dasharray: 2.96,1.28; stroke-dashoffset: 0; stroke: #ffffff; stroke-opacity: 0.3; stroke-width: 0.8"/>
     </g>
     <g id="line2d_52">
      <g>
       <use xlink:href="#m1caa325441" x="525.867661" y="416.398125" style="fill: #ffffff; stroke: #ffffff; stroke-width: 0.6"/>
      </g>
     </g>
    </g>
    <g id="xtick_27">
     <g id="line2d_53">
      <path d="M 545.899552 416.398125 
L 545.899552 28.318125 
" clip-path="url(#p8d607be130)" style="fill: none; stroke-dasharray: 2.96,1.28; stroke-dashoffset: 0; stroke: #ffffff; stroke-opacity: 0.3; stroke-width: 0.8"/>
     </g>
     <g id="line2d_54">
      <g>
       <use xlink:href="#m1caa325441" x="545.899552" y="416.398125" style="fill: #ffffff; stroke: #ffffff; stroke-width: 0.6"/>
      </g>
     </g>
    </g>
    <g id="xtick_28">
     <g id="line2d_55">
      <path d="M 585.947041 416.398125 
L 585.947041 28.318125 
" clip-path="url(#p8d607be130)" style="fill: none; stroke-dasharray: 2.96,1.28; stroke-dashoffset: 0; stroke: #ffffff; stroke-opacity: 0.3; stroke-width: 0.8"/>
     </g>
     <g id="line2d_56">
      <g>
       <use xlink:href="#m1caa325441" x="585.947041" y="416.398125" style="fill: #ffffff; stroke: #ffffff; stroke-width: 0.6"/>
      </g>
     </g>
    </g>
    <g id="xtick_29">
     <g id="line2d_57">
      <path d="M 605.288281 416.398125 
L 605.288281 28.318125 
" clip-path="url(#p8d607be130)" style="fill: none; stroke-dasharray: 2.96,1.28; stroke-dashoffset: 0; stroke: #ffffff; stroke-opacity: 0.3; stroke-width: 0.8"/>
     </g>
     <g id="line2d_58">
      <g>
       <use xlink:href="#m1caa325441" x="605.288281" y="416.398125" style="fill: #ffffff; stroke: #ffffff; stroke-width: 0.6"/>
      </g>
     </g>
    </g>
    <g id="text_10">
     <text style="font-size: 10px; font-family: sans-serif; text-anchor: middle; fill: #ffffff" x="326.288281" y="444.997344" transform="rotate(-0 326.288281 444.997344)">Frequency [Hz]</text>
    </g>
   </g>
   <g id="matplotlib.axis_2">
    <g id="ytick_1">
     <g id="line2d_59">
      <path d="M 47.288281 388.678125 
L 605.288281 388.678125 
" clip-path="url(#p8d607be130)" style="fill: none; stroke-dasharray: 2.96,1.28; stroke-dashoffset: 0; stroke: #ffffff; stroke-opacity: 0.3; stroke-width: 0.8"/>
     </g>
     <g id="line2d_60">
      <defs>
       <path id="m5e07181663" d="M 0 0 
L -3.5 0 
" style="stroke: #ffffff; stroke-width: 0.8"/>
      </defs>
      <g>
       <use xlink:href="#m5e07181663" x="47.288281" y="388.678125" style="fill: #ffffff; stroke: #ffffff; stroke-width: 0.8"/>
      </g>
     </g>
     <g id="text_11">
      <text style="font-size: 10px; font-family: sans-serif; text-anchor: end; fill: #ffffff" x="40.288281" y="392.476953" transform="rotate(-0 40.288281 392.476953)">0</text>
     </g>
    </g>
    <g id="ytick_2">
     <g id="line2d_61">
      <path d="M 47.288281 333.238125 
L 605.288281 333.238125 
" clip-path="url(#p8d607be130)" style="fill: none; stroke-dasharray: 2.96,1.28; stroke-dashoffset: 0; stroke: #ffffff; stroke-opacity: 0.3; stroke-width: 0.8"/>
     </g>
     <g id="line2d_62">
      <g>
       <use xlink:href="#m5e07181663" x="47.288281" y="333.238125" style="fill: #ffffff; stroke: #ffffff; stroke-width: 0.8"/>
      </g>
     </g>
     <g id="text_12">
      <text style="font-size: 10px; font-family: sans-serif; text-anchor: end; fill: #ffffff" x="40.288281" y="337.036953" transform="rotate(-0 40.288281 337.036953)">20</text>
     </g>
    </g>
    <g id="ytick_3">
     <g id="line2d_63">
      <path d="M 47.288281 277.798125 
L 605.288281 277.798125 
" clip-path="url(#p8d607be130)" style="fill: none; stroke-dasharray: 2.96,1.28; stroke-dashoffset: 0; stroke: #ffffff; stroke-opacity: 0.3; stroke-width: 0.8"/>
     </g>
     <g id="line2d_64">
      <g>
       <use xlink:href="#m5e07181663" x="47.288281" y="277.798125" style="fill: #ffffff; stroke: #ffffff; stroke-width: 0.8"/>
      </g>
     </g>
     <g id="text_13">
      <text style="font-size: 10px; font-family: sans-serif; text-anchor: end; fill: #ffffff" x="40.288281" y="281.596953" transform="rotate(-0 40.288281 281.596953)">40</text>
     </g>
    </g>
    <g id="ytick_4">
     <g id="line2d_65">
      <path d="M 47.288281 222.358125 
L 605.288281 222.358125 
" clip-path="url(#p8d607be130)" style="fill: none; stroke-dasharray: 2.96,1.28; stroke-dashoffset: 0; stroke: #ffffff; stroke-opacity: 0.3; stroke-width: 0.8"/>
     </g>
     <g id="line2d_66">
      <g>
       <use xlink:href="#m5e07181663" x="47.288281" y="222.358125" style="fill: #ffffff; stroke: #ffffff; stroke-width: 0.8"/>
      </g>
     </g>
     <g id="text_14">
      <text style="font-size: 10px; font-family: sans-serif; text-anchor: end; fill: #ffffff" x="40.288281" y="226.156953" transform="rotate(-0 40.288281 226.156953)">60</text>
     </g>
    </g>
    <g id="ytick_5">
     <g id="line2d_67">
      <path d="M 47.288281 166.918125 
L 605.288281 166.918125 
" clip-path="url(#p8d607be130)" style="fill: none; stroke-dasharray: 2.96,1.28; stroke-dashoffset: 0; stroke: #ffffff; stroke-opacity: 0.3; stroke-width: 0.8"/>
     </g>
     <g id="line2d_68">
      <g>
       <use xlink:href="#m5e07181663" x="47.288281" y="166.918125" style="fill: #ffffff; stroke: #ffffff; stroke-width: 0.8"/>
      </g>
     </g>
     <g id="text_15">
      <text style="font-size: 10px; font-family: sans-serif; text-anchor: end; fill: #ffffff" x="40.288281" y="170.716953" transform="rotate(-0 40.288281 170.716953)">80</text>
     </g>
    </g>
    <g id="ytick_6">
     <g id="line2d_69">
      <path d="M 47.288281 111.478125 
L 605.288281 111.478125 
" clip-path="url(#p8d607be130)" style="fill: none; stroke-dasharray: 2.96,1.28; stroke-dashoffset: 0; stroke: #ffffff; stroke-opacity: 0.3; stroke-width: 0.8"/>
     </g>
     <g id="line2d_70">
      <g>
       <use xlink:href="#m5e07181663" x="47.288281" y="111.478125" style="fill: #ffffff; stroke: #ffffff; stroke-width: 0.8"/>
      </g>
     </g>
     <g id="text_16">
      <text style="font-size: 10px; font-family: sans-serif; text-anchor: end; fill: #ffffff" x="40.288281" y="115.276953" transform="rotate(-0 40.288281 115.276953)">100</text>
     </g>
    </g>
    <g id="ytick_7">
     <g id="line2d_71">
      <path d="M 47.288281 56.038125 
L 605.288281 56.038125 
" clip-path="url(#p8d607be130)" style="fill: none; stroke-dasharray: 2.96,1.28; stroke-dashoffset: 0; stroke: #ffffff; stroke-opacity: 0.3; stroke-width: 0.8"/>
     </g>
     <g id="line2d_72">
      <g>
       <use xlink:href="#m5e07181663" x="47.288281" y="56.038125" style="fill: #ffffff; stroke: #ffffff; stroke-width: 0.8"/>
      </g>
     </g>
     <g id="text_17">
      <text style="font-size: 10px; font-family: sans-serif; text-anchor: end; fill: #ffffff" x="40.288281" y="59.836953" transform="rotate(-0 40.288281 59.836953)">120</text>
     </g>
    </g>
    <g id="text_18">
     <text style="font-size: 10px; font-family: sans-serif; text-anchor: middle; fill: #ffffff" x="14.798438" y="222.358125" transform="rotate(-90 14.798438 222.358125)">Sound pressure level [dB re 20 µPa]</text>
    </g>
   </g>
   <g id="line2d_73">
    <path d="M 47.288281 140.460831 
L 66.629522 158.972124 
L 86.661413 177.209889 
L 107.367661 194.818695 
L 126.708901 210.42482 
L 146.740793 225.79634 
L 167.447041 240.737425 
L 186.788281 254.033044 
L 206.129522 266.432634 
L 227.526421 278.884144 
L 246.867661 289.901038 
L 266.208901 299.734192 
L 286.240793 308.64099 
L 306.947041 316.814809 
L 326.288281 323.197569 
L 346.320172 328.83237 
L 367.026421 333.084977 
L 386.367661 333.238125 
L 405.708901 329.268748 
L 427.105801 329.070492 
L 446.447041 338.357228 
L 465.788281 345.789647 
L 485.820172 349.439441 
L 506.526421 346.334637 
L 525.867661 336.760557 
L 545.899552 319.301181 
L 566.605801 301.656386 
L 585.947041 292.580686 
L 605.288281 297.24573 
" clip-path="url(#p8d607be130)" style="fill: none; stroke: #1f77b4; stroke-width: 1.5; stroke-linecap: square"/>
   </g>
   <g id="line2d_74">
    <path d="M 47.288281 125.955129 
L 66.629522 143.058397 
L 86.661413 159.978896 
L 107.367661 176.372545 
L 126.708901 190.893074 
L 146.740793 205.199847 
L 167.447041 219.067719 
L 186.788281 231.387438 
L 206.129522 242.8778 
L 227.526421 254.408449 
L 246.867661 264.654672 
L 266.208901 273.821424 
L 286.240793 282.112329 
L 306.947041 289.771816 
L 326.288281 295.79957 
L 346.320172 301.215744 
L 367.026421 305.393628 
L 386.367661 305.518125 
L 405.708901 301.059337 
L 427.105801 299.654603 
L 446.447041 308.990266 
L 465.788281 316.308326 
L 485.820172 319.644382 
L 506.526421 316.283979 
L 525.867661 306.928534 
L 545.899552 290.355354 
L 566.605801 273.458052 
L 585.947041 264.701516 
L 605.288281 271.172816 
" clip-path="url(#p8d607be130)" style="fill: none; stroke: #1f77b4; stroke-width: 1.5; stroke-linecap: square"/>
   </g>
   <g id="line2d_75">
    <path d="M 47.288281 112.19014 
L 66.629522 128.269582 
L 86.661413 144.165148 
L 107.367661 159.53809 
L 126.708901 173.103309 
L 146.740793 186.425659 
L 167.447041 199.26491 
L 186.788281 210.60571 
L 206.129522 221.139958 
L 227.526421 231.650041 
L 246.867661 240.976234 
L 266.208901 249.287606 
L 286.240793 256.776416 
L 306.947041 263.682015 
L 326.288281 269.124555 
L 346.320172 274.043979 
L 367.026421 277.825459 
L 386.367661 277.798125 
L 405.708901 272.859696 
L 427.105801 270.713703 
L 446.447041 279.972314 
L 465.788281 287.234582 
L 485.820172 290.367342 
L 506.526421 286.883992 
L 525.867661 277.633644 
L 545.899552 261.693527 
L 566.605801 245.640517 
L 585.947041 237.930569 
L 605.288281 246.457694 
" clip-path="url(#p8d607be130)" style="fill: none; stroke: #1f77b4; stroke-width: 1.5; stroke-linecap: square"/>
   </g>
   <g id="line2d_76">
    <path d="M 47.288281 98.767494 
L 66.629522 113.984355 
L 86.661413 128.973909 
L 107.367661 143.40558 
L 126.708901 156.069952 
L 146.740793 168.443691 
L 167.447041 180.276838 
L 186.788281 190.642594 
L 206.129522 200.206962 
L 227.526421 209.66107 
L 246.867661 218.009611 
L 266.208901 225.388901 
L 286.240793 231.997213 
L 306.947041 238.044092 
L 326.288281 242.797151 
L 346.320172 247.089611 
L 367.026421 250.318599 
L 386.367661 250.078125 
L 405.708901 244.66495 
L 427.105801 242.004907 
L 446.447041 251.126055 
L 465.788281 258.360733 
L 485.820172 261.34294 
L 506.526421 257.799205 
L 525.867661 248.600459 
L 545.899552 233.171868 
L 566.605801 218.009838 
L 585.947041 211.681223 
L 605.288281 222.369092 
" clip-path="url(#p8d607be130)" style="fill: none; stroke: #1f77b4; stroke-width: 1.5; stroke-linecap: square"/>
   </g>
   <g id="line2d_77">
    <path d="M 47.288281 85.509845 
L 66.629522 99.938319 
L 86.661413 114.075845 
L 107.367661 127.602421 
L 126.708901 139.391034 
L 146.740793 150.833135 
L 167.447041 161.671381 
L 186.788281 171.064992 
L 206.129522 179.654435 
L 227.526421 188.037702 
L 246.867661 195.383235 
L 266.208901 201.795801 
L 286.240793 207.487558 
L 306.947041 212.626573 
L 326.288281 216.640444 
L 346.320172 220.242844 
L 367.026421 222.842359 
L 386.367661 222.358125 
L 405.708901 216.472656 
L 427.105801 213.410989 
L 446.447041 222.365055 
L 465.788281 229.585996 
L 485.820172 232.443459 
L 506.526421 228.869763 
L 525.867661 219.696616 
L 545.899552 204.719924 
L 566.605801 190.471829 
L 585.947041 185.685421 
L 605.288281 198.582216 
" clip-path="url(#p8d607be130)" style="fill: none; stroke: #1f77b4; stroke-width: 1.5; stroke-linecap: square"/>
   </g>
   <g id="line2d_78">
    <path d="M 47.288281 72.333312 
L 66.629522 86.009054 
L 86.661413 99.320331 
L 107.367661 111.95912 
L 126.708901 122.884043 
L 146.740793 133.402782 
L 167.447041 143.251712 
L 186.788281 151.674835 
L 206.129522 159.287231 
L 227.526421 166.592852 
L 246.867661 172.923473 
L 266.208901 178.352829 
L 286.240793 183.110715 
L 306.947041 187.318041 
L 326.288281 190.568425 
L 346.320172 193.449669 
L 367.026421 195.38144 
L 386.367661 194.638125 
L 405.708901 188.281591 
L 427.105801 184.874288 
L 446.447041 193.646588 
L 465.788281 200.860667 
L 485.820172 203.606167 
L 506.526421 200.017529 
L 525.867661 190.857147 
L 545.899552 176.302787 
L 566.605801 162.980024 
L 585.947041 159.814785 
L 605.288281 174.943625 
" clip-path="url(#p8d607be130)" style="fill: none; stroke: #1f77b4; stroke-width: 1.5; stroke-linecap: square"/>
   </g>
   <g id="line2d_79">
    <path d="M 47.288281 59.197046 
L 66.629522 72.137557 
L 86.661413 84.635199 
L 107.367661 96.394679 
L 126.708901 106.461841 
L 146.740793 116.06131 
L 167.447041 124.923714 
L 186.788281 132.377224 
L 206.129522 139.011607 
L 227.526421 145.236325 
L 246.867661 150.546258 
L 266.208901 154.984354 
L 286.240793 158.799873 
L 306.947041 162.063767 
L 326.288281 164.538636 
L 346.320172 166.683272 
L 367.026421 167.928191 
L 386.367661 166.918125 
L 405.708901 160.091142 
L 427.105801 156.366173 
L 446.447041 164.94939 
L 465.788281 172.160036 
L 485.820172 174.799939 
L 506.526421 171.203832 
L 525.867661 162.049831 
L 545.899552 147.903062 
L 566.605801 135.511314 
L 585.947041 134.00641 
L 605.288281 151.378631 
" clip-path="url(#p8d607be130)" style="fill: none; stroke: #1f77b4; stroke-width: 1.5; stroke-linecap: square"/>
   </g>
   <g id="line2d_80">
    <path d="M 47.288281 46.080867 
L 66.629522 58.294826 
L 86.661413 69.98508 
L 107.367661 80.869452 
L 126.708901 90.081794 
L 146.740793 98.764031 
L 167.447041 106.641303 
L 186.788281 113.125653 
L 206.129522 118.78156 
L 227.526421 123.92378 
L 246.867661 128.210179 
L 266.208901 131.653031 
L 286.240793 134.521972 
L 306.947041 136.836596 
L 326.288281 138.529959 
L 346.320172 139.930273 
L 367.026421 140.478787 
L 386.367661 139.198125 
L 405.708901 131.901001 
L 427.105801 127.872363 
L 446.447041 136.262838 
L 465.788281 143.471765 
L 485.820172 146.009254 
L 506.526421 142.409407 
" clip-path="url(#p8d607be130)" style="fill: none; stroke: #1f77b4; stroke-width: 1.5; stroke-linecap: square"/>
   </g>
   <g id="line2d_81">
    <path d="M 47.288281 172.184925 
L 66.629522 198.241725 
L 86.661413 223.744125 
L 107.367661 247.028925 
L 126.708901 266.710125 
L 146.740793 284.728125 
L 167.447041 301.360125 
L 186.788281 315.220125 
L 206.129522 327.416925 
L 227.526421 339.059325 
L 246.867661 348.761325 
L 266.208901 357.077325 
L 286.240793 364.838925 
L 306.947041 371.491725 
L 326.288281 376.481325 
L 346.320172 380.362125 
L 367.026421 382.579725 
L 386.367661 382.025325 
L 405.708901 378.976125 
L 427.105801 383.965725 
L 446.447041 392.281725 
L 465.788281 400.320525 
L 485.820172 405.310125 
L 506.526421 403.646925 
L 525.867661 392.836125 
L 545.899552 372.046125 
L 566.605801 353.750925 
L 585.947041 350.147325 
L 605.288281 354.582525 
" clip-path="url(#p8d607be130)" style="fill: none; stroke-dasharray: 5.55,2.4; stroke-dashoffset: 0; stroke: #ff7f0e; stroke-width: 1.5"/>
   </g>
   <g id="patch_3">
    <path d="M 47.288281 416.398125 
L 47.288281 28.318125 
" style="fill: none; stroke: #ffffff; stroke-width: 0.8; stroke-linejoin: miter; stroke-linecap: square"/>
   </g>
   <g id="patch_4">
    <path d="M 605.288281 416.398125 
L 605.288281 28.318125 
" style="fill: none; stroke: #ffffff; stroke-width: 0.8; stroke-linejoin: miter; stroke-linecap: square"/>
   </g>
   <g id="patch_5">
    <path d="M 47.288281 416.398125 
L 605.288281 416.398125 
" style="fill: none; stroke: #ffffff; stroke-width: 0.8; stroke-linejoin: miter; stroke-linecap: square"/>
   </g>
   <g id="patch_6">
    <path d="M 47.288281 28.318125 
L 605.288281 28.318125 
" style="fill: none; stroke: #ffffff; stroke-width: 0.8; stroke-linejoin: miter; stroke-linecap: square"/>
   </g>
   <g id="text_19">
    <text style="font-size: 9px; font-family: sans-serif; text-anchor: start; fill: #1f77b4" x="400.713828" y="330.466125" transform="rotate(-0 400.713828 330.466125)">20 phon</text>
   </g>
   <g id="text_20">
    <text style="font-size: 9px; font-family: sans-serif; text-anchor: start; fill: #1f77b4" x="400.713828" y="302.746125" transform="rotate(-0 400.713828 302.746125)">30 phon</text>
   </g>
   <g id="text_21">
    <text style="font-size: 9px; font-family: sans-serif; text-anchor: start; fill: #1f77b4" x="400.713828" y="275.026125" transform="rotate(-0 400.713828 275.026125)">40 phon</text>
   </g>
   <g id="text_22">
    <text style="font-size: 9px; font-family: sans-serif; text-anchor: start; fill: #1f77b4" x="400.713828" y="247.306125" transform="rotate(-0 400.713828 247.306125)">50 phon</text>
   </g>
   <g id="text_23">
    <text style="font-size: 9px; font-family: sans-serif; text-anchor: start; fill: #1f77b4" x="400.713828" y="219.586125" transform="rotate(-0 400.713828 219.586125)">60 phon</text>
   </g>
   <g id="text_24">
    <text style="font-size: 9px; font-family: sans-serif; text-anchor: start; fill: #1f77b4" x="400.713828" y="191.866125" transform="rotate(-0 400.713828 191.866125)">70 phon</text>
   </g>
   <g id="text_25">
    <text style="font-size: 9px; font-family: sans-serif; text-anchor: start; fill: #1f77b4" x="400.713828" y="164.146125" transform="rotate(-0 400.713828 164.146125)">80 phon</text>
   </g>
   <g id="text_26">
    <text style="font-size: 9px; font-family: sans-serif; text-anchor: start; fill: #1f77b4" x="400.713828" y="136.426125" transform="rotate(-0 400.713828 136.426125)">90 phon</text>
   </g>
   <g id="text_27">
    <text style="font-weight: 700; font-size: 12px; font-family: sans-serif; text-anchor: middle; fill: #ffffff" x="326.288281" y="16.318125" transform="rotate(-0 326.288281 16.318125)">Normal Equal-Loudness-Level Contours (ISO 226:2023)</text>
   </g>
   <g id="legend_1">
    <g id="patch_7">
     <path d="M 488.085181 47.479077 
L 599.457281 47.479077 
Q 601.123281 47.479077 601.123281 45.813077 
L 601.123281 34.149125 
Q 601.123281 32.483125 599.457281 32.483125 
L 488.085181 32.483125 
Q 486.419181 32.483125 486.419181 34.149125 
L 486.419181 45.813077 
Q 486.419181 47.479077 488.085181 47.479077 
z
" style="opacity: 0.8; stroke: #cccccc; stroke-linejoin: miter"/>
    </g>
    <g id="line2d_82">
     <path d="M 489.751181 39.230425 
L 498.081181 39.230425 
L 506.411181 39.230425 
" style="fill: none; stroke-dasharray: 5.55,2.4; stroke-dashoffset: 0; stroke: #ff7f0e; stroke-width: 1.5"/>
    </g>
    <g id="text_28">
     <!-- Hearing threshold $T_f$ -->
     <g style="fill: #ffffff" transform="translate(513.075181 42.145925)">
      <text>
       <tspan x="0" y="-0.671875" style="font-size: 8.33px; font-family: sans-serif; fill: #ffffff">H</tspan>
       <tspan x="6.26236" y="-0.671875" style="font-size: 8.33px; font-family: sans-serif; fill: #ffffff">e</tspan>
       <tspan x="11.386108" y="-0.671875" style="font-size: 8.33px; font-family: sans-serif; fill: #ffffff">a</tspan>
       <tspan x="16.489532" y="-0.671875" style="font-size: 8.33px; font-family: sans-serif; fill: #ffffff">r</tspan>
       <tspan x="19.913498" y="-0.671875" style="font-size: 8.33px; font-family: sans-serif; fill: #ffffff">i</tspan>
       <tspan x="22.227325" y="-0.671875" style="font-size: 8.33px; font-family: sans-serif; fill: #ffffff">n</tspan>
       <tspan x="27.5056" y="-0.671875" style="font-size: 8.33px; font-family: sans-serif; fill: #ffffff">g</tspan>
       <tspan x="32.792007" y="-0.671875" style="font-size: 8.33px; font-family: sans-serif; fill: #ffffff"> </tspan>
       <tspan x="35.439285" y="-0.671875" style="font-size: 8.33px; font-family: sans-serif; fill: #ffffff">t</tspan>
       <tspan x="38.704666" y="-0.671875" style="font-size: 8.33px; font-family: sans-serif; fill: #ffffff">h</tspan>
       <tspan x="43.982941" y="-0.671875" style="font-size: 8.33px; font-family: sans-serif; fill: #ffffff">r</tspan>
       <tspan x="47.406906" y="-0.671875" style="font-size: 8.33px; font-family: sans-serif; fill: #ffffff">e</tspan>
       <tspan x="52.530655" y="-0.671875" style="font-size: 8.33px; font-family: sans-serif; fill: #ffffff">s</tspan>
       <tspan x="56.869583" y="-0.671875" style="font-size: 8.33px; font-family: sans-serif; fill: #ffffff">h</tspan>
       <tspan x="62.147858" y="-0.671875" style="font-size: 8.33px; font-family: sans-serif; fill: #ffffff">o</tspan>
       <tspan x="67.243149" y="-0.671875" style="font-size: 8.33px; font-family: sans-serif; fill: #ffffff">l</tspan>
       <tspan x="69.556976" y="-0.671875" style="font-size: 8.33px; font-family: sans-serif; fill: #ffffff">d</tspan>
       <tspan x="74.843384" y="-0.671875" style="font-size: 8.33px; font-family: sans-serif; fill: #ffffff"> </tspan>
       <tspan x="77.490662" y="-0.671875" style="font-style: oblique; font-size: 8.33px; font-family: sans-serif; fill: #ffffff">T</tspan>
       <tspan x="82.57782" y="0.577621" style="font-style: oblique; font-size: 5.831px; font-family: sans-serif; fill: #ffffff">f</tspan>
      </text>
     </g>
    </g>
   </g>
  </g>
 </g>
 <defs>
  <clipPath id="p8d607be130">
   <rect x="47.288281" y="28.318125" width="558" height="388.08"/>
  </clipPath>
 </defs>
</svg>
