<?xml version="1.0" encoding="utf-8" standalone="no"?>
<!DOCTYPE svg PUBLIC "-//W3C//DTD SVG 1.1//EN"
  "http://www.w3.org/Graphics/SVG/1.1/DTD/svg11.dtd">
<svg xmlns:xlink="http://www.w3.org/1999/xlink" width="612.202344pt" height="399.159687pt" viewBox="0 0 612.202344 399.159687" xmlns="http://www.w3.org/2000/svg" version="1.1">
 <metadata>
  <rdf:RDF xmlns:dc="http://purl.org/dc/elements/1.1/" xmlns:cc="http://creativecommons.org/ns#" xmlns:rdf="http://www.w3.org/1999/02/22-rdf-syntax-ns#">
   <cc:Work>
    <dc:type rdf:resource="http://purl.org/dc/dcmitype/StillImage"/>
    <dc:format>image/svg+xml</dc:format>
    <dc:creator>
     <cc:Agent>
      <dc:title>Matplotlib v3.11.1, https://matplotlib.org/</dc:title>
     </cc:Agent>
    </dc:creator>
   </cc:Work>
  </rdf:RDF>
 </metadata>
 <defs>
  <style type="text/css">*{stroke-linejoin: round; stroke-linecap: butt}</style>
 </defs>
 <g id="figure_1">
  <g id="patch_1">
   <path d="M 0 399.159687 
L 612.202344 399.159687 
L 612.202344 0 
L 0 0 
z
"/>
  </g>
  <g id="axes_1">
   <g id="patch_2">
    <path d="M 40.925781 360.958125 
L 598.925781 360.958125 
L 598.925781 28.318125 
L 40.925781 28.318125 
z
"/>
   </g>
   <g id="matplotlib.axis_1">
    <g id="xtick_1">
     <g id="line2d_1">
      <path d="M 40.925781 360.958125 
L 40.925781 28.318125 
" clip-path="url(#p5f150b8643)" style="fill: none; stroke-dasharray: 2.96,1.28; stroke-dashoffset: 0; stroke: #ffffff; stroke-opacity: 0.5; stroke-width: 0.8"/>
     </g>
     <g id="line2d_2">
      <defs>
       <path id="m8d14ee1197" d="M 0 0 
L 0 3.5 
" style="stroke: #ffffff; stroke-width: 0.8"/>
      </defs>
      <g>
       <use xlink:href="#m8d14ee1197" x="40.925781" y="360.958125" style="fill: #ffffff; stroke: #ffffff; stroke-width: 0.8"/>
      </g>
     </g>
     <g id="text_1">
      <text style="font-size: 10px; font-family: sans-serif; text-anchor: middle; fill: #ffffff" x="40.925781" y="375.555781" transform="rotate(-0 40.925781 375.555781)">500</text>
     </g>
    </g>
    <g id="xtick_2">
     <g id="line2d_3">
      <path d="M 180.364993 360.958125 
L 180.364993 28.318125 
" clip-path="url(#p5f150b8643)" style="fill: none; stroke-dasharray: 2.96,1.28; stroke-dashoffset: 0; stroke: #ffffff; stroke-opacity: 0.5; stroke-width: 0.8"/>
     </g>
     <g id="line2d_4">
      <g>
       <use xlink:href="#m8d14ee1197" x="180.364993" y="360.958125" style="fill: #ffffff; stroke: #ffffff; stroke-width: 0.8"/>
      </g>
     </g>
     <g id="text_2">
      <text style="font-size: 10px; font-family: sans-serif; text-anchor: middle; fill: #ffffff" x="180.364993" y="375.555781" transform="rotate(-0 180.364993 375.555781)">707</text>
     </g>
    </g>
    <g id="xtick_3">
     <g id="line2d_5">
      <path d="M 319.925781 360.958125 
L 319.925781 28.318125 
" clip-path="url(#p5f150b8643)" style="fill: none; stroke-dasharray: 2.96,1.28; stroke-dashoffset: 0; stroke: #ffffff; stroke-opacity: 0.5; stroke-width: 0.8"/>
     </g>
     <g id="line2d_6">
      <g>
       <use xlink:href="#m8d14ee1197" x="319.925781" y="360.958125" style="fill: #ffffff; stroke: #ffffff; stroke-width: 0.8"/>
      </g>
     </g>
     <g id="text_3">
      <text style="font-size: 10px; font-family: sans-serif; text-anchor: middle; fill: #ffffff" x="319.925781" y="375.556562" transform="rotate(-0 319.925781 375.556562)">1k</text>
     </g>
    </g>
    <g id="xtick_4">
     <g id="line2d_7">
      <path d="M 459.364993 360.958125 
L 459.364993 28.318125 
" clip-path="url(#p5f150b8643)" style="fill: none; stroke-dasharray: 2.96,1.28; stroke-dashoffset: 0; stroke: #ffffff; stroke-opacity: 0.5; stroke-width: 0.8"/>
     </g>
     <g id="line2d_8">
      <g>
       <use xlink:href="#m8d14ee1197" x="459.364993" y="360.958125" style="fill: #ffffff; stroke: #ffffff; stroke-width: 0.8"/>
      </g>
     </g>
     <g id="text_4">
      <text style="font-size: 10px; font-family: sans-serif; text-anchor: middle; fill: #ffffff" x="459.364993" y="375.556562" transform="rotate(-0 459.364993 375.556562)">1,41k</text>
     </g>
    </g>
    <g id="xtick_5">
     <g id="line2d_9">
      <path d="M 598.925781 360.958125 
L 598.925781 28.318125 
" clip-path="url(#p5f150b8643)" style="fill: none; stroke-dasharray: 2.96,1.28; stroke-dashoffset: 0; stroke: #ffffff; stroke-opacity: 0.5; stroke-width: 0.8"/>
     </g>
     <g id="line2d_10">
      <g>
       <use xlink:href="#m8d14ee1197" x="598.925781" y="360.958125" style="fill: #ffffff; stroke: #ffffff; stroke-width: 0.8"/>
      </g>
     </g>
     <g id="text_5">
      <text style="font-size: 10px; font-family: sans-serif; text-anchor: middle; fill: #ffffff" x="598.925781" y="375.556562" transform="rotate(-0 598.925781 375.556562)">2k</text>
     </g>
    </g>
    <g id="xtick_6">
     <g id="line2d_11">
      <defs>
       <path id="m1caa325441" d="M 0 0 
L 0 2 
" style="stroke: #ffffff; stroke-width: 0.6"/>
      </defs>
      <g>
       <use xlink:href="#m1caa325441" x="114.31238" y="360.958125" style="fill: #ffffff; stroke: #ffffff; stroke-width: 0.6"/>
      </g>
     </g>
    </g>
    <g id="xtick_7">
     <g id="line2d_12">
      <g>
       <use xlink:href="#m1caa325441" x="176.359866" y="360.958125" style="fill: #ffffff; stroke: #ffffff; stroke-width: 0.6"/>
      </g>
     </g>
    </g>
    <g id="xtick_8">
     <g id="line2d_13">
      <g>
       <use xlink:href="#m1caa325441" x="230.107843" y="360.958125" style="fill: #ffffff; stroke: #ffffff; stroke-width: 0.6"/>
      </g>
     </g>
    </g>
    <g id="xtick_9">
     <g id="line2d_14">
      <g>
       <use xlink:href="#m1caa325441" x="277.516918" y="360.958125" style="fill: #ffffff; stroke: #ffffff; stroke-width: 0.6"/>
      </g>
     </g>
    </g>
    <g id="text_6">
     <text style="font-size: 10px; font-family: sans-serif; text-anchor: middle; fill: #ffffff" x="319.925781" y="389.557344" transform="rotate(-0 319.925781 389.557344)">Frecuencia [Hz]</text>
    </g>
   </g>
   <g id="matplotlib.axis_2">
    <g id="ytick_1">
     <g id="line2d_15">
      <path d="M 40.925781 359.694768 
L 598.925781 359.694768 
" clip-path="url(#p5f150b8643)" style="fill: none; stroke-dasharray: 2.96,1.28; stroke-dashoffset: 0; stroke: #ffffff; stroke-opacity: 0.5; stroke-width: 0.8"/>
     </g>
     <g id="line2d_16">
      <defs>
       <path id="m5e07181663" d="M 0 0 
L -3.5 0 
" style="stroke: #ffffff; stroke-width: 0.8"/>
      </defs>
      <g>
       <use xlink:href="#m5e07181663" x="40.925781" y="359.694768" style="fill: #ffffff; stroke: #ffffff; stroke-width: 0.8"/>
      </g>
     </g>
     <g id="text_7">
      <text style="font-size: 10px; font-family: sans-serif; text-anchor: end; fill: #ffffff" x="33.925781" y="363.493596" transform="rotate(-0 33.925781 363.493596)">0</text>
     </g>
    </g>
    <g id="ytick_2">
     <g id="line2d_17">
      <path d="M 40.925781 295.723991 
L 598.925781 295.723991 
" clip-path="url(#p5f150b8643)" style="fill: none; stroke-dasharray: 2.96,1.28; stroke-dashoffset: 0; stroke: #ffffff; stroke-opacity: 0.5; stroke-width: 0.8"/>
     </g>
     <g id="line2d_18">
      <g>
       <use xlink:href="#m5e07181663" x="40.925781" y="295.723991" style="fill: #ffffff; stroke: #ffffff; stroke-width: 0.8"/>
      </g>
     </g>
     <g id="text_8">
      <text style="font-size: 10px; font-family: sans-serif; text-anchor: end; fill: #ffffff" x="33.925781" y="299.522819" transform="rotate(-0 33.925781 299.522819)">2</text>
     </g>
    </g>
    <g id="ytick_3">
     <g id="line2d_19">
      <path d="M 40.925781 231.753214 
L 598.925781 231.753214 
" clip-path="url(#p5f150b8643)" style="fill: none; stroke-dasharray: 2.96,1.28; stroke-dashoffset: 0; stroke: #ffffff; stroke-opacity: 0.5; stroke-width: 0.8"/>
     </g>
     <g id="line2d_20">
      <g>
       <use xlink:href="#m5e07181663" x="40.925781" y="231.753214" style="fill: #ffffff; stroke: #ffffff; stroke-width: 0.8"/>
      </g>
     </g>
     <g id="text_9">
      <text style="font-size: 10px; font-family: sans-serif; text-anchor: end; fill: #ffffff" x="33.925781" y="235.552043" transform="rotate(-0 33.925781 235.552043)">4</text>
     </g>
    </g>
    <g id="ytick_4">
     <g id="line2d_21">
      <path d="M 40.925781 167.782438 
L 598.925781 167.782438 
" clip-path="url(#p5f150b8643)" style="fill: none; stroke-dasharray: 2.96,1.28; stroke-dashoffset: 0; stroke: #ffffff; stroke-opacity: 0.5; stroke-width: 0.8"/>
     </g>
     <g id="line2d_22">
      <g>
       <use xlink:href="#m5e07181663" x="40.925781" y="167.782438" style="fill: #ffffff; stroke: #ffffff; stroke-width: 0.8"/>
      </g>
     </g>
     <g id="text_10">
      <text style="font-size: 10px; font-family: sans-serif; text-anchor: end; fill: #ffffff" x="33.925781" y="171.581266" transform="rotate(-0 33.925781 171.581266)">6</text>
     </g>
    </g>
    <g id="ytick_5">
     <g id="line2d_23">
      <path d="M 40.925781 103.811661 
L 598.925781 103.811661 
" clip-path="url(#p5f150b8643)" style="fill: none; stroke-dasharray: 2.96,1.28; stroke-dashoffset: 0; stroke: #ffffff; stroke-opacity: 0.5; stroke-width: 0.8"/>
     </g>
     <g id="line2d_24">
      <g>
       <use xlink:href="#m5e07181663" x="40.925781" y="103.811661" style="fill: #ffffff; stroke: #ffffff; stroke-width: 0.8"/>
      </g>
     </g>
     <g id="text_11">
      <text style="font-size: 10px; font-family: sans-serif; text-anchor: end; fill: #ffffff" x="33.925781" y="107.610489" transform="rotate(-0 33.925781 107.610489)">8</text>
     </g>
    </g>
    <g id="ytick_6">
     <g id="line2d_25">
      <path d="M 40.925781 39.840884 
L 598.925781 39.840884 
" clip-path="url(#p5f150b8643)" style="fill: none; stroke-dasharray: 2.96,1.28; stroke-dashoffset: 0; stroke: #ffffff; stroke-opacity: 0.5; stroke-width: 0.8"/>
     </g>
     <g id="line2d_26">
      <g>
       <use xlink:href="#m5e07181663" x="40.925781" y="39.840884" style="fill: #ffffff; stroke: #ffffff; stroke-width: 0.8"/>
      </g>
     </g>
     <g id="text_12">
      <text style="font-size: 10px; font-family: sans-serif; text-anchor: end; fill: #ffffff" x="33.925781" y="43.639712" transform="rotate(-0 33.925781 43.639712)">10</text>
     </g>
    </g>
    <g id="text_13">
     <text style="font-size: 10px; font-family: sans-serif; text-anchor: middle; fill: #ffffff" x="14.798437" y="194.638125" transform="rotate(-90 14.798437 194.638125)">Retardo de grupo [ms]</text>
    </g>
   </g>
   <g id="line2d_27">
    <path d="M 40.925781 324.538018 
L 51.834872 322.797766 
L 61.653054 321.001854 
L 70.380327 319.183896 
L 78.562145 317.251622 
L 86.198509 315.210329 
L 93.289418 313.070502 
L 99.834872 310.84912 
L 105.834872 308.570776 
L 111.289418 306.268342 
L 116.743963 303.715444 
L 121.653054 301.177762 
L 126.562145 298.388657 
L 131.471236 295.326835 
L 136.380327 291.976189 
L 141.289418 288.331063 
L 146.198509 284.404018 
L 152.198509 279.285037 
L 166.380327 266.967786 
L 169.653054 264.465778 
L 172.380327 262.607267 
L 175.107599 261.010563 
L 177.289418 259.955082 
L 179.471236 259.121268 
L 181.653054 258.527541 
L 183.834872 258.187278 
L 186.01669 258.107957 
L 188.198509 258.290629 
L 190.380327 258.729778 
L 192.562145 259.413608 
L 194.743963 260.324698 
L 197.471236 261.749186 
L 200.198509 263.443725 
L 203.471236 265.756364 
L 207.834872 269.157599 
L 223.653054 281.850566 
L 228.562145 285.346253 
L 232.925781 288.183952 
L 237.289418 290.764305 
L 241.653054 293.097051 
L 246.01669 295.199042 
L 250.925781 297.313017 
L 255.834872 299.189948 
L 261.289418 301.031486 
L 267.289418 302.800052 
L 273.289418 304.33657 
L 279.834872 305.784706 
L 286.925781 307.120328 
L 294.562145 308.320609 
L 302.198509 309.299578 
L 310.380327 310.122568 
L 318.562145 310.724016 
L 326.743963 311.108939 
L 334.925781 311.275663 
L 343.107599 311.215941 
L 350.743963 310.942455 
L 358.380327 310.439339 
L 365.471236 309.743114 
L 372.01669 308.87879 
L 378.01669 307.872757 
L 383.471236 306.754103 
L 388.925781 305.410073 
L 393.834872 303.975591 
L 398.198509 302.490851 
L 402.562145 300.773824 
L 406.380327 299.046551 
L 410.198509 297.069338 
L 413.471236 295.137728 
L 416.743963 292.944058 
L 419.471236 290.87739 
L 422.198509 288.551787 
L 424.925781 285.917274 
L 427.653054 282.911244 
L 429.834872 280.187294 
L 432.01669 277.128796 
L 434.198509 273.681767 
L 436.380327 269.787405 
L 438.562145 265.386712 
L 440.743963 260.430054 
L 442.925781 254.894623 
L 445.653054 247.219877 
L 452.198509 227.927978 
L 453.834872 224.063761 
L 454.925781 222.013263 
L 456.01669 220.489482 
L 456.562145 219.949674 
L 457.107599 219.568562 
L 457.653054 219.352192 
L 458.198509 219.304845 
L 458.743963 219.428905 
L 459.289418 219.724779 
L 459.834872 220.19088 
L 460.925781 221.617733 
L 462.01669 223.659735 
L 463.107599 226.243122 
L 464.743963 230.933197 
L 466.925781 238.189945 
L 473.471236 260.803778 
L 475.653054 267.417073 
L 477.834872 273.365604 
L 480.01669 278.665681 
L 482.198509 283.369738 
L 484.380327 287.544028 
L 486.562145 291.256138 
L 488.743963 294.568828 
L 490.925781 297.537546 
L 493.653054 300.836587 
L 496.380327 303.749159 
L 499.107599 306.337082 
L 501.834872 308.649743 
L 505.107599 311.116691 
L 508.380327 313.297752 
L 511.653054 315.234938 
L 515.471236 317.230521 
L 519.289418 318.980194 
L 523.653054 320.719626 
L 528.01669 322.216992 
L 532.925781 323.647837 
L 537.834872 324.840111 
L 542.743963 325.817421 
L 548.198509 326.672152 
L 553.653054 327.299204 
L 559.107599 327.708128 
L 564.562145 327.902145 
L 570.01669 327.878177 
L 575.471236 327.62639 
L 580.380327 327.190633 
L 585.289418 326.536864 
L 589.653054 325.750965 
L 594.01669 324.745716 
L 597.834872 323.659594 
L 598.925781 323.309674 
L 598.925781 323.309674 
" clip-path="url(#p5f150b8643)" style="fill: none; stroke: #1f77b4; stroke-width: 1.5; stroke-linecap: square"/>
   </g>
   <g id="line2d_28">
    <path d="M 40.925781 339.370462 
L 50.743963 337.947328 
L 59.471236 336.457567 
L 67.107599 334.935113 
L 74.198509 333.292357 
L 80.198509 331.689116 
L 85.653054 330.02365 
L 91.107599 328.116508 
L 96.01669 326.148227 
L 100.380327 324.155198 
L 104.198509 322.18556 
L 108.01669 319.964414 
L 111.289418 317.823615 
L 114.562145 315.424245 
L 117.834872 312.719756 
L 120.562145 310.192017 
L 123.289418 307.372739 
L 126.01669 304.21398 
L 128.743963 300.65844 
L 130.925781 297.482799 
L 133.107599 293.968876 
L 135.289418 290.070089 
L 137.471236 285.733795 
L 139.653054 280.901391 
L 141.834872 275.509157 
L 144.01669 269.490398 
L 146.198509 262.779683 
L 148.380327 255.320365 
L 150.562145 247.076907 
L 152.743963 238.053723 
L 155.471236 225.79547 
L 163.653054 187.93501 
L 165.289418 181.936149 
L 166.380327 178.604916 
L 167.471236 175.909414 
L 168.562145 173.921311 
L 169.107599 173.20976 
L 169.653054 172.692911 
L 170.198509 172.373587 
L 170.743963 172.252971 
L 171.289418 172.330571 
L 171.834872 172.604231 
L 172.380327 173.070165 
L 172.925781 173.723034 
L 174.01669 175.561093 
L 175.107599 178.049172 
L 176.198509 181.10215 
L 177.834872 186.531188 
L 180.01669 194.836927 
L 187.107599 222.861885 
L 189.289418 230.337812 
L 191.471236 236.994529 
L 193.653054 242.827388 
L 195.834872 247.881776 
L 198.01669 252.230025 
L 200.198509 255.956067 
L 202.380327 259.145938 
L 204.562145 261.88232 
L 206.743963 264.241664 
L 208.925781 266.292891 
L 211.653054 268.51579 
L 214.380327 270.453902 
L 217.653054 272.520497 
L 222.562145 275.314936 
L 234.562145 281.743624 
L 246.562145 288.04713 
L 252.562145 290.929796 
L 257.471236 293.046611 
L 261.834872 294.709773 
L 266.198509 296.152819 
L 270.562145 297.375002 
L 275.471236 298.499315 
L 280.380327 299.386049 
L 285.834872 300.140616 
L 292.380327 300.812274 
L 302.743963 301.615396 
L 318.01669 302.834836 
L 337.653054 304.504151 
L 343.653054 304.759473 
L 349.107599 304.767976 
L 354.01669 304.549638 
L 358.925781 304.089907 
L 363.289418 303.468667 
L 368.198509 302.534658 
L 373.107599 301.374127 
L 379.107599 299.710794 
L 387.834872 297.019254 
L 402.562145 292.259604 
L 406.925781 290.626336 
L 410.198509 289.188003 
L 412.925781 287.776574 
L 415.653054 286.107015 
L 417.834872 284.542378 
L 420.01669 282.738986 
L 422.198509 280.667162 
L 424.380327 278.302872 
L 426.562145 275.631247 
L 428.743963 272.650485 
L 431.471236 268.514126 
L 434.743963 263.044146 
L 438.562145 256.178338 
L 442.380327 248.872505 
L 444.562145 244.266885 
L 446.198509 240.337565 
L 447.834872 235.685506 
L 448.925781 231.975758 
L 450.01669 227.585678 
L 451.107599 222.304984 
L 452.198509 215.88053 
L 453.289418 208.018788 
L 454.380327 198.401347 
L 455.471236 186.727542 
L 456.562145 172.807754 
L 458.198509 148.071949 
L 460.380327 113.701959 
L 460.925781 106.788302 
L 461.471236 101.344271 
L 462.01669 97.757447 
L 462.562145 96.332533 
L 463.107599 97.244614 
L 463.653054 100.509719 
L 464.198509 105.981378 
L 464.743963 113.374294 
L 465.834872 132.359686 
L 469.653054 205.80782 
L 470.743963 222.602729 
L 471.834872 236.986601 
L 472.925781 249.204729 
L 474.01669 259.566032 
L 475.107599 268.373357 
L 476.198509 275.895028 
L 477.289418 282.357289 
L 478.925781 290.461334 
L 480.562145 297.078069 
L 482.198509 302.560324 
L 483.834872 307.164829 
L 485.471236 311.080098 
L 487.107599 314.446257 
L 488.743963 317.36887 
L 490.380327 319.928573 
L 492.562145 322.882873 
L 494.743963 325.413763 
L 496.925781 327.604186 
L 499.107599 329.516617 
L 501.834872 331.588169 
L 504.562145 333.370574 
L 507.834872 335.201793 
L 511.107599 336.761324 
L 514.925781 338.304512 
L 518.743963 339.606536 
L 523.107599 340.855445 
L 528.01669 342.012823 
L 533.471236 343.049262 
L 539.471236 343.941549 
L 546.01669 344.669195 
L 552.562145 345.17707 
L 559.653054 345.505124 
L 566.743963 345.613664 
L 573.834872 345.498864 
L 580.380327 345.176572 
L 586.380327 344.669862 
L 591.834872 343.997455 
L 596.743963 343.178355 
L 598.925781 342.735562 
L 598.925781 342.735562 
" clip-path="url(#p5f150b8643)" style="fill: none; stroke-dasharray: 5.55,2.4; stroke-dashoffset: 0; stroke: #d62728; stroke-width: 1.5"/>
   </g>
   <g id="line2d_29">
    <path d="M 40.925781 324.050898 
L 50.743963 322.317269 
L 60.01669 320.459407 
L 68.198509 318.60641 
L 75.834872 316.660471 
L 82.925781 314.630428 
L 89.471236 312.529812 
L 95.471236 310.377892 
L 100.925781 308.200618 
L 106.380327 305.776617 
L 111.289418 303.349032 
L 115.653054 300.96476 
L 120.01669 298.336082 
L 124.380327 295.428669 
L 128.198509 292.626027 
L 132.01669 289.553138 
L 135.834872 286.181762 
L 139.653054 282.485059 
L 143.471236 278.441091 
L 147.289418 274.038371 
L 151.107599 269.284161 
L 155.471236 263.470494 
L 162.01669 254.296515 
L 166.925781 247.546198 
L 170.198509 243.434954 
L 172.380327 240.995268 
L 174.562145 238.876971 
L 176.198509 237.539343 
L 177.834872 236.44546 
L 179.471236 235.617204 
L 181.107599 235.071769 
L 182.743963 234.820717 
L 184.380327 234.869297 
L 186.01669 235.216106 
L 187.653054 235.853106 
L 189.289418 236.766028 
L 190.925781 237.935106 
L 192.562145 239.33607 
L 194.743963 241.5167 
L 197.471236 244.644994 
L 200.743963 248.80446 
L 207.834872 258.362935 
L 212.743963 264.756845 
L 216.562145 269.375776 
L 220.380327 273.618762 
L 223.653054 276.944874 
L 226.925781 279.991013 
L 230.198509 282.772772 
L 234.01669 285.710956 
L 237.834872 288.351419 
L 241.653054 290.728491 
L 246.01669 293.163435 
L 250.380327 295.33825 
L 255.289418 297.518785 
L 260.198509 299.458419 
L 265.653054 301.372778 
L 271.653054 303.228655 
L 278.198509 304.998061 
L 284.743963 306.537603 
L 291.834872 307.978514 
L 299.471236 309.295701 
L 307.107599 310.392948 
L 315.289418 311.34352 
L 323.471236 312.074331 
L 331.653054 312.592438 
L 339.834872 312.898947 
L 348.01669 312.988913 
L 356.198509 312.850672 
L 363.834872 312.498447 
L 370.925781 311.956959 
L 377.471236 311.249534 
L 384.01669 310.311818 
L 390.01669 309.214093 
L 395.471236 307.979472 
L 400.380327 306.635455 
L 404.743963 305.216174 
L 408.562145 303.764566 
L 412.380327 302.07622 
L 415.653054 300.402572 
L 418.925781 298.478022 
L 421.653054 296.647844 
L 424.380327 294.577113 
L 427.107599 292.229263 
L 429.834872 289.565636 
L 432.562145 286.549229 
L 435.289418 283.151781 
L 438.01669 279.36595 
L 441.289418 274.360436 
L 449.471236 261.383532 
L 451.107599 259.262245 
L 452.743963 257.529378 
L 453.834872 256.642219 
L 454.925781 256.002619 
L 456.01669 255.634089 
L 457.107599 255.554209 
L 458.198509 255.773444 
L 459.289418 256.294391 
L 460.380327 257.111531 
L 461.471236 258.211542 
L 462.562145 259.574116 
L 464.198509 262.052093 
L 465.834872 264.9572 
L 468.01669 269.299639 
L 472.380327 278.662844 
L 476.198509 286.642045 
L 478.925781 291.888904 
L 481.653054 296.668563 
L 484.380327 300.97113 
L 487.107599 304.8211 
L 489.834872 308.259362 
L 492.562145 311.332175 
L 495.289418 314.085078 
L 498.01669 316.559911 
L 501.289418 319.214396 
L 504.562145 321.575942 
L 507.834872 323.689542 
L 511.653054 325.890834 
L 515.471236 327.851734 
L 519.834872 329.846068 
L 524.743963 331.826969 
L 529.653054 333.575948 
L 535.107599 335.292388 
L 541.107599 336.949939 
L 547.653054 338.528641 
L 554.743963 340.013957 
L 562.925781 341.486876 
L 571.653054 342.822786 
L 581.471236 344.086722 
L 591.834872 345.194164 
L 598.925781 345.838125 
L 598.925781 345.838125 
" clip-path="url(#p5f150b8643)" style="fill: none; stroke-dasharray: 1.5,2.475; stroke-dashoffset: 0; stroke: #2ca02c; stroke-width: 1.5"/>
   </g>
   <g id="line2d_30">
    <path d="M 40.925781 339.737234 
L 50.743963 338.371487 
L 59.471236 336.947193 
L 67.653054 335.385243 
L 74.743963 333.809365 
L 81.289418 332.126427 
L 87.289418 330.345313 
L 92.743963 328.481849 
L 97.653054 326.560551 
L 102.01669 324.616206 
L 105.834872 322.694866 
L 109.653054 320.527254 
L 112.925781 318.435931 
L 116.198509 316.088078 
L 119.471236 313.434752 
L 122.198509 310.946348 
L 124.925781 308.159139 
L 127.653054 305.018867 
L 129.834872 302.207944 
L 132.01669 299.086973 
L 134.198509 295.606494 
L 136.380327 291.70753 
L 138.562145 287.319771 
L 140.743963 282.359631 
L 142.925781 276.728369 
L 145.107599 270.310735 
L 147.289418 262.975024 
L 148.925781 256.783782 
L 150.562145 249.93108 
L 152.743963 239.660777 
L 154.925781 227.992517 
L 157.107599 214.891167 
L 159.289418 200.478756 
L 166.380327 152.002625 
L 167.471236 146.115434 
L 168.562145 141.219826 
L 169.653054 137.507443 
L 170.198509 136.144312 
L 170.743963 135.129597 
L 171.289418 134.473134 
L 171.834872 134.180409 
L 172.380327 134.252374 
L 172.925781 134.685406 
L 173.471236 135.471403 
L 174.01669 136.598026 
L 175.107599 139.804851 
L 176.198509 144.138466 
L 177.289418 149.395304 
L 178.925781 158.529728 
L 182.198509 178.754593 
L 184.925781 195.121585 
L 187.107599 206.897783 
L 189.289418 217.220247 
L 190.925781 223.995219 
L 192.562145 229.987233 
L 194.198509 235.261671 
L 195.834872 239.893384 
L 197.471236 243.959188 
L 199.107599 247.53336 
L 200.743963 250.685162 
L 202.925781 254.338572 
L 205.107599 257.483643 
L 207.289418 260.231258 
L 210.01669 263.245501 
L 212.743963 265.924727 
L 216.01669 268.847798 
L 220.925781 272.891613 
L 228.01669 278.399677 
L 235.107599 283.648764 
L 240.562145 287.433108 
L 245.471236 290.569486 
L 249.834872 293.098781 
L 254.198509 295.361908 
L 258.562145 297.352138 
L 262.925781 299.07575 
L 267.289418 300.549446 
L 271.653054 301.797594 
L 276.562145 302.968981 
L 282.01669 304.035656 
L 288.562145 305.07698 
L 297.834872 306.293681 
L 323.471236 309.313897 
L 332.743963 310.235464 
L 339.834872 310.715882 
L 345.834872 310.890584 
L 351.289418 310.815937 
L 356.198509 310.529481 
L 361.107599 310.01691 
L 366.01669 309.269405 
L 370.925781 308.288719 
L 375.834872 307.088577 
L 381.289418 305.529386 
L 387.834872 303.411438 
L 395.471236 300.699434 
L 402.562145 297.951815 
L 407.471236 295.803568 
L 410.743963 294.160387 
L 414.01669 292.253014 
L 416.743963 290.384321 
L 418.925781 288.653653 
L 421.107599 286.667829 
L 423.289418 284.382178 
L 425.471236 281.75178 
L 427.653054 278.734617 
L 429.834872 275.295973 
L 432.01669 271.41397 
L 434.198509 267.0854 
L 436.925781 261.078017 
L 439.653054 254.480262 
L 442.380327 247.344751 
L 444.562145 241.160977 
L 446.198509 236.061293 
L 447.834872 230.266097 
L 448.925781 225.788306 
L 450.01669 220.581037 
L 451.107599 214.360022 
L 452.198509 206.750914 
L 453.289418 197.273314 
L 454.380327 185.335753 
L 455.471236 170.266429 
L 456.562145 151.434976 
L 457.653054 128.569151 
L 460.925781 53.693795 
L 461.471236 46.705203 
L 462.01669 43.438125 
L 462.562145 44.352178 
L 463.107599 49.49603 
L 463.653054 58.493498 
L 464.743963 85.0138 
L 468.01669 176.634793 
L 469.107599 200.412474 
L 470.198509 220.02385 
L 471.289418 236.073926 
L 472.380327 249.230002 
L 473.471236 260.084955 
L 474.562145 269.122516 
L 475.653054 276.722723 
L 476.743963 283.179467 
L 477.834872 288.719034 
L 479.471236 295.679597 
L 481.107599 301.394358 
L 482.743963 306.16501 
L 484.380327 310.205397 
L 486.01669 313.670224 
L 487.653054 316.673656 
L 489.289418 319.301542 
L 491.471236 322.332563 
L 493.653054 324.928169 
L 495.834872 327.174182 
L 498.01669 329.134951 
L 500.743963 331.258686 
L 503.471236 333.08582 
L 506.198509 334.670951 
L 509.471236 336.311675 
L 512.743963 337.718299 
L 516.562145 339.118093 
L 520.925781 340.459075 
L 525.289418 341.575656 
L 530.198509 342.612917 
L 535.653054 343.541671 
L 541.653054 344.337695 
L 548.198509 344.978588 
L 555.289418 345.439741 
L 562.380327 345.679276 
L 569.471236 345.702914 
L 576.562145 345.500582 
L 583.107599 345.088919 
L 589.107599 344.48644 
L 594.562145 343.708168 
L 598.925781 342.887474 
L 598.925781 342.887474 
" clip-path="url(#p5f150b8643)" style="fill: none; stroke-dasharray: 9.6,2.4,1.5,2.4; stroke-dashoffset: 0; stroke: #9467bd; stroke-width: 1.5"/>
   </g>
   <g id="line2d_31">
    <path d="M 40.925781 297.797548 
L 50.198509 298.346376 
L 60.01669 299.154884 
L 70.380327 300.238857 
L 81.834872 301.669929 
L 95.471236 303.614179 
L 114.562145 306.589681 
L 152.198509 312.490121 
L 170.198509 315.06277 
L 187.107599 317.259118 
L 203.471236 319.1649 
L 219.834872 320.849477 
L 236.198509 322.31163 
L 252.562145 323.549943 
L 268.925781 324.560232 
L 284.743963 325.311807 
L 300.01669 325.81454 
L 314.743963 326.073776 
L 328.380327 326.094352 
L 341.471236 325.888958 
L 353.471236 325.477537 
L 364.380327 324.88777 
L 374.743963 324.104099 
L 384.01669 323.185585 
L 392.743963 322.09954 
L 400.925781 320.850678 
L 408.01669 319.55537 
L 414.562145 318.153728 
L 421.107599 316.520637 
L 427.107599 314.785679 
L 432.562145 312.977623 
L 437.471236 311.132374 
L 442.380327 309.048564 
L 446.743963 306.966316 
L 451.107599 304.636102 
L 454.925781 302.366426 
L 458.743963 299.854178 
L 462.562145 297.071572 
L 466.380327 293.990996 
L 470.198509 290.588962 
L 474.01669 286.853464 
L 477.834872 282.796597 
L 482.743963 277.205784 
L 490.380327 268.442774 
L 493.107599 265.674358 
L 495.289418 263.759005 
L 496.925781 262.550677 
L 498.562145 261.573315 
L 500.198509 260.853686 
L 501.834872 260.411639 
L 503.471236 260.258408 
L 505.107599 260.395561 
L 506.743963 260.814787 
L 508.380327 261.498534 
L 510.01669 262.421431 
L 512.198509 263.969438 
L 514.380327 265.803701 
L 517.653054 268.906546 
L 528.562145 279.615705 
L 531.834872 282.426424 
L 535.107599 284.953972 
L 538.380327 287.190333 
L 541.653054 289.14063 
L 544.925781 290.816298 
L 548.198509 292.230801 
L 551.471236 293.397132 
L 554.743963 294.326403 
L 558.01669 295.027112 
L 561.289418 295.504737 
L 564.562145 295.7615 
L 567.834872 295.796168 
L 571.107599 295.603821 
L 574.380327 295.175562 
L 577.653054 294.498128 
L 580.380327 293.730379 
L 583.107599 292.763916 
L 585.834872 291.582865 
L 588.562145 290.168748 
L 591.289418 288.500891 
L 594.01669 286.557528 
L 596.743963 284.318178 
L 598.925781 282.30337 
L 598.925781 282.30337 
" clip-path="url(#p5f150b8643)" style="fill: none; stroke: #8c564b; stroke-width: 1.5; stroke-linecap: square"/>
   </g>
   <g id="patch_3">
    <path d="M 40.925781 360.958125 
L 40.925781 28.318125 
" style="fill: none; stroke: #ffffff; stroke-width: 0.8; stroke-linejoin: miter; stroke-linecap: square"/>
   </g>
   <g id="patch_4">
    <path d="M 598.925781 360.958125 
L 598.925781 28.318125 
" style="fill: none; stroke: #ffffff; stroke-width: 0.8; stroke-linejoin: miter; stroke-linecap: square"/>
   </g>
   <g id="patch_5">
    <path d="M 40.925781 360.958125 
L 598.925781 360.958125 
" style="fill: none; stroke: #ffffff; stroke-width: 0.8; stroke-linejoin: miter; stroke-linecap: square"/>
   </g>
   <g id="patch_6">
    <path d="M 40.925781 28.318125 
L 598.925781 28.318125 
" style="fill: none; stroke: #ffffff; stroke-width: 0.8; stroke-linejoin: miter; stroke-linecap: square"/>
   </g>
   <g id="text_14">
    <text style="font-weight: 700; font-size: 12px; font-family: sans-serif; text-anchor: middle; fill: #ffffff" x="319.925781" y="16.318125" transform="rotate(-0 319.925781 16.318125)">Comparativa de retardo de grupo (banda de 1 kHz, orden 6)</text>
   </g>
   <g id="legend_1">
    <g id="patch_7">
     <path d="M 495.488281 111.722031 
L 591.925781 111.722031 
Q 593.925781 111.722031 593.925781 109.722031 
L 593.925781 35.318125 
Q 593.925781 33.318125 591.925781 33.318125 
L 495.488281 33.318125 
Q 493.488281 33.318125 493.488281 35.318125 
L 493.488281 109.722031 
Q 493.488281 111.722031 495.488281 111.722031 
z
" style="opacity: 0.8; stroke: #cccccc; stroke-linejoin: miter"/>
    </g>
    <g id="line2d_32">
     <path d="M 497.488281 41.416562 
L 507.488281 41.416562 
L 517.488281 41.416562 
" style="fill: none; stroke: #1f77b4; stroke-width: 1.5; stroke-linecap: square"/>
    </g>
    <g id="text_15">
     <text style="font-size: 10px; font-family: sans-serif; text-anchor: start; fill: #ffffff" x="525.488281" y="44.916562" transform="rotate(-0 525.488281 44.916562)">Butterworth</text>
    </g>
    <g id="line2d_33">
     <path d="M 497.488281 56.417344 
L 507.488281 56.417344 
L 517.488281 56.417344 
" style="fill: none; stroke-dasharray: 5.55,2.4; stroke-dashoffset: 0; stroke: #d62728; stroke-width: 1.5"/>
    </g>
    <g id="text_16">
     <text style="font-size: 10px; font-family: sans-serif; text-anchor: start; fill: #ffffff" x="525.488281" y="59.917344" transform="rotate(-0 525.488281 59.917344)">Chebyshev I</text>
    </g>
    <g id="line2d_34">
     <path d="M 497.488281 71.418125 
L 507.488281 71.418125 
L 517.488281 71.418125 
" style="fill: none; stroke-dasharray: 1.5,2.475; stroke-dashoffset: 0; stroke: #2ca02c; stroke-width: 1.5"/>
    </g>
    <g id="text_17">
     <text style="font-size: 10px; font-family: sans-serif; text-anchor: start; fill: #ffffff" x="525.488281" y="74.918125" transform="rotate(-0 525.488281 74.918125)">Chebyshev II</text>
    </g>
    <g id="line2d_35">
     <path d="M 497.488281 86.818906 
L 507.488281 86.818906 
L 517.488281 86.818906 
" style="fill: none; stroke-dasharray: 9.6,2.4,1.5,2.4; stroke-dashoffset: 0; stroke: #9467bd; stroke-width: 1.5"/>
    </g>
    <g id="text_18">
     <text style="font-size: 10px; font-family: sans-serif; text-anchor: start; fill: #ffffff" x="525.488281" y="90.318906" transform="rotate(-0 525.488281 90.318906)">Elíptico</text>
    </g>
    <g id="line2d_36">
     <path d="M 497.488281 101.819687 
L 507.488281 101.819687 
L 517.488281 101.819687 
" style="fill: none; stroke: #8c564b; stroke-width: 1.5; stroke-linecap: square"/>
    </g>
    <g id="text_19">
     <text style="font-size: 10px; font-family: sans-serif; text-anchor: start; fill: #ffffff" x="525.488281" y="105.319687" transform="rotate(-0 525.488281 105.319687)">Bessel</text>
    </g>
   </g>
  </g>
 </g>
 <defs>
  <clipPath id="p5f150b8643">
   <rect x="40.925781" y="28.318125" width="558" height="332.64"/>
  </clipPath>
 </defs>
</svg>
