<?xml version="1.0" encoding="utf-8" standalone="no"?>
<!DOCTYPE svg PUBLIC "-//W3C//DTD SVG 1.1//EN"
  "http://www.w3.org/Graphics/SVG/1.1/DTD/svg11.dtd">
<svg xmlns:xlink="http://www.w3.org/1999/xlink" width="784.779687pt" height="453.435pt" viewBox="0 0 784.779687 453.435" xmlns="http://www.w3.org/2000/svg" version="1.1">
 <metadata>
  <rdf:RDF xmlns:dc="http://purl.org/dc/elements/1.1/" xmlns:cc="http://creativecommons.org/ns#" xmlns:rdf="http://www.w3.org/1999/02/22-rdf-syntax-ns#">
   <cc:Work>
    <dc:type rdf:resource="http://purl.org/dc/dcmitype/StillImage"/>
    <dc:format>image/svg+xml</dc:format>
    <dc:creator>
     <cc:Agent>
      <dc:title>Matplotlib v3.11.1, https://matplotlib.org/</dc:title>
     </cc:Agent>
    </dc:creator>
   </cc:Work>
  </rdf:RDF>
 </metadata>
 <defs>
  <style type="text/css">*{stroke-linejoin: round; stroke-linecap: butt}</style>
 </defs>
 <g id="figure_1">
  <g id="patch_1">
   <path d="M 0 453.435 
L 784.779687 453.435 
L 784.779687 0 
L 0 0 
z
" style="fill: #ffffff"/>
  </g>
  <g id="axes_1">
   <g id="patch_2">
    <path d="M 49.305469 415.233437 
L 771.503125 415.233437 
L 771.503125 28.318125 
L 49.305469 28.318125 
z
" style="fill: #ffffff"/>
   </g>
   <g id="matplotlib.axis_1">
    <g id="xtick_1">
     <g id="line2d_1">
      <path d="M 87.394772 415.233437 
L 87.394772 28.318125 
" clip-path="url(#pb8f564084a)" style="fill: none; stroke-dasharray: 2.96,1.28; stroke-dashoffset: 0; stroke: #e0e0e0; stroke-opacity: 0.5; stroke-width: 0.8"/>
     </g>
     <g id="line2d_2">
      <defs>
       <path id="m3d27035b55" d="M 0 0 
L 0 3.5 
" style="stroke: #000000; stroke-width: 0.8"/>
      </defs>
      <g>
       <use xlink:href="#m3d27035b55" x="87.394772" y="415.233437" style="stroke: #000000; stroke-width: 0.8"/>
      </g>
     </g>
     <g id="text_1">
      <text style="font-size: 10px; font-family: 'DejaVu Sans', 'Bitstream Vera Sans', 'Computer Modern Sans Serif', 'Lucida Grande', 'Verdana', 'Geneva', 'Lucid', 'Arial', 'Helvetica', 'Avant Garde', sans-serif; text-anchor: middle" x="87.394772" y="429.831094" transform="rotate(-0 87.394772 429.831094)">63</text>
     </g>
    </g>
    <g id="xtick_2">
     <g id="line2d_3">
      <path d="M 200.318476 415.233437 
L 200.318476 28.318125 
" clip-path="url(#pb8f564084a)" style="fill: none; stroke-dasharray: 2.96,1.28; stroke-dashoffset: 0; stroke: #e0e0e0; stroke-opacity: 0.5; stroke-width: 0.8"/>
     </g>
     <g id="line2d_4">
      <g>
       <use xlink:href="#m3d27035b55" x="200.318476" y="415.233437" style="stroke: #000000; stroke-width: 0.8"/>
      </g>
     </g>
     <g id="text_2">
      <text style="font-size: 10px; font-family: 'DejaVu Sans', 'Bitstream Vera Sans', 'Computer Modern Sans Serif', 'Lucida Grande', 'Verdana', 'Geneva', 'Lucid', 'Arial', 'Helvetica', 'Avant Garde', sans-serif; text-anchor: middle" x="200.318476" y="429.831094" transform="rotate(-0 200.318476 429.831094)">125</text>
     </g>
    </g>
    <g id="xtick_3">
     <g id="line2d_5">
      <path d="M 314.555406 415.233437 
L 314.555406 28.318125 
" clip-path="url(#pb8f564084a)" style="fill: none; stroke-dasharray: 2.96,1.28; stroke-dashoffset: 0; stroke: #e0e0e0; stroke-opacity: 0.5; stroke-width: 0.8"/>
     </g>
     <g id="line2d_6">
      <g>
       <use xlink:href="#m3d27035b55" x="314.555406" y="415.233437" style="stroke: #000000; stroke-width: 0.8"/>
      </g>
     </g>
     <g id="text_3">
      <text style="font-size: 10px; font-family: 'DejaVu Sans', 'Bitstream Vera Sans', 'Computer Modern Sans Serif', 'Lucida Grande', 'Verdana', 'Geneva', 'Lucid', 'Arial', 'Helvetica', 'Avant Garde', sans-serif; text-anchor: middle" x="314.555406" y="429.831094" transform="rotate(-0 314.555406 429.831094)">250</text>
     </g>
    </g>
    <g id="xtick_4">
     <g id="line2d_7">
      <path d="M 428.792335 415.233437 
L 428.792335 28.318125 
" clip-path="url(#pb8f564084a)" style="fill: none; stroke-dasharray: 2.96,1.28; stroke-dashoffset: 0; stroke: #e0e0e0; stroke-opacity: 0.5; stroke-width: 0.8"/>
     </g>
     <g id="line2d_8">
      <g>
       <use xlink:href="#m3d27035b55" x="428.792335" y="415.233437" style="stroke: #000000; stroke-width: 0.8"/>
      </g>
     </g>
     <g id="text_4">
      <text style="font-size: 10px; font-family: 'DejaVu Sans', 'Bitstream Vera Sans', 'Computer Modern Sans Serif', 'Lucida Grande', 'Verdana', 'Geneva', 'Lucid', 'Arial', 'Helvetica', 'Avant Garde', sans-serif; text-anchor: middle" x="428.792335" y="429.831094" transform="rotate(-0 428.792335 429.831094)">500</text>
     </g>
    </g>
    <g id="xtick_5">
     <g id="line2d_9">
      <path d="M 543.029265 415.233437 
L 543.029265 28.318125 
" clip-path="url(#pb8f564084a)" style="fill: none; stroke-dasharray: 2.96,1.28; stroke-dashoffset: 0; stroke: #e0e0e0; stroke-opacity: 0.5; stroke-width: 0.8"/>
     </g>
     <g id="line2d_10">
      <g>
       <use xlink:href="#m3d27035b55" x="543.029265" y="415.233437" style="stroke: #000000; stroke-width: 0.8"/>
      </g>
     </g>
     <g id="text_5">
      <text style="font-size: 10px; font-family: 'DejaVu Sans', 'Bitstream Vera Sans', 'Computer Modern Sans Serif', 'Lucida Grande', 'Verdana', 'Geneva', 'Lucid', 'Arial', 'Helvetica', 'Avant Garde', sans-serif; text-anchor: middle" x="543.029265" y="429.831875" transform="rotate(-0 543.029265 429.831875)">1k</text>
     </g>
    </g>
    <g id="xtick_6">
     <g id="line2d_11">
      <path d="M 657.266195 415.233437 
L 657.266195 28.318125 
" clip-path="url(#pb8f564084a)" style="fill: none; stroke-dasharray: 2.96,1.28; stroke-dashoffset: 0; stroke: #e0e0e0; stroke-opacity: 0.5; stroke-width: 0.8"/>
     </g>
     <g id="line2d_12">
      <g>
       <use xlink:href="#m3d27035b55" x="657.266195" y="415.233437" style="stroke: #000000; stroke-width: 0.8"/>
      </g>
     </g>
     <g id="text_6">
      <text style="font-size: 10px; font-family: 'DejaVu Sans', 'Bitstream Vera Sans', 'Computer Modern Sans Serif', 'Lucida Grande', 'Verdana', 'Geneva', 'Lucid', 'Arial', 'Helvetica', 'Avant Garde', sans-serif; text-anchor: middle" x="657.266195" y="429.831875" transform="rotate(-0 657.266195 429.831875)">2k</text>
     </g>
    </g>
    <g id="xtick_7">
     <g id="line2d_13">
      <path d="M 771.503125 415.233437 
L 771.503125 28.318125 
" clip-path="url(#pb8f564084a)" style="fill: none; stroke-dasharray: 2.96,1.28; stroke-dashoffset: 0; stroke: #e0e0e0; stroke-opacity: 0.5; stroke-width: 0.8"/>
     </g>
     <g id="line2d_14">
      <g>
       <use xlink:href="#m3d27035b55" x="771.503125" y="415.233437" style="stroke: #000000; stroke-width: 0.8"/>
      </g>
     </g>
     <g id="text_7">
      <text style="font-size: 10px; font-family: 'DejaVu Sans', 'Bitstream Vera Sans', 'Computer Modern Sans Serif', 'Lucida Grande', 'Verdana', 'Geneva', 'Lucid', 'Arial', 'Helvetica', 'Avant Garde', sans-serif; text-anchor: middle" x="771.503125" y="429.831875" transform="rotate(-0 771.503125 429.831875)">4k</text>
     </g>
    </g>
    <g id="xtick_8">
     <g id="line2d_15">
      <path d="M 49.305469 415.233437 
L 49.305469 28.318125 
" clip-path="url(#pb8f564084a)" style="fill: none; stroke-dasharray: 2.96,1.28; stroke-dashoffset: 0; stroke: #e0e0e0; stroke-opacity: 0.5; stroke-width: 0.8"/>
     </g>
     <g id="line2d_16">
      <defs>
       <path id="md1b22fa4b4" d="M 0 0 
L 0 2 
" style="stroke: #000000; stroke-width: 0.6"/>
      </defs>
      <g>
       <use xlink:href="#md1b22fa4b4" x="49.305469" y="415.233437" style="stroke: #000000; stroke-width: 0.6"/>
      </g>
     </g>
    </g>
    <g id="xtick_9">
     <g id="line2d_17">
      <path d="M 126.766321 415.233437 
L 126.766321 28.318125 
" clip-path="url(#pb8f564084a)" style="fill: none; stroke-dasharray: 2.96,1.28; stroke-dashoffset: 0; stroke: #e0e0e0; stroke-opacity: 0.5; stroke-width: 0.8"/>
     </g>
     <g id="line2d_18">
      <g>
       <use xlink:href="#md1b22fa4b4" x="126.766321" y="415.233437" style="stroke: #000000; stroke-width: 0.6"/>
      </g>
     </g>
    </g>
    <g id="xtick_10">
     <g id="line2d_19">
      <path d="M 163.542399 415.233437 
L 163.542399 28.318125 
" clip-path="url(#pb8f564084a)" style="fill: none; stroke-dasharray: 2.96,1.28; stroke-dashoffset: 0; stroke: #e0e0e0; stroke-opacity: 0.5; stroke-width: 0.8"/>
     </g>
     <g id="line2d_20">
      <g>
       <use xlink:href="#md1b22fa4b4" x="163.542399" y="415.233437" style="stroke: #000000; stroke-width: 0.6"/>
      </g>
     </g>
    </g>
    <g id="xtick_11">
     <g id="line2d_21">
      <path d="M 241.003251 415.233437 
L 241.003251 28.318125 
" clip-path="url(#pb8f564084a)" style="fill: none; stroke-dasharray: 2.96,1.28; stroke-dashoffset: 0; stroke: #e0e0e0; stroke-opacity: 0.5; stroke-width: 0.8"/>
     </g>
     <g id="line2d_22">
      <g>
       <use xlink:href="#md1b22fa4b4" x="241.003251" y="415.233437" style="stroke: #000000; stroke-width: 0.6"/>
      </g>
     </g>
    </g>
    <g id="xtick_12">
     <g id="line2d_23">
      <path d="M 277.779328 415.233437 
L 277.779328 28.318125 
" clip-path="url(#pb8f564084a)" style="fill: none; stroke-dasharray: 2.96,1.28; stroke-dashoffset: 0; stroke: #e0e0e0; stroke-opacity: 0.5; stroke-width: 0.8"/>
     </g>
     <g id="line2d_24">
      <g>
       <use xlink:href="#md1b22fa4b4" x="277.779328" y="415.233437" style="stroke: #000000; stroke-width: 0.6"/>
      </g>
     </g>
    </g>
    <g id="xtick_13">
     <g id="line2d_25">
      <path d="M 352.644709 415.233437 
L 352.644709 28.318125 
" clip-path="url(#pb8f564084a)" style="fill: none; stroke-dasharray: 2.96,1.28; stroke-dashoffset: 0; stroke: #e0e0e0; stroke-opacity: 0.5; stroke-width: 0.8"/>
     </g>
     <g id="line2d_26">
      <g>
       <use xlink:href="#md1b22fa4b4" x="352.644709" y="415.233437" style="stroke: #000000; stroke-width: 0.6"/>
      </g>
     </g>
    </g>
    <g id="xtick_14">
     <g id="line2d_27">
      <path d="M 392.016258 415.233437 
L 392.016258 28.318125 
" clip-path="url(#pb8f564084a)" style="fill: none; stroke-dasharray: 2.96,1.28; stroke-dashoffset: 0; stroke: #e0e0e0; stroke-opacity: 0.5; stroke-width: 0.8"/>
     </g>
     <g id="line2d_28">
      <g>
       <use xlink:href="#md1b22fa4b4" x="392.016258" y="415.233437" style="stroke: #000000; stroke-width: 0.6"/>
      </g>
     </g>
    </g>
    <g id="xtick_15">
     <g id="line2d_29">
      <path d="M 466.881639 415.233437 
L 466.881639 28.318125 
" clip-path="url(#pb8f564084a)" style="fill: none; stroke-dasharray: 2.96,1.28; stroke-dashoffset: 0; stroke: #e0e0e0; stroke-opacity: 0.5; stroke-width: 0.8"/>
     </g>
     <g id="line2d_30">
      <g>
       <use xlink:href="#md1b22fa4b4" x="466.881639" y="415.233437" style="stroke: #000000; stroke-width: 0.6"/>
      </g>
     </g>
    </g>
    <g id="xtick_16">
     <g id="line2d_31">
      <path d="M 506.253188 415.233437 
L 506.253188 28.318125 
" clip-path="url(#pb8f564084a)" style="fill: none; stroke-dasharray: 2.96,1.28; stroke-dashoffset: 0; stroke: #e0e0e0; stroke-opacity: 0.5; stroke-width: 0.8"/>
     </g>
     <g id="line2d_32">
      <g>
       <use xlink:href="#md1b22fa4b4" x="506.253188" y="415.233437" style="stroke: #000000; stroke-width: 0.6"/>
      </g>
     </g>
    </g>
    <g id="xtick_17">
     <g id="line2d_33">
      <path d="M 579.805343 415.233437 
L 579.805343 28.318125 
" clip-path="url(#pb8f564084a)" style="fill: none; stroke-dasharray: 2.96,1.28; stroke-dashoffset: 0; stroke: #e0e0e0; stroke-opacity: 0.5; stroke-width: 0.8"/>
     </g>
     <g id="line2d_34">
      <g>
       <use xlink:href="#md1b22fa4b4" x="579.805343" y="415.233437" style="stroke: #000000; stroke-width: 0.6"/>
      </g>
     </g>
    </g>
    <g id="xtick_18">
     <g id="line2d_35">
      <path d="M 620.490118 415.233437 
L 620.490118 28.318125 
" clip-path="url(#pb8f564084a)" style="fill: none; stroke-dasharray: 2.96,1.28; stroke-dashoffset: 0; stroke: #e0e0e0; stroke-opacity: 0.5; stroke-width: 0.8"/>
     </g>
     <g id="line2d_36">
      <g>
       <use xlink:href="#md1b22fa4b4" x="620.490118" y="415.233437" style="stroke: #000000; stroke-width: 0.6"/>
      </g>
     </g>
    </g>
    <g id="xtick_19">
     <g id="line2d_37">
      <path d="M 694.042272 415.233437 
L 694.042272 28.318125 
" clip-path="url(#pb8f564084a)" style="fill: none; stroke-dasharray: 2.96,1.28; stroke-dashoffset: 0; stroke: #e0e0e0; stroke-opacity: 0.5; stroke-width: 0.8"/>
     </g>
     <g id="line2d_38">
      <g>
       <use xlink:href="#md1b22fa4b4" x="694.042272" y="415.233437" style="stroke: #000000; stroke-width: 0.6"/>
      </g>
     </g>
    </g>
    <g id="xtick_20">
     <g id="line2d_39">
      <path d="M 732.131576 415.233437 
L 732.131576 28.318125 
" clip-path="url(#pb8f564084a)" style="fill: none; stroke-dasharray: 2.96,1.28; stroke-dashoffset: 0; stroke: #e0e0e0; stroke-opacity: 0.5; stroke-width: 0.8"/>
     </g>
     <g id="line2d_40">
      <g>
       <use xlink:href="#md1b22fa4b4" x="732.131576" y="415.233437" style="stroke: #000000; stroke-width: 0.6"/>
      </g>
     </g>
    </g>
    <g id="text_8">
     <text style="font-size: 10px; font-family: 'DejaVu Sans', 'Bitstream Vera Sans', 'Computer Modern Sans Serif', 'Lucida Grande', 'Verdana', 'Geneva', 'Lucid', 'Arial', 'Helvetica', 'Avant Garde', sans-serif; text-anchor: middle" x="410.404297" y="443.832656" transform="rotate(-0 410.404297 443.832656)">Frequency [Hz]</text>
    </g>
   </g>
   <g id="matplotlib.axis_2">
    <g id="ytick_1">
     <g id="line2d_41">
      <path d="M 49.305469 415.233437 
L 771.503125 415.233437 
" clip-path="url(#pb8f564084a)" style="fill: none; stroke-dasharray: 2.96,1.28; stroke-dashoffset: 0; stroke: #e0e0e0; stroke-opacity: 0.5; stroke-width: 0.8"/>
     </g>
     <g id="line2d_42">
      <defs>
       <path id="mef640d9f3a" d="M 0 0 
L -3.5 0 
" style="stroke: #000000; stroke-width: 0.8"/>
      </defs>
      <g>
       <use xlink:href="#mef640d9f3a" x="49.305469" y="415.233437" style="stroke: #000000; stroke-width: 0.8"/>
      </g>
     </g>
     <g id="text_9">
      <text style="font-size: 10px; font-family: 'DejaVu Sans', 'Bitstream Vera Sans', 'Computer Modern Sans Serif', 'Lucida Grande', 'Verdana', 'Geneva', 'Lucid', 'Arial', 'Helvetica', 'Avant Garde', sans-serif; text-anchor: end" x="42.305469" y="419.032266" transform="rotate(-0 42.305469 419.032266)">−20</text>
     </g>
    </g>
    <g id="ytick_2">
     <g id="line2d_43">
      <path d="M 49.305469 346.141417 
L 771.503125 346.141417 
" clip-path="url(#pb8f564084a)" style="fill: none; stroke-dasharray: 2.96,1.28; stroke-dashoffset: 0; stroke: #e0e0e0; stroke-opacity: 0.5; stroke-width: 0.8"/>
     </g>
     <g id="line2d_44">
      <g>
       <use xlink:href="#mef640d9f3a" x="49.305469" y="346.141417" style="stroke: #000000; stroke-width: 0.8"/>
      </g>
     </g>
     <g id="text_10">
      <text style="font-size: 10px; font-family: 'DejaVu Sans', 'Bitstream Vera Sans', 'Computer Modern Sans Serif', 'Lucida Grande', 'Verdana', 'Geneva', 'Lucid', 'Arial', 'Helvetica', 'Avant Garde', sans-serif; text-anchor: end" x="42.305469" y="349.940246" transform="rotate(-0 42.305469 349.940246)">−15</text>
     </g>
    </g>
    <g id="ytick_3">
     <g id="line2d_45">
      <path d="M 49.305469 277.049397 
L 771.503125 277.049397 
" clip-path="url(#pb8f564084a)" style="fill: none; stroke-dasharray: 2.96,1.28; stroke-dashoffset: 0; stroke: #e0e0e0; stroke-opacity: 0.5; stroke-width: 0.8"/>
     </g>
     <g id="line2d_46">
      <g>
       <use xlink:href="#mef640d9f3a" x="49.305469" y="277.049397" style="stroke: #000000; stroke-width: 0.8"/>
      </g>
     </g>
     <g id="text_11">
      <text style="font-size: 10px; font-family: 'DejaVu Sans', 'Bitstream Vera Sans', 'Computer Modern Sans Serif', 'Lucida Grande', 'Verdana', 'Geneva', 'Lucid', 'Arial', 'Helvetica', 'Avant Garde', sans-serif; text-anchor: end" x="42.305469" y="280.848225" transform="rotate(-0 42.305469 280.848225)">−10</text>
     </g>
    </g>
    <g id="ytick_4">
     <g id="line2d_47">
      <path d="M 49.305469 207.957377 
L 771.503125 207.957377 
" clip-path="url(#pb8f564084a)" style="fill: none; stroke-dasharray: 2.96,1.28; stroke-dashoffset: 0; stroke: #e0e0e0; stroke-opacity: 0.5; stroke-width: 0.8"/>
     </g>
     <g id="line2d_48">
      <g>
       <use xlink:href="#mef640d9f3a" x="49.305469" y="207.957377" style="stroke: #000000; stroke-width: 0.8"/>
      </g>
     </g>
     <g id="text_12">
      <text style="font-size: 10px; font-family: 'DejaVu Sans', 'Bitstream Vera Sans', 'Computer Modern Sans Serif', 'Lucida Grande', 'Verdana', 'Geneva', 'Lucid', 'Arial', 'Helvetica', 'Avant Garde', sans-serif; text-anchor: end" x="42.305469" y="211.756205" transform="rotate(-0 42.305469 211.756205)">−5</text>
     </g>
    </g>
    <g id="ytick_5">
     <g id="line2d_49">
      <path d="M 49.305469 138.865357 
L 771.503125 138.865357 
" clip-path="url(#pb8f564084a)" style="fill: none; stroke-dasharray: 2.96,1.28; stroke-dashoffset: 0; stroke: #e0e0e0; stroke-opacity: 0.5; stroke-width: 0.8"/>
     </g>
     <g id="line2d_50">
      <g>
       <use xlink:href="#mef640d9f3a" x="49.305469" y="138.865357" style="stroke: #000000; stroke-width: 0.8"/>
      </g>
     </g>
     <g id="text_13">
      <text style="font-size: 10px; font-family: 'DejaVu Sans', 'Bitstream Vera Sans', 'Computer Modern Sans Serif', 'Lucida Grande', 'Verdana', 'Geneva', 'Lucid', 'Arial', 'Helvetica', 'Avant Garde', sans-serif; text-anchor: end" x="42.305469" y="142.664185" transform="rotate(-0 42.305469 142.664185)">0</text>
     </g>
    </g>
    <g id="ytick_6">
     <g id="line2d_51">
      <path d="M 49.305469 69.773337 
L 771.503125 69.773337 
" clip-path="url(#pb8f564084a)" style="fill: none; stroke-dasharray: 2.96,1.28; stroke-dashoffset: 0; stroke: #e0e0e0; stroke-opacity: 0.5; stroke-width: 0.8"/>
     </g>
     <g id="line2d_52">
      <g>
       <use xlink:href="#mef640d9f3a" x="49.305469" y="69.773337" style="stroke: #000000; stroke-width: 0.8"/>
      </g>
     </g>
     <g id="text_14">
      <text style="font-size: 10px; font-family: 'DejaVu Sans', 'Bitstream Vera Sans', 'Computer Modern Sans Serif', 'Lucida Grande', 'Verdana', 'Geneva', 'Lucid', 'Arial', 'Helvetica', 'Avant Garde', sans-serif; text-anchor: end" x="42.305469" y="73.572165" transform="rotate(-0 42.305469 73.572165)">5</text>
     </g>
    </g>
    <g id="text_15">
     <text style="font-size: 10px; font-family: 'DejaVu Sans', 'Bitstream Vera Sans', 'Computer Modern Sans Serif', 'Lucida Grande', 'Verdana', 'Geneva', 'Lucid', 'Arial', 'Helvetica', 'Avant Garde', sans-serif; text-anchor: middle" x="14.798438" y="221.775781" transform="rotate(-90 14.798438 221.775781)">Level re free field [dB]</text>
    </g>
   </g>
   <g id="line2d_53">
    <path d="M 49.305469 55.954933 
L 771.503125 55.954933 
" clip-path="url(#pb8f564084a)" style="fill: none; stroke-dasharray: 1,1.65; stroke-dashoffset: 0; stroke: #000000; stroke-opacity: 0.7"/>
   </g>
   <g id="line2d_54">
    <path d="M 49.305469 138.865357 
L 771.503125 138.865357 
" clip-path="url(#pb8f564084a)" style="fill: none; stroke: #000000; stroke-opacity: 0.6; stroke-width: 0.8; stroke-linecap: square"/>
   </g>
   <g id="patch_3">
    <path d="M 49.305469 415.233437 
L 49.305469 28.318125 
" style="fill: none; stroke: #000000; stroke-width: 0.8; stroke-linejoin: miter; stroke-linecap: square"/>
   </g>
   <g id="patch_4">
    <path d="M 771.503125 415.233437 
L 771.503125 28.318125 
" style="fill: none; stroke: #000000; stroke-width: 0.8; stroke-linejoin: miter; stroke-linecap: square"/>
   </g>
   <g id="patch_5">
    <path d="M 49.305469 415.233437 
L 771.503125 415.233437 
" style="fill: none; stroke: #000000; stroke-width: 0.8; stroke-linejoin: miter; stroke-linecap: square"/>
   </g>
   <g id="patch_6">
    <path d="M 49.305469 28.318125 
L 771.503125 28.318125 
" style="fill: none; stroke: #000000; stroke-width: 0.8; stroke-linejoin: miter; stroke-linecap: square"/>
   </g>
   <g id="line2d_55">
    <path d="M 49.305469 178.657174 
L 76.455757 193.947839 
L 101.796025 208.137395 
L 116.276179 216.003648 
L 128.946313 222.635154 
L 139.806428 228.072308 
L 148.856524 232.392422 
L 157.90662 236.491543 
L 166.956716 240.342934 
L 176.006812 243.920983 
L 183.246889 246.57037 
L 190.486965 249.0179 
L 197.727042 251.253007 
L 204.967119 253.266139 
L 212.207196 255.04885 
L 219.447272 256.593884 
L 226.687349 257.895237 
L 233.927426 258.948202 
L 241.167503 259.749396 
L 248.407579 260.296765 
L 255.647656 260.589569 
L 262.887733 260.628346 
L 270.12781 260.414866 
L 277.367887 259.952059 
L 284.607963 259.243932 
L 291.84804 258.295485 
L 299.088117 257.112602 
L 306.328194 255.701949 
L 313.56827 254.070864 
L 320.808347 252.227249 
L 328.048424 250.17946 
L 335.288501 247.936209 
L 344.338596 244.870956 
L 353.388692 241.532176 
L 362.438788 237.937892 
L 371.488884 234.10608 
L 380.53898 230.054498 
L 391.399095 224.926957 
L 402.259211 219.537117 
L 413.119326 213.912975 
L 425.78946 207.090961 
L 438.459594 200.026676 
L 452.939748 191.705197 
L 469.229921 182.090937 
L 489.140132 170.077452 
L 521.720477 150.103072 
L 554.300822 130.207104 
L 572.401014 119.401811 
L 586.881168 110.984434 
L 599.551302 103.84379 
L 612.221436 96.969084 
L 623.081552 91.335315 
L 632.131647 86.857493 
L 641.181743 82.608931 
L 650.231839 78.623941 
L 657.471916 75.651915 
L 664.711993 72.896381 
L 671.95207 70.382976 
L 679.192146 68.140664 
L 684.622204 66.656459 
L 690.052262 65.358722 
L 695.482319 64.264707 
L 700.912377 63.393616 
L 706.342434 62.7669 
L 711.772492 62.408632 
L 717.202549 62.34596 
L 720.822588 62.483431 
L 724.442626 62.776028 
L 728.062664 63.234873 
L 731.682703 63.87218 
L 735.302741 64.701411 
L 738.92278 65.737459 
L 742.542818 66.996861 
L 746.162856 68.498069 
L 749.782895 70.261765 
L 753.402933 72.31125 
L 757.022971 74.672933 
L 760.64301 77.376931 
L 764.263048 80.457832 
L 767.883087 83.955665 
L 771.503125 87.91716 
L 771.503125 87.91716 
" clip-path="url(#pb8f564084a)" style="fill: none; stroke: #2ca02c; stroke-width: 1.8; stroke-linecap: square"/>
   </g>
   <g id="line2d_56">
    <path d="M 49.305469 103.236865 
L 61.975603 106.922236 
L 74.645737 110.813582 
L 89.125891 115.509167 
L 103.606044 120.460331 
L 118.086198 125.651063 
L 134.376371 131.747384 
L 152.476562 138.784508 
L 176.006812 148.206675 
L 212.207196 162.735803 
L 228.497368 169.008749 
L 241.167503 173.654549 
L 252.027618 177.419311 
L 262.887733 180.938777 
L 271.937829 183.653963 
L 280.987925 186.14598 
L 290.038021 188.392223 
L 299.088117 190.371528 
L 306.328194 191.749716 
L 313.56827 192.935749 
L 320.808347 193.921728 
L 328.048424 194.700851 
L 335.288501 195.267479 
L 342.528577 195.617198 
L 349.768654 195.746847 
L 357.008731 195.654532 
L 364.248808 195.339622 
L 371.488884 194.802718 
L 378.728961 194.04561 
L 385.969038 193.071214 
L 393.209115 191.883497 
L 400.449191 190.487394 
L 407.689268 188.888711 
L 414.929345 187.09403 
L 422.169422 185.110607 
L 431.219518 182.377888 
L 440.269613 179.378859 
L 449.319709 176.130748 
L 458.369805 172.651437 
L 467.419901 168.95925 
L 478.280016 164.273817 
L 489.140132 159.340972 
L 501.810266 153.316482 
L 514.4804 147.050559 
L 530.770573 138.721749 
L 552.490803 127.31499 
L 592.311225 106.336007 
L 606.791379 98.968719 
L 619.461513 92.761471 
L 630.321628 87.680548 
L 639.371724 83.657757 
L 648.42182 79.865806 
L 657.471916 76.345786 
L 664.711993 73.756705 
L 671.95207 71.398372 
L 679.192146 69.301053 
L 684.622204 67.919745 
L 690.052262 66.720488 
L 695.482319 65.721074 
L 700.912377 64.941252 
L 706.342434 64.403036 
L 711.772492 64.131086 
L 717.202549 64.153175 
L 720.822588 64.346618 
L 724.442626 64.695009 
L 728.062664 65.209699 
L 731.682703 65.903154 
L 735.302741 66.789112 
L 738.92278 67.882766 
L 742.542818 69.200995 
L 746.162856 70.762631 
L 749.782895 72.58879 
L 753.402933 74.703276 
L 757.022971 77.133078 
L 760.64301 79.908997 
L 764.263048 83.066435 
L 767.883087 86.6464 
L 771.503125 90.696816 
L 771.503125 90.696816 
" clip-path="url(#pb8f564084a)" style="fill: none; stroke: #9467bd; stroke-width: 1.8; stroke-linecap: square"/>
   </g>
   <g id="line2d_57">
    <path d="M 49.305469 74.144717 
L 67.405661 76.408853 
L 85.505853 78.910178 
L 101.796025 81.375919 
L 118.086198 84.054103 
L 134.376371 86.951425 
L 150.666543 90.07167 
L 166.956716 93.414782 
L 183.246889 96.975789 
L 201.347081 101.174282 
L 219.447272 105.60181 
L 241.167503 111.160127 
L 273.747848 119.77995 
L 302.708155 127.364821 
L 318.998328 131.417648 
L 333.478481 134.790409 
L 346.148616 137.502362 
L 357.008731 139.607573 
L 367.868846 141.475422 
L 376.918942 142.827263 
L 385.969038 143.973835 
L 395.019134 144.89829 
L 404.06923 145.585213 
L 413.119326 146.020956 
L 422.169422 146.193938 
L 431.219518 146.094911 
L 438.459594 145.815254 
L 445.699671 145.354986 
L 452.939748 144.713064 
L 460.179825 143.889603 
L 469.229921 142.607037 
L 478.280016 141.047875 
L 487.330112 139.219787 
L 496.380208 137.132982 
L 505.430304 134.80003 
L 514.4804 132.235666 
L 523.530496 129.456587 
L 534.390611 125.864376 
L 545.250726 122.024541 
L 557.920861 117.282394 
L 572.401014 111.596526 
L 592.311225 103.501228 
L 619.461513 92.452 
L 632.131647 87.511599 
L 642.991763 83.495163 
L 652.041859 80.358922 
L 661.091954 77.466068 
L 668.332031 75.363563 
L 675.572108 73.483041 
L 682.812185 71.859422 
L 688.242242 70.833708 
L 693.6723 69.992873 
L 699.102357 69.357227 
L 704.532415 68.949288 
L 709.962473 68.794154 
L 715.39253 68.919961 
L 720.822588 69.358452 
L 724.442626 69.842093 
L 728.062664 70.492542 
L 731.682703 71.322886 
L 735.302741 72.347545 
L 738.92278 73.582472 
L 742.542818 75.045392 
L 746.162856 76.756097 
L 749.782895 78.736796 
L 753.402933 81.012554 
L 757.022971 83.611827 
L 760.64301 86.56714 
L 764.263048 89.915944 
L 767.883087 93.701707 
L 771.503125 97.975344 
L 771.503125 97.975344 
" clip-path="url(#pb8f564084a)" style="fill: none; stroke: #1f77b4; stroke-width: 1.8; stroke-linecap: square"/>
   </g>
   <g id="line2d_58">
    <path d="M 49.305469 56.427192 
L 123.516255 56.901477 
L 181.43687 57.485248 
L 230.307388 58.198122 
L 270.12781 58.989309 
L 306.328194 59.930742 
L 337.09852 60.949353 
L 364.248808 62.062477 
L 387.779057 63.23162 
L 409.499287 64.519626 
L 429.409498 65.915968 
L 447.50969 67.402815 
L 463.799863 68.953904 
L 478.280016 70.533883 
L 492.76017 72.337428 
L 505.430304 74.130255 
L 518.100439 76.157245 
L 528.960554 78.110278 
L 539.820669 80.292785 
L 548.870765 82.311322 
L 557.920861 84.5359 
L 566.970957 86.993135 
L 576.021053 89.713874 
L 583.261129 92.104124 
L 590.501206 94.70702 
L 597.741283 97.546603 
L 604.98136 100.650317 
L 612.221436 104.049611 
L 617.651494 106.814628 
L 623.081552 109.783461 
L 628.511609 112.975455 
L 633.941667 116.412291 
L 639.371724 120.118332 
L 644.801782 124.121028 
L 650.231839 128.451372 
L 655.661897 133.144427 
L 661.091954 138.239895 
L 666.522012 143.782706 
L 670.14205 147.751221 
L 673.762089 151.957482 
L 677.382127 156.41922 
L 681.002166 161.155299 
L 684.622204 166.185518 
L 688.242242 171.53021 
L 691.862281 177.209524 
L 695.482319 183.242194 
L 699.102357 189.643502 
L 702.722396 196.421972 
L 706.342434 203.57411 
L 711.772492 214.942535 
L 726.252645 246.150469 
L 728.062664 249.526141 
L 729.872684 252.588737 
L 731.682703 255.259769 
L 733.492722 257.459046 
L 735.302741 259.109707 
L 737.11276 260.144237 
L 738.92278 260.51073 
L 740.732799 260.178317 
L 742.542818 259.140655 
L 744.352837 257.416711 
L 746.162856 255.048639 
L 747.972876 252.097252 
L 749.782895 248.636062 
L 751.592914 244.745014 
L 755.212952 235.992771 
L 758.832991 226.426862 
L 771.503125 192.070627 
L 771.503125 192.070627 
" clip-path="url(#pb8f564084a)" style="fill: none; stroke: #d62728; stroke-width: 1.8; stroke-linecap: square"/>
   </g>
   <g id="text_16">
    <text style="font-weight: 700; font-size: 12px; font-family: 'DejaVu Sans', 'Bitstream Vera Sans', 'Computer Modern Sans Serif', 'Lucida Grande', 'Verdana', 'Geneva', 'Lucid', 'Arial', 'Helvetica', 'Avant Garde', sans-serif; text-anchor: middle" x="410.404297" y="16.318125" transform="rotate(-0 410.404297 16.318125)">Spherical-Wave Ground Effect (Weyl-Van der Pol)</text>
   </g>
   <g id="legend_1">
    <g id="patch_7">
     <path d="M 55.605469 410.733437 
L 205.731094 410.733437 
Q 207.531094 410.733437 207.531094 408.933438 
L 207.531094 342.329922 
Q 207.531094 340.529922 205.731094 340.529922 
L 55.605469 340.529922 
Q 53.805469 340.529922 53.805469 342.329922 
L 53.805469 408.933438 
Q 53.805469 410.733437 55.605469 410.733437 
z
" style="fill: #ffffff; opacity: 0.8; stroke: #cccccc; stroke-linejoin: miter"/>
    </g>
    <g id="line2d_59">
     <path d="M 57.405469 347.818516 
L 66.405469 347.818516 
L 75.405469 347.818516 
" style="fill: none; stroke: #2ca02c; stroke-width: 1.8; stroke-linecap: square"/>
    </g>
    <g id="text_17">
     <text style="font-size: 9px; font-family: 'DejaVu Sans', 'Bitstream Vera Sans', 'Computer Modern Sans Serif', 'Lucida Grande', 'Verdana', 'Geneva', 'Lucid', 'Arial', 'Helvetica', 'Avant Garde', sans-serif; text-anchor: start" x="82.605469" y="350.968516" transform="rotate(-0 82.605469 350.968516)">Fresh snow (10 kPa·s·m⁻²)</text>
    </g>
    <g id="line2d_60">
     <path d="M 57.405469 361.319219 
L 66.405469 361.319219 
L 75.405469 361.319219 
" style="fill: none; stroke: #9467bd; stroke-width: 1.8; stroke-linecap: square"/>
    </g>
    <g id="text_18">
     <text style="font-size: 9px; font-family: 'DejaVu Sans', 'Bitstream Vera Sans', 'Computer Modern Sans Serif', 'Lucida Grande', 'Verdana', 'Geneva', 'Lucid', 'Arial', 'Helvetica', 'Avant Garde', sans-serif; text-anchor: start" x="82.605469" y="364.469219" transform="rotate(-0 82.605469 364.469219)">Forest floor (50 kPa·s·m⁻²)</text>
    </g>
    <g id="line2d_61">
     <path d="M 57.405469 374.819922 
L 66.405469 374.819922 
L 75.405469 374.819922 
" style="fill: none; stroke: #1f77b4; stroke-width: 1.8; stroke-linecap: square"/>
    </g>
    <g id="text_19">
     <text style="font-size: 9px; font-family: 'DejaVu Sans', 'Bitstream Vera Sans', 'Computer Modern Sans Serif', 'Lucida Grande', 'Verdana', 'Geneva', 'Lucid', 'Arial', 'Helvetica', 'Avant Garde', sans-serif; text-anchor: start" x="82.605469" y="377.969922" transform="rotate(-0 82.605469 377.969922)">Grassland (200 kPa·s·m⁻²)</text>
    </g>
    <g id="line2d_62">
     <path d="M 57.405469 388.320625 
L 66.405469 388.320625 
L 75.405469 388.320625 
" style="fill: none; stroke: #d62728; stroke-width: 1.8; stroke-linecap: square"/>
    </g>
    <g id="text_20">
     <text style="font-size: 9px; font-family: 'DejaVu Sans', 'Bitstream Vera Sans', 'Computer Modern Sans Serif', 'Lucida Grande', 'Verdana', 'Geneva', 'Lucid', 'Arial', 'Helvetica', 'Avant Garde', sans-serif; text-anchor: start" x="82.605469" y="391.470625" transform="rotate(-0 82.605469 391.470625)">Asphalt (20 000 kPa·s·m⁻²)</text>
    </g>
    <g id="line2d_63">
     <path d="M 57.405469 401.821328 
L 66.405469 401.821328 
L 75.405469 401.821328 
" style="fill: none; stroke-dasharray: 1,1.65; stroke-dashoffset: 0; stroke: #000000; stroke-opacity: 0.7"/>
    </g>
    <g id="text_21">
     <text style="font-size: 9px; font-family: 'DejaVu Sans', 'Bitstream Vera Sans', 'Computer Modern Sans Serif', 'Lucida Grande', 'Verdana', 'Geneva', 'Lucid', 'Arial', 'Helvetica', 'Avant Garde', sans-serif; text-anchor: start" x="82.605469" y="404.971328" transform="rotate(-0 82.605469 404.971328)">Hard-ground limit (+6 dB)</text>
    </g>
   </g>
  </g>
 </g>
 <defs>
  <clipPath id="pb8f564084a">
   <rect x="49.305469" y="28.318125" width="722.197656" height="386.915313"/>
  </clipPath>
 </defs>
</svg>
