<?xml version="1.0" encoding="utf-8" standalone="no"?>
<!DOCTYPE svg PUBLIC "-//W3C//DTD SVG 1.1//EN"
  "http://www.w3.org/Graphics/SVG/1.1/DTD/svg11.dtd">
<svg xmlns:xlink="http://www.w3.org/1999/xlink" width="784.779687pt" height="453.435pt" viewBox="0 0 784.779687 453.435" xmlns="http://www.w3.org/2000/svg" version="1.1">
 <metadata>
  <rdf:RDF xmlns:dc="http://purl.org/dc/elements/1.1/" xmlns:cc="http://creativecommons.org/ns#" xmlns:rdf="http://www.w3.org/1999/02/22-rdf-syntax-ns#">
   <cc:Work>
    <dc:type rdf:resource="http://purl.org/dc/dcmitype/StillImage"/>
    <dc:format>image/svg+xml</dc:format>
    <dc:creator>
     <cc:Agent>
      <dc:title>Matplotlib v3.11.1, https://matplotlib.org/</dc:title>
     </cc:Agent>
    </dc:creator>
   </cc:Work>
  </rdf:RDF>
 </metadata>
 <defs>
  <style type="text/css">*{stroke-linejoin: round; stroke-linecap: butt}</style>
 </defs>
 <g id="figure_1">
  <g id="patch_1">
   <path d="M 0 453.435 
L 784.779687 453.435 
L 784.779687 0 
L 0 0 
z
"/>
  </g>
  <g id="axes_1">
   <g id="patch_2">
    <path d="M 49.305469 415.233437 
L 771.503125 415.233437 
L 771.503125 28.318125 
L 49.305469 28.318125 
z
"/>
   </g>
   <g id="matplotlib.axis_1">
    <g id="xtick_1">
     <g id="line2d_1">
      <path d="M 87.394772 415.233437 
L 87.394772 28.318125 
" clip-path="url(#pb8f564084a)" style="fill: none; stroke-dasharray: 2.96,1.28; stroke-dashoffset: 0; stroke: #555555; stroke-opacity: 0.5; stroke-width: 0.8"/>
     </g>
     <g id="line2d_2">
      <defs>
       <path id="m8d14ee1197" d="M 0 0 
L 0 3.5 
" style="stroke: #ffffff; stroke-width: 0.8"/>
      </defs>
      <g>
       <use xlink:href="#m8d14ee1197" x="87.394772" y="415.233437" style="fill: #ffffff; stroke: #ffffff; stroke-width: 0.8"/>
      </g>
     </g>
     <g id="text_1">
      <text style="font-size: 10px; font-family: 'DejaVu Sans', 'Bitstream Vera Sans', 'Computer Modern Sans Serif', 'Lucida Grande', 'Verdana', 'Geneva', 'Lucid', 'Arial', 'Helvetica', 'Avant Garde', sans-serif; text-anchor: middle; fill: #ffffff" x="87.394772" y="429.831094" transform="rotate(-0 87.394772 429.831094)">63</text>
     </g>
    </g>
    <g id="xtick_2">
     <g id="line2d_3">
      <path d="M 200.318476 415.233437 
L 200.318476 28.318125 
" clip-path="url(#pb8f564084a)" style="fill: none; stroke-dasharray: 2.96,1.28; stroke-dashoffset: 0; stroke: #555555; stroke-opacity: 0.5; stroke-width: 0.8"/>
     </g>
     <g id="line2d_4">
      <g>
       <use xlink:href="#m8d14ee1197" x="200.318476" y="415.233437" style="fill: #ffffff; stroke: #ffffff; stroke-width: 0.8"/>
      </g>
     </g>
     <g id="text_2">
      <text style="font-size: 10px; font-family: 'DejaVu Sans', 'Bitstream Vera Sans', 'Computer Modern Sans Serif', 'Lucida Grande', 'Verdana', 'Geneva', 'Lucid', 'Arial', 'Helvetica', 'Avant Garde', sans-serif; text-anchor: middle; fill: #ffffff" x="200.318476" y="429.831094" transform="rotate(-0 200.318476 429.831094)">125</text>
     </g>
    </g>
    <g id="xtick_3">
     <g id="line2d_5">
      <path d="M 314.555406 415.233437 
L 314.555406 28.318125 
" clip-path="url(#pb8f564084a)" style="fill: none; stroke-dasharray: 2.96,1.28; stroke-dashoffset: 0; stroke: #555555; stroke-opacity: 0.5; stroke-width: 0.8"/>
     </g>
     <g id="line2d_6">
      <g>
       <use xlink:href="#m8d14ee1197" x="314.555406" y="415.233437" style="fill: #ffffff; stroke: #ffffff; stroke-width: 0.8"/>
      </g>
     </g>
     <g id="text_3">
      <text style="font-size: 10px; font-family: 'DejaVu Sans', 'Bitstream Vera Sans', 'Computer Modern Sans Serif', 'Lucida Grande', 'Verdana', 'Geneva', 'Lucid', 'Arial', 'Helvetica', 'Avant Garde', sans-serif; text-anchor: middle; fill: #ffffff" x="314.555406" y="429.831094" transform="rotate(-0 314.555406 429.831094)">250</text>
     </g>
    </g>
    <g id="xtick_4">
     <g id="line2d_7">
      <path d="M 428.792335 415.233437 
L 428.792335 28.318125 
" clip-path="url(#pb8f564084a)" style="fill: none; stroke-dasharray: 2.96,1.28; stroke-dashoffset: 0; stroke: #555555; stroke-opacity: 0.5; stroke-width: 0.8"/>
     </g>
     <g id="line2d_8">
      <g>
       <use xlink:href="#m8d14ee1197" x="428.792335" y="415.233437" style="fill: #ffffff; stroke: #ffffff; stroke-width: 0.8"/>
      </g>
     </g>
     <g id="text_4">
      <text style="font-size: 10px; font-family: 'DejaVu Sans', 'Bitstream Vera Sans', 'Computer Modern Sans Serif', 'Lucida Grande', 'Verdana', 'Geneva', 'Lucid', 'Arial', 'Helvetica', 'Avant Garde', sans-serif; text-anchor: middle; fill: #ffffff" x="428.792335" y="429.831094" transform="rotate(-0 428.792335 429.831094)">500</text>
     </g>
    </g>
    <g id="xtick_5">
     <g id="line2d_9">
      <path d="M 543.029265 415.233437 
L 543.029265 28.318125 
" clip-path="url(#pb8f564084a)" style="fill: none; stroke-dasharray: 2.96,1.28; stroke-dashoffset: 0; stroke: #555555; stroke-opacity: 0.5; stroke-width: 0.8"/>
     </g>
     <g id="line2d_10">
      <g>
       <use xlink:href="#m8d14ee1197" x="543.029265" y="415.233437" style="fill: #ffffff; stroke: #ffffff; stroke-width: 0.8"/>
      </g>
     </g>
     <g id="text_5">
      <text style="font-size: 10px; font-family: 'DejaVu Sans', 'Bitstream Vera Sans', 'Computer Modern Sans Serif', 'Lucida Grande', 'Verdana', 'Geneva', 'Lucid', 'Arial', 'Helvetica', 'Avant Garde', sans-serif; text-anchor: middle; fill: #ffffff" x="543.029265" y="429.831875" transform="rotate(-0 543.029265 429.831875)">1k</text>
     </g>
    </g>
    <g id="xtick_6">
     <g id="line2d_11">
      <path d="M 657.266195 415.233437 
L 657.266195 28.318125 
" clip-path="url(#pb8f564084a)" style="fill: none; stroke-dasharray: 2.96,1.28; stroke-dashoffset: 0; stroke: #555555; stroke-opacity: 0.5; stroke-width: 0.8"/>
     </g>
     <g id="line2d_12">
      <g>
       <use xlink:href="#m8d14ee1197" x="657.266195" y="415.233437" style="fill: #ffffff; stroke: #ffffff; stroke-width: 0.8"/>
      </g>
     </g>
     <g id="text_6">
      <text style="font-size: 10px; font-family: 'DejaVu Sans', 'Bitstream Vera Sans', 'Computer Modern Sans Serif', 'Lucida Grande', 'Verdana', 'Geneva', 'Lucid', 'Arial', 'Helvetica', 'Avant Garde', sans-serif; text-anchor: middle; fill: #ffffff" x="657.266195" y="429.831875" transform="rotate(-0 657.266195 429.831875)">2k</text>
     </g>
    </g>
    <g id="xtick_7">
     <g id="line2d_13">
      <path d="M 771.503125 415.233437 
L 771.503125 28.318125 
" clip-path="url(#pb8f564084a)" style="fill: none; stroke-dasharray: 2.96,1.28; stroke-dashoffset: 0; stroke: #555555; stroke-opacity: 0.5; stroke-width: 0.8"/>
     </g>
     <g id="line2d_14">
      <g>
       <use xlink:href="#m8d14ee1197" x="771.503125" y="415.233437" style="fill: #ffffff; stroke: #ffffff; stroke-width: 0.8"/>
      </g>
     </g>
     <g id="text_7">
      <text style="font-size: 10px; font-family: 'DejaVu Sans', 'Bitstream Vera Sans', 'Computer Modern Sans Serif', 'Lucida Grande', 'Verdana', 'Geneva', 'Lucid', 'Arial', 'Helvetica', 'Avant Garde', sans-serif; text-anchor: middle; fill: #ffffff" x="771.503125" y="429.831875" transform="rotate(-0 771.503125 429.831875)">4k</text>
     </g>
    </g>
    <g id="xtick_8">
     <g id="line2d_15">
      <path d="M 49.305469 415.233437 
L 49.305469 28.318125 
" clip-path="url(#pb8f564084a)" style="fill: none; stroke-dasharray: 2.96,1.28; stroke-dashoffset: 0; stroke: #555555; stroke-opacity: 0.5; stroke-width: 0.8"/>
     </g>
     <g id="line2d_16">
      <defs>
       <path id="m1caa325441" d="M 0 0 
L 0 2 
" style="stroke: #ffffff; stroke-width: 0.6"/>
      </defs>
      <g>
       <use xlink:href="#m1caa325441" x="49.305469" y="415.233437" style="fill: #ffffff; stroke: #ffffff; stroke-width: 0.6"/>
      </g>
     </g>
    </g>
    <g id="xtick_9">
     <g id="line2d_17">
      <path d="M 126.766321 415.233437 
L 126.766321 28.318125 
" clip-path="url(#pb8f564084a)" style="fill: none; stroke-dasharray: 2.96,1.28; stroke-dashoffset: 0; stroke: #555555; stroke-opacity: 0.5; stroke-width: 0.8"/>
     </g>
     <g id="line2d_18">
      <g>
       <use xlink:href="#m1caa325441" x="126.766321" y="415.233437" style="fill: #ffffff; stroke: #ffffff; stroke-width: 0.6"/>
      </g>
     </g>
    </g>
    <g id="xtick_10">
     <g id="line2d_19">
      <path d="M 163.542399 415.233437 
L 163.542399 28.318125 
" clip-path="url(#pb8f564084a)" style="fill: none; stroke-dasharray: 2.96,1.28; stroke-dashoffset: 0; stroke: #555555; stroke-opacity: 0.5; stroke-width: 0.8"/>
     </g>
     <g id="line2d_20">
      <g>
       <use xlink:href="#m1caa325441" x="163.542399" y="415.233437" style="fill: #ffffff; stroke: #ffffff; stroke-width: 0.6"/>
      </g>
     </g>
    </g>
    <g id="xtick_11">
     <g id="line2d_21">
      <path d="M 241.003251 415.233437 
L 241.003251 28.318125 
" clip-path="url(#pb8f564084a)" style="fill: none; stroke-dasharray: 2.96,1.28; stroke-dashoffset: 0; stroke: #555555; stroke-opacity: 0.5; stroke-width: 0.8"/>
     </g>
     <g id="line2d_22">
      <g>
       <use xlink:href="#m1caa325441" x="241.003251" y="415.233437" style="fill: #ffffff; stroke: #ffffff; stroke-width: 0.6"/>
      </g>
     </g>
    </g>
    <g id="xtick_12">
     <g id="line2d_23">
      <path d="M 277.779328 415.233437 
L 277.779328 28.318125 
" clip-path="url(#pb8f564084a)" style="fill: none; stroke-dasharray: 2.96,1.28; stroke-dashoffset: 0; stroke: #555555; stroke-opacity: 0.5; stroke-width: 0.8"/>
     </g>
     <g id="line2d_24">
      <g>
       <use xlink:href="#m1caa325441" x="277.779328" y="415.233437" style="fill: #ffffff; stroke: #ffffff; stroke-width: 0.6"/>
      </g>
     </g>
    </g>
    <g id="xtick_13">
     <g id="line2d_25">
      <path d="M 352.644709 415.233437 
L 352.644709 28.318125 
" clip-path="url(#pb8f564084a)" style="fill: none; stroke-dasharray: 2.96,1.28; stroke-dashoffset: 0; stroke: #555555; stroke-opacity: 0.5; stroke-width: 0.8"/>
     </g>
     <g id="line2d_26">
      <g>
       <use xlink:href="#m1caa325441" x="352.644709" y="415.233437" style="fill: #ffffff; stroke: #ffffff; stroke-width: 0.6"/>
      </g>
     </g>
    </g>
    <g id="xtick_14">
     <g id="line2d_27">
      <path d="M 392.016258 415.233437 
L 392.016258 28.318125 
" clip-path="url(#pb8f564084a)" style="fill: none; stroke-dasharray: 2.96,1.28; stroke-dashoffset: 0; stroke: #555555; stroke-opacity: 0.5; stroke-width: 0.8"/>
     </g>
     <g id="line2d_28">
      <g>
       <use xlink:href="#m1caa325441" x="392.016258" y="415.233437" style="fill: #ffffff; stroke: #ffffff; stroke-width: 0.6"/>
      </g>
     </g>
    </g>
    <g id="xtick_15">
     <g id="line2d_29">
      <path d="M 466.881639 415.233437 
L 466.881639 28.318125 
" clip-path="url(#pb8f564084a)" style="fill: none; stroke-dasharray: 2.96,1.28; stroke-dashoffset: 0; stroke: #555555; stroke-opacity: 0.5; stroke-width: 0.8"/>
     </g>
     <g id="line2d_30">
      <g>
       <use xlink:href="#m1caa325441" x="466.881639" y="415.233437" style="fill: #ffffff; stroke: #ffffff; stroke-width: 0.6"/>
      </g>
     </g>
    </g>
    <g id="xtick_16">
     <g id="line2d_31">
      <path d="M 506.253188 415.233437 
L 506.253188 28.318125 
" clip-path="url(#pb8f564084a)" style="fill: none; stroke-dasharray: 2.96,1.28; stroke-dashoffset: 0; stroke: #555555; stroke-opacity: 0.5; stroke-width: 0.8"/>
     </g>
     <g id="line2d_32">
      <g>
       <use xlink:href="#m1caa325441" x="506.253188" y="415.233437" style="fill: #ffffff; stroke: #ffffff; stroke-width: 0.6"/>
      </g>
     </g>
    </g>
    <g id="xtick_17">
     <g id="line2d_33">
      <path d="M 579.805343 415.233437 
L 579.805343 28.318125 
" clip-path="url(#pb8f564084a)" style="fill: none; stroke-dasharray: 2.96,1.28; stroke-dashoffset: 0; stroke: #555555; stroke-opacity: 0.5; stroke-width: 0.8"/>
     </g>
     <g id="line2d_34">
      <g>
       <use xlink:href="#m1caa325441" x="579.805343" y="415.233437" style="fill: #ffffff; stroke: #ffffff; stroke-width: 0.6"/>
      </g>
     </g>
    </g>
    <g id="xtick_18">
     <g id="line2d_35">
      <path d="M 620.490118 415.233437 
L 620.490118 28.318125 
" clip-path="url(#pb8f564084a)" style="fill: none; stroke-dasharray: 2.96,1.28; stroke-dashoffset: 0; stroke: #555555; stroke-opacity: 0.5; stroke-width: 0.8"/>
     </g>
     <g id="line2d_36">
      <g>
       <use xlink:href="#m1caa325441" x="620.490118" y="415.233437" style="fill: #ffffff; stroke: #ffffff; stroke-width: 0.6"/>
      </g>
     </g>
    </g>
    <g id="xtick_19">
     <g id="line2d_37">
      <path d="M 694.042272 415.233437 
L 694.042272 28.318125 
" clip-path="url(#pb8f564084a)" style="fill: none; stroke-dasharray: 2.96,1.28; stroke-dashoffset: 0; stroke: #555555; stroke-opacity: 0.5; stroke-width: 0.8"/>
     </g>
     <g id="line2d_38">
      <g>
       <use xlink:href="#m1caa325441" x="694.042272" y="415.233437" style="fill: #ffffff; stroke: #ffffff; stroke-width: 0.6"/>
      </g>
     </g>
    </g>
    <g id="xtick_20">
     <g id="line2d_39">
      <path d="M 732.131576 415.233437 
L 732.131576 28.318125 
" clip-path="url(#pb8f564084a)" style="fill: none; stroke-dasharray: 2.96,1.28; stroke-dashoffset: 0; stroke: #555555; stroke-opacity: 0.5; stroke-width: 0.8"/>
     </g>
     <g id="line2d_40">
      <g>
       <use xlink:href="#m1caa325441" x="732.131576" y="415.233437" style="fill: #ffffff; stroke: #ffffff; stroke-width: 0.6"/>
      </g>
     </g>
    </g>
    <g id="text_8">
     <text style="font-size: 10px; font-family: 'DejaVu Sans', 'Bitstream Vera Sans', 'Computer Modern Sans Serif', 'Lucida Grande', 'Verdana', 'Geneva', 'Lucid', 'Arial', 'Helvetica', 'Avant Garde', sans-serif; text-anchor: middle; fill: #ffffff" x="410.404297" y="443.832656" transform="rotate(-0 410.404297 443.832656)">Frequency [Hz]</text>
    </g>
   </g>
   <g id="matplotlib.axis_2">
    <g id="ytick_1">
     <g id="line2d_41">
      <path d="M 49.305469 415.233437 
L 771.503125 415.233437 
" clip-path="url(#pb8f564084a)" style="fill: none; stroke-dasharray: 2.96,1.28; stroke-dashoffset: 0; stroke: #555555; stroke-opacity: 0.5; stroke-width: 0.8"/>
     </g>
     <g id="line2d_42">
      <defs>
       <path id="m5e07181663" d="M 0 0 
L -3.5 0 
" style="stroke: #ffffff; stroke-width: 0.8"/>
      </defs>
      <g>
       <use xlink:href="#m5e07181663" x="49.305469" y="415.233437" style="fill: #ffffff; stroke: #ffffff; stroke-width: 0.8"/>
      </g>
     </g>
     <g id="text_9">
      <text style="font-size: 10px; font-family: 'DejaVu Sans', 'Bitstream Vera Sans', 'Computer Modern Sans Serif', 'Lucida Grande', 'Verdana', 'Geneva', 'Lucid', 'Arial', 'Helvetica', 'Avant Garde', sans-serif; text-anchor: end; fill: #ffffff" x="42.305469" y="419.032266" transform="rotate(-0 42.305469 419.032266)">−20</text>
     </g>
    </g>
    <g id="ytick_2">
     <g id="line2d_43">
      <path d="M 49.305469 346.141417 
L 771.503125 346.141417 
" clip-path="url(#pb8f564084a)" style="fill: none; stroke-dasharray: 2.96,1.28; stroke-dashoffset: 0; stroke: #555555; stroke-opacity: 0.5; stroke-width: 0.8"/>
     </g>
     <g id="line2d_44">
      <g>
       <use xlink:href="#m5e07181663" x="49.305469" y="346.141417" style="fill: #ffffff; stroke: #ffffff; stroke-width: 0.8"/>
      </g>
     </g>
     <g id="text_10">
      <text style="font-size: 10px; font-family: 'DejaVu Sans', 'Bitstream Vera Sans', 'Computer Modern Sans Serif', 'Lucida Grande', 'Verdana', 'Geneva', 'Lucid', 'Arial', 'Helvetica', 'Avant Garde', sans-serif; text-anchor: end; fill: #ffffff" x="42.305469" y="349.940246" transform="rotate(-0 42.305469 349.940246)">−15</text>
     </g>
    </g>
    <g id="ytick_3">
     <g id="line2d_45">
      <path d="M 49.305469 277.049397 
L 771.503125 277.049397 
" clip-path="url(#pb8f564084a)" style="fill: none; stroke-dasharray: 2.96,1.28; stroke-dashoffset: 0; stroke: #555555; stroke-opacity: 0.5; stroke-width: 0.8"/>
     </g>
     <g id="line2d_46">
      <g>
       <use xlink:href="#m5e07181663" x="49.305469" y="277.049397" style="fill: #ffffff; stroke: #ffffff; stroke-width: 0.8"/>
      </g>
     </g>
     <g id="text_11">
      <text style="font-size: 10px; font-family: 'DejaVu Sans', 'Bitstream Vera Sans', 'Computer Modern Sans Serif', 'Lucida Grande', 'Verdana', 'Geneva', 'Lucid', 'Arial', 'Helvetica', 'Avant Garde', sans-serif; text-anchor: end; fill: #ffffff" x="42.305469" y="280.848225" transform="rotate(-0 42.305469 280.848225)">−10</text>
     </g>
    </g>
    <g id="ytick_4">
     <g id="line2d_47">
      <path d="M 49.305469 207.957377 
L 771.503125 207.957377 
" clip-path="url(#pb8f564084a)" style="fill: none; stroke-dasharray: 2.96,1.28; stroke-dashoffset: 0; stroke: #555555; stroke-opacity: 0.5; stroke-width: 0.8"/>
     </g>
     <g id="line2d_48">
      <g>
       <use xlink:href="#m5e07181663" x="49.305469" y="207.957377" style="fill: #ffffff; stroke: #ffffff; stroke-width: 0.8"/>
      </g>
     </g>
     <g id="text_12">
      <text style="font-size: 10px; font-family: 'DejaVu Sans', 'Bitstream Vera Sans', 'Computer Modern Sans Serif', 'Lucida Grande', 'Verdana', 'Geneva', 'Lucid', 'Arial', 'Helvetica', 'Avant Garde', sans-serif; text-anchor: end; fill: #ffffff" x="42.305469" y="211.756205" transform="rotate(-0 42.305469 211.756205)">−5</text>
     </g>
    </g>
    <g id="ytick_5">
     <g id="line2d_49">
      <path d="M 49.305469 138.865357 
L 771.503125 138.865357 
" clip-path="url(#pb8f564084a)" style="fill: none; stroke-dasharray: 2.96,1.28; stroke-dashoffset: 0; stroke: #555555; stroke-opacity: 0.5; stroke-width: 0.8"/>
     </g>
     <g id="line2d_50">
      <g>
       <use xlink:href="#m5e07181663" x="49.305469" y="138.865357" style="fill: #ffffff; stroke: #ffffff; stroke-width: 0.8"/>
      </g>
     </g>
     <g id="text_13">
      <text style="font-size: 10px; font-family: 'DejaVu Sans', 'Bitstream Vera Sans', 'Computer Modern Sans Serif', 'Lucida Grande', 'Verdana', 'Geneva', 'Lucid', 'Arial', 'Helvetica', 'Avant Garde', sans-serif; text-anchor: end; fill: #ffffff" x="42.305469" y="142.664185" transform="rotate(-0 42.305469 142.664185)">0</text>
     </g>
    </g>
    <g id="ytick_6">
     <g id="line2d_51">
      <path d="M 49.305469 69.773337 
L 771.503125 69.773337 
" clip-path="url(#pb8f564084a)" style="fill: none; stroke-dasharray: 2.96,1.28; stroke-dashoffset: 0; stroke: #555555; stroke-opacity: 0.5; stroke-width: 0.8"/>
     </g>
     <g id="line2d_52">
      <g>
       <use xlink:href="#m5e07181663" x="49.305469" y="69.773337" style="fill: #ffffff; stroke: #ffffff; stroke-width: 0.8"/>
      </g>
     </g>
     <g id="text_14">
      <text style="font-size: 10px; font-family: 'DejaVu Sans', 'Bitstream Vera Sans', 'Computer Modern Sans Serif', 'Lucida Grande', 'Verdana', 'Geneva', 'Lucid', 'Arial', 'Helvetica', 'Avant Garde', sans-serif; text-anchor: end; fill: #ffffff" x="42.305469" y="73.572165" transform="rotate(-0 42.305469 73.572165)">5</text>
     </g>
    </g>
    <g id="text_15">
     <text style="font-size: 10px; font-family: 'DejaVu Sans', 'Bitstream Vera Sans', 'Computer Modern Sans Serif', 'Lucida Grande', 'Verdana', 'Geneva', 'Lucid', 'Arial', 'Helvetica', 'Avant Garde', sans-serif; text-anchor: middle; fill: #ffffff" x="14.798438" y="221.775781" transform="rotate(-90 14.798438 221.775781)">Level re free field [dB]</text>
    </g>
   </g>
   <g id="line2d_53">
    <path d="M 49.305469 55.954933 
L 771.503125 55.954933 
" clip-path="url(#pb8f564084a)" style="fill: none; stroke-dasharray: 1,1.65; stroke-dashoffset: 0; stroke: #ffffff; stroke-opacity: 0.7"/>
   </g>
   <g id="line2d_54">
    <path d="M 49.305469 138.865357 
L 771.503125 138.865357 
" clip-path="url(#pb8f564084a)" style="fill: none; stroke: #ffffff; stroke-opacity: 0.6; stroke-width: 0.8; stroke-linecap: square"/>
   </g>
   <g id="patch_3">
    <path d="M 49.305469 415.233437 
L 49.305469 28.318125 
" style="fill: none; stroke: #ffffff; stroke-width: 0.8; stroke-linejoin: miter; stroke-linecap: square"/>
   </g>
   <g id="patch_4">
    <path d="M 771.503125 415.233437 
L 771.503125 28.318125 
" style="fill: none; stroke: #ffffff; stroke-width: 0.8; stroke-linejoin: miter; stroke-linecap: square"/>
   </g>
   <g id="patch_5">
    <path d="M 49.305469 415.233437 
L 771.503125 415.233437 
" style="fill: none; stroke: #ffffff; stroke-width: 0.8; stroke-linejoin: miter; stroke-linecap: square"/>
   </g>
   <g id="patch_6">
    <path d="M 49.305469 28.318125 
L 771.503125 28.318125 
" style="fill: none; stroke: #ffffff; stroke-width: 0.8; stroke-linejoin: miter; stroke-linecap: square"/>
   </g>
   <g id="line2d_55">
    <path d="M 49.305469 130.874133 
L 54.735526 136.217053 
L 60.165584 141.891071 
L 65.595641 147.910731 
L 71.025699 154.290152 
L 76.455757 161.042753 
L 81.885814 168.180915 
L 87.315872 175.715551 
L 92.745929 183.655593 
L 98.175987 192.007351 
L 103.606044 200.773748 
L 109.036102 209.953378 
L 114.46616 219.539389 
L 119.896217 229.518148 
L 127.136294 243.394714 
L 134.376371 257.848361 
L 143.426467 276.537722 
L 165.146697 321.926187 
L 170.576754 332.715481 
L 176.006812 342.984128 
L 179.62685 349.463044 
L 183.246889 355.596541 
L 186.866927 361.343894 
L 190.486965 366.669282 
L 194.107004 371.542973 
L 197.727042 375.942197 
L 201.347081 379.851626 
L 204.967119 383.263428 
L 208.587157 386.176928 
L 212.207196 388.59793 
L 215.827234 390.537818 
L 219.447272 392.012543 
L 223.067311 393.041582 
L 226.687349 393.646973 
L 230.307388 393.852459 
L 233.927426 393.682775 
L 237.547464 393.163073 
L 241.167503 392.318476 
L 244.787541 391.173743 
L 248.407579 389.753018 
L 252.027618 388.079646 
L 255.647656 386.17604 
L 259.267695 384.06358 
L 262.887733 381.762547 
L 268.317791 377.998966 
L 273.747848 373.913505 
L 279.177906 369.559815 
L 286.417982 363.419396 
L 293.658059 356.984145 
L 302.708155 348.647924 
L 315.378289 336.650922 
L 360.628769 293.510023 
L 375.108923 280.105469 
L 389.589076 266.989316 
L 404.06923 254.170854 
L 418.549383 241.646664 
L 433.029537 229.407032 
L 447.50969 217.440052 
L 461.989844 205.734238 
L 478.280016 192.865867 
L 494.570189 180.30812 
L 510.860362 168.059699 
L 525.340515 157.437298 
L 539.820669 147.075859 
L 554.300822 136.993474 
L 566.970957 128.42056 
L 579.641091 120.104358 
L 592.311225 112.074473 
L 603.17134 105.447478 
L 614.031456 99.086424 
L 623.081552 94.013118 
L 632.131647 89.171299 
L 641.181743 84.587924 
L 650.231839 80.294314 
L 657.471916 77.092363 
L 664.711993 74.120519 
L 671.95207 71.403113 
L 679.192146 68.967848 
L 684.622204 67.345433 
L 690.052262 65.914482 
L 695.482319 64.691732 
L 700.912377 63.695851 
L 706.342434 62.947745 
L 711.772492 62.470917 
L 717.202549 62.291909 
L 720.822588 62.352737 
L 724.442626 62.569182 
L 728.062664 62.952138 
L 731.682703 63.513576 
L 735.302741 64.266688 
L 738.92278 65.226071 
L 742.542818 66.407929 
L 746.162856 67.830337 
L 749.782895 69.513547 
L 753.402933 71.480366 
L 757.022971 73.75662 
L 760.64301 76.371742 
L 764.263048 79.3595 
L 767.883087 82.758928 
L 771.503125 86.615538 
L 771.503125 86.615538 
" clip-path="url(#pb8f564084a)" style="fill: none; stroke: #2ca02c; stroke-width: 1.8; stroke-linecap: square"/>
   </g>
   <g id="line2d_56">
    <path d="M 49.305469 66.823289 
L 60.165584 68.649161 
L 69.21568 70.381925 
L 78.265776 72.331436 
L 87.315872 74.523711 
L 96.365968 76.987751 
L 103.606044 79.176233 
L 110.846121 81.577424 
L 118.086198 84.211099 
L 125.326275 87.098737 
L 132.566351 90.263644 
L 139.806428 93.731061 
L 145.236486 96.546481 
L 150.666543 99.55967 
L 156.096601 102.783627 
L 161.526658 106.232069 
L 166.956716 109.919438 
L 172.386774 113.860905 
L 177.816831 118.072361 
L 183.246889 122.570392 
L 188.676946 127.372242 
L 194.107004 132.495742 
L 199.537061 137.95922 
L 204.967119 143.781354 
L 210.397177 149.980983 
L 215.827234 156.57684 
L 221.257292 163.58719 
L 226.687349 171.029351 
L 232.117407 178.919037 
L 237.547464 187.269502 
L 242.977522 196.090378 
L 248.407579 205.386153 
L 253.837637 215.154141 
L 259.267695 225.381825 
L 264.697752 236.043394 
L 271.937829 250.855278 
L 280.987925 270.073345 
L 293.658059 297.196757 
L 299.088117 308.339991 
L 302.708155 315.411239 
L 306.328194 322.090169 
L 309.948232 328.283255 
L 313.56827 333.900099 
L 317.188309 338.859172 
L 318.998328 341.070442 
L 320.808347 343.093656 
L 322.618366 344.923588 
L 324.428385 346.556467 
L 326.238405 347.99003 
L 328.048424 349.223529 
L 329.858443 350.257698 
L 331.668462 351.094684 
L 333.478481 351.737941 
L 335.288501 352.192105 
L 337.09852 352.462836 
L 338.908539 352.556661 
L 340.718558 352.480803 
L 342.528577 352.243017 
L 344.338596 351.851431 
L 346.148616 351.314404 
L 347.958635 350.64039 
L 351.578673 348.91505 
L 355.198712 346.741163 
L 358.81875 344.180614 
L 362.438788 341.290147 
L 366.058827 338.120809 
L 369.678865 334.717908 
L 375.108923 329.261367 
L 380.53898 323.481411 
L 387.779057 315.42783 
L 398.639172 302.929135 
L 425.78946 271.457372 
L 436.649575 259.231327 
L 447.50969 247.328266 
L 458.369805 235.773626 
L 469.229921 224.573822 
L 480.090036 213.724379 
L 490.950151 203.215148 
L 501.810266 193.033647 
L 512.670381 183.167203 
L 523.530496 173.604328 
L 534.390611 164.335627 
L 545.250726 155.35443 
L 556.110842 146.657247 
L 566.970957 138.244162 
L 577.831072 130.119201 
L 588.691187 122.290726 
L 599.551302 114.7719 
L 608.601398 108.755938 
L 617.651494 102.981667 
L 626.70159 97.466259 
L 635.751686 92.23058 
L 644.801782 87.299721 
L 652.041859 83.594462 
L 659.281935 80.121286 
L 666.522012 76.900776 
L 673.762089 73.95657 
L 681.002166 71.315849 
L 686.432223 69.553138 
L 691.862281 67.993635 
L 697.292338 66.654076 
L 702.722396 65.553212 
L 708.152453 64.712117 
L 713.582511 64.154565 
L 719.012569 63.907492 
L 722.632607 63.930234 
L 726.252645 64.114651 
L 729.872684 64.471879 
L 733.492722 65.014171 
L 737.11276 65.755057 
L 740.732799 66.709529 
L 744.352837 67.894267 
L 747.972876 69.327902 
L 751.592914 71.031351 
L 755.212952 73.028212 
L 758.832991 75.345265 
L 762.453029 78.013087 
L 766.073067 81.066839 
L 769.693106 84.547266 
L 771.503125 86.462052 
L 771.503125 86.462052 
" clip-path="url(#pb8f564084a)" style="fill: none; stroke: #9467bd; stroke-width: 1.8; stroke-linecap: square"/>
   </g>
   <g id="line2d_57">
    <path d="M 49.305469 58.357055 
L 71.025699 59.26493 
L 89.125891 60.237167 
L 105.416064 61.322531 
L 119.896217 62.491133 
L 134.376371 63.890078 
L 147.046505 65.337664 
L 159.716639 67.030158 
L 170.576754 68.706349 
L 181.43687 70.621508 
L 190.486965 72.423991 
L 199.537061 74.437297 
L 208.587157 76.68563 
L 217.637253 79.195909 
L 224.87733 81.41273 
L 232.117407 83.833105 
L 239.357484 86.475316 
L 246.59756 89.359207 
L 253.837637 92.506301 
L 261.077714 95.939904 
L 268.317791 99.685217 
L 273.747848 102.715044 
L 279.177906 105.947697 
L 284.607963 109.396085 
L 290.038021 113.073798 
L 295.468078 116.995107 
L 300.898136 121.174953 
L 306.328194 125.628917 
L 311.758251 130.373168 
L 317.188309 135.424387 
L 322.618366 140.799636 
L 328.048424 146.516186 
L 333.478481 152.591253 
L 338.908539 159.041641 
L 344.338596 165.883222 
L 349.768654 173.130224 
L 355.198712 180.794214 
L 360.628769 188.882689 
L 366.058827 197.397084 
L 371.488884 206.329988 
L 376.918942 215.661256 
L 384.159019 228.653035 
L 393.209115 245.526469 
L 404.06923 265.853961 
L 409.499287 275.518786 
L 413.119326 281.559782 
L 416.739364 287.145003 
L 420.359402 292.152519 
L 422.169422 294.401866 
L 423.979441 296.462588 
L 425.78946 298.321727 
L 427.599479 299.967787 
L 429.409498 301.391065 
L 431.219518 302.583936 
L 433.029537 303.541081 
L 434.839556 304.259638 
L 436.649575 304.739267 
L 438.459594 304.982119 
L 440.269613 304.992723 
L 442.079633 304.777792 
L 443.889652 304.345956 
L 445.699671 303.707461 
L 447.50969 302.873831 
L 449.319709 301.857524 
L 451.129729 300.671606 
L 452.939748 299.329436 
L 456.559786 296.22966 
L 460.179825 292.661628 
L 463.799863 288.720319 
L 467.419901 284.489334 
L 472.849959 277.752304 
L 480.090036 268.323716 
L 509.050343 229.992756 
L 518.100439 218.542492 
L 527.150535 207.478716 
L 536.20063 196.819494 
L 545.250726 186.567493 
L 554.300822 176.717285 
L 563.350918 167.259791 
L 572.401014 158.185013 
L 581.45111 149.483762 
L 590.501206 141.14876 
L 599.551302 133.175387 
L 608.601398 125.562209 
L 615.841475 119.732351 
L 623.081552 114.137303 
L 630.321628 108.781808 
L 637.561705 103.672542 
L 644.801782 98.818287 
L 652.041859 94.230136 
L 659.281935 89.921736 
L 666.522012 85.909586 
L 673.762089 82.213399 
L 679.192146 79.662519 
L 684.622204 77.313816 
L 690.052262 75.180163 
L 695.482319 73.276112 
L 700.912377 71.618112 
L 706.342434 70.224784 
L 711.772492 69.117246 
L 717.202549 68.31951 
L 720.822588 67.973169 
L 724.442626 67.785685 
L 728.062664 67.767013 
L 731.682703 67.928101 
L 735.302741 68.281022 
L 738.92278 68.839129 
L 742.542818 69.617241 
L 746.162856 70.631863 
L 749.782895 71.901454 
L 753.402933 73.446746 
L 757.022971 75.291147 
L 760.64301 77.461224 
L 764.263048 79.987318 
L 767.883087 82.904311 
L 771.503125 86.252608 
L 771.503125 86.252608 
" clip-path="url(#pb8f564084a)" style="fill: none; stroke: #1f77b4; stroke-width: 1.8; stroke-linecap: square"/>
   </g>
   <g id="line2d_58">
    <path d="M 49.305469 55.873341 
L 141.616447 56.121647 
L 201.347081 56.488888 
L 246.59756 56.983728 
L 282.797944 57.602851 
L 311.758251 58.311202 
L 337.09852 59.147151 
L 358.81875 60.076085 
L 378.728961 61.14847 
L 396.829153 62.352733 
L 413.119326 63.666011 
L 427.599479 65.053447 
L 440.269613 66.468581 
L 452.939748 68.103354 
L 463.799863 69.706657 
L 474.659978 71.524486 
L 485.520093 73.587876 
L 494.570189 75.520935 
L 503.620285 77.673906 
L 512.670381 80.074719 
L 519.910458 82.195327 
L 527.150535 84.513965 
L 534.390611 87.051985 
L 541.630688 89.833653 
L 548.870765 92.88669 
L 556.110842 96.242937 
L 561.540899 98.981021 
L 566.970957 101.927915 
L 572.401014 105.103505 
L 577.831072 108.530258 
L 583.261129 112.233678 
L 588.691187 116.242875 
L 594.121245 120.591258 
L 599.551302 125.317413 
L 604.98136 130.466196 
L 608.601398 134.159085 
L 612.221436 138.080769 
L 615.841475 142.251195 
L 619.461513 146.692794 
L 623.081552 151.430872 
L 626.70159 156.494083 
L 630.321628 161.914981 
L 633.941667 167.730651 
L 637.561705 173.983436 
L 641.181743 180.721707 
L 644.801782 188.000634 
L 648.42182 195.882777 
L 652.041859 204.438141 
L 655.661897 213.742955 
L 659.281935 223.875582 
L 662.901974 234.906352 
L 666.522012 246.874701 
L 670.14205 259.740596 
L 679.192146 293.458958 
L 681.002166 299.491511 
L 682.812185 304.752699 
L 684.622204 308.923299 
L 686.432223 311.686409 
L 688.242242 312.78528 
L 690.052262 312.08357 
L 691.862281 309.602117 
L 693.6723 305.513212 
L 695.482319 300.095486 
L 697.292338 293.67198 
L 700.912377 279.018348 
L 708.152453 248.173977 
L 711.772492 233.617863 
L 715.39253 220.005883 
L 719.012569 207.369736 
L 722.632607 195.67006 
L 726.252645 184.840735 
L 729.872684 174.809613 
L 733.492722 165.507686 
L 737.11276 156.872704 
L 740.732799 148.850208 
L 744.352837 141.393415 
L 747.972876 134.462632 
L 751.592914 128.024524 
L 755.212952 122.051395 
L 758.832991 116.520537 
L 762.453029 111.413664 
L 766.073067 106.716452 
L 769.693106 102.418158 
L 771.503125 100.416152 
L 771.503125 100.416152 
" clip-path="url(#pb8f564084a)" style="fill: none; stroke: #d62728; stroke-width: 1.8; stroke-linecap: square"/>
   </g>
   <g id="text_16">
    <text style="font-weight: 700; font-size: 12px; font-family: 'DejaVu Sans', 'Bitstream Vera Sans', 'Computer Modern Sans Serif', 'Lucida Grande', 'Verdana', 'Geneva', 'Lucid', 'Arial', 'Helvetica', 'Avant Garde', sans-serif; text-anchor: middle; fill: #ffffff" x="410.404297" y="16.318125" transform="rotate(-0 410.404297 16.318125)">Spherical-Wave Ground Effect (Weyl-Van der Pol)</text>
   </g>
   <g id="legend_1">
    <g id="patch_7">
     <path d="M 55.605469 410.733437 
L 205.731094 410.733437 
Q 207.531094 410.733437 207.531094 408.933438 
L 207.531094 342.329922 
Q 207.531094 340.529922 205.731094 340.529922 
L 55.605469 340.529922 
Q 53.805469 340.529922 53.805469 342.329922 
L 53.805469 408.933438 
Q 53.805469 410.733437 55.605469 410.733437 
z
" style="opacity: 0.8; stroke: #cccccc; stroke-linejoin: miter"/>
    </g>
    <g id="line2d_59">
     <path d="M 57.405469 347.818516 
L 66.405469 347.818516 
L 75.405469 347.818516 
" style="fill: none; stroke: #2ca02c; stroke-width: 1.8; stroke-linecap: square"/>
    </g>
    <g id="text_17">
     <text style="font-size: 9px; font-family: 'DejaVu Sans', 'Bitstream Vera Sans', 'Computer Modern Sans Serif', 'Lucida Grande', 'Verdana', 'Geneva', 'Lucid', 'Arial', 'Helvetica', 'Avant Garde', sans-serif; text-anchor: start; fill: #ffffff" x="82.605469" y="350.968516" transform="rotate(-0 82.605469 350.968516)">Fresh snow (10 kPa·s·m⁻²)</text>
    </g>
    <g id="line2d_60">
     <path d="M 57.405469 361.319219 
L 66.405469 361.319219 
L 75.405469 361.319219 
" style="fill: none; stroke: #9467bd; stroke-width: 1.8; stroke-linecap: square"/>
    </g>
    <g id="text_18">
     <text style="font-size: 9px; font-family: 'DejaVu Sans', 'Bitstream Vera Sans', 'Computer Modern Sans Serif', 'Lucida Grande', 'Verdana', 'Geneva', 'Lucid', 'Arial', 'Helvetica', 'Avant Garde', sans-serif; text-anchor: start; fill: #ffffff" x="82.605469" y="364.469219" transform="rotate(-0 82.605469 364.469219)">Forest floor (50 kPa·s·m⁻²)</text>
    </g>
    <g id="line2d_61">
     <path d="M 57.405469 374.819922 
L 66.405469 374.819922 
L 75.405469 374.819922 
" style="fill: none; stroke: #1f77b4; stroke-width: 1.8; stroke-linecap: square"/>
    </g>
    <g id="text_19">
     <text style="font-size: 9px; font-family: 'DejaVu Sans', 'Bitstream Vera Sans', 'Computer Modern Sans Serif', 'Lucida Grande', 'Verdana', 'Geneva', 'Lucid', 'Arial', 'Helvetica', 'Avant Garde', sans-serif; text-anchor: start; fill: #ffffff" x="82.605469" y="377.969922" transform="rotate(-0 82.605469 377.969922)">Grassland (200 kPa·s·m⁻²)</text>
    </g>
    <g id="line2d_62">
     <path d="M 57.405469 388.320625 
L 66.405469 388.320625 
L 75.405469 388.320625 
" style="fill: none; stroke: #d62728; stroke-width: 1.8; stroke-linecap: square"/>
    </g>
    <g id="text_20">
     <text style="font-size: 9px; font-family: 'DejaVu Sans', 'Bitstream Vera Sans', 'Computer Modern Sans Serif', 'Lucida Grande', 'Verdana', 'Geneva', 'Lucid', 'Arial', 'Helvetica', 'Avant Garde', sans-serif; text-anchor: start; fill: #ffffff" x="82.605469" y="391.470625" transform="rotate(-0 82.605469 391.470625)">Asphalt (20 000 kPa·s·m⁻²)</text>
    </g>
    <g id="line2d_63">
     <path d="M 57.405469 401.821328 
L 66.405469 401.821328 
L 75.405469 401.821328 
" style="fill: none; stroke-dasharray: 1,1.65; stroke-dashoffset: 0; stroke: #ffffff; stroke-opacity: 0.7"/>
    </g>
    <g id="text_21">
     <text style="font-size: 9px; font-family: 'DejaVu Sans', 'Bitstream Vera Sans', 'Computer Modern Sans Serif', 'Lucida Grande', 'Verdana', 'Geneva', 'Lucid', 'Arial', 'Helvetica', 'Avant Garde', sans-serif; text-anchor: start; fill: #ffffff" x="82.605469" y="404.971328" transform="rotate(-0 82.605469 404.971328)">Hard-ground limit (+6 dB)</text>
    </g>
   </g>
  </g>
 </g>
 <defs>
  <clipPath id="pb8f564084a">
   <rect x="49.305469" y="28.318125" width="722.197656" height="386.915313"/>
  </clipPath>
 </defs>
</svg>
