<?xml version="1.0" encoding="utf-8" standalone="no"?>
<!DOCTYPE svg PUBLIC "-//W3C//DTD SVG 1.1//EN"
  "http://www.w3.org/Graphics/SVG/1.1/DTD/svg11.dtd">
<svg xmlns:xlink="http://www.w3.org/1999/xlink" width="780.007812pt" height="453.915pt" viewBox="0 0 780.007812 453.915" xmlns="http://www.w3.org/2000/svg" version="1.1">
 <metadata>
  <rdf:RDF xmlns:dc="http://purl.org/dc/elements/1.1/" xmlns:cc="http://creativecommons.org/ns#" xmlns:rdf="http://www.w3.org/1999/02/22-rdf-syntax-ns#">
   <cc:Work>
    <dc:type rdf:resource="http://purl.org/dc/dcmitype/StillImage"/>
    <dc:format>image/svg+xml</dc:format>
    <dc:creator>
     <cc:Agent>
      <dc:title>Matplotlib v3.11.1, https://matplotlib.org/</dc:title>
     </cc:Agent>
    </dc:creator>
   </cc:Work>
  </rdf:RDF>
 </metadata>
 <defs>
  <style type="text/css">*{stroke-linejoin: round; stroke-linecap: butt}</style>
 </defs>
 <g id="figure_1">
  <g id="patch_1">
   <path d="M 0 453.915 
L 780.007812 453.915 
L 780.007812 0 
L 0 0 
z
"/>
  </g>
  <g id="axes_1">
   <g id="patch_2">
    <path d="M 44.533594 415.713437 
L 766.73125 415.713437 
L 766.73125 28.798125 
L 44.533594 28.798125 
z
"/>
   </g>
   <g id="matplotlib.axis_1">
    <g id="xtick_1">
     <g id="line2d_1">
      <path d="M 82.622897 415.713437 
L 82.622897 28.798125 
" clip-path="url(#p148f0c2be8)" style="fill: none; stroke-dasharray: 2.96,1.28; stroke-dashoffset: 0; stroke: #555555; stroke-opacity: 0.5; stroke-width: 0.8"/>
     </g>
     <g id="line2d_2">
      <defs>
       <path id="m8d14ee1197" d="M 0 0 
L 0 3.5 
" style="stroke: #ffffff; stroke-width: 0.8"/>
      </defs>
      <g>
       <use xlink:href="#m8d14ee1197" x="82.622897" y="415.713437" style="fill: #ffffff; stroke: #ffffff; stroke-width: 0.8"/>
      </g>
     </g>
     <g id="text_1">
      <text style="font-size: 10px; font-family: 'DejaVu Sans', 'Bitstream Vera Sans', 'Computer Modern Sans Serif', 'Lucida Grande', 'Verdana', 'Geneva', 'Lucid', 'Arial', 'Helvetica', 'Avant Garde', sans-serif; text-anchor: middle; fill: #ffffff" x="82.622897" y="430.311094" transform="rotate(-0 82.622897 430.311094)">63</text>
     </g>
    </g>
    <g id="xtick_2">
     <g id="line2d_3">
      <path d="M 195.546601 415.713437 
L 195.546601 28.798125 
" clip-path="url(#p148f0c2be8)" style="fill: none; stroke-dasharray: 2.96,1.28; stroke-dashoffset: 0; stroke: #555555; stroke-opacity: 0.5; stroke-width: 0.8"/>
     </g>
     <g id="line2d_4">
      <g>
       <use xlink:href="#m8d14ee1197" x="195.546601" y="415.713437" style="fill: #ffffff; stroke: #ffffff; stroke-width: 0.8"/>
      </g>
     </g>
     <g id="text_2">
      <text style="font-size: 10px; font-family: 'DejaVu Sans', 'Bitstream Vera Sans', 'Computer Modern Sans Serif', 'Lucida Grande', 'Verdana', 'Geneva', 'Lucid', 'Arial', 'Helvetica', 'Avant Garde', sans-serif; text-anchor: middle; fill: #ffffff" x="195.546601" y="430.311094" transform="rotate(-0 195.546601 430.311094)">125</text>
     </g>
    </g>
    <g id="xtick_3">
     <g id="line2d_5">
      <path d="M 309.783531 415.713437 
L 309.783531 28.798125 
" clip-path="url(#p148f0c2be8)" style="fill: none; stroke-dasharray: 2.96,1.28; stroke-dashoffset: 0; stroke: #555555; stroke-opacity: 0.5; stroke-width: 0.8"/>
     </g>
     <g id="line2d_6">
      <g>
       <use xlink:href="#m8d14ee1197" x="309.783531" y="415.713437" style="fill: #ffffff; stroke: #ffffff; stroke-width: 0.8"/>
      </g>
     </g>
     <g id="text_3">
      <text style="font-size: 10px; font-family: 'DejaVu Sans', 'Bitstream Vera Sans', 'Computer Modern Sans Serif', 'Lucida Grande', 'Verdana', 'Geneva', 'Lucid', 'Arial', 'Helvetica', 'Avant Garde', sans-serif; text-anchor: middle; fill: #ffffff" x="309.783531" y="430.311094" transform="rotate(-0 309.783531 430.311094)">250</text>
     </g>
    </g>
    <g id="xtick_4">
     <g id="line2d_7">
      <path d="M 424.02046 415.713437 
L 424.02046 28.798125 
" clip-path="url(#p148f0c2be8)" style="fill: none; stroke-dasharray: 2.96,1.28; stroke-dashoffset: 0; stroke: #555555; stroke-opacity: 0.5; stroke-width: 0.8"/>
     </g>
     <g id="line2d_8">
      <g>
       <use xlink:href="#m8d14ee1197" x="424.02046" y="415.713437" style="fill: #ffffff; stroke: #ffffff; stroke-width: 0.8"/>
      </g>
     </g>
     <g id="text_4">
      <text style="font-size: 10px; font-family: 'DejaVu Sans', 'Bitstream Vera Sans', 'Computer Modern Sans Serif', 'Lucida Grande', 'Verdana', 'Geneva', 'Lucid', 'Arial', 'Helvetica', 'Avant Garde', sans-serif; text-anchor: middle; fill: #ffffff" x="424.02046" y="430.311094" transform="rotate(-0 424.02046 430.311094)">500</text>
     </g>
    </g>
    <g id="xtick_5">
     <g id="line2d_9">
      <path d="M 538.25739 415.713437 
L 538.25739 28.798125 
" clip-path="url(#p148f0c2be8)" style="fill: none; stroke-dasharray: 2.96,1.28; stroke-dashoffset: 0; stroke: #555555; stroke-opacity: 0.5; stroke-width: 0.8"/>
     </g>
     <g id="line2d_10">
      <g>
       <use xlink:href="#m8d14ee1197" x="538.25739" y="415.713437" style="fill: #ffffff; stroke: #ffffff; stroke-width: 0.8"/>
      </g>
     </g>
     <g id="text_5">
      <text style="font-size: 10px; font-family: 'DejaVu Sans', 'Bitstream Vera Sans', 'Computer Modern Sans Serif', 'Lucida Grande', 'Verdana', 'Geneva', 'Lucid', 'Arial', 'Helvetica', 'Avant Garde', sans-serif; text-anchor: middle; fill: #ffffff" x="538.25739" y="430.311875" transform="rotate(-0 538.25739 430.311875)">1k</text>
     </g>
    </g>
    <g id="xtick_6">
     <g id="line2d_11">
      <path d="M 652.49432 415.713437 
L 652.49432 28.798125 
" clip-path="url(#p148f0c2be8)" style="fill: none; stroke-dasharray: 2.96,1.28; stroke-dashoffset: 0; stroke: #555555; stroke-opacity: 0.5; stroke-width: 0.8"/>
     </g>
     <g id="line2d_12">
      <g>
       <use xlink:href="#m8d14ee1197" x="652.49432" y="415.713437" style="fill: #ffffff; stroke: #ffffff; stroke-width: 0.8"/>
      </g>
     </g>
     <g id="text_6">
      <text style="font-size: 10px; font-family: 'DejaVu Sans', 'Bitstream Vera Sans', 'Computer Modern Sans Serif', 'Lucida Grande', 'Verdana', 'Geneva', 'Lucid', 'Arial', 'Helvetica', 'Avant Garde', sans-serif; text-anchor: middle; fill: #ffffff" x="652.49432" y="430.311875" transform="rotate(-0 652.49432 430.311875)">2k</text>
     </g>
    </g>
    <g id="xtick_7">
     <g id="line2d_13">
      <path d="M 766.73125 415.713437 
L 766.73125 28.798125 
" clip-path="url(#p148f0c2be8)" style="fill: none; stroke-dasharray: 2.96,1.28; stroke-dashoffset: 0; stroke: #555555; stroke-opacity: 0.5; stroke-width: 0.8"/>
     </g>
     <g id="line2d_14">
      <g>
       <use xlink:href="#m8d14ee1197" x="766.73125" y="415.713437" style="fill: #ffffff; stroke: #ffffff; stroke-width: 0.8"/>
      </g>
     </g>
     <g id="text_7">
      <text style="font-size: 10px; font-family: 'DejaVu Sans', 'Bitstream Vera Sans', 'Computer Modern Sans Serif', 'Lucida Grande', 'Verdana', 'Geneva', 'Lucid', 'Arial', 'Helvetica', 'Avant Garde', sans-serif; text-anchor: middle; fill: #ffffff" x="766.73125" y="430.311875" transform="rotate(-0 766.73125 430.311875)">4k</text>
     </g>
    </g>
    <g id="xtick_8">
     <g id="line2d_15">
      <path d="M 44.533594 415.713437 
L 44.533594 28.798125 
" clip-path="url(#p148f0c2be8)" style="fill: none; stroke-dasharray: 2.96,1.28; stroke-dashoffset: 0; stroke: #555555; stroke-opacity: 0.5; stroke-width: 0.8"/>
     </g>
     <g id="line2d_16">
      <defs>
       <path id="m1caa325441" d="M 0 0 
L 0 2 
" style="stroke: #ffffff; stroke-width: 0.6"/>
      </defs>
      <g>
       <use xlink:href="#m1caa325441" x="44.533594" y="415.713437" style="fill: #ffffff; stroke: #ffffff; stroke-width: 0.6"/>
      </g>
     </g>
    </g>
    <g id="xtick_9">
     <g id="line2d_17">
      <path d="M 121.994446 415.713437 
L 121.994446 28.798125 
" clip-path="url(#p148f0c2be8)" style="fill: none; stroke-dasharray: 2.96,1.28; stroke-dashoffset: 0; stroke: #555555; stroke-opacity: 0.5; stroke-width: 0.8"/>
     </g>
     <g id="line2d_18">
      <g>
       <use xlink:href="#m1caa325441" x="121.994446" y="415.713437" style="fill: #ffffff; stroke: #ffffff; stroke-width: 0.6"/>
      </g>
     </g>
    </g>
    <g id="xtick_10">
     <g id="line2d_19">
      <path d="M 158.770524 415.713437 
L 158.770524 28.798125 
" clip-path="url(#p148f0c2be8)" style="fill: none; stroke-dasharray: 2.96,1.28; stroke-dashoffset: 0; stroke: #555555; stroke-opacity: 0.5; stroke-width: 0.8"/>
     </g>
     <g id="line2d_20">
      <g>
       <use xlink:href="#m1caa325441" x="158.770524" y="415.713437" style="fill: #ffffff; stroke: #ffffff; stroke-width: 0.6"/>
      </g>
     </g>
    </g>
    <g id="xtick_11">
     <g id="line2d_21">
      <path d="M 236.231376 415.713437 
L 236.231376 28.798125 
" clip-path="url(#p148f0c2be8)" style="fill: none; stroke-dasharray: 2.96,1.28; stroke-dashoffset: 0; stroke: #555555; stroke-opacity: 0.5; stroke-width: 0.8"/>
     </g>
     <g id="line2d_22">
      <g>
       <use xlink:href="#m1caa325441" x="236.231376" y="415.713437" style="fill: #ffffff; stroke: #ffffff; stroke-width: 0.6"/>
      </g>
     </g>
    </g>
    <g id="xtick_12">
     <g id="line2d_23">
      <path d="M 273.007453 415.713437 
L 273.007453 28.798125 
" clip-path="url(#p148f0c2be8)" style="fill: none; stroke-dasharray: 2.96,1.28; stroke-dashoffset: 0; stroke: #555555; stroke-opacity: 0.5; stroke-width: 0.8"/>
     </g>
     <g id="line2d_24">
      <g>
       <use xlink:href="#m1caa325441" x="273.007453" y="415.713437" style="fill: #ffffff; stroke: #ffffff; stroke-width: 0.6"/>
      </g>
     </g>
    </g>
    <g id="xtick_13">
     <g id="line2d_25">
      <path d="M 347.872834 415.713437 
L 347.872834 28.798125 
" clip-path="url(#p148f0c2be8)" style="fill: none; stroke-dasharray: 2.96,1.28; stroke-dashoffset: 0; stroke: #555555; stroke-opacity: 0.5; stroke-width: 0.8"/>
     </g>
     <g id="line2d_26">
      <g>
       <use xlink:href="#m1caa325441" x="347.872834" y="415.713437" style="fill: #ffffff; stroke: #ffffff; stroke-width: 0.6"/>
      </g>
     </g>
    </g>
    <g id="xtick_14">
     <g id="line2d_27">
      <path d="M 387.244383 415.713437 
L 387.244383 28.798125 
" clip-path="url(#p148f0c2be8)" style="fill: none; stroke-dasharray: 2.96,1.28; stroke-dashoffset: 0; stroke: #555555; stroke-opacity: 0.5; stroke-width: 0.8"/>
     </g>
     <g id="line2d_28">
      <g>
       <use xlink:href="#m1caa325441" x="387.244383" y="415.713437" style="fill: #ffffff; stroke: #ffffff; stroke-width: 0.6"/>
      </g>
     </g>
    </g>
    <g id="xtick_15">
     <g id="line2d_29">
      <path d="M 462.109764 415.713437 
L 462.109764 28.798125 
" clip-path="url(#p148f0c2be8)" style="fill: none; stroke-dasharray: 2.96,1.28; stroke-dashoffset: 0; stroke: #555555; stroke-opacity: 0.5; stroke-width: 0.8"/>
     </g>
     <g id="line2d_30">
      <g>
       <use xlink:href="#m1caa325441" x="462.109764" y="415.713437" style="fill: #ffffff; stroke: #ffffff; stroke-width: 0.6"/>
      </g>
     </g>
    </g>
    <g id="xtick_16">
     <g id="line2d_31">
      <path d="M 501.481313 415.713437 
L 501.481313 28.798125 
" clip-path="url(#p148f0c2be8)" style="fill: none; stroke-dasharray: 2.96,1.28; stroke-dashoffset: 0; stroke: #555555; stroke-opacity: 0.5; stroke-width: 0.8"/>
     </g>
     <g id="line2d_32">
      <g>
       <use xlink:href="#m1caa325441" x="501.481313" y="415.713437" style="fill: #ffffff; stroke: #ffffff; stroke-width: 0.6"/>
      </g>
     </g>
    </g>
    <g id="xtick_17">
     <g id="line2d_33">
      <path d="M 575.033468 415.713437 
L 575.033468 28.798125 
" clip-path="url(#p148f0c2be8)" style="fill: none; stroke-dasharray: 2.96,1.28; stroke-dashoffset: 0; stroke: #555555; stroke-opacity: 0.5; stroke-width: 0.8"/>
     </g>
     <g id="line2d_34">
      <g>
       <use xlink:href="#m1caa325441" x="575.033468" y="415.713437" style="fill: #ffffff; stroke: #ffffff; stroke-width: 0.6"/>
      </g>
     </g>
    </g>
    <g id="xtick_18">
     <g id="line2d_35">
      <path d="M 615.718243 415.713437 
L 615.718243 28.798125 
" clip-path="url(#p148f0c2be8)" style="fill: none; stroke-dasharray: 2.96,1.28; stroke-dashoffset: 0; stroke: #555555; stroke-opacity: 0.5; stroke-width: 0.8"/>
     </g>
     <g id="line2d_36">
      <g>
       <use xlink:href="#m1caa325441" x="615.718243" y="415.713437" style="fill: #ffffff; stroke: #ffffff; stroke-width: 0.6"/>
      </g>
     </g>
    </g>
    <g id="xtick_19">
     <g id="line2d_37">
      <path d="M 689.270397 415.713437 
L 689.270397 28.798125 
" clip-path="url(#p148f0c2be8)" style="fill: none; stroke-dasharray: 2.96,1.28; stroke-dashoffset: 0; stroke: #555555; stroke-opacity: 0.5; stroke-width: 0.8"/>
     </g>
     <g id="line2d_38">
      <g>
       <use xlink:href="#m1caa325441" x="689.270397" y="415.713437" style="fill: #ffffff; stroke: #ffffff; stroke-width: 0.6"/>
      </g>
     </g>
    </g>
    <g id="xtick_20">
     <g id="line2d_39">
      <path d="M 727.359701 415.713437 
L 727.359701 28.798125 
" clip-path="url(#p148f0c2be8)" style="fill: none; stroke-dasharray: 2.96,1.28; stroke-dashoffset: 0; stroke: #555555; stroke-opacity: 0.5; stroke-width: 0.8"/>
     </g>
     <g id="line2d_40">
      <g>
       <use xlink:href="#m1caa325441" x="727.359701" y="415.713437" style="fill: #ffffff; stroke: #ffffff; stroke-width: 0.6"/>
      </g>
     </g>
    </g>
    <g id="text_8">
     <text style="font-size: 10px; font-family: 'DejaVu Sans', 'Bitstream Vera Sans', 'Computer Modern Sans Serif', 'Lucida Grande', 'Verdana', 'Geneva', 'Lucid', 'Arial', 'Helvetica', 'Avant Garde', sans-serif; text-anchor: middle; fill: #ffffff" x="405.632422" y="444.312656" transform="rotate(-0 405.632422 444.312656)">Frecuencia [Hz]</text>
    </g>
   </g>
   <g id="matplotlib.axis_2">
    <g id="ytick_1">
     <g id="line2d_41">
      <path d="M 44.533594 415.713437 
L 766.73125 415.713437 
" clip-path="url(#p148f0c2be8)" style="fill: none; stroke-dasharray: 2.96,1.28; stroke-dashoffset: 0; stroke: #555555; stroke-opacity: 0.5; stroke-width: 0.8"/>
     </g>
     <g id="line2d_42">
      <defs>
       <path id="m5e07181663" d="M 0 0 
L -3.5 0 
" style="stroke: #ffffff; stroke-width: 0.8"/>
      </defs>
      <g>
       <use xlink:href="#m5e07181663" x="44.533594" y="415.713437" style="fill: #ffffff; stroke: #ffffff; stroke-width: 0.8"/>
      </g>
     </g>
     <g id="text_9">
      <text style="font-size: 10px; font-family: 'DejaVu Sans', 'Bitstream Vera Sans', 'Computer Modern Sans Serif', 'Lucida Grande', 'Verdana', 'Geneva', 'Lucid', 'Arial', 'Helvetica', 'Avant Garde', sans-serif; text-anchor: end; fill: #ffffff" x="37.533594" y="419.512266" transform="rotate(-0 37.533594 419.512266)">-20</text>
     </g>
    </g>
    <g id="ytick_2">
     <g id="line2d_43">
      <path d="M 44.533594 346.621417 
L 766.73125 346.621417 
" clip-path="url(#p148f0c2be8)" style="fill: none; stroke-dasharray: 2.96,1.28; stroke-dashoffset: 0; stroke: #555555; stroke-opacity: 0.5; stroke-width: 0.8"/>
     </g>
     <g id="line2d_44">
      <g>
       <use xlink:href="#m5e07181663" x="44.533594" y="346.621417" style="fill: #ffffff; stroke: #ffffff; stroke-width: 0.8"/>
      </g>
     </g>
     <g id="text_10">
      <text style="font-size: 10px; font-family: 'DejaVu Sans', 'Bitstream Vera Sans', 'Computer Modern Sans Serif', 'Lucida Grande', 'Verdana', 'Geneva', 'Lucid', 'Arial', 'Helvetica', 'Avant Garde', sans-serif; text-anchor: end; fill: #ffffff" x="37.533594" y="350.420246" transform="rotate(-0 37.533594 350.420246)">-15</text>
     </g>
    </g>
    <g id="ytick_3">
     <g id="line2d_45">
      <path d="M 44.533594 277.529397 
L 766.73125 277.529397 
" clip-path="url(#p148f0c2be8)" style="fill: none; stroke-dasharray: 2.96,1.28; stroke-dashoffset: 0; stroke: #555555; stroke-opacity: 0.5; stroke-width: 0.8"/>
     </g>
     <g id="line2d_46">
      <g>
       <use xlink:href="#m5e07181663" x="44.533594" y="277.529397" style="fill: #ffffff; stroke: #ffffff; stroke-width: 0.8"/>
      </g>
     </g>
     <g id="text_11">
      <text style="font-size: 10px; font-family: 'DejaVu Sans', 'Bitstream Vera Sans', 'Computer Modern Sans Serif', 'Lucida Grande', 'Verdana', 'Geneva', 'Lucid', 'Arial', 'Helvetica', 'Avant Garde', sans-serif; text-anchor: end; fill: #ffffff" x="37.533594" y="281.328225" transform="rotate(-0 37.533594 281.328225)">-10</text>
     </g>
    </g>
    <g id="ytick_4">
     <g id="line2d_47">
      <path d="M 44.533594 208.437377 
L 766.73125 208.437377 
" clip-path="url(#p148f0c2be8)" style="fill: none; stroke-dasharray: 2.96,1.28; stroke-dashoffset: 0; stroke: #555555; stroke-opacity: 0.5; stroke-width: 0.8"/>
     </g>
     <g id="line2d_48">
      <g>
       <use xlink:href="#m5e07181663" x="44.533594" y="208.437377" style="fill: #ffffff; stroke: #ffffff; stroke-width: 0.8"/>
      </g>
     </g>
     <g id="text_12">
      <text style="font-size: 10px; font-family: 'DejaVu Sans', 'Bitstream Vera Sans', 'Computer Modern Sans Serif', 'Lucida Grande', 'Verdana', 'Geneva', 'Lucid', 'Arial', 'Helvetica', 'Avant Garde', sans-serif; text-anchor: end; fill: #ffffff" x="37.533594" y="212.236205" transform="rotate(-0 37.533594 212.236205)">-5</text>
     </g>
    </g>
    <g id="ytick_5">
     <g id="line2d_49">
      <path d="M 44.533594 139.345357 
L 766.73125 139.345357 
" clip-path="url(#p148f0c2be8)" style="fill: none; stroke-dasharray: 2.96,1.28; stroke-dashoffset: 0; stroke: #555555; stroke-opacity: 0.5; stroke-width: 0.8"/>
     </g>
     <g id="line2d_50">
      <g>
       <use xlink:href="#m5e07181663" x="44.533594" y="139.345357" style="fill: #ffffff; stroke: #ffffff; stroke-width: 0.8"/>
      </g>
     </g>
     <g id="text_13">
      <text style="font-size: 10px; font-family: 'DejaVu Sans', 'Bitstream Vera Sans', 'Computer Modern Sans Serif', 'Lucida Grande', 'Verdana', 'Geneva', 'Lucid', 'Arial', 'Helvetica', 'Avant Garde', sans-serif; text-anchor: end; fill: #ffffff" x="37.533594" y="143.144185" transform="rotate(-0 37.533594 143.144185)">0</text>
     </g>
    </g>
    <g id="ytick_6">
     <g id="line2d_51">
      <path d="M 44.533594 70.253337 
L 766.73125 70.253337 
" clip-path="url(#p148f0c2be8)" style="fill: none; stroke-dasharray: 2.96,1.28; stroke-dashoffset: 0; stroke: #555555; stroke-opacity: 0.5; stroke-width: 0.8"/>
     </g>
     <g id="line2d_52">
      <g>
       <use xlink:href="#m5e07181663" x="44.533594" y="70.253337" style="fill: #ffffff; stroke: #ffffff; stroke-width: 0.8"/>
      </g>
     </g>
     <g id="text_14">
      <text style="font-size: 10px; font-family: 'DejaVu Sans', 'Bitstream Vera Sans', 'Computer Modern Sans Serif', 'Lucida Grande', 'Verdana', 'Geneva', 'Lucid', 'Arial', 'Helvetica', 'Avant Garde', sans-serif; text-anchor: end; fill: #ffffff" x="37.533594" y="74.052165" transform="rotate(-0 37.533594 74.052165)">5</text>
     </g>
    </g>
    <g id="text_15">
     <text style="font-size: 10px; font-family: 'DejaVu Sans', 'Bitstream Vera Sans', 'Computer Modern Sans Serif', 'Lucida Grande', 'Verdana', 'Geneva', 'Lucid', 'Arial', 'Helvetica', 'Avant Garde', sans-serif; text-anchor: middle; fill: #ffffff" x="14.798438" y="222.255781" transform="rotate(-90 14.798438 222.255781)">Nivel respecto al campo libre [dB]</text>
    </g>
   </g>
   <g id="line2d_53">
    <path d="M 44.533594 56.434933 
L 766.73125 56.434933 
" clip-path="url(#p148f0c2be8)" style="fill: none; stroke-dasharray: 1,1.65; stroke-dashoffset: 0; stroke: #ffffff; stroke-opacity: 0.7"/>
   </g>
   <g id="line2d_54">
    <path d="M 44.533594 139.345357 
L 766.73125 139.345357 
" clip-path="url(#p148f0c2be8)" style="fill: none; stroke: #ffffff; stroke-opacity: 0.6; stroke-width: 0.8; stroke-linecap: square"/>
   </g>
   <g id="patch_3">
    <path d="M 44.533594 415.713437 
L 44.533594 28.798125 
" style="fill: none; stroke: #ffffff; stroke-width: 0.8; stroke-linejoin: miter; stroke-linecap: square"/>
   </g>
   <g id="patch_4">
    <path d="M 766.73125 415.713437 
L 766.73125 28.798125 
" style="fill: none; stroke: #ffffff; stroke-width: 0.8; stroke-linejoin: miter; stroke-linecap: square"/>
   </g>
   <g id="patch_5">
    <path d="M 44.533594 415.713437 
L 766.73125 415.713437 
" style="fill: none; stroke: #ffffff; stroke-width: 0.8; stroke-linejoin: miter; stroke-linecap: square"/>
   </g>
   <g id="patch_6">
    <path d="M 44.533594 28.798125 
L 766.73125 28.798125 
" style="fill: none; stroke: #ffffff; stroke-width: 0.8; stroke-linejoin: miter; stroke-linecap: square"/>
   </g>
   <g id="line2d_55">
    <path d="M 44.533594 179.137174 
L 71.683882 194.427839 
L 97.02415 208.617395 
L 111.504304 216.483648 
L 124.174438 223.115154 
L 135.034553 228.552308 
L 144.084649 232.872422 
L 153.134745 236.971543 
L 162.184841 240.822934 
L 171.234937 244.400983 
L 178.475014 247.05037 
L 185.71509 249.4979 
L 192.955167 251.733007 
L 200.195244 253.746139 
L 207.435321 255.52885 
L 214.675397 257.073884 
L 221.915474 258.375237 
L 229.155551 259.428202 
L 236.395628 260.229396 
L 243.635704 260.776765 
L 250.875781 261.069569 
L 258.115858 261.108346 
L 265.355935 260.894866 
L 272.596012 260.432059 
L 279.836088 259.723932 
L 287.076165 258.775485 
L 294.316242 257.592602 
L 301.556319 256.181949 
L 308.796395 254.550864 
L 316.036472 252.707249 
L 323.276549 250.65946 
L 330.516626 248.416209 
L 339.566721 245.350956 
L 348.616817 242.012176 
L 357.666913 238.417892 
L 366.717009 234.58608 
L 375.767105 230.534498 
L 386.62722 225.406957 
L 397.487336 220.017117 
L 408.347451 214.392975 
L 421.017585 207.570961 
L 433.687719 200.506676 
L 448.167873 192.185197 
L 464.458046 182.570937 
L 484.368257 170.557452 
L 516.948602 150.583072 
L 549.528947 130.687104 
L 567.629139 119.881811 
L 582.109293 111.464434 
L 594.779427 104.32379 
L 607.449561 97.449084 
L 618.309677 91.815315 
L 627.359772 87.337493 
L 636.409868 83.088931 
L 645.459964 79.103941 
L 652.700041 76.131915 
L 659.940118 73.376381 
L 667.180195 70.862976 
L 674.420271 68.620664 
L 679.850329 67.136459 
L 685.280387 65.838722 
L 690.710444 64.744707 
L 696.140502 63.873616 
L 701.570559 63.2469 
L 707.000617 62.888632 
L 712.430674 62.82596 
L 716.050713 62.963431 
L 719.670751 63.256028 
L 723.290789 63.714873 
L 726.910828 64.35218 
L 730.530866 65.181411 
L 734.150905 66.217459 
L 737.770943 67.476861 
L 741.390981 68.978069 
L 745.01102 70.741765 
L 748.631058 72.79125 
L 752.251096 75.152933 
L 755.871135 77.856931 
L 759.491173 80.937832 
L 763.111212 84.435665 
L 766.73125 88.39716 
L 766.73125 88.39716 
" clip-path="url(#p148f0c2be8)" style="fill: none; stroke: #2ca02c; stroke-width: 1.8; stroke-linecap: square"/>
   </g>
   <g id="line2d_56">
    <path d="M 44.533594 103.716865 
L 57.203728 107.402236 
L 69.873862 111.293582 
L 84.354016 115.989167 
L 98.834169 120.940331 
L 113.314323 126.131063 
L 129.604496 132.227384 
L 147.704687 139.264508 
L 171.234937 148.686675 
L 207.435321 163.215803 
L 223.725493 169.488749 
L 236.395628 174.134549 
L 247.255743 177.899311 
L 258.115858 181.418777 
L 267.165954 184.133963 
L 276.21605 186.62598 
L 285.266146 188.872223 
L 294.316242 190.851528 
L 301.556319 192.229716 
L 308.796395 193.415749 
L 316.036472 194.401728 
L 323.276549 195.180851 
L 330.516626 195.747479 
L 337.756702 196.097198 
L 344.996779 196.226847 
L 352.236856 196.134532 
L 359.476933 195.819622 
L 366.717009 195.282718 
L 373.957086 194.52561 
L 381.197163 193.551214 
L 388.43724 192.363497 
L 395.677316 190.967394 
L 402.917393 189.368711 
L 410.15747 187.57403 
L 417.397547 185.590607 
L 426.447643 182.857888 
L 435.497738 179.858859 
L 444.547834 176.610748 
L 453.59793 173.131437 
L 462.648026 169.43925 
L 473.508141 164.753817 
L 484.368257 159.820972 
L 497.038391 153.796482 
L 509.708525 147.530559 
L 525.998698 139.201749 
L 547.718928 127.79499 
L 587.53935 106.816007 
L 602.019504 99.448719 
L 614.689638 93.241471 
L 625.549753 88.160548 
L 634.599849 84.137757 
L 643.649945 80.345806 
L 652.700041 76.825786 
L 659.940118 74.236705 
L 667.180195 71.878372 
L 674.420271 69.781053 
L 679.850329 68.399745 
L 685.280387 67.200488 
L 690.710444 66.201074 
L 696.140502 65.421252 
L 701.570559 64.883036 
L 707.000617 64.611086 
L 712.430674 64.633175 
L 716.050713 64.826618 
L 719.670751 65.175009 
L 723.290789 65.689699 
L 726.910828 66.383154 
L 730.530866 67.269112 
L 734.150905 68.362766 
L 737.770943 69.680995 
L 741.390981 71.242631 
L 745.01102 73.06879 
L 748.631058 75.183276 
L 752.251096 77.613078 
L 755.871135 80.388997 
L 759.491173 83.546435 
L 763.111212 87.1264 
L 766.73125 91.176816 
L 766.73125 91.176816 
" clip-path="url(#p148f0c2be8)" style="fill: none; stroke: #9467bd; stroke-width: 1.8; stroke-linecap: square"/>
   </g>
   <g id="line2d_57">
    <path d="M 44.533594 74.624717 
L 62.633786 76.888853 
L 80.733978 79.390178 
L 97.02415 81.855919 
L 113.314323 84.534103 
L 129.604496 87.431425 
L 145.894668 90.55167 
L 162.184841 93.894782 
L 178.475014 97.455789 
L 196.575206 101.654282 
L 214.675397 106.08181 
L 236.395628 111.640127 
L 268.975973 120.25995 
L 297.93628 127.844821 
L 314.226453 131.897648 
L 328.706606 135.270409 
L 341.376741 137.982362 
L 352.236856 140.087573 
L 363.096971 141.955422 
L 372.147067 143.307263 
L 381.197163 144.453835 
L 390.247259 145.37829 
L 399.297355 146.065213 
L 408.347451 146.500956 
L 417.397547 146.673938 
L 426.447643 146.574911 
L 433.687719 146.295254 
L 440.927796 145.834986 
L 448.167873 145.193064 
L 455.40795 144.369603 
L 464.458046 143.087037 
L 473.508141 141.527875 
L 482.558237 139.699787 
L 491.608333 137.612982 
L 500.658429 135.28003 
L 509.708525 132.715666 
L 518.758621 129.936587 
L 529.618736 126.344376 
L 540.478851 122.504541 
L 553.148986 117.762394 
L 567.629139 112.076526 
L 587.53935 103.981228 
L 614.689638 92.932 
L 627.359772 87.991599 
L 638.219888 83.975163 
L 647.269984 80.838922 
L 656.320079 77.946068 
L 663.560156 75.843563 
L 670.800233 73.963041 
L 678.04031 72.339422 
L 683.470367 71.313708 
L 688.900425 70.472873 
L 694.330482 69.837227 
L 699.76054 69.429288 
L 705.190598 69.274154 
L 710.620655 69.399961 
L 716.050713 69.838452 
L 719.670751 70.322093 
L 723.290789 70.972542 
L 726.910828 71.802886 
L 730.530866 72.827545 
L 734.150905 74.062472 
L 737.770943 75.525392 
L 741.390981 77.236097 
L 745.01102 79.216796 
L 748.631058 81.492554 
L 752.251096 84.091827 
L 755.871135 87.04714 
L 759.491173 90.395944 
L 763.111212 94.181707 
L 766.73125 98.455344 
L 766.73125 98.455344 
" clip-path="url(#p148f0c2be8)" style="fill: none; stroke: #1f77b4; stroke-width: 1.8; stroke-linecap: square"/>
   </g>
   <g id="line2d_58">
    <path d="M 44.533594 56.907192 
L 118.74438 57.381477 
L 176.664995 57.965248 
L 225.535513 58.678122 
L 265.355935 59.469309 
L 301.556319 60.410742 
L 332.326645 61.429353 
L 359.476933 62.542477 
L 383.007182 63.71162 
L 404.727412 64.999626 
L 424.637623 66.395968 
L 442.737815 67.882815 
L 459.027988 69.433904 
L 473.508141 71.013883 
L 487.988295 72.817428 
L 500.658429 74.610255 
L 513.328564 76.637245 
L 524.188679 78.590278 
L 535.048794 80.772785 
L 544.09889 82.791322 
L 553.148986 85.0159 
L 562.199082 87.473135 
L 571.249178 90.193874 
L 578.489254 92.584124 
L 585.729331 95.18702 
L 592.969408 98.026603 
L 600.209485 101.130317 
L 607.449561 104.529611 
L 612.879619 107.294628 
L 618.309677 110.263461 
L 623.739734 113.455455 
L 629.169792 116.892291 
L 634.599849 120.598332 
L 640.029907 124.601028 
L 645.459964 128.931372 
L 650.890022 133.624427 
L 656.320079 138.719895 
L 661.750137 144.262706 
L 665.370175 148.231221 
L 668.990214 152.437482 
L 672.610252 156.89922 
L 676.230291 161.635299 
L 679.850329 166.665518 
L 683.470367 172.01021 
L 687.090406 177.689524 
L 690.710444 183.722194 
L 694.330482 190.123502 
L 697.950521 196.901972 
L 701.570559 204.05411 
L 707.000617 215.422535 
L 721.48077 246.630469 
L 723.290789 250.006141 
L 725.100809 253.068737 
L 726.910828 255.739769 
L 728.720847 257.939046 
L 730.530866 259.589707 
L 732.340885 260.624237 
L 734.150905 260.99073 
L 735.960924 260.658317 
L 737.770943 259.620655 
L 739.580962 257.896711 
L 741.390981 255.528639 
L 743.201001 252.577252 
L 745.01102 249.116062 
L 746.821039 245.225014 
L 750.441077 236.472771 
L 754.061116 226.906862 
L 766.73125 192.550627 
L 766.73125 192.550627 
" clip-path="url(#p148f0c2be8)" style="fill: none; stroke: #d62728; stroke-width: 1.8; stroke-linecap: square"/>
   </g>
   <g id="text_16">
    <text style="font-weight: 700; font-size: 12px; font-family: 'DejaVu Sans', 'Bitstream Vera Sans', 'Computer Modern Sans Serif', 'Lucida Grande', 'Verdana', 'Geneva', 'Lucid', 'Arial', 'Helvetica', 'Avant Garde', sans-serif; text-anchor: middle; fill: #ffffff" x="405.632422" y="16.798125" transform="rotate(-0 405.632422 16.798125)">Efecto suelo de onda esférica (Weyl-Van der Pol)</text>
   </g>
   <g id="legend_1">
    <g id="patch_7">
     <path d="M 50.833594 411.213437 
L 214.785469 411.213437 
Q 216.585469 411.213437 216.585469 409.413437 
L 216.585469 342.449922 
Q 216.585469 340.649922 214.785469 340.649922 
L 50.833594 340.649922 
Q 49.033594 340.649922 49.033594 342.449922 
L 49.033594 409.413437 
Q 49.033594 411.213437 50.833594 411.213437 
z
" style="opacity: 0.8; stroke: #cccccc; stroke-linejoin: miter"/>
    </g>
    <g id="line2d_59">
     <path d="M 52.633594 347.938516 
L 61.633594 347.938516 
L 70.633594 347.938516 
" style="fill: none; stroke: #2ca02c; stroke-width: 1.8; stroke-linecap: square"/>
    </g>
    <g id="text_17">
     <text style="font-size: 9px; font-family: 'DejaVu Sans', 'Bitstream Vera Sans', 'Computer Modern Sans Serif', 'Lucida Grande', 'Verdana', 'Geneva', 'Lucid', 'Arial', 'Helvetica', 'Avant Garde', sans-serif; text-anchor: start; fill: #ffffff" x="77.833594" y="351.088516" transform="rotate(-0 77.833594 351.088516)">Nieve reciente (10 kPa·s·m⁻²)</text>
    </g>
    <g id="line2d_60">
     <path d="M 52.633594 361.439219 
L 61.633594 361.439219 
L 70.633594 361.439219 
" style="fill: none; stroke: #9467bd; stroke-width: 1.8; stroke-linecap: square"/>
    </g>
    <g id="text_18">
     <text style="font-size: 9px; font-family: 'DejaVu Sans', 'Bitstream Vera Sans', 'Computer Modern Sans Serif', 'Lucida Grande', 'Verdana', 'Geneva', 'Lucid', 'Arial', 'Helvetica', 'Avant Garde', sans-serif; text-anchor: start; fill: #ffffff" x="77.833594" y="364.589219" transform="rotate(-0 77.833594 364.589219)">Suelo forestal (50 kPa·s·m⁻²)</text>
    </g>
    <g id="line2d_61">
     <path d="M 52.633594 374.939922 
L 61.633594 374.939922 
L 70.633594 374.939922 
" style="fill: none; stroke: #1f77b4; stroke-width: 1.8; stroke-linecap: square"/>
    </g>
    <g id="text_19">
     <text style="font-size: 9px; font-family: 'DejaVu Sans', 'Bitstream Vera Sans', 'Computer Modern Sans Serif', 'Lucida Grande', 'Verdana', 'Geneva', 'Lucid', 'Arial', 'Helvetica', 'Avant Garde', sans-serif; text-anchor: start; fill: #ffffff" x="77.833594" y="378.089922" transform="rotate(-0 77.833594 378.089922)">Pradera (200 kPa·s·m⁻²)</text>
    </g>
    <g id="line2d_62">
     <path d="M 52.633594 388.440625 
L 61.633594 388.440625 
L 70.633594 388.440625 
" style="fill: none; stroke: #d62728; stroke-width: 1.8; stroke-linecap: square"/>
    </g>
    <g id="text_20">
     <text style="font-size: 9px; font-family: 'DejaVu Sans', 'Bitstream Vera Sans', 'Computer Modern Sans Serif', 'Lucida Grande', 'Verdana', 'Geneva', 'Lucid', 'Arial', 'Helvetica', 'Avant Garde', sans-serif; text-anchor: start; fill: #ffffff" x="77.833594" y="391.590625" transform="rotate(-0 77.833594 391.590625)">Asfalto (20 000 kPa·s·m⁻²)</text>
    </g>
    <g id="line2d_63">
     <path d="M 52.633594 402.301328 
L 61.633594 402.301328 
L 70.633594 402.301328 
" style="fill: none; stroke-dasharray: 1,1.65; stroke-dashoffset: 0; stroke: #ffffff; stroke-opacity: 0.7"/>
    </g>
    <g id="text_21">
     <text style="font-size: 9px; font-family: 'DejaVu Sans', 'Bitstream Vera Sans', 'Computer Modern Sans Serif', 'Lucida Grande', 'Verdana', 'Geneva', 'Lucid', 'Arial', 'Helvetica', 'Avant Garde', sans-serif; text-anchor: start; fill: #ffffff" x="77.833594" y="405.451328" transform="rotate(-0 77.833594 405.451328)">Límite de suelo rígido (+6 dB)</text>
    </g>
   </g>
  </g>
 </g>
 <defs>
  <clipPath id="p148f0c2be8">
   <rect x="44.533594" y="28.798125" width="722.197656" height="386.915313"/>
  </clipPath>
 </defs>
</svg>
