<?xml version="1.0" encoding="utf-8" standalone="no"?>
<!DOCTYPE svg PUBLIC "-//W3C//DTD SVG 1.1//EN"
  "http://www.w3.org/Graphics/SVG/1.1/DTD/svg11.dtd">
<svg xmlns:xlink="http://www.w3.org/1999/xlink" width="622.428906pt" height="400.038906pt" viewBox="0 0 622.428906 400.038906" xmlns="http://www.w3.org/2000/svg" version="1.1">
 <metadata>
  <rdf:RDF xmlns:dc="http://purl.org/dc/elements/1.1/" xmlns:cc="http://creativecommons.org/ns#" xmlns:rdf="http://www.w3.org/1999/02/22-rdf-syntax-ns#">
   <cc:Work>
    <dc:type rdf:resource="http://purl.org/dc/dcmitype/StillImage"/>
    <dc:format>image/svg+xml</dc:format>
    <dc:creator>
     <cc:Agent>
      <dc:title>Matplotlib v3.11.1, https://matplotlib.org/</dc:title>
     </cc:Agent>
    </dc:creator>
   </cc:Work>
  </rdf:RDF>
 </metadata>
 <defs>
  <style type="text/css">*{stroke-linejoin: round; stroke-linecap: butt}</style>
 </defs>
 <g id="figure_1">
  <g id="patch_1">
   <path d="M 0 400.038906 
L 622.428906 400.038906 
L 622.428906 0 
L 0 0 
z
" style="fill: #ffffff"/>
  </g>
  <g id="axes_1">
   <g id="patch_2">
    <path d="M 50.866406 361.438125 
L 608.866406 361.438125 
L 608.866406 28.798125 
L 50.866406 28.798125 
z
" style="fill: #ffffff"/>
   </g>
   <g id="FillBetweenPolyCollection_1">
    <defs>
     <path id="m5ac66c8421" d="M 53.191406 -38.600781 
L 53.191406 -175.734908 
L 55.516406 -175.734908 
L 57.841406 -175.734908 
L 60.166406 -175.734908 
L 62.491406 -175.734908 
L 64.816406 -175.734908 
L 67.141406 -175.734908 
L 69.466406 -175.734908 
L 71.791406 -175.734908 
L 74.116406 -268.167418 
L 76.441406 -268.167418 
L 78.766406 -268.167418 
L 81.091406 -268.167418 
L 83.416406 -268.167418 
L 85.741406 -268.167418 
L 88.066406 -268.167418 
L 90.391406 -268.167418 
L 92.716406 -268.167418 
L 95.041406 -271.594358 
L 97.366406 -271.594358 
L 99.691406 -271.594358 
L 102.016406 -271.594358 
L 104.341406 -271.594358 
L 106.666406 -271.594358 
L 108.991406 -271.594358 
L 111.316406 -271.594358 
L 113.641406 -271.594358 
L 115.966406 -271.594358 
L 118.291406 -257.510752 
L 120.616406 -246.49486 
L 122.941406 -246.49486 
L 125.266406 -246.49486 
L 127.591406 -246.49486 
L 129.916406 -246.49486 
L 132.241406 -246.49486 
L 134.566406 -243.521256 
L 136.891406 -243.521256 
L 139.216406 -243.521256 
L 141.541406 -243.521256 
L 143.866406 -243.521256 
L 146.191406 -243.521256 
L 148.516406 -243.521256 
L 150.841406 -243.521256 
L 153.166406 -243.521256 
L 155.491406 -238.099977 
L 157.816406 -238.099977 
L 160.141406 -238.099977 
L 162.466406 -238.099977 
L 164.791406 -238.099977 
L 167.116406 -238.099977 
L 169.441406 -238.099977 
L 171.766406 -238.099977 
L 174.091406 -238.099977 
L 176.416406 -238.099977 
L 178.741406 -232.810548 
L 181.066406 -232.810548 
L 183.391406 -232.810548 
L 185.716406 -232.810548 
L 188.041406 -232.810548 
L 190.366406 -232.810548 
L 192.691406 -232.810548 
L 195.016406 -232.810548 
L 197.341406 -232.810548 
L 199.666406 -232.810548 
L 201.991406 -232.810548 
L 204.316406 -232.810548 
L 206.641406 -226.496517 
L 208.966406 -226.496517 
L 211.291406 -226.496517 
L 213.616406 -226.496517 
L 215.941406 -226.496517 
L 218.266406 -226.496517 
L 220.591406 -226.496517 
L 222.916406 -226.496517 
L 225.241406 -226.496517 
L 227.566406 -226.496517 
L 229.891406 -226.496517 
L 232.216406 -226.496517 
L 234.541406 -226.496517 
L 236.866406 -222.617188 
L 239.191406 -222.617188 
L 241.516406 -222.617188 
L 243.841406 -222.617188 
L 246.166406 -222.617188 
L 248.491406 -222.617188 
L 250.816406 -222.617188 
L 253.141406 -222.617188 
L 255.466406 -222.617188 
L 257.791406 -222.617188 
L 260.116406 -222.617188 
L 262.441406 -222.617188 
L 264.766406 -222.617188 
L 267.091406 -220.381226 
L 269.416406 -220.381226 
L 271.741406 -220.381226 
L 274.066406 -220.381226 
L 276.391406 -220.381226 
L 278.716406 -220.381226 
L 281.041406 -220.381226 
L 283.366406 -220.381226 
L 285.691406 -220.381226 
L 288.016406 -220.381226 
L 290.341406 -220.381226 
L 292.666406 -220.381226 
L 294.991406 -220.381226 
L 297.316406 -220.381226 
L 299.641406 -224.879043 
L 301.966406 -224.879043 
L 304.291406 -224.879043 
L 306.616406 -224.879043 
L 308.941406 -224.879043 
L 311.266406 -224.879043 
L 313.591406 -224.879043 
L 315.916406 -224.879043 
L 318.241406 -224.879043 
L 320.566406 -224.879043 
L 322.891406 -224.879043 
L 325.216406 -224.879043 
L 327.541406 -224.879043 
L 329.866406 -224.879043 
L 332.191406 -224.879043 
L 334.516406 -224.879043 
L 336.841406 -224.879043 
L 339.166406 -237.795632 
L 341.491406 -237.795632 
L 343.816406 -237.795632 
L 346.141406 -237.795632 
L 348.466406 -237.795632 
L 350.791406 -237.795632 
L 353.116406 -237.795632 
L 355.441406 -237.795632 
L 357.766406 -237.795632 
L 360.091406 -237.795632 
L 362.416406 -237.795632 
L 364.741406 -237.795632 
L 367.066406 -237.795632 
L 369.391406 -237.795632 
L 371.716406 -237.795632 
L 374.041406 -259.438035 
L 376.366406 -259.438035 
L 378.691406 -259.438035 
L 381.016406 -259.438035 
L 383.341406 -259.438035 
L 385.666406 -259.438035 
L 387.991406 -259.438035 
L 390.316406 -259.438035 
L 392.641406 -259.438035 
L 394.966406 -259.438035 
L 397.291406 -259.438035 
L 399.616406 -259.438035 
L 401.941406 -259.438035 
L 404.266406 -259.438035 
L 406.591406 -292.302675 
L 408.916406 -292.302675 
L 411.241406 -292.302675 
L 413.566406 -292.302675 
L 415.891406 -292.302675 
L 418.216406 -292.302675 
L 420.541406 -292.302675 
L 422.866406 -292.302675 
L 425.191406 -292.302675 
L 427.516406 -292.302675 
L 429.841406 -292.302675 
L 432.166406 -292.302675 
L 434.491406 -292.302675 
L 436.816406 -292.302675 
L 439.141406 -292.302675 
L 441.466406 -298.475781 
L 443.791406 -298.475781 
L 446.116406 -298.475781 
L 448.441406 -298.475781 
L 450.766406 -298.475781 
L 453.091406 -298.475781 
L 455.416406 -298.475781 
L 457.741406 -298.475781 
L 460.066406 -298.475781 
L 462.391406 -298.475781 
L 464.716406 -298.475781 
L 467.041406 -298.475781 
L 469.366406 -298.475781 
L 471.691406 -298.475781 
L 474.016406 -286.190082 
L 476.341406 -277.477699 
L 478.666406 -277.477699 
L 480.991406 -277.477699 
L 483.316406 -277.477699 
L 485.641406 -277.477699 
L 487.966406 -277.477699 
L 490.291406 -277.477699 
L 492.616406 -277.477699 
L 494.941406 -277.477699 
L 497.266406 -277.477699 
L 499.591406 -277.477699 
L 501.916406 -265.192 
L 504.241406 -252.894003 
L 506.566406 -248.989346 
L 508.891406 -248.989346 
L 511.216406 -248.989346 
L 513.541406 -248.989346 
L 515.866406 -248.989346 
L 518.191406 -248.989346 
L 520.516406 -248.989346 
L 522.841406 -248.989346 
L 525.166406 -248.989346 
L 527.491406 -248.989346 
L 529.816406 -248.989346 
L 532.141406 -238.133869 
L 534.466406 -228.835384 
L 536.791406 -219.536899 
L 539.116406 -211.690418 
L 541.441406 -211.690418 
L 543.766406 -211.690418 
L 546.091406 -211.690418 
L 548.416406 -211.690418 
L 550.741406 -211.690418 
L 553.066406 -211.690418 
L 555.391406 -211.690418 
L 557.716406 -211.690418 
L 560.041406 -202.401231 
L 562.366406 -193.102745 
L 564.691406 -186.97346 
L 567.016406 -186.97346 
L 569.341406 -186.97346 
L 571.666406 -186.97346 
L 573.991406 -186.97346 
L 576.316406 -186.97346 
L 578.641406 -186.97346 
L 580.966406 -177.684273 
L 583.291406 -168.385788 
L 585.616406 -159.89164 
L 587.941406 -153.592666 
L 590.266406 -147.293692 
L 592.591406 -140.994718 
L 594.916406 -137.1292 
L 597.241406 -137.1292 
L 599.566406 -137.1292 
L 601.891406 -130.836525 
L 604.216406 -124.537551 
L 606.541406 -118.238577 
L 608.866406 -111.939603 
L 608.866406 -38.600781 
L 608.866406 -38.600781 
L 606.541406 -38.600781 
L 604.216406 -38.600781 
L 601.891406 -38.600781 
L 599.566406 -38.600781 
L 597.241406 -38.600781 
L 594.916406 -38.600781 
L 592.591406 -38.600781 
L 590.266406 -38.600781 
L 587.941406 -38.600781 
L 585.616406 -38.600781 
L 583.291406 -38.600781 
L 580.966406 -38.600781 
L 578.641406 -38.600781 
L 576.316406 -38.600781 
L 573.991406 -38.600781 
L 571.666406 -38.600781 
L 569.341406 -38.600781 
L 567.016406 -38.600781 
L 564.691406 -38.600781 
L 562.366406 -38.600781 
L 560.041406 -38.600781 
L 557.716406 -38.600781 
L 555.391406 -38.600781 
L 553.066406 -38.600781 
L 550.741406 -38.600781 
L 548.416406 -38.600781 
L 546.091406 -38.600781 
L 543.766406 -38.600781 
L 541.441406 -38.600781 
L 539.116406 -38.600781 
L 536.791406 -38.600781 
L 534.466406 -38.600781 
L 532.141406 -38.600781 
L 529.816406 -38.600781 
L 527.491406 -38.600781 
L 525.166406 -38.600781 
L 522.841406 -38.600781 
L 520.516406 -38.600781 
L 518.191406 -38.600781 
L 515.866406 -38.600781 
L 513.541406 -38.600781 
L 511.216406 -38.600781 
L 508.891406 -38.600781 
L 506.566406 -38.600781 
L 504.241406 -38.600781 
L 501.916406 -38.600781 
L 499.591406 -38.600781 
L 497.266406 -38.600781 
L 494.941406 -38.600781 
L 492.616406 -38.600781 
L 490.291406 -38.600781 
L 487.966406 -38.600781 
L 485.641406 -38.600781 
L 483.316406 -38.600781 
L 480.991406 -38.600781 
L 478.666406 -38.600781 
L 476.341406 -38.600781 
L 474.016406 -38.600781 
L 471.691406 -38.600781 
L 469.366406 -38.600781 
L 467.041406 -38.600781 
L 464.716406 -38.600781 
L 462.391406 -38.600781 
L 460.066406 -38.600781 
L 457.741406 -38.600781 
L 455.416406 -38.600781 
L 453.091406 -38.600781 
L 450.766406 -38.600781 
L 448.441406 -38.600781 
L 446.116406 -38.600781 
L 443.791406 -38.600781 
L 441.466406 -38.600781 
L 439.141406 -38.600781 
L 436.816406 -38.600781 
L 434.491406 -38.600781 
L 432.166406 -38.600781 
L 429.841406 -38.600781 
L 427.516406 -38.600781 
L 425.191406 -38.600781 
L 422.866406 -38.600781 
L 420.541406 -38.600781 
L 418.216406 -38.600781 
L 415.891406 -38.600781 
L 413.566406 -38.600781 
L 411.241406 -38.600781 
L 408.916406 -38.600781 
L 406.591406 -38.600781 
L 404.266406 -38.600781 
L 401.941406 -38.600781 
L 399.616406 -38.600781 
L 397.291406 -38.600781 
L 394.966406 -38.600781 
L 392.641406 -38.600781 
L 390.316406 -38.600781 
L 387.991406 -38.600781 
L 385.666406 -38.600781 
L 383.341406 -38.600781 
L 381.016406 -38.600781 
L 378.691406 -38.600781 
L 376.366406 -38.600781 
L 374.041406 -38.600781 
L 371.716406 -38.600781 
L 369.391406 -38.600781 
L 367.066406 -38.600781 
L 364.741406 -38.600781 
L 362.416406 -38.600781 
L 360.091406 -38.600781 
L 357.766406 -38.600781 
L 355.441406 -38.600781 
L 353.116406 -38.600781 
L 350.791406 -38.600781 
L 348.466406 -38.600781 
L 346.141406 -38.600781 
L 343.816406 -38.600781 
L 341.491406 -38.600781 
L 339.166406 -38.600781 
L 336.841406 -38.600781 
L 334.516406 -38.600781 
L 332.191406 -38.600781 
L 329.866406 -38.600781 
L 327.541406 -38.600781 
L 325.216406 -38.600781 
L 322.891406 -38.600781 
L 320.566406 -38.600781 
L 318.241406 -38.600781 
L 315.916406 -38.600781 
L 313.591406 -38.600781 
L 311.266406 -38.600781 
L 308.941406 -38.600781 
L 306.616406 -38.600781 
L 304.291406 -38.600781 
L 301.966406 -38.600781 
L 299.641406 -38.600781 
L 297.316406 -38.600781 
L 294.991406 -38.600781 
L 292.666406 -38.600781 
L 290.341406 -38.600781 
L 288.016406 -38.600781 
L 285.691406 -38.600781 
L 283.366406 -38.600781 
L 281.041406 -38.600781 
L 278.716406 -38.600781 
L 276.391406 -38.600781 
L 274.066406 -38.600781 
L 271.741406 -38.600781 
L 269.416406 -38.600781 
L 267.091406 -38.600781 
L 264.766406 -38.600781 
L 262.441406 -38.600781 
L 260.116406 -38.600781 
L 257.791406 -38.600781 
L 255.466406 -38.600781 
L 253.141406 -38.600781 
L 250.816406 -38.600781 
L 248.491406 -38.600781 
L 246.166406 -38.600781 
L 243.841406 -38.600781 
L 241.516406 -38.600781 
L 239.191406 -38.600781 
L 236.866406 -38.600781 
L 234.541406 -38.600781 
L 232.216406 -38.600781 
L 229.891406 -38.600781 
L 227.566406 -38.600781 
L 225.241406 -38.600781 
L 222.916406 -38.600781 
L 220.591406 -38.600781 
L 218.266406 -38.600781 
L 215.941406 -38.600781 
L 213.616406 -38.600781 
L 211.291406 -38.600781 
L 208.966406 -38.600781 
L 206.641406 -38.600781 
L 204.316406 -38.600781 
L 201.991406 -38.600781 
L 199.666406 -38.600781 
L 197.341406 -38.600781 
L 195.016406 -38.600781 
L 192.691406 -38.600781 
L 190.366406 -38.600781 
L 188.041406 -38.600781 
L 185.716406 -38.600781 
L 183.391406 -38.600781 
L 181.066406 -38.600781 
L 178.741406 -38.600781 
L 176.416406 -38.600781 
L 174.091406 -38.600781 
L 171.766406 -38.600781 
L 169.441406 -38.600781 
L 167.116406 -38.600781 
L 164.791406 -38.600781 
L 162.466406 -38.600781 
L 160.141406 -38.600781 
L 157.816406 -38.600781 
L 155.491406 -38.600781 
L 153.166406 -38.600781 
L 150.841406 -38.600781 
L 148.516406 -38.600781 
L 146.191406 -38.600781 
L 143.866406 -38.600781 
L 141.541406 -38.600781 
L 139.216406 -38.600781 
L 136.891406 -38.600781 
L 134.566406 -38.600781 
L 132.241406 -38.600781 
L 129.916406 -38.600781 
L 127.591406 -38.600781 
L 125.266406 -38.600781 
L 122.941406 -38.600781 
L 120.616406 -38.600781 
L 118.291406 -38.600781 
L 115.966406 -38.600781 
L 113.641406 -38.600781 
L 111.316406 -38.600781 
L 108.991406 -38.600781 
L 106.666406 -38.600781 
L 104.341406 -38.600781 
L 102.016406 -38.600781 
L 99.691406 -38.600781 
L 97.366406 -38.600781 
L 95.041406 -38.600781 
L 92.716406 -38.600781 
L 90.391406 -38.600781 
L 88.066406 -38.600781 
L 85.741406 -38.600781 
L 83.416406 -38.600781 
L 81.091406 -38.600781 
L 78.766406 -38.600781 
L 76.441406 -38.600781 
L 74.116406 -38.600781 
L 71.791406 -38.600781 
L 69.466406 -38.600781 
L 67.141406 -38.600781 
L 64.816406 -38.600781 
L 62.491406 -38.600781 
L 60.166406 -38.600781 
L 57.841406 -38.600781 
L 55.516406 -38.600781 
L 53.191406 -38.600781 
z
" style="stroke: #d62728; stroke-opacity: 0.25"/>
    </defs>
    <g clip-path="url(#p7b8f5cfe52)">
     <use xlink:href="#m5ac66c8421" x="0" y="400.038906" style="fill: #d62728; fill-opacity: 0.25; stroke: #d62728; stroke-opacity: 0.25"/>
    </g>
   </g>
   <g id="FillBetweenPolyCollection_2">
    <defs>
     <path id="m0d2e843419" d="M 53.191406 -38.600781 
L 53.191406 -38.600781 
L 55.516406 -38.600781 
L 57.841406 -38.600781 
L 60.166406 -38.600781 
L 62.491406 -38.600781 
L 64.816406 -38.600781 
L 67.141406 -38.600781 
L 69.466406 -38.600781 
L 71.791406 -38.600781 
L 74.116406 -38.600781 
L 76.441406 -38.600781 
L 78.766406 -38.600781 
L 81.091406 -38.600781 
L 83.416406 -38.600781 
L 85.741406 -38.600781 
L 88.066406 -38.600781 
L 90.391406 -38.600781 
L 92.716406 -38.600781 
L 95.041406 -38.600781 
L 97.366406 -38.600781 
L 99.691406 -38.600781 
L 102.016406 -38.600781 
L 104.341406 -38.600781 
L 106.666406 -38.600781 
L 108.991406 -38.600781 
L 111.316406 -38.600781 
L 113.641406 -38.600781 
L 115.966406 -38.600781 
L 118.291406 -38.600781 
L 120.616406 -38.600781 
L 122.941406 -38.600781 
L 125.266406 -38.600781 
L 127.591406 -38.600781 
L 129.916406 -38.600781 
L 132.241406 -38.600781 
L 134.566406 -38.600781 
L 136.891406 -38.600781 
L 139.216406 -38.600781 
L 141.541406 -38.600781 
L 143.866406 -38.600781 
L 146.191406 -38.600781 
L 148.516406 -38.600781 
L 150.841406 -38.600781 
L 153.166406 -38.600781 
L 155.491406 -38.600781 
L 157.816406 -38.600781 
L 160.141406 -38.600781 
L 162.466406 -38.600781 
L 164.791406 -38.600781 
L 167.116406 -38.600781 
L 169.441406 -38.600781 
L 171.766406 -38.600781 
L 174.091406 -38.600781 
L 176.416406 -38.600781 
L 178.741406 -38.600781 
L 181.066406 -38.600781 
L 183.391406 -38.600781 
L 185.716406 -38.600781 
L 188.041406 -38.600781 
L 190.366406 -38.600781 
L 192.691406 -38.600781 
L 195.016406 -38.600781 
L 197.341406 -38.600781 
L 199.666406 -38.600781 
L 201.991406 -38.600781 
L 204.316406 -38.600781 
L 206.641406 -38.600781 
L 208.966406 -38.600781 
L 211.291406 -38.600781 
L 213.616406 -38.600781 
L 215.941406 -38.600781 
L 218.266406 -38.600781 
L 220.591406 -38.600781 
L 222.916406 -38.600781 
L 225.241406 -38.600781 
L 227.566406 -38.600781 
L 229.891406 -38.600781 
L 232.216406 -38.600781 
L 234.541406 -38.600781 
L 236.866406 -222.617188 
L 239.191406 -222.617188 
L 241.516406 -222.617188 
L 243.841406 -222.617188 
L 246.166406 -222.617188 
L 248.491406 -222.617188 
L 250.816406 -222.617188 
L 253.141406 -222.617188 
L 255.466406 -222.617188 
L 257.791406 -222.617188 
L 260.116406 -222.617188 
L 262.441406 -222.617188 
L 264.766406 -222.617188 
L 267.091406 -213.328001 
L 269.416406 -204.029516 
L 271.741406 -194.73103 
L 274.066406 -185.432545 
L 276.391406 -176.134059 
L 278.716406 -166.835574 
L 281.041406 -158.841495 
L 283.366406 -152.542521 
L 285.691406 -146.243547 
L 288.016406 -139.944573 
L 290.341406 -133.645599 
L 292.666406 -127.346625 
L 294.991406 -121.047651 
L 297.316406 -114.748677 
L 299.641406 -108.449703 
L 301.966406 -102.150729 
L 304.291406 -98.584501 
L 306.616406 -95.285038 
L 308.941406 -91.985576 
L 311.266406 -88.686113 
L 313.591406 -85.386651 
L 315.916406 -82.429521 
L 318.241406 -79.879936 
L 320.566406 -77.330352 
L 322.891406 -74.780767 
L 325.216406 -72.231182 
L 327.541406 -70.35706 
L 329.866406 -68.707328 
L 332.191406 -67.057597 
L 334.516406 -65.407866 
L 336.841406 -63.758134 
L 339.166406 -62.108403 
L 341.491406 -60.632793 
L 343.816406 -59.432989 
L 346.141406 -58.233184 
L 348.466406 -57.03338 
L 350.791406 -55.833575 
L 353.116406 -54.63377 
L 355.441406 -53.495606 
L 357.766406 -52.745728 
L 360.091406 -51.99585 
L 362.416406 -51.245972 
L 364.741406 -50.496094 
L 367.066406 -49.746216 
L 369.391406 -48.996338 
L 371.716406 -48.246461 
L 374.041406 -47.496583 
L 376.366406 -46.746705 
L 378.691406 -45.996827 
L 381.016406 -45.246949 
L 383.341406 -44.497071 
L 385.666406 -43.808833 
L 387.991406 -43.508882 
L 390.316406 -43.208931 
L 392.641406 -42.90898 
L 394.966406 -42.609029 
L 397.291406 -42.309077 
L 399.616406 -42.009126 
L 401.941406 -41.709175 
L 404.266406 -41.409224 
L 406.591406 -41.109273 
L 408.916406 -40.809322 
L 411.241406 -40.509371 
L 413.566406 -40.209419 
L 415.891406 -39.909468 
L 418.216406 -39.609517 
L 420.541406 -39.309566 
L 422.866406 -39.009615 
L 425.191406 -38.709664 
L 427.516406 -38.600781 
L 429.841406 -38.600781 
L 432.166406 -38.600781 
L 434.491406 -38.600781 
L 436.816406 -38.600781 
L 439.141406 -38.600781 
L 441.466406 -38.600781 
L 443.791406 -38.600781 
L 446.116406 -38.600781 
L 448.441406 -38.600781 
L 450.766406 -38.600781 
L 453.091406 -38.600781 
L 455.416406 -38.600781 
L 457.741406 -38.600781 
L 460.066406 -38.600781 
L 462.391406 -38.600781 
L 464.716406 -38.600781 
L 467.041406 -38.600781 
L 469.366406 -38.600781 
L 471.691406 -38.600781 
L 474.016406 -38.600781 
L 476.341406 -38.600781 
L 478.666406 -38.600781 
L 480.991406 -38.600781 
L 483.316406 -38.600781 
L 485.641406 -38.600781 
L 487.966406 -38.600781 
L 490.291406 -38.600781 
L 492.616406 -38.600781 
L 494.941406 -38.600781 
L 497.266406 -38.600781 
L 499.591406 -38.600781 
L 501.916406 -38.600781 
L 504.241406 -38.600781 
L 506.566406 -38.600781 
L 508.891406 -38.600781 
L 511.216406 -38.600781 
L 513.541406 -38.600781 
L 515.866406 -38.600781 
L 518.191406 -38.600781 
L 520.516406 -38.600781 
L 522.841406 -38.600781 
L 525.166406 -38.600781 
L 527.491406 -38.600781 
L 529.816406 -38.600781 
L 532.141406 -38.600781 
L 534.466406 -38.600781 
L 536.791406 -38.600781 
L 539.116406 -38.600781 
L 541.441406 -38.600781 
L 543.766406 -38.600781 
L 546.091406 -38.600781 
L 548.416406 -38.600781 
L 550.741406 -38.600781 
L 553.066406 -38.600781 
L 555.391406 -38.600781 
L 557.716406 -38.600781 
L 560.041406 -38.600781 
L 562.366406 -38.600781 
L 564.691406 -38.600781 
L 567.016406 -38.600781 
L 569.341406 -38.600781 
L 571.666406 -38.600781 
L 573.991406 -38.600781 
L 576.316406 -38.600781 
L 578.641406 -38.600781 
L 580.966406 -38.600781 
L 583.291406 -38.600781 
L 585.616406 -38.600781 
L 587.941406 -38.600781 
L 590.266406 -38.600781 
L 592.591406 -38.600781 
L 594.916406 -38.600781 
L 597.241406 -38.600781 
L 599.566406 -38.600781 
L 601.891406 -38.600781 
L 604.216406 -38.600781 
L 606.541406 -38.600781 
L 608.866406 -38.600781 
L 608.866406 -38.600781 
L 608.866406 -38.600781 
L 606.541406 -38.600781 
L 604.216406 -38.600781 
L 601.891406 -38.600781 
L 599.566406 -38.600781 
L 597.241406 -38.600781 
L 594.916406 -38.600781 
L 592.591406 -38.600781 
L 590.266406 -38.600781 
L 587.941406 -38.600781 
L 585.616406 -38.600781 
L 583.291406 -38.600781 
L 580.966406 -38.600781 
L 578.641406 -38.600781 
L 576.316406 -38.600781 
L 573.991406 -38.600781 
L 571.666406 -38.600781 
L 569.341406 -38.600781 
L 567.016406 -38.600781 
L 564.691406 -38.600781 
L 562.366406 -38.600781 
L 560.041406 -38.600781 
L 557.716406 -38.600781 
L 555.391406 -38.600781 
L 553.066406 -38.600781 
L 550.741406 -38.600781 
L 548.416406 -38.600781 
L 546.091406 -38.600781 
L 543.766406 -38.600781 
L 541.441406 -38.600781 
L 539.116406 -38.600781 
L 536.791406 -38.600781 
L 534.466406 -38.600781 
L 532.141406 -38.600781 
L 529.816406 -38.600781 
L 527.491406 -38.600781 
L 525.166406 -38.600781 
L 522.841406 -38.600781 
L 520.516406 -38.600781 
L 518.191406 -38.600781 
L 515.866406 -38.600781 
L 513.541406 -38.600781 
L 511.216406 -38.600781 
L 508.891406 -38.600781 
L 506.566406 -38.600781 
L 504.241406 -38.600781 
L 501.916406 -38.600781 
L 499.591406 -38.600781 
L 497.266406 -38.600781 
L 494.941406 -38.600781 
L 492.616406 -38.600781 
L 490.291406 -38.600781 
L 487.966406 -38.600781 
L 485.641406 -38.600781 
L 483.316406 -38.600781 
L 480.991406 -38.600781 
L 478.666406 -38.600781 
L 476.341406 -38.600781 
L 474.016406 -38.600781 
L 471.691406 -38.600781 
L 469.366406 -38.600781 
L 467.041406 -38.600781 
L 464.716406 -38.600781 
L 462.391406 -38.600781 
L 460.066406 -38.600781 
L 457.741406 -38.600781 
L 455.416406 -38.600781 
L 453.091406 -38.600781 
L 450.766406 -38.600781 
L 448.441406 -38.600781 
L 446.116406 -38.600781 
L 443.791406 -38.600781 
L 441.466406 -38.600781 
L 439.141406 -38.600781 
L 436.816406 -38.600781 
L 434.491406 -38.600781 
L 432.166406 -38.600781 
L 429.841406 -38.600781 
L 427.516406 -38.600781 
L 425.191406 -38.600781 
L 422.866406 -38.600781 
L 420.541406 -38.600781 
L 418.216406 -38.600781 
L 415.891406 -38.600781 
L 413.566406 -38.600781 
L 411.241406 -38.600781 
L 408.916406 -38.600781 
L 406.591406 -38.600781 
L 404.266406 -38.600781 
L 401.941406 -38.600781 
L 399.616406 -38.600781 
L 397.291406 -38.600781 
L 394.966406 -38.600781 
L 392.641406 -38.600781 
L 390.316406 -38.600781 
L 387.991406 -38.600781 
L 385.666406 -38.600781 
L 383.341406 -38.600781 
L 381.016406 -38.600781 
L 378.691406 -38.600781 
L 376.366406 -38.600781 
L 374.041406 -38.600781 
L 371.716406 -38.600781 
L 369.391406 -38.600781 
L 367.066406 -38.600781 
L 364.741406 -38.600781 
L 362.416406 -38.600781 
L 360.091406 -38.600781 
L 357.766406 -38.600781 
L 355.441406 -38.600781 
L 353.116406 -38.600781 
L 350.791406 -38.600781 
L 348.466406 -38.600781 
L 346.141406 -38.600781 
L 343.816406 -38.600781 
L 341.491406 -38.600781 
L 339.166406 -38.600781 
L 336.841406 -38.600781 
L 334.516406 -38.600781 
L 332.191406 -38.600781 
L 329.866406 -38.600781 
L 327.541406 -38.600781 
L 325.216406 -38.600781 
L 322.891406 -38.600781 
L 320.566406 -38.600781 
L 318.241406 -38.600781 
L 315.916406 -38.600781 
L 313.591406 -38.600781 
L 311.266406 -38.600781 
L 308.941406 -38.600781 
L 306.616406 -38.600781 
L 304.291406 -38.600781 
L 301.966406 -38.600781 
L 299.641406 -38.600781 
L 297.316406 -38.600781 
L 294.991406 -38.600781 
L 292.666406 -38.600781 
L 290.341406 -38.600781 
L 288.016406 -38.600781 
L 285.691406 -38.600781 
L 283.366406 -38.600781 
L 281.041406 -38.600781 
L 278.716406 -38.600781 
L 276.391406 -38.600781 
L 274.066406 -38.600781 
L 271.741406 -38.600781 
L 269.416406 -38.600781 
L 267.091406 -38.600781 
L 264.766406 -38.600781 
L 262.441406 -38.600781 
L 260.116406 -38.600781 
L 257.791406 -38.600781 
L 255.466406 -38.600781 
L 253.141406 -38.600781 
L 250.816406 -38.600781 
L 248.491406 -38.600781 
L 246.166406 -38.600781 
L 243.841406 -38.600781 
L 241.516406 -38.600781 
L 239.191406 -38.600781 
L 236.866406 -38.600781 
L 234.541406 -38.600781 
L 232.216406 -38.600781 
L 229.891406 -38.600781 
L 227.566406 -38.600781 
L 225.241406 -38.600781 
L 222.916406 -38.600781 
L 220.591406 -38.600781 
L 218.266406 -38.600781 
L 215.941406 -38.600781 
L 213.616406 -38.600781 
L 211.291406 -38.600781 
L 208.966406 -38.600781 
L 206.641406 -38.600781 
L 204.316406 -38.600781 
L 201.991406 -38.600781 
L 199.666406 -38.600781 
L 197.341406 -38.600781 
L 195.016406 -38.600781 
L 192.691406 -38.600781 
L 190.366406 -38.600781 
L 188.041406 -38.600781 
L 185.716406 -38.600781 
L 183.391406 -38.600781 
L 181.066406 -38.600781 
L 178.741406 -38.600781 
L 176.416406 -38.600781 
L 174.091406 -38.600781 
L 171.766406 -38.600781 
L 169.441406 -38.600781 
L 167.116406 -38.600781 
L 164.791406 -38.600781 
L 162.466406 -38.600781 
L 160.141406 -38.600781 
L 157.816406 -38.600781 
L 155.491406 -38.600781 
L 153.166406 -38.600781 
L 150.841406 -38.600781 
L 148.516406 -38.600781 
L 146.191406 -38.600781 
L 143.866406 -38.600781 
L 141.541406 -38.600781 
L 139.216406 -38.600781 
L 136.891406 -38.600781 
L 134.566406 -38.600781 
L 132.241406 -38.600781 
L 129.916406 -38.600781 
L 127.591406 -38.600781 
L 125.266406 -38.600781 
L 122.941406 -38.600781 
L 120.616406 -38.600781 
L 118.291406 -38.600781 
L 115.966406 -38.600781 
L 113.641406 -38.600781 
L 111.316406 -38.600781 
L 108.991406 -38.600781 
L 106.666406 -38.600781 
L 104.341406 -38.600781 
L 102.016406 -38.600781 
L 99.691406 -38.600781 
L 97.366406 -38.600781 
L 95.041406 -38.600781 
L 92.716406 -38.600781 
L 90.391406 -38.600781 
L 88.066406 -38.600781 
L 85.741406 -38.600781 
L 83.416406 -38.600781 
L 81.091406 -38.600781 
L 78.766406 -38.600781 
L 76.441406 -38.600781 
L 74.116406 -38.600781 
L 71.791406 -38.600781 
L 69.466406 -38.600781 
L 67.141406 -38.600781 
L 64.816406 -38.600781 
L 62.491406 -38.600781 
L 60.166406 -38.600781 
L 57.841406 -38.600781 
L 55.516406 -38.600781 
L 53.191406 -38.600781 
z
" style="stroke: #1f77b4; stroke-opacity: 0.35"/>
    </defs>
    <g clip-path="url(#p7b8f5cfe52)">
     <use xlink:href="#m0d2e843419" x="0" y="400.038906" style="fill: #1f77b4; fill-opacity: 0.35; stroke: #1f77b4; stroke-opacity: 0.35"/>
    </g>
   </g>
   <g id="matplotlib.axis_1">
    <g id="xtick_1">
     <g id="line2d_1">
      <path d="M 50.866406 361.438125 
L 50.866406 28.798125 
" clip-path="url(#p7b8f5cfe52)" style="fill: none; stroke-dasharray: 2.96,1.28; stroke-dashoffset: 0; stroke: #b0b0b0; stroke-opacity: 0.5; stroke-width: 0.8"/>
     </g>
     <g id="line2d_2">
      <defs>
       <path id="m3d27035b55" d="M 0 0 
L 0 3.5 
" style="stroke: #000000; stroke-width: 0.8"/>
      </defs>
      <g>
       <use xlink:href="#m3d27035b55" x="50.866406" y="361.438125" style="stroke: #000000; stroke-width: 0.8"/>
      </g>
     </g>
     <g id="text_1">
      <text style="font-size: 10px; font-family: 'DejaVu Sans', 'Bitstream Vera Sans', 'Computer Modern Sans Serif', 'Lucida Grande', 'Verdana', 'Geneva', 'Lucid', 'Arial', 'Helvetica', 'Avant Garde', sans-serif; text-anchor: middle" x="50.866406" y="376.035781" transform="rotate(-0 50.866406 376.035781)">0</text>
     </g>
    </g>
    <g id="xtick_2">
     <g id="line2d_3">
      <path d="M 143.866406 361.438125 
L 143.866406 28.798125 
" clip-path="url(#p7b8f5cfe52)" style="fill: none; stroke-dasharray: 2.96,1.28; stroke-dashoffset: 0; stroke: #b0b0b0; stroke-opacity: 0.5; stroke-width: 0.8"/>
     </g>
     <g id="line2d_4">
      <g>
       <use xlink:href="#m3d27035b55" x="143.866406" y="361.438125" style="stroke: #000000; stroke-width: 0.8"/>
      </g>
     </g>
     <g id="text_2">
      <text style="font-size: 10px; font-family: 'DejaVu Sans', 'Bitstream Vera Sans', 'Computer Modern Sans Serif', 'Lucida Grande', 'Verdana', 'Geneva', 'Lucid', 'Arial', 'Helvetica', 'Avant Garde', sans-serif; text-anchor: middle" x="143.866406" y="376.035781" transform="rotate(-0 143.866406 376.035781)">4</text>
     </g>
    </g>
    <g id="xtick_3">
     <g id="line2d_5">
      <path d="M 236.866406 361.438125 
L 236.866406 28.798125 
" clip-path="url(#p7b8f5cfe52)" style="fill: none; stroke-dasharray: 2.96,1.28; stroke-dashoffset: 0; stroke: #b0b0b0; stroke-opacity: 0.5; stroke-width: 0.8"/>
     </g>
     <g id="line2d_6">
      <g>
       <use xlink:href="#m3d27035b55" x="236.866406" y="361.438125" style="stroke: #000000; stroke-width: 0.8"/>
      </g>
     </g>
     <g id="text_3">
      <text style="font-size: 10px; font-family: 'DejaVu Sans', 'Bitstream Vera Sans', 'Computer Modern Sans Serif', 'Lucida Grande', 'Verdana', 'Geneva', 'Lucid', 'Arial', 'Helvetica', 'Avant Garde', sans-serif; text-anchor: middle" x="236.866406" y="376.035781" transform="rotate(-0 236.866406 376.035781)">8</text>
     </g>
    </g>
    <g id="xtick_4">
     <g id="line2d_7">
      <path d="M 329.866406 361.438125 
L 329.866406 28.798125 
" clip-path="url(#p7b8f5cfe52)" style="fill: none; stroke-dasharray: 2.96,1.28; stroke-dashoffset: 0; stroke: #b0b0b0; stroke-opacity: 0.5; stroke-width: 0.8"/>
     </g>
     <g id="line2d_8">
      <g>
       <use xlink:href="#m3d27035b55" x="329.866406" y="361.438125" style="stroke: #000000; stroke-width: 0.8"/>
      </g>
     </g>
     <g id="text_4">
      <text style="font-size: 10px; font-family: 'DejaVu Sans', 'Bitstream Vera Sans', 'Computer Modern Sans Serif', 'Lucida Grande', 'Verdana', 'Geneva', 'Lucid', 'Arial', 'Helvetica', 'Avant Garde', sans-serif; text-anchor: middle" x="329.866406" y="376.035781" transform="rotate(-0 329.866406 376.035781)">12</text>
     </g>
    </g>
    <g id="xtick_5">
     <g id="line2d_9">
      <path d="M 422.866406 361.438125 
L 422.866406 28.798125 
" clip-path="url(#p7b8f5cfe52)" style="fill: none; stroke-dasharray: 2.96,1.28; stroke-dashoffset: 0; stroke: #b0b0b0; stroke-opacity: 0.5; stroke-width: 0.8"/>
     </g>
     <g id="line2d_10">
      <g>
       <use xlink:href="#m3d27035b55" x="422.866406" y="361.438125" style="stroke: #000000; stroke-width: 0.8"/>
      </g>
     </g>
     <g id="text_5">
      <text style="font-size: 10px; font-family: 'DejaVu Sans', 'Bitstream Vera Sans', 'Computer Modern Sans Serif', 'Lucida Grande', 'Verdana', 'Geneva', 'Lucid', 'Arial', 'Helvetica', 'Avant Garde', sans-serif; text-anchor: middle" x="422.866406" y="376.035781" transform="rotate(-0 422.866406 376.035781)">16</text>
     </g>
    </g>
    <g id="xtick_6">
     <g id="line2d_11">
      <path d="M 515.866406 361.438125 
L 515.866406 28.798125 
" clip-path="url(#p7b8f5cfe52)" style="fill: none; stroke-dasharray: 2.96,1.28; stroke-dashoffset: 0; stroke: #b0b0b0; stroke-opacity: 0.5; stroke-width: 0.8"/>
     </g>
     <g id="line2d_12">
      <g>
       <use xlink:href="#m3d27035b55" x="515.866406" y="361.438125" style="stroke: #000000; stroke-width: 0.8"/>
      </g>
     </g>
     <g id="text_6">
      <text style="font-size: 10px; font-family: 'DejaVu Sans', 'Bitstream Vera Sans', 'Computer Modern Sans Serif', 'Lucida Grande', 'Verdana', 'Geneva', 'Lucid', 'Arial', 'Helvetica', 'Avant Garde', sans-serif; text-anchor: middle" x="515.866406" y="376.035781" transform="rotate(-0 515.866406 376.035781)">20</text>
     </g>
    </g>
    <g id="xtick_7">
     <g id="line2d_13">
      <path d="M 608.866406 361.438125 
L 608.866406 28.798125 
" clip-path="url(#p7b8f5cfe52)" style="fill: none; stroke-dasharray: 2.96,1.28; stroke-dashoffset: 0; stroke: #b0b0b0; stroke-opacity: 0.5; stroke-width: 0.8"/>
     </g>
     <g id="line2d_14">
      <g>
       <use xlink:href="#m3d27035b55" x="608.866406" y="361.438125" style="stroke: #000000; stroke-width: 0.8"/>
      </g>
     </g>
     <g id="text_7">
      <text style="font-size: 10px; font-family: 'DejaVu Sans', 'Bitstream Vera Sans', 'Computer Modern Sans Serif', 'Lucida Grande', 'Verdana', 'Geneva', 'Lucid', 'Arial', 'Helvetica', 'Avant Garde', sans-serif; text-anchor: middle" x="608.866406" y="376.035781" transform="rotate(-0 608.866406 376.035781)">24</text>
     </g>
    </g>
    <g id="text_8">
     <text style="font-size: 10px; font-family: 'DejaVu Sans', 'Bitstream Vera Sans', 'Computer Modern Sans Serif', 'Lucida Grande', 'Verdana', 'Geneva', 'Lucid', 'Arial', 'Helvetica', 'Avant Garde', sans-serif; text-anchor: middle" x="329.866406" y="390.436562" transform="rotate(-0 329.866406 390.436562)">Razón de banda crítica z [Bark]</text>
    </g>
   </g>
   <g id="matplotlib.axis_2">
    <g id="ytick_1">
     <g id="line2d_15">
      <path d="M 50.866406 361.438125 
L 608.866406 361.438125 
" clip-path="url(#p7b8f5cfe52)" style="fill: none; stroke-dasharray: 2.96,1.28; stroke-dashoffset: 0; stroke: #b0b0b0; stroke-opacity: 0.5; stroke-width: 0.8"/>
     </g>
     <g id="line2d_16">
      <defs>
       <path id="mef640d9f3a" d="M 0 0 
L -3.5 0 
" style="stroke: #000000; stroke-width: 0.8"/>
      </defs>
      <g>
       <use xlink:href="#mef640d9f3a" x="50.866406" y="361.438125" style="stroke: #000000; stroke-width: 0.8"/>
      </g>
     </g>
     <g id="text_9">
      <text style="font-size: 10px; font-family: 'DejaVu Sans', 'Bitstream Vera Sans', 'Computer Modern Sans Serif', 'Lucida Grande', 'Verdana', 'Geneva', 'Lucid', 'Arial', 'Helvetica', 'Avant Garde', sans-serif; text-anchor: end" x="43.866406" y="365.236953" transform="rotate(-0 43.866406 365.236953)">0</text>
     </g>
    </g>
    <g id="ytick_2">
     <g id="line2d_17">
      <path d="M 50.866406 323.944232 
L 608.866406 323.944232 
" clip-path="url(#p7b8f5cfe52)" style="fill: none; stroke-dasharray: 2.96,1.28; stroke-dashoffset: 0; stroke: #b0b0b0; stroke-opacity: 0.5; stroke-width: 0.8"/>
     </g>
     <g id="line2d_18">
      <g>
       <use xlink:href="#mef640d9f3a" x="50.866406" y="323.944232" style="stroke: #000000; stroke-width: 0.8"/>
      </g>
     </g>
     <g id="text_10">
      <text style="font-size: 10px; font-family: 'DejaVu Sans', 'Bitstream Vera Sans', 'Computer Modern Sans Serif', 'Lucida Grande', 'Verdana', 'Geneva', 'Lucid', 'Arial', 'Helvetica', 'Avant Garde', sans-serif; text-anchor: end" x="43.866406" y="327.74306" transform="rotate(-0 43.866406 327.74306)">0,25</text>
     </g>
    </g>
    <g id="ytick_3">
     <g id="line2d_19">
      <path d="M 50.866406 286.450339 
L 608.866406 286.450339 
" clip-path="url(#p7b8f5cfe52)" style="fill: none; stroke-dasharray: 2.96,1.28; stroke-dashoffset: 0; stroke: #b0b0b0; stroke-opacity: 0.5; stroke-width: 0.8"/>
     </g>
     <g id="line2d_20">
      <g>
       <use xlink:href="#mef640d9f3a" x="50.866406" y="286.450339" style="stroke: #000000; stroke-width: 0.8"/>
      </g>
     </g>
     <g id="text_11">
      <text style="font-size: 10px; font-family: 'DejaVu Sans', 'Bitstream Vera Sans', 'Computer Modern Sans Serif', 'Lucida Grande', 'Verdana', 'Geneva', 'Lucid', 'Arial', 'Helvetica', 'Avant Garde', sans-serif; text-anchor: end" x="43.866406" y="290.249167" transform="rotate(-0 43.866406 290.249167)">0,5</text>
     </g>
    </g>
    <g id="ytick_4">
     <g id="line2d_21">
      <path d="M 50.866406 248.956446 
L 608.866406 248.956446 
" clip-path="url(#p7b8f5cfe52)" style="fill: none; stroke-dasharray: 2.96,1.28; stroke-dashoffset: 0; stroke: #b0b0b0; stroke-opacity: 0.5; stroke-width: 0.8"/>
     </g>
     <g id="line2d_22">
      <g>
       <use xlink:href="#mef640d9f3a" x="50.866406" y="248.956446" style="stroke: #000000; stroke-width: 0.8"/>
      </g>
     </g>
     <g id="text_12">
      <text style="font-size: 10px; font-family: 'DejaVu Sans', 'Bitstream Vera Sans', 'Computer Modern Sans Serif', 'Lucida Grande', 'Verdana', 'Geneva', 'Lucid', 'Arial', 'Helvetica', 'Avant Garde', sans-serif; text-anchor: end" x="43.866406" y="252.755274" transform="rotate(-0 43.866406 252.755274)">0,75</text>
     </g>
    </g>
    <g id="ytick_5">
     <g id="line2d_23">
      <path d="M 50.866406 211.462553 
L 608.866406 211.462553 
" clip-path="url(#p7b8f5cfe52)" style="fill: none; stroke-dasharray: 2.96,1.28; stroke-dashoffset: 0; stroke: #b0b0b0; stroke-opacity: 0.5; stroke-width: 0.8"/>
     </g>
     <g id="line2d_24">
      <g>
       <use xlink:href="#mef640d9f3a" x="50.866406" y="211.462553" style="stroke: #000000; stroke-width: 0.8"/>
      </g>
     </g>
     <g id="text_13">
      <text style="font-size: 10px; font-family: 'DejaVu Sans', 'Bitstream Vera Sans', 'Computer Modern Sans Serif', 'Lucida Grande', 'Verdana', 'Geneva', 'Lucid', 'Arial', 'Helvetica', 'Avant Garde', sans-serif; text-anchor: end" x="43.866406" y="215.261381" transform="rotate(-0 43.866406 215.261381)">1</text>
     </g>
    </g>
    <g id="ytick_6">
     <g id="line2d_25">
      <path d="M 50.866406 173.96866 
L 608.866406 173.96866 
" clip-path="url(#p7b8f5cfe52)" style="fill: none; stroke-dasharray: 2.96,1.28; stroke-dashoffset: 0; stroke: #b0b0b0; stroke-opacity: 0.5; stroke-width: 0.8"/>
     </g>
     <g id="line2d_26">
      <g>
       <use xlink:href="#mef640d9f3a" x="50.866406" y="173.96866" style="stroke: #000000; stroke-width: 0.8"/>
      </g>
     </g>
     <g id="text_14">
      <text style="font-size: 10px; font-family: 'DejaVu Sans', 'Bitstream Vera Sans', 'Computer Modern Sans Serif', 'Lucida Grande', 'Verdana', 'Geneva', 'Lucid', 'Arial', 'Helvetica', 'Avant Garde', sans-serif; text-anchor: end" x="43.866406" y="177.767489" transform="rotate(-0 43.866406 177.767489)">1,25</text>
     </g>
    </g>
    <g id="ytick_7">
     <g id="line2d_27">
      <path d="M 50.866406 136.474768 
L 608.866406 136.474768 
" clip-path="url(#p7b8f5cfe52)" style="fill: none; stroke-dasharray: 2.96,1.28; stroke-dashoffset: 0; stroke: #b0b0b0; stroke-opacity: 0.5; stroke-width: 0.8"/>
     </g>
     <g id="line2d_28">
      <g>
       <use xlink:href="#mef640d9f3a" x="50.866406" y="136.474768" style="stroke: #000000; stroke-width: 0.8"/>
      </g>
     </g>
     <g id="text_15">
      <text style="font-size: 10px; font-family: 'DejaVu Sans', 'Bitstream Vera Sans', 'Computer Modern Sans Serif', 'Lucida Grande', 'Verdana', 'Geneva', 'Lucid', 'Arial', 'Helvetica', 'Avant Garde', sans-serif; text-anchor: end" x="43.866406" y="140.273596" transform="rotate(-0 43.866406 140.273596)">1,5</text>
     </g>
    </g>
    <g id="ytick_8">
     <g id="line2d_29">
      <path d="M 50.866406 98.980875 
L 608.866406 98.980875 
" clip-path="url(#p7b8f5cfe52)" style="fill: none; stroke-dasharray: 2.96,1.28; stroke-dashoffset: 0; stroke: #b0b0b0; stroke-opacity: 0.5; stroke-width: 0.8"/>
     </g>
     <g id="line2d_30">
      <g>
       <use xlink:href="#mef640d9f3a" x="50.866406" y="98.980875" style="stroke: #000000; stroke-width: 0.8"/>
      </g>
     </g>
     <g id="text_16">
      <text style="font-size: 10px; font-family: 'DejaVu Sans', 'Bitstream Vera Sans', 'Computer Modern Sans Serif', 'Lucida Grande', 'Verdana', 'Geneva', 'Lucid', 'Arial', 'Helvetica', 'Avant Garde', sans-serif; text-anchor: end" x="43.866406" y="102.779703" transform="rotate(-0 43.866406 102.779703)">1,75</text>
     </g>
    </g>
    <g id="ytick_9">
     <g id="line2d_31">
      <path d="M 50.866406 61.486982 
L 608.866406 61.486982 
" clip-path="url(#p7b8f5cfe52)" style="fill: none; stroke-dasharray: 2.96,1.28; stroke-dashoffset: 0; stroke: #b0b0b0; stroke-opacity: 0.5; stroke-width: 0.8"/>
     </g>
     <g id="line2d_32">
      <g>
       <use xlink:href="#mef640d9f3a" x="50.866406" y="61.486982" style="stroke: #000000; stroke-width: 0.8"/>
      </g>
     </g>
     <g id="text_17">
      <text style="font-size: 10px; font-family: 'DejaVu Sans', 'Bitstream Vera Sans', 'Computer Modern Sans Serif', 'Lucida Grande', 'Verdana', 'Geneva', 'Lucid', 'Arial', 'Helvetica', 'Avant Garde', sans-serif; text-anchor: end" x="43.866406" y="65.28581" transform="rotate(-0 43.866406 65.28581)">2</text>
     </g>
    </g>
    <g id="text_18">
     <text style="font-size: 10px; font-family: 'DejaVu Sans', 'Bitstream Vera Sans', 'Computer Modern Sans Serif', 'Lucida Grande', 'Verdana', 'Geneva', 'Lucid', 'Arial', 'Helvetica', 'Avant Garde', sans-serif; text-anchor: middle" x="15.198438" y="195.118125" transform="rotate(-90 15.198438 195.118125)">Sonoridad específica N' [sonios/Bark]</text>
    </g>
   </g>
   <g id="line2d_33">
    <path d="M 53.191406 224.303998 
L 71.791406 224.303998 
L 74.116406 131.871488 
L 92.716406 131.871488 
L 95.041406 128.444548 
L 115.966406 128.444548 
L 118.291406 142.528154 
L 120.616406 153.544046 
L 132.241406 153.544046 
L 134.566406 156.51765 
L 153.166406 156.51765 
L 155.491406 161.938929 
L 176.416406 161.938929 
L 178.741406 167.228359 
L 204.316406 167.228359 
L 206.641406 173.542389 
L 234.541406 173.542389 
L 236.866406 177.421718 
L 264.766406 177.421718 
L 267.091406 179.657681 
L 297.316406 179.657681 
L 299.641406 175.159864 
L 336.841406 175.159864 
L 339.166406 162.243274 
L 371.716406 162.243274 
L 374.041406 140.600871 
L 404.266406 140.600871 
L 406.591406 107.736231 
L 439.141406 107.736231 
L 441.466406 101.563125 
L 471.691406 101.563125 
L 474.016406 113.848824 
L 476.341406 122.561207 
L 499.591406 122.561207 
L 504.241406 147.144903 
L 506.566406 151.04956 
L 529.816406 151.04956 
L 532.141406 161.905037 
L 536.791406 180.502008 
L 539.116406 188.348489 
L 557.716406 188.348489 
L 562.366406 206.936161 
L 564.691406 213.065446 
L 578.641406 213.065446 
L 583.291406 231.653118 
L 585.616406 240.147266 
L 592.591406 259.044188 
L 594.916406 262.909706 
L 599.566406 262.909706 
L 608.866406 288.099303 
L 608.866406 288.099303 
" clip-path="url(#p7b8f5cfe52)" style="fill: none; stroke: #d62728; stroke-width: 1.6; stroke-linecap: square"/>
   </g>
   <g id="line2d_34">
    <path d="M 53.191406 361.438125 
L 234.541406 361.438125 
L 236.866406 177.421718 
L 264.766406 177.421718 
L 278.716406 233.203332 
L 281.041406 241.197411 
L 301.966406 297.888177 
L 304.291406 301.454405 
L 313.591406 314.652255 
L 315.916406 317.609385 
L 325.216406 327.807724 
L 327.541406 329.681847 
L 339.166406 337.930503 
L 341.491406 339.406113 
L 355.441406 346.543301 
L 385.666406 356.230073 
L 425.191406 361.329243 
L 429.841406 361.438125 
L 608.866406 361.438125 
L 608.866406 361.438125 
" clip-path="url(#p7b8f5cfe52)" style="fill: none; stroke: #1f77b4; stroke-width: 1.6; stroke-linecap: square"/>
   </g>
   <g id="patch_3">
    <path d="M 50.866406 361.438125 
L 50.866406 28.798125 
" style="fill: none; stroke: #000000; stroke-width: 0.8; stroke-linejoin: miter; stroke-linecap: square"/>
   </g>
   <g id="patch_4">
    <path d="M 608.866406 361.438125 
L 608.866406 28.798125 
" style="fill: none; stroke: #000000; stroke-width: 0.8; stroke-linejoin: miter; stroke-linecap: square"/>
   </g>
   <g id="patch_5">
    <path d="M 50.866406 361.438125 
L 608.866406 361.438125 
" style="fill: none; stroke: #000000; stroke-width: 0.8; stroke-linejoin: miter; stroke-linecap: square"/>
   </g>
   <g id="patch_6">
    <path d="M 50.866406 28.798125 
L 608.866406 28.798125 
" style="fill: none; stroke: #000000; stroke-width: 0.8; stroke-linejoin: miter; stroke-linecap: square"/>
   </g>
   <g id="patch_7">
    <path d="M 406.821391 228.440851 
Q 329.769887 253.229845 253.676262 277.71067 
" style="fill: none; stroke: #000000; stroke-width: 0.9; stroke-linecap: round"/>
    <path d="M 258.096574 278.389523 
L 253.676262 277.71067 
L 256.871533 274.581732 
" style="fill: none; stroke: #000000; stroke-width: 0.9; stroke-linecap: round"/>
   </g>
   <g id="text_19">
    <text style="font-size: 10px; font-family: 'DejaVu Sans', 'Bitstream Vera Sans', 'Computer Modern Sans Serif', 'Lucida Grande', 'Verdana', 'Geneva', 'Lucid', 'Arial', 'Helvetica', 'Avant Garde', sans-serif; text-anchor: start" x="341.491406" y="223.42582" transform="rotate(-0 341.491406 223.42582)">Área sombreada = sonoridad total N</text>
   </g>
   <g id="text_20">
    <text style="font-weight: 700; font-size: 12px; font-family: 'DejaVu Sans', 'Bitstream Vera Sans', 'Computer Modern Sans Serif', 'Lucida Grande', 'Verdana', 'Geneva', 'Lucid', 'Arial', 'Helvetica', 'Avant Garde', sans-serif; text-anchor: middle" x="329.866406" y="16.798125" transform="rotate(-0 329.866406 16.798125)">Patrón de sonoridad específica (Zwicker, ISO 532-1)</text>
   </g>
   <g id="legend_1">
    <g id="patch_8">
     <path d="M 369.193594 62.999531 
L 602.566406 62.999531 
Q 604.366406 62.999531 604.366406 61.199531 
L 604.366406 35.098125 
Q 604.366406 33.298125 602.566406 33.298125 
L 369.193594 33.298125 
Q 367.393594 33.298125 367.393594 35.098125 
L 367.393594 61.199531 
Q 367.393594 62.999531 369.193594 62.999531 
z
" style="fill: #ffffff; opacity: 0.8; stroke: #cccccc; stroke-linejoin: miter"/>
    </g>
    <g id="line2d_35">
     <path d="M 370.993594 40.586719 
L 379.993594 40.586719 
L 388.993594 40.586719 
" style="fill: none; stroke: #d62728; stroke-width: 1.6; stroke-linecap: square"/>
    </g>
    <g id="text_21">
     <text style="font-size: 9px; font-family: 'DejaVu Sans', 'Bitstream Vera Sans', 'Computer Modern Sans Serif', 'Lucida Grande', 'Verdana', 'Geneva', 'Lucid', 'Arial', 'Helvetica', 'Avant Garde', sans-serif; text-anchor: start" x="396.193594" y="43.736719" transform="rotate(-0 396.193594 43.736719)">Banda ancha plana a 60 dB - N = 31,9 sonios</text>
    </g>
    <g id="line2d_36">
     <path d="M 370.993594 54.087422 
L 379.993594 54.087422 
L 388.993594 54.087422 
" style="fill: none; stroke: #1f77b4; stroke-width: 1.6; stroke-linecap: square"/>
    </g>
    <g id="text_22">
     <text style="font-size: 9px; font-family: 'DejaVu Sans', 'Bitstream Vera Sans', 'Computer Modern Sans Serif', 'Lucida Grande', 'Verdana', 'Geneva', 'Lucid', 'Arial', 'Helvetica', 'Avant Garde', sans-serif; text-anchor: start" x="396.193594" y="57.237422" transform="rotate(-0 396.193594 57.237422)">Banda estrecha de 1 kHz - N = 3,5 sonios</text>
    </g>
   </g>
  </g>
 </g>
 <defs>
  <clipPath id="p7b8f5cfe52">
   <rect x="50.866406" y="28.798125" width="558" height="332.64"/>
  </clipPath>
 </defs>
</svg>
