<?xml version="1.0" encoding="utf-8" standalone="no"?>
<!DOCTYPE svg PUBLIC "-//W3C//DTD SVG 1.1//EN"
  "http://www.w3.org/Graphics/SVG/1.1/DTD/svg11.dtd">
<svg xmlns:xlink="http://www.w3.org/1999/xlink" width="622.028906pt" height="399.158906pt" viewBox="0 0 622.028906 399.158906" xmlns="http://www.w3.org/2000/svg" version="1.1">
 <metadata>
  <rdf:RDF xmlns:dc="http://purl.org/dc/elements/1.1/" xmlns:cc="http://creativecommons.org/ns#" xmlns:rdf="http://www.w3.org/1999/02/22-rdf-syntax-ns#">
   <cc:Work>
    <dc:type rdf:resource="http://purl.org/dc/dcmitype/StillImage"/>
    <dc:format>image/svg+xml</dc:format>
    <dc:creator>
     <cc:Agent>
      <dc:title>Matplotlib v3.11.1, https://matplotlib.org/</dc:title>
     </cc:Agent>
    </dc:creator>
   </cc:Work>
  </rdf:RDF>
 </metadata>
 <defs>
  <style type="text/css">*{stroke-linejoin: round; stroke-linecap: butt}</style>
 </defs>
 <g id="figure_1">
  <g id="patch_1">
   <path d="M 0 399.158906 
L 622.028906 399.158906 
L 622.028906 0 
L 0 0 
z
"/>
  </g>
  <g id="axes_1">
   <g id="patch_2">
    <path d="M 50.466406 360.958125 
L 608.466406 360.958125 
L 608.466406 28.318125 
L 50.466406 28.318125 
z
"/>
   </g>
   <g id="FillBetweenPolyCollection_1">
    <defs>
     <path id="m3ff6a9cf0f" d="M 52.791406 -38.200781 
L 52.791406 -175.334908 
L 55.116406 -175.334908 
L 57.441406 -175.334908 
L 59.766406 -175.334908 
L 62.091406 -175.334908 
L 64.416406 -175.334908 
L 66.741406 -175.334908 
L 69.066406 -175.334908 
L 71.391406 -175.334908 
L 73.716406 -267.767418 
L 76.041406 -267.767418 
L 78.366406 -267.767418 
L 80.691406 -267.767418 
L 83.016406 -267.767418 
L 85.341406 -267.767418 
L 87.666406 -267.767418 
L 89.991406 -267.767418 
L 92.316406 -267.767418 
L 94.641406 -271.194358 
L 96.966406 -271.194358 
L 99.291406 -271.194358 
L 101.616406 -271.194358 
L 103.941406 -271.194358 
L 106.266406 -271.194358 
L 108.591406 -271.194358 
L 110.916406 -271.194358 
L 113.241406 -271.194358 
L 115.566406 -271.194358 
L 117.891406 -257.110752 
L 120.216406 -246.09486 
L 122.541406 -246.09486 
L 124.866406 -246.09486 
L 127.191406 -246.09486 
L 129.516406 -246.09486 
L 131.841406 -246.09486 
L 134.166406 -243.121256 
L 136.491406 -243.121256 
L 138.816406 -243.121256 
L 141.141406 -243.121256 
L 143.466406 -243.121256 
L 145.791406 -243.121256 
L 148.116406 -243.121256 
L 150.441406 -243.121256 
L 152.766406 -243.121256 
L 155.091406 -237.699977 
L 157.416406 -237.699977 
L 159.741406 -237.699977 
L 162.066406 -237.699977 
L 164.391406 -237.699977 
L 166.716406 -237.699977 
L 169.041406 -237.699977 
L 171.366406 -237.699977 
L 173.691406 -237.699977 
L 176.016406 -237.699977 
L 178.341406 -232.410548 
L 180.666406 -232.410548 
L 182.991406 -232.410548 
L 185.316406 -232.410548 
L 187.641406 -232.410548 
L 189.966406 -232.410548 
L 192.291406 -232.410548 
L 194.616406 -232.410548 
L 196.941406 -232.410548 
L 199.266406 -232.410548 
L 201.591406 -232.410548 
L 203.916406 -232.410548 
L 206.241406 -226.096517 
L 208.566406 -226.096517 
L 210.891406 -226.096517 
L 213.216406 -226.096517 
L 215.541406 -226.096517 
L 217.866406 -226.096517 
L 220.191406 -226.096517 
L 222.516406 -226.096517 
L 224.841406 -226.096517 
L 227.166406 -226.096517 
L 229.491406 -226.096517 
L 231.816406 -226.096517 
L 234.141406 -226.096517 
L 236.466406 -222.217188 
L 238.791406 -222.217188 
L 241.116406 -222.217188 
L 243.441406 -222.217188 
L 245.766406 -222.217188 
L 248.091406 -222.217188 
L 250.416406 -222.217188 
L 252.741406 -222.217188 
L 255.066406 -222.217188 
L 257.391406 -222.217188 
L 259.716406 -222.217188 
L 262.041406 -222.217188 
L 264.366406 -222.217188 
L 266.691406 -219.981226 
L 269.016406 -219.981226 
L 271.341406 -219.981226 
L 273.666406 -219.981226 
L 275.991406 -219.981226 
L 278.316406 -219.981226 
L 280.641406 -219.981226 
L 282.966406 -219.981226 
L 285.291406 -219.981226 
L 287.616406 -219.981226 
L 289.941406 -219.981226 
L 292.266406 -219.981226 
L 294.591406 -219.981226 
L 296.916406 -219.981226 
L 299.241406 -224.479043 
L 301.566406 -224.479043 
L 303.891406 -224.479043 
L 306.216406 -224.479043 
L 308.541406 -224.479043 
L 310.866406 -224.479043 
L 313.191406 -224.479043 
L 315.516406 -224.479043 
L 317.841406 -224.479043 
L 320.166406 -224.479043 
L 322.491406 -224.479043 
L 324.816406 -224.479043 
L 327.141406 -224.479043 
L 329.466406 -224.479043 
L 331.791406 -224.479043 
L 334.116406 -224.479043 
L 336.441406 -224.479043 
L 338.766406 -237.395632 
L 341.091406 -237.395632 
L 343.416406 -237.395632 
L 345.741406 -237.395632 
L 348.066406 -237.395632 
L 350.391406 -237.395632 
L 352.716406 -237.395632 
L 355.041406 -237.395632 
L 357.366406 -237.395632 
L 359.691406 -237.395632 
L 362.016406 -237.395632 
L 364.341406 -237.395632 
L 366.666406 -237.395632 
L 368.991406 -237.395632 
L 371.316406 -237.395632 
L 373.641406 -259.038035 
L 375.966406 -259.038035 
L 378.291406 -259.038035 
L 380.616406 -259.038035 
L 382.941406 -259.038035 
L 385.266406 -259.038035 
L 387.591406 -259.038035 
L 389.916406 -259.038035 
L 392.241406 -259.038035 
L 394.566406 -259.038035 
L 396.891406 -259.038035 
L 399.216406 -259.038035 
L 401.541406 -259.038035 
L 403.866406 -259.038035 
L 406.191406 -291.902675 
L 408.516406 -291.902675 
L 410.841406 -291.902675 
L 413.166406 -291.902675 
L 415.491406 -291.902675 
L 417.816406 -291.902675 
L 420.141406 -291.902675 
L 422.466406 -291.902675 
L 424.791406 -291.902675 
L 427.116406 -291.902675 
L 429.441406 -291.902675 
L 431.766406 -291.902675 
L 434.091406 -291.902675 
L 436.416406 -291.902675 
L 438.741406 -291.902675 
L 441.066406 -298.075781 
L 443.391406 -298.075781 
L 445.716406 -298.075781 
L 448.041406 -298.075781 
L 450.366406 -298.075781 
L 452.691406 -298.075781 
L 455.016406 -298.075781 
L 457.341406 -298.075781 
L 459.666406 -298.075781 
L 461.991406 -298.075781 
L 464.316406 -298.075781 
L 466.641406 -298.075781 
L 468.966406 -298.075781 
L 471.291406 -298.075781 
L 473.616406 -285.790082 
L 475.941406 -277.077699 
L 478.266406 -277.077699 
L 480.591406 -277.077699 
L 482.916406 -277.077699 
L 485.241406 -277.077699 
L 487.566406 -277.077699 
L 489.891406 -277.077699 
L 492.216406 -277.077699 
L 494.541406 -277.077699 
L 496.866406 -277.077699 
L 499.191406 -277.077699 
L 501.516406 -264.792 
L 503.841406 -252.494003 
L 506.166406 -248.589346 
L 508.491406 -248.589346 
L 510.816406 -248.589346 
L 513.141406 -248.589346 
L 515.466406 -248.589346 
L 517.791406 -248.589346 
L 520.116406 -248.589346 
L 522.441406 -248.589346 
L 524.766406 -248.589346 
L 527.091406 -248.589346 
L 529.416406 -248.589346 
L 531.741406 -237.733869 
L 534.066406 -228.435384 
L 536.391406 -219.136899 
L 538.716406 -211.290418 
L 541.041406 -211.290418 
L 543.366406 -211.290418 
L 545.691406 -211.290418 
L 548.016406 -211.290418 
L 550.341406 -211.290418 
L 552.666406 -211.290418 
L 554.991406 -211.290418 
L 557.316406 -211.290418 
L 559.641406 -202.001231 
L 561.966406 -192.702745 
L 564.291406 -186.57346 
L 566.616406 -186.57346 
L 568.941406 -186.57346 
L 571.266406 -186.57346 
L 573.591406 -186.57346 
L 575.916406 -186.57346 
L 578.241406 -186.57346 
L 580.566406 -177.284273 
L 582.891406 -167.985788 
L 585.216406 -159.49164 
L 587.541406 -153.192666 
L 589.866406 -146.893692 
L 592.191406 -140.594718 
L 594.516406 -136.7292 
L 596.841406 -136.7292 
L 599.166406 -136.7292 
L 601.491406 -130.436525 
L 603.816406 -124.137551 
L 606.141406 -117.838577 
L 608.466406 -111.539603 
L 608.466406 -38.200781 
L 608.466406 -38.200781 
L 606.141406 -38.200781 
L 603.816406 -38.200781 
L 601.491406 -38.200781 
L 599.166406 -38.200781 
L 596.841406 -38.200781 
L 594.516406 -38.200781 
L 592.191406 -38.200781 
L 589.866406 -38.200781 
L 587.541406 -38.200781 
L 585.216406 -38.200781 
L 582.891406 -38.200781 
L 580.566406 -38.200781 
L 578.241406 -38.200781 
L 575.916406 -38.200781 
L 573.591406 -38.200781 
L 571.266406 -38.200781 
L 568.941406 -38.200781 
L 566.616406 -38.200781 
L 564.291406 -38.200781 
L 561.966406 -38.200781 
L 559.641406 -38.200781 
L 557.316406 -38.200781 
L 554.991406 -38.200781 
L 552.666406 -38.200781 
L 550.341406 -38.200781 
L 548.016406 -38.200781 
L 545.691406 -38.200781 
L 543.366406 -38.200781 
L 541.041406 -38.200781 
L 538.716406 -38.200781 
L 536.391406 -38.200781 
L 534.066406 -38.200781 
L 531.741406 -38.200781 
L 529.416406 -38.200781 
L 527.091406 -38.200781 
L 524.766406 -38.200781 
L 522.441406 -38.200781 
L 520.116406 -38.200781 
L 517.791406 -38.200781 
L 515.466406 -38.200781 
L 513.141406 -38.200781 
L 510.816406 -38.200781 
L 508.491406 -38.200781 
L 506.166406 -38.200781 
L 503.841406 -38.200781 
L 501.516406 -38.200781 
L 499.191406 -38.200781 
L 496.866406 -38.200781 
L 494.541406 -38.200781 
L 492.216406 -38.200781 
L 489.891406 -38.200781 
L 487.566406 -38.200781 
L 485.241406 -38.200781 
L 482.916406 -38.200781 
L 480.591406 -38.200781 
L 478.266406 -38.200781 
L 475.941406 -38.200781 
L 473.616406 -38.200781 
L 471.291406 -38.200781 
L 468.966406 -38.200781 
L 466.641406 -38.200781 
L 464.316406 -38.200781 
L 461.991406 -38.200781 
L 459.666406 -38.200781 
L 457.341406 -38.200781 
L 455.016406 -38.200781 
L 452.691406 -38.200781 
L 450.366406 -38.200781 
L 448.041406 -38.200781 
L 445.716406 -38.200781 
L 443.391406 -38.200781 
L 441.066406 -38.200781 
L 438.741406 -38.200781 
L 436.416406 -38.200781 
L 434.091406 -38.200781 
L 431.766406 -38.200781 
L 429.441406 -38.200781 
L 427.116406 -38.200781 
L 424.791406 -38.200781 
L 422.466406 -38.200781 
L 420.141406 -38.200781 
L 417.816406 -38.200781 
L 415.491406 -38.200781 
L 413.166406 -38.200781 
L 410.841406 -38.200781 
L 408.516406 -38.200781 
L 406.191406 -38.200781 
L 403.866406 -38.200781 
L 401.541406 -38.200781 
L 399.216406 -38.200781 
L 396.891406 -38.200781 
L 394.566406 -38.200781 
L 392.241406 -38.200781 
L 389.916406 -38.200781 
L 387.591406 -38.200781 
L 385.266406 -38.200781 
L 382.941406 -38.200781 
L 380.616406 -38.200781 
L 378.291406 -38.200781 
L 375.966406 -38.200781 
L 373.641406 -38.200781 
L 371.316406 -38.200781 
L 368.991406 -38.200781 
L 366.666406 -38.200781 
L 364.341406 -38.200781 
L 362.016406 -38.200781 
L 359.691406 -38.200781 
L 357.366406 -38.200781 
L 355.041406 -38.200781 
L 352.716406 -38.200781 
L 350.391406 -38.200781 
L 348.066406 -38.200781 
L 345.741406 -38.200781 
L 343.416406 -38.200781 
L 341.091406 -38.200781 
L 338.766406 -38.200781 
L 336.441406 -38.200781 
L 334.116406 -38.200781 
L 331.791406 -38.200781 
L 329.466406 -38.200781 
L 327.141406 -38.200781 
L 324.816406 -38.200781 
L 322.491406 -38.200781 
L 320.166406 -38.200781 
L 317.841406 -38.200781 
L 315.516406 -38.200781 
L 313.191406 -38.200781 
L 310.866406 -38.200781 
L 308.541406 -38.200781 
L 306.216406 -38.200781 
L 303.891406 -38.200781 
L 301.566406 -38.200781 
L 299.241406 -38.200781 
L 296.916406 -38.200781 
L 294.591406 -38.200781 
L 292.266406 -38.200781 
L 289.941406 -38.200781 
L 287.616406 -38.200781 
L 285.291406 -38.200781 
L 282.966406 -38.200781 
L 280.641406 -38.200781 
L 278.316406 -38.200781 
L 275.991406 -38.200781 
L 273.666406 -38.200781 
L 271.341406 -38.200781 
L 269.016406 -38.200781 
L 266.691406 -38.200781 
L 264.366406 -38.200781 
L 262.041406 -38.200781 
L 259.716406 -38.200781 
L 257.391406 -38.200781 
L 255.066406 -38.200781 
L 252.741406 -38.200781 
L 250.416406 -38.200781 
L 248.091406 -38.200781 
L 245.766406 -38.200781 
L 243.441406 -38.200781 
L 241.116406 -38.200781 
L 238.791406 -38.200781 
L 236.466406 -38.200781 
L 234.141406 -38.200781 
L 231.816406 -38.200781 
L 229.491406 -38.200781 
L 227.166406 -38.200781 
L 224.841406 -38.200781 
L 222.516406 -38.200781 
L 220.191406 -38.200781 
L 217.866406 -38.200781 
L 215.541406 -38.200781 
L 213.216406 -38.200781 
L 210.891406 -38.200781 
L 208.566406 -38.200781 
L 206.241406 -38.200781 
L 203.916406 -38.200781 
L 201.591406 -38.200781 
L 199.266406 -38.200781 
L 196.941406 -38.200781 
L 194.616406 -38.200781 
L 192.291406 -38.200781 
L 189.966406 -38.200781 
L 187.641406 -38.200781 
L 185.316406 -38.200781 
L 182.991406 -38.200781 
L 180.666406 -38.200781 
L 178.341406 -38.200781 
L 176.016406 -38.200781 
L 173.691406 -38.200781 
L 171.366406 -38.200781 
L 169.041406 -38.200781 
L 166.716406 -38.200781 
L 164.391406 -38.200781 
L 162.066406 -38.200781 
L 159.741406 -38.200781 
L 157.416406 -38.200781 
L 155.091406 -38.200781 
L 152.766406 -38.200781 
L 150.441406 -38.200781 
L 148.116406 -38.200781 
L 145.791406 -38.200781 
L 143.466406 -38.200781 
L 141.141406 -38.200781 
L 138.816406 -38.200781 
L 136.491406 -38.200781 
L 134.166406 -38.200781 
L 131.841406 -38.200781 
L 129.516406 -38.200781 
L 127.191406 -38.200781 
L 124.866406 -38.200781 
L 122.541406 -38.200781 
L 120.216406 -38.200781 
L 117.891406 -38.200781 
L 115.566406 -38.200781 
L 113.241406 -38.200781 
L 110.916406 -38.200781 
L 108.591406 -38.200781 
L 106.266406 -38.200781 
L 103.941406 -38.200781 
L 101.616406 -38.200781 
L 99.291406 -38.200781 
L 96.966406 -38.200781 
L 94.641406 -38.200781 
L 92.316406 -38.200781 
L 89.991406 -38.200781 
L 87.666406 -38.200781 
L 85.341406 -38.200781 
L 83.016406 -38.200781 
L 80.691406 -38.200781 
L 78.366406 -38.200781 
L 76.041406 -38.200781 
L 73.716406 -38.200781 
L 71.391406 -38.200781 
L 69.066406 -38.200781 
L 66.741406 -38.200781 
L 64.416406 -38.200781 
L 62.091406 -38.200781 
L 59.766406 -38.200781 
L 57.441406 -38.200781 
L 55.116406 -38.200781 
L 52.791406 -38.200781 
z
" style="stroke: #d62728; stroke-opacity: 0.25"/>
    </defs>
    <g clip-path="url(#p98f7f7b983)">
     <use xlink:href="#m3ff6a9cf0f" x="0" y="399.158906" style="fill: #d62728; fill-opacity: 0.25; stroke: #d62728; stroke-opacity: 0.25"/>
    </g>
   </g>
   <g id="FillBetweenPolyCollection_2">
    <defs>
     <path id="me55de7c468" d="M 52.791406 -38.200781 
L 52.791406 -38.200781 
L 55.116406 -38.200781 
L 57.441406 -38.200781 
L 59.766406 -38.200781 
L 62.091406 -38.200781 
L 64.416406 -38.200781 
L 66.741406 -38.200781 
L 69.066406 -38.200781 
L 71.391406 -38.200781 
L 73.716406 -38.200781 
L 76.041406 -38.200781 
L 78.366406 -38.200781 
L 80.691406 -38.200781 
L 83.016406 -38.200781 
L 85.341406 -38.200781 
L 87.666406 -38.200781 
L 89.991406 -38.200781 
L 92.316406 -38.200781 
L 94.641406 -38.200781 
L 96.966406 -38.200781 
L 99.291406 -38.200781 
L 101.616406 -38.200781 
L 103.941406 -38.200781 
L 106.266406 -38.200781 
L 108.591406 -38.200781 
L 110.916406 -38.200781 
L 113.241406 -38.200781 
L 115.566406 -38.200781 
L 117.891406 -38.200781 
L 120.216406 -38.200781 
L 122.541406 -38.200781 
L 124.866406 -38.200781 
L 127.191406 -38.200781 
L 129.516406 -38.200781 
L 131.841406 -38.200781 
L 134.166406 -38.200781 
L 136.491406 -38.200781 
L 138.816406 -38.200781 
L 141.141406 -38.200781 
L 143.466406 -38.200781 
L 145.791406 -38.200781 
L 148.116406 -38.200781 
L 150.441406 -38.200781 
L 152.766406 -38.200781 
L 155.091406 -38.200781 
L 157.416406 -38.200781 
L 159.741406 -38.200781 
L 162.066406 -38.200781 
L 164.391406 -38.200781 
L 166.716406 -38.200781 
L 169.041406 -38.200781 
L 171.366406 -38.200781 
L 173.691406 -38.200781 
L 176.016406 -38.200781 
L 178.341406 -38.200781 
L 180.666406 -38.200781 
L 182.991406 -38.200781 
L 185.316406 -38.200781 
L 187.641406 -38.200781 
L 189.966406 -38.200781 
L 192.291406 -38.200781 
L 194.616406 -38.200781 
L 196.941406 -38.200781 
L 199.266406 -38.200781 
L 201.591406 -38.200781 
L 203.916406 -38.200781 
L 206.241406 -38.200781 
L 208.566406 -38.200781 
L 210.891406 -38.200781 
L 213.216406 -38.200781 
L 215.541406 -38.200781 
L 217.866406 -38.200781 
L 220.191406 -38.200781 
L 222.516406 -38.200781 
L 224.841406 -38.200781 
L 227.166406 -38.200781 
L 229.491406 -38.200781 
L 231.816406 -38.200781 
L 234.141406 -38.200781 
L 236.466406 -222.217188 
L 238.791406 -222.217188 
L 241.116406 -222.217188 
L 243.441406 -222.217188 
L 245.766406 -222.217188 
L 248.091406 -222.217188 
L 250.416406 -222.217188 
L 252.741406 -222.217188 
L 255.066406 -222.217188 
L 257.391406 -222.217188 
L 259.716406 -222.217188 
L 262.041406 -222.217188 
L 264.366406 -222.217188 
L 266.691406 -212.928001 
L 269.016406 -203.629516 
L 271.341406 -194.33103 
L 273.666406 -185.032545 
L 275.991406 -175.734059 
L 278.316406 -166.435574 
L 280.641406 -158.441495 
L 282.966406 -152.142521 
L 285.291406 -145.843547 
L 287.616406 -139.544573 
L 289.941406 -133.245599 
L 292.266406 -126.946625 
L 294.591406 -120.647651 
L 296.916406 -114.348677 
L 299.241406 -108.049703 
L 301.566406 -101.750729 
L 303.891406 -98.184501 
L 306.216406 -94.885038 
L 308.541406 -91.585576 
L 310.866406 -88.286113 
L 313.191406 -84.986651 
L 315.516406 -82.029521 
L 317.841406 -79.479936 
L 320.166406 -76.930352 
L 322.491406 -74.380767 
L 324.816406 -71.831182 
L 327.141406 -69.95706 
L 329.466406 -68.307328 
L 331.791406 -66.657597 
L 334.116406 -65.007866 
L 336.441406 -63.358134 
L 338.766406 -61.708403 
L 341.091406 -60.232793 
L 343.416406 -59.032989 
L 345.741406 -57.833184 
L 348.066406 -56.63338 
L 350.391406 -55.433575 
L 352.716406 -54.23377 
L 355.041406 -53.095606 
L 357.366406 -52.345728 
L 359.691406 -51.59585 
L 362.016406 -50.845972 
L 364.341406 -50.096094 
L 366.666406 -49.346216 
L 368.991406 -48.596338 
L 371.316406 -47.846461 
L 373.641406 -47.096583 
L 375.966406 -46.346705 
L 378.291406 -45.596827 
L 380.616406 -44.846949 
L 382.941406 -44.097071 
L 385.266406 -43.408833 
L 387.591406 -43.108882 
L 389.916406 -42.808931 
L 392.241406 -42.50898 
L 394.566406 -42.209029 
L 396.891406 -41.909077 
L 399.216406 -41.609126 
L 401.541406 -41.309175 
L 403.866406 -41.009224 
L 406.191406 -40.709273 
L 408.516406 -40.409322 
L 410.841406 -40.109371 
L 413.166406 -39.809419 
L 415.491406 -39.509468 
L 417.816406 -39.209517 
L 420.141406 -38.909566 
L 422.466406 -38.609615 
L 424.791406 -38.309664 
L 427.116406 -38.200781 
L 429.441406 -38.200781 
L 431.766406 -38.200781 
L 434.091406 -38.200781 
L 436.416406 -38.200781 
L 438.741406 -38.200781 
L 441.066406 -38.200781 
L 443.391406 -38.200781 
L 445.716406 -38.200781 
L 448.041406 -38.200781 
L 450.366406 -38.200781 
L 452.691406 -38.200781 
L 455.016406 -38.200781 
L 457.341406 -38.200781 
L 459.666406 -38.200781 
L 461.991406 -38.200781 
L 464.316406 -38.200781 
L 466.641406 -38.200781 
L 468.966406 -38.200781 
L 471.291406 -38.200781 
L 473.616406 -38.200781 
L 475.941406 -38.200781 
L 478.266406 -38.200781 
L 480.591406 -38.200781 
L 482.916406 -38.200781 
L 485.241406 -38.200781 
L 487.566406 -38.200781 
L 489.891406 -38.200781 
L 492.216406 -38.200781 
L 494.541406 -38.200781 
L 496.866406 -38.200781 
L 499.191406 -38.200781 
L 501.516406 -38.200781 
L 503.841406 -38.200781 
L 506.166406 -38.200781 
L 508.491406 -38.200781 
L 510.816406 -38.200781 
L 513.141406 -38.200781 
L 515.466406 -38.200781 
L 517.791406 -38.200781 
L 520.116406 -38.200781 
L 522.441406 -38.200781 
L 524.766406 -38.200781 
L 527.091406 -38.200781 
L 529.416406 -38.200781 
L 531.741406 -38.200781 
L 534.066406 -38.200781 
L 536.391406 -38.200781 
L 538.716406 -38.200781 
L 541.041406 -38.200781 
L 543.366406 -38.200781 
L 545.691406 -38.200781 
L 548.016406 -38.200781 
L 550.341406 -38.200781 
L 552.666406 -38.200781 
L 554.991406 -38.200781 
L 557.316406 -38.200781 
L 559.641406 -38.200781 
L 561.966406 -38.200781 
L 564.291406 -38.200781 
L 566.616406 -38.200781 
L 568.941406 -38.200781 
L 571.266406 -38.200781 
L 573.591406 -38.200781 
L 575.916406 -38.200781 
L 578.241406 -38.200781 
L 580.566406 -38.200781 
L 582.891406 -38.200781 
L 585.216406 -38.200781 
L 587.541406 -38.200781 
L 589.866406 -38.200781 
L 592.191406 -38.200781 
L 594.516406 -38.200781 
L 596.841406 -38.200781 
L 599.166406 -38.200781 
L 601.491406 -38.200781 
L 603.816406 -38.200781 
L 606.141406 -38.200781 
L 608.466406 -38.200781 
L 608.466406 -38.200781 
L 608.466406 -38.200781 
L 606.141406 -38.200781 
L 603.816406 -38.200781 
L 601.491406 -38.200781 
L 599.166406 -38.200781 
L 596.841406 -38.200781 
L 594.516406 -38.200781 
L 592.191406 -38.200781 
L 589.866406 -38.200781 
L 587.541406 -38.200781 
L 585.216406 -38.200781 
L 582.891406 -38.200781 
L 580.566406 -38.200781 
L 578.241406 -38.200781 
L 575.916406 -38.200781 
L 573.591406 -38.200781 
L 571.266406 -38.200781 
L 568.941406 -38.200781 
L 566.616406 -38.200781 
L 564.291406 -38.200781 
L 561.966406 -38.200781 
L 559.641406 -38.200781 
L 557.316406 -38.200781 
L 554.991406 -38.200781 
L 552.666406 -38.200781 
L 550.341406 -38.200781 
L 548.016406 -38.200781 
L 545.691406 -38.200781 
L 543.366406 -38.200781 
L 541.041406 -38.200781 
L 538.716406 -38.200781 
L 536.391406 -38.200781 
L 534.066406 -38.200781 
L 531.741406 -38.200781 
L 529.416406 -38.200781 
L 527.091406 -38.200781 
L 524.766406 -38.200781 
L 522.441406 -38.200781 
L 520.116406 -38.200781 
L 517.791406 -38.200781 
L 515.466406 -38.200781 
L 513.141406 -38.200781 
L 510.816406 -38.200781 
L 508.491406 -38.200781 
L 506.166406 -38.200781 
L 503.841406 -38.200781 
L 501.516406 -38.200781 
L 499.191406 -38.200781 
L 496.866406 -38.200781 
L 494.541406 -38.200781 
L 492.216406 -38.200781 
L 489.891406 -38.200781 
L 487.566406 -38.200781 
L 485.241406 -38.200781 
L 482.916406 -38.200781 
L 480.591406 -38.200781 
L 478.266406 -38.200781 
L 475.941406 -38.200781 
L 473.616406 -38.200781 
L 471.291406 -38.200781 
L 468.966406 -38.200781 
L 466.641406 -38.200781 
L 464.316406 -38.200781 
L 461.991406 -38.200781 
L 459.666406 -38.200781 
L 457.341406 -38.200781 
L 455.016406 -38.200781 
L 452.691406 -38.200781 
L 450.366406 -38.200781 
L 448.041406 -38.200781 
L 445.716406 -38.200781 
L 443.391406 -38.200781 
L 441.066406 -38.200781 
L 438.741406 -38.200781 
L 436.416406 -38.200781 
L 434.091406 -38.200781 
L 431.766406 -38.200781 
L 429.441406 -38.200781 
L 427.116406 -38.200781 
L 424.791406 -38.200781 
L 422.466406 -38.200781 
L 420.141406 -38.200781 
L 417.816406 -38.200781 
L 415.491406 -38.200781 
L 413.166406 -38.200781 
L 410.841406 -38.200781 
L 408.516406 -38.200781 
L 406.191406 -38.200781 
L 403.866406 -38.200781 
L 401.541406 -38.200781 
L 399.216406 -38.200781 
L 396.891406 -38.200781 
L 394.566406 -38.200781 
L 392.241406 -38.200781 
L 389.916406 -38.200781 
L 387.591406 -38.200781 
L 385.266406 -38.200781 
L 382.941406 -38.200781 
L 380.616406 -38.200781 
L 378.291406 -38.200781 
L 375.966406 -38.200781 
L 373.641406 -38.200781 
L 371.316406 -38.200781 
L 368.991406 -38.200781 
L 366.666406 -38.200781 
L 364.341406 -38.200781 
L 362.016406 -38.200781 
L 359.691406 -38.200781 
L 357.366406 -38.200781 
L 355.041406 -38.200781 
L 352.716406 -38.200781 
L 350.391406 -38.200781 
L 348.066406 -38.200781 
L 345.741406 -38.200781 
L 343.416406 -38.200781 
L 341.091406 -38.200781 
L 338.766406 -38.200781 
L 336.441406 -38.200781 
L 334.116406 -38.200781 
L 331.791406 -38.200781 
L 329.466406 -38.200781 
L 327.141406 -38.200781 
L 324.816406 -38.200781 
L 322.491406 -38.200781 
L 320.166406 -38.200781 
L 317.841406 -38.200781 
L 315.516406 -38.200781 
L 313.191406 -38.200781 
L 310.866406 -38.200781 
L 308.541406 -38.200781 
L 306.216406 -38.200781 
L 303.891406 -38.200781 
L 301.566406 -38.200781 
L 299.241406 -38.200781 
L 296.916406 -38.200781 
L 294.591406 -38.200781 
L 292.266406 -38.200781 
L 289.941406 -38.200781 
L 287.616406 -38.200781 
L 285.291406 -38.200781 
L 282.966406 -38.200781 
L 280.641406 -38.200781 
L 278.316406 -38.200781 
L 275.991406 -38.200781 
L 273.666406 -38.200781 
L 271.341406 -38.200781 
L 269.016406 -38.200781 
L 266.691406 -38.200781 
L 264.366406 -38.200781 
L 262.041406 -38.200781 
L 259.716406 -38.200781 
L 257.391406 -38.200781 
L 255.066406 -38.200781 
L 252.741406 -38.200781 
L 250.416406 -38.200781 
L 248.091406 -38.200781 
L 245.766406 -38.200781 
L 243.441406 -38.200781 
L 241.116406 -38.200781 
L 238.791406 -38.200781 
L 236.466406 -38.200781 
L 234.141406 -38.200781 
L 231.816406 -38.200781 
L 229.491406 -38.200781 
L 227.166406 -38.200781 
L 224.841406 -38.200781 
L 222.516406 -38.200781 
L 220.191406 -38.200781 
L 217.866406 -38.200781 
L 215.541406 -38.200781 
L 213.216406 -38.200781 
L 210.891406 -38.200781 
L 208.566406 -38.200781 
L 206.241406 -38.200781 
L 203.916406 -38.200781 
L 201.591406 -38.200781 
L 199.266406 -38.200781 
L 196.941406 -38.200781 
L 194.616406 -38.200781 
L 192.291406 -38.200781 
L 189.966406 -38.200781 
L 187.641406 -38.200781 
L 185.316406 -38.200781 
L 182.991406 -38.200781 
L 180.666406 -38.200781 
L 178.341406 -38.200781 
L 176.016406 -38.200781 
L 173.691406 -38.200781 
L 171.366406 -38.200781 
L 169.041406 -38.200781 
L 166.716406 -38.200781 
L 164.391406 -38.200781 
L 162.066406 -38.200781 
L 159.741406 -38.200781 
L 157.416406 -38.200781 
L 155.091406 -38.200781 
L 152.766406 -38.200781 
L 150.441406 -38.200781 
L 148.116406 -38.200781 
L 145.791406 -38.200781 
L 143.466406 -38.200781 
L 141.141406 -38.200781 
L 138.816406 -38.200781 
L 136.491406 -38.200781 
L 134.166406 -38.200781 
L 131.841406 -38.200781 
L 129.516406 -38.200781 
L 127.191406 -38.200781 
L 124.866406 -38.200781 
L 122.541406 -38.200781 
L 120.216406 -38.200781 
L 117.891406 -38.200781 
L 115.566406 -38.200781 
L 113.241406 -38.200781 
L 110.916406 -38.200781 
L 108.591406 -38.200781 
L 106.266406 -38.200781 
L 103.941406 -38.200781 
L 101.616406 -38.200781 
L 99.291406 -38.200781 
L 96.966406 -38.200781 
L 94.641406 -38.200781 
L 92.316406 -38.200781 
L 89.991406 -38.200781 
L 87.666406 -38.200781 
L 85.341406 -38.200781 
L 83.016406 -38.200781 
L 80.691406 -38.200781 
L 78.366406 -38.200781 
L 76.041406 -38.200781 
L 73.716406 -38.200781 
L 71.391406 -38.200781 
L 69.066406 -38.200781 
L 66.741406 -38.200781 
L 64.416406 -38.200781 
L 62.091406 -38.200781 
L 59.766406 -38.200781 
L 57.441406 -38.200781 
L 55.116406 -38.200781 
L 52.791406 -38.200781 
z
" style="stroke: #1f77b4; stroke-opacity: 0.35"/>
    </defs>
    <g clip-path="url(#p98f7f7b983)">
     <use xlink:href="#me55de7c468" x="0" y="399.158906" style="fill: #1f77b4; fill-opacity: 0.35; stroke: #1f77b4; stroke-opacity: 0.35"/>
    </g>
   </g>
   <g id="matplotlib.axis_1">
    <g id="xtick_1">
     <g id="line2d_1">
      <path d="M 50.466406 360.958125 
L 50.466406 28.318125 
" clip-path="url(#p98f7f7b983)" style="fill: none; stroke-dasharray: 2.96,1.28; stroke-dashoffset: 0; stroke: #ffffff; stroke-opacity: 0.5; stroke-width: 0.8"/>
     </g>
     <g id="line2d_2">
      <defs>
       <path id="m8d14ee1197" d="M 0 0 
L 0 3.5 
" style="stroke: #ffffff; stroke-width: 0.8"/>
      </defs>
      <g>
       <use xlink:href="#m8d14ee1197" x="50.466406" y="360.958125" style="fill: #ffffff; stroke: #ffffff; stroke-width: 0.8"/>
      </g>
     </g>
     <g id="text_1">
      <text style="font-size: 10px; font-family: sans-serif; text-anchor: middle; fill: #ffffff" x="50.466406" y="375.555781" transform="rotate(-0 50.466406 375.555781)">0</text>
     </g>
    </g>
    <g id="xtick_2">
     <g id="line2d_3">
      <path d="M 143.466406 360.958125 
L 143.466406 28.318125 
" clip-path="url(#p98f7f7b983)" style="fill: none; stroke-dasharray: 2.96,1.28; stroke-dashoffset: 0; stroke: #ffffff; stroke-opacity: 0.5; stroke-width: 0.8"/>
     </g>
     <g id="line2d_4">
      <g>
       <use xlink:href="#m8d14ee1197" x="143.466406" y="360.958125" style="fill: #ffffff; stroke: #ffffff; stroke-width: 0.8"/>
      </g>
     </g>
     <g id="text_2">
      <text style="font-size: 10px; font-family: sans-serif; text-anchor: middle; fill: #ffffff" x="143.466406" y="375.555781" transform="rotate(-0 143.466406 375.555781)">4</text>
     </g>
    </g>
    <g id="xtick_3">
     <g id="line2d_5">
      <path d="M 236.466406 360.958125 
L 236.466406 28.318125 
" clip-path="url(#p98f7f7b983)" style="fill: none; stroke-dasharray: 2.96,1.28; stroke-dashoffset: 0; stroke: #ffffff; stroke-opacity: 0.5; stroke-width: 0.8"/>
     </g>
     <g id="line2d_6">
      <g>
       <use xlink:href="#m8d14ee1197" x="236.466406" y="360.958125" style="fill: #ffffff; stroke: #ffffff; stroke-width: 0.8"/>
      </g>
     </g>
     <g id="text_3">
      <text style="font-size: 10px; font-family: sans-serif; text-anchor: middle; fill: #ffffff" x="236.466406" y="375.555781" transform="rotate(-0 236.466406 375.555781)">8</text>
     </g>
    </g>
    <g id="xtick_4">
     <g id="line2d_7">
      <path d="M 329.466406 360.958125 
L 329.466406 28.318125 
" clip-path="url(#p98f7f7b983)" style="fill: none; stroke-dasharray: 2.96,1.28; stroke-dashoffset: 0; stroke: #ffffff; stroke-opacity: 0.5; stroke-width: 0.8"/>
     </g>
     <g id="line2d_8">
      <g>
       <use xlink:href="#m8d14ee1197" x="329.466406" y="360.958125" style="fill: #ffffff; stroke: #ffffff; stroke-width: 0.8"/>
      </g>
     </g>
     <g id="text_4">
      <text style="font-size: 10px; font-family: sans-serif; text-anchor: middle; fill: #ffffff" x="329.466406" y="375.555781" transform="rotate(-0 329.466406 375.555781)">12</text>
     </g>
    </g>
    <g id="xtick_5">
     <g id="line2d_9">
      <path d="M 422.466406 360.958125 
L 422.466406 28.318125 
" clip-path="url(#p98f7f7b983)" style="fill: none; stroke-dasharray: 2.96,1.28; stroke-dashoffset: 0; stroke: #ffffff; stroke-opacity: 0.5; stroke-width: 0.8"/>
     </g>
     <g id="line2d_10">
      <g>
       <use xlink:href="#m8d14ee1197" x="422.466406" y="360.958125" style="fill: #ffffff; stroke: #ffffff; stroke-width: 0.8"/>
      </g>
     </g>
     <g id="text_5">
      <text style="font-size: 10px; font-family: sans-serif; text-anchor: middle; fill: #ffffff" x="422.466406" y="375.555781" transform="rotate(-0 422.466406 375.555781)">16</text>
     </g>
    </g>
    <g id="xtick_6">
     <g id="line2d_11">
      <path d="M 515.466406 360.958125 
L 515.466406 28.318125 
" clip-path="url(#p98f7f7b983)" style="fill: none; stroke-dasharray: 2.96,1.28; stroke-dashoffset: 0; stroke: #ffffff; stroke-opacity: 0.5; stroke-width: 0.8"/>
     </g>
     <g id="line2d_12">
      <g>
       <use xlink:href="#m8d14ee1197" x="515.466406" y="360.958125" style="fill: #ffffff; stroke: #ffffff; stroke-width: 0.8"/>
      </g>
     </g>
     <g id="text_6">
      <text style="font-size: 10px; font-family: sans-serif; text-anchor: middle; fill: #ffffff" x="515.466406" y="375.555781" transform="rotate(-0 515.466406 375.555781)">20</text>
     </g>
    </g>
    <g id="xtick_7">
     <g id="line2d_13">
      <path d="M 608.466406 360.958125 
L 608.466406 28.318125 
" clip-path="url(#p98f7f7b983)" style="fill: none; stroke-dasharray: 2.96,1.28; stroke-dashoffset: 0; stroke: #ffffff; stroke-opacity: 0.5; stroke-width: 0.8"/>
     </g>
     <g id="line2d_14">
      <g>
       <use xlink:href="#m8d14ee1197" x="608.466406" y="360.958125" style="fill: #ffffff; stroke: #ffffff; stroke-width: 0.8"/>
      </g>
     </g>
     <g id="text_7">
      <text style="font-size: 10px; font-family: sans-serif; text-anchor: middle; fill: #ffffff" x="608.466406" y="375.555781" transform="rotate(-0 608.466406 375.555781)">24</text>
     </g>
    </g>
    <g id="text_8">
     <text style="font-size: 10px; font-family: sans-serif; text-anchor: middle; fill: #ffffff" x="329.466406" y="389.556562" transform="rotate(-0 329.466406 389.556562)">Critical-band rate z [Bark]</text>
    </g>
   </g>
   <g id="matplotlib.axis_2">
    <g id="ytick_1">
     <g id="line2d_15">
      <path d="M 50.466406 360.958125 
L 608.466406 360.958125 
" clip-path="url(#p98f7f7b983)" style="fill: none; stroke-dasharray: 2.96,1.28; stroke-dashoffset: 0; stroke: #ffffff; stroke-opacity: 0.5; stroke-width: 0.8"/>
     </g>
     <g id="line2d_16">
      <defs>
       <path id="m5e07181663" d="M 0 0 
L -3.5 0 
" style="stroke: #ffffff; stroke-width: 0.8"/>
      </defs>
      <g>
       <use xlink:href="#m5e07181663" x="50.466406" y="360.958125" style="fill: #ffffff; stroke: #ffffff; stroke-width: 0.8"/>
      </g>
     </g>
     <g id="text_9">
      <text style="font-size: 10px; font-family: sans-serif; text-anchor: end; fill: #ffffff" x="43.466406" y="364.756953" transform="rotate(-0 43.466406 364.756953)">0.00</text>
     </g>
    </g>
    <g id="ytick_2">
     <g id="line2d_17">
      <path d="M 50.466406 323.464232 
L 608.466406 323.464232 
" clip-path="url(#p98f7f7b983)" style="fill: none; stroke-dasharray: 2.96,1.28; stroke-dashoffset: 0; stroke: #ffffff; stroke-opacity: 0.5; stroke-width: 0.8"/>
     </g>
     <g id="line2d_18">
      <g>
       <use xlink:href="#m5e07181663" x="50.466406" y="323.464232" style="fill: #ffffff; stroke: #ffffff; stroke-width: 0.8"/>
      </g>
     </g>
     <g id="text_10">
      <text style="font-size: 10px; font-family: sans-serif; text-anchor: end; fill: #ffffff" x="43.466406" y="327.26306" transform="rotate(-0 43.466406 327.26306)">0.25</text>
     </g>
    </g>
    <g id="ytick_3">
     <g id="line2d_19">
      <path d="M 50.466406 285.970339 
L 608.466406 285.970339 
" clip-path="url(#p98f7f7b983)" style="fill: none; stroke-dasharray: 2.96,1.28; stroke-dashoffset: 0; stroke: #ffffff; stroke-opacity: 0.5; stroke-width: 0.8"/>
     </g>
     <g id="line2d_20">
      <g>
       <use xlink:href="#m5e07181663" x="50.466406" y="285.970339" style="fill: #ffffff; stroke: #ffffff; stroke-width: 0.8"/>
      </g>
     </g>
     <g id="text_11">
      <text style="font-size: 10px; font-family: sans-serif; text-anchor: end; fill: #ffffff" x="43.466406" y="289.769167" transform="rotate(-0 43.466406 289.769167)">0.50</text>
     </g>
    </g>
    <g id="ytick_4">
     <g id="line2d_21">
      <path d="M 50.466406 248.476446 
L 608.466406 248.476446 
" clip-path="url(#p98f7f7b983)" style="fill: none; stroke-dasharray: 2.96,1.28; stroke-dashoffset: 0; stroke: #ffffff; stroke-opacity: 0.5; stroke-width: 0.8"/>
     </g>
     <g id="line2d_22">
      <g>
       <use xlink:href="#m5e07181663" x="50.466406" y="248.476446" style="fill: #ffffff; stroke: #ffffff; stroke-width: 0.8"/>
      </g>
     </g>
     <g id="text_12">
      <text style="font-size: 10px; font-family: sans-serif; text-anchor: end; fill: #ffffff" x="43.466406" y="252.275274" transform="rotate(-0 43.466406 252.275274)">0.75</text>
     </g>
    </g>
    <g id="ytick_5">
     <g id="line2d_23">
      <path d="M 50.466406 210.982553 
L 608.466406 210.982553 
" clip-path="url(#p98f7f7b983)" style="fill: none; stroke-dasharray: 2.96,1.28; stroke-dashoffset: 0; stroke: #ffffff; stroke-opacity: 0.5; stroke-width: 0.8"/>
     </g>
     <g id="line2d_24">
      <g>
       <use xlink:href="#m5e07181663" x="50.466406" y="210.982553" style="fill: #ffffff; stroke: #ffffff; stroke-width: 0.8"/>
      </g>
     </g>
     <g id="text_13">
      <text style="font-size: 10px; font-family: sans-serif; text-anchor: end; fill: #ffffff" x="43.466406" y="214.781381" transform="rotate(-0 43.466406 214.781381)">1.00</text>
     </g>
    </g>
    <g id="ytick_6">
     <g id="line2d_25">
      <path d="M 50.466406 173.48866 
L 608.466406 173.48866 
" clip-path="url(#p98f7f7b983)" style="fill: none; stroke-dasharray: 2.96,1.28; stroke-dashoffset: 0; stroke: #ffffff; stroke-opacity: 0.5; stroke-width: 0.8"/>
     </g>
     <g id="line2d_26">
      <g>
       <use xlink:href="#m5e07181663" x="50.466406" y="173.48866" style="fill: #ffffff; stroke: #ffffff; stroke-width: 0.8"/>
      </g>
     </g>
     <g id="text_14">
      <text style="font-size: 10px; font-family: sans-serif; text-anchor: end; fill: #ffffff" x="43.466406" y="177.287489" transform="rotate(-0 43.466406 177.287489)">1.25</text>
     </g>
    </g>
    <g id="ytick_7">
     <g id="line2d_27">
      <path d="M 50.466406 135.994768 
L 608.466406 135.994768 
" clip-path="url(#p98f7f7b983)" style="fill: none; stroke-dasharray: 2.96,1.28; stroke-dashoffset: 0; stroke: #ffffff; stroke-opacity: 0.5; stroke-width: 0.8"/>
     </g>
     <g id="line2d_28">
      <g>
       <use xlink:href="#m5e07181663" x="50.466406" y="135.994768" style="fill: #ffffff; stroke: #ffffff; stroke-width: 0.8"/>
      </g>
     </g>
     <g id="text_15">
      <text style="font-size: 10px; font-family: sans-serif; text-anchor: end; fill: #ffffff" x="43.466406" y="139.793596" transform="rotate(-0 43.466406 139.793596)">1.50</text>
     </g>
    </g>
    <g id="ytick_8">
     <g id="line2d_29">
      <path d="M 50.466406 98.500875 
L 608.466406 98.500875 
" clip-path="url(#p98f7f7b983)" style="fill: none; stroke-dasharray: 2.96,1.28; stroke-dashoffset: 0; stroke: #ffffff; stroke-opacity: 0.5; stroke-width: 0.8"/>
     </g>
     <g id="line2d_30">
      <g>
       <use xlink:href="#m5e07181663" x="50.466406" y="98.500875" style="fill: #ffffff; stroke: #ffffff; stroke-width: 0.8"/>
      </g>
     </g>
     <g id="text_16">
      <text style="font-size: 10px; font-family: sans-serif; text-anchor: end; fill: #ffffff" x="43.466406" y="102.299703" transform="rotate(-0 43.466406 102.299703)">1.75</text>
     </g>
    </g>
    <g id="ytick_9">
     <g id="line2d_31">
      <path d="M 50.466406 61.006982 
L 608.466406 61.006982 
" clip-path="url(#p98f7f7b983)" style="fill: none; stroke-dasharray: 2.96,1.28; stroke-dashoffset: 0; stroke: #ffffff; stroke-opacity: 0.5; stroke-width: 0.8"/>
     </g>
     <g id="line2d_32">
      <g>
       <use xlink:href="#m5e07181663" x="50.466406" y="61.006982" style="fill: #ffffff; stroke: #ffffff; stroke-width: 0.8"/>
      </g>
     </g>
     <g id="text_17">
      <text style="font-size: 10px; font-family: sans-serif; text-anchor: end; fill: #ffffff" x="43.466406" y="64.80581" transform="rotate(-0 43.466406 64.80581)">2.00</text>
     </g>
    </g>
    <g id="text_18">
     <text style="font-size: 10px; font-family: sans-serif; text-anchor: middle; fill: #ffffff" x="14.798438" y="194.638125" transform="rotate(-90 14.798438 194.638125)">Specific loudness N' [sone/Bark]</text>
    </g>
   </g>
   <g id="line2d_33">
    <path d="M 52.791406 223.823998 
L 71.391406 223.823998 
L 73.716406 131.391488 
L 92.316406 131.391488 
L 94.641406 127.964548 
L 115.566406 127.964548 
L 117.891406 142.048154 
L 120.216406 153.064046 
L 131.841406 153.064046 
L 134.166406 156.03765 
L 152.766406 156.03765 
L 155.091406 161.458929 
L 176.016406 161.458929 
L 178.341406 166.748359 
L 203.916406 166.748359 
L 206.241406 173.062389 
L 234.141406 173.062389 
L 236.466406 176.941718 
L 264.366406 176.941718 
L 266.691406 179.177681 
L 296.916406 179.177681 
L 299.241406 174.679864 
L 336.441406 174.679864 
L 338.766406 161.763274 
L 371.316406 161.763274 
L 373.641406 140.120871 
L 403.866406 140.120871 
L 406.191406 107.256231 
L 438.741406 107.256231 
L 441.066406 101.083125 
L 471.291406 101.083125 
L 473.616406 113.368824 
L 475.941406 122.081207 
L 499.191406 122.081207 
L 503.841406 146.664903 
L 506.166406 150.56956 
L 529.416406 150.56956 
L 531.741406 161.425037 
L 536.391406 180.022008 
L 538.716406 187.868489 
L 557.316406 187.868489 
L 561.966406 206.456161 
L 564.291406 212.585446 
L 578.241406 212.585446 
L 582.891406 231.173118 
L 585.216406 239.667266 
L 592.191406 258.564188 
L 594.516406 262.429706 
L 599.166406 262.429706 
L 608.466406 287.619303 
L 608.466406 287.619303 
" clip-path="url(#p98f7f7b983)" style="fill: none; stroke: #d62728; stroke-width: 1.6; stroke-linecap: square"/>
   </g>
   <g id="line2d_34">
    <path d="M 52.791406 360.958125 
L 234.141406 360.958125 
L 236.466406 176.941718 
L 264.366406 176.941718 
L 278.316406 232.723332 
L 280.641406 240.717411 
L 301.566406 297.408177 
L 303.891406 300.974405 
L 313.191406 314.172255 
L 315.516406 317.129385 
L 324.816406 327.327724 
L 327.141406 329.201847 
L 338.766406 337.450503 
L 341.091406 338.926113 
L 355.041406 346.063301 
L 385.266406 355.750073 
L 424.791406 360.849243 
L 429.441406 360.958125 
L 608.466406 360.958125 
L 608.466406 360.958125 
" clip-path="url(#p98f7f7b983)" style="fill: none; stroke: #1f77b4; stroke-width: 1.6; stroke-linecap: square"/>
   </g>
   <g id="patch_3">
    <path d="M 50.466406 360.958125 
L 50.466406 28.318125 
" style="fill: none; stroke: #ffffff; stroke-width: 0.8; stroke-linejoin: miter; stroke-linecap: square"/>
   </g>
   <g id="patch_4">
    <path d="M 608.466406 360.958125 
L 608.466406 28.318125 
" style="fill: none; stroke: #ffffff; stroke-width: 0.8; stroke-linejoin: miter; stroke-linecap: square"/>
   </g>
   <g id="patch_5">
    <path d="M 50.466406 360.958125 
L 608.466406 360.958125 
" style="fill: none; stroke: #ffffff; stroke-width: 0.8; stroke-linejoin: miter; stroke-linecap: square"/>
   </g>
   <g id="patch_6">
    <path d="M 50.466406 28.318125 
L 608.466406 28.318125 
" style="fill: none; stroke: #ffffff; stroke-width: 0.8; stroke-linejoin: miter; stroke-linecap: square"/>
   </g>
   <g id="patch_7">
    <path d="M 398.11933 227.991637 
Q 325.216704 252.74897 253.266868 277.182741 
" style="fill: none; stroke: #ffffff; stroke-width: 0.9; stroke-linecap: round"/>
    <path d="M 257.697544 277.790286 
L 253.266868 277.182741 
L 256.41131 274.002727 
" style="fill: none; stroke: #ffffff; stroke-width: 0.9; stroke-linecap: round"/>
   </g>
   <g id="text_19">
    <text style="font-size: 10px; font-family: sans-serif; text-anchor: start; fill: #ffffff" x="341.091406" y="222.94582" transform="rotate(-0 341.091406 222.94582)">Shaded area = total loudness N</text>
   </g>
   <g id="text_20">
    <text style="font-weight: 700; font-size: 12px; font-family: sans-serif; text-anchor: middle; fill: #ffffff" x="329.466406" y="16.318125" transform="rotate(-0 329.466406 16.318125)">Specific Loudness Pattern (ISO 532-1 Zwicker)</text>
   </g>
   <g id="legend_1">
    <g id="patch_8">
     <path d="M 402.827656 62.519531 
L 602.166406 62.519531 
Q 603.966406 62.519531 603.966406 60.719531 
L 603.966406 34.618125 
Q 603.966406 32.818125 602.166406 32.818125 
L 402.827656 32.818125 
Q 401.027656 32.818125 401.027656 34.618125 
L 401.027656 60.719531 
Q 401.027656 62.519531 402.827656 62.519531 
z
" style="opacity: 0.8; stroke: #cccccc; stroke-linejoin: miter"/>
    </g>
    <g id="line2d_35">
     <path d="M 404.627656 40.106719 
L 413.627656 40.106719 
L 422.627656 40.106719 
" style="fill: none; stroke: #d62728; stroke-width: 1.6; stroke-linecap: square"/>
    </g>
    <g id="text_21">
     <text style="font-size: 9px; font-family: sans-serif; text-anchor: start; fill: #ffffff" x="429.827656" y="43.256719" transform="rotate(-0 429.827656 43.256719)">Flat broadband 60 dB - N = 31.9 sone</text>
    </g>
    <g id="line2d_36">
     <path d="M 404.627656 53.607422 
L 413.627656 53.607422 
L 422.627656 53.607422 
" style="fill: none; stroke: #1f77b4; stroke-width: 1.6; stroke-linecap: square"/>
    </g>
    <g id="text_22">
     <text style="font-size: 9px; font-family: sans-serif; text-anchor: start; fill: #ffffff" x="429.827656" y="56.757422" transform="rotate(-0 429.827656 56.757422)">1 kHz narrowband - N = 3.5 sone</text>
    </g>
   </g>
  </g>
 </g>
 <defs>
  <clipPath id="p98f7f7b983">
   <rect x="50.466406" y="28.318125" width="558" height="332.64"/>
  </clipPath>
 </defs>
</svg>
