<?xml version="1.0" encoding="utf-8" standalone="no"?>
<!DOCTYPE svg PUBLIC "-//W3C//DTD SVG 1.1//EN"
  "http://www.w3.org/Graphics/SVG/1.1/DTD/svg11.dtd">
<svg xmlns:xlink="http://www.w3.org/1999/xlink" width="892.783125pt" height="381.518125pt" viewBox="0 0 892.783125 381.518125" xmlns="http://www.w3.org/2000/svg" version="1.1">
 <metadata>
  <rdf:RDF xmlns:dc="http://purl.org/dc/elements/1.1/" xmlns:cc="http://creativecommons.org/ns#" xmlns:rdf="http://www.w3.org/1999/02/22-rdf-syntax-ns#">
   <cc:Work>
    <dc:type rdf:resource="http://purl.org/dc/dcmitype/StillImage"/>
    <dc:format>image/svg+xml</dc:format>
    <dc:creator>
     <cc:Agent>
      <dc:title>Matplotlib v3.11.1, https://matplotlib.org/</dc:title>
     </cc:Agent>
    </dc:creator>
   </cc:Work>
  </rdf:RDF>
 </metadata>
 <defs>
  <style type="text/css">*{stroke-linejoin: round; stroke-linecap: butt}</style>
 </defs>
 <g id="figure_1">
  <g id="patch_1">
   <path d="M 0 381.518125 
L 892.783125 381.518125 
L 892.783125 0 
L 0 0 
z
"/>
  </g>
  <g id="axes_1">
   <g id="patch_2">
    <path d="M 44.105469 343.315781 
L 439.543125 343.315781 
L 439.543125 26.318125 
L 44.105469 26.318125 
z
"/>
   </g>
   <g id="matplotlib.axis_1">
    <g id="xtick_1">
     <g id="line2d_1">
      <path d="M 111.177464 343.315781 
L 111.177464 26.318125 
" clip-path="url(#p1c8e9cd8f9)" style="fill: none; stroke: #555555; stroke-opacity: 0.4; stroke-width: 0.8; stroke-linecap: square"/>
     </g>
     <g id="line2d_2">
      <defs>
       <path id="m8d14ee1197" d="M 0 0 
L 0 3.5 
" style="stroke: #ffffff; stroke-width: 0.8"/>
      </defs>
      <g>
       <use xlink:href="#m8d14ee1197" x="111.177464" y="343.315781" style="fill: #ffffff; stroke: #ffffff; stroke-width: 0.8"/>
      </g>
     </g>
     <g id="text_1">
      <text style="font-size: 10px; font-family: sans-serif; text-anchor: middle; fill: #ffffff" x="111.177464" y="357.913438" transform="rotate(-0 111.177464 357.913438)">1</text>
     </g>
    </g>
    <g id="xtick_2">
     <g id="line2d_3">
      <path d="M 160.275021 343.315781 
L 160.275021 26.318125 
" clip-path="url(#p1c8e9cd8f9)" style="fill: none; stroke: #555555; stroke-opacity: 0.4; stroke-width: 0.8; stroke-linecap: square"/>
     </g>
     <g id="line2d_4">
      <g>
       <use xlink:href="#m8d14ee1197" x="160.275021" y="343.315781" style="fill: #ffffff; stroke: #ffffff; stroke-width: 0.8"/>
      </g>
     </g>
     <g id="text_2">
      <text style="font-size: 10px; font-family: sans-serif; text-anchor: middle; fill: #ffffff" x="160.275021" y="357.913438" transform="rotate(-0 160.275021 357.913438)">2</text>
     </g>
    </g>
    <g id="xtick_3">
     <g id="line2d_5">
      <path d="M 209.372577 343.315781 
L 209.372577 26.318125 
" clip-path="url(#p1c8e9cd8f9)" style="fill: none; stroke: #555555; stroke-opacity: 0.4; stroke-width: 0.8; stroke-linecap: square"/>
     </g>
     <g id="line2d_6">
      <g>
       <use xlink:href="#m8d14ee1197" x="209.372577" y="343.315781" style="fill: #ffffff; stroke: #ffffff; stroke-width: 0.8"/>
      </g>
     </g>
     <g id="text_3">
      <text style="font-size: 10px; font-family: sans-serif; text-anchor: middle; fill: #ffffff" x="209.372577" y="357.913438" transform="rotate(-0 209.372577 357.913438)">4</text>
     </g>
    </g>
    <g id="xtick_4">
     <g id="line2d_7">
      <path d="M 258.470134 343.315781 
L 258.470134 26.318125 
" clip-path="url(#p1c8e9cd8f9)" style="fill: none; stroke: #555555; stroke-opacity: 0.4; stroke-width: 0.8; stroke-linecap: square"/>
     </g>
     <g id="line2d_8">
      <g>
       <use xlink:href="#m8d14ee1197" x="258.470134" y="343.315781" style="fill: #ffffff; stroke: #ffffff; stroke-width: 0.8"/>
      </g>
     </g>
     <g id="text_4">
      <text style="font-size: 10px; font-family: sans-serif; text-anchor: middle; fill: #ffffff" x="258.470134" y="357.913438" transform="rotate(-0 258.470134 357.913438)">8</text>
     </g>
    </g>
    <g id="xtick_5">
     <g id="line2d_9">
      <path d="M 307.56769 343.315781 
L 307.56769 26.318125 
" clip-path="url(#p1c8e9cd8f9)" style="fill: none; stroke: #555555; stroke-opacity: 0.4; stroke-width: 0.8; stroke-linecap: square"/>
     </g>
     <g id="line2d_10">
      <g>
       <use xlink:href="#m8d14ee1197" x="307.56769" y="343.315781" style="fill: #ffffff; stroke: #ffffff; stroke-width: 0.8"/>
      </g>
     </g>
     <g id="text_5">
      <text style="font-size: 10px; font-family: sans-serif; text-anchor: middle; fill: #ffffff" x="307.56769" y="357.913438" transform="rotate(-0 307.56769 357.913438)">16</text>
     </g>
    </g>
    <g id="xtick_6">
     <g id="line2d_11">
      <path d="M 355.549746 343.315781 
L 355.549746 26.318125 
" clip-path="url(#p1c8e9cd8f9)" style="fill: none; stroke: #555555; stroke-opacity: 0.4; stroke-width: 0.8; stroke-linecap: square"/>
     </g>
     <g id="line2d_12">
      <g>
       <use xlink:href="#m8d14ee1197" x="355.549746" y="343.315781" style="fill: #ffffff; stroke: #ffffff; stroke-width: 0.8"/>
      </g>
     </g>
     <g id="text_6">
      <text style="font-size: 10px; font-family: sans-serif; text-anchor: middle; fill: #ffffff" x="355.549746" y="357.913438" transform="rotate(-0 355.549746 357.913438)">31.5</text>
     </g>
    </g>
    <g id="xtick_7">
     <g id="line2d_13">
      <path d="M 404.647303 343.315781 
L 404.647303 26.318125 
" clip-path="url(#p1c8e9cd8f9)" style="fill: none; stroke: #555555; stroke-opacity: 0.4; stroke-width: 0.8; stroke-linecap: square"/>
     </g>
     <g id="line2d_14">
      <g>
       <use xlink:href="#m8d14ee1197" x="404.647303" y="343.315781" style="fill: #ffffff; stroke: #ffffff; stroke-width: 0.8"/>
      </g>
     </g>
     <g id="text_7">
      <text style="font-size: 10px; font-family: sans-serif; text-anchor: middle; fill: #ffffff" x="404.647303" y="357.913438" transform="rotate(-0 404.647303 357.913438)">63</text>
     </g>
    </g>
    <g id="xtick_8">
     <g id="line2d_15">
      <path d="M 126.983347 343.315781 
L 126.983347 26.318125 
" clip-path="url(#p1c8e9cd8f9)" style="fill: none; stroke: #555555; stroke-opacity: 0.4; stroke-width: 0.8; stroke-linecap: square"/>
     </g>
     <g id="line2d_16">
      <defs>
       <path id="m1caa325441" d="M 0 0 
L 0 2 
" style="stroke: #ffffff; stroke-width: 0.6"/>
      </defs>
      <g>
       <use xlink:href="#m1caa325441" x="126.983347" y="343.315781" style="fill: #ffffff; stroke: #ffffff; stroke-width: 0.6"/>
      </g>
     </g>
    </g>
    <g id="xtick_9">
     <g id="line2d_17">
      <path d="M 144.469138 343.315781 
L 144.469138 26.318125 
" clip-path="url(#p1c8e9cd8f9)" style="fill: none; stroke: #555555; stroke-opacity: 0.4; stroke-width: 0.8; stroke-linecap: square"/>
     </g>
     <g id="line2d_18">
      <g>
       <use xlink:href="#m1caa325441" x="144.469138" y="343.315781" style="fill: #ffffff; stroke: #ffffff; stroke-width: 0.6"/>
      </g>
     </g>
    </g>
    <g id="xtick_10">
     <g id="line2d_19">
      <path d="M 176.080904 343.315781 
L 176.080904 26.318125 
" clip-path="url(#p1c8e9cd8f9)" style="fill: none; stroke: #555555; stroke-opacity: 0.4; stroke-width: 0.8; stroke-linecap: square"/>
     </g>
     <g id="line2d_20">
      <g>
       <use xlink:href="#m1caa325441" x="176.080904" y="343.315781" style="fill: #ffffff; stroke: #ffffff; stroke-width: 0.6"/>
      </g>
     </g>
    </g>
    <g id="xtick_11">
     <g id="line2d_21">
      <path d="M 192.451194 343.315781 
L 192.451194 26.318125 
" clip-path="url(#p1c8e9cd8f9)" style="fill: none; stroke: #555555; stroke-opacity: 0.4; stroke-width: 0.8; stroke-linecap: square"/>
     </g>
     <g id="line2d_22">
      <g>
       <use xlink:href="#m1caa325441" x="192.451194" y="343.315781" style="fill: #ffffff; stroke: #ffffff; stroke-width: 0.6"/>
      </g>
     </g>
    </g>
    <g id="xtick_12">
     <g id="line2d_23">
      <path d="M 225.17846 343.315781 
L 225.17846 26.318125 
" clip-path="url(#p1c8e9cd8f9)" style="fill: none; stroke: #555555; stroke-opacity: 0.4; stroke-width: 0.8; stroke-linecap: square"/>
     </g>
     <g id="line2d_24">
      <g>
       <use xlink:href="#m1caa325441" x="225.17846" y="343.315781" style="fill: #ffffff; stroke: #ffffff; stroke-width: 0.6"/>
      </g>
     </g>
    </g>
    <g id="xtick_13">
     <g id="line2d_25">
      <path d="M 241.548751 343.315781 
L 241.548751 26.318125 
" clip-path="url(#p1c8e9cd8f9)" style="fill: none; stroke: #555555; stroke-opacity: 0.4; stroke-width: 0.8; stroke-linecap: square"/>
     </g>
     <g id="line2d_26">
      <g>
       <use xlink:href="#m1caa325441" x="241.548751" y="343.315781" style="fill: #ffffff; stroke: #ffffff; stroke-width: 0.6"/>
      </g>
     </g>
    </g>
    <g id="xtick_14">
     <g id="line2d_27">
      <path d="M 274.276017 343.315781 
L 274.276017 26.318125 
" clip-path="url(#p1c8e9cd8f9)" style="fill: none; stroke: #555555; stroke-opacity: 0.4; stroke-width: 0.8; stroke-linecap: square"/>
     </g>
     <g id="line2d_28">
      <g>
       <use xlink:href="#m1caa325441" x="274.276017" y="343.315781" style="fill: #ffffff; stroke: #ffffff; stroke-width: 0.6"/>
      </g>
     </g>
    </g>
    <g id="xtick_15">
     <g id="line2d_29">
      <path d="M 290.081899 343.315781 
L 290.081899 26.318125 
" clip-path="url(#p1c8e9cd8f9)" style="fill: none; stroke: #555555; stroke-opacity: 0.4; stroke-width: 0.8; stroke-linecap: square"/>
     </g>
     <g id="line2d_30">
      <g>
       <use xlink:href="#m1caa325441" x="290.081899" y="343.315781" style="fill: #ffffff; stroke: #ffffff; stroke-width: 0.6"/>
      </g>
     </g>
    </g>
    <g id="xtick_16">
     <g id="line2d_31">
      <path d="M 323.373573 343.315781 
L 323.373573 26.318125 
" clip-path="url(#p1c8e9cd8f9)" style="fill: none; stroke: #555555; stroke-opacity: 0.4; stroke-width: 0.8; stroke-linecap: square"/>
     </g>
     <g id="line2d_32">
      <g>
       <use xlink:href="#m1caa325441" x="323.373573" y="343.315781" style="fill: #ffffff; stroke: #ffffff; stroke-width: 0.6"/>
      </g>
     </g>
    </g>
    <g id="xtick_17">
     <g id="line2d_33">
      <path d="M 339.179456 343.315781 
L 339.179456 26.318125 
" clip-path="url(#p1c8e9cd8f9)" style="fill: none; stroke: #555555; stroke-opacity: 0.4; stroke-width: 0.8; stroke-linecap: square"/>
     </g>
     <g id="line2d_34">
      <g>
       <use xlink:href="#m1caa325441" x="339.179456" y="343.315781" style="fill: #ffffff; stroke: #ffffff; stroke-width: 0.6"/>
      </g>
     </g>
    </g>
    <g id="xtick_18">
     <g id="line2d_35">
      <path d="M 372.47113 343.315781 
L 372.47113 26.318125 
" clip-path="url(#p1c8e9cd8f9)" style="fill: none; stroke: #555555; stroke-opacity: 0.4; stroke-width: 0.8; stroke-linecap: square"/>
     </g>
     <g id="line2d_36">
      <g>
       <use xlink:href="#m1caa325441" x="372.47113" y="343.315781" style="fill: #ffffff; stroke: #ffffff; stroke-width: 0.6"/>
      </g>
     </g>
    </g>
    <g id="xtick_19">
     <g id="line2d_37">
      <path d="M 388.277012 343.315781 
L 388.277012 26.318125 
" clip-path="url(#p1c8e9cd8f9)" style="fill: none; stroke: #555555; stroke-opacity: 0.4; stroke-width: 0.8; stroke-linecap: square"/>
     </g>
     <g id="line2d_38">
      <g>
       <use xlink:href="#m1caa325441" x="388.277012" y="343.315781" style="fill: #ffffff; stroke: #ffffff; stroke-width: 0.6"/>
      </g>
     </g>
    </g>
    <g id="text_8">
     <text style="font-size: 10px; font-family: sans-serif; text-anchor: middle; fill: #ffffff" x="241.824297" y="371.914219" transform="rotate(-0 241.824297 371.914219)">Frequency [Hz]</text>
    </g>
   </g>
   <g id="matplotlib.axis_2">
    <g id="ytick_1">
     <g id="line2d_39">
      <path d="M 44.105469 329.936063 
L 439.543125 329.936063 
" clip-path="url(#p1c8e9cd8f9)" style="fill: none; stroke: #555555; stroke-opacity: 0.4; stroke-width: 0.8; stroke-linecap: square"/>
     </g>
     <g id="line2d_40">
      <defs>
       <path id="m5e07181663" d="M 0 0 
L -3.5 0 
" style="stroke: #ffffff; stroke-width: 0.8"/>
      </defs>
      <g>
       <use xlink:href="#m5e07181663" x="44.105469" y="329.936063" style="fill: #ffffff; stroke: #ffffff; stroke-width: 0.8"/>
      </g>
     </g>
     <g id="text_9">
      <text style="font-size: 10px; font-family: sans-serif; text-anchor: end; fill: #ffffff" x="37.105469" y="333.734891" transform="rotate(-0 37.105469 333.734891)">0.0</text>
     </g>
    </g>
    <g id="ytick_2">
     <g id="line2d_41">
      <path d="M 44.105469 293.453619 
L 439.543125 293.453619 
" clip-path="url(#p1c8e9cd8f9)" style="fill: none; stroke: #555555; stroke-opacity: 0.4; stroke-width: 0.8; stroke-linecap: square"/>
     </g>
     <g id="line2d_42">
      <g>
       <use xlink:href="#m5e07181663" x="44.105469" y="293.453619" style="fill: #ffffff; stroke: #ffffff; stroke-width: 0.8"/>
      </g>
     </g>
     <g id="text_10">
      <text style="font-size: 10px; font-family: sans-serif; text-anchor: end; fill: #ffffff" x="37.105469" y="297.252448" transform="rotate(-0 37.105469 297.252448)">0.2</text>
     </g>
    </g>
    <g id="ytick_3">
     <g id="line2d_43">
      <path d="M 44.105469 256.971176 
L 439.543125 256.971176 
" clip-path="url(#p1c8e9cd8f9)" style="fill: none; stroke: #555555; stroke-opacity: 0.4; stroke-width: 0.8; stroke-linecap: square"/>
     </g>
     <g id="line2d_44">
      <g>
       <use xlink:href="#m5e07181663" x="44.105469" y="256.971176" style="fill: #ffffff; stroke: #ffffff; stroke-width: 0.8"/>
      </g>
     </g>
     <g id="text_11">
      <text style="font-size: 10px; font-family: sans-serif; text-anchor: end; fill: #ffffff" x="37.105469" y="260.770004" transform="rotate(-0 37.105469 260.770004)">0.4</text>
     </g>
    </g>
    <g id="ytick_4">
     <g id="line2d_45">
      <path d="M 44.105469 220.488733 
L 439.543125 220.488733 
" clip-path="url(#p1c8e9cd8f9)" style="fill: none; stroke: #555555; stroke-opacity: 0.4; stroke-width: 0.8; stroke-linecap: square"/>
     </g>
     <g id="line2d_46">
      <g>
       <use xlink:href="#m5e07181663" x="44.105469" y="220.488733" style="fill: #ffffff; stroke: #ffffff; stroke-width: 0.8"/>
      </g>
     </g>
     <g id="text_12">
      <text style="font-size: 10px; font-family: sans-serif; text-anchor: end; fill: #ffffff" x="37.105469" y="224.287561" transform="rotate(-0 37.105469 224.287561)">0.6</text>
     </g>
    </g>
    <g id="ytick_5">
     <g id="line2d_47">
      <path d="M 44.105469 184.006289 
L 439.543125 184.006289 
" clip-path="url(#p1c8e9cd8f9)" style="fill: none; stroke: #555555; stroke-opacity: 0.4; stroke-width: 0.8; stroke-linecap: square"/>
     </g>
     <g id="line2d_48">
      <g>
       <use xlink:href="#m5e07181663" x="44.105469" y="184.006289" style="fill: #ffffff; stroke: #ffffff; stroke-width: 0.8"/>
      </g>
     </g>
     <g id="text_13">
      <text style="font-size: 10px; font-family: sans-serif; text-anchor: end; fill: #ffffff" x="37.105469" y="187.805117" transform="rotate(-0 37.105469 187.805117)">0.8</text>
     </g>
    </g>
    <g id="ytick_6">
     <g id="line2d_49">
      <path d="M 44.105469 147.523846 
L 439.543125 147.523846 
" clip-path="url(#p1c8e9cd8f9)" style="fill: none; stroke: #555555; stroke-opacity: 0.4; stroke-width: 0.8; stroke-linecap: square"/>
     </g>
     <g id="line2d_50">
      <g>
       <use xlink:href="#m5e07181663" x="44.105469" y="147.523846" style="fill: #ffffff; stroke: #ffffff; stroke-width: 0.8"/>
      </g>
     </g>
     <g id="text_14">
      <text style="font-size: 10px; font-family: sans-serif; text-anchor: end; fill: #ffffff" x="37.105469" y="151.322674" transform="rotate(-0 37.105469 151.322674)">1.0</text>
     </g>
    </g>
    <g id="ytick_7">
     <g id="line2d_51">
      <path d="M 44.105469 111.041402 
L 439.543125 111.041402 
" clip-path="url(#p1c8e9cd8f9)" style="fill: none; stroke: #555555; stroke-opacity: 0.4; stroke-width: 0.8; stroke-linecap: square"/>
     </g>
     <g id="line2d_52">
      <g>
       <use xlink:href="#m5e07181663" x="44.105469" y="111.041402" style="fill: #ffffff; stroke: #ffffff; stroke-width: 0.8"/>
      </g>
     </g>
     <g id="text_15">
      <text style="font-size: 10px; font-family: sans-serif; text-anchor: end; fill: #ffffff" x="37.105469" y="114.84023" transform="rotate(-0 37.105469 114.84023)">1.2</text>
     </g>
    </g>
    <g id="ytick_8">
     <g id="line2d_53">
      <path d="M 44.105469 74.558959 
L 439.543125 74.558959 
" clip-path="url(#p1c8e9cd8f9)" style="fill: none; stroke: #555555; stroke-opacity: 0.4; stroke-width: 0.8; stroke-linecap: square"/>
     </g>
     <g id="line2d_54">
      <g>
       <use xlink:href="#m5e07181663" x="44.105469" y="74.558959" style="fill: #ffffff; stroke: #ffffff; stroke-width: 0.8"/>
      </g>
     </g>
     <g id="text_16">
      <text style="font-size: 10px; font-family: sans-serif; text-anchor: end; fill: #ffffff" x="37.105469" y="78.357787" transform="rotate(-0 37.105469 78.357787)">1.4</text>
     </g>
    </g>
    <g id="ytick_9">
     <g id="line2d_55">
      <path d="M 44.105469 38.076515 
L 439.543125 38.076515 
" clip-path="url(#p1c8e9cd8f9)" style="fill: none; stroke: #555555; stroke-opacity: 0.4; stroke-width: 0.8; stroke-linecap: square"/>
     </g>
     <g id="line2d_56">
      <g>
       <use xlink:href="#m5e07181663" x="44.105469" y="38.076515" style="fill: #ffffff; stroke: #ffffff; stroke-width: 0.8"/>
      </g>
     </g>
     <g id="text_17">
      <text style="font-size: 10px; font-family: sans-serif; text-anchor: end; fill: #ffffff" x="37.105469" y="41.875343" transform="rotate(-0 37.105469 41.875343)">1.6</text>
     </g>
    </g>
    <g id="text_18">
     <!-- Transmissibility  seat $\rightarrow$ spine -->
     <g style="fill: #ffffff" transform="translate(14.8 259.766953) rotate(-90)">
      <text>
       <tspan x="0" y="-0.40625" style="font-size: 10px; font-family: sans-serif; fill: #ffffff">T</tspan>
       <tspan x="5.108398" y="-0.40625" style="font-size: 10px; font-family: sans-serif; fill: #ffffff">r</tspan>
       <tspan x="9.219727" y="-0.40625" style="font-size: 10px; font-family: sans-serif; fill: #ffffff">a</tspan>
       <tspan x="15.347656" y="-0.40625" style="font-size: 10px; font-family: sans-serif; fill: #ffffff">n</tspan>
       <tspan x="21.685547" y="-0.40625" style="font-size: 10px; font-family: sans-serif; fill: #ffffff">s</tspan>
       <tspan x="26.895508" y="-0.40625" style="font-size: 10px; font-family: sans-serif; fill: #ffffff">m</tspan>
       <tspan x="36.636719" y="-0.40625" style="font-size: 10px; font-family: sans-serif; fill: #ffffff">i</tspan>
       <tspan x="39.415039" y="-0.40625" style="font-size: 10px; font-family: sans-serif; fill: #ffffff">s</tspan>
       <tspan x="44.625" y="-0.40625" style="font-size: 10px; font-family: sans-serif; fill: #ffffff">s</tspan>
       <tspan x="49.834961" y="-0.40625" style="font-size: 10px; font-family: sans-serif; fill: #ffffff">i</tspan>
       <tspan x="52.613281" y="-0.40625" style="font-size: 10px; font-family: sans-serif; fill: #ffffff">b</tspan>
       <tspan x="58.960938" y="-0.40625" style="font-size: 10px; font-family: sans-serif; fill: #ffffff">i</tspan>
       <tspan x="61.739258" y="-0.40625" style="font-size: 10px; font-family: sans-serif; fill: #ffffff">l</tspan>
       <tspan x="64.517578" y="-0.40625" style="font-size: 10px; font-family: sans-serif; fill: #ffffff">i</tspan>
       <tspan x="67.295898" y="-0.40625" style="font-size: 10px; font-family: sans-serif; fill: #ffffff">t</tspan>
       <tspan x="71.216797" y="-0.40625" style="font-size: 10px; font-family: sans-serif; fill: #ffffff">y</tspan>
       <tspan x="77.134766" y="-0.40625" style="font-size: 10px; font-family: sans-serif; fill: #ffffff"> </tspan>
       <tspan x="80.313477" y="-0.40625" style="font-size: 10px; font-family: sans-serif; fill: #ffffff"> </tspan>
       <tspan x="83.492188" y="-0.40625" style="font-size: 10px; font-family: sans-serif; fill: #ffffff">s</tspan>
       <tspan x="88.702148" y="-0.40625" style="font-size: 10px; font-family: sans-serif; fill: #ffffff">e</tspan>
       <tspan x="94.854492" y="-0.40625" style="font-size: 10px; font-family: sans-serif; fill: #ffffff">a</tspan>
       <tspan x="100.982422" y="-0.40625" style="font-size: 10px; font-family: sans-serif; fill: #ffffff">t</tspan>
       <tspan x="104.90332" y="-0.40625" style="font-size: 10px; font-family: sans-serif; fill: #ffffff"> </tspan>
       <tspan x="110.030273" y="-0.40625" style="font-size: 10px; font-family: sans-serif; fill: #ffffff">→</tspan>
       <tspan x="120.357422" y="-0.40625" style="font-size: 10px; font-family: sans-serif; fill: #ffffff"> </tspan>
       <tspan x="123.536133" y="-0.40625" style="font-size: 10px; font-family: sans-serif; fill: #ffffff">s</tspan>
       <tspan x="128.746094" y="-0.40625" style="font-size: 10px; font-family: sans-serif; fill: #ffffff">p</tspan>
       <tspan x="135.09375" y="-0.40625" style="font-size: 10px; font-family: sans-serif; fill: #ffffff">i</tspan>
       <tspan x="137.87207" y="-0.40625" style="font-size: 10px; font-family: sans-serif; fill: #ffffff">n</tspan>
       <tspan x="144.209961" y="-0.40625" style="font-size: 10px; font-family: sans-serif; fill: #ffffff">e</tspan>
      </text>
     </g>
    </g>
   </g>
   <g id="line2d_57">
    <path d="M 62.079908 146.999427 
L 81.901344 146.597751 
L 97.217909 146.080248 
L 109.83155 145.4335 
L 119.742268 144.716036 
L 128.752012 143.836016 
L 135.959807 142.919296 
L 142.266628 141.91204 
L 147.672474 140.853569 
L 153.07832 139.567222 
L 157.583192 138.278244 
L 162.088064 136.744083 
L 165.691962 135.301425 
L 169.295859 133.626795 
L 172.899757 131.672954 
L 175.60268 129.989234 
L 178.305603 128.084883 
L 181.008526 125.923408 
L 183.711449 123.461139 
L 186.414372 120.645815 
L 189.117296 117.415052 
L 191.820219 113.69491 
L 193.622167 110.900787 
L 195.424116 107.822404 
L 197.226065 104.429158 
L 199.028014 100.689338 
L 200.829962 96.571787 
L 202.631911 92.048776 
L 204.43386 87.100747 
L 207.136783 78.880208 
L 209.839706 69.818651 
L 215.245553 51.216571 
L 217.047501 46.089996 
L 217.948476 44.019176 
L 218.84945 42.382712 
L 219.750425 41.26047 
L 220.651399 40.727109 
L 221.552373 40.846716 
L 222.453348 41.667318 
L 223.354322 43.215993 
L 224.255296 45.495321 
L 225.156271 48.481813 
L 226.057245 52.126673 
L 227.859194 61.090055 
L 229.661143 71.646601 
L 235.967963 110.367294 
L 237.769912 119.90357 
L 239.571861 128.3888 
L 241.37381 135.823702 
L 243.175758 142.270718 
L 244.977707 147.823866 
L 246.779656 152.588784 
L 248.581605 156.670671 
L 250.383554 160.167722 
L 252.185502 163.168086 
L 253.987451 165.748953 
L 255.7894 167.976829 
L 257.591349 169.908417 
L 259.393297 171.591742 
L 262.09622 173.738095 
L 264.799144 175.526364 
L 267.502067 177.042268 
L 271.105964 178.752668 
L 274.709862 180.214803 
L 280.115708 182.127622 
L 299.937145 188.809736 
L 305.342991 191.025641 
L 309.847863 193.122854 
L 314.352735 195.499066 
L 317.956632 197.633849 
L 321.56053 200.004261 
L 325.164427 202.636321 
L 328.768325 205.556029 
L 332.372222 208.788831 
L 335.97612 212.358924 
L 339.580017 216.288399 
L 343.183915 220.596296 
L 346.787812 225.297593 
L 350.39171 230.402211 
L 353.995607 235.91405 
L 357.599505 241.829976 
L 361.203402 248.13853 
L 365.708274 256.54175 
L 370.213146 265.447692 
L 376.519967 278.494536 
L 383.727762 293.408177 
L 387.33166 300.394586 
L 390.034583 305.237566 
L 392.737506 309.643209 
L 395.440429 313.548764 
L 398.143352 316.922186 
L 399.945301 318.874296 
L 401.74725 320.596531 
L 403.549198 322.100667 
L 405.351147 323.401901 
L 408.05407 325.011788 
L 410.756993 326.267408 
L 413.459917 327.23102 
L 416.16284 327.960019 
L 419.766737 328.652614 
L 421.568686 328.906797 
L 421.568686 328.906797 
" clip-path="url(#p1c8e9cd8f9)" style="fill: none; stroke: #1f77b4; stroke-width: 1.5; stroke-linecap: square"/>
   </g>
   <g id="line2d_58">
    <path d="M 44.105469 147.523846 
L 439.543125 147.523846 
" clip-path="url(#p1c8e9cd8f9)" style="fill: none; stroke-dasharray: 5.55,2.4; stroke-dashoffset: 0; stroke: #555555; stroke-opacity: 0.7; stroke-width: 1.5"/>
   </g>
   <g id="patch_3">
    <path d="M 44.105469 343.315781 
L 44.105469 26.318125 
" style="fill: none; stroke: #ffffff; stroke-width: 0.8; stroke-linejoin: miter; stroke-linecap: square"/>
   </g>
   <g id="patch_4">
    <path d="M 439.543125 343.315781 
L 439.543125 26.318125 
" style="fill: none; stroke: #ffffff; stroke-width: 0.8; stroke-linejoin: miter; stroke-linecap: square"/>
   </g>
   <g id="patch_5">
    <path d="M 44.105469 343.315781 
L 439.543125 343.315781 
" style="fill: none; stroke: #ffffff; stroke-width: 0.8; stroke-linejoin: miter; stroke-linecap: square"/>
   </g>
   <g id="patch_6">
    <path d="M 44.105469 26.318125 
L 439.543125 26.318125 
" style="fill: none; stroke: #ffffff; stroke-width: 0.8; stroke-linejoin: miter; stroke-linecap: square"/>
   </g>
   <g id="text_19">
    <text style="font-weight: 700; font-size: 12px; font-family: sans-serif; text-anchor: middle; fill: #ffffff" x="241.824297" y="16.318125" transform="rotate(-0 241.824297 16.318125)">Seat-to-spine transfer function</text>
   </g>
   <g id="legend_1">
    <g id="patch_7">
     <path d="M 374.943125 49.420469 
L 432.543125 49.420469 
Q 434.543125 49.420469 434.543125 47.420469 
L 434.543125 33.318125 
Q 434.543125 31.318125 432.543125 31.318125 
L 374.943125 31.318125 
Q 372.943125 31.318125 372.943125 33.318125 
L 372.943125 47.420469 
Q 372.943125 49.420469 374.943125 49.420469 
z
" style="opacity: 0.8; stroke: #cccccc; stroke-linejoin: miter"/>
    </g>
    <g id="line2d_59">
     <path d="M 376.943125 39.518125 
L 386.943125 39.518125 
L 396.943125 39.518125 
" style="fill: none; stroke: #1f77b4; stroke-width: 1.5; stroke-linecap: square"/>
    </g>
    <g id="text_20">
     <!-- $|H(f)|$ -->
     <g style="fill: #ffffff" transform="translate(404.943125 43.018125)">
      <text>
       <tspan x="0" y="-0.359375" style="font-size: 10px; font-family: sans-serif; fill: #ffffff">|</tspan>
       <tspan x="10.888672" y="-0.359375" style="font-size: 10px; font-family: sans-serif; fill: #ffffff">(</tspan>
       <tspan x="18.310547" y="-0.359375" style="font-size: 10px; font-family: sans-serif; fill: #ffffff">)</tspan>
       <tspan x="22.211914" y="-0.359375" style="font-size: 10px; font-family: sans-serif; fill: #ffffff">|</tspan>
       <tspan x="3.369141" y="-0.359375" style="font-style: oblique; font-size: 10px; font-family: sans-serif; fill: #ffffff">H</tspan>
       <tspan x="14.790039" y="-0.359375" style="font-style: oblique; font-size: 10px; font-family: sans-serif; fill: #ffffff">f</tspan>
      </text>
     </g>
    </g>
   </g>
  </g>
  <g id="axes_2">
   <g id="patch_8">
    <path d="M 490.145469 343.315781 
L 885.583125 343.315781 
L 885.583125 26.318125 
L 490.145469 26.318125 
z
"/>
   </g>
   <g id="matplotlib.axis_3">
    <g id="xtick_20">
     <g id="line2d_60">
      <path d="M 490.145469 343.315781 
L 490.145469 26.318125 
" clip-path="url(#p3f937b1af6)" style="fill: none; stroke: #555555; stroke-opacity: 0.4; stroke-width: 0.8; stroke-linecap: square"/>
     </g>
     <g id="line2d_61">
      <g>
       <use xlink:href="#m8d14ee1197" x="490.145469" y="343.315781" style="fill: #ffffff; stroke: #ffffff; stroke-width: 0.8"/>
      </g>
     </g>
     <g id="text_21">
      <text style="font-size: 10px; font-family: sans-serif; text-anchor: middle; fill: #ffffff" x="490.145469" y="357.913438" transform="rotate(-0 490.145469 357.913438)">0.0</text>
     </g>
    </g>
    <g id="xtick_21">
     <g id="line2d_62">
      <path d="M 552.913351 343.315781 
L 552.913351 26.318125 
" clip-path="url(#p3f937b1af6)" style="fill: none; stroke: #555555; stroke-opacity: 0.4; stroke-width: 0.8; stroke-linecap: square"/>
     </g>
     <g id="line2d_63">
      <g>
       <use xlink:href="#m8d14ee1197" x="552.913351" y="343.315781" style="fill: #ffffff; stroke: #ffffff; stroke-width: 0.8"/>
      </g>
     </g>
     <g id="text_22">
      <text style="font-size: 10px; font-family: sans-serif; text-anchor: middle; fill: #ffffff" x="552.913351" y="357.913438" transform="rotate(-0 552.913351 357.913438)">0.5</text>
     </g>
    </g>
    <g id="xtick_22">
     <g id="line2d_64">
      <path d="M 615.681233 343.315781 
L 615.681233 26.318125 
" clip-path="url(#p3f937b1af6)" style="fill: none; stroke: #555555; stroke-opacity: 0.4; stroke-width: 0.8; stroke-linecap: square"/>
     </g>
     <g id="line2d_65">
      <g>
       <use xlink:href="#m8d14ee1197" x="615.681233" y="343.315781" style="fill: #ffffff; stroke: #ffffff; stroke-width: 0.8"/>
      </g>
     </g>
     <g id="text_23">
      <text style="font-size: 10px; font-family: sans-serif; text-anchor: middle; fill: #ffffff" x="615.681233" y="357.913438" transform="rotate(-0 615.681233 357.913438)">1.0</text>
     </g>
    </g>
    <g id="xtick_23">
     <g id="line2d_66">
      <path d="M 678.449115 343.315781 
L 678.449115 26.318125 
" clip-path="url(#p3f937b1af6)" style="fill: none; stroke: #555555; stroke-opacity: 0.4; stroke-width: 0.8; stroke-linecap: square"/>
     </g>
     <g id="line2d_67">
      <g>
       <use xlink:href="#m8d14ee1197" x="678.449115" y="343.315781" style="fill: #ffffff; stroke: #ffffff; stroke-width: 0.8"/>
      </g>
     </g>
     <g id="text_24">
      <text style="font-size: 10px; font-family: sans-serif; text-anchor: middle; fill: #ffffff" x="678.449115" y="357.913438" transform="rotate(-0 678.449115 357.913438)">1.5</text>
     </g>
    </g>
    <g id="xtick_24">
     <g id="line2d_68">
      <path d="M 741.216997 343.315781 
L 741.216997 26.318125 
" clip-path="url(#p3f937b1af6)" style="fill: none; stroke: #555555; stroke-opacity: 0.4; stroke-width: 0.8; stroke-linecap: square"/>
     </g>
     <g id="line2d_69">
      <g>
       <use xlink:href="#m8d14ee1197" x="741.216997" y="343.315781" style="fill: #ffffff; stroke: #ffffff; stroke-width: 0.8"/>
      </g>
     </g>
     <g id="text_25">
      <text style="font-size: 10px; font-family: sans-serif; text-anchor: middle; fill: #ffffff" x="741.216997" y="357.913438" transform="rotate(-0 741.216997 357.913438)">2.0</text>
     </g>
    </g>
    <g id="xtick_25">
     <g id="line2d_70">
      <path d="M 803.984878 343.315781 
L 803.984878 26.318125 
" clip-path="url(#p3f937b1af6)" style="fill: none; stroke: #555555; stroke-opacity: 0.4; stroke-width: 0.8; stroke-linecap: square"/>
     </g>
     <g id="line2d_71">
      <g>
       <use xlink:href="#m8d14ee1197" x="803.984878" y="343.315781" style="fill: #ffffff; stroke: #ffffff; stroke-width: 0.8"/>
      </g>
     </g>
     <g id="text_26">
      <text style="font-size: 10px; font-family: sans-serif; text-anchor: middle; fill: #ffffff" x="803.984878" y="357.913438" transform="rotate(-0 803.984878 357.913438)">2.5</text>
     </g>
    </g>
    <g id="xtick_26">
     <g id="line2d_72">
      <path d="M 866.75276 343.315781 
L 866.75276 26.318125 
" clip-path="url(#p3f937b1af6)" style="fill: none; stroke: #555555; stroke-opacity: 0.4; stroke-width: 0.8; stroke-linecap: square"/>
     </g>
     <g id="line2d_73">
      <g>
       <use xlink:href="#m8d14ee1197" x="866.75276" y="343.315781" style="fill: #ffffff; stroke: #ffffff; stroke-width: 0.8"/>
      </g>
     </g>
     <g id="text_27">
      <text style="font-size: 10px; font-family: sans-serif; text-anchor: middle; fill: #ffffff" x="866.75276" y="357.913438" transform="rotate(-0 866.75276 357.913438)">3.0</text>
     </g>
    </g>
    <g id="text_28">
     <!-- Stress variable $R$ -->
     <g style="fill: #ffffff" transform="translate(645.664297 371.915781)">
      <text>
       <tspan x="0" y="-0.40625" style="font-size: 10px; font-family: sans-serif; fill: #ffffff">S</tspan>
       <tspan x="6.347656" y="-0.40625" style="font-size: 10px; font-family: sans-serif; fill: #ffffff">t</tspan>
       <tspan x="10.268555" y="-0.40625" style="font-size: 10px; font-family: sans-serif; fill: #ffffff">r</tspan>
       <tspan x="14.379883" y="-0.40625" style="font-size: 10px; font-family: sans-serif; fill: #ffffff">e</tspan>
       <tspan x="20.532227" y="-0.40625" style="font-size: 10px; font-family: sans-serif; fill: #ffffff">s</tspan>
       <tspan x="25.742188" y="-0.40625" style="font-size: 10px; font-family: sans-serif; fill: #ffffff">s</tspan>
       <tspan x="30.952148" y="-0.40625" style="font-size: 10px; font-family: sans-serif; fill: #ffffff"> </tspan>
       <tspan x="34.130859" y="-0.40625" style="font-size: 10px; font-family: sans-serif; fill: #ffffff">v</tspan>
       <tspan x="40.048828" y="-0.40625" style="font-size: 10px; font-family: sans-serif; fill: #ffffff">a</tspan>
       <tspan x="46.176758" y="-0.40625" style="font-size: 10px; font-family: sans-serif; fill: #ffffff">r</tspan>
       <tspan x="50.288086" y="-0.40625" style="font-size: 10px; font-family: sans-serif; fill: #ffffff">i</tspan>
       <tspan x="53.066406" y="-0.40625" style="font-size: 10px; font-family: sans-serif; fill: #ffffff">a</tspan>
       <tspan x="59.194336" y="-0.40625" style="font-size: 10px; font-family: sans-serif; fill: #ffffff">b</tspan>
       <tspan x="65.541992" y="-0.40625" style="font-size: 10px; font-family: sans-serif; fill: #ffffff">l</tspan>
       <tspan x="68.320312" y="-0.40625" style="font-size: 10px; font-family: sans-serif; fill: #ffffff">e</tspan>
       <tspan x="74.472656" y="-0.40625" style="font-size: 10px; font-family: sans-serif; fill: #ffffff"> </tspan>
       <tspan x="77.651367" y="-0.40625" style="font-style: oblique; font-size: 10px; font-family: sans-serif; fill: #ffffff">R</tspan>
      </text>
     </g>
    </g>
   </g>
   <g id="matplotlib.axis_4">
    <g id="ytick_10">
     <g id="line2d_74">
      <path d="M 490.145469 343.315781 
L 885.583125 343.315781 
" clip-path="url(#p3f937b1af6)" style="fill: none; stroke: #555555; stroke-opacity: 0.4; stroke-width: 0.8; stroke-linecap: square"/>
     </g>
     <g id="line2d_75">
      <g>
       <use xlink:href="#m5e07181663" x="490.145469" y="343.315781" style="fill: #ffffff; stroke: #ffffff; stroke-width: 0.8"/>
      </g>
     </g>
     <g id="text_29">
      <text style="font-size: 10px; font-family: sans-serif; text-anchor: end; fill: #ffffff" x="483.145469" y="347.114609" transform="rotate(-0 483.145469 347.114609)">0</text>
     </g>
    </g>
    <g id="ytick_11">
     <g id="line2d_76">
      <path d="M 490.145469 279.91625 
L 885.583125 279.91625 
" clip-path="url(#p3f937b1af6)" style="fill: none; stroke: #555555; stroke-opacity: 0.4; stroke-width: 0.8; stroke-linecap: square"/>
     </g>
     <g id="line2d_77">
      <g>
       <use xlink:href="#m5e07181663" x="490.145469" y="279.91625" style="fill: #ffffff; stroke: #ffffff; stroke-width: 0.8"/>
      </g>
     </g>
     <g id="text_30">
      <text style="font-size: 10px; font-family: sans-serif; text-anchor: end; fill: #ffffff" x="483.145469" y="283.715078" transform="rotate(-0 483.145469 283.715078)">20</text>
     </g>
    </g>
    <g id="ytick_12">
     <g id="line2d_78">
      <path d="M 490.145469 216.516719 
L 885.583125 216.516719 
" clip-path="url(#p3f937b1af6)" style="fill: none; stroke: #555555; stroke-opacity: 0.4; stroke-width: 0.8; stroke-linecap: square"/>
     </g>
     <g id="line2d_79">
      <g>
       <use xlink:href="#m5e07181663" x="490.145469" y="216.516719" style="fill: #ffffff; stroke: #ffffff; stroke-width: 0.8"/>
      </g>
     </g>
     <g id="text_31">
      <text style="font-size: 10px; font-family: sans-serif; text-anchor: end; fill: #ffffff" x="483.145469" y="220.315547" transform="rotate(-0 483.145469 220.315547)">40</text>
     </g>
    </g>
    <g id="ytick_13">
     <g id="line2d_80">
      <path d="M 490.145469 153.117188 
L 885.583125 153.117188 
" clip-path="url(#p3f937b1af6)" style="fill: none; stroke: #555555; stroke-opacity: 0.4; stroke-width: 0.8; stroke-linecap: square"/>
     </g>
     <g id="line2d_81">
      <g>
       <use xlink:href="#m5e07181663" x="490.145469" y="153.117188" style="fill: #ffffff; stroke: #ffffff; stroke-width: 0.8"/>
      </g>
     </g>
     <g id="text_32">
      <text style="font-size: 10px; font-family: sans-serif; text-anchor: end; fill: #ffffff" x="483.145469" y="156.916016" transform="rotate(-0 483.145469 156.916016)">60</text>
     </g>
    </g>
    <g id="ytick_14">
     <g id="line2d_82">
      <path d="M 490.145469 89.717656 
L 885.583125 89.717656 
" clip-path="url(#p3f937b1af6)" style="fill: none; stroke: #555555; stroke-opacity: 0.4; stroke-width: 0.8; stroke-linecap: square"/>
     </g>
     <g id="line2d_83">
      <g>
       <use xlink:href="#m5e07181663" x="490.145469" y="89.717656" style="fill: #ffffff; stroke: #ffffff; stroke-width: 0.8"/>
      </g>
     </g>
     <g id="text_33">
      <text style="font-size: 10px; font-family: sans-serif; text-anchor: end; fill: #ffffff" x="483.145469" y="93.516484" transform="rotate(-0 483.145469 93.516484)">80</text>
     </g>
    </g>
    <g id="ytick_15">
     <g id="line2d_84">
      <path d="M 490.145469 26.318125 
L 885.583125 26.318125 
" clip-path="url(#p3f937b1af6)" style="fill: none; stroke: #555555; stroke-opacity: 0.4; stroke-width: 0.8; stroke-linecap: square"/>
     </g>
     <g id="line2d_85">
      <g>
       <use xlink:href="#m5e07181663" x="490.145469" y="26.318125" style="fill: #ffffff; stroke: #ffffff; stroke-width: 0.8"/>
      </g>
     </g>
     <g id="text_34">
      <text style="font-size: 10px; font-family: sans-serif; text-anchor: end; fill: #ffffff" x="483.145469" y="30.116953" transform="rotate(-0 483.145469 30.116953)">100</text>
     </g>
    </g>
    <g id="text_35">
     <text style="font-size: 10px; font-family: sans-serif; text-anchor: middle; fill: #ffffff" x="457.655625" y="184.816953" transform="rotate(-90 457.655625 184.816953)">Probability of lumbar injury [%]</text>
    </g>
   </g>
   <g id="line2d_86">
    <path d="M 490.145469 343.315781 
L 501.481474 343.216515 
L 509.038811 342.901265 
L 515.336592 342.389178 
L 520.374817 341.773729 
L 525.413041 340.944886 
L 530.451266 339.87629 
L 535.48949 338.54327 
L 540.527715 336.922914 
L 544.306384 335.506355 
L 548.085052 333.908159 
L 551.863721 332.120859 
L 555.642389 330.137705 
L 559.421058 327.952692 
L 563.199726 325.56061 
L 566.978394 322.957074 
L 570.757063 320.138567 
L 574.535731 317.102472 
L 578.3144 313.847104 
L 583.352625 309.164414 
L 588.390849 304.091758 
L 593.429074 298.633355 
L 598.467298 292.796673 
L 603.505523 286.592443 
L 608.543748 280.034641 
L 613.581972 273.140432 
L 619.879753 264.080739 
L 626.177534 254.573272 
L 632.475315 244.670654 
L 640.032652 232.348694 
L 648.849545 217.508723 
L 661.445106 195.802865 
L 679.078893 165.418169 
L 687.895786 150.659306 
L 695.453123 138.424168 
L 701.750904 128.598387 
L 708.048684 119.164195 
L 714.346465 110.166018 
L 719.38469 103.30653 
L 724.422914 96.765296 
L 729.461139 90.554447 
L 734.499364 84.682865 
L 739.537588 79.156234 
L 744.575813 73.977125 
L 749.614038 69.145137 
L 754.652262 64.65707 
L 759.690487 60.507135 
L 764.728712 56.687189 
L 769.766936 53.186998 
L 774.805161 49.994509 
L 779.843385 47.096137 
L 784.88161 44.477055 
L 789.919835 42.121473 
L 794.958059 40.012924 
L 799.996284 38.134522 
L 805.034509 36.469214 
L 810.072733 35.000002 
L 816.370514 33.413791 
L 822.668295 32.076186 
L 828.966076 30.957026 
L 836.523413 29.862703 
L 844.08075 28.997517 
L 852.897643 28.224607 
L 862.974092 27.586412 
L 866.75276 27.400987 
L 866.75276 27.400987 
" clip-path="url(#p3f937b1af6)" style="fill: none; stroke: #1f77b4; stroke-width: 1.5; stroke-linecap: square"/>
   </g>
   <g id="line2d_87">
    <path d="M 490.145469 343.315781 
L 504.000587 343.211472 
L 509.038811 342.986349 
L 514.077036 342.524695 
L 517.855704 341.954397 
L 521.634373 341.131402 
L 525.413041 339.996116 
L 527.932154 339.03461 
L 530.451266 337.886722 
L 532.970378 336.532562 
L 535.48949 334.952016 
L 538.008603 333.124934 
L 540.527715 331.031337 
L 543.046827 328.651646 
L 545.56594 325.966932 
L 548.085052 322.959181 
L 550.604164 319.611579 
L 553.123277 315.908806 
L 555.642389 311.837349 
L 558.161501 307.38581 
L 560.680614 302.545232 
L 563.199726 297.309403 
L 565.718838 291.675164 
L 568.237951 285.642694 
L 572.016619 275.856597 
L 575.795288 265.212914 
L 579.573956 253.761278 
L 583.352625 241.572571 
L 587.131293 228.73882 
L 592.169518 210.820381 
L 599.726855 182.872876 
L 609.803304 145.569026 
L 614.841529 127.774744 
L 618.620197 115.104936 
L 622.398865 103.162504 
L 626.177534 92.057769 
L 629.956202 81.875948 
L 632.475315 75.630466 
L 634.994427 69.831465 
L 637.513539 64.483384 
L 640.032652 59.5852 
L 642.551764 55.130715 
L 645.070876 51.108949 
L 647.589989 47.504634 
L 650.109101 44.298776 
L 652.628213 41.469286 
L 655.147326 38.991633 
L 657.666438 36.839518 
L 660.18555 34.985532 
L 662.704663 33.401788 
L 665.223775 32.060501 
L 667.742887 30.934506 
L 670.262 29.997708 
L 674.040668 28.893755 
L 677.819337 28.084573 
L 681.598005 27.504268 
L 686.63623 26.992166 
L 692.93401 26.632143 
L 701.750904 26.414346 
L 716.865577 26.327191 
L 801.25584 26.318125 
L 866.75276 26.318125 
L 866.75276 26.318125 
" clip-path="url(#p3f937b1af6)" style="fill: none; stroke: #d62728; stroke-width: 1.5; stroke-linecap: square"/>
   </g>
   <g id="line2d_88">
    <path d="M 490.145469 311.616016 
L 885.583125 311.616016 
" clip-path="url(#p3f937b1af6)" style="fill: none; stroke-dasharray: 0.8,1.32; stroke-dashoffset: 0; stroke: #7f7f7f; stroke-width: 0.8"/>
   </g>
   <g id="line2d_89">
    <path d="M 580.531219 343.315781 
L 580.531219 311.616016 
" clip-path="url(#p3f937b1af6)" style="fill: none; stroke-dasharray: 0.8,1.32; stroke-dashoffset: 0; stroke: #7f7f7f; stroke-width: 0.8"/>
   </g>
   <g id="line2d_90">
    <path d="M 490.145469 184.816953 
L 885.583125 184.816953 
" clip-path="url(#p3f937b1af6)" style="fill: none; stroke-dasharray: 0.8,1.32; stroke-dashoffset: 0; stroke: #7f7f7f; stroke-width: 0.8"/>
   </g>
   <g id="line2d_91">
    <path d="M 668.406253 343.315781 
L 668.406253 184.816953 
" clip-path="url(#p3f937b1af6)" style="fill: none; stroke-dasharray: 0.8,1.32; stroke-dashoffset: 0; stroke: #7f7f7f; stroke-width: 0.8"/>
   </g>
   <g id="line2d_92">
    <path d="M 490.145469 58.017891 
L 885.583125 58.017891 
" clip-path="url(#p3f937b1af6)" style="fill: none; stroke-dasharray: 0.8,1.32; stroke-dashoffset: 0; stroke: #7f7f7f; stroke-width: 0.8"/>
   </g>
   <g id="line2d_93">
    <path d="M 762.558076 343.315781 
L 762.558076 58.017891 
" clip-path="url(#p3f937b1af6)" style="fill: none; stroke-dasharray: 0.8,1.32; stroke-dashoffset: 0; stroke: #7f7f7f; stroke-width: 0.8"/>
   </g>
   <g id="patch_9">
    <path d="M 490.145469 343.315781 
L 490.145469 26.318125 
" style="fill: none; stroke: #ffffff; stroke-width: 0.8; stroke-linejoin: miter; stroke-linecap: square"/>
   </g>
   <g id="patch_10">
    <path d="M 885.583125 343.315781 
L 885.583125 26.318125 
" style="fill: none; stroke: #ffffff; stroke-width: 0.8; stroke-linejoin: miter; stroke-linecap: square"/>
   </g>
   <g id="patch_11">
    <path d="M 490.145469 343.315781 
L 885.583125 343.315781 
" style="fill: none; stroke: #ffffff; stroke-width: 0.8; stroke-linejoin: miter; stroke-linecap: square"/>
   </g>
   <g id="patch_12">
    <path d="M 490.145469 26.318125 
L 885.583125 26.318125 
" style="fill: none; stroke: #ffffff; stroke-width: 0.8; stroke-linejoin: miter; stroke-linecap: square"/>
   </g>
   <g id="text_36">
    <text style="font-weight: 700; font-size: 12px; font-family: sans-serif; text-anchor: middle; fill: #ffffff" x="687.864297" y="16.318125" transform="rotate(-0 687.864297 16.318125)">Injury probability (Annex C)</text>
   </g>
   <g id="PathCollection_1">
    <defs>
     <path id="mf71be5967e" d="M 0 -6.324555 
L -1.419951 -1.954395 
L -6.01501 -1.954395 
L -2.297529 0.746512 
L -3.71748 5.116673 
L -0 2.415765 
L 3.71748 5.116673 
L 2.297529 0.746512 
L 6.01501 -1.954395 
L 1.419951 -1.954395 
z
" style="stroke: #2ca02c"/>
    </defs>
    <g clip-path="url(#p3f937b1af6)">
     <use xlink:href="#mf71be5967e" x="643.295868" y="226.905771" style="fill: #2ca02c; stroke: #2ca02c"/>
    </g>
   </g>
   <g id="legend_2">
    <g id="patch_13">
     <path d="M 752.883125 338.315781 
L 878.583125 338.315781 
Q 880.583125 338.315781 880.583125 336.315781 
L 880.583125 292.311875 
Q 880.583125 290.311875 878.583125 290.311875 
L 752.883125 290.311875 
Q 750.883125 290.311875 750.883125 292.311875 
L 750.883125 336.315781 
Q 750.883125 338.315781 752.883125 338.315781 
z
" style="opacity: 0.8; stroke: #cccccc; stroke-linejoin: miter"/>
    </g>
    <g id="line2d_94">
     <path d="M 754.883125 298.410313 
L 764.883125 298.410313 
L 774.883125 298.410313 
" style="fill: none; stroke: #1f77b4; stroke-width: 1.5; stroke-linecap: square"/>
    </g>
    <g id="text_37">
     <text style="font-size: 10px; font-family: sans-serif; text-anchor: start; fill: #ffffff" x="782.883125" y="301.910313" transform="rotate(-0 782.883125 301.910313)">male</text>
    </g>
    <g id="line2d_95">
     <path d="M 754.883125 313.411094 
L 764.883125 313.411094 
L 774.883125 313.411094 
" style="fill: none; stroke: #d62728; stroke-width: 1.5; stroke-linecap: square"/>
    </g>
    <g id="text_38">
     <text style="font-size: 10px; font-family: sans-serif; text-anchor: start; fill: #ffffff" x="782.883125" y="316.911094" transform="rotate(-0 782.883125 316.911094)">female</text>
    </g>
    <g id="PathCollection_2">
     <g>
      <use xlink:href="#mf71be5967e" x="764.883125" y="329.288438" style="fill: #2ca02c; stroke: #2ca02c"/>
     </g>
    </g>
    <g id="text_39">
     <!-- Example  $R$ = 1.22 -->
     <g style="fill: #ffffff" transform="translate(782.883125 331.913438)">
      <text>
       <tspan x="0" y="-0.40625" style="font-size: 10px; font-family: sans-serif; fill: #ffffff">E</tspan>
       <tspan x="6.318359" y="-0.40625" style="font-size: 10px; font-family: sans-serif; fill: #ffffff">x</tspan>
       <tspan x="12.236328" y="-0.40625" style="font-size: 10px; font-family: sans-serif; fill: #ffffff">a</tspan>
       <tspan x="18.364258" y="-0.40625" style="font-size: 10px; font-family: sans-serif; fill: #ffffff">m</tspan>
       <tspan x="28.105469" y="-0.40625" style="font-size: 10px; font-family: sans-serif; fill: #ffffff">p</tspan>
       <tspan x="34.453125" y="-0.40625" style="font-size: 10px; font-family: sans-serif; fill: #ffffff">l</tspan>
       <tspan x="37.231445" y="-0.40625" style="font-size: 10px; font-family: sans-serif; fill: #ffffff">e</tspan>
       <tspan x="43.383789" y="-0.40625" style="font-size: 10px; font-family: sans-serif; fill: #ffffff"> </tspan>
       <tspan x="46.5625" y="-0.40625" style="font-size: 10px; font-family: sans-serif; fill: #ffffff"> </tspan>
       <tspan x="56.689453" y="-0.40625" style="font-size: 10px; font-family: sans-serif; fill: #ffffff"> </tspan>
       <tspan x="59.868164" y="-0.40625" style="font-size: 10px; font-family: sans-serif; fill: #ffffff">=</tspan>
       <tspan x="68.24707" y="-0.40625" style="font-size: 10px; font-family: sans-serif; fill: #ffffff"> </tspan>
       <tspan x="71.425781" y="-0.40625" style="font-size: 10px; font-family: sans-serif; fill: #ffffff">1</tspan>
       <tspan x="77.788086" y="-0.40625" style="font-size: 10px; font-family: sans-serif; fill: #ffffff">.</tspan>
       <tspan x="80.966797" y="-0.40625" style="font-size: 10px; font-family: sans-serif; fill: #ffffff">2</tspan>
       <tspan x="87.329102" y="-0.40625" style="font-size: 10px; font-family: sans-serif; fill: #ffffff">2</tspan>
       <tspan x="49.741211" y="-0.40625" style="font-style: oblique; font-size: 10px; font-family: sans-serif; fill: #ffffff">R</tspan>
      </text>
     </g>
    </g>
   </g>
  </g>
 </g>
 <defs>
  <clipPath id="p1c8e9cd8f9">
   <rect x="44.105469" y="26.318125" width="395.437656" height="316.997656"/>
  </clipPath>
  <clipPath id="p3f937b1af6">
   <rect x="490.145469" y="26.318125" width="395.437656" height="316.997656"/>
  </clipPath>
 </defs>
</svg>
