<?xml version="1.0" encoding="utf-8" standalone="no"?><svg xmlns:xlink="http://www.w3.org/1999/xlink" width="892.963437pt" height="396.86742pt" viewBox="0 0 892.963437 396.86742" xmlns="http://www.w3.org/2000/svg" version="1.1"><defs><style type="text/css">*{stroke-linejoin: round; stroke-linecap: butt}</style></defs><g id="figure_1"><g id="patch_1"><path d="M 0 396.87 
L 892.96 396.87 
L 892.96 0 
L 0 0 
z
" style="fill: #ffffff"/></g><g id="axes_1"><g id="patch_2"><path d="M 40.93 343.2 
L 441.16 343.2 
L 441.16 26.52 
L 40.93 26.52 
z
" style="fill: #ffffff"/></g><g id="FillBetweenPolyCollection_1"><defs><path id="mc06f6b926e" d="M 59.12 -351.02 
L 59.12 -355.32 
L 160.61 -339.42 
L 262.11 -286.67 
L 321.48 -218.12 
L 363.6 -204.2 
L 422.97 -266.14 
L 422.97 -125.98 
L 422.97 -125.98 
L 363.6 -73.36 
L 321.48 -68.06 
L 262.11 -186.61 
L 160.61 -314.7 
L 59.12 -351.02 
z
" style="stroke: #f9dede"/></defs><g clip-path="url(#pddadfca9f0)"><use xlink:href="#mc06f6b926e" x="0" y="396.87" style="fill: #f9dede; stroke: #f9dede"/></g></g><g id="matplotlib.axis_1"><g id="xtick_1"><g id="line2d_1"><path d="M 59.12 343.2 
L 59.12 26.52 
" clip-path="url(#pddadfca9f0)" style="fill: none; stroke: #e0e0e0; stroke-opacity: 0.4; stroke-width: 0.8; stroke-linecap: square"/></g><g id="line2d_2"><defs><path id="m3d27035b55" d="M 0 0 
L 0 3.5 
" style="stroke: #000000; stroke-width: 0.8"/></defs><g><use xlink:href="#m3d27035b55" x="59.12" y="343.2" style="stroke: #000000; stroke-width: 0.8"/></g></g><g id="text_1"><!-- 500 --><g transform="translate(43.92 369.07) rotate(-45) scale(0.1 -0.1)"><defs><path id="DejaVuSans-18" d="M 691 4666 
L 3169 4666 
L 3169 4134 
L 1269 4134 
L 1269 2991 
Q 1406 3038 1543 3061 
Q 1681 3084 1819 3084 
Q 2600 3084 3056 2656 
Q 3513 2228 3513 1497 
Q 3513 744 3044 326 
Q 2575 -91 1722 -91 
Q 1428 -91 1123 -41 
Q 819 9 494 109 
L 494 744 
Q 775 591 1075 516 
Q 1375 441 1709 441 
Q 2250 441 2565 725 
Q 2881 1009 2881 1497 
Q 2881 1984 2565 2268 
Q 2250 2553 1709 2553 
Q 1456 2553 1204 2497 
Q 953 2441 691 2322 
L 691 4666 
z
" transform="scale(0.015625)"/><path id="DejaVuSans-13" d="M 2034 4250 
Q 1547 4250 1301 3770 
Q 1056 3291 1056 2328 
Q 1056 1369 1301 889 
Q 1547 409 2034 409 
Q 2525 409 2770 889 
Q 3016 1369 3016 2328 
Q 3016 3291 2770 3770 
Q 2525 4250 2034 4250 
z
M 2034 4750 
Q 2819 4750 3233 4129 
Q 3647 3509 3647 2328 
Q 3647 1150 3233 529 
Q 2819 -91 2034 -91 
Q 1250 -91 836 529 
Q 422 1150 422 2328 
Q 422 3509 836 4129 
Q 1250 4750 2034 4750 
z
" transform="scale(0.015625)"/></defs><use xlink:href="#DejaVuSans-18"/><use xlink:href="#DejaVuSans-13" transform="translate(63.62 0)"/><use xlink:href="#DejaVuSans-13" transform="translate(127.25 0)"/></g></g></g><g id="xtick_2"><g id="line2d_3"><path d="M 160.61 343.2 
L 160.61 26.52 
" clip-path="url(#pddadfca9f0)" style="fill: none; stroke: #e0e0e0; stroke-opacity: 0.4; stroke-width: 0.8; stroke-linecap: square"/></g><g id="line2d_4"><g><use xlink:href="#m3d27035b55" x="160.61" y="343.2" style="stroke: #000000; stroke-width: 0.8"/></g></g><g id="text_2"><!-- 1000 --><g transform="translate(140.92 373.57) rotate(-45) scale(0.1 -0.1)"><defs><path id="DejaVuSans-14" d="M 794 531 
L 1825 531 
L 1825 4091 
L 703 3866 
L 703 4441 
L 1819 4666 
L 2450 4666 
L 2450 531 
L 3481 531 
L 3481 0 
L 794 0 
L 794 531 
z
" transform="scale(0.015625)"/></defs><use xlink:href="#DejaVuSans-14"/><use xlink:href="#DejaVuSans-13" transform="translate(63.62 0)"/><use xlink:href="#DejaVuSans-13" transform="translate(127.25 0)"/><use xlink:href="#DejaVuSans-13" transform="translate(190.88 0)"/></g></g></g><g id="xtick_3"><g id="line2d_5"><path d="M 262.11 343.2 
L 262.11 26.52 
" clip-path="url(#pddadfca9f0)" style="fill: none; stroke: #e0e0e0; stroke-opacity: 0.4; stroke-width: 0.8; stroke-linecap: square"/></g><g id="line2d_6"><g><use xlink:href="#m3d27035b55" x="262.11" y="343.2" style="stroke: #000000; stroke-width: 0.8"/></g></g><g id="text_3"><!-- 2000 --><g transform="translate(242.41 373.57) rotate(-45) scale(0.1 -0.1)"><defs><path id="DejaVuSans-15" d="M 1228 531 
L 3431 531 
L 3431 0 
L 469 0 
L 469 531 
Q 828 903 1448 1529 
Q 2069 2156 2228 2338 
Q 2531 2678 2651 2914 
Q 2772 3150 2772 3378 
Q 2772 3750 2511 3984 
Q 2250 4219 1831 4219 
Q 1534 4219 1204 4116 
Q 875 4013 500 3803 
L 500 4441 
Q 881 4594 1212 4672 
Q 1544 4750 1819 4750 
Q 2544 4750 2975 4387 
Q 3406 4025 3406 3419 
Q 3406 3131 3298 2873 
Q 3191 2616 2906 2266 
Q 2828 2175 2409 1742 
Q 1991 1309 1228 531 
z
" transform="scale(0.015625)"/></defs><use xlink:href="#DejaVuSans-15"/><use xlink:href="#DejaVuSans-13" transform="translate(63.62 0)"/><use xlink:href="#DejaVuSans-13" transform="translate(127.25 0)"/><use xlink:href="#DejaVuSans-13" transform="translate(190.88 0)"/></g></g></g><g id="xtick_4"><g id="line2d_7"><path d="M 321.48 343.2 
L 321.48 26.52 
" clip-path="url(#pddadfca9f0)" style="fill: none; stroke: #e0e0e0; stroke-opacity: 0.4; stroke-width: 0.8; stroke-linecap: square"/></g><g id="line2d_8"><g><use xlink:href="#m3d27035b55" x="321.48" y="343.2" style="stroke: #000000; stroke-width: 0.8"/></g></g><g id="text_4"><!-- 3000 --><g transform="translate(301.78 373.57) rotate(-45) scale(0.1 -0.1)"><defs><path id="DejaVuSans-16" d="M 2597 2516 
Q 3050 2419 3304 2112 
Q 3559 1806 3559 1356 
Q 3559 666 3084 287 
Q 2609 -91 1734 -91 
Q 1441 -91 1130 -33 
Q 819 25 488 141 
L 488 750 
Q 750 597 1062 519 
Q 1375 441 1716 441 
Q 2309 441 2620 675 
Q 2931 909 2931 1356 
Q 2931 1769 2642 2001 
Q 2353 2234 1838 2234 
L 1294 2234 
L 1294 2753 
L 1863 2753 
Q 2328 2753 2575 2939 
Q 2822 3125 2822 3475 
Q 2822 3834 2567 4026 
Q 2313 4219 1838 4219 
Q 1578 4219 1281 4162 
Q 984 4106 628 3988 
L 628 4550 
Q 988 4650 1302 4700 
Q 1616 4750 1894 4750 
Q 2613 4750 3031 4423 
Q 3450 4097 3450 3541 
Q 3450 3153 3228 2886 
Q 3006 2619 2597 2516 
z
" transform="scale(0.015625)"/></defs><use xlink:href="#DejaVuSans-16"/><use xlink:href="#DejaVuSans-13" transform="translate(63.62 0)"/><use xlink:href="#DejaVuSans-13" transform="translate(127.25 0)"/><use xlink:href="#DejaVuSans-13" transform="translate(190.88 0)"/></g></g></g><g id="xtick_5"><g id="line2d_9"><path d="M 363.6 343.2 
L 363.6 26.52 
" clip-path="url(#pddadfca9f0)" style="fill: none; stroke: #e0e0e0; stroke-opacity: 0.4; stroke-width: 0.8; stroke-linecap: square"/></g><g id="line2d_10"><g><use xlink:href="#m3d27035b55" x="363.6" y="343.2" style="stroke: #000000; stroke-width: 0.8"/></g></g><g id="text_5"><!-- 4000 --><g transform="translate(343.91 373.57) rotate(-45) scale(0.1 -0.1)"><defs><path id="DejaVuSans-17" d="M 2419 4116 
L 825 1625 
L 2419 1625 
L 2419 4116 
z
M 2253 4666 
L 3047 4666 
L 3047 1625 
L 3713 1625 
L 3713 1100 
L 3047 1100 
L 3047 0 
L 2419 0 
L 2419 1100 
L 313 1100 
L 313 1709 
L 2253 4666 
z
" transform="scale(0.015625)"/></defs><use xlink:href="#DejaVuSans-17"/><use xlink:href="#DejaVuSans-13" transform="translate(63.62 0)"/><use xlink:href="#DejaVuSans-13" transform="translate(127.25 0)"/><use xlink:href="#DejaVuSans-13" transform="translate(190.88 0)"/></g></g></g><g id="xtick_6"><g id="line2d_11"><path d="M 422.97 343.2 
L 422.97 26.52 
" clip-path="url(#pddadfca9f0)" style="fill: none; stroke: #e0e0e0; stroke-opacity: 0.4; stroke-width: 0.8; stroke-linecap: square"/></g><g id="line2d_12"><g><use xlink:href="#m3d27035b55" x="422.97" y="343.2" style="stroke: #000000; stroke-width: 0.8"/></g></g><g id="text_6"><!-- 6000 --><g transform="translate(403.28 373.57) rotate(-45) scale(0.1 -0.1)"><defs><path id="DejaVuSans-19" d="M 2113 2584 
Q 1688 2584 1439 2293 
Q 1191 2003 1191 1497 
Q 1191 994 1439 701 
Q 1688 409 2113 409 
Q 2538 409 2786 701 
Q 3034 994 3034 1497 
Q 3034 2003 2786 2293 
Q 2538 2584 2113 2584 
z
M 3366 4563 
L 3366 3988 
Q 3128 4100 2886 4159 
Q 2644 4219 2406 4219 
Q 1781 4219 1451 3797 
Q 1122 3375 1075 2522 
Q 1259 2794 1537 2939 
Q 1816 3084 2150 3084 
Q 2853 3084 3261 2657 
Q 3669 2231 3669 1497 
Q 3669 778 3244 343 
Q 2819 -91 2113 -91 
Q 1303 -91 875 529 
Q 447 1150 447 2328 
Q 447 3434 972 4092 
Q 1497 4750 2381 4750 
Q 2619 4750 2861 4703 
Q 3103 4656 3366 4563 
z
" transform="scale(0.015625)"/></defs><use xlink:href="#DejaVuSans-19"/><use xlink:href="#DejaVuSans-13" transform="translate(63.62 0)"/><use xlink:href="#DejaVuSans-13" transform="translate(127.25 0)"/><use xlink:href="#DejaVuSans-13" transform="translate(190.88 0)"/></g></g></g><g id="xtick_7"><g id="line2d_13"><path d="M 85.81 343.2 
L 85.81 26.52 
" clip-path="url(#pddadfca9f0)" style="fill: none; stroke: #e0e0e0; stroke-opacity: 0.4; stroke-width: 0.8; stroke-linecap: square"/></g><g id="line2d_14"><defs><path id="md1b22fa4b4" d="M 0 0 
L 0 2 
" style="stroke: #000000; stroke-width: 0.6"/></defs><g><use xlink:href="#md1b22fa4b4" x="85.81" y="343.2" style="stroke: #000000; stroke-width: 0.6"/></g></g></g><g id="xtick_8"><g id="line2d_15"><path d="M 108.39 343.2 
L 108.39 26.52 
" clip-path="url(#pddadfca9f0)" style="fill: none; stroke: #e0e0e0; stroke-opacity: 0.4; stroke-width: 0.8; stroke-linecap: square"/></g><g id="line2d_16"><g><use xlink:href="#md1b22fa4b4" x="108.39" y="343.2" style="stroke: #000000; stroke-width: 0.6"/></g></g></g><g id="xtick_9"><g id="line2d_17"><path d="M 127.94 343.2 
L 127.94 26.52 
" clip-path="url(#pddadfca9f0)" style="fill: none; stroke: #e0e0e0; stroke-opacity: 0.4; stroke-width: 0.8; stroke-linecap: square"/></g><g id="line2d_18"><g><use xlink:href="#md1b22fa4b4" x="127.94" y="343.2" style="stroke: #000000; stroke-width: 0.6"/></g></g></g><g id="xtick_10"><g id="line2d_19"><path d="M 145.19 343.2 
L 145.19 26.52 
" clip-path="url(#pddadfca9f0)" style="fill: none; stroke: #e0e0e0; stroke-opacity: 0.4; stroke-width: 0.8; stroke-linecap: square"/></g><g id="line2d_20"><g><use xlink:href="#md1b22fa4b4" x="145.19" y="343.2" style="stroke: #000000; stroke-width: 0.6"/></g></g></g><g id="xtick_11"><g id="line2d_21"><path d="M 396.27 343.2 
L 396.27 26.52 
" clip-path="url(#pddadfca9f0)" style="fill: none; stroke: #e0e0e0; stroke-opacity: 0.4; stroke-width: 0.8; stroke-linecap: square"/></g><g id="line2d_22"><g><use xlink:href="#md1b22fa4b4" x="396.27" y="343.2" style="stroke: #000000; stroke-width: 0.6"/></g></g></g><g id="text_7"><!-- Frecuencia audiométrica [Hz] --><g transform="translate(167.66 387.27) scale(0.1 -0.1)"><defs><path id="DejaVuSans-29" d="M 628 4666 
L 3309 4666 
L 3309 4134 
L 1259 4134 
L 1259 2759 
L 3109 2759 
L 3109 2228 
L 1259 2228 
L 1259 0 
L 628 0 
L 628 4666 
z
" transform="scale(0.015625)"/><path id="DejaVuSans-55" d="M 2631 2963 
Q 2534 3019 2420 3045 
Q 2306 3072 2169 3072 
Q 1681 3072 1420 2755 
Q 1159 2438 1159 1844 
L 1159 0 
L 581 0 
L 581 3500 
L 1159 3500 
L 1159 2956 
Q 1341 3275 1631 3429 
Q 1922 3584 2338 3584 
Q 2397 3584 2469 3576 
Q 2541 3569 2628 3553 
L 2631 2963 
z
" transform="scale(0.015625)"/><path id="DejaVuSans-48" d="M 3597 1894 
L 3597 1613 
L 953 1613 
Q 991 1019 1311 708 
Q 1631 397 2203 397 
Q 2534 397 2845 478 
Q 3156 559 3463 722 
L 3463 178 
Q 3153 47 2828 -22 
Q 2503 -91 2169 -91 
Q 1331 -91 842 396 
Q 353 884 353 1716 
Q 353 2575 817 3079 
Q 1281 3584 2069 3584 
Q 2775 3584 3186 3129 
Q 3597 2675 3597 1894 
z
M 3022 2063 
Q 3016 2534 2758 2815 
Q 2500 3097 2075 3097 
Q 1594 3097 1305 2825 
Q 1016 2553 972 2059 
L 3022 2063 
z
" transform="scale(0.015625)"/><path id="DejaVuSans-46" d="M 3122 3366 
L 3122 2828 
Q 2878 2963 2633 3030 
Q 2388 3097 2138 3097 
Q 1578 3097 1268 2742 
Q 959 2388 959 1747 
Q 959 1106 1268 751 
Q 1578 397 2138 397 
Q 2388 397 2633 464 
Q 2878 531 3122 666 
L 3122 134 
Q 2881 22 2623 -34 
Q 2366 -91 2075 -91 
Q 1284 -91 818 406 
Q 353 903 353 1747 
Q 353 2603 823 3093 
Q 1294 3584 2113 3584 
Q 2378 3584 2631 3529 
Q 2884 3475 3122 3366 
z
" transform="scale(0.015625)"/><path id="DejaVuSans-58" d="M 544 1381 
L 544 3500 
L 1119 3500 
L 1119 1403 
Q 1119 906 1312 657 
Q 1506 409 1894 409 
Q 2359 409 2629 706 
Q 2900 1003 2900 1516 
L 2900 3500 
L 3475 3500 
L 3475 0 
L 2900 0 
L 2900 538 
Q 2691 219 2414 64 
Q 2138 -91 1772 -91 
Q 1169 -91 856 284 
Q 544 659 544 1381 
z
M 1991 3584 
L 1991 3584 
z
" transform="scale(0.015625)"/><path id="DejaVuSans-51" d="M 3513 2113 
L 3513 0 
L 2938 0 
L 2938 2094 
Q 2938 2591 2744 2837 
Q 2550 3084 2163 3084 
Q 1697 3084 1428 2787 
Q 1159 2491 1159 1978 
L 1159 0 
L 581 0 
L 581 3500 
L 1159 3500 
L 1159 2956 
Q 1366 3272 1645 3428 
Q 1925 3584 2291 3584 
Q 2894 3584 3203 3211 
Q 3513 2838 3513 2113 
z
" transform="scale(0.015625)"/><path id="DejaVuSans-4c" d="M 603 3500 
L 1178 3500 
L 1178 0 
L 603 0 
L 603 3500 
z
M 603 4863 
L 1178 4863 
L 1178 4134 
L 603 4134 
L 603 4863 
z
" transform="scale(0.015625)"/><path id="DejaVuSans-44" d="M 2194 1759 
Q 1497 1759 1228 1600 
Q 959 1441 959 1056 
Q 959 750 1161 570 
Q 1363 391 1709 391 
Q 2188 391 2477 730 
Q 2766 1069 2766 1631 
L 2766 1759 
L 2194 1759 
z
M 3341 1997 
L 3341 0 
L 2766 0 
L 2766 531 
Q 2569 213 2275 61 
Q 1981 -91 1556 -91 
Q 1019 -91 701 211 
Q 384 513 384 1019 
Q 384 1609 779 1909 
Q 1175 2209 1959 2209 
L 2766 2209 
L 2766 2266 
Q 2766 2663 2505 2880 
Q 2244 3097 1772 3097 
Q 1472 3097 1187 3025 
Q 903 2953 641 2809 
L 641 3341 
Q 956 3463 1253 3523 
Q 1550 3584 1831 3584 
Q 2591 3584 2966 3190 
Q 3341 2797 3341 1997 
z
" transform="scale(0.015625)"/><path id="DejaVuSans-3" transform="scale(0.015625)"/><path id="DejaVuSans-47" d="M 2906 2969 
L 2906 4863 
L 3481 4863 
L 3481 0 
L 2906 0 
L 2906 525 
Q 2725 213 2448 61 
Q 2172 -91 1784 -91 
Q 1150 -91 751 415 
Q 353 922 353 1747 
Q 353 2572 751 3078 
Q 1150 3584 1784 3584 
Q 2172 3584 2448 3432 
Q 2725 3281 2906 2969 
z
M 947 1747 
Q 947 1113 1208 752 
Q 1469 391 1925 391 
Q 2381 391 2643 752 
Q 2906 1113 2906 1747 
Q 2906 2381 2643 2742 
Q 2381 3103 1925 3103 
Q 1469 3103 1208 2742 
Q 947 2381 947 1747 
z
" transform="scale(0.015625)"/><path id="DejaVuSans-52" d="M 1959 3097 
Q 1497 3097 1228 2736 
Q 959 2375 959 1747 
Q 959 1119 1226 758 
Q 1494 397 1959 397 
Q 2419 397 2687 759 
Q 2956 1122 2956 1747 
Q 2956 2369 2687 2733 
Q 2419 3097 1959 3097 
z
M 1959 3584 
Q 2709 3584 3137 3096 
Q 3566 2609 3566 1747 
Q 3566 888 3137 398 
Q 2709 -91 1959 -91 
Q 1206 -91 779 398 
Q 353 888 353 1747 
Q 353 2609 779 3096 
Q 1206 3584 1959 3584 
z
" transform="scale(0.015625)"/><path id="DejaVuSans-50" d="M 3328 2828 
Q 3544 3216 3844 3400 
Q 4144 3584 4550 3584 
Q 5097 3584 5394 3201 
Q 5691 2819 5691 2113 
L 5691 0 
L 5113 0 
L 5113 2094 
Q 5113 2597 4934 2840 
Q 4756 3084 4391 3084 
Q 3944 3084 3684 2787 
Q 3425 2491 3425 1978 
L 3425 0 
L 2847 0 
L 2847 2094 
Q 2847 2600 2669 2842 
Q 2491 3084 2119 3084 
Q 1678 3084 1418 2786 
Q 1159 2488 1159 1978 
L 1159 0 
L 581 0 
L 581 3500 
L 1159 3500 
L 1159 2956 
Q 1356 3278 1631 3431 
Q 1906 3584 2284 3584 
Q 2666 3584 2933 3390 
Q 3200 3197 3328 2828 
z
" transform="scale(0.015625)"/><path id="DejaVuSans-ab" d="M 3597 1894 
L 3597 1613 
L 953 1613 
Q 991 1019 1311 708 
Q 1631 397 2203 397 
Q 2534 397 2845 478 
Q 3156 559 3463 722 
L 3463 178 
Q 3153 47 2828 -22 
Q 2503 -91 2169 -91 
Q 1331 -91 842 396 
Q 353 884 353 1716 
Q 353 2575 817 3079 
Q 1281 3584 2069 3584 
Q 2775 3584 3186 3129 
Q 3597 2675 3597 1894 
z
M 3022 2063 
Q 3016 2534 2758 2815 
Q 2500 3097 2075 3097 
Q 1594 3097 1305 2825 
Q 1016 2553 972 2059 
L 3022 2063 
z
M 2468 5119 
L 3090 5119 
L 2072 3944 
L 1593 3944 
L 2468 5119 
z
" transform="scale(0.015625)"/><path id="DejaVuSans-57" d="M 1172 4494 
L 1172 3500 
L 2356 3500 
L 2356 3053 
L 1172 3053 
L 1172 1153 
Q 1172 725 1289 603 
Q 1406 481 1766 481 
L 2356 481 
L 2356 0 
L 1766 0 
Q 1100 0 847 248 
Q 594 497 594 1153 
L 594 3053 
L 172 3053 
L 172 3500 
L 594 3500 
L 594 4494 
L 1172 4494 
z
" transform="scale(0.015625)"/><path id="DejaVuSans-3e" d="M 550 4863 
L 1875 4863 
L 1875 4416 
L 1125 4416 
L 1125 -397 
L 1875 -397 
L 1875 -844 
L 550 -844 
L 550 4863 
z
" transform="scale(0.015625)"/><path id="DejaVuSans-2b" d="M 628 4666 
L 1259 4666 
L 1259 2753 
L 3553 2753 
L 3553 4666 
L 4184 4666 
L 4184 0 
L 3553 0 
L 3553 2222 
L 1259 2222 
L 1259 0 
L 628 0 
L 628 4666 
z
" transform="scale(0.015625)"/><path id="DejaVuSans-5d" d="M 353 3500 
L 3084 3500 
L 3084 2975 
L 922 459 
L 3084 459 
L 3084 0 
L 275 0 
L 275 525 
L 2438 3041 
L 353 3041 
L 353 3500 
z
" transform="scale(0.015625)"/><path id="DejaVuSans-40" d="M 1947 4863 
L 1947 -844 
L 622 -844 
L 622 -397 
L 1369 -397 
L 1369 4416 
L 622 4416 
L 622 4863 
L 1947 4863 
z
" transform="scale(0.015625)"/></defs><use xlink:href="#DejaVuSans-29"/><use xlink:href="#DejaVuSans-55" transform="translate(50.23 0)"/><use xlink:href="#DejaVuSans-48" transform="translate(89.14 0)"/><use xlink:href="#DejaVuSans-46" transform="translate(150.67 0)"/><use xlink:href="#DejaVuSans-58" transform="translate(205.66 0)"/><use xlink:href="#DejaVuSans-48" transform="translate(269.03 0)"/><use xlink:href="#DejaVuSans-51" transform="translate(330.56 0)"/><use xlink:href="#DejaVuSans-46" transform="translate(393.94 0)"/><use xlink:href="#DejaVuSans-4c" transform="translate(448.92 0)"/><use xlink:href="#DejaVuSans-44" transform="translate(476.7 0)"/><use xlink:href="#DejaVuSans-3" transform="translate(537.98 0)"/><use xlink:href="#DejaVuSans-44" transform="translate(569.77 0)"/><use xlink:href="#DejaVuSans-58" transform="translate(631.05 0)"/><use xlink:href="#DejaVuSans-47" transform="translate(694.42 0)"/><use xlink:href="#DejaVuSans-4c" transform="translate(757.91 0)"/><use xlink:href="#DejaVuSans-52" transform="translate(785.69 0)"/><use xlink:href="#DejaVuSans-50" transform="translate(846.88 0)"/><use xlink:href="#DejaVuSans-ab" transform="translate(944.28 0)"/><use xlink:href="#DejaVuSans-57" transform="translate(1005.81 0)"/><use xlink:href="#DejaVuSans-55" transform="translate(1045.02 0)"/><use xlink:href="#DejaVuSans-4c" transform="translate(1086.12 0)"/><use xlink:href="#DejaVuSans-46" transform="translate(1113.91 0)"/><use xlink:href="#DejaVuSans-44" transform="translate(1168.89 0)"/><use xlink:href="#DejaVuSans-3" transform="translate(1230.17 0)"/><use xlink:href="#DejaVuSans-3e" transform="translate(1261.95 0)"/><use xlink:href="#DejaVuSans-2b" transform="translate(1300.97 0)"/><use xlink:href="#DejaVuSans-5d" transform="translate(1376.17 0)"/><use xlink:href="#DejaVuSans-40" transform="translate(1428.66 0)"/></g></g></g><g id="matplotlib.axis_2"><g id="ytick_1"><g id="line2d_23"><path d="M 40.93 38.48 
L 441.16 38.48 
" clip-path="url(#pddadfca9f0)" style="fill: none; stroke: #e0e0e0; stroke-opacity: 0.4; stroke-width: 0.8; stroke-linecap: square"/></g><g id="line2d_24"><defs><path id="mef640d9f3a" d="M 0 0 
L -3.5 0 
" style="stroke: #000000; stroke-width: 0.8"/></defs><g><use xlink:href="#mef640d9f3a" x="40.93" y="38.48" style="stroke: #000000; stroke-width: 0.8"/></g></g><g id="text_8"><!-- 0 --><g transform="translate(27.56 42.28) scale(0.1 -0.1)"><use xlink:href="#DejaVuSans-13"/></g></g></g><g id="ytick_2"><g id="line2d_25"><path d="M 40.93 78.09 
L 441.16 78.09 
" clip-path="url(#pddadfca9f0)" style="fill: none; stroke: #e0e0e0; stroke-opacity: 0.4; stroke-width: 0.8; stroke-linecap: square"/></g><g id="line2d_26"><g><use xlink:href="#mef640d9f3a" x="40.93" y="78.09" style="stroke: #000000; stroke-width: 0.8"/></g></g><g id="text_9"><!-- 5 --><g transform="translate(27.56 81.89) scale(0.1 -0.1)"><use xlink:href="#DejaVuSans-18"/></g></g></g><g id="ytick_3"><g id="line2d_27"><path d="M 40.93 117.71 
L 441.16 117.71 
" clip-path="url(#pddadfca9f0)" style="fill: none; stroke: #e0e0e0; stroke-opacity: 0.4; stroke-width: 0.8; stroke-linecap: square"/></g><g id="line2d_28"><g><use xlink:href="#mef640d9f3a" x="40.93" y="117.71" style="stroke: #000000; stroke-width: 0.8"/></g></g><g id="text_10"><!-- 10 --><g transform="translate(21.2 121.51) scale(0.1 -0.1)"><use xlink:href="#DejaVuSans-14"/><use xlink:href="#DejaVuSans-13" transform="translate(63.62 0)"/></g></g></g><g id="ytick_4"><g id="line2d_29"><path d="M 40.93 157.32 
L 441.16 157.32 
" clip-path="url(#pddadfca9f0)" style="fill: none; stroke: #e0e0e0; stroke-opacity: 0.4; stroke-width: 0.8; stroke-linecap: square"/></g><g id="line2d_30"><g><use xlink:href="#mef640d9f3a" x="40.93" y="157.32" style="stroke: #000000; stroke-width: 0.8"/></g></g><g id="text_11"><!-- 15 --><g transform="translate(21.2 161.12) scale(0.1 -0.1)"><use xlink:href="#DejaVuSans-14"/><use xlink:href="#DejaVuSans-18" transform="translate(63.62 0)"/></g></g></g><g id="ytick_5"><g id="line2d_31"><path d="M 40.93 196.94 
L 441.16 196.94 
" clip-path="url(#pddadfca9f0)" style="fill: none; stroke: #e0e0e0; stroke-opacity: 0.4; stroke-width: 0.8; stroke-linecap: square"/></g><g id="line2d_32"><g><use xlink:href="#mef640d9f3a" x="40.93" y="196.94" style="stroke: #000000; stroke-width: 0.8"/></g></g><g id="text_12"><!-- 20 --><g transform="translate(21.2 200.73) scale(0.1 -0.1)"><use xlink:href="#DejaVuSans-15"/><use xlink:href="#DejaVuSans-13" transform="translate(63.62 0)"/></g></g></g><g id="ytick_6"><g id="line2d_33"><path d="M 40.93 236.55 
L 441.16 236.55 
" clip-path="url(#pddadfca9f0)" style="fill: none; stroke: #e0e0e0; stroke-opacity: 0.4; stroke-width: 0.8; stroke-linecap: square"/></g><g id="line2d_34"><g><use xlink:href="#mef640d9f3a" x="40.93" y="236.55" style="stroke: #000000; stroke-width: 0.8"/></g></g><g id="text_13"><!-- 25 --><g transform="translate(21.2 240.35) scale(0.1 -0.1)"><use xlink:href="#DejaVuSans-15"/><use xlink:href="#DejaVuSans-18" transform="translate(63.62 0)"/></g></g></g><g id="ytick_7"><g id="line2d_35"><path d="M 40.93 276.17 
L 441.16 276.17 
" clip-path="url(#pddadfca9f0)" style="fill: none; stroke: #e0e0e0; stroke-opacity: 0.4; stroke-width: 0.8; stroke-linecap: square"/></g><g id="line2d_36"><g><use xlink:href="#mef640d9f3a" x="40.93" y="276.17" style="stroke: #000000; stroke-width: 0.8"/></g></g><g id="text_14"><!-- 30 --><g transform="translate(21.2 279.96) scale(0.1 -0.1)"><use xlink:href="#DejaVuSans-16"/><use xlink:href="#DejaVuSans-13" transform="translate(63.62 0)"/></g></g></g><g id="ytick_8"><g id="line2d_37"><path d="M 40.93 315.78 
L 441.16 315.78 
" clip-path="url(#pddadfca9f0)" style="fill: none; stroke: #e0e0e0; stroke-opacity: 0.4; stroke-width: 0.8; stroke-linecap: square"/></g><g id="line2d_38"><g><use xlink:href="#mef640d9f3a" x="40.93" y="315.78" style="stroke: #000000; stroke-width: 0.8"/></g></g><g id="text_15"><!-- 35 --><g transform="translate(21.2 319.58) scale(0.1 -0.1)"><use xlink:href="#DejaVuSans-16"/><use xlink:href="#DejaVuSans-18" transform="translate(63.62 0)"/></g></g></g><g id="text_16"><!-- NIPTS mediana [dB] --><g transform="translate(14.8 234.81) rotate(-90) scale(0.1 -0.1)"><defs><path id="DejaVuSans-31" d="M 628 4666 
L 1478 4666 
L 3547 763 
L 3547 4666 
L 4159 4666 
L 4159 0 
L 3309 0 
L 1241 3903 
L 1241 0 
L 628 0 
L 628 4666 
z
" transform="scale(0.015625)"/><path id="DejaVuSans-2c" d="M 628 4666 
L 1259 4666 
L 1259 0 
L 628 0 
L 628 4666 
z
" transform="scale(0.015625)"/><path id="DejaVuSans-33" d="M 1259 4147 
L 1259 2394 
L 2053 2394 
Q 2494 2394 2734 2622 
Q 2975 2850 2975 3272 
Q 2975 3691 2734 3919 
Q 2494 4147 2053 4147 
L 1259 4147 
z
M 628 4666 
L 2053 4666 
Q 2838 4666 3239 4311 
Q 3641 3956 3641 3272 
Q 3641 2581 3239 2228 
Q 2838 1875 2053 1875 
L 1259 1875 
L 1259 0 
L 628 0 
L 628 4666 
z
" transform="scale(0.015625)"/><path id="DejaVuSans-37" d="M -19 4666 
L 3928 4666 
L 3928 4134 
L 2272 4134 
L 2272 0 
L 1638 0 
L 1638 4134 
L -19 4134 
L -19 4666 
z
" transform="scale(0.015625)"/><path id="DejaVuSans-36" d="M 3425 4513 
L 3425 3897 
Q 3066 4069 2747 4153 
Q 2428 4238 2131 4238 
Q 1616 4238 1336 4038 
Q 1056 3838 1056 3469 
Q 1056 3159 1242 3001 
Q 1428 2844 1947 2747 
L 2328 2669 
Q 3034 2534 3370 2195 
Q 3706 1856 3706 1288 
Q 3706 609 3251 259 
Q 2797 -91 1919 -91 
Q 1588 -91 1214 -16 
Q 841 59 441 206 
L 441 856 
Q 825 641 1194 531 
Q 1563 422 1919 422 
Q 2459 422 2753 634 
Q 3047 847 3047 1241 
Q 3047 1584 2836 1778 
Q 2625 1972 2144 2069 
L 1759 2144 
Q 1053 2284 737 2584 
Q 422 2884 422 3419 
Q 422 4038 858 4394 
Q 1294 4750 2059 4750 
Q 2388 4750 2728 4690 
Q 3069 4631 3425 4513 
z
" transform="scale(0.015625)"/><path id="DejaVuSans-25" d="M 1259 2228 
L 1259 519 
L 2272 519 
Q 2781 519 3026 730 
Q 3272 941 3272 1375 
Q 3272 1813 3026 2020 
Q 2781 2228 2272 2228 
L 1259 2228 
z
M 1259 4147 
L 1259 2741 
L 2194 2741 
Q 2656 2741 2882 2914 
Q 3109 3088 3109 3444 
Q 3109 3797 2882 3972 
Q 2656 4147 2194 4147 
L 1259 4147 
z
M 628 4666 
L 2241 4666 
Q 2963 4666 3353 4366 
Q 3744 4066 3744 3513 
Q 3744 3084 3544 2831 
Q 3344 2578 2956 2516 
Q 3422 2416 3680 2098 
Q 3938 1781 3938 1306 
Q 3938 681 3513 340 
Q 3088 0 2303 0 
L 628 0 
L 628 4666 
z
" transform="scale(0.015625)"/></defs><use xlink:href="#DejaVuSans-31"/><use xlink:href="#DejaVuSans-2c" transform="translate(74.81 0)"/><use xlink:href="#DejaVuSans-33" transform="translate(104.31 0)"/><use xlink:href="#DejaVuSans-37" transform="translate(164.61 0)"/><use xlink:href="#DejaVuSans-36" transform="translate(225.69 0)"/><use xlink:href="#DejaVuSans-3" transform="translate(289.17 0)"/><use xlink:href="#DejaVuSans-50" transform="translate(320.95 0)"/><use xlink:href="#DejaVuSans-48" transform="translate(418.36 0)"/><use xlink:href="#DejaVuSans-47" transform="translate(479.89 0)"/><use xlink:href="#DejaVuSans-4c" transform="translate(543.38 0)"/><use xlink:href="#DejaVuSans-44" transform="translate(571.16 0)"/><use xlink:href="#DejaVuSans-51" transform="translate(632.44 0)"/><use xlink:href="#DejaVuSans-44" transform="translate(695.81 0)"/><use xlink:href="#DejaVuSans-3" transform="translate(757.09 0)"/><use xlink:href="#DejaVuSans-3e" transform="translate(788.88 0)"/><use xlink:href="#DejaVuSans-47" transform="translate(827.89 0)"/><use xlink:href="#DejaVuSans-25" transform="translate(891.38 0)"/><use xlink:href="#DejaVuSans-40" transform="translate(959.98 0)"/></g></g></g><g id="line2d_39"><path d="M 59.12 40.92 
L 160.61 52.74 
L 262.11 75.91 
L 321.48 164.26 
L 363.6 196.94 
L 422.97 148.86 
" clip-path="url(#pddadfca9f0)" style="fill: none; stroke: #9e9e9e; stroke-width: 1.5; stroke-linecap: square"/><defs><path id="mc8c09091db" d="M 0 3 
C 0.8 3 1.56 2.68 2.12 2.12 
C 2.68 1.56 3 0.8 3 0 
C 3 -0.8 2.68 -1.56 2.12 -2.12 
C 1.56 -2.68 0.8 -3 0 -3 
C -0.8 -3 -1.56 -2.68 -2.12 -2.12 
C -2.68 -1.56 -3 -0.8 -3 0 
C -3 0.8 -2.68 1.56 -2.12 2.12 
C -1.56 2.68 -0.8 3 0 3 
z
" style="stroke: #9e9e9e"/></defs><g clip-path="url(#pddadfca9f0)"><use xlink:href="#mc8c09091db" x="59.12" y="40.92" style="fill: #9e9e9e; stroke: #9e9e9e"/><use xlink:href="#mc8c09091db" x="160.61" y="52.74" style="fill: #9e9e9e; stroke: #9e9e9e"/><use xlink:href="#mc8c09091db" x="262.11" y="75.91" style="fill: #9e9e9e; stroke: #9e9e9e"/><use xlink:href="#mc8c09091db" x="321.48" y="164.26" style="fill: #9e9e9e; stroke: #9e9e9e"/><use xlink:href="#mc8c09091db" x="363.6" y="196.94" style="fill: #9e9e9e; stroke: #9e9e9e"/><use xlink:href="#mc8c09091db" x="422.97" y="148.86" style="fill: #9e9e9e; stroke: #9e9e9e"/></g></g><g id="line2d_40"><path d="M 59.12 41.97 
L 160.61 58.75 
L 262.11 111.33 
L 321.48 192.85 
L 363.6 220.79 
L 422.97 167.41 
" clip-path="url(#pddadfca9f0)" style="fill: none; stroke: #7f7f7f; stroke-width: 1.5; stroke-linecap: square"/><defs><path id="m4b7ade6ade" d="M 0 3 
C 0.8 3 1.56 2.68 2.12 2.12 
C 2.68 1.56 3 0.8 3 0 
C 3 -0.8 2.68 -1.56 2.12 -2.12 
C 1.56 -2.68 0.8 -3 0 -3 
C -0.8 -3 -1.56 -2.68 -2.12 -2.12 
C -2.68 -1.56 -3 -0.8 -3 0 
C -3 0.8 -2.68 1.56 -2.12 2.12 
C -1.56 2.68 -0.8 3 0 3 
z
" style="stroke: #7f7f7f"/></defs><g clip-path="url(#pddadfca9f0)"><use xlink:href="#m4b7ade6ade" x="59.12" y="41.97" style="fill: #7f7f7f; stroke: #7f7f7f"/><use xlink:href="#m4b7ade6ade" x="160.61" y="58.75" style="fill: #7f7f7f; stroke: #7f7f7f"/><use xlink:href="#m4b7ade6ade" x="262.11" y="111.33" style="fill: #7f7f7f; stroke: #7f7f7f"/><use xlink:href="#m4b7ade6ade" x="321.48" y="192.85" style="fill: #7f7f7f; stroke: #7f7f7f"/><use xlink:href="#m4b7ade6ade" x="363.6" y="220.79" style="fill: #7f7f7f; stroke: #7f7f7f"/><use xlink:href="#m4b7ade6ade" x="422.97" y="167.41" style="fill: #7f7f7f; stroke: #7f7f7f"/></g></g><g id="line2d_41"><path d="M 59.12 42.58 
L 160.61 62.26 
L 262.11 132.05 
L 321.48 209.58 
L 363.6 234.74 
L 422.97 178.25 
" clip-path="url(#pddadfca9f0)" style="fill: none; stroke: #1f77b4; stroke-width: 1.5; stroke-linecap: square"/><defs><path id="m49466b02c9" d="M 0 3 
C 0.8 3 1.56 2.68 2.12 2.12 
C 2.68 1.56 3 0.8 3 0 
C 3 -0.8 2.68 -1.56 2.12 -2.12 
C 1.56 -2.68 0.8 -3 0 -3 
C -0.8 -3 -1.56 -2.68 -2.12 -2.12 
C -2.68 -1.56 -3 -0.8 -3 0 
C -3 0.8 -2.68 1.56 -2.12 2.12 
C -1.56 2.68 -0.8 3 0 3 
z
" style="stroke: #1f77b4"/></defs><g clip-path="url(#pddadfca9f0)"><use xlink:href="#m49466b02c9" x="59.12" y="42.58" style="fill: #1f77b4; stroke: #1f77b4"/><use xlink:href="#m49466b02c9" x="160.61" y="62.26" style="fill: #1f77b4; stroke: #1f77b4"/><use xlink:href="#m49466b02c9" x="262.11" y="132.05" style="fill: #1f77b4; stroke: #1f77b4"/><use xlink:href="#m49466b02c9" x="321.48" y="209.58" style="fill: #1f77b4; stroke: #1f77b4"/><use xlink:href="#m49466b02c9" x="363.6" y="234.74" style="fill: #1f77b4; stroke: #1f77b4"/><use xlink:href="#m49466b02c9" x="422.97" y="178.25" style="fill: #1f77b4; stroke: #1f77b4"/></g></g><g id="line2d_42"><path d="M 59.12 43.02 
L 160.61 64.76 
L 262.11 146.75 
L 321.48 221.45 
L 363.6 244.64 
L 422.97 185.95 
" clip-path="url(#pddadfca9f0)" style="fill: none; stroke: #d62728; stroke-width: 1.5; stroke-linecap: square"/><defs><path id="mc99916e8d1" d="M 0 3 
C 0.8 3 1.56 2.68 2.12 2.12 
C 2.68 1.56 3 0.8 3 0 
C 3 -0.8 2.68 -1.56 2.12 -2.12 
C 1.56 -2.68 0.8 -3 0 -3 
C -0.8 -3 -1.56 -2.68 -2.12 -2.12 
C -2.68 -1.56 -3 -0.8 -3 0 
C -3 0.8 -2.68 1.56 -2.12 2.12 
C -1.56 2.68 -0.8 3 0 3 
z
" style="stroke: #d62728"/></defs><g clip-path="url(#pddadfca9f0)"><use xlink:href="#mc99916e8d1" x="59.12" y="43.02" style="fill: #d62728; stroke: #d62728"/><use xlink:href="#mc99916e8d1" x="160.61" y="64.76" style="fill: #d62728; stroke: #d62728"/><use xlink:href="#mc99916e8d1" x="262.11" y="146.75" style="fill: #d62728; stroke: #d62728"/><use xlink:href="#mc99916e8d1" x="321.48" y="221.45" style="fill: #d62728; stroke: #d62728"/><use xlink:href="#mc99916e8d1" x="363.6" y="244.64" style="fill: #d62728; stroke: #d62728"/><use xlink:href="#mc99916e8d1" x="422.97" y="185.95" style="fill: #d62728; stroke: #d62728"/></g></g><g id="patch_3"><path d="M 40.93 343.2 
L 40.93 26.52 
" style="fill: none; stroke: #000000; stroke-width: 0.8; stroke-linejoin: miter; stroke-linecap: square"/></g><g id="patch_4"><path d="M 441.16 343.2 
L 441.16 26.52 
" style="fill: none; stroke: #000000; stroke-width: 0.8; stroke-linejoin: miter; stroke-linecap: square"/></g><g id="patch_5"><path d="M 40.93 343.2 
L 441.16 343.2 
" style="fill: none; stroke: #000000; stroke-width: 0.8; stroke-linejoin: miter; stroke-linecap: square"/></g><g id="patch_6"><path d="M 40.93 26.52 
L 441.16 26.52 
" style="fill: none; stroke: #000000; stroke-width: 0.8; stroke-linejoin: miter; stroke-linecap: square"/></g><g id="text_17"><!-- ISO 1999: NIPTS a $L_{\mathrm{EX,8h}}$ = 95 dB --><g transform="translate(141.92 16.52) scale(0.12 -0.12)"><defs><path id="DejaVuSans-32" d="M 2522 4238 
Q 1834 4238 1429 3725 
Q 1025 3213 1025 2328 
Q 1025 1447 1429 934 
Q 1834 422 2522 422 
Q 3209 422 3611 934 
Q 4013 1447 4013 2328 
Q 4013 3213 3611 3725 
Q 3209 4238 2522 4238 
z
M 2522 4750 
Q 3503 4750 4090 4092 
Q 4678 3434 4678 2328 
Q 4678 1225 4090 567 
Q 3503 -91 2522 -91 
Q 1538 -91 948 565 
Q 359 1222 359 2328 
Q 359 3434 948 4092 
Q 1538 4750 2522 4750 
z
" transform="scale(0.015625)"/><path id="DejaVuSans-1c" d="M 703 97 
L 703 672 
Q 941 559 1184 500 
Q 1428 441 1663 441 
Q 2288 441 2617 861 
Q 2947 1281 2994 2138 
Q 2813 1869 2534 1725 
Q 2256 1581 1919 1581 
Q 1219 1581 811 2004 
Q 403 2428 403 3163 
Q 403 3881 828 4315 
Q 1253 4750 1959 4750 
Q 2769 4750 3195 4129 
Q 3622 3509 3622 2328 
Q 3622 1225 3098 567 
Q 2575 -91 1691 -91 
Q 1453 -91 1209 -44 
Q 966 3 703 97 
z
M 1959 2075 
Q 2384 2075 2632 2365 
Q 2881 2656 2881 3163 
Q 2881 3666 2632 3958 
Q 2384 4250 1959 4250 
Q 1534 4250 1286 3958 
Q 1038 3666 1038 3163 
Q 1038 2656 1286 2365 
Q 1534 2075 1959 2075 
z
" transform="scale(0.015625)"/><path id="DejaVuSans-1d" d="M 750 794 
L 1409 794 
L 1409 0 
L 750 0 
L 750 794 
z
M 750 3309 
L 1409 3309 
L 1409 2516 
L 750 2516 
L 750 3309 
z
" transform="scale(0.015625)"/><path id="DejaVuSans-Oblique-2f" d="M 1075 4666 
L 1709 4666 
L 909 525 
L 3181 525 
L 3078 0 
L 172 0 
L 1075 4666 
z
" transform="scale(0.015625)"/><path id="DejaVuSans-28" d="M 628 4666 
L 3578 4666 
L 3578 4134 
L 1259 4134 
L 1259 2753 
L 3481 2753 
L 3481 2222 
L 1259 2222 
L 1259 531 
L 3634 531 
L 3634 0 
L 628 0 
L 628 4666 
z
" transform="scale(0.015625)"/><path id="DejaVuSans-3b" d="M 403 4666 
L 1081 4666 
L 2241 2931 
L 3406 4666 
L 4084 4666 
L 2584 2425 
L 4184 0 
L 3506 0 
L 2194 1984 
L 872 0 
L 191 0 
L 1856 2491 
L 403 4666 
z
" transform="scale(0.015625)"/><path id="DejaVuSans-f" d="M 750 794 
L 1409 794 
L 1409 256 
L 897 -744 
L 494 -744 
L 750 256 
L 750 794 
z
" transform="scale(0.015625)"/><path id="DejaVuSans-1b" d="M 2034 2216 
Q 1584 2216 1326 1975 
Q 1069 1734 1069 1313 
Q 1069 891 1326 650 
Q 1584 409 2034 409 
Q 2484 409 2743 651 
Q 3003 894 3003 1313 
Q 3003 1734 2745 1975 
Q 2488 2216 2034 2216 
z
M 1403 2484 
Q 997 2584 770 2862 
Q 544 3141 544 3541 
Q 544 4100 942 4425 
Q 1341 4750 2034 4750 
Q 2731 4750 3128 4425 
Q 3525 4100 3525 3541 
Q 3525 3141 3298 2862 
Q 3072 2584 2669 2484 
Q 3125 2378 3379 2068 
Q 3634 1759 3634 1313 
Q 3634 634 3220 271 
Q 2806 -91 2034 -91 
Q 1263 -91 848 271 
Q 434 634 434 1313 
Q 434 1759 690 2068 
Q 947 2378 1403 2484 
z
M 1172 3481 
Q 1172 3119 1398 2916 
Q 1625 2713 2034 2713 
Q 2441 2713 2670 2916 
Q 2900 3119 2900 3481 
Q 2900 3844 2670 4047 
Q 2441 4250 2034 4250 
Q 1625 4250 1398 4047 
Q 1172 3844 1172 3481 
z
" transform="scale(0.015625)"/><path id="DejaVuSans-4b" d="M 3513 2113 
L 3513 0 
L 2938 0 
L 2938 2094 
Q 2938 2591 2744 2837 
Q 2550 3084 2163 3084 
Q 1697 3084 1428 2787 
Q 1159 2491 1159 1978 
L 1159 0 
L 581 0 
L 581 4863 
L 1159 4863 
L 1159 2956 
Q 1366 3272 1645 3428 
Q 1925 3584 2291 3584 
Q 2894 3584 3203 3211 
Q 3513 2838 3513 2113 
z
" transform="scale(0.015625)"/><path id="DejaVuSans-20" d="M 678 2906 
L 4684 2906 
L 4684 2381 
L 678 2381 
L 678 2906 
z
M 678 1631 
L 4684 1631 
L 4684 1100 
L 678 1100 
L 678 1631 
z
" transform="scale(0.015625)"/></defs><use xlink:href="#DejaVuSans-2c" transform="translate(0 0.02)"/><use xlink:href="#DejaVuSans-36" transform="translate(29.49 0.02)"/><use xlink:href="#DejaVuSans-32" transform="translate(92.97 0.02)"/><use xlink:href="#DejaVuSans-3" transform="translate(171.68 0.02)"/><use xlink:href="#DejaVuSans-14" transform="translate(203.47 0.02)"/><use xlink:href="#DejaVuSans-1c" transform="translate(267.09 0.02)"/><use xlink:href="#DejaVuSans-1c" transform="translate(330.71 0.02)"/><use xlink:href="#DejaVuSans-1c" transform="translate(394.34 0.02)"/><use xlink:href="#DejaVuSans-1d" transform="translate(457.96 0.02)"/><use xlink:href="#DejaVuSans-3" transform="translate(491.65 0.02)"/><use xlink:href="#DejaVuSans-31" transform="translate(523.44 0.02)"/><use xlink:href="#DejaVuSans-2c" transform="translate(598.24 0.02)"/><use xlink:href="#DejaVuSans-33" transform="translate(627.73 0.02)"/><use xlink:href="#DejaVuSans-37" transform="translate(688.04 0.02)"/><use xlink:href="#DejaVuSans-36" transform="translate(749.12 0.02)"/><use xlink:href="#DejaVuSans-3" transform="translate(812.6 0.02)"/><use xlink:href="#DejaVuSans-44" transform="translate(844.38 0.02)"/><use xlink:href="#DejaVuSans-3" transform="translate(905.66 0.02)"/><use xlink:href="#DejaVuSans-Oblique-2f" transform="translate(937.45 0.02)"/><use xlink:href="#DejaVuSans-28" transform="translate(993.16 -14.98) scale(0.7)"/><use xlink:href="#DejaVuSans-3b" transform="translate(1037.39 -14.98) scale(0.7)"/><use xlink:href="#DejaVuSans-f" transform="translate(1085.35 -14.98) scale(0.7)"/><use xlink:href="#DejaVuSans-1b" transform="translate(1121.24 -14.98) scale(0.7)"/><use xlink:href="#DejaVuSans-4b" transform="translate(1165.77 -14.98) scale(0.7)"/><use xlink:href="#DejaVuSans-3" transform="translate(1212.87 0.02)"/><use xlink:href="#DejaVuSans-20" transform="translate(1244.66 0.02)"/><use xlink:href="#DejaVuSans-3" transform="translate(1328.45 0.02)"/><use xlink:href="#DejaVuSans-1c" transform="translate(1360.23 0.02)"/><use xlink:href="#DejaVuSans-18" transform="translate(1423.86 0.02)"/><use xlink:href="#DejaVuSans-3" transform="translate(1487.48 0.02)"/><use xlink:href="#DejaVuSans-47" transform="translate(1519.27 0.02)"/><use xlink:href="#DejaVuSans-25" transform="translate(1582.74 0.02)"/></g></g><g id="legend_1"><g id="patch_7"><path d="M 47.93 338.2 
L 207.32 338.2 
Q 209.32 338.2 209.32 336.2 
L 209.32 261.34 
Q 209.32 259.34 207.32 259.34 
L 47.93 259.34 
Q 45.93 259.34 45.93 261.34 
L 45.93 336.2 
Q 45.93 338.2 47.93 338.2 
z
" style="fill: #ffffff; opacity: 0.8; stroke: #cccccc; stroke-linejoin: miter"/></g><g id="line2d_43"><path d="M 49.93 267.61 
L 59.93 267.61 
L 69.93 267.61 
" style="fill: none; stroke: #9e9e9e; stroke-width: 1.5; stroke-linecap: square"/><g><use xlink:href="#mc8c09091db" x="59.93" y="267.61" style="fill: #9e9e9e; stroke: #9e9e9e"/></g></g><g id="text_18"><!-- 10 años --><g transform="translate(77.93 271.11) scale(0.1 -0.1)"><defs><path id="DejaVuSans-b3" d="M 3513 2113 
L 3513 0 
L 2938 0 
L 2938 2094 
Q 2938 2591 2744 2837 
Q 2550 3084 2163 3084 
Q 1697 3084 1428 2787 
Q 1159 2491 1159 1978 
L 1159 0 
L 581 0 
L 581 3500 
L 1159 3500 
L 1159 2956 
Q 1366 3272 1645 3428 
Q 1925 3584 2291 3584 
Q 2894 3584 3203 3211 
Q 3513 2838 3513 2113 
z
M 2063 4281 
L 1884 4453 
Q 1816 4516 1764 4545 
Q 1713 4575 1672 4575 
Q 1553 4575 1497 4461 
Q 1441 4347 1434 4091 
L 1044 4091 
Q 1050 4513 1209 4742 
Q 1369 4972 1653 4972 
Q 1772 4972 1872 4928 
Q 1972 4884 2088 4781 
L 2266 4609 
Q 2334 4547 2386 4517 
Q 2438 4488 2478 4488 
Q 2597 4488 2653 4602 
Q 2709 4716 2716 4972 
L 3106 4972 
Q 3100 4550 2940 4320 
Q 2781 4091 2497 4091 
Q 2378 4091 2278 4134 
Q 2178 4178 2063 4281 
z
" transform="scale(0.015625)"/><path id="DejaVuSans-56" d="M 2834 3397 
L 2834 2853 
Q 2591 2978 2328 3040 
Q 2066 3103 1784 3103 
Q 1356 3103 1142 2972 
Q 928 2841 928 2578 
Q 928 2378 1081 2264 
Q 1234 2150 1697 2047 
L 1894 2003 
Q 2506 1872 2764 1633 
Q 3022 1394 3022 966 
Q 3022 478 2636 193 
Q 2250 -91 1575 -91 
Q 1294 -91 989 -36 
Q 684 19 347 128 
L 347 722 
Q 666 556 975 473 
Q 1284 391 1588 391 
Q 1994 391 2212 530 
Q 2431 669 2431 922 
Q 2431 1156 2273 1281 
Q 2116 1406 1581 1522 
L 1381 1569 
Q 847 1681 609 1914 
Q 372 2147 372 2553 
Q 372 3047 722 3315 
Q 1072 3584 1716 3584 
Q 2034 3584 2315 3537 
Q 2597 3491 2834 3397 
z
" transform="scale(0.015625)"/></defs><use xlink:href="#DejaVuSans-14"/><use xlink:href="#DejaVuSans-13" transform="translate(63.62 0)"/><use xlink:href="#DejaVuSans-3" transform="translate(127.25 0)"/><use xlink:href="#DejaVuSans-44" transform="translate(159.03 0)"/><use xlink:href="#DejaVuSans-b3" transform="translate(220.31 0)"/><use xlink:href="#DejaVuSans-52" transform="translate(283.69 0)"/><use xlink:href="#DejaVuSans-56" transform="translate(344.88 0)"/></g></g><g id="line2d_44"><path d="M 49.93 282.78 
L 59.93 282.78 
L 69.93 282.78 
" style="fill: none; stroke: #7f7f7f; stroke-width: 1.5; stroke-linecap: square"/><g><use xlink:href="#m4b7ade6ade" x="59.93" y="282.78" style="fill: #7f7f7f; stroke: #7f7f7f"/></g></g><g id="text_19"><!-- 20 años --><g transform="translate(77.93 286.28) scale(0.1 -0.1)"><use xlink:href="#DejaVuSans-15"/><use xlink:href="#DejaVuSans-13" transform="translate(63.62 0)"/><use xlink:href="#DejaVuSans-3" transform="translate(127.25 0)"/><use xlink:href="#DejaVuSans-44" transform="translate(159.03 0)"/><use xlink:href="#DejaVuSans-b3" transform="translate(220.31 0)"/><use xlink:href="#DejaVuSans-52" transform="translate(283.69 0)"/><use xlink:href="#DejaVuSans-56" transform="translate(344.88 0)"/></g></g><g id="line2d_45"><path d="M 49.93 297.96 
L 59.93 297.96 
L 69.93 297.96 
" style="fill: none; stroke: #1f77b4; stroke-width: 1.5; stroke-linecap: square"/><g><use xlink:href="#m49466b02c9" x="59.93" y="297.96" style="fill: #1f77b4; stroke: #1f77b4"/></g></g><g id="text_20"><!-- 30 años --><g transform="translate(77.93 301.46) scale(0.1 -0.1)"><use xlink:href="#DejaVuSans-16"/><use xlink:href="#DejaVuSans-13" transform="translate(63.62 0)"/><use xlink:href="#DejaVuSans-3" transform="translate(127.25 0)"/><use xlink:href="#DejaVuSans-44" transform="translate(159.03 0)"/><use xlink:href="#DejaVuSans-b3" transform="translate(220.31 0)"/><use xlink:href="#DejaVuSans-52" transform="translate(283.69 0)"/><use xlink:href="#DejaVuSans-56" transform="translate(344.88 0)"/></g></g><g id="line2d_46"><path d="M 49.93 313.13 
L 59.93 313.13 
L 69.93 313.13 
" style="fill: none; stroke: #d62728; stroke-width: 1.5; stroke-linecap: square"/><g><use xlink:href="#mc99916e8d1" x="59.93" y="313.13" style="fill: #d62728; stroke: #d62728"/></g></g><g id="text_21"><!-- 40 años --><g transform="translate(77.93 316.63) scale(0.1 -0.1)"><use xlink:href="#DejaVuSans-17"/><use xlink:href="#DejaVuSans-13" transform="translate(63.62 0)"/><use xlink:href="#DejaVuSans-3" transform="translate(127.25 0)"/><use xlink:href="#DejaVuSans-44" transform="translate(159.03 0)"/><use xlink:href="#DejaVuSans-b3" transform="translate(220.31 0)"/><use xlink:href="#DejaVuSans-52" transform="translate(283.69 0)"/><use xlink:href="#DejaVuSans-56" transform="translate(344.88 0)"/></g></g><g id="patch_8"><path d="M 49.93 331.8 
L 69.93 331.8 
L 69.93 324.8 
L 49.93 324.8 
z
" style="fill: #f9dede; stroke: #f9dede; stroke-linejoin: miter"/></g><g id="text_22"><!-- Banda 10-90 % (40 años) --><g transform="translate(77.93 331.8) scale(0.1 -0.1)"><defs><path id="DejaVuSans-10" d="M 313 2009 
L 1997 2009 
L 1997 1497 
L 313 1497 
L 313 2009 
z
" transform="scale(0.015625)"/><path id="DejaVuSans-8" d="M 4653 2053 
Q 4381 2053 4226 1822 
Q 4072 1591 4072 1178 
Q 4072 772 4226 539 
Q 4381 306 4653 306 
Q 4919 306 5073 539 
Q 5228 772 5228 1178 
Q 5228 1588 5073 1820 
Q 4919 2053 4653 2053 
z
M 4653 2450 
Q 5147 2450 5437 2106 
Q 5728 1763 5728 1178 
Q 5728 594 5436 251 
Q 5144 -91 4653 -91 
Q 4153 -91 3862 251 
Q 3572 594 3572 1178 
Q 3572 1766 3864 2108 
Q 4156 2450 4653 2450 
z
M 1428 4353 
Q 1159 4353 1004 4120 
Q 850 3888 850 3481 
Q 850 3069 1003 2837 
Q 1156 2606 1428 2606 
Q 1700 2606 1854 2837 
Q 2009 3069 2009 3481 
Q 2009 3884 1853 4118 
Q 1697 4353 1428 4353 
z
M 4250 4750 
L 4750 4750 
L 1831 -91 
L 1331 -91 
L 4250 4750 
z
M 1428 4750 
Q 1922 4750 2215 4408 
Q 2509 4066 2509 3481 
Q 2509 2891 2217 2550 
Q 1925 2209 1428 2209 
Q 931 2209 642 2551 
Q 353 2894 353 3481 
Q 353 4063 643 4406 
Q 934 4750 1428 4750 
z
" transform="scale(0.015625)"/><path id="DejaVuSans-b" d="M 1984 4856 
Q 1566 4138 1362 3434 
Q 1159 2731 1159 2009 
Q 1159 1288 1364 580 
Q 1569 -128 1984 -844 
L 1484 -844 
Q 1016 -109 783 600 
Q 550 1309 550 2009 
Q 550 2706 781 3412 
Q 1013 4119 1484 4856 
L 1984 4856 
z
" transform="scale(0.015625)"/><path id="DejaVuSans-c" d="M 513 4856 
L 1013 4856 
Q 1481 4119 1714 3412 
Q 1947 2706 1947 2009 
Q 1947 1309 1714 600 
Q 1481 -109 1013 -844 
L 513 -844 
Q 928 -128 1133 580 
Q 1338 1288 1338 2009 
Q 1338 2731 1133 3434 
Q 928 4138 513 4856 
z
" transform="scale(0.015625)"/></defs><use xlink:href="#DejaVuSans-25"/><use xlink:href="#DejaVuSans-44" transform="translate(68.61 0)"/><use xlink:href="#DejaVuSans-51" transform="translate(129.89 0)"/><use xlink:href="#DejaVuSans-47" transform="translate(193.27 0)"/><use xlink:href="#DejaVuSans-44" transform="translate(256.75 0)"/><use xlink:href="#DejaVuSans-3" transform="translate(318.03 0)"/><use xlink:href="#DejaVuSans-14" transform="translate(349.81 0)"/><use xlink:href="#DejaVuSans-13" transform="translate(413.44 0)"/><use xlink:href="#DejaVuSans-10" transform="translate(477.06 0)"/><use xlink:href="#DejaVuSans-1c" transform="translate(513.14 0)"/><use xlink:href="#DejaVuSans-13" transform="translate(576.77 0)"/><use xlink:href="#DejaVuSans-3" transform="translate(640.39 0)"/><use xlink:href="#DejaVuSans-8" transform="translate(672.17 0)"/><use xlink:href="#DejaVuSans-3" transform="translate(767.19 0)"/><use xlink:href="#DejaVuSans-b" transform="translate(798.97 0)"/><use xlink:href="#DejaVuSans-17" transform="translate(837.98 0)"/><use xlink:href="#DejaVuSans-13" transform="translate(901.61 0)"/><use xlink:href="#DejaVuSans-3" transform="translate(965.23 0)"/><use xlink:href="#DejaVuSans-44" transform="translate(997.02 0)"/><use xlink:href="#DejaVuSans-b3" transform="translate(1058.3 0)"/><use xlink:href="#DejaVuSans-52" transform="translate(1121.67 0)"/><use xlink:href="#DejaVuSans-56" transform="translate(1182.86 0)"/><use xlink:href="#DejaVuSans-c" transform="translate(1234.95 0)"/></g></g></g></g><g id="axes_2"><g id="patch_9"><path d="M 485.53 343.2 
L 885.76 343.2 
L 885.76 26.52 
L 485.53 26.52 
z
" style="fill: #ffffff"/></g><g id="matplotlib.axis_3"><g id="xtick_12"><g id="line2d_47"><path d="M 503.72 343.2 
L 503.72 26.52 
" clip-path="url(#pb288df0692)" style="fill: none; stroke: #e0e0e0; stroke-opacity: 0.4; stroke-width: 0.8; stroke-linecap: square"/></g><g id="line2d_48"><g><use xlink:href="#m3d27035b55" x="503.72" y="343.2" style="stroke: #000000; stroke-width: 0.8"/></g></g><g id="text_23"><!-- 500 --><g transform="translate(488.52 369.07) rotate(-45) scale(0.1 -0.1)"><use xlink:href="#DejaVuSans-18"/><use xlink:href="#DejaVuSans-13" transform="translate(63.62 0)"/><use xlink:href="#DejaVuSans-13" transform="translate(127.25 0)"/></g></g></g><g id="xtick_13"><g id="line2d_49"><path d="M 605.21 343.2 
L 605.21 26.52 
" clip-path="url(#pb288df0692)" style="fill: none; stroke: #e0e0e0; stroke-opacity: 0.4; stroke-width: 0.8; stroke-linecap: square"/></g><g id="line2d_50"><g><use xlink:href="#m3d27035b55" x="605.21" y="343.2" style="stroke: #000000; stroke-width: 0.8"/></g></g><g id="text_24"><!-- 1000 --><g transform="translate(585.52 373.57) rotate(-45) scale(0.1 -0.1)"><use xlink:href="#DejaVuSans-14"/><use xlink:href="#DejaVuSans-13" transform="translate(63.62 0)"/><use xlink:href="#DejaVuSans-13" transform="translate(127.25 0)"/><use xlink:href="#DejaVuSans-13" transform="translate(190.88 0)"/></g></g></g><g id="xtick_14"><g id="line2d_51"><path d="M 706.71 343.2 
L 706.71 26.52 
" clip-path="url(#pb288df0692)" style="fill: none; stroke: #e0e0e0; stroke-opacity: 0.4; stroke-width: 0.8; stroke-linecap: square"/></g><g id="line2d_52"><g><use xlink:href="#m3d27035b55" x="706.71" y="343.2" style="stroke: #000000; stroke-width: 0.8"/></g></g><g id="text_25"><!-- 2000 --><g transform="translate(687.01 373.57) rotate(-45) scale(0.1 -0.1)"><use xlink:href="#DejaVuSans-15"/><use xlink:href="#DejaVuSans-13" transform="translate(63.62 0)"/><use xlink:href="#DejaVuSans-13" transform="translate(127.25 0)"/><use xlink:href="#DejaVuSans-13" transform="translate(190.88 0)"/></g></g></g><g id="xtick_15"><g id="line2d_53"><path d="M 766.08 343.2 
L 766.08 26.52 
" clip-path="url(#pb288df0692)" style="fill: none; stroke: #e0e0e0; stroke-opacity: 0.4; stroke-width: 0.8; stroke-linecap: square"/></g><g id="line2d_54"><g><use xlink:href="#m3d27035b55" x="766.08" y="343.2" style="stroke: #000000; stroke-width: 0.8"/></g></g><g id="text_26"><!-- 3000 --><g transform="translate(746.38 373.57) rotate(-45) scale(0.1 -0.1)"><use xlink:href="#DejaVuSans-16"/><use xlink:href="#DejaVuSans-13" transform="translate(63.62 0)"/><use xlink:href="#DejaVuSans-13" transform="translate(127.25 0)"/><use xlink:href="#DejaVuSans-13" transform="translate(190.88 0)"/></g></g></g><g id="xtick_16"><g id="line2d_55"><path d="M 808.2 343.2 
L 808.2 26.52 
" clip-path="url(#pb288df0692)" style="fill: none; stroke: #e0e0e0; stroke-opacity: 0.4; stroke-width: 0.8; stroke-linecap: square"/></g><g id="line2d_56"><g><use xlink:href="#m3d27035b55" x="808.2" y="343.2" style="stroke: #000000; stroke-width: 0.8"/></g></g><g id="text_27"><!-- 4000 --><g transform="translate(788.51 373.57) rotate(-45) scale(0.1 -0.1)"><use xlink:href="#DejaVuSans-17"/><use xlink:href="#DejaVuSans-13" transform="translate(63.62 0)"/><use xlink:href="#DejaVuSans-13" transform="translate(127.25 0)"/><use xlink:href="#DejaVuSans-13" transform="translate(190.88 0)"/></g></g></g><g id="xtick_17"><g id="line2d_57"><path d="M 867.57 343.2 
L 867.57 26.52 
" clip-path="url(#pb288df0692)" style="fill: none; stroke: #e0e0e0; stroke-opacity: 0.4; stroke-width: 0.8; stroke-linecap: square"/></g><g id="line2d_58"><g><use xlink:href="#m3d27035b55" x="867.57" y="343.2" style="stroke: #000000; stroke-width: 0.8"/></g></g><g id="text_28"><!-- 6000 --><g transform="translate(847.88 373.57) rotate(-45) scale(0.1 -0.1)"><use xlink:href="#DejaVuSans-19"/><use xlink:href="#DejaVuSans-13" transform="translate(63.62 0)"/><use xlink:href="#DejaVuSans-13" transform="translate(127.25 0)"/><use xlink:href="#DejaVuSans-13" transform="translate(190.88 0)"/></g></g></g><g id="xtick_18"><g id="line2d_59"><path d="M 530.41 343.2 
L 530.41 26.52 
" clip-path="url(#pb288df0692)" style="fill: none; stroke: #e0e0e0; stroke-opacity: 0.4; stroke-width: 0.8; stroke-linecap: square"/></g><g id="line2d_60"><g><use xlink:href="#md1b22fa4b4" x="530.41" y="343.2" style="stroke: #000000; stroke-width: 0.6"/></g></g></g><g id="xtick_19"><g id="line2d_61"><path d="M 552.99 343.2 
L 552.99 26.52 
" clip-path="url(#pb288df0692)" style="fill: none; stroke: #e0e0e0; stroke-opacity: 0.4; stroke-width: 0.8; stroke-linecap: square"/></g><g id="line2d_62"><g><use xlink:href="#md1b22fa4b4" x="552.99" y="343.2" style="stroke: #000000; stroke-width: 0.6"/></g></g></g><g id="xtick_20"><g id="line2d_63"><path d="M 572.54 343.2 
L 572.54 26.52 
" clip-path="url(#pb288df0692)" style="fill: none; stroke: #e0e0e0; stroke-opacity: 0.4; stroke-width: 0.8; stroke-linecap: square"/></g><g id="line2d_64"><g><use xlink:href="#md1b22fa4b4" x="572.54" y="343.2" style="stroke: #000000; stroke-width: 0.6"/></g></g></g><g id="xtick_21"><g id="line2d_65"><path d="M 589.79 343.2 
L 589.79 26.52 
" clip-path="url(#pb288df0692)" style="fill: none; stroke: #e0e0e0; stroke-opacity: 0.4; stroke-width: 0.8; stroke-linecap: square"/></g><g id="line2d_66"><g><use xlink:href="#md1b22fa4b4" x="589.79" y="343.2" style="stroke: #000000; stroke-width: 0.6"/></g></g></g><g id="xtick_22"><g id="line2d_67"><path d="M 840.87 343.2 
L 840.87 26.52 
" clip-path="url(#pb288df0692)" style="fill: none; stroke: #e0e0e0; stroke-opacity: 0.4; stroke-width: 0.8; stroke-linecap: square"/></g><g id="line2d_68"><g><use xlink:href="#md1b22fa4b4" x="840.87" y="343.2" style="stroke: #000000; stroke-width: 0.6"/></g></g></g><g id="text_29"><!-- Frecuencia audiométrica [Hz] --><g transform="translate(612.26 387.27) scale(0.1 -0.1)"><use xlink:href="#DejaVuSans-29"/><use xlink:href="#DejaVuSans-55" transform="translate(50.23 0)"/><use xlink:href="#DejaVuSans-48" transform="translate(89.14 0)"/><use xlink:href="#DejaVuSans-46" transform="translate(150.67 0)"/><use xlink:href="#DejaVuSans-58" transform="translate(205.66 0)"/><use xlink:href="#DejaVuSans-48" transform="translate(269.03 0)"/><use xlink:href="#DejaVuSans-51" transform="translate(330.56 0)"/><use xlink:href="#DejaVuSans-46" transform="translate(393.94 0)"/><use xlink:href="#DejaVuSans-4c" transform="translate(448.92 0)"/><use xlink:href="#DejaVuSans-44" transform="translate(476.7 0)"/><use xlink:href="#DejaVuSans-3" transform="translate(537.98 0)"/><use xlink:href="#DejaVuSans-44" transform="translate(569.77 0)"/><use xlink:href="#DejaVuSans-58" transform="translate(631.05 0)"/><use xlink:href="#DejaVuSans-47" transform="translate(694.42 0)"/><use xlink:href="#DejaVuSans-4c" transform="translate(757.91 0)"/><use xlink:href="#DejaVuSans-52" transform="translate(785.69 0)"/><use xlink:href="#DejaVuSans-50" transform="translate(846.88 0)"/><use xlink:href="#DejaVuSans-ab" transform="translate(944.28 0)"/><use xlink:href="#DejaVuSans-57" transform="translate(1005.81 0)"/><use xlink:href="#DejaVuSans-55" transform="translate(1045.02 0)"/><use xlink:href="#DejaVuSans-4c" transform="translate(1086.12 0)"/><use xlink:href="#DejaVuSans-46" transform="translate(1113.91 0)"/><use xlink:href="#DejaVuSans-44" transform="translate(1168.89 0)"/><use xlink:href="#DejaVuSans-3" transform="translate(1230.17 0)"/><use xlink:href="#DejaVuSans-3e" transform="translate(1261.95 0)"/><use xlink:href="#DejaVuSans-2b" transform="translate(1300.97 0)"/><use xlink:href="#DejaVuSans-5d" transform="translate(1376.17 0)"/><use xlink:href="#DejaVuSans-40" transform="translate(1428.66 0)"/></g></g></g><g id="matplotlib.axis_4"><g id="ytick_9"><g id="line2d_69"><path d="M 485.53 37.22 
L 885.76 37.22 
" clip-path="url(#pb288df0692)" style="fill: none; stroke: #e0e0e0; stroke-opacity: 0.4; stroke-width: 0.8; stroke-linecap: square"/></g><g id="line2d_70"><g><use xlink:href="#mef640d9f3a" x="485.53" y="37.22" style="stroke: #000000; stroke-width: 0.8"/></g></g><g id="text_30"><!-- 0 --><g transform="translate(472.16 41.01) scale(0.1 -0.1)"><use xlink:href="#DejaVuSans-13"/></g></g></g><g id="ytick_10"><g id="line2d_71"><path d="M 485.53 72.94 
L 885.76 72.94 
" clip-path="url(#pb288df0692)" style="fill: none; stroke: #e0e0e0; stroke-opacity: 0.4; stroke-width: 0.8; stroke-linecap: square"/></g><g id="line2d_72"><g><use xlink:href="#mef640d9f3a" x="485.53" y="72.94" style="stroke: #000000; stroke-width: 0.8"/></g></g><g id="text_31"><!-- 5 --><g transform="translate(472.16 76.74) scale(0.1 -0.1)"><use xlink:href="#DejaVuSans-18"/></g></g></g><g id="ytick_11"><g id="line2d_73"><path d="M 485.53 108.67 
L 885.76 108.67 
" clip-path="url(#pb288df0692)" style="fill: none; stroke: #e0e0e0; stroke-opacity: 0.4; stroke-width: 0.8; stroke-linecap: square"/></g><g id="line2d_74"><g><use xlink:href="#mef640d9f3a" x="485.53" y="108.67" style="stroke: #000000; stroke-width: 0.8"/></g></g><g id="text_32"><!-- 10 --><g transform="translate(465.8 112.47) scale(0.1 -0.1)"><use xlink:href="#DejaVuSans-14"/><use xlink:href="#DejaVuSans-13" transform="translate(63.62 0)"/></g></g></g><g id="ytick_12"><g id="line2d_75"><path d="M 485.53 144.4 
L 885.76 144.4 
" clip-path="url(#pb288df0692)" style="fill: none; stroke: #e0e0e0; stroke-opacity: 0.4; stroke-width: 0.8; stroke-linecap: square"/></g><g id="line2d_76"><g><use xlink:href="#mef640d9f3a" x="485.53" y="144.4" style="stroke: #000000; stroke-width: 0.8"/></g></g><g id="text_33"><!-- 15 --><g transform="translate(465.8 148.2) scale(0.1 -0.1)"><use xlink:href="#DejaVuSans-14"/><use xlink:href="#DejaVuSans-18" transform="translate(63.62 0)"/></g></g></g><g id="ytick_13"><g id="line2d_77"><path d="M 485.53 180.12 
L 885.76 180.12 
" clip-path="url(#pb288df0692)" style="fill: none; stroke: #e0e0e0; stroke-opacity: 0.4; stroke-width: 0.8; stroke-linecap: square"/></g><g id="line2d_78"><g><use xlink:href="#mef640d9f3a" x="485.53" y="180.12" style="stroke: #000000; stroke-width: 0.8"/></g></g><g id="text_34"><!-- 20 --><g transform="translate(465.8 183.92) scale(0.1 -0.1)"><use xlink:href="#DejaVuSans-15"/><use xlink:href="#DejaVuSans-13" transform="translate(63.62 0)"/></g></g></g><g id="ytick_14"><g id="line2d_79"><path d="M 485.53 215.85 
L 885.76 215.85 
" clip-path="url(#pb288df0692)" style="fill: none; stroke: #e0e0e0; stroke-opacity: 0.4; stroke-width: 0.8; stroke-linecap: square"/></g><g id="line2d_80"><g><use xlink:href="#mef640d9f3a" x="485.53" y="215.85" style="stroke: #000000; stroke-width: 0.8"/></g></g><g id="text_35"><!-- 25 --><g transform="translate(465.8 219.65) scale(0.1 -0.1)"><use xlink:href="#DejaVuSans-15"/><use xlink:href="#DejaVuSans-18" transform="translate(63.62 0)"/></g></g></g><g id="ytick_15"><g id="line2d_81"><path d="M 485.53 251.58 
L 885.76 251.58 
" clip-path="url(#pb288df0692)" style="fill: none; stroke: #e0e0e0; stroke-opacity: 0.4; stroke-width: 0.8; stroke-linecap: square"/></g><g id="line2d_82"><g><use xlink:href="#mef640d9f3a" x="485.53" y="251.58" style="stroke: #000000; stroke-width: 0.8"/></g></g><g id="text_36"><!-- 30 --><g transform="translate(465.8 255.38) scale(0.1 -0.1)"><use xlink:href="#DejaVuSans-16"/><use xlink:href="#DejaVuSans-13" transform="translate(63.62 0)"/></g></g></g><g id="ytick_16"><g id="line2d_83"><path d="M 485.53 287.3 
L 885.76 287.3 
" clip-path="url(#pb288df0692)" style="fill: none; stroke: #e0e0e0; stroke-opacity: 0.4; stroke-width: 0.8; stroke-linecap: square"/></g><g id="line2d_84"><g><use xlink:href="#mef640d9f3a" x="485.53" y="287.3" style="stroke: #000000; stroke-width: 0.8"/></g></g><g id="text_37"><!-- 35 --><g transform="translate(465.8 291.1) scale(0.1 -0.1)"><use xlink:href="#DejaVuSans-16"/><use xlink:href="#DejaVuSans-18" transform="translate(63.62 0)"/></g></g></g><g id="ytick_17"><g id="line2d_85"><path d="M 485.53 323.03 
L 885.76 323.03 
" clip-path="url(#pb288df0692)" style="fill: none; stroke: #e0e0e0; stroke-opacity: 0.4; stroke-width: 0.8; stroke-linecap: square"/></g><g id="line2d_86"><g><use xlink:href="#mef640d9f3a" x="485.53" y="323.03" style="stroke: #000000; stroke-width: 0.8"/></g></g><g id="text_38"><!-- 40 --><g transform="translate(465.8 326.83) scale(0.1 -0.1)"><use xlink:href="#DejaVuSans-17"/><use xlink:href="#DejaVuSans-13" transform="translate(63.62 0)"/></g></g></g><g id="text_39"><!-- Nivel del umbral de audición [dB] --><g transform="translate(459.4 268.64) rotate(-90) scale(0.1 -0.1)"><defs><path id="DejaVuSans-59" d="M 191 3500 
L 800 3500 
L 1894 563 
L 2988 3500 
L 3597 3500 
L 2284 0 
L 1503 0 
L 191 3500 
z
" transform="scale(0.015625)"/><path id="DejaVuSans-4f" d="M 603 4863 
L 1178 4863 
L 1178 0 
L 603 0 
L 603 4863 
z
" transform="scale(0.015625)"/><path id="DejaVuSans-45" d="M 3116 1747 
Q 3116 2381 2855 2742 
Q 2594 3103 2138 3103 
Q 1681 3103 1420 2742 
Q 1159 2381 1159 1747 
Q 1159 1113 1420 752 
Q 1681 391 2138 391 
Q 2594 391 2855 752 
Q 3116 1113 3116 1747 
z
M 1159 2969 
Q 1341 3281 1617 3432 
Q 1894 3584 2278 3584 
Q 2916 3584 3314 3078 
Q 3713 2572 3713 1747 
Q 3713 922 3314 415 
Q 2916 -91 2278 -91 
Q 1894 -91 1617 61 
Q 1341 213 1159 525 
L 1159 0 
L 581 0 
L 581 4863 
L 1159 4863 
L 1159 2969 
z
" transform="scale(0.015625)"/><path id="DejaVuSans-b5" d="M 1959 3097 
Q 1497 3097 1228 2736 
Q 959 2375 959 1747 
Q 959 1119 1226 758 
Q 1494 397 1959 397 
Q 2419 397 2687 759 
Q 2956 1122 2956 1747 
Q 2956 2369 2687 2733 
Q 2419 3097 1959 3097 
z
M 1959 3584 
Q 2709 3584 3137 3096 
Q 3566 2609 3566 1747 
Q 3566 888 3137 398 
Q 2709 -91 1959 -91 
Q 1206 -91 779 398 
Q 353 888 353 1747 
Q 353 2609 779 3096 
Q 1206 3584 1959 3584 
z
M 2393 5119 
L 3015 5119 
L 1997 3944 
L 1518 3944 
L 2393 5119 
z
" transform="scale(0.015625)"/></defs><use xlink:href="#DejaVuSans-31"/><use xlink:href="#DejaVuSans-4c" transform="translate(74.81 0)"/><use xlink:href="#DejaVuSans-59" transform="translate(102.59 0)"/><use xlink:href="#DejaVuSans-48" transform="translate(161.78 0)"/><use xlink:href="#DejaVuSans-4f" transform="translate(223.31 0)"/><use xlink:href="#DejaVuSans-3" transform="translate(251.09 0)"/><use xlink:href="#DejaVuSans-47" transform="translate(282.88 0)"/><use xlink:href="#DejaVuSans-48" transform="translate(346.36 0)"/><use xlink:href="#DejaVuSans-4f" transform="translate(407.89 0)"/><use xlink:href="#DejaVuSans-3" transform="translate(435.67 0)"/><use xlink:href="#DejaVuSans-58" transform="translate(467.45 0)"/><use xlink:href="#DejaVuSans-50" transform="translate(530.83 0)"/><use xlink:href="#DejaVuSans-45" transform="translate(628.23 0)"/><use xlink:href="#DejaVuSans-55" transform="translate(691.72 0)"/><use xlink:href="#DejaVuSans-44" transform="translate(732.83 0)"/><use xlink:href="#DejaVuSans-4f" transform="translate(794.11 0)"/><use xlink:href="#DejaVuSans-3" transform="translate(821.89 0)"/><use xlink:href="#DejaVuSans-47" transform="translate(853.67 0)"/><use xlink:href="#DejaVuSans-48" transform="translate(917.16 0)"/><use xlink:href="#DejaVuSans-3" transform="translate(978.69 0)"/><use xlink:href="#DejaVuSans-44" transform="translate(1010.47 0)"/><use xlink:href="#DejaVuSans-58" transform="translate(1071.75 0)"/><use xlink:href="#DejaVuSans-47" transform="translate(1135.12 0)"/><use xlink:href="#DejaVuSans-4c" transform="translate(1198.61 0)"/><use xlink:href="#DejaVuSans-46" transform="translate(1226.39 0)"/><use xlink:href="#DejaVuSans-4c" transform="translate(1281.38 0)"/><use xlink:href="#DejaVuSans-b5" transform="translate(1309.16 0)"/><use xlink:href="#DejaVuSans-51" transform="translate(1370.34 0)"/><use xlink:href="#DejaVuSans-3" transform="translate(1433.72 0)"/><use xlink:href="#DejaVuSans-3e" transform="translate(1465.5 0)"/><use xlink:href="#DejaVuSans-47" transform="translate(1504.52 0)"/><use xlink:href="#DejaVuSans-25" transform="translate(1568 0)"/><use xlink:href="#DejaVuSans-40" transform="translate(1636.61 0)"/></g></g></g><g id="line2d_87"><path d="M 503.72 80.27 
L 605.21 93.29 
L 706.71 126.23 
L 766.08 155.66 
L 808.2 181.61 
L 867.57 222.55 
" clip-path="url(#pb288df0692)" style="fill: none; stroke: #1f77b4; stroke-width: 1.5; stroke-linecap: square"/><g clip-path="url(#pb288df0692)"><use xlink:href="#m49466b02c9" x="503.72" y="80.27" style="fill: #1f77b4; stroke: #1f77b4"/><use xlink:href="#m49466b02c9" x="605.21" y="93.29" style="fill: #1f77b4; stroke: #1f77b4"/><use xlink:href="#m49466b02c9" x="706.71" y="126.23" style="fill: #1f77b4; stroke: #1f77b4"/><use xlink:href="#m49466b02c9" x="766.08" y="155.66" style="fill: #1f77b4; stroke: #1f77b4"/><use xlink:href="#m49466b02c9" x="808.2" y="181.61" style="fill: #1f77b4; stroke: #1f77b4"/><use xlink:href="#m49466b02c9" x="867.57" y="222.55" style="fill: #1f77b4; stroke: #1f77b4"/></g></g><g id="line2d_88"><path d="M 503.72 40.92 
L 605.21 58.67 
L 706.71 121.6 
L 766.08 191.53 
L 808.2 214.22 
L 867.57 163.28 
" clip-path="url(#pb288df0692)" style="fill: none; stroke: #ff7f0e; stroke-width: 1.5; stroke-linecap: square"/><defs><path id="m5ad42f86f4" d="M 0 -3 
L -3 3 
L 3 3 
z
" style="stroke: #ff7f0e; stroke-linejoin: miter"/></defs><g clip-path="url(#pb288df0692)"><use xlink:href="#m5ad42f86f4" x="503.72" y="40.92" style="fill: #ff7f0e; stroke: #ff7f0e; stroke-linejoin: miter"/><use xlink:href="#m5ad42f86f4" x="605.21" y="58.67" style="fill: #ff7f0e; stroke: #ff7f0e; stroke-linejoin: miter"/><use xlink:href="#m5ad42f86f4" x="706.71" y="121.6" style="fill: #ff7f0e; stroke: #ff7f0e; stroke-linejoin: miter"/><use xlink:href="#m5ad42f86f4" x="766.08" y="191.53" style="fill: #ff7f0e; stroke: #ff7f0e; stroke-linejoin: miter"/><use xlink:href="#m5ad42f86f4" x="808.2" y="214.22" style="fill: #ff7f0e; stroke: #ff7f0e; stroke-linejoin: miter"/><use xlink:href="#m5ad42f86f4" x="867.57" y="163.28" style="fill: #ff7f0e; stroke: #ff7f0e; stroke-linejoin: miter"/></g></g><g id="line2d_89"><path d="M 503.72 83.79 
L 605.21 113.34 
L 706.71 201.85 
L 766.08 288.65 
L 808.2 328.81 
L 867.57 321.36 
" clip-path="url(#pb288df0692)" style="fill: none; stroke-dasharray: 5.55,2.4; stroke-dashoffset: 0; stroke: #d62728; stroke-width: 1.5"/><defs><path id="mc3df89cc81" d="M -3 3 
L 3 3 
L 3 -3 
L -3 -3 
z
" style="stroke: #d62728; stroke-linejoin: miter"/></defs><g clip-path="url(#pb288df0692)"><use xlink:href="#mc3df89cc81" x="503.72" y="83.79" style="fill: #d62728; stroke: #d62728; stroke-linejoin: miter"/><use xlink:href="#mc3df89cc81" x="605.21" y="113.34" style="fill: #d62728; stroke: #d62728; stroke-linejoin: miter"/><use xlink:href="#mc3df89cc81" x="706.71" y="201.85" style="fill: #d62728; stroke: #d62728; stroke-linejoin: miter"/><use xlink:href="#mc3df89cc81" x="766.08" y="288.65" style="fill: #d62728; stroke: #d62728; stroke-linejoin: miter"/><use xlink:href="#mc3df89cc81" x="808.2" y="328.81" style="fill: #d62728; stroke: #d62728; stroke-linejoin: miter"/><use xlink:href="#mc3df89cc81" x="867.57" y="321.36" style="fill: #d62728; stroke: #d62728; stroke-linejoin: miter"/></g></g><g id="patch_10"><path d="M 485.53 343.2 
L 485.53 26.52 
" style="fill: none; stroke: #000000; stroke-width: 0.8; stroke-linejoin: miter; stroke-linecap: square"/></g><g id="patch_11"><path d="M 885.76 343.2 
L 885.76 26.52 
" style="fill: none; stroke: #000000; stroke-width: 0.8; stroke-linejoin: miter; stroke-linecap: square"/></g><g id="patch_12"><path d="M 485.53 343.2 
L 885.76 343.2 
" style="fill: none; stroke: #000000; stroke-width: 0.8; stroke-linejoin: miter; stroke-linecap: square"/></g><g id="patch_13"><path d="M 485.53 26.52 
L 885.76 26.52 
" style="fill: none; stroke: #000000; stroke-width: 0.8; stroke-linejoin: miter; stroke-linecap: square"/></g><g id="text_40"><!-- ISO 1999: HTLAN (hombres, 60 años, 95 dB / 30 años) --><g transform="translate(522.55 16.52) scale(0.12 -0.12)"><defs><path id="DejaVuSans-2f" d="M 628 4666 
L 1259 4666 
L 1259 531 
L 3531 531 
L 3531 0 
L 628 0 
L 628 4666 
z
" transform="scale(0.015625)"/><path id="DejaVuSans-24" d="M 2188 4044 
L 1331 1722 
L 3047 1722 
L 2188 4044 
z
M 1831 4666 
L 2547 4666 
L 4325 0 
L 3669 0 
L 3244 1197 
L 1141 1197 
L 716 0 
L 50 0 
L 1831 4666 
z
" transform="scale(0.015625)"/><path id="DejaVuSans-12" d="M 1625 4666 
L 2156 4666 
L 531 -594 
L 0 -594 
L 1625 4666 
z
" transform="scale(0.015625)"/></defs><use xlink:href="#DejaVuSans-2c"/><use xlink:href="#DejaVuSans-36" transform="translate(29.5 0)"/><use xlink:href="#DejaVuSans-32" transform="translate(92.98 0)"/><use xlink:href="#DejaVuSans-3" transform="translate(171.7 0)"/><use xlink:href="#DejaVuSans-14" transform="translate(203.48 0)"/><use xlink:href="#DejaVuSans-1c" transform="translate(267.11 0)"/><use xlink:href="#DejaVuSans-1c" transform="translate(330.73 0)"/><use xlink:href="#DejaVuSans-1c" transform="translate(394.36 0)"/><use xlink:href="#DejaVuSans-1d" transform="translate(457.98 0)"/><use xlink:href="#DejaVuSans-3" transform="translate(491.67 0)"/><use xlink:href="#DejaVuSans-2b" transform="translate(523.45 0)"/><use xlink:href="#DejaVuSans-37" transform="translate(598.66 0)"/><use xlink:href="#DejaVuSans-2f" transform="translate(659.73 0)"/><use xlink:href="#DejaVuSans-24" transform="translate(717.75 0)"/><use xlink:href="#DejaVuSans-31" transform="translate(786.16 0)"/><use xlink:href="#DejaVuSans-3" transform="translate(860.97 0)"/><use xlink:href="#DejaVuSans-b" transform="translate(892.75 0)"/><use xlink:href="#DejaVuSans-4b" transform="translate(931.77 0)"/><use xlink:href="#DejaVuSans-52" transform="translate(995.14 0)"/><use xlink:href="#DejaVuSans-50" transform="translate(1056.33 0)"/><use xlink:href="#DejaVuSans-45" transform="translate(1153.73 0)"/><use xlink:href="#DejaVuSans-55" transform="translate(1217.22 0)"/><use xlink:href="#DejaVuSans-48" transform="translate(1256.12 0)"/><use xlink:href="#DejaVuSans-56" transform="translate(1317.66 0)"/><use xlink:href="#DejaVuSans-f" transform="translate(1369.75 0)"/><use xlink:href="#DejaVuSans-3" transform="translate(1401.53 0)"/><use xlink:href="#DejaVuSans-19" transform="translate(1433.31 0)"/><use xlink:href="#DejaVuSans-13" transform="translate(1496.94 0)"/><use xlink:href="#DejaVuSans-3" transform="translate(1560.56 0)"/><use xlink:href="#DejaVuSans-44" transform="translate(1592.34 0)"/><use xlink:href="#DejaVuSans-b3" transform="translate(1653.62 0)"/><use xlink:href="#DejaVuSans-52" transform="translate(1717 0)"/><use xlink:href="#DejaVuSans-56" transform="translate(1778.19 0)"/><use xlink:href="#DejaVuSans-f" transform="translate(1830.28 0)"/><use xlink:href="#DejaVuSans-3" transform="translate(1862.06 0)"/><use xlink:href="#DejaVuSans-1c" transform="translate(1893.84 0)"/><use xlink:href="#DejaVuSans-18" transform="translate(1957.47 0)"/><use xlink:href="#DejaVuSans-3" transform="translate(2021.09 0)"/><use xlink:href="#DejaVuSans-47" transform="translate(2052.88 0)"/><use xlink:href="#DejaVuSans-25" transform="translate(2116.36 0)"/><use xlink:href="#DejaVuSans-3" transform="translate(2184.97 0)"/><use xlink:href="#DejaVuSans-12" transform="translate(2216.75 0)"/><use xlink:href="#DejaVuSans-3" transform="translate(2250.44 0)"/><use xlink:href="#DejaVuSans-16" transform="translate(2282.22 0)"/><use xlink:href="#DejaVuSans-13" transform="translate(2345.84 0)"/><use xlink:href="#DejaVuSans-3" transform="translate(2409.47 0)"/><use xlink:href="#DejaVuSans-44" transform="translate(2441.25 0)"/><use xlink:href="#DejaVuSans-b3" transform="translate(2502.53 0)"/><use xlink:href="#DejaVuSans-52" transform="translate(2565.91 0)"/><use xlink:href="#DejaVuSans-56" transform="translate(2627.09 0)"/><use xlink:href="#DejaVuSans-c" transform="translate(2679.19 0)"/></g></g><g id="legend_2"><g id="patch_14"><path d="M 492.53 338.2 
L 639.08 338.2 
Q 641.08 338.2 641.08 336.2 
L 641.08 292.2 
Q 641.08 290.2 639.08 290.2 
L 492.53 290.2 
Q 490.53 290.2 490.53 292.2 
L 490.53 336.2 
Q 490.53 338.2 492.53 338.2 
z
" style="fill: #ffffff; opacity: 0.8; stroke: #cccccc; stroke-linejoin: miter"/></g><g id="line2d_90"><path d="M 494.53 298.3 
L 504.53 298.3 
L 514.53 298.3 
" style="fill: none; stroke: #1f77b4; stroke-width: 1.5; stroke-linecap: square"/><g><use xlink:href="#m49466b02c9" x="504.53" y="298.3" style="fill: #1f77b4; stroke: #1f77b4"/></g></g><g id="text_41"><!-- Edad (HTLA, ISO 7029) --><g transform="translate(522.53 301.8) scale(0.1 -0.1)"><defs><path id="DejaVuSans-1a" d="M 525 4666 
L 3525 4666 
L 3525 4397 
L 1831 0 
L 1172 0 
L 2766 4134 
L 525 4134 
L 525 4666 
z
" transform="scale(0.015625)"/></defs><use xlink:href="#DejaVuSans-28"/><use xlink:href="#DejaVuSans-47" transform="translate(63.19 0)"/><use xlink:href="#DejaVuSans-44" transform="translate(126.67 0)"/><use xlink:href="#DejaVuSans-47" transform="translate(187.95 0)"/><use xlink:href="#DejaVuSans-3" transform="translate(251.44 0)"/><use xlink:href="#DejaVuSans-b" transform="translate(283.22 0)"/><use xlink:href="#DejaVuSans-2b" transform="translate(322.23 0)"/><use xlink:href="#DejaVuSans-37" transform="translate(397.44 0)"/><use xlink:href="#DejaVuSans-2f" transform="translate(458.52 0)"/><use xlink:href="#DejaVuSans-24" transform="translate(516.53 0)"/><use xlink:href="#DejaVuSans-f" transform="translate(584.94 0)"/><use xlink:href="#DejaVuSans-3" transform="translate(616.72 0)"/><use xlink:href="#DejaVuSans-2c" transform="translate(648.5 0)"/><use xlink:href="#DejaVuSans-36" transform="translate(678 0)"/><use xlink:href="#DejaVuSans-32" transform="translate(741.48 0)"/><use xlink:href="#DejaVuSans-3" transform="translate(820.2 0)"/><use xlink:href="#DejaVuSans-1a" transform="translate(851.98 0)"/><use xlink:href="#DejaVuSans-13" transform="translate(915.61 0)"/><use xlink:href="#DejaVuSans-15" transform="translate(979.23 0)"/><use xlink:href="#DejaVuSans-1c" transform="translate(1042.86 0)"/><use xlink:href="#DejaVuSans-c" transform="translate(1106.48 0)"/></g></g><g id="line2d_91"><path d="M 494.53 313.3 
L 504.53 313.3 
L 514.53 313.3 
" style="fill: none; stroke: #ff7f0e; stroke-width: 1.5; stroke-linecap: square"/><g><use xlink:href="#m5ad42f86f4" x="504.53" y="313.3" style="fill: #ff7f0e; stroke: #ff7f0e; stroke-linejoin: miter"/></g></g><g id="text_42"><!-- Ruido (NIPTS) --><g transform="translate(522.53 316.8) scale(0.1 -0.1)"><defs><path id="DejaVuSans-35" d="M 2841 2188 
Q 3044 2119 3236 1894 
Q 3428 1669 3622 1275 
L 4263 0 
L 3584 0 
L 2988 1197 
Q 2756 1666 2539 1819 
Q 2322 1972 1947 1972 
L 1259 1972 
L 1259 0 
L 628 0 
L 628 4666 
L 2053 4666 
Q 2853 4666 3247 4331 
Q 3641 3997 3641 3322 
Q 3641 2881 3436 2590 
Q 3231 2300 2841 2188 
z
M 1259 4147 
L 1259 2491 
L 2053 2491 
Q 2509 2491 2742 2702 
Q 2975 2913 2975 3322 
Q 2975 3731 2742 3939 
Q 2509 4147 2053 4147 
L 1259 4147 
z
" transform="scale(0.015625)"/></defs><use xlink:href="#DejaVuSans-35"/><use xlink:href="#DejaVuSans-58" transform="translate(65 0)"/><use xlink:href="#DejaVuSans-4c" transform="translate(128.38 0)"/><use xlink:href="#DejaVuSans-47" transform="translate(156.16 0)"/><use xlink:href="#DejaVuSans-52" transform="translate(219.64 0)"/><use xlink:href="#DejaVuSans-3" transform="translate(280.83 0)"/><use xlink:href="#DejaVuSans-b" transform="translate(312.61 0)"/><use xlink:href="#DejaVuSans-31" transform="translate(351.62 0)"/><use xlink:href="#DejaVuSans-2c" transform="translate(426.44 0)"/><use xlink:href="#DejaVuSans-33" transform="translate(455.94 0)"/><use xlink:href="#DejaVuSans-37" transform="translate(516.23 0)"/><use xlink:href="#DejaVuSans-36" transform="translate(577.31 0)"/><use xlink:href="#DejaVuSans-c" transform="translate(640.8 0)"/></g></g><g id="line2d_92"><path d="M 494.53 328.3 
L 504.53 328.3 
L 514.53 328.3 
" style="fill: none; stroke-dasharray: 5.55,2.4; stroke-dashoffset: 0; stroke: #d62728; stroke-width: 1.5"/><g><use xlink:href="#mc3df89cc81" x="504.53" y="328.3" style="fill: #d62728; stroke: #d62728; stroke-linejoin: miter"/></g></g><g id="text_43"><!-- Edad + ruido (HTLAN) --><g transform="translate(522.53 331.8) scale(0.1 -0.1)"><defs><path id="DejaVuSans-e" d="M 2944 4013 
L 2944 2272 
L 4684 2272 
L 4684 1741 
L 2944 1741 
L 2944 0 
L 2419 0 
L 2419 1741 
L 678 1741 
L 678 2272 
L 2419 2272 
L 2419 4013 
L 2944 4013 
z
" transform="scale(0.015625)"/></defs><use xlink:href="#DejaVuSans-28"/><use xlink:href="#DejaVuSans-47" transform="translate(63.19 0)"/><use xlink:href="#DejaVuSans-44" transform="translate(126.67 0)"/><use xlink:href="#DejaVuSans-47" transform="translate(187.95 0)"/><use xlink:href="#DejaVuSans-3" transform="translate(251.44 0)"/><use xlink:href="#DejaVuSans-e" transform="translate(283.22 0)"/><use xlink:href="#DejaVuSans-3" transform="translate(367.02 0)"/><use xlink:href="#DejaVuSans-55" transform="translate(398.8 0)"/><use xlink:href="#DejaVuSans-58" transform="translate(439.91 0)"/><use xlink:href="#DejaVuSans-4c" transform="translate(503.28 0)"/><use xlink:href="#DejaVuSans-47" transform="translate(531.06 0)"/><use xlink:href="#DejaVuSans-52" transform="translate(594.55 0)"/><use xlink:href="#DejaVuSans-3" transform="translate(655.73 0)"/><use xlink:href="#DejaVuSans-b" transform="translate(687.52 0)"/><use xlink:href="#DejaVuSans-2b" transform="translate(726.53 0)"/><use xlink:href="#DejaVuSans-37" transform="translate(801.73 0)"/><use xlink:href="#DejaVuSans-2f" transform="translate(862.81 0)"/><use xlink:href="#DejaVuSans-24" transform="translate(920.83 0)"/><use xlink:href="#DejaVuSans-31" transform="translate(989.23 0)"/><use xlink:href="#DejaVuSans-c" transform="translate(1064.05 0)"/></g></g></g></g></g><defs><clipPath id="pddadfca9f0"><rect x="40.93" y="26.52" width="400.24" height="316.68"/></clipPath><clipPath id="pb288df0692"><rect x="485.53" y="26.52" width="400.24" height="316.68"/></clipPath></defs></svg>
