<?xml version="1.0" encoding="utf-8" standalone="no"?>
<!DOCTYPE svg PUBLIC "-//W3C//DTD SVG 1.1//EN"
  "http://www.w3.org/Graphics/SVG/1.1/DTD/svg11.dtd">
<svg xmlns:xlink="http://www.w3.org/1999/xlink" width="609.733594pt" height="399.639687pt" viewBox="0 0 609.733594 399.639687" xmlns="http://www.w3.org/2000/svg" version="1.1">
 <metadata>
  <rdf:RDF xmlns:dc="http://purl.org/dc/elements/1.1/" xmlns:cc="http://creativecommons.org/ns#" xmlns:rdf="http://www.w3.org/1999/02/22-rdf-syntax-ns#">
   <cc:Work>
    <dc:type rdf:resource="http://purl.org/dc/dcmitype/StillImage"/>
    <dc:format>image/svg+xml</dc:format>
    <dc:creator>
     <cc:Agent>
      <dc:title>Matplotlib v3.11.1, https://matplotlib.org/</dc:title>
     </cc:Agent>
    </dc:creator>
   </cc:Work>
  </rdf:RDF>
 </metadata>
 <defs>
  <style type="text/css">*{stroke-linejoin: round; stroke-linecap: butt}</style>
 </defs>
 <g id="figure_1">
  <g id="patch_1">
   <path d="M 0 399.639687 
L 609.733594 399.639687 
L 609.733594 0 
L 0 0 
z
" style="fill: #ffffff"/>
  </g>
  <g id="axes_1">
   <g id="patch_2">
    <path d="M 44.533594 361.438125 
L 602.533594 361.438125 
L 602.533594 28.798125 
L 44.533594 28.798125 
z
" style="fill: #ffffff"/>
   </g>
   <g id="matplotlib.axis_1">
    <g id="xtick_1">
     <g id="line2d_1">
      <path d="M 44.533594 361.438125 
L 44.533594 28.798125 
" clip-path="url(#pa8e9d5d827)" style="fill: none; stroke: #e0e0e0; stroke-opacity: 0.5; stroke-width: 0.8; stroke-linecap: square"/>
     </g>
     <g id="line2d_2">
      <defs>
       <path id="m3d27035b55" d="M 0 0 
L 0 3.5 
" style="stroke: #000000; stroke-width: 0.8"/>
      </defs>
      <g>
       <use xlink:href="#m3d27035b55" x="44.533594" y="361.438125" style="stroke: #000000; stroke-width: 0.8"/>
      </g>
     </g>
     <g id="text_1">
      <text style="font-size: 10px; font-family: 'DejaVu Sans', 'Bitstream Vera Sans', 'Computer Modern Sans Serif', 'Lucida Grande', 'Verdana', 'Geneva', 'Lucid', 'Arial', 'Helvetica', 'Avant Garde', sans-serif; text-anchor: middle" x="44.533594" y="376.035781" transform="rotate(-0 44.533594 376.035781)">16</text>
     </g>
    </g>
    <g id="xtick_2">
     <g id="line2d_3">
      <path d="M 97.540732 361.438125 
L 97.540732 28.798125 
" clip-path="url(#pa8e9d5d827)" style="fill: none; stroke: #e0e0e0; stroke-opacity: 0.5; stroke-width: 0.8; stroke-linecap: square"/>
     </g>
     <g id="line2d_4">
      <g>
       <use xlink:href="#m3d27035b55" x="97.540732" y="361.438125" style="stroke: #000000; stroke-width: 0.8"/>
      </g>
     </g>
     <g id="text_2">
      <text style="font-size: 10px; font-family: 'DejaVu Sans', 'Bitstream Vera Sans', 'Computer Modern Sans Serif', 'Lucida Grande', 'Verdana', 'Geneva', 'Lucid', 'Arial', 'Helvetica', 'Avant Garde', sans-serif; text-anchor: middle" x="97.540732" y="376.035781" transform="rotate(-0 97.540732 376.035781)">31,5</text>
     </g>
    </g>
    <g id="xtick_3">
     <g id="line2d_5">
      <path d="M 151.780196 361.438125 
L 151.780196 28.798125 
" clip-path="url(#pa8e9d5d827)" style="fill: none; stroke: #e0e0e0; stroke-opacity: 0.5; stroke-width: 0.8; stroke-linecap: square"/>
     </g>
     <g id="line2d_6">
      <g>
       <use xlink:href="#m3d27035b55" x="151.780196" y="361.438125" style="stroke: #000000; stroke-width: 0.8"/>
      </g>
     </g>
     <g id="text_3">
      <text style="font-size: 10px; font-family: 'DejaVu Sans', 'Bitstream Vera Sans', 'Computer Modern Sans Serif', 'Lucida Grande', 'Verdana', 'Geneva', 'Lucid', 'Arial', 'Helvetica', 'Avant Garde', sans-serif; text-anchor: middle" x="151.780196" y="376.035781" transform="rotate(-0 151.780196 376.035781)">63</text>
     </g>
    </g>
    <g id="xtick_4">
     <g id="line2d_7">
      <path d="M 205.396142 361.438125 
L 205.396142 28.798125 
" clip-path="url(#pa8e9d5d827)" style="fill: none; stroke: #e0e0e0; stroke-opacity: 0.5; stroke-width: 0.8; stroke-linecap: square"/>
     </g>
     <g id="line2d_8">
      <g>
       <use xlink:href="#m3d27035b55" x="205.396142" y="361.438125" style="stroke: #000000; stroke-width: 0.8"/>
      </g>
     </g>
     <g id="text_4">
      <text style="font-size: 10px; font-family: 'DejaVu Sans', 'Bitstream Vera Sans', 'Computer Modern Sans Serif', 'Lucida Grande', 'Verdana', 'Geneva', 'Lucid', 'Arial', 'Helvetica', 'Avant Garde', sans-serif; text-anchor: middle" x="205.396142" y="376.035781" transform="rotate(-0 205.396142 376.035781)">125</text>
     </g>
    </g>
    <g id="xtick_5">
     <g id="line2d_9">
      <path d="M 259.635606 361.438125 
L 259.635606 28.798125 
" clip-path="url(#pa8e9d5d827)" style="fill: none; stroke: #e0e0e0; stroke-opacity: 0.5; stroke-width: 0.8; stroke-linecap: square"/>
     </g>
     <g id="line2d_10">
      <g>
       <use xlink:href="#m3d27035b55" x="259.635606" y="361.438125" style="stroke: #000000; stroke-width: 0.8"/>
      </g>
     </g>
     <g id="text_5">
      <text style="font-size: 10px; font-family: 'DejaVu Sans', 'Bitstream Vera Sans', 'Computer Modern Sans Serif', 'Lucida Grande', 'Verdana', 'Geneva', 'Lucid', 'Arial', 'Helvetica', 'Avant Garde', sans-serif; text-anchor: middle" x="259.635606" y="376.035781" transform="rotate(-0 259.635606 376.035781)">250</text>
     </g>
    </g>
    <g id="xtick_6">
     <g id="line2d_11">
      <path d="M 313.875069 361.438125 
L 313.875069 28.798125 
" clip-path="url(#pa8e9d5d827)" style="fill: none; stroke: #e0e0e0; stroke-opacity: 0.5; stroke-width: 0.8; stroke-linecap: square"/>
     </g>
     <g id="line2d_12">
      <g>
       <use xlink:href="#m3d27035b55" x="313.875069" y="361.438125" style="stroke: #000000; stroke-width: 0.8"/>
      </g>
     </g>
     <g id="text_6">
      <text style="font-size: 10px; font-family: 'DejaVu Sans', 'Bitstream Vera Sans', 'Computer Modern Sans Serif', 'Lucida Grande', 'Verdana', 'Geneva', 'Lucid', 'Arial', 'Helvetica', 'Avant Garde', sans-serif; text-anchor: middle" x="313.875069" y="376.035781" transform="rotate(-0 313.875069 376.035781)">500</text>
     </g>
    </g>
    <g id="xtick_7">
     <g id="line2d_13">
      <path d="M 368.114533 361.438125 
L 368.114533 28.798125 
" clip-path="url(#pa8e9d5d827)" style="fill: none; stroke: #e0e0e0; stroke-opacity: 0.5; stroke-width: 0.8; stroke-linecap: square"/>
     </g>
     <g id="line2d_14">
      <g>
       <use xlink:href="#m3d27035b55" x="368.114533" y="361.438125" style="stroke: #000000; stroke-width: 0.8"/>
      </g>
     </g>
     <g id="text_7">
      <text style="font-size: 10px; font-family: 'DejaVu Sans', 'Bitstream Vera Sans', 'Computer Modern Sans Serif', 'Lucida Grande', 'Verdana', 'Geneva', 'Lucid', 'Arial', 'Helvetica', 'Avant Garde', sans-serif; text-anchor: middle" x="368.114533" y="376.036563" transform="rotate(-0 368.114533 376.036563)">1k</text>
     </g>
    </g>
    <g id="xtick_8">
     <g id="line2d_15">
      <path d="M 422.353996 361.438125 
L 422.353996 28.798125 
" clip-path="url(#pa8e9d5d827)" style="fill: none; stroke: #e0e0e0; stroke-opacity: 0.5; stroke-width: 0.8; stroke-linecap: square"/>
     </g>
     <g id="line2d_16">
      <g>
       <use xlink:href="#m3d27035b55" x="422.353996" y="361.438125" style="stroke: #000000; stroke-width: 0.8"/>
      </g>
     </g>
     <g id="text_8">
      <text style="font-size: 10px; font-family: 'DejaVu Sans', 'Bitstream Vera Sans', 'Computer Modern Sans Serif', 'Lucida Grande', 'Verdana', 'Geneva', 'Lucid', 'Arial', 'Helvetica', 'Avant Garde', sans-serif; text-anchor: middle" x="422.353996" y="376.036563" transform="rotate(-0 422.353996 376.036563)">2k</text>
     </g>
    </g>
    <g id="xtick_9">
     <g id="line2d_17">
      <path d="M 476.59346 361.438125 
L 476.59346 28.798125 
" clip-path="url(#pa8e9d5d827)" style="fill: none; stroke: #e0e0e0; stroke-opacity: 0.5; stroke-width: 0.8; stroke-linecap: square"/>
     </g>
     <g id="line2d_18">
      <g>
       <use xlink:href="#m3d27035b55" x="476.59346" y="361.438125" style="stroke: #000000; stroke-width: 0.8"/>
      </g>
     </g>
     <g id="text_9">
      <text style="font-size: 10px; font-family: 'DejaVu Sans', 'Bitstream Vera Sans', 'Computer Modern Sans Serif', 'Lucida Grande', 'Verdana', 'Geneva', 'Lucid', 'Arial', 'Helvetica', 'Avant Garde', sans-serif; text-anchor: middle" x="476.59346" y="376.036563" transform="rotate(-0 476.59346 376.036563)">4k</text>
     </g>
    </g>
    <g id="xtick_10">
     <g id="line2d_19">
      <path d="M 530.832923 361.438125 
L 530.832923 28.798125 
" clip-path="url(#pa8e9d5d827)" style="fill: none; stroke: #e0e0e0; stroke-opacity: 0.5; stroke-width: 0.8; stroke-linecap: square"/>
     </g>
     <g id="line2d_20">
      <g>
       <use xlink:href="#m3d27035b55" x="530.832923" y="361.438125" style="stroke: #000000; stroke-width: 0.8"/>
      </g>
     </g>
     <g id="text_10">
      <text style="font-size: 10px; font-family: 'DejaVu Sans', 'Bitstream Vera Sans', 'Computer Modern Sans Serif', 'Lucida Grande', 'Verdana', 'Geneva', 'Lucid', 'Arial', 'Helvetica', 'Avant Garde', sans-serif; text-anchor: middle" x="530.832923" y="376.036563" transform="rotate(-0 530.832923 376.036563)">8k</text>
     </g>
    </g>
    <g id="xtick_11">
     <g id="line2d_21">
      <path d="M 585.072387 361.438125 
L 585.072387 28.798125 
" clip-path="url(#pa8e9d5d827)" style="fill: none; stroke: #e0e0e0; stroke-opacity: 0.5; stroke-width: 0.8; stroke-linecap: square"/>
     </g>
     <g id="line2d_22">
      <g>
       <use xlink:href="#m3d27035b55" x="585.072387" y="361.438125" style="stroke: #000000; stroke-width: 0.8"/>
      </g>
     </g>
     <g id="text_11">
      <text style="font-size: 10px; font-family: 'DejaVu Sans', 'Bitstream Vera Sans', 'Computer Modern Sans Serif', 'Lucida Grande', 'Verdana', 'Geneva', 'Lucid', 'Arial', 'Helvetica', 'Avant Garde', sans-serif; text-anchor: middle" x="585.072387" y="376.036563" transform="rotate(-0 585.072387 376.036563)">16k</text>
     </g>
    </g>
    <g id="xtick_12">
     <g id="line2d_23">
      <path d="M 61.994801 361.438125 
L 61.994801 28.798125 
" clip-path="url(#pa8e9d5d827)" style="fill: none; stroke-dasharray: 0.8,1.32; stroke-dashoffset: 0; stroke: #e0e0e0; stroke-opacity: 0.4; stroke-width: 0.8"/>
     </g>
     <g id="line2d_24">
      <defs>
       <path id="md1b22fa4b4" d="M 0 0 
L 0 2 
" style="stroke: #000000; stroke-width: 0.6"/>
      </defs>
      <g>
       <use xlink:href="#md1b22fa4b4" x="61.994801" y="361.438125" style="stroke: #000000; stroke-width: 0.6"/>
      </g>
     </g>
    </g>
    <g id="xtick_13">
     <g id="line2d_25">
      <path d="M 93.722853 361.438125 
L 93.722853 28.798125 
" clip-path="url(#pa8e9d5d827)" style="fill: none; stroke-dasharray: 0.8,1.32; stroke-dashoffset: 0; stroke: #e0e0e0; stroke-opacity: 0.4; stroke-width: 0.8"/>
     </g>
     <g id="line2d_26">
      <g>
       <use xlink:href="#md1b22fa4b4" x="93.722853" y="361.438125" style="stroke: #000000; stroke-width: 0.6"/>
      </g>
     </g>
    </g>
    <g id="xtick_14">
     <g id="line2d_27">
      <path d="M 116.234264 361.438125 
L 116.234264 28.798125 
" clip-path="url(#pa8e9d5d827)" style="fill: none; stroke-dasharray: 0.8,1.32; stroke-dashoffset: 0; stroke: #e0e0e0; stroke-opacity: 0.4; stroke-width: 0.8"/>
     </g>
     <g id="line2d_28">
      <g>
       <use xlink:href="#md1b22fa4b4" x="116.234264" y="361.438125" style="stroke: #000000; stroke-width: 0.6"/>
      </g>
     </g>
    </g>
    <g id="xtick_15">
     <g id="line2d_29">
      <path d="M 133.695472 361.438125 
L 133.695472 28.798125 
" clip-path="url(#pa8e9d5d827)" style="fill: none; stroke-dasharray: 0.8,1.32; stroke-dashoffset: 0; stroke: #e0e0e0; stroke-opacity: 0.4; stroke-width: 0.8"/>
     </g>
     <g id="line2d_30">
      <g>
       <use xlink:href="#md1b22fa4b4" x="133.695472" y="361.438125" style="stroke: #000000; stroke-width: 0.6"/>
      </g>
     </g>
    </g>
    <g id="xtick_16">
     <g id="line2d_31">
      <path d="M 147.962317 361.438125 
L 147.962317 28.798125 
" clip-path="url(#pa8e9d5d827)" style="fill: none; stroke-dasharray: 0.8,1.32; stroke-dashoffset: 0; stroke: #e0e0e0; stroke-opacity: 0.4; stroke-width: 0.8"/>
     </g>
     <g id="line2d_32">
      <g>
       <use xlink:href="#md1b22fa4b4" x="147.962317" y="361.438125" style="stroke: #000000; stroke-width: 0.6"/>
      </g>
     </g>
    </g>
    <g id="xtick_17">
     <g id="line2d_33">
      <path d="M 160.024762 361.438125 
L 160.024762 28.798125 
" clip-path="url(#pa8e9d5d827)" style="fill: none; stroke-dasharray: 0.8,1.32; stroke-dashoffset: 0; stroke: #e0e0e0; stroke-opacity: 0.4; stroke-width: 0.8"/>
     </g>
     <g id="line2d_34">
      <g>
       <use xlink:href="#md1b22fa4b4" x="160.024762" y="361.438125" style="stroke: #000000; stroke-width: 0.6"/>
      </g>
     </g>
    </g>
    <g id="xtick_18">
     <g id="line2d_35">
      <path d="M 170.473728 361.438125 
L 170.473728 28.798125 
" clip-path="url(#pa8e9d5d827)" style="fill: none; stroke-dasharray: 0.8,1.32; stroke-dashoffset: 0; stroke: #e0e0e0; stroke-opacity: 0.4; stroke-width: 0.8"/>
     </g>
     <g id="line2d_36">
      <g>
       <use xlink:href="#md1b22fa4b4" x="170.473728" y="361.438125" style="stroke: #000000; stroke-width: 0.6"/>
      </g>
     </g>
    </g>
    <g id="xtick_19">
     <g id="line2d_37">
      <path d="M 179.690369 361.438125 
L 179.690369 28.798125 
" clip-path="url(#pa8e9d5d827)" style="fill: none; stroke-dasharray: 0.8,1.32; stroke-dashoffset: 0; stroke: #e0e0e0; stroke-opacity: 0.4; stroke-width: 0.8"/>
     </g>
     <g id="line2d_38">
      <g>
       <use xlink:href="#md1b22fa4b4" x="179.690369" y="361.438125" style="stroke: #000000; stroke-width: 0.6"/>
      </g>
     </g>
    </g>
    <g id="xtick_20">
     <g id="line2d_39">
      <path d="M 242.174399 361.438125 
L 242.174399 28.798125 
" clip-path="url(#pa8e9d5d827)" style="fill: none; stroke-dasharray: 0.8,1.32; stroke-dashoffset: 0; stroke: #e0e0e0; stroke-opacity: 0.4; stroke-width: 0.8"/>
     </g>
     <g id="line2d_40">
      <g>
       <use xlink:href="#md1b22fa4b4" x="242.174399" y="361.438125" style="stroke: #000000; stroke-width: 0.6"/>
      </g>
     </g>
    </g>
    <g id="xtick_21">
     <g id="line2d_41">
      <path d="M 273.902451 361.438125 
L 273.902451 28.798125 
" clip-path="url(#pa8e9d5d827)" style="fill: none; stroke-dasharray: 0.8,1.32; stroke-dashoffset: 0; stroke: #e0e0e0; stroke-opacity: 0.4; stroke-width: 0.8"/>
     </g>
     <g id="line2d_42">
      <g>
       <use xlink:href="#md1b22fa4b4" x="273.902451" y="361.438125" style="stroke: #000000; stroke-width: 0.6"/>
      </g>
     </g>
    </g>
    <g id="xtick_22">
     <g id="line2d_43">
      <path d="M 296.413862 361.438125 
L 296.413862 28.798125 
" clip-path="url(#pa8e9d5d827)" style="fill: none; stroke-dasharray: 0.8,1.32; stroke-dashoffset: 0; stroke: #e0e0e0; stroke-opacity: 0.4; stroke-width: 0.8"/>
     </g>
     <g id="line2d_44">
      <g>
       <use xlink:href="#md1b22fa4b4" x="296.413862" y="361.438125" style="stroke: #000000; stroke-width: 0.6"/>
      </g>
     </g>
    </g>
    <g id="xtick_23">
     <g id="line2d_45">
      <path d="M 328.141914 361.438125 
L 328.141914 28.798125 
" clip-path="url(#pa8e9d5d827)" style="fill: none; stroke-dasharray: 0.8,1.32; stroke-dashoffset: 0; stroke: #e0e0e0; stroke-opacity: 0.4; stroke-width: 0.8"/>
     </g>
     <g id="line2d_46">
      <g>
       <use xlink:href="#md1b22fa4b4" x="328.141914" y="361.438125" style="stroke: #000000; stroke-width: 0.6"/>
      </g>
     </g>
    </g>
    <g id="xtick_24">
     <g id="line2d_47">
      <path d="M 340.20436 361.438125 
L 340.20436 28.798125 
" clip-path="url(#pa8e9d5d827)" style="fill: none; stroke-dasharray: 0.8,1.32; stroke-dashoffset: 0; stroke: #e0e0e0; stroke-opacity: 0.4; stroke-width: 0.8"/>
     </g>
     <g id="line2d_48">
      <g>
       <use xlink:href="#md1b22fa4b4" x="340.20436" y="361.438125" style="stroke: #000000; stroke-width: 0.6"/>
      </g>
     </g>
    </g>
    <g id="xtick_25">
     <g id="line2d_49">
      <path d="M 350.653325 361.438125 
L 350.653325 28.798125 
" clip-path="url(#pa8e9d5d827)" style="fill: none; stroke-dasharray: 0.8,1.32; stroke-dashoffset: 0; stroke: #e0e0e0; stroke-opacity: 0.4; stroke-width: 0.8"/>
     </g>
     <g id="line2d_50">
      <g>
       <use xlink:href="#md1b22fa4b4" x="350.653325" y="361.438125" style="stroke: #000000; stroke-width: 0.6"/>
      </g>
     </g>
    </g>
    <g id="xtick_26">
     <g id="line2d_51">
      <path d="M 359.869966 361.438125 
L 359.869966 28.798125 
" clip-path="url(#pa8e9d5d827)" style="fill: none; stroke-dasharray: 0.8,1.32; stroke-dashoffset: 0; stroke: #e0e0e0; stroke-opacity: 0.4; stroke-width: 0.8"/>
     </g>
     <g id="line2d_52">
      <g>
       <use xlink:href="#md1b22fa4b4" x="359.869966" y="361.438125" style="stroke: #000000; stroke-width: 0.6"/>
      </g>
     </g>
    </g>
    <g id="xtick_27">
     <g id="line2d_53">
      <path d="M 454.082048 361.438125 
L 454.082048 28.798125 
" clip-path="url(#pa8e9d5d827)" style="fill: none; stroke-dasharray: 0.8,1.32; stroke-dashoffset: 0; stroke: #e0e0e0; stroke-opacity: 0.4; stroke-width: 0.8"/>
     </g>
     <g id="line2d_54">
      <g>
       <use xlink:href="#md1b22fa4b4" x="454.082048" y="361.438125" style="stroke: #000000; stroke-width: 0.6"/>
      </g>
     </g>
    </g>
    <g id="xtick_28">
     <g id="line2d_55">
      <path d="M 494.054667 361.438125 
L 494.054667 28.798125 
" clip-path="url(#pa8e9d5d827)" style="fill: none; stroke-dasharray: 0.8,1.32; stroke-dashoffset: 0; stroke: #e0e0e0; stroke-opacity: 0.4; stroke-width: 0.8"/>
     </g>
     <g id="line2d_56">
      <g>
       <use xlink:href="#md1b22fa4b4" x="494.054667" y="361.438125" style="stroke: #000000; stroke-width: 0.6"/>
      </g>
     </g>
    </g>
    <g id="xtick_29">
     <g id="line2d_57">
      <path d="M 508.321512 361.438125 
L 508.321512 28.798125 
" clip-path="url(#pa8e9d5d827)" style="fill: none; stroke-dasharray: 0.8,1.32; stroke-dashoffset: 0; stroke: #e0e0e0; stroke-opacity: 0.4; stroke-width: 0.8"/>
     </g>
     <g id="line2d_58">
      <g>
       <use xlink:href="#md1b22fa4b4" x="508.321512" y="361.438125" style="stroke: #000000; stroke-width: 0.6"/>
      </g>
     </g>
    </g>
    <g id="xtick_30">
     <g id="line2d_59">
      <path d="M 520.383957 361.438125 
L 520.383957 28.798125 
" clip-path="url(#pa8e9d5d827)" style="fill: none; stroke-dasharray: 0.8,1.32; stroke-dashoffset: 0; stroke: #e0e0e0; stroke-opacity: 0.4; stroke-width: 0.8"/>
     </g>
     <g id="line2d_60">
      <g>
       <use xlink:href="#md1b22fa4b4" x="520.383957" y="361.438125" style="stroke: #000000; stroke-width: 0.6"/>
      </g>
     </g>
    </g>
    <g id="xtick_31">
     <g id="line2d_61">
      <path d="M 540.049564 361.438125 
L 540.049564 28.798125 
" clip-path="url(#pa8e9d5d827)" style="fill: none; stroke-dasharray: 0.8,1.32; stroke-dashoffset: 0; stroke: #e0e0e0; stroke-opacity: 0.4; stroke-width: 0.8"/>
     </g>
     <g id="line2d_62">
      <g>
       <use xlink:href="#md1b22fa4b4" x="540.049564" y="361.438125" style="stroke: #000000; stroke-width: 0.6"/>
      </g>
     </g>
    </g>
    <g id="xtick_32">
     <g id="line2d_63">
      <path d="M 602.533594 361.438125 
L 602.533594 28.798125 
" clip-path="url(#pa8e9d5d827)" style="fill: none; stroke-dasharray: 0.8,1.32; stroke-dashoffset: 0; stroke: #e0e0e0; stroke-opacity: 0.4; stroke-width: 0.8"/>
     </g>
     <g id="line2d_64">
      <g>
       <use xlink:href="#md1b22fa4b4" x="602.533594" y="361.438125" style="stroke: #000000; stroke-width: 0.6"/>
      </g>
     </g>
    </g>
    <g id="text_12">
     <text style="font-size: 10px; font-family: 'DejaVu Sans', 'Bitstream Vera Sans', 'Computer Modern Sans Serif', 'Lucida Grande', 'Verdana', 'Geneva', 'Lucid', 'Arial', 'Helvetica', 'Avant Garde', sans-serif; text-anchor: middle" x="323.533594" y="390.037344" transform="rotate(-0 323.533594 390.037344)">Frecuencia [Hz]</text>
    </g>
   </g>
   <g id="matplotlib.axis_2">
    <g id="ytick_1">
     <g id="line2d_65">
      <path d="M 44.533594 342.958125 
L 602.533594 342.958125 
" clip-path="url(#pa8e9d5d827)" style="fill: none; stroke: #e0e0e0; stroke-opacity: 0.5; stroke-width: 0.8; stroke-linecap: square"/>
     </g>
     <g id="line2d_66">
      <defs>
       <path id="mef640d9f3a" d="M 0 0 
L -3.5 0 
" style="stroke: #000000; stroke-width: 0.8"/>
      </defs>
      <g>
       <use xlink:href="#mef640d9f3a" x="44.533594" y="342.958125" style="stroke: #000000; stroke-width: 0.8"/>
      </g>
     </g>
     <g id="text_13">
      <text style="font-size: 10px; font-family: 'DejaVu Sans', 'Bitstream Vera Sans', 'Computer Modern Sans Serif', 'Lucida Grande', 'Verdana', 'Geneva', 'Lucid', 'Arial', 'Helvetica', 'Avant Garde', sans-serif; text-anchor: end" x="37.533594" y="346.756953" transform="rotate(-0 37.533594 346.756953)">-25</text>
     </g>
    </g>
    <g id="ytick_2">
     <g id="line2d_67">
      <path d="M 44.533594 296.758125 
L 602.533594 296.758125 
" clip-path="url(#pa8e9d5d827)" style="fill: none; stroke: #e0e0e0; stroke-opacity: 0.5; stroke-width: 0.8; stroke-linecap: square"/>
     </g>
     <g id="line2d_68">
      <g>
       <use xlink:href="#mef640d9f3a" x="44.533594" y="296.758125" style="stroke: #000000; stroke-width: 0.8"/>
      </g>
     </g>
     <g id="text_14">
      <text style="font-size: 10px; font-family: 'DejaVu Sans', 'Bitstream Vera Sans', 'Computer Modern Sans Serif', 'Lucida Grande', 'Verdana', 'Geneva', 'Lucid', 'Arial', 'Helvetica', 'Avant Garde', sans-serif; text-anchor: end" x="37.533594" y="300.556953" transform="rotate(-0 37.533594 300.556953)">-20</text>
     </g>
    </g>
    <g id="ytick_3">
     <g id="line2d_69">
      <path d="M 44.533594 250.558125 
L 602.533594 250.558125 
" clip-path="url(#pa8e9d5d827)" style="fill: none; stroke: #e0e0e0; stroke-opacity: 0.5; stroke-width: 0.8; stroke-linecap: square"/>
     </g>
     <g id="line2d_70">
      <g>
       <use xlink:href="#mef640d9f3a" x="44.533594" y="250.558125" style="stroke: #000000; stroke-width: 0.8"/>
      </g>
     </g>
     <g id="text_15">
      <text style="font-size: 10px; font-family: 'DejaVu Sans', 'Bitstream Vera Sans', 'Computer Modern Sans Serif', 'Lucida Grande', 'Verdana', 'Geneva', 'Lucid', 'Arial', 'Helvetica', 'Avant Garde', sans-serif; text-anchor: end" x="37.533594" y="254.356953" transform="rotate(-0 37.533594 254.356953)">-15</text>
     </g>
    </g>
    <g id="ytick_4">
     <g id="line2d_71">
      <path d="M 44.533594 204.358125 
L 602.533594 204.358125 
" clip-path="url(#pa8e9d5d827)" style="fill: none; stroke: #e0e0e0; stroke-opacity: 0.5; stroke-width: 0.8; stroke-linecap: square"/>
     </g>
     <g id="line2d_72">
      <g>
       <use xlink:href="#mef640d9f3a" x="44.533594" y="204.358125" style="stroke: #000000; stroke-width: 0.8"/>
      </g>
     </g>
     <g id="text_16">
      <text style="font-size: 10px; font-family: 'DejaVu Sans', 'Bitstream Vera Sans', 'Computer Modern Sans Serif', 'Lucida Grande', 'Verdana', 'Geneva', 'Lucid', 'Arial', 'Helvetica', 'Avant Garde', sans-serif; text-anchor: end" x="37.533594" y="208.156953" transform="rotate(-0 37.533594 208.156953)">-10</text>
     </g>
    </g>
    <g id="ytick_5">
     <g id="line2d_73">
      <path d="M 44.533594 158.158125 
L 602.533594 158.158125 
" clip-path="url(#pa8e9d5d827)" style="fill: none; stroke: #e0e0e0; stroke-opacity: 0.5; stroke-width: 0.8; stroke-linecap: square"/>
     </g>
     <g id="line2d_74">
      <g>
       <use xlink:href="#mef640d9f3a" x="44.533594" y="158.158125" style="stroke: #000000; stroke-width: 0.8"/>
      </g>
     </g>
     <g id="text_17">
      <text style="font-size: 10px; font-family: 'DejaVu Sans', 'Bitstream Vera Sans', 'Computer Modern Sans Serif', 'Lucida Grande', 'Verdana', 'Geneva', 'Lucid', 'Arial', 'Helvetica', 'Avant Garde', sans-serif; text-anchor: end" x="37.533594" y="161.956953" transform="rotate(-0 37.533594 161.956953)">-5</text>
     </g>
    </g>
    <g id="ytick_6">
     <g id="line2d_75">
      <path d="M 44.533594 111.958125 
L 602.533594 111.958125 
" clip-path="url(#pa8e9d5d827)" style="fill: none; stroke: #e0e0e0; stroke-opacity: 0.5; stroke-width: 0.8; stroke-linecap: square"/>
     </g>
     <g id="line2d_76">
      <g>
       <use xlink:href="#mef640d9f3a" x="44.533594" y="111.958125" style="stroke: #000000; stroke-width: 0.8"/>
      </g>
     </g>
     <g id="text_18">
      <text style="font-size: 10px; font-family: 'DejaVu Sans', 'Bitstream Vera Sans', 'Computer Modern Sans Serif', 'Lucida Grande', 'Verdana', 'Geneva', 'Lucid', 'Arial', 'Helvetica', 'Avant Garde', sans-serif; text-anchor: end" x="37.533594" y="115.756953" transform="rotate(-0 37.533594 115.756953)">0</text>
     </g>
    </g>
    <g id="ytick_7">
     <g id="line2d_77">
      <path d="M 44.533594 65.758125 
L 602.533594 65.758125 
" clip-path="url(#pa8e9d5d827)" style="fill: none; stroke: #e0e0e0; stroke-opacity: 0.5; stroke-width: 0.8; stroke-linecap: square"/>
     </g>
     <g id="line2d_78">
      <g>
       <use xlink:href="#mef640d9f3a" x="44.533594" y="65.758125" style="stroke: #000000; stroke-width: 0.8"/>
      </g>
     </g>
     <g id="text_19">
      <text style="font-size: 10px; font-family: 'DejaVu Sans', 'Bitstream Vera Sans', 'Computer Modern Sans Serif', 'Lucida Grande', 'Verdana', 'Geneva', 'Lucid', 'Arial', 'Helvetica', 'Avant Garde', sans-serif; text-anchor: end" x="37.533594" y="69.556953" transform="rotate(-0 37.533594 69.556953)">5</text>
     </g>
    </g>
    <g id="text_20">
     <text style="font-size: 10px; font-family: 'DejaVu Sans', 'Bitstream Vera Sans', 'Computer Modern Sans Serif', 'Lucida Grande', 'Verdana', 'Geneva', 'Lucid', 'Arial', 'Helvetica', 'Avant Garde', sans-serif; text-anchor: middle" x="14.798438" y="195.118125" transform="rotate(-90 14.798438 195.118125)">Magnitud [dB]</text>
    </g>
   </g>
   <g id="line2d_79">
    <path d="M 61.994801 111.945917 
L 160.754698 111.804811 
L 199.308026 111.54271 
L 223.865968 111.167485 
L 241.822313 110.681951 
L 255.8177 110.090414 
L 267.172447 109.396156 
L 276.678747 108.598364 
L 284.864728 107.689503 
L 291.730389 106.713209 
L 297.803859 105.636014 
L 303.349201 104.428243 
L 308.366415 103.103393 
L 312.855501 101.686796 
L 316.816459 100.216934 
L 320.513354 98.623531 
L 323.946185 96.919577 
L 327.379015 94.965302 
L 330.547782 92.907433 
L 333.716549 90.574706 
L 336.621252 88.169766 
L 339.525954 85.489889 
L 342.430657 82.523405 
L 345.599424 78.963797 
L 349.032255 74.769509 
L 359.59481 61.558484 
L 361.443258 59.732449 
L 363.027641 58.438468 
L 364.612024 57.447358 
L 365.932344 56.88302 
L 367.252663 56.575405 
L 368.572983 56.534347 
L 369.893302 56.761243 
L 371.213622 57.248924 
L 372.533941 57.982292 
L 374.118325 59.155636 
L 375.702708 60.604547 
L 377.815219 62.874659 
L 380.455858 66.080637 
L 392.07467 80.676527 
L 395.243436 84.0925 
L 398.412203 87.165364 
L 401.316906 89.687111 
L 404.485673 92.136477 
L 407.654439 94.29867 
L 410.823206 96.204082 
L 414.256037 98.013004 
L 417.952931 99.703316 
L 421.91389 101.260903 
L 426.138912 102.678749 
L 430.627998 103.955703 
L 435.645212 105.152832 
L 441.190554 106.247121 
L 447.528087 107.264024 
L 454.657813 108.176078 
L 462.843793 108.99296 
L 472.350094 109.71266 
L 483.704841 110.341148 
L 497.436164 110.870021 
L 514.600317 111.299803 
L 537.309812 111.631905 
L 569.261543 111.858546 
L 602.533594 111.948686 
L 602.533594 111.948686 
" clip-path="url(#pa8e9d5d827)" style="fill: none; stroke: #1f77b4; stroke-width: 1.5; stroke-linecap: square"/>
   </g>
   <g id="line2d_80">
    <path d="M 61.994801 56.557382 
L 95.530916 56.7353 
L 112.695069 57.037058 
L 124.31388 57.449824 
L 133.556116 57.995284 
L 140.949905 58.643977 
L 147.551503 59.445887 
L 153.360909 60.378188 
L 158.642186 61.454145 
L 163.395337 62.643098 
L 167.884423 63.985095 
L 172.373509 65.562119 
L 176.598531 67.27573 
L 180.823554 69.218676 
L 185.31264 71.531519 
L 190.06579 74.241077 
L 195.347068 77.519525 
L 202.212729 82.072471 
L 216.472179 91.613183 
L 221.753457 94.841897 
L 226.506607 97.496092 
L 230.995694 99.751348 
L 235.48478 101.748774 
L 239.973866 103.488729 
L 244.462952 104.982212 
L 248.952038 106.247705 
L 253.705189 107.364674 
L 258.986466 108.372047 
L 264.795872 109.242247 
L 271.133406 109.963061 
L 278.527195 110.573158 
L 287.241303 111.061887 
L 298.067923 111.438825 
L 312.591437 111.709656 
L 334.772804 111.877973 
L 379.663666 111.950077 
L 602.533594 111.958125 
L 602.533594 111.958125 
" clip-path="url(#pa8e9d5d827)" style="fill: none; stroke: #2ca02c; stroke-width: 1.5; stroke-linecap: square"/>
   </g>
   <g id="line2d_81">
    <path d="M 61.994801 111.958125 
L 355.105724 112.068087 
L 377.551155 112.303884 
L 391.546542 112.662117 
L 401.845034 113.141599 
L 410.031014 113.739384 
L 416.896676 114.457445 
L 422.970145 115.315325 
L 428.251423 116.277528 
L 433.268637 117.418348 
L 437.757723 118.65794 
L 442.24681 120.131479 
L 446.471832 121.752298 
L 450.696854 123.613624 
L 454.921877 125.720618 
L 459.410963 128.222046 
L 464.164113 131.140588 
L 469.445391 134.650473 
L 477.103244 140.042084 
L 487.137672 147.079656 
L 492.41895 150.512472 
L 497.1721 153.335465 
L 501.397122 155.594568 
L 505.622144 157.601127 
L 509.847167 159.352389 
L 514.072189 160.856506 
L 518.297211 162.129709 
L 522.786297 163.253499 
L 527.539448 164.217784 
L 532.820725 165.058796 
L 538.630131 165.755941 
L 545.231729 166.323344 
L 553.153645 166.77423 
L 562.92401 167.09983 
L 576.391268 167.308301 
L 598.308571 167.393838 
L 602.533594 167.396532 
L 602.533594 167.396532 
" clip-path="url(#pa8e9d5d827)" style="fill: none; stroke: #9467bd; stroke-width: 1.5; stroke-linecap: square"/>
   </g>
   <g id="line2d_82">
    <path d="M 61.994801 111.958125 
L 444.623385 112.068464 
L 466.540688 112.306008 
L 479.743883 112.6585 
L 489.250183 113.122691 
L 496.643972 113.692707 
L 502.717441 114.368818 
L 507.998719 115.17157 
L 512.487806 116.063669 
L 516.712828 117.130021 
L 520.409722 118.287963 
L 523.842553 119.592141 
L 527.01132 121.028925 
L 529.916023 122.575463 
L 532.820725 124.374819 
L 535.461364 126.259693 
L 538.102003 128.411159 
L 540.742642 130.859116 
L 543.383281 133.634441 
L 546.02392 136.768446 
L 548.400495 139.921474 
L 550.77707 143.412462 
L 553.417709 147.713699 
L 556.058348 152.486447 
L 558.698987 157.756981 
L 561.339626 163.550212 
L 563.980265 169.890353 
L 566.620904 176.802027 
L 569.261543 184.311844 
L 571.902182 192.450463 
L 574.542821 201.255176 
L 577.18346 210.773091 
L 579.824099 221.065092 
L 582.464738 232.210894 
L 585.105377 244.315733 
L 587.746016 257.519614 
L 590.122591 270.496972 
L 592.499166 284.699495 
L 594.875741 300.373358 
L 596.988252 315.810967 
L 599.100763 333.002358 
L 600.94921 349.837414 
L 602.533594 365.932803 
L 602.533594 365.932803 
" clip-path="url(#pa8e9d5d827)" style="fill: none; stroke-dasharray: 5.55,2.4; stroke-dashoffset: 0; stroke: #d62728; stroke-width: 1.5"/>
   </g>
   <g id="line2d_83">
    <path d="M 61.994801 260.05159 
L 74.405804 235.470747 
L 83.912104 217.110615 
L 91.569957 202.777527 
L 98.171554 190.877096 
L 103.98096 180.856298 
L 109.262238 172.196745 
L 114.015388 164.834014 
L 118.240411 158.677369 
L 122.201369 153.269527 
L 126.162327 148.238929 
L 129.859222 143.900536 
L 133.556116 139.916481 
L 136.988947 136.537347 
L 140.421778 133.46457 
L 143.854608 130.691407 
L 147.287439 128.20694 
L 150.72027 125.996684 
L 154.1531 124.043355 
L 157.849995 122.204993 
L 161.546889 120.616773 
L 165.507848 119.163219 
L 169.73287 117.861215 
L 174.221956 116.719521 
L 178.975106 115.739161 
L 184.256384 114.876209 
L 190.329854 114.117904 
L 197.195515 113.490645 
L 205.381496 112.973168 
L 215.415924 112.568931 
L 228.619119 112.270294 
L 247.895783 112.07493 
L 283.016281 111.97754 
L 415.312292 111.958147 
L 602.533594 111.958125 
L 602.533594 111.958125 
" clip-path="url(#pa8e9d5d827)" style="fill: none; stroke-dasharray: 5.55,2.4; stroke-dashoffset: 0; stroke: #8c564b; stroke-width: 1.5"/>
   </g>
   <g id="line2d_84">
    <path d="M 86.473652 400.639687 
L 126.162327 359.562905 
L 151.776525 332.752578 
L 170.789126 312.546267 
L 186.104831 295.95283 
L 198.779898 281.899029 
L 209.606518 269.569562 
L 219.112818 258.410797 
L 227.562863 248.15134 
L 235.220716 238.501838 
L 242.086377 229.496728 
L 248.423911 220.821444 
L 254.233316 212.50129 
L 259.778658 204.170138 
L 265.059936 195.822249 
L 270.07715 187.461234 
L 274.8303 179.10396 
L 279.58345 170.282752 
L 284.3366 160.981483 
L 289.617878 150.133856 
L 300.972626 126.576614 
L 303.613265 121.773064 
L 305.725776 118.408647 
L 307.310159 116.255312 
L 308.894543 114.484929 
L 310.214862 113.341718 
L 311.535182 112.52911 
L 312.591437 112.130785 
L 313.647693 111.963553 
L 314.703948 112.030208 
L 315.760204 112.329651 
L 316.816459 112.856956 
L 317.872715 113.603639 
L 319.193035 114.827593 
L 320.513354 116.348037 
L 322.097737 118.518508 
L 323.946185 121.45258 
L 326.058696 125.221217 
L 328.963399 130.902567 
L 333.452485 140.262032 
L 342.430657 159.031689 
L 347.447871 168.948873 
L 352.201021 177.853346 
L 356.954171 186.290387 
L 361.971386 194.729665 
L 366.9886 202.742164 
L 372.533941 211.165884 
L 378.343347 219.573922 
L 384.416817 227.979453 
L 391.018414 236.744329 
L 398.412203 246.184407 
L 406.598184 256.263709 
L 415.84042 267.277184 
L 426.402976 279.507353 
L 439.078043 293.831864 
L 456.242196 312.866864 
L 496.643972 357.5512 
L 509.054975 371.679307 
L 519.353467 383.734233 
L 528.067575 394.271844 
L 533.177546 400.639687 
L 533.177546 400.639687 
" clip-path="url(#pa8e9d5d827)" style="fill: none; stroke-dasharray: 9.6,2.4,1.5,2.4; stroke-dashoffset: 0; stroke: #ff7f0e; stroke-width: 1.5"/>
   </g>
   <g id="line2d_85">
    <path d="M 61.994801 111.958235 
L 325.794632 112.069367 
L 358.538555 112.289445 
L 374.382389 112.598539 
L 383.888689 112.992763 
L 390.226222 113.467141 
L 394.715308 114.011505 
L 398.148139 114.638464 
L 400.788778 115.326404 
L 402.901289 116.076393 
L 404.749736 116.948119 
L 406.33412 117.924854 
L 407.654439 118.964776 
L 408.974759 120.287775 
L 410.031014 121.621232 
L 411.08727 123.28356 
L 412.143526 125.386642 
L 413.199781 128.091413 
L 413.991973 130.653215 
L 414.784164 133.825164 
L 415.576356 137.801701 
L 416.368548 142.855745 
L 417.16074 149.378988 
L 417.952931 157.950994 
L 418.745123 169.469676 
L 419.537315 185.435067 
L 420.065442 199.852611 
L 420.59357 219.031938 
L 421.121698 246.209883 
L 421.649826 290.155616 
L 421.91389 327.585289 
L 422.176782 400.639687 
M 422.574891 400.639687 
L 422.706081 345.418061 
L 423.234209 272.492913 
L 423.762337 235.892869 
L 424.290465 211.921645 
L 425.082656 187.531117 
L 425.874848 170.923917 
L 426.66704 158.994351 
L 427.459231 150.14321 
L 428.251423 143.423548 
L 429.043615 138.227998 
L 430.09987 132.983656 
L 431.156126 129.09195 
L 432.212382 126.141591 
L 433.268637 123.861886 
L 434.324893 122.070118 
L 435.645212 120.328175 
L 436.965532 118.986393 
L 438.285851 117.93341 
L 439.870234 116.945988 
L 441.718682 116.066225 
L 443.831193 115.31065 
L 446.471832 114.618873 
L 449.640599 114.030129 
L 453.601557 113.52454 
L 458.882835 113.084505 
L 466.276624 112.711671 
L 477.103244 112.412864 
L 494.267397 112.187929 
L 525.162873 112.036325 
L 595.403869 111.961149 
L 602.533594 111.959516 
L 602.533594 111.959516 
" clip-path="url(#pa8e9d5d827)" style="fill: none; stroke-dasharray: 9.6,2.4,1.5,2.4; stroke-dashoffset: 0; stroke: #17becf; stroke-width: 1.5"/>
   </g>
   <g id="line2d_86">
    <path d="M 44.533594 111.958125 
L 602.533594 111.958125 
" clip-path="url(#pa8e9d5d827)" style="fill: none; stroke-dasharray: 1,1.65; stroke-dashoffset: 0; stroke: #000000; stroke-opacity: 0.3"/>
   </g>
   <g id="patch_3">
    <path d="M 44.533594 361.438125 
L 44.533594 28.798125 
" style="fill: none; stroke: #000000; stroke-width: 0.8; stroke-linejoin: miter; stroke-linecap: square"/>
   </g>
   <g id="patch_4">
    <path d="M 602.533594 361.438125 
L 602.533594 28.798125 
" style="fill: none; stroke: #000000; stroke-width: 0.8; stroke-linejoin: miter; stroke-linecap: square"/>
   </g>
   <g id="patch_5">
    <path d="M 44.533594 361.438125 
L 602.533594 361.438125 
" style="fill: none; stroke: #000000; stroke-width: 0.8; stroke-linejoin: miter; stroke-linecap: square"/>
   </g>
   <g id="patch_6">
    <path d="M 44.533594 28.798125 
L 602.533594 28.798125 
" style="fill: none; stroke: #000000; stroke-width: 0.8; stroke-linejoin: miter; stroke-linecap: square"/>
   </g>
   <g id="text_21">
    <text style="font-weight: 700; font-size: 12px; font-family: 'DejaVu Sans', 'Bitstream Vera Sans', 'Computer Modern Sans Serif', 'Lucida Grande', 'Verdana', 'Geneva', 'Lucid', 'Arial', 'Helvetica', 'Avant Garde', sans-serif; text-anchor: middle" x="323.533594" y="16.798125" transform="rotate(-0 323.533594 16.798125)">Biquads de EQ paramétrico (RBJ Audio EQ Cookbook)</text>
   </g>
   <g id="legend_1">
    <g id="patch_7">
     <path d="M 168.878438 356.938125 
L 478.18875 356.938125 
Q 479.98875 356.938125 479.98875 355.138125 
L 479.98875 302.035312 
Q 479.98875 300.235312 478.18875 300.235312 
L 168.878438 300.235312 
Q 167.078438 300.235312 167.078438 302.035312 
L 167.078438 355.138125 
Q 167.078438 356.938125 168.878438 356.938125 
z
" style="fill: #ffffff; opacity: 0.8; stroke: #cccccc; stroke-linejoin: miter"/>
    </g>
    <g id="line2d_87">
     <path d="M 170.678438 307.523906 
L 179.678438 307.523906 
L 188.678438 307.523906 
" style="fill: none; stroke: #1f77b4; stroke-width: 1.5; stroke-linecap: square"/>
    </g>
    <g id="text_22">
     <text style="font-size: 9px; font-family: 'DejaVu Sans', 'Bitstream Vera Sans', 'Computer Modern Sans Serif', 'Lucida Grande', 'Verdana', 'Geneva', 'Lucid', 'Arial', 'Helvetica', 'Avant Garde', sans-serif; text-anchor: start" x="195.878437" y="310.673906" transform="rotate(-0 195.878437 310.673906)">Campana +6 dB (Q = 1,4)</text>
    </g>
    <g id="line2d_88">
     <path d="M 170.678438 321.024609 
L 179.678438 321.024609 
L 188.678438 321.024609 
" style="fill: none; stroke: #2ca02c; stroke-width: 1.5; stroke-linecap: square"/>
    </g>
    <g id="text_23">
     <text style="font-size: 9px; font-family: 'DejaVu Sans', 'Bitstream Vera Sans', 'Computer Modern Sans Serif', 'Lucida Grande', 'Verdana', 'Geneva', 'Lucid', 'Arial', 'Helvetica', 'Avant Garde', sans-serif; text-anchor: start" x="195.878437" y="324.174609" transform="rotate(-0 195.878437 324.174609)">Shelving grave +6 dB</text>
    </g>
    <g id="line2d_89">
     <path d="M 170.678438 334.525312 
L 179.678438 334.525312 
L 188.678438 334.525312 
" style="fill: none; stroke: #9467bd; stroke-width: 1.5; stroke-linecap: square"/>
    </g>
    <g id="text_24">
     <text style="font-size: 9px; font-family: 'DejaVu Sans', 'Bitstream Vera Sans', 'Computer Modern Sans Serif', 'Lucida Grande', 'Verdana', 'Geneva', 'Lucid', 'Arial', 'Helvetica', 'Avant Garde', sans-serif; text-anchor: start" x="195.878437" y="337.675312" transform="rotate(-0 195.878437 337.675312)">Shelving agudo -6 dB</text>
    </g>
    <g id="line2d_90">
     <path d="M 170.678438 348.026016 
L 179.678438 348.026016 
L 188.678438 348.026016 
" style="fill: none; stroke-dasharray: 5.55,2.4; stroke-dashoffset: 0; stroke: #d62728; stroke-width: 1.5"/>
    </g>
    <g id="text_25">
     <text style="font-size: 9px; font-family: 'DejaVu Sans', 'Bitstream Vera Sans', 'Computer Modern Sans Serif', 'Lucida Grande', 'Verdana', 'Geneva', 'Lucid', 'Arial', 'Helvetica', 'Avant Garde', sans-serif; text-anchor: start" x="195.878437" y="351.176016" transform="rotate(-0 195.878437 351.176016)">Paso bajo (Q = 0,707)</text>
    </g>
    <g id="line2d_91">
     <path d="M 332.312813 307.523906 
L 341.312813 307.523906 
L 350.312813 307.523906 
" style="fill: none; stroke-dasharray: 5.55,2.4; stroke-dashoffset: 0; stroke: #8c564b; stroke-width: 1.5"/>
    </g>
    <g id="text_26">
     <text style="font-size: 9px; font-family: 'DejaVu Sans', 'Bitstream Vera Sans', 'Computer Modern Sans Serif', 'Lucida Grande', 'Verdana', 'Geneva', 'Lucid', 'Arial', 'Helvetica', 'Avant Garde', sans-serif; text-anchor: start" x="357.512812" y="310.673906" transform="rotate(-0 357.512812 310.673906)">Paso alto (Q = 0,707)</text>
    </g>
    <g id="line2d_92">
     <path d="M 332.312813 321.024609 
L 341.312813 321.024609 
L 350.312813 321.024609 
" style="fill: none; stroke-dasharray: 9.6,2.4,1.5,2.4; stroke-dashoffset: 0; stroke: #ff7f0e; stroke-width: 1.5"/>
    </g>
    <g id="text_27">
     <text style="font-size: 9px; font-family: 'DejaVu Sans', 'Bitstream Vera Sans', 'Computer Modern Sans Serif', 'Lucida Grande', 'Verdana', 'Geneva', 'Lucid', 'Arial', 'Helvetica', 'Avant Garde', sans-serif; text-anchor: start" x="357.512812" y="324.174609" transform="rotate(-0 357.512812 324.174609)">Paso banda (Q = 2)</text>
    </g>
    <g id="line2d_93">
     <path d="M 332.312813 334.525313 
L 341.312813 334.525313 
L 350.312813 334.525313 
" style="fill: none; stroke-dasharray: 9.6,2.4,1.5,2.4; stroke-dashoffset: 0; stroke: #17becf; stroke-width: 1.5"/>
    </g>
    <g id="text_28">
     <text style="font-size: 9px; font-family: 'DejaVu Sans', 'Bitstream Vera Sans', 'Computer Modern Sans Serif', 'Lucida Grande', 'Verdana', 'Geneva', 'Lucid', 'Arial', 'Helvetica', 'Avant Garde', sans-serif; text-anchor: start" x="357.512812" y="337.675313" transform="rotate(-0 357.512812 337.675313)">Rechazo de banda (Q = 6)</text>
    </g>
   </g>
  </g>
 </g>
 <defs>
  <clipPath id="pa8e9d5d827">
   <rect x="44.533594" y="28.798125" width="558" height="332.64"/>
  </clipPath>
 </defs>
</svg>
