<?xml version="1.0" encoding="utf-8" standalone="no"?>
<!DOCTYPE svg PUBLIC "-//W3C//DTD SVG 1.1//EN"
  "http://www.w3.org/Graphics/SVG/1.1/DTD/svg11.dtd">
<svg xmlns:xlink="http://www.w3.org/1999/xlink" width="388.593061pt" height="397.909925pt" viewBox="0 0 388.593061 397.909925" xmlns="http://www.w3.org/2000/svg" version="1.1">
 <metadata>
  <rdf:RDF xmlns:dc="http://purl.org/dc/elements/1.1/" xmlns:cc="http://creativecommons.org/ns#" xmlns:rdf="http://www.w3.org/1999/02/22-rdf-syntax-ns#">
   <cc:Work>
    <dc:type rdf:resource="http://purl.org/dc/dcmitype/StillImage"/>
    <dc:format>image/svg+xml</dc:format>
    <dc:creator>
     <cc:Agent>
      <dc:title>Matplotlib v3.11.1, https://matplotlib.org/</dc:title>
     </cc:Agent>
    </dc:creator>
   </cc:Work>
  </rdf:RDF>
 </metadata>
 <defs>
  <style type="text/css">*{stroke-linejoin: round; stroke-linecap: butt}</style>
 </defs>
 <g id="figure_1">
  <g id="patch_1">
   <path d="M 0 397.909925 
L 388.593061 397.909925 
L 388.593061 0 
L 0 0 
z
" style="fill: #ffffff"/>
  </g>
  <g id="axes_1">
   <g id="patch_2">
    <path d="M 361.242486 271.798125 
C 361.242486 227.704236 343.707574 185.371213 312.528486 154.192125 
C 281.349398 123.013037 239.016375 105.478125 194.922486 105.478125 
C 150.828597 105.478125 108.495574 123.013037 77.316486 154.192125 
C 46.137398 185.371213 28.602486 227.704236 28.602486 271.798125 
L 194.922486 271.798125 
C 194.922486 271.798125 194.922486 271.798125 194.922486 271.798125 
C 194.922486 271.798125 194.922486 271.798125 194.922486 271.798125 
C 194.922486 271.798125 194.922486 271.798125 194.922486 271.798125 
C 194.922486 271.798125 194.922486 271.798125 194.922486 271.798125 
z
" style="fill: #ffffff"/>
   </g>
   <g id="matplotlib.axis_1">
    <g id="xtick_1">
     <g id="line2d_1">
      <path d="M 194.922486 271.798125 
L 28.602486 271.798125 
" clip-path="url(#pc6bef66950)" style="fill: none; stroke-dasharray: 0.4,0.66; stroke-dashoffset: 0; stroke: #b0b0b0; stroke-opacity: 0.7; stroke-width: 0.4"/>
     </g>
     <g id="text_1">
      <text style="font-size: 6.94px; font-family: sans-serif; text-anchor: middle" x="14.602486" y="273.600898" transform="rotate(-0 14.602486 273.600898)">-90°</text>
     </g>
    </g>
    <g id="xtick_2">
     <g id="line2d_2">
      <path d="M 194.922486 271.798125 
L 50.885141 188.638125 
" clip-path="url(#pc6bef66950)" style="fill: none; stroke-dasharray: 0.4,0.66; stroke-dashoffset: 0; stroke: #b0b0b0; stroke-opacity: 0.7; stroke-width: 0.4"/>
     </g>
     <g id="text_2">
      <text style="font-size: 6.94px; font-family: sans-serif; text-anchor: middle" x="38.760785" y="183.440898" transform="rotate(-0 38.760785 183.440898)">-60°</text>
     </g>
    </g>
    <g id="xtick_3">
     <g id="line2d_3">
      <path d="M 194.922486 271.798125 
L 111.762486 127.76078 
" clip-path="url(#pc6bef66950)" style="fill: none; stroke-dasharray: 0.4,0.66; stroke-dashoffset: 0; stroke: #b0b0b0; stroke-opacity: 0.7; stroke-width: 0.4"/>
     </g>
     <g id="text_3">
      <text style="font-size: 6.94px; font-family: sans-serif; text-anchor: middle" x="104.762486" y="117.439198" transform="rotate(-0 104.762486 117.439198)">-30°</text>
     </g>
    </g>
    <g id="xtick_4">
     <g id="line2d_4">
      <path d="M 194.922486 271.798125 
L 194.922486 105.478125 
" clip-path="url(#pc6bef66950)" style="fill: none; stroke-dasharray: 0.4,0.66; stroke-dashoffset: 0; stroke: #b0b0b0; stroke-opacity: 0.7; stroke-width: 0.4"/>
     </g>
     <g id="text_4">
      <text style="font-size: 6.94px; font-family: sans-serif; text-anchor: middle" x="194.922486" y="93.280898" transform="rotate(-0 194.922486 93.280898)">0°</text>
     </g>
    </g>
    <g id="xtick_5">
     <g id="line2d_5">
      <path d="M 194.922486 271.798125 
L 278.082486 127.76078 
" clip-path="url(#pc6bef66950)" style="fill: none; stroke-dasharray: 0.4,0.66; stroke-dashoffset: 0; stroke: #b0b0b0; stroke-opacity: 0.7; stroke-width: 0.4"/>
     </g>
     <g id="text_5">
      <text style="font-size: 6.94px; font-family: sans-serif; text-anchor: middle" x="285.082486" y="117.439198" transform="rotate(-0 285.082486 117.439198)">30°</text>
     </g>
    </g>
    <g id="xtick_6">
     <g id="line2d_6">
      <path d="M 194.922486 271.798125 
L 338.959831 188.638125 
" clip-path="url(#pc6bef66950)" style="fill: none; stroke-dasharray: 0.4,0.66; stroke-dashoffset: 0; stroke: #b0b0b0; stroke-opacity: 0.7; stroke-width: 0.4"/>
     </g>
     <g id="text_6">
      <text style="font-size: 6.94px; font-family: sans-serif; text-anchor: middle" x="351.084187" y="183.440898" transform="rotate(-0 351.084187 183.440898)">60°</text>
     </g>
    </g>
    <g id="xtick_7">
     <g id="line2d_7">
      <path d="M 194.922486 271.798125 
L 361.242486 271.798125 
" clip-path="url(#pc6bef66950)" style="fill: none; stroke-dasharray: 0.4,0.66; stroke-dashoffset: 0; stroke: #b0b0b0; stroke-opacity: 0.7; stroke-width: 0.4"/>
     </g>
     <g id="text_7">
      <text style="font-size: 6.94px; font-family: sans-serif; text-anchor: middle" x="375.242486" y="273.600898" transform="rotate(-0 375.242486 273.600898)">90°</text>
     </g>
    </g>
   </g>
   <g id="matplotlib.axis_2">
    <g id="ytick_1">
     <g id="line2d_8">
      <path d="M 194.922486 271.798125 
C 194.922486 271.798125 194.922486 271.798125 194.922486 271.798125 
C 194.922486 271.798125 194.922486 271.798125 194.922486 271.798125 
C 194.922486 271.798125 194.922486 271.798125 194.922486 271.798125 
C 194.922486 271.798125 194.922486 271.798125 194.922486 271.798125 
" clip-path="url(#pc6bef66950)" style="fill: none; stroke-dasharray: 0.4,0.66; stroke-dashoffset: 0; stroke: #b0b0b0; stroke-opacity: 0.7; stroke-width: 0.4"/>
     </g>
     <g id="text_8">
      <text style="font-size: 10px; font-family: sans-serif; text-anchor: middle" x="194.922486" y="286.395781" transform="rotate(-0 194.922486 286.395781)">-40</text>
     </g>
    </g>
    <g id="ytick_2">
     <g id="line2d_9">
      <path d="M 153.342486 271.798125 
C 153.342486 260.774653 157.726214 250.191397 165.520986 242.396625 
C 173.315758 234.601853 183.899014 230.218125 194.922486 230.218125 
C 205.945958 230.218125 216.529214 234.601853 224.323986 242.396625 
C 232.118758 250.191397 236.502486 260.774653 236.502486 271.798125 
" clip-path="url(#pc6bef66950)" style="fill: none; stroke-dasharray: 0.4,0.66; stroke-dashoffset: 0; stroke: #b0b0b0; stroke-opacity: 0.7; stroke-width: 0.4"/>
     </g>
     <g id="text_9">
      <text style="font-size: 10px; font-family: sans-serif; text-anchor: middle" x="153.342486" y="286.395781" transform="rotate(-0 153.342486 286.395781)">-30</text>
     </g>
    </g>
    <g id="ytick_3">
     <g id="line2d_10">
      <path d="M 111.762486 271.798125 
C 111.762486 249.75118 120.529942 228.584669 136.119486 212.995125 
C 151.70903 197.405581 172.875541 188.638125 194.922486 188.638125 
C 216.969431 188.638125 238.135942 197.405581 253.725486 212.995125 
C 269.31503 228.584669 278.082486 249.75118 278.082486 271.798125 
" clip-path="url(#pc6bef66950)" style="fill: none; stroke-dasharray: 0.4,0.66; stroke-dashoffset: 0; stroke: #b0b0b0; stroke-opacity: 0.7; stroke-width: 0.4"/>
     </g>
     <g id="text_10">
      <text style="font-size: 10px; font-family: sans-serif; text-anchor: middle" x="111.762486" y="286.395781" transform="rotate(-0 111.762486 286.395781)">-20</text>
     </g>
    </g>
    <g id="ytick_4">
     <g id="line2d_11">
      <path d="M 70.182486 271.798125 
C 70.182486 238.727708 83.33367 206.977941 106.717986 183.593625 
C 130.102302 160.209309 161.852069 147.058125 194.922486 147.058125 
C 227.992903 147.058125 259.74267 160.209309 283.126986 183.593625 
C 306.511302 206.977941 319.662486 238.727708 319.662486 271.798125 
" clip-path="url(#pc6bef66950)" style="fill: none; stroke-dasharray: 0.4,0.66; stroke-dashoffset: 0; stroke: #b0b0b0; stroke-opacity: 0.7; stroke-width: 0.4"/>
     </g>
     <g id="text_11">
      <text style="font-size: 10px; font-family: sans-serif; text-anchor: middle" x="70.182486" y="286.395781" transform="rotate(-0 70.182486 286.395781)">-10</text>
     </g>
    </g>
    <g id="ytick_5">
     <g id="line2d_12">
      <path d="M 28.602486 271.798125 
C 28.602486 227.704236 46.137398 185.371213 77.316486 154.192125 
C 108.495574 123.013037 150.828597 105.478125 194.922486 105.478125 
C 239.016375 105.478125 281.349398 123.013037 312.528486 154.192125 
C 343.707574 185.371213 361.242486 227.704236 361.242486 271.798125 
" clip-path="url(#pc6bef66950)" style="fill: none; stroke-dasharray: 0.4,0.66; stroke-dashoffset: 0; stroke: #b0b0b0; stroke-opacity: 0.7; stroke-width: 0.4"/>
     </g>
     <g id="text_12">
      <text style="font-size: 10px; font-family: sans-serif; text-anchor: middle" x="28.602486" y="286.396562" transform="rotate(-0 28.602486 286.396562)">0 dB</text>
     </g>
    </g>
   </g>
   <g id="line2d_13">
    <path d="M 82.308547 271.798125 
L 82.206961 263.916288 
L 81.844596 253.888347 
L 81.154629 235.927257 
L 81.109461 228.109398 
L 81.30233 221.211172 
L 81.67584 215.33543 
L 82.279898 209.359319 
L 83.146018 203.301417 
L 84.046486 198.410902 
L 85.145133 193.4947 
L 86.452833 188.566433 
L 87.978793 183.640548 
L 89.73055 178.732162 
L 91.713981 173.856911 
L 93.93333 169.030813 
L 96.391236 164.270135 
L 99.08878 159.591272 
L 102.025521 155.010634 
L 105.199551 150.544537 
L 108.607543 146.209103 
L 112.244805 142.020162 
L 116.105341 137.993164 
L 120.181901 134.143091 
L 124.46605 130.484377 
L 128.948229 127.03083 
L 133.617818 123.795563 
L 138.463207 120.790924 
L 143.471866 118.028432 
L 148.630418 115.518723 
L 153.924711 113.271492 
L 157.975604 111.763597 
L 162.088018 110.411561 
L 166.255284 109.218343 
L 170.470574 108.18656 
L 174.726925 107.318477 
L 179.017256 106.616001 
L 183.334393 106.080677 
L 187.671083 105.713684 
L 192.020018 105.515831 
L 196.373856 105.487552 
L 200.725243 105.628911 
L 205.066828 105.939595 
L 209.391291 106.418921 
L 213.69136 107.065834 
L 217.959829 107.878909 
L 222.189586 108.856359 
L 226.373625 109.996039 
L 230.505073 111.295448 
L 234.577204 112.751739 
L 239.903138 114.93195 
L 245.09698 117.376911 
L 250.144398 120.077169 
L 255.031814 123.022317 
L 259.746479 126.201054 
L 264.276545 129.601231 
L 268.611141 133.209922 
L 272.740434 137.013486 
L 276.655702 140.997637 
L 280.349395 145.147523 
L 283.815197 149.447805 
L 287.048083 153.882737 
L 290.044382 158.436264 
L 292.801824 163.092107 
L 295.319599 167.833871 
L 297.598401 172.645146 
L 299.640477 177.509622 
L 301.449666 182.411208 
L 303.031434 187.334158 
L 304.392901 192.263213 
L 305.542856 197.183743 
L 306.491759 202.081905 
L 307.413762 208.153623 
L 308.067821 214.147697 
L 308.484761 220.044815 
L 308.72026 226.97199 
L 308.727252 233.719583 
L 308.497063 242.425742 
L 307.542921 269.832328 
L 307.536424 271.798125 
L 307.536424 271.798125 
" clip-path="url(#pc6bef66950)" style="fill: none; stroke: #1f77b4; stroke-width: 1.6; stroke-linecap: square"/>
   </g>
   <g id="line2d_14">
    <path d="M 131.027723 271.798125 
L 131.151959 269.571209 
L 131.53122 267.365376 
L 132.185494 265.204201 
L 132.876843 263.629661 
L 133.762549 262.111343 
L 134.869313 260.667927 
L 136.231293 259.322927 
L 137.892191 258.106363 
L 139.192785 257.385444 
L 140.671963 256.753123 
L 142.355286 256.227011 
L 144.274449 255.82886 
L 146.469547 255.585998 
L 148.992534 255.533476 
L 151.912714 255.71743 
L 155.325841 256.200592 
L 159.370117 257.071852 
L 164.256426 258.464143 
L 170.331266 260.591261 
L 173.992727 262.038418 
L 178.226664 263.834627 
L 183.224973 266.092867 
L 194.922486 271.798125 
L 194.922486 271.798125 
L 184.610077 265.601805 
L 178.138315 261.512772 
L 172.759603 257.949218 
L 168.172615 254.756577 
L 160.682276 249.135024 
L 154.772331 244.203688 
L 149.980441 239.741276 
L 146.036779 235.624605 
L 142.770457 231.780466 
L 140.066738 228.163893 
L 137.845188 224.747232 
L 136.047568 221.514195 
L 134.630689 218.456449 
L 133.562008 215.571606 
L 132.816808 212.862037 
L 132.376365 210.334223 
L 132.22676 207.998491 
L 132.35814 205.869061 
L 132.764322 203.964393 
L 133.44271 202.30788 
L 134.394513 200.928974 
L 135.625335 199.864929 
L 136.348591 199.465389 
L 137.146285 199.163486 
L 138.020975 198.967513 
L 138.975861 198.887064 
L 140.014932 198.93334 
L 141.143154 199.119529 
L 142.366723 199.461323 
L 143.693412 199.977613 
L 145.133054 200.691447 
L 146.698218 201.63138 
L 148.405203 202.833417 
L 150.275518 204.343915 
L 152.338181 206.224045 
L 154.633426 208.556969 
L 157.219024 211.459973 
L 160.181726 215.106358 
L 163.659841 219.768346 
L 167.892975 225.911121 
L 173.350825 234.434913 
L 181.164295 247.480606 
L 194.922486 271.798125 
L 194.922486 271.798125 
L 186.498929 255.955718 
L 176.329096 236.080555 
L 170.179136 223.236566 
L 165.881973 213.551868 
L 162.671746 205.67431 
L 160.186039 198.971649 
L 158.22368 193.097281 
L 156.660927 187.840796 
L 155.415962 183.065019 
L 154.431687 178.675664 
L 153.666549 174.605228 
L 153.089266 170.803798 
L 152.675626 167.233477 
L 152.406444 163.864864 
L 152.242165 157.644422 
L 152.501631 152.005326 
L 153.117157 146.855167 
L 154.038026 142.129184 
L 155.224683 137.780589 
L 156.64522 133.774764 
L 158.273137 130.085606 
L 160.085858 126.693128 
L 162.063727 123.58184 
L 164.189286 120.739621 
L 166.446771 118.156916 
L 168.821729 115.826153 
L 171.300736 113.741306 
L 173.871179 111.897577 
L 176.52109 110.291147 
L 179.239009 108.918993 
L 182.01388 107.778736 
L 184.834961 106.868542 
L 187.691749 106.18703 
L 190.573923 105.733215 
L 193.471281 105.506462 
L 196.373691 105.506462 
L 199.271049 105.733215 
L 202.153223 106.18703 
L 205.010011 106.868542 
L 207.831092 107.778736 
L 210.605963 108.918993 
L 213.323882 110.291147 
L 215.973793 111.897577 
L 218.544236 113.741306 
L 221.023243 115.826153 
L 223.398201 118.156916 
L 225.655686 120.739621 
L 227.781245 123.58184 
L 229.759114 126.693128 
L 231.571835 130.085606 
L 233.199751 133.774764 
L 234.620289 137.780589 
L 235.806946 142.129184 
L 236.727815 146.855167 
L 237.343341 152.005326 
L 237.602807 157.644422 
L 237.578762 160.674728 
L 237.438528 163.864864 
L 237.169346 167.233477 
L 236.755706 170.803798 
L 236.178423 174.605228 
L 235.413284 178.675664 
L 234.42901 183.065019 
L 233.184045 187.840796 
L 231.621292 193.097281 
L 229.658933 198.971649 
L 227.173225 205.67431 
L 223.962999 213.551868 
L 219.665836 223.236566 
L 213.515876 236.080555 
L 203.346043 255.955718 
L 194.922486 271.798125 
L 194.922486 271.798125 
L 208.680676 247.480606 
L 216.494146 234.434913 
L 221.951997 225.911121 
L 226.185131 219.768346 
L 229.663245 215.106358 
L 232.625948 211.459973 
L 235.211546 208.556969 
L 237.506791 206.224045 
L 239.569454 204.343915 
L 241.439769 202.833417 
L 243.146754 201.63138 
L 244.711918 200.691447 
L 246.151559 199.977613 
L 247.478249 199.461323 
L 248.701818 199.119529 
L 249.830039 198.93334 
L 250.86911 198.887064 
L 251.823997 198.967513 
L 252.698686 199.163486 
L 253.496381 199.465389 
L 254.219637 199.864929 
L 255.450459 200.928974 
L 256.402262 202.30788 
L 257.08065 203.964393 
L 257.486832 205.869061 
L 257.618212 207.998491 
L 257.468607 210.334223 
L 257.028164 212.862037 
L 256.282964 215.571606 
L 255.214283 218.456449 
L 253.797404 221.514195 
L 251.999783 224.747232 
L 249.778234 228.163893 
L 247.074515 231.780466 
L 243.808193 235.624605 
L 239.864531 239.741276 
L 235.072641 244.203688 
L 229.162696 249.135024 
L 225.656177 251.839433 
L 221.672357 254.756577 
L 217.085369 257.949218 
L 211.706656 261.512772 
L 205.234894 265.601805 
L 194.922486 271.798125 
L 194.922486 271.798125 
L 200.547138 268.993777 
L 206.619998 266.092867 
L 215.852245 262.038418 
L 222.729676 259.417567 
L 228.154323 257.692047 
L 232.586857 256.580731 
L 236.294698 255.916821 
L 239.447219 255.592447 
L 242.158759 255.533372 
L 244.510383 255.68604 
L 246.56186 256.010384 
L 248.358681 256.475543 
L 249.936396 257.057192 
L 251.323403 257.735797 
L 253.095748 258.901423 
L 254.551959 260.20733 
L 255.73958 261.620834 
L 256.695671 263.11647 
L 257.449238 264.674101 
L 258.022789 266.277564 
L 258.536187 268.464272 
L 258.786292 270.683378 
L 258.817249 271.798125 
L 258.817249 271.798125 
" clip-path="url(#pc6bef66950)" style="fill: none; stroke: #ff7f0e; stroke-width: 1.6; stroke-linecap: square"/>
   </g>
   <g id="line2d_15">
    <path d="M 190.509611 271.798125 
L 190.329548 271.717955 
L 187.754514 271.296892 
L 183.750798 270.525272 
L 179.823093 269.541506 
L 175.644493 268.22516 
L 172.541373 267.040872 
L 169.596586 265.717914 
L 166.913815 264.293224 
L 164.586896 262.812314 
L 162.704656 261.329917 
L 161.356549 259.911803 
L 160.801888 259.040956 
L 160.559837 258.262318 
L 160.667836 257.609384 
L 160.866744 257.34232 
L 161.587175 256.956288 
L 162.79206 256.815461 
L 164.565286 256.991929 
L 167.023463 257.582863 
L 170.338046 258.726347 
L 174.779386 260.632622 
L 180.815544 263.653478 
L 184.688615 265.769914 
L 189.37534 268.465064 
L 194.922486 271.798125 
L 194.922486 271.798125 
L 187.9866 266.758909 
L 182.374971 262.513452 
L 177.789979 258.887855 
L 170.766609 252.925485 
L 165.769767 248.190719 
L 162.258625 244.389891 
L 159.947147 241.394527 
L 158.680969 239.166116 
L 158.4148 238.344994 
L 158.388201 237.729353 
L 158.60224 237.331499 
L 159.062089 237.168142 
L 159.777579 237.261321 
L 160.764195 237.639834 
L 162.044696 238.341443 
L 163.651727 239.416306 
L 165.632083 240.932481 
L 168.053941 242.985138 
L 171.019785 245.712904 
L 174.69131 249.329128 
L 179.342449 254.188096 
L 185.489824 260.947089 
L 194.922486 271.798125 
L 193.350186 269.821473 
L 183.990084 257.805289 
L 177.581329 249.198689 
L 172.839049 242.492415 
L 169.193242 237.027047 
L 166.340511 232.458412 
L 164.100356 228.587093 
L 162.357172 225.290037 
L 161.033145 222.488828 
L 160.074238 220.133473 
L 159.442428 218.193605 
L 159.111217 216.653606 
L 159.063033 215.510059 
L 159.287836 214.770764 
L 159.782608 214.455055 
L 160.551655 214.595457 
L 161.607837 215.241074 
L 162.975104 216.463637 
L 164.693233 218.368101 
L 166.826637 221.111872 
L 169.481725 224.942072 
L 172.844382 230.275251 
L 177.273383 237.894513 
L 183.592357 249.561495 
L 194.922486 271.798125 
L 193.195523 268.177472 
L 182.412127 244.969575 
L 176.349447 231.043311 
L 172.315124 221.021158 
L 169.450207 213.215894 
L 167.366817 206.881036 
L 165.855598 201.624449 
L 164.790415 197.218633 
L 164.08951 193.524055 
L 163.69723 190.453552 
L 163.574579 187.95434 
L 163.694018 185.998614 
L 164.036556 184.578949 
L 164.590235 183.706871 
L 165.349618 183.414139 
L 166.31622 183.757093 
L 167.500115 184.825475 
L 168.923441 186.759082 
L 170.627591 189.779935 
L 172.688605 194.259369 
L 175.254155 200.876413 
L 178.650928 211.071844 
L 183.82293 228.879326 
L 194.922486 271.798125 
L 188.641078 245.634179 
L 181.33833 212.958683 
L 177.897042 195.001311 
L 175.892453 182.268858 
L 174.67637 172.285288 
L 173.97409 164.027969 
L 173.641167 156.974403 
L 173.591028 150.821415 
L 173.766912 145.377398 
L 174.129055 140.51357 
L 174.648134 136.139272 
L 175.30161 132.188337 
L 176.071553 128.611076 
L 176.943287 125.369303 
L 177.904493 122.433121 
L 178.944607 119.778765 
L 180.054397 117.387119 
L 181.225658 115.242663 
L 182.450988 113.332714 
L 183.723619 111.646867 
L 185.037289 110.176577 
L 186.386135 108.91485 
L 187.764618 107.856 
L 189.16745 106.995469 
L 190.589543 106.329692 
L 192.025955 105.85599 
L 193.471857 105.5725 
L 194.922486 105.478125 
L 196.373115 105.5725 
L 197.819017 105.85599 
L 199.255429 106.329692 
L 200.677521 106.995469 
L 202.080354 107.856 
L 203.458837 108.91485 
L 204.807683 110.176577 
L 206.121353 111.646867 
L 207.393984 113.332714 
L 208.619314 115.242663 
L 209.790575 117.387119 
L 210.900365 119.778765 
L 211.940479 122.433121 
L 212.901685 125.369303 
L 213.773419 128.611076 
L 214.543362 132.188337 
L 215.196837 136.139272 
L 215.715917 140.51357 
L 216.07806 145.377398 
L 216.253944 150.821415 
L 216.203805 156.974403 
L 215.870882 164.027969 
L 215.168602 172.285288 
L 213.952519 182.268858 
L 211.94793 195.001311 
L 208.506642 212.958683 
L 201.203894 245.634179 
L 194.922486 271.798125 
L 206.022042 228.879326 
L 211.194044 211.071844 
L 214.590817 200.876413 
L 217.156367 194.259369 
L 219.217381 189.779935 
L 220.92153 186.759082 
L 222.344857 184.825475 
L 223.528751 183.757093 
L 224.495354 183.414139 
L 225.254737 183.706871 
L 225.808416 184.578949 
L 226.150954 185.998614 
L 226.270393 187.95434 
L 226.147742 190.453552 
L 225.755462 193.524055 
L 225.054557 197.218633 
L 223.989374 201.624449 
L 222.478155 206.881036 
L 220.394765 213.215894 
L 217.529848 221.021158 
L 213.495525 231.043311 
L 207.432844 244.969575 
L 194.922486 271.798125 
L 195.357834 270.924951 
L 206.252615 249.561495 
L 212.571589 237.894513 
L 217.00059 230.275251 
L 220.363247 224.942072 
L 223.018335 221.111872 
L 225.151739 218.368101 
L 226.869868 216.463637 
L 228.237135 215.241074 
L 229.293317 214.595457 
L 230.062364 214.455055 
L 230.557136 214.770764 
L 230.781939 215.510059 
L 230.733755 216.653606 
L 230.402544 218.193605 
L 229.770734 220.133473 
L 228.811827 222.488828 
L 227.4878 225.290037 
L 225.744616 228.587093 
L 223.504461 232.458412 
L 220.65173 237.027047 
L 217.005923 242.492415 
L 212.263643 249.198689 
L 205.854888 257.805289 
L 194.922486 271.798125 
L 195.551311 271.061866 
L 204.355148 260.947089 
L 210.502523 254.188096 
L 215.153662 249.329128 
L 218.825187 245.712904 
L 221.791031 242.985138 
L 224.212888 240.932481 
L 226.193245 239.416306 
L 227.800276 238.341443 
L 229.080777 237.639834 
L 230.067393 237.261321 
L 230.782883 237.168142 
L 231.242732 237.331499 
L 231.456771 237.729353 
L 231.430172 238.344994 
L 231.164003 239.166116 
L 230.655463 240.184257 
L 229.897825 241.394527 
L 227.586347 244.389891 
L 224.075205 248.190719 
L 219.078363 252.925485 
L 215.870296 255.724305 
L 212.054993 258.887855 
L 207.470001 262.513452 
L 201.858372 266.758909 
L 194.922486 271.798125 
L 194.922486 271.798125 
L 205.156357 265.769914 
L 212.28888 261.972692 
L 217.449912 259.566731 
L 221.285088 258.074623 
L 224.145283 257.228176 
L 226.243671 256.858686 
L 227.720562 256.851181 
L 228.674232 257.122448 
L 229.177136 257.609384 
L 229.285134 258.262318 
L 229.043084 259.040956 
L 228.488423 259.911803 
L 227.653592 260.84645 
L 225.939243 262.315351 
L 223.750775 263.803333 
L 221.176549 265.252252 
L 218.308158 266.613646 
L 215.245514 267.847729 
L 211.056422 269.24276 
L 207.033222 270.311114 
L 202.779685 271.17975 
L 199.335361 271.798125 
L 199.335361 271.798125 
" clip-path="url(#pc6bef66950)" style="fill: none; stroke: #2ca02c; stroke-width: 1.6; stroke-linecap: square"/>
   </g>
   <g id="patch_3">
    <path d="M 361.242486 271.798125 
C 361.242486 227.704236 343.707574 185.371213 312.528486 154.192125 
C 281.349398 123.013037 239.016375 105.478125 194.922486 105.478125 
C 150.828597 105.478125 108.495574 123.013037 77.316486 154.192125 
C 46.137398 185.371213 28.602486 227.704236 28.602486 271.798125 
" style="fill: none; stroke: #000000; stroke-width: 0.8; stroke-linejoin: miter; stroke-linecap: square"/>
   </g>
   <g id="patch_4">
    <path d="M 194.922486 271.798125 
L 28.602486 271.798125 
" style="fill: none; stroke: #000000; stroke-width: 0.8; stroke-linejoin: miter; stroke-linecap: square"/>
   </g>
   <g id="patch_5">
    <path d="M 194.922486 271.798125 
L 361.242486 271.798125 
" style="fill: none; stroke: #000000; stroke-width: 0.8; stroke-linejoin: miter; stroke-linecap: square"/>
   </g>
   <g id="text_13">
    <text style="font-size: 12px; font-family: sans-serif; text-anchor: middle" x="194.922486" y="16.318125" transform="rotate(-0 194.922486 16.318125)">Baffled circular piston directivity</text>
   </g>
   <g id="legend_1">
    <g id="patch_6">
     <path d="M 97.628086 390.709925 
L 292.216886 390.709925 
Q 293.882886 390.709925 293.882886 389.043925 
L 293.882886 377.379973 
Q 293.882886 375.713973 292.216886 375.713973 
L 97.628086 375.713973 
Q 95.962086 375.713973 95.962086 377.379973 
L 95.962086 389.043925 
Q 95.962086 390.709925 97.628086 390.709925 
z
" style="fill: #ffffff; opacity: 0.8; stroke: #cccccc; stroke-linejoin: miter"/>
    </g>
    <g id="line2d_16">
     <path d="M 99.294086 382.461273 
L 107.624086 382.461273 
L 115.954086 382.461273 
" style="fill: none; stroke: #1f77b4; stroke-width: 1.6; stroke-linecap: square"/>
    </g>
    <g id="text_14">
     <!-- $ka$ = 3 -->
     <g transform="translate(122.618086 385.376773)">
      <text>
       <tspan x="0" y="-0.671875" style="font-style: oblique; font-size: 8.33px; font-family: sans-serif">k</tspan>
       <tspan x="4.82283" y="-0.671875" style="font-style: oblique; font-size: 8.33px; font-family: sans-serif">a</tspan>
       <tspan x="9.926254" y="-0.671875" style="font-size: 8.33px; font-family: sans-serif"> </tspan>
       <tspan x="12.573532" y="-0.671875" style="font-size: 8.33px; font-family: sans-serif">=</tspan>
       <tspan x="19.55159" y="-0.671875" style="font-size: 8.33px; font-family: sans-serif"> </tspan>
       <tspan x="22.198868" y="-0.671875" style="font-size: 8.33px; font-family: sans-serif">3</tspan>
      </text>
     </g>
    </g>
    <g id="line2d_17">
     <path d="M 166.850386 382.461273 
L 175.180386 382.461273 
L 183.510386 382.461273 
" style="fill: none; stroke: #ff7f0e; stroke-width: 1.6; stroke-linecap: square"/>
    </g>
    <g id="text_15">
     <!-- $ka$ = 8 -->
     <g transform="translate(190.174386 385.376773)">
      <text>
       <tspan x="0" y="-0.671875" style="font-style: oblique; font-size: 8.33px; font-family: sans-serif">k</tspan>
       <tspan x="4.82283" y="-0.671875" style="font-style: oblique; font-size: 8.33px; font-family: sans-serif">a</tspan>
       <tspan x="9.926254" y="-0.671875" style="font-size: 8.33px; font-family: sans-serif"> </tspan>
       <tspan x="12.573532" y="-0.671875" style="font-size: 8.33px; font-family: sans-serif">=</tspan>
       <tspan x="19.55159" y="-0.671875" style="font-size: 8.33px; font-family: sans-serif"> </tspan>
       <tspan x="22.198868" y="-0.671875" style="font-size: 8.33px; font-family: sans-serif">8</tspan>
      </text>
     </g>
    </g>
    <g id="line2d_18">
     <path d="M 234.406686 382.461273 
L 242.736686 382.461273 
L 251.066686 382.461273 
" style="fill: none; stroke: #2ca02c; stroke-width: 1.6; stroke-linecap: square"/>
    </g>
    <g id="text_16">
     <!-- $ka$ = 16 -->
     <g transform="translate(257.730686 385.376773)">
      <text>
       <tspan x="0" y="-0.671875" style="font-style: oblique; font-size: 8.33px; font-family: sans-serif">k</tspan>
       <tspan x="4.82283" y="-0.671875" style="font-style: oblique; font-size: 8.33px; font-family: sans-serif">a</tspan>
       <tspan x="9.926254" y="-0.671875" style="font-size: 8.33px; font-family: sans-serif"> </tspan>
       <tspan x="12.573532" y="-0.671875" style="font-size: 8.33px; font-family: sans-serif">=</tspan>
       <tspan x="19.55159" y="-0.671875" style="font-size: 8.33px; font-family: sans-serif"> </tspan>
       <tspan x="22.198868" y="-0.671875" style="font-size: 8.33px; font-family: sans-serif">1</tspan>
       <tspan x="27.497482" y="-0.671875" style="font-size: 8.33px; font-family: sans-serif">6</tspan>
      </text>
     </g>
    </g>
   </g>
  </g>
 </g>
 <defs>
  <clipPath id="pc6bef66950">
   <path d="M 361.242486 271.798125 
C 361.242486 227.704236 343.707574 185.371213 312.528486 154.192125 
C 281.349398 123.013037 239.016375 105.478125 194.922486 105.478125 
C 150.828597 105.478125 108.495574 123.013037 77.316486 154.192125 
C 46.137398 185.371213 28.602486 227.704236 28.602486 271.798125 
L 194.922486 271.798125 
C 194.922486 271.798125 194.922486 271.798125 194.922486 271.798125 
C 194.922486 271.798125 194.922486 271.798125 194.922486 271.798125 
C 194.922486 271.798125 194.922486 271.798125 194.922486 271.798125 
C 194.922486 271.798125 194.922486 271.798125 194.922486 271.798125 
z
"/>
  </clipPath>
 </defs>
</svg>
