<?xml version="1.0" encoding="utf-8" standalone="no"?>
<!DOCTYPE svg PUBLIC "-//W3C//DTD SVG 1.1//EN"
  "http://www.w3.org/Graphics/SVG/1.1/DTD/svg11.dtd">
<svg xmlns:xlink="http://www.w3.org/1999/xlink" width="388.593061pt" height="398.389925pt" viewBox="0 0 388.593061 398.389925" xmlns="http://www.w3.org/2000/svg" version="1.1">
 <metadata>
  <rdf:RDF xmlns:dc="http://purl.org/dc/elements/1.1/" xmlns:cc="http://creativecommons.org/ns#" xmlns:rdf="http://www.w3.org/1999/02/22-rdf-syntax-ns#">
   <cc:Work>
    <dc:type rdf:resource="http://purl.org/dc/dcmitype/StillImage"/>
    <dc:format>image/svg+xml</dc:format>
    <dc:creator>
     <cc:Agent>
      <dc:title>Matplotlib v3.11.1, https://matplotlib.org/</dc:title>
     </cc:Agent>
    </dc:creator>
   </cc:Work>
  </rdf:RDF>
 </metadata>
 <defs>
  <style type="text/css">*{stroke-linejoin: round; stroke-linecap: butt}</style>
 </defs>
 <g id="figure_1">
  <g id="patch_1">
   <path d="M 0 398.389925 
L 388.593061 398.389925 
L 388.593061 0 
L 0 0 
z
" style="fill: #ffffff"/>
  </g>
  <g id="axes_1">
   <g id="patch_2">
    <path d="M 361.242486 272.278125 
C 361.242486 228.184236 343.707574 185.851213 312.528486 154.672125 
C 281.349398 123.493037 239.016375 105.958125 194.922486 105.958125 
C 150.828597 105.958125 108.495574 123.493037 77.316486 154.672125 
C 46.137398 185.851213 28.602486 228.184236 28.602486 272.278125 
L 194.922486 272.278125 
C 194.922486 272.278125 194.922486 272.278125 194.922486 272.278125 
C 194.922486 272.278125 194.922486 272.278125 194.922486 272.278125 
C 194.922486 272.278125 194.922486 272.278125 194.922486 272.278125 
C 194.922486 272.278125 194.922486 272.278125 194.922486 272.278125 
z
" style="fill: #ffffff"/>
   </g>
   <g id="matplotlib.axis_1">
    <g id="xtick_1">
     <g id="line2d_1">
      <path d="M 194.922486 272.278125 
L 28.602486 272.278125 
" clip-path="url(#p004056d1ad)" style="fill: none; stroke-dasharray: 0.4,0.66; stroke-dashoffset: 0; stroke: #b0b0b0; stroke-opacity: 0.7; stroke-width: 0.4"/>
     </g>
     <g id="text_1">
      <text style="font-size: 6.94px; font-family: sans-serif; text-anchor: middle" x="14.602486" y="274.080898" transform="rotate(-0 14.602486 274.080898)">-90°</text>
     </g>
    </g>
    <g id="xtick_2">
     <g id="line2d_2">
      <path d="M 194.922486 272.278125 
L 50.885141 189.118125 
" clip-path="url(#p004056d1ad)" style="fill: none; stroke-dasharray: 0.4,0.66; stroke-dashoffset: 0; stroke: #b0b0b0; stroke-opacity: 0.7; stroke-width: 0.4"/>
     </g>
     <g id="text_2">
      <text style="font-size: 6.94px; font-family: sans-serif; text-anchor: middle" x="38.760785" y="183.920898" transform="rotate(-0 38.760785 183.920898)">-60°</text>
     </g>
    </g>
    <g id="xtick_3">
     <g id="line2d_3">
      <path d="M 194.922486 272.278125 
L 111.762486 128.24078 
" clip-path="url(#p004056d1ad)" style="fill: none; stroke-dasharray: 0.4,0.66; stroke-dashoffset: 0; stroke: #b0b0b0; stroke-opacity: 0.7; stroke-width: 0.4"/>
     </g>
     <g id="text_3">
      <text style="font-size: 6.94px; font-family: sans-serif; text-anchor: middle" x="104.762486" y="117.919198" transform="rotate(-0 104.762486 117.919198)">-30°</text>
     </g>
    </g>
    <g id="xtick_4">
     <g id="line2d_4">
      <path d="M 194.922486 272.278125 
L 194.922486 105.958125 
" clip-path="url(#p004056d1ad)" style="fill: none; stroke-dasharray: 0.4,0.66; stroke-dashoffset: 0; stroke: #b0b0b0; stroke-opacity: 0.7; stroke-width: 0.4"/>
     </g>
     <g id="text_4">
      <text style="font-size: 6.94px; font-family: sans-serif; text-anchor: middle" x="194.922486" y="93.760898" transform="rotate(-0 194.922486 93.760898)">0°</text>
     </g>
    </g>
    <g id="xtick_5">
     <g id="line2d_5">
      <path d="M 194.922486 272.278125 
L 278.082486 128.24078 
" clip-path="url(#p004056d1ad)" style="fill: none; stroke-dasharray: 0.4,0.66; stroke-dashoffset: 0; stroke: #b0b0b0; stroke-opacity: 0.7; stroke-width: 0.4"/>
     </g>
     <g id="text_5">
      <text style="font-size: 6.94px; font-family: sans-serif; text-anchor: middle" x="285.082486" y="117.919198" transform="rotate(-0 285.082486 117.919198)">30°</text>
     </g>
    </g>
    <g id="xtick_6">
     <g id="line2d_6">
      <path d="M 194.922486 272.278125 
L 338.959831 189.118125 
" clip-path="url(#p004056d1ad)" style="fill: none; stroke-dasharray: 0.4,0.66; stroke-dashoffset: 0; stroke: #b0b0b0; stroke-opacity: 0.7; stroke-width: 0.4"/>
     </g>
     <g id="text_6">
      <text style="font-size: 6.94px; font-family: sans-serif; text-anchor: middle" x="351.084187" y="183.920898" transform="rotate(-0 351.084187 183.920898)">60°</text>
     </g>
    </g>
    <g id="xtick_7">
     <g id="line2d_7">
      <path d="M 194.922486 272.278125 
L 361.242486 272.278125 
" clip-path="url(#p004056d1ad)" style="fill: none; stroke-dasharray: 0.4,0.66; stroke-dashoffset: 0; stroke: #b0b0b0; stroke-opacity: 0.7; stroke-width: 0.4"/>
     </g>
     <g id="text_7">
      <text style="font-size: 6.94px; font-family: sans-serif; text-anchor: middle" x="375.242486" y="274.080898" transform="rotate(-0 375.242486 274.080898)">90°</text>
     </g>
    </g>
   </g>
   <g id="matplotlib.axis_2">
    <g id="ytick_1">
     <g id="line2d_8">
      <path d="M 194.922486 272.278125 
C 194.922486 272.278125 194.922486 272.278125 194.922486 272.278125 
C 194.922486 272.278125 194.922486 272.278125 194.922486 272.278125 
C 194.922486 272.278125 194.922486 272.278125 194.922486 272.278125 
C 194.922486 272.278125 194.922486 272.278125 194.922486 272.278125 
" clip-path="url(#p004056d1ad)" style="fill: none; stroke-dasharray: 0.4,0.66; stroke-dashoffset: 0; stroke: #b0b0b0; stroke-opacity: 0.7; stroke-width: 0.4"/>
     </g>
     <g id="text_8">
      <text style="font-size: 10px; font-family: sans-serif; text-anchor: middle" x="194.922486" y="286.875781" transform="rotate(-0 194.922486 286.875781)">-40</text>
     </g>
    </g>
    <g id="ytick_2">
     <g id="line2d_9">
      <path d="M 153.342486 272.278125 
C 153.342486 261.254653 157.726214 250.671397 165.520986 242.876625 
C 173.315758 235.081853 183.899014 230.698125 194.922486 230.698125 
C 205.945958 230.698125 216.529214 235.081853 224.323986 242.876625 
C 232.118758 250.671397 236.502486 261.254653 236.502486 272.278125 
" clip-path="url(#p004056d1ad)" style="fill: none; stroke-dasharray: 0.4,0.66; stroke-dashoffset: 0; stroke: #b0b0b0; stroke-opacity: 0.7; stroke-width: 0.4"/>
     </g>
     <g id="text_9">
      <text style="font-size: 10px; font-family: sans-serif; text-anchor: middle" x="153.342486" y="286.875781" transform="rotate(-0 153.342486 286.875781)">-30</text>
     </g>
    </g>
    <g id="ytick_3">
     <g id="line2d_10">
      <path d="M 111.762486 272.278125 
C 111.762486 250.23118 120.529942 229.064669 136.119486 213.475125 
C 151.70903 197.885581 172.875541 189.118125 194.922486 189.118125 
C 216.969431 189.118125 238.135942 197.885581 253.725486 213.475125 
C 269.31503 229.064669 278.082486 250.23118 278.082486 272.278125 
" clip-path="url(#p004056d1ad)" style="fill: none; stroke-dasharray: 0.4,0.66; stroke-dashoffset: 0; stroke: #b0b0b0; stroke-opacity: 0.7; stroke-width: 0.4"/>
     </g>
     <g id="text_10">
      <text style="font-size: 10px; font-family: sans-serif; text-anchor: middle" x="111.762486" y="286.875781" transform="rotate(-0 111.762486 286.875781)">-20</text>
     </g>
    </g>
    <g id="ytick_4">
     <g id="line2d_11">
      <path d="M 70.182486 272.278125 
C 70.182486 239.207708 83.33367 207.457941 106.717986 184.073625 
C 130.102302 160.689309 161.852069 147.538125 194.922486 147.538125 
C 227.992903 147.538125 259.74267 160.689309 283.126986 184.073625 
C 306.511302 207.457941 319.662486 239.207708 319.662486 272.278125 
" clip-path="url(#p004056d1ad)" style="fill: none; stroke-dasharray: 0.4,0.66; stroke-dashoffset: 0; stroke: #b0b0b0; stroke-opacity: 0.7; stroke-width: 0.4"/>
     </g>
     <g id="text_11">
      <text style="font-size: 10px; font-family: sans-serif; text-anchor: middle" x="70.182486" y="286.875781" transform="rotate(-0 70.182486 286.875781)">-10</text>
     </g>
    </g>
    <g id="ytick_5">
     <g id="line2d_12">
      <path d="M 28.602486 272.278125 
C 28.602486 228.184236 46.137398 185.851213 77.316486 154.672125 
C 108.495574 123.493037 150.828597 105.958125 194.922486 105.958125 
C 239.016375 105.958125 281.349398 123.493037 312.528486 154.672125 
C 343.707574 185.851213 361.242486 228.184236 361.242486 272.278125 
" clip-path="url(#p004056d1ad)" style="fill: none; stroke-dasharray: 0.4,0.66; stroke-dashoffset: 0; stroke: #b0b0b0; stroke-opacity: 0.7; stroke-width: 0.4"/>
     </g>
     <g id="text_12">
      <text style="font-size: 10px; font-family: sans-serif; text-anchor: middle" x="28.602486" y="286.876562" transform="rotate(-0 28.602486 286.876562)">0 dB</text>
     </g>
    </g>
   </g>
   <g id="line2d_13">
    <path d="M 82.308547 272.278125 
L 82.206961 264.396288 
L 81.844596 254.368347 
L 81.154629 236.407257 
L 81.109461 228.589398 
L 81.30233 221.691172 
L 81.67584 215.81543 
L 82.279898 209.839319 
L 83.146018 203.781417 
L 84.046486 198.890902 
L 85.145133 193.9747 
L 86.452833 189.046433 
L 87.978793 184.120548 
L 89.73055 179.212162 
L 91.713981 174.336911 
L 93.93333 169.510813 
L 96.391236 164.750135 
L 99.08878 160.071272 
L 102.025521 155.490634 
L 105.199551 151.024537 
L 108.607543 146.689103 
L 112.244805 142.500162 
L 116.105341 138.473164 
L 120.181901 134.623091 
L 124.46605 130.964377 
L 128.948229 127.51083 
L 133.617818 124.275563 
L 138.463207 121.270924 
L 143.471866 118.508432 
L 148.630418 115.998723 
L 153.924711 113.751492 
L 157.975604 112.243597 
L 162.088018 110.891561 
L 166.255284 109.698343 
L 170.470574 108.66656 
L 174.726925 107.798477 
L 179.017256 107.096001 
L 183.334393 106.560677 
L 187.671083 106.193684 
L 192.020018 105.995831 
L 196.373856 105.967552 
L 200.725243 106.108911 
L 205.066828 106.419595 
L 209.391291 106.898921 
L 213.69136 107.545834 
L 217.959829 108.358909 
L 222.189586 109.336359 
L 226.373625 110.476039 
L 230.505073 111.775448 
L 234.577204 113.231739 
L 239.903138 115.41195 
L 245.09698 117.856911 
L 250.144398 120.557169 
L 255.031814 123.502317 
L 259.746479 126.681054 
L 264.276545 130.081231 
L 268.611141 133.689922 
L 272.740434 137.493486 
L 276.655702 141.477637 
L 280.349395 145.627523 
L 283.815197 149.927805 
L 287.048083 154.362737 
L 290.044382 158.916264 
L 292.801824 163.572107 
L 295.319599 168.313871 
L 297.598401 173.125146 
L 299.640477 177.989622 
L 301.449666 182.891208 
L 303.031434 187.814158 
L 304.392901 192.743213 
L 305.542856 197.663743 
L 306.491759 202.561905 
L 307.413762 208.633623 
L 308.067821 214.627697 
L 308.484761 220.524815 
L 308.72026 227.45199 
L 308.727252 234.199583 
L 308.497063 242.905742 
L 307.542921 270.312328 
L 307.536424 272.278125 
L 307.536424 272.278125 
" clip-path="url(#p004056d1ad)" style="fill: none; stroke: #1f77b4; stroke-width: 1.6; stroke-linecap: square"/>
   </g>
   <g id="line2d_14">
    <path d="M 131.027723 272.278125 
L 131.151959 270.051209 
L 131.53122 267.845376 
L 132.185494 265.684201 
L 132.876843 264.109661 
L 133.762549 262.591343 
L 134.869313 261.147927 
L 136.231293 259.802927 
L 137.892191 258.586363 
L 139.192785 257.865444 
L 140.671963 257.233123 
L 142.355286 256.707011 
L 144.274449 256.30886 
L 146.469547 256.065998 
L 148.992534 256.013476 
L 151.912714 256.19743 
L 155.325841 256.680592 
L 159.370117 257.551852 
L 164.256426 258.944143 
L 170.331266 261.071261 
L 173.992727 262.518418 
L 178.226664 264.314627 
L 183.224973 266.572867 
L 194.922486 272.278125 
L 194.922486 272.278125 
L 184.610077 266.081805 
L 178.138315 261.992772 
L 172.759603 258.429218 
L 168.172615 255.236577 
L 160.682276 249.615024 
L 154.772331 244.683688 
L 149.980441 240.221276 
L 146.036779 236.104605 
L 142.770457 232.260466 
L 140.066738 228.643893 
L 137.845188 225.227232 
L 136.047568 221.994195 
L 134.630689 218.936449 
L 133.562008 216.051606 
L 132.816808 213.342037 
L 132.376365 210.814223 
L 132.22676 208.478491 
L 132.35814 206.349061 
L 132.764322 204.444393 
L 133.44271 202.78788 
L 134.394513 201.408974 
L 135.625335 200.344929 
L 136.348591 199.945389 
L 137.146285 199.643486 
L 138.020975 199.447513 
L 138.975861 199.367064 
L 140.014932 199.41334 
L 141.143154 199.599529 
L 142.366723 199.941323 
L 143.693412 200.457613 
L 145.133054 201.171447 
L 146.698218 202.11138 
L 148.405203 203.313417 
L 150.275518 204.823915 
L 152.338181 206.704045 
L 154.633426 209.036969 
L 157.219024 211.939973 
L 160.181726 215.586358 
L 163.659841 220.248346 
L 167.892975 226.391121 
L 173.350825 234.914913 
L 181.164295 247.960606 
L 194.922486 272.278125 
L 194.922486 272.278125 
L 186.498929 256.435718 
L 176.329096 236.560555 
L 170.179136 223.716566 
L 165.881973 214.031868 
L 162.671746 206.15431 
L 160.186039 199.451649 
L 158.22368 193.577281 
L 156.660927 188.320796 
L 155.415962 183.545019 
L 154.431687 179.155664 
L 153.666549 175.085228 
L 153.089266 171.283798 
L 152.675626 167.713477 
L 152.406444 164.344864 
L 152.242165 158.124422 
L 152.501631 152.485326 
L 153.117157 147.335167 
L 154.038026 142.609184 
L 155.224683 138.260589 
L 156.64522 134.254764 
L 158.273137 130.565606 
L 160.085858 127.173128 
L 162.063727 124.06184 
L 164.189286 121.219621 
L 166.446771 118.636916 
L 168.821729 116.306153 
L 171.300736 114.221306 
L 173.871179 112.377577 
L 176.52109 110.771147 
L 179.239009 109.398993 
L 182.01388 108.258736 
L 184.834961 107.348542 
L 187.691749 106.66703 
L 190.573923 106.213215 
L 193.471281 105.986462 
L 196.373691 105.986462 
L 199.271049 106.213215 
L 202.153223 106.66703 
L 205.010011 107.348542 
L 207.831092 108.258736 
L 210.605963 109.398993 
L 213.323882 110.771147 
L 215.973793 112.377577 
L 218.544236 114.221306 
L 221.023243 116.306153 
L 223.398201 118.636916 
L 225.655686 121.219621 
L 227.781245 124.06184 
L 229.759114 127.173128 
L 231.571835 130.565606 
L 233.199751 134.254764 
L 234.620289 138.260589 
L 235.806946 142.609184 
L 236.727815 147.335167 
L 237.343341 152.485326 
L 237.602807 158.124422 
L 237.578762 161.154728 
L 237.438528 164.344864 
L 237.169346 167.713477 
L 236.755706 171.283798 
L 236.178423 175.085228 
L 235.413284 179.155664 
L 234.42901 183.545019 
L 233.184045 188.320796 
L 231.621292 193.577281 
L 229.658933 199.451649 
L 227.173225 206.15431 
L 223.962999 214.031868 
L 219.665836 223.716566 
L 213.515876 236.560555 
L 203.346043 256.435718 
L 194.922486 272.278125 
L 194.922486 272.278125 
L 208.680676 247.960606 
L 216.494146 234.914913 
L 221.951997 226.391121 
L 226.185131 220.248346 
L 229.663245 215.586358 
L 232.625948 211.939973 
L 235.211546 209.036969 
L 237.506791 206.704045 
L 239.569454 204.823915 
L 241.439769 203.313417 
L 243.146754 202.11138 
L 244.711918 201.171447 
L 246.151559 200.457613 
L 247.478249 199.941323 
L 248.701818 199.599529 
L 249.830039 199.41334 
L 250.86911 199.367064 
L 251.823997 199.447513 
L 252.698686 199.643486 
L 253.496381 199.945389 
L 254.219637 200.344929 
L 255.450459 201.408974 
L 256.402262 202.78788 
L 257.08065 204.444393 
L 257.486832 206.349061 
L 257.618212 208.478491 
L 257.468607 210.814223 
L 257.028164 213.342037 
L 256.282964 216.051606 
L 255.214283 218.936449 
L 253.797404 221.994195 
L 251.999783 225.227232 
L 249.778234 228.643893 
L 247.074515 232.260466 
L 243.808193 236.104605 
L 239.864531 240.221276 
L 235.072641 244.683688 
L 229.162696 249.615024 
L 225.656177 252.319433 
L 221.672357 255.236577 
L 217.085369 258.429218 
L 211.706656 261.992772 
L 205.234894 266.081805 
L 194.922486 272.278125 
L 194.922486 272.278125 
L 200.547138 269.473777 
L 206.619998 266.572867 
L 215.852245 262.518418 
L 222.729676 259.897567 
L 228.154323 258.172047 
L 232.586857 257.060731 
L 236.294698 256.396821 
L 239.447219 256.072447 
L 242.158759 256.013372 
L 244.510383 256.16604 
L 246.56186 256.490384 
L 248.358681 256.955543 
L 249.936396 257.537192 
L 251.323403 258.215797 
L 253.095748 259.381423 
L 254.551959 260.68733 
L 255.73958 262.100834 
L 256.695671 263.59647 
L 257.449238 265.154101 
L 258.022789 266.757564 
L 258.536187 268.944272 
L 258.786292 271.163378 
L 258.817249 272.278125 
L 258.817249 272.278125 
" clip-path="url(#p004056d1ad)" style="fill: none; stroke: #ff7f0e; stroke-width: 1.6; stroke-linecap: square"/>
   </g>
   <g id="line2d_15">
    <path d="M 190.509611 272.278125 
L 190.329548 272.197955 
L 187.754514 271.776892 
L 183.750798 271.005272 
L 179.823093 270.021506 
L 175.644493 268.70516 
L 172.541373 267.520872 
L 169.596586 266.197914 
L 166.913815 264.773224 
L 164.586896 263.292314 
L 162.704656 261.809917 
L 161.356549 260.391803 
L 160.801888 259.520956 
L 160.559837 258.742318 
L 160.667836 258.089384 
L 160.866744 257.82232 
L 161.587175 257.436288 
L 162.79206 257.295461 
L 164.565286 257.471929 
L 167.023463 258.062863 
L 170.338046 259.206347 
L 174.779386 261.112622 
L 180.815544 264.133478 
L 184.688615 266.249914 
L 189.37534 268.945064 
L 194.922486 272.278125 
L 194.922486 272.278125 
L 187.9866 267.238909 
L 182.374971 262.993452 
L 177.789979 259.367855 
L 170.766609 253.405485 
L 165.769767 248.670719 
L 162.258625 244.869891 
L 159.947147 241.874527 
L 158.680969 239.646116 
L 158.4148 238.824994 
L 158.388201 238.209353 
L 158.60224 237.811499 
L 159.062089 237.648142 
L 159.777579 237.741321 
L 160.764195 238.119834 
L 162.044696 238.821443 
L 163.651727 239.896306 
L 165.632083 241.412481 
L 168.053941 243.465138 
L 171.019785 246.192904 
L 174.69131 249.809128 
L 179.342449 254.668096 
L 185.489824 261.427089 
L 194.922486 272.278125 
L 193.350186 270.301473 
L 183.990084 258.285289 
L 177.581329 249.678689 
L 172.839049 242.972415 
L 169.193242 237.507047 
L 166.340511 232.938412 
L 164.100356 229.067093 
L 162.357172 225.770037 
L 161.033145 222.968828 
L 160.074238 220.613473 
L 159.442428 218.673605 
L 159.111217 217.133606 
L 159.063033 215.990059 
L 159.287836 215.250764 
L 159.782608 214.935055 
L 160.551655 215.075457 
L 161.607837 215.721074 
L 162.975104 216.943637 
L 164.693233 218.848101 
L 166.826637 221.591872 
L 169.481725 225.422072 
L 172.844382 230.755251 
L 177.273383 238.374513 
L 183.592357 250.041495 
L 194.922486 272.278125 
L 193.195523 268.657472 
L 182.412127 245.449575 
L 176.349447 231.523311 
L 172.315124 221.501158 
L 169.450207 213.695894 
L 167.366817 207.361036 
L 165.855598 202.104449 
L 164.790415 197.698633 
L 164.08951 194.004055 
L 163.69723 190.933552 
L 163.574579 188.43434 
L 163.694018 186.478614 
L 164.036556 185.058949 
L 164.590235 184.186871 
L 165.349618 183.894139 
L 166.31622 184.237093 
L 167.500115 185.305475 
L 168.923441 187.239082 
L 170.627591 190.259935 
L 172.688605 194.739369 
L 175.254155 201.356413 
L 178.650928 211.551844 
L 183.82293 229.359326 
L 194.922486 272.278125 
L 188.641078 246.114179 
L 181.33833 213.438683 
L 177.897042 195.481311 
L 175.892453 182.748858 
L 174.67637 172.765288 
L 173.97409 164.507969 
L 173.641167 157.454403 
L 173.591028 151.301415 
L 173.766912 145.857398 
L 174.129055 140.99357 
L 174.648134 136.619272 
L 175.30161 132.668337 
L 176.071553 129.091076 
L 176.943287 125.849303 
L 177.904493 122.913121 
L 178.944607 120.258765 
L 180.054397 117.867119 
L 181.225658 115.722663 
L 182.450988 113.812714 
L 183.723619 112.126867 
L 185.037289 110.656577 
L 186.386135 109.39485 
L 187.764618 108.336 
L 189.16745 107.475469 
L 190.589543 106.809692 
L 192.025955 106.33599 
L 193.471857 106.0525 
L 194.922486 105.958125 
L 196.373115 106.0525 
L 197.819017 106.33599 
L 199.255429 106.809692 
L 200.677521 107.475469 
L 202.080354 108.336 
L 203.458837 109.39485 
L 204.807683 110.656577 
L 206.121353 112.126867 
L 207.393984 113.812714 
L 208.619314 115.722663 
L 209.790575 117.867119 
L 210.900365 120.258765 
L 211.940479 122.913121 
L 212.901685 125.849303 
L 213.773419 129.091076 
L 214.543362 132.668337 
L 215.196837 136.619272 
L 215.715917 140.99357 
L 216.07806 145.857398 
L 216.253944 151.301415 
L 216.203805 157.454403 
L 215.870882 164.507969 
L 215.168602 172.765288 
L 213.952519 182.748858 
L 211.94793 195.481311 
L 208.506642 213.438683 
L 201.203894 246.114179 
L 194.922486 272.278125 
L 206.022042 229.359326 
L 211.194044 211.551844 
L 214.590817 201.356413 
L 217.156367 194.739369 
L 219.217381 190.259935 
L 220.92153 187.239082 
L 222.344857 185.305475 
L 223.528751 184.237093 
L 224.495354 183.894139 
L 225.254737 184.186871 
L 225.808416 185.058949 
L 226.150954 186.478614 
L 226.270393 188.43434 
L 226.147742 190.933552 
L 225.755462 194.004055 
L 225.054557 197.698633 
L 223.989374 202.104449 
L 222.478155 207.361036 
L 220.394765 213.695894 
L 217.529848 221.501158 
L 213.495525 231.523311 
L 207.432844 245.449575 
L 194.922486 272.278125 
L 195.357834 271.404951 
L 206.252615 250.041495 
L 212.571589 238.374513 
L 217.00059 230.755251 
L 220.363247 225.422072 
L 223.018335 221.591872 
L 225.151739 218.848101 
L 226.869868 216.943637 
L 228.237135 215.721074 
L 229.293317 215.075457 
L 230.062364 214.935055 
L 230.557136 215.250764 
L 230.781939 215.990059 
L 230.733755 217.133606 
L 230.402544 218.673605 
L 229.770734 220.613473 
L 228.811827 222.968828 
L 227.4878 225.770037 
L 225.744616 229.067093 
L 223.504461 232.938412 
L 220.65173 237.507047 
L 217.005923 242.972415 
L 212.263643 249.678689 
L 205.854888 258.285289 
L 194.922486 272.278125 
L 195.551311 271.541866 
L 204.355148 261.427089 
L 210.502523 254.668096 
L 215.153662 249.809128 
L 218.825187 246.192904 
L 221.791031 243.465138 
L 224.212888 241.412481 
L 226.193245 239.896306 
L 227.800276 238.821443 
L 229.080777 238.119834 
L 230.067393 237.741321 
L 230.782883 237.648142 
L 231.242732 237.811499 
L 231.456771 238.209353 
L 231.430172 238.824994 
L 231.164003 239.646116 
L 230.655463 240.664257 
L 229.897825 241.874527 
L 227.586347 244.869891 
L 224.075205 248.670719 
L 219.078363 253.405485 
L 215.870296 256.204305 
L 212.054993 259.367855 
L 207.470001 262.993452 
L 201.858372 267.238909 
L 194.922486 272.278125 
L 194.922486 272.278125 
L 205.156357 266.249914 
L 212.28888 262.452692 
L 217.449912 260.046731 
L 221.285088 258.554623 
L 224.145283 257.708176 
L 226.243671 257.338686 
L 227.720562 257.331181 
L 228.674232 257.602448 
L 229.177136 258.089384 
L 229.285134 258.742318 
L 229.043084 259.520956 
L 228.488423 260.391803 
L 227.653592 261.32645 
L 225.939243 262.795351 
L 223.750775 264.283333 
L 221.176549 265.732252 
L 218.308158 267.093646 
L 215.245514 268.327729 
L 211.056422 269.72276 
L 207.033222 270.791114 
L 202.779685 271.65975 
L 199.335361 272.278125 
L 199.335361 272.278125 
" clip-path="url(#p004056d1ad)" style="fill: none; stroke: #2ca02c; stroke-width: 1.6; stroke-linecap: square"/>
   </g>
   <g id="patch_3">
    <path d="M 361.242486 272.278125 
C 361.242486 228.184236 343.707574 185.851213 312.528486 154.672125 
C 281.349398 123.493037 239.016375 105.958125 194.922486 105.958125 
C 150.828597 105.958125 108.495574 123.493037 77.316486 154.672125 
C 46.137398 185.851213 28.602486 228.184236 28.602486 272.278125 
" style="fill: none; stroke: #000000; stroke-width: 0.8; stroke-linejoin: miter; stroke-linecap: square"/>
   </g>
   <g id="patch_4">
    <path d="M 194.922486 272.278125 
L 28.602486 272.278125 
" style="fill: none; stroke: #000000; stroke-width: 0.8; stroke-linejoin: miter; stroke-linecap: square"/>
   </g>
   <g id="patch_5">
    <path d="M 194.922486 272.278125 
L 361.242486 272.278125 
" style="fill: none; stroke: #000000; stroke-width: 0.8; stroke-linejoin: miter; stroke-linecap: square"/>
   </g>
   <g id="text_13">
    <text style="font-size: 12px; font-family: sans-serif; text-anchor: middle" x="194.922486" y="16.798125" transform="rotate(-0 194.922486 16.798125)">Directividad de un pistón circular con pantalla</text>
   </g>
   <g id="legend_1">
    <g id="patch_6">
     <path d="M 97.628086 391.189925 
L 292.216886 391.189925 
Q 293.882886 391.189925 293.882886 389.523925 
L 293.882886 377.859973 
Q 293.882886 376.193973 292.216886 376.193973 
L 97.628086 376.193973 
Q 95.962086 376.193973 95.962086 377.859973 
L 95.962086 389.523925 
Q 95.962086 391.189925 97.628086 391.189925 
z
" style="fill: #ffffff; opacity: 0.8; stroke: #cccccc; stroke-linejoin: miter"/>
    </g>
    <g id="line2d_16">
     <path d="M 99.294086 382.941273 
L 107.624086 382.941273 
L 115.954086 382.941273 
" style="fill: none; stroke: #1f77b4; stroke-width: 1.6; stroke-linecap: square"/>
    </g>
    <g id="text_14">
     <!-- $ka$ = 3 -->
     <g transform="translate(122.618086 385.856773)">
      <text>
       <tspan x="0" y="-0.671875" style="font-style: oblique; font-size: 8.33px; font-family: sans-serif">k</tspan>
       <tspan x="4.82283" y="-0.671875" style="font-style: oblique; font-size: 8.33px; font-family: sans-serif">a</tspan>
       <tspan x="9.926254" y="-0.671875" style="font-size: 8.33px; font-family: sans-serif"> </tspan>
       <tspan x="12.573532" y="-0.671875" style="font-size: 8.33px; font-family: sans-serif">=</tspan>
       <tspan x="19.55159" y="-0.671875" style="font-size: 8.33px; font-family: sans-serif"> </tspan>
       <tspan x="22.198868" y="-0.671875" style="font-size: 8.33px; font-family: sans-serif">3</tspan>
      </text>
     </g>
    </g>
    <g id="line2d_17">
     <path d="M 166.850386 382.941273 
L 175.180386 382.941273 
L 183.510386 382.941273 
" style="fill: none; stroke: #ff7f0e; stroke-width: 1.6; stroke-linecap: square"/>
    </g>
    <g id="text_15">
     <!-- $ka$ = 8 -->
     <g transform="translate(190.174386 385.856773)">
      <text>
       <tspan x="0" y="-0.671875" style="font-style: oblique; font-size: 8.33px; font-family: sans-serif">k</tspan>
       <tspan x="4.82283" y="-0.671875" style="font-style: oblique; font-size: 8.33px; font-family: sans-serif">a</tspan>
       <tspan x="9.926254" y="-0.671875" style="font-size: 8.33px; font-family: sans-serif"> </tspan>
       <tspan x="12.573532" y="-0.671875" style="font-size: 8.33px; font-family: sans-serif">=</tspan>
       <tspan x="19.55159" y="-0.671875" style="font-size: 8.33px; font-family: sans-serif"> </tspan>
       <tspan x="22.198868" y="-0.671875" style="font-size: 8.33px; font-family: sans-serif">8</tspan>
      </text>
     </g>
    </g>
    <g id="line2d_18">
     <path d="M 234.406686 382.941273 
L 242.736686 382.941273 
L 251.066686 382.941273 
" style="fill: none; stroke: #2ca02c; stroke-width: 1.6; stroke-linecap: square"/>
    </g>
    <g id="text_16">
     <!-- $ka$ = 16 -->
     <g transform="translate(257.730686 385.856773)">
      <text>
       <tspan x="0" y="-0.671875" style="font-style: oblique; font-size: 8.33px; font-family: sans-serif">k</tspan>
       <tspan x="4.82283" y="-0.671875" style="font-style: oblique; font-size: 8.33px; font-family: sans-serif">a</tspan>
       <tspan x="9.926254" y="-0.671875" style="font-size: 8.33px; font-family: sans-serif"> </tspan>
       <tspan x="12.573532" y="-0.671875" style="font-size: 8.33px; font-family: sans-serif">=</tspan>
       <tspan x="19.55159" y="-0.671875" style="font-size: 8.33px; font-family: sans-serif"> </tspan>
       <tspan x="22.198868" y="-0.671875" style="font-size: 8.33px; font-family: sans-serif">1</tspan>
       <tspan x="27.497482" y="-0.671875" style="font-size: 8.33px; font-family: sans-serif">6</tspan>
      </text>
     </g>
    </g>
   </g>
  </g>
 </g>
 <defs>
  <clipPath id="p004056d1ad">
   <path d="M 361.242486 272.278125 
C 361.242486 228.184236 343.707574 185.851213 312.528486 154.672125 
C 281.349398 123.493037 239.016375 105.958125 194.922486 105.958125 
C 150.828597 105.958125 108.495574 123.493037 77.316486 154.672125 
C 46.137398 185.851213 28.602486 228.184236 28.602486 272.278125 
L 194.922486 272.278125 
C 194.922486 272.278125 194.922486 272.278125 194.922486 272.278125 
C 194.922486 272.278125 194.922486 272.278125 194.922486 272.278125 
C 194.922486 272.278125 194.922486 272.278125 194.922486 272.278125 
C 194.922486 272.278125 194.922486 272.278125 194.922486 272.278125 
z
"/>
  </clipPath>
 </defs>
</svg>
