<?xml version="1.0" encoding="utf-8" standalone="no"?><svg xmlns:xlink="http://www.w3.org/1999/xlink" width="912.558471pt" height="421.3614pt" viewBox="0 0 912.558471 421.3614" xmlns="http://www.w3.org/2000/svg" version="1.1"><defs><style type="text/css">*{stroke-linejoin: round; stroke-linecap: butt}</style></defs><g id="figure_1"><g id="patch_1"><path d="M 0 421.36 
L 912.56 421.36 
L 912.56 0 
L 0 0 
z
"/></g><g id="axes_1"><g id="patch_2"><path d="M 345.01 197.51 
C 345.01 176.8 340.93 156.29 333 137.16 
C 325.07 118.02 313.45 100.63 298.81 85.99 
C 284.16 71.34 266.78 59.72 247.64 51.8 
C 228.5 43.87 207.99 39.79 187.28 39.79 
C 166.57 39.79 146.06 43.87 126.92 51.8 
C 107.79 59.72 90.4 71.34 75.75 85.99 
C 61.11 100.63 49.49 118.02 41.56 137.16 
C 33.64 156.29 29.56 176.8 29.56 197.51 
C 29.56 218.23 33.64 238.74 41.56 257.87 
C 49.49 277.01 61.11 294.4 75.75 309.04 
C 90.4 323.69 107.79 335.3 126.92 343.23 
C 146.06 351.16 166.57 355.24 187.28 355.24 
C 207.99 355.24 228.5 351.16 247.64 343.23 
C 266.78 335.3 284.16 323.69 298.81 309.04 
C 313.45 294.4 325.07 277.01 333 257.87 
C 340.93 238.74 345.01 218.23 345.01 197.51 
M 187.28 197.51 
C 187.28 197.51 187.28 197.51 187.28 197.51 
C 187.28 197.51 187.28 197.51 187.28 197.51 
C 187.28 197.51 187.28 197.51 187.28 197.51 
C 187.28 197.51 187.28 197.51 187.28 197.51 
C 187.28 197.51 187.28 197.51 187.28 197.51 
C 187.28 197.51 187.28 197.51 187.28 197.51 
C 187.28 197.51 187.28 197.51 187.28 197.51 
C 187.28 197.51 187.28 197.51 187.28 197.51 
C 187.28 197.51 187.28 197.51 187.28 197.51 
C 187.28 197.51 187.28 197.51 187.28 197.51 
C 187.28 197.51 187.28 197.51 187.28 197.51 
C 187.28 197.51 187.28 197.51 187.28 197.51 
C 187.28 197.51 187.28 197.51 187.28 197.51 
C 187.28 197.51 187.28 197.51 187.28 197.51 
C 187.28 197.51 187.28 197.51 187.28 197.51 
C 187.28 197.51 187.28 197.51 187.28 197.51 
z
"/></g><g id="matplotlib.axis_1"><g id="xtick_1"><g id="line2d_1"><path d="M 187.28 197.51 
L 187.28 39.79 
" clip-path="url(#p982757ed48)" style="fill: none; stroke-dasharray: 0.4,0.66; stroke-dashoffset: 0; stroke: #ffffff; stroke-opacity: 0.7; stroke-width: 0.4"/></g><g id="text_1"><!-- 0° --><g style="fill: #ffffff" transform="translate(183.34 27.59) scale(0.0694 -0.0694)"><defs><path id="DejaVuSans-13" d="M 2034 4250 
Q 1547 4250 1301 3770 
Q 1056 3291 1056 2328 
Q 1056 1369 1301 889 
Q 1547 409 2034 409 
Q 2525 409 2770 889 
Q 3016 1369 3016 2328 
Q 3016 3291 2770 3770 
Q 2525 4250 2034 4250 
z
M 2034 4750 
Q 2819 4750 3233 4129 
Q 3647 3509 3647 2328 
Q 3647 1150 3233 529 
Q 2819 -91 2034 -91 
Q 1250 -91 836 529 
Q 422 1150 422 2328 
Q 422 3509 836 4129 
Q 1250 4750 2034 4750 
z
" transform="scale(0.015625)"/><path id="DejaVuSans-72" d="M 1600 4347 
Q 1350 4347 1178 4173 
Q 1006 4000 1006 3750 
Q 1006 3503 1178 3333 
Q 1350 3163 1600 3163 
Q 1850 3163 2022 3333 
Q 2194 3503 2194 3750 
Q 2194 3997 2020 4172 
Q 1847 4347 1600 4347 
z
M 1600 4750 
Q 1800 4750 1984 4673 
Q 2169 4597 2303 4453 
Q 2447 4313 2519 4134 
Q 2591 3956 2591 3750 
Q 2591 3338 2302 3052 
Q 2013 2766 1594 2766 
Q 1172 2766 890 3047 
Q 609 3328 609 3750 
Q 609 4169 896 4459 
Q 1184 4750 1600 4750 
z
" transform="scale(0.015625)"/></defs><use xlink:href="#DejaVuSans-13"/><use xlink:href="#DejaVuSans-72" transform="translate(63.62 0)"/></g></g></g><g id="xtick_2"><g id="line2d_2"><path d="M 187.28 197.51 
L 298.81 85.99 
" clip-path="url(#p982757ed48)" style="fill: none; stroke-dasharray: 0.4,0.66; stroke-dashoffset: 0; stroke: #ffffff; stroke-opacity: 0.7; stroke-width: 0.4"/></g><g id="text_2"><!-- 45° --><g style="fill: #ffffff" transform="translate(302.56 77.89) scale(0.0694 -0.0694)"><defs><path id="DejaVuSans-17" d="M 2419 4116 
L 825 1625 
L 2419 1625 
L 2419 4116 
z
M 2253 4666 
L 3047 4666 
L 3047 1625 
L 3713 1625 
L 3713 1100 
L 3047 1100 
L 3047 0 
L 2419 0 
L 2419 1100 
L 313 1100 
L 313 1709 
L 2253 4666 
z
" transform="scale(0.015625)"/><path id="DejaVuSans-18" d="M 691 4666 
L 3169 4666 
L 3169 4134 
L 1269 4134 
L 1269 2991 
Q 1406 3038 1543 3061 
Q 1681 3084 1819 3084 
Q 2600 3084 3056 2656 
Q 3513 2228 3513 1497 
Q 3513 744 3044 326 
Q 2575 -91 1722 -91 
Q 1428 -91 1123 -41 
Q 819 9 494 109 
L 494 744 
Q 775 591 1075 516 
Q 1375 441 1709 441 
Q 2250 441 2565 725 
Q 2881 1009 2881 1497 
Q 2881 1984 2565 2268 
Q 2250 2553 1709 2553 
Q 1456 2553 1204 2497 
Q 953 2441 691 2322 
L 691 4666 
z
" transform="scale(0.015625)"/></defs><use xlink:href="#DejaVuSans-17"/><use xlink:href="#DejaVuSans-18" transform="translate(63.62 0)"/><use xlink:href="#DejaVuSans-72" transform="translate(127.25 0)"/></g></g></g><g id="xtick_3"><g id="line2d_3"><path d="M 187.28 197.51 
L 345.01 197.51 
" clip-path="url(#p982757ed48)" style="fill: none; stroke-dasharray: 0.4,0.66; stroke-dashoffset: 0; stroke: #ffffff; stroke-opacity: 0.7; stroke-width: 0.4"/></g><g id="text_3"><!-- 90° --><g style="fill: #ffffff" transform="translate(352.85 199.32) scale(0.0694 -0.0694)"><defs><path id="DejaVuSans-1c" d="M 703 97 
L 703 672 
Q 941 559 1184 500 
Q 1428 441 1663 441 
Q 2288 441 2617 861 
Q 2947 1281 2994 2138 
Q 2813 1869 2534 1725 
Q 2256 1581 1919 1581 
Q 1219 1581 811 2004 
Q 403 2428 403 3163 
Q 403 3881 828 4315 
Q 1253 4750 1959 4750 
Q 2769 4750 3195 4129 
Q 3622 3509 3622 2328 
Q 3622 1225 3098 567 
Q 2575 -91 1691 -91 
Q 1453 -91 1209 -44 
Q 966 3 703 97 
z
M 1959 2075 
Q 2384 2075 2632 2365 
Q 2881 2656 2881 3163 
Q 2881 3666 2632 3958 
Q 2384 4250 1959 4250 
Q 1534 4250 1286 3958 
Q 1038 3666 1038 3163 
Q 1038 2656 1286 2365 
Q 1534 2075 1959 2075 
z
" transform="scale(0.015625)"/></defs><use xlink:href="#DejaVuSans-1c"/><use xlink:href="#DejaVuSans-13" transform="translate(63.62 0)"/><use xlink:href="#DejaVuSans-72" transform="translate(127.25 0)"/></g></g></g><g id="xtick_4"><g id="line2d_4"><path d="M 187.28 197.51 
L 298.81 309.04 
" clip-path="url(#p982757ed48)" style="fill: none; stroke-dasharray: 0.4,0.66; stroke-dashoffset: 0; stroke: #ffffff; stroke-opacity: 0.7; stroke-width: 0.4"/></g><g id="text_4"><!-- 135° --><g style="fill: #ffffff" transform="translate(300.35 320.74) scale(0.0694 -0.0694)"><defs><path id="DejaVuSans-14" d="M 794 531 
L 1825 531 
L 1825 4091 
L 703 3866 
L 703 4441 
L 1819 4666 
L 2450 4666 
L 2450 531 
L 3481 531 
L 3481 0 
L 794 0 
L 794 531 
z
" transform="scale(0.015625)"/><path id="DejaVuSans-16" d="M 2597 2516 
Q 3050 2419 3304 2112 
Q 3559 1806 3559 1356 
Q 3559 666 3084 287 
Q 2609 -91 1734 -91 
Q 1441 -91 1130 -33 
Q 819 25 488 141 
L 488 750 
Q 750 597 1062 519 
Q 1375 441 1716 441 
Q 2309 441 2620 675 
Q 2931 909 2931 1356 
Q 2931 1769 2642 2001 
Q 2353 2234 1838 2234 
L 1294 2234 
L 1294 2753 
L 1863 2753 
Q 2328 2753 2575 2939 
Q 2822 3125 2822 3475 
Q 2822 3834 2567 4026 
Q 2313 4219 1838 4219 
Q 1578 4219 1281 4162 
Q 984 4106 628 3988 
L 628 4550 
Q 988 4650 1302 4700 
Q 1616 4750 1894 4750 
Q 2613 4750 3031 4423 
Q 3450 4097 3450 3541 
Q 3450 3153 3228 2886 
Q 3006 2619 2597 2516 
z
" transform="scale(0.015625)"/></defs><use xlink:href="#DejaVuSans-14"/><use xlink:href="#DejaVuSans-16" transform="translate(63.62 0)"/><use xlink:href="#DejaVuSans-18" transform="translate(127.25 0)"/><use xlink:href="#DejaVuSans-72" transform="translate(190.88 0)"/></g></g></g><g id="xtick_5"><g id="line2d_5"><path d="M 187.28 197.51 
L 187.28 355.24 
" clip-path="url(#p982757ed48)" style="fill: none; stroke-dasharray: 0.4,0.66; stroke-dashoffset: 0; stroke: #ffffff; stroke-opacity: 0.7; stroke-width: 0.4"/></g><g id="text_5"><!-- 180° --><g style="fill: #ffffff" transform="translate(178.92 371.04) scale(0.0694 -0.0694)"><defs><path id="DejaVuSans-1b" d="M 2034 2216 
Q 1584 2216 1326 1975 
Q 1069 1734 1069 1313 
Q 1069 891 1326 650 
Q 1584 409 2034 409 
Q 2484 409 2743 651 
Q 3003 894 3003 1313 
Q 3003 1734 2745 1975 
Q 2488 2216 2034 2216 
z
M 1403 2484 
Q 997 2584 770 2862 
Q 544 3141 544 3541 
Q 544 4100 942 4425 
Q 1341 4750 2034 4750 
Q 2731 4750 3128 4425 
Q 3525 4100 3525 3541 
Q 3525 3141 3298 2862 
Q 3072 2584 2669 2484 
Q 3125 2378 3379 2068 
Q 3634 1759 3634 1313 
Q 3634 634 3220 271 
Q 2806 -91 2034 -91 
Q 1263 -91 848 271 
Q 434 634 434 1313 
Q 434 1759 690 2068 
Q 947 2378 1403 2484 
z
M 1172 3481 
Q 1172 3119 1398 2916 
Q 1625 2713 2034 2713 
Q 2441 2713 2670 2916 
Q 2900 3119 2900 3481 
Q 2900 3844 2670 4047 
Q 2441 4250 2034 4250 
Q 1625 4250 1398 4047 
Q 1172 3844 1172 3481 
z
" transform="scale(0.015625)"/></defs><use xlink:href="#DejaVuSans-14"/><use xlink:href="#DejaVuSans-1b" transform="translate(63.62 0)"/><use xlink:href="#DejaVuSans-13" transform="translate(127.25 0)"/><use xlink:href="#DejaVuSans-72" transform="translate(190.88 0)"/></g></g></g><g id="xtick_6"><g id="line2d_6"><path d="M 187.28 197.51 
L 75.75 309.04 
" clip-path="url(#p982757ed48)" style="fill: none; stroke-dasharray: 0.4,0.66; stroke-dashoffset: 0; stroke: #ffffff; stroke-opacity: 0.7; stroke-width: 0.4"/></g><g id="text_6"><!-- 225° --><g style="fill: #ffffff" transform="translate(57.5 320.74) scale(0.0694 -0.0694)"><defs><path id="DejaVuSans-15" d="M 1228 531 
L 3431 531 
L 3431 0 
L 469 0 
L 469 531 
Q 828 903 1448 1529 
Q 2069 2156 2228 2338 
Q 2531 2678 2651 2914 
Q 2772 3150 2772 3378 
Q 2772 3750 2511 3984 
Q 2250 4219 1831 4219 
Q 1534 4219 1204 4116 
Q 875 4013 500 3803 
L 500 4441 
Q 881 4594 1212 4672 
Q 1544 4750 1819 4750 
Q 2544 4750 2975 4387 
Q 3406 4025 3406 3419 
Q 3406 3131 3298 2873 
Q 3191 2616 2906 2266 
Q 2828 2175 2409 1742 
Q 1991 1309 1228 531 
z
" transform="scale(0.015625)"/></defs><use xlink:href="#DejaVuSans-15"/><use xlink:href="#DejaVuSans-15" transform="translate(63.62 0)"/><use xlink:href="#DejaVuSans-18" transform="translate(127.25 0)"/><use xlink:href="#DejaVuSans-72" transform="translate(190.88 0)"/></g></g></g><g id="xtick_7"><g id="line2d_7"><path d="M 187.28 197.51 
L 29.56 197.51 
" clip-path="url(#p982757ed48)" style="fill: none; stroke-dasharray: 0.4,0.66; stroke-dashoffset: 0; stroke: #ffffff; stroke-opacity: 0.7; stroke-width: 0.4"/></g><g id="text_7"><!-- 270° --><g style="fill: #ffffff" transform="translate(7.2 199.32) scale(0.0694 -0.0694)"><defs><path id="DejaVuSans-1a" d="M 525 4666 
L 3525 4666 
L 3525 4397 
L 1831 0 
L 1172 0 
L 2766 4134 
L 525 4134 
L 525 4666 
z
" transform="scale(0.015625)"/></defs><use xlink:href="#DejaVuSans-15"/><use xlink:href="#DejaVuSans-1a" transform="translate(63.62 0)"/><use xlink:href="#DejaVuSans-13" transform="translate(127.25 0)"/><use xlink:href="#DejaVuSans-72" transform="translate(190.88 0)"/></g></g></g><g id="xtick_8"><g id="line2d_8"><path d="M 187.28 197.51 
L 75.75 85.99 
" clip-path="url(#p982757ed48)" style="fill: none; stroke-dasharray: 0.4,0.66; stroke-dashoffset: 0; stroke: #ffffff; stroke-opacity: 0.7; stroke-width: 0.4"/></g><g id="text_8"><!-- 315° --><g style="fill: #ffffff" transform="translate(57.5 77.89) scale(0.0694 -0.0694)"><use xlink:href="#DejaVuSans-16"/><use xlink:href="#DejaVuSans-14" transform="translate(63.62 0)"/><use xlink:href="#DejaVuSans-18" transform="translate(127.25 0)"/><use xlink:href="#DejaVuSans-72" transform="translate(190.88 0)"/></g></g></g></g><g id="matplotlib.axis_2"><g id="ytick_1"><g id="line2d_9"><path d="M 187.28 176.01 
C 190.11 176.01 192.9 176.56 195.51 177.64 
C 198.12 178.72 200.49 180.31 202.49 182.31 
C 204.49 184.3 206.07 186.67 207.15 189.28 
C 208.23 191.89 208.79 194.69 208.79 197.51 
C 208.79 200.34 208.23 203.13 207.15 205.74 
C 206.07 208.35 204.49 210.72 202.49 212.72 
C 200.49 214.72 198.12 216.3 195.51 217.38 
C 192.9 218.46 190.11 219.02 187.28 219.02 
C 184.46 219.02 181.66 218.46 179.05 217.38 
C 176.44 216.3 174.07 214.72 172.07 212.72 
C 170.08 210.72 168.49 208.35 167.41 205.74 
C 166.33 203.13 165.77 200.34 165.77 197.51 
C 165.77 194.69 166.33 191.89 167.41 189.28 
C 168.49 186.67 170.08 184.3 172.07 182.31 
C 174.07 180.31 176.44 178.72 179.05 177.64 
C 181.66 176.56 184.46 176.01 187.28 176.01 
" clip-path="url(#p982757ed48)" style="fill: none; stroke-dasharray: 0.4,0.66; stroke-dashoffset: 0; stroke: #ffffff; stroke-opacity: 0.7; stroke-width: 0.4"/></g><g id="text_9"><!-- −15 --><g style="fill: #ffffff" transform="translate(195.51 175.98) scale(0.0694 -0.0694)"><defs><path id="DejaVuSans-c9c" d="M 678 2272 
L 4684 2272 
L 4684 1741 
L 678 1741 
L 678 2272 
z
" transform="scale(0.015625)"/></defs><use xlink:href="#DejaVuSans-c9c"/><use xlink:href="#DejaVuSans-14" transform="translate(83.8 0)"/><use xlink:href="#DejaVuSans-18" transform="translate(147.42 0)"/></g></g></g><g id="ytick_2"><g id="line2d_10"><path d="M 187.28 140.16 
C 194.81 140.16 202.27 141.64 209.23 144.53 
C 216.19 147.41 222.51 151.63 227.84 156.96 
C 233.16 162.28 237.39 168.61 240.27 175.57 
C 243.15 182.52 244.64 189.98 244.64 197.51 
C 244.64 205.05 243.15 212.5 240.27 219.46 
C 237.39 226.42 233.16 232.74 227.84 238.07 
C 222.51 243.39 216.19 247.62 209.23 250.5 
C 202.27 253.38 194.81 254.87 187.28 254.87 
C 179.75 254.87 172.29 253.38 165.33 250.5 
C 158.38 247.62 152.05 243.39 146.73 238.07 
C 141.4 232.74 137.18 226.42 134.29 219.46 
C 131.41 212.5 129.93 205.05 129.93 197.51 
C 129.93 189.98 131.41 182.52 134.29 175.57 
C 137.18 168.61 141.4 162.28 146.73 156.96 
C 152.05 151.63 158.38 147.41 165.33 144.53 
C 172.29 141.64 179.75 140.16 187.28 140.16 
" clip-path="url(#p982757ed48)" style="fill: none; stroke-dasharray: 0.4,0.66; stroke-dashoffset: 0; stroke: #ffffff; stroke-opacity: 0.7; stroke-width: 0.4"/></g><g id="text_10"><!-- −10 --><g style="fill: #ffffff" transform="translate(209.23 142.86) scale(0.0694 -0.0694)"><use xlink:href="#DejaVuSans-c9c"/><use xlink:href="#DejaVuSans-14" transform="translate(83.8 0)"/><use xlink:href="#DejaVuSans-13" transform="translate(147.42 0)"/></g></g></g><g id="ytick_3"><g id="line2d_11"><path d="M 187.28 104.31 
C 199.52 104.31 211.64 106.72 222.95 111.41 
C 234.26 116.09 244.53 122.96 253.18 131.61 
C 261.84 140.27 268.7 150.54 273.39 161.85 
C 278.07 173.15 280.48 185.27 280.48 197.51 
C 280.48 209.75 278.07 221.87 273.39 233.18 
C 268.7 244.49 261.84 254.76 253.18 263.42 
C 244.53 272.07 234.26 278.94 222.95 283.62 
C 211.64 288.3 199.52 290.71 187.28 290.71 
C 175.04 290.71 162.92 288.3 151.62 283.62 
C 140.31 278.94 130.03 272.07 121.38 263.42 
C 112.73 254.76 105.86 244.49 101.18 233.18 
C 96.49 221.87 94.08 209.75 94.08 197.51 
C 94.08 185.27 96.49 173.15 101.18 161.85 
C 105.86 150.54 112.73 140.27 121.38 131.61 
C 130.03 122.96 140.31 116.09 151.62 111.41 
C 162.92 106.72 175.04 104.31 187.28 104.31 
" clip-path="url(#p982757ed48)" style="fill: none; stroke-dasharray: 0.4,0.66; stroke-dashoffset: 0; stroke: #ffffff; stroke-opacity: 0.7; stroke-width: 0.4"/></g><g id="text_11"><!-- −5 --><g style="fill: #ffffff" transform="translate(222.95 109.74) scale(0.0694 -0.0694)"><use xlink:href="#DejaVuSans-c9c"/><use xlink:href="#DejaVuSans-18" transform="translate(83.8 0)"/></g></g></g><g id="ytick_4"><g id="line2d_12"><path d="M 187.28 68.47 
C 204.23 68.47 221.01 71.81 236.67 78.29 
C 252.32 84.78 266.55 94.28 278.53 106.26 
C 290.51 118.25 300.02 132.47 306.51 148.13 
C 312.99 163.79 316.33 180.57 316.33 197.51 
C 316.33 214.46 312.99 231.24 306.51 246.9 
C 300.02 262.55 290.51 276.78 278.53 288.76 
C 266.55 300.75 252.32 310.25 236.67 316.74 
C 221.01 323.22 204.23 326.56 187.28 326.56 
C 170.34 326.56 153.55 323.22 137.9 316.74 
C 122.24 310.25 108.02 300.75 96.03 288.76 
C 84.05 276.78 74.54 262.55 68.06 246.9 
C 61.57 231.24 58.24 214.46 58.24 197.51 
C 58.24 180.57 61.57 163.79 68.06 148.13 
C 74.54 132.47 84.05 118.25 96.03 106.26 
C 108.02 94.28 122.24 84.78 137.9 78.29 
C 153.55 71.81 170.34 68.47 187.28 68.47 
" clip-path="url(#p982757ed48)" style="fill: none; stroke-dasharray: 0.4,0.66; stroke-dashoffset: 0; stroke: #ffffff; stroke-opacity: 0.7; stroke-width: 0.4"/></g><g id="text_12"><!-- 0 --><g style="fill: #ffffff" transform="translate(236.67 76.62) scale(0.0694 -0.0694)"><use xlink:href="#DejaVuSans-13"/></g></g></g></g><g id="line2d_13"><path d="M 187.28 68.47 
L 209.66 70.61 
L 231.17 76.94 
L 250.97 87.19 
L 268.32 100.94 
L 282.53 117.59 
L 293.08 136.43 
L 299.59 156.64 
L 301.85 177.31 
L 299.82 197.51 
L 293.69 216.28 
L 283.8 232.64 
L 270.72 245.69 
L 255.19 254.5 
L 238.18 258.18 
L 220.88 255.72 
L 204.86 245.82 
L 192.45 226.81 
L 187.28 204.76 
L 182.12 226.81 
L 169.7 245.82 
L 153.68 255.72 
L 136.38 258.18 
L 119.37 254.5 
L 103.85 245.69 
L 90.76 232.64 
L 80.88 216.28 
L 74.74 197.51 
L 72.72 177.31 
L 74.97 156.64 
L 81.48 136.43 
L 92.03 117.59 
L 106.25 100.94 
L 123.59 87.19 
L 143.4 76.94 
L 164.9 70.61 
L 187.28 68.47 
" clip-path="url(#p982757ed48)" style="fill: none; stroke: #1f77b4; stroke-width: 1.5; stroke-linecap: square"/><defs><path id="mc1cd494209" d="M 0 1.25 
C 0.33 1.25 0.65 1.12 0.88 0.88 
C 1.12 0.65 1.25 0.33 1.25 0 
C 1.25 -0.33 1.12 -0.65 0.88 -0.88 
C 0.65 -1.12 0.33 -1.25 0 -1.25 
C -0.33 -1.25 -0.65 -1.12 -0.88 -0.88 
C -1.12 -0.65 -1.25 -0.33 -1.25 0 
C -1.25 0.33 -1.12 0.65 -0.88 0.88 
C -0.65 1.12 -0.33 1.25 0 1.25 
z
" style="stroke: #1f77b4"/></defs><g clip-path="url(#p982757ed48)"><use xlink:href="#mc1cd494209" x="187.28" y="68.47" style="fill: #1f77b4; stroke: #1f77b4"/><use xlink:href="#mc1cd494209" x="209.66" y="70.61" style="fill: #1f77b4; stroke: #1f77b4"/><use xlink:href="#mc1cd494209" x="231.17" y="76.94" style="fill: #1f77b4; stroke: #1f77b4"/><use xlink:href="#mc1cd494209" x="250.97" y="87.19" style="fill: #1f77b4; stroke: #1f77b4"/><use xlink:href="#mc1cd494209" x="268.32" y="100.94" style="fill: #1f77b4; stroke: #1f77b4"/><use xlink:href="#mc1cd494209" x="282.53" y="117.59" style="fill: #1f77b4; stroke: #1f77b4"/><use xlink:href="#mc1cd494209" x="293.08" y="136.43" style="fill: #1f77b4; stroke: #1f77b4"/><use xlink:href="#mc1cd494209" x="299.59" y="156.64" style="fill: #1f77b4; stroke: #1f77b4"/><use xlink:href="#mc1cd494209" x="301.85" y="177.31" style="fill: #1f77b4; stroke: #1f77b4"/><use xlink:href="#mc1cd494209" x="299.82" y="197.51" style="fill: #1f77b4; stroke: #1f77b4"/><use xlink:href="#mc1cd494209" x="293.69" y="216.28" style="fill: #1f77b4; stroke: #1f77b4"/><use xlink:href="#mc1cd494209" x="283.8" y="232.64" style="fill: #1f77b4; stroke: #1f77b4"/><use xlink:href="#mc1cd494209" x="270.72" y="245.69" style="fill: #1f77b4; stroke: #1f77b4"/><use xlink:href="#mc1cd494209" x="255.19" y="254.5" style="fill: #1f77b4; stroke: #1f77b4"/><use xlink:href="#mc1cd494209" x="238.18" y="258.18" style="fill: #1f77b4; stroke: #1f77b4"/><use xlink:href="#mc1cd494209" x="220.88" y="255.72" style="fill: #1f77b4; stroke: #1f77b4"/><use xlink:href="#mc1cd494209" x="204.86" y="245.82" style="fill: #1f77b4; stroke: #1f77b4"/><use xlink:href="#mc1cd494209" x="192.45" y="226.81" style="fill: #1f77b4; stroke: #1f77b4"/><use xlink:href="#mc1cd494209" x="187.28" y="204.76" style="fill: #1f77b4; stroke: #1f77b4"/><use xlink:href="#mc1cd494209" x="182.12" y="226.81" style="fill: #1f77b4; stroke: #1f77b4"/><use xlink:href="#mc1cd494209" x="169.7" y="245.82" style="fill: #1f77b4; stroke: #1f77b4"/><use xlink:href="#mc1cd494209" x="153.68" y="255.72" style="fill: #1f77b4; stroke: #1f77b4"/><use xlink:href="#mc1cd494209" x="136.38" y="258.18" style="fill: #1f77b4; stroke: #1f77b4"/><use xlink:href="#mc1cd494209" x="119.37" y="254.5" style="fill: #1f77b4; stroke: #1f77b4"/><use xlink:href="#mc1cd494209" x="103.85" y="245.69" style="fill: #1f77b4; stroke: #1f77b4"/><use xlink:href="#mc1cd494209" x="90.76" y="232.64" style="fill: #1f77b4; stroke: #1f77b4"/><use xlink:href="#mc1cd494209" x="80.88" y="216.28" style="fill: #1f77b4; stroke: #1f77b4"/><use xlink:href="#mc1cd494209" x="74.74" y="197.51" style="fill: #1f77b4; stroke: #1f77b4"/><use xlink:href="#mc1cd494209" x="72.72" y="177.31" style="fill: #1f77b4; stroke: #1f77b4"/><use xlink:href="#mc1cd494209" x="74.97" y="156.64" style="fill: #1f77b4; stroke: #1f77b4"/><use xlink:href="#mc1cd494209" x="81.48" y="136.43" style="fill: #1f77b4; stroke: #1f77b4"/><use xlink:href="#mc1cd494209" x="92.03" y="117.59" style="fill: #1f77b4; stroke: #1f77b4"/><use xlink:href="#mc1cd494209" x="106.25" y="100.94" style="fill: #1f77b4; stroke: #1f77b4"/><use xlink:href="#mc1cd494209" x="123.59" y="87.19" style="fill: #1f77b4; stroke: #1f77b4"/><use xlink:href="#mc1cd494209" x="143.4" y="76.94" style="fill: #1f77b4; stroke: #1f77b4"/><use xlink:href="#mc1cd494209" x="164.9" y="70.61" style="fill: #1f77b4; stroke: #1f77b4"/><use xlink:href="#mc1cd494209" x="187.28" y="68.47" style="fill: #1f77b4; stroke: #1f77b4"/></g></g><g id="line2d_14"><path d="M 187.28 68.47 
L 209.65 70.65 
L 231.1 77.11 
L 250.77 87.55 
L 267.84 101.51 
L 281.63 118.35 
L 291.6 137.29 
L 297.36 157.45 
L 298.74 177.86 
L 295.74 197.51 
L 288.59 215.38 
L 277.74 230.44 
L 263.86 241.72 
L 247.82 248.31 
L 230.76 249.33 
L 214.13 244.02 
L 199.83 231.98 
L 190.38 215.11 
L 187.28 204.76 
L 184.18 215.11 
L 174.74 231.98 
L 160.43 244.02 
L 143.8 249.33 
L 126.75 248.31 
L 110.71 241.72 
L 96.82 230.44 
L 85.97 215.38 
L 78.83 197.51 
L 75.83 177.86 
L 77.2 157.45 
L 82.97 137.29 
L 92.93 118.35 
L 106.73 101.51 
L 123.8 87.55 
L 143.46 77.11 
L 164.91 70.65 
L 187.28 68.47 
" clip-path="url(#p982757ed48)" style="fill: none; stroke: #ff7f0e; stroke-width: 1.5; stroke-linecap: square"/><defs><path id="maf31dde1b2" d="M 0 1.25 
C 0.33 1.25 0.65 1.12 0.88 0.88 
C 1.12 0.65 1.25 0.33 1.25 0 
C 1.25 -0.33 1.12 -0.65 0.88 -0.88 
C 0.65 -1.12 0.33 -1.25 0 -1.25 
C -0.33 -1.25 -0.65 -1.12 -0.88 -0.88 
C -1.12 -0.65 -1.25 -0.33 -1.25 0 
C -1.25 0.33 -1.12 0.65 -0.88 0.88 
C -0.65 1.12 -0.33 1.25 0 1.25 
z
" style="stroke: #ff7f0e"/></defs><g clip-path="url(#p982757ed48)"><use xlink:href="#maf31dde1b2" x="187.28" y="68.47" style="fill: #ff7f0e; stroke: #ff7f0e"/><use xlink:href="#maf31dde1b2" x="209.65" y="70.65" style="fill: #ff7f0e; stroke: #ff7f0e"/><use xlink:href="#maf31dde1b2" x="231.1" y="77.11" style="fill: #ff7f0e; stroke: #ff7f0e"/><use xlink:href="#maf31dde1b2" x="250.77" y="87.55" style="fill: #ff7f0e; stroke: #ff7f0e"/><use xlink:href="#maf31dde1b2" x="267.84" y="101.51" style="fill: #ff7f0e; stroke: #ff7f0e"/><use xlink:href="#maf31dde1b2" x="281.63" y="118.35" style="fill: #ff7f0e; stroke: #ff7f0e"/><use xlink:href="#maf31dde1b2" x="291.6" y="137.29" style="fill: #ff7f0e; stroke: #ff7f0e"/><use xlink:href="#maf31dde1b2" x="297.36" y="157.45" style="fill: #ff7f0e; stroke: #ff7f0e"/><use xlink:href="#maf31dde1b2" x="298.74" y="177.86" style="fill: #ff7f0e; stroke: #ff7f0e"/><use xlink:href="#maf31dde1b2" x="295.74" y="197.51" style="fill: #ff7f0e; stroke: #ff7f0e"/><use xlink:href="#maf31dde1b2" x="288.59" y="215.38" style="fill: #ff7f0e; stroke: #ff7f0e"/><use xlink:href="#maf31dde1b2" x="277.74" y="230.44" style="fill: #ff7f0e; stroke: #ff7f0e"/><use xlink:href="#maf31dde1b2" x="263.86" y="241.72" style="fill: #ff7f0e; stroke: #ff7f0e"/><use xlink:href="#maf31dde1b2" x="247.82" y="248.31" style="fill: #ff7f0e; stroke: #ff7f0e"/><use xlink:href="#maf31dde1b2" x="230.76" y="249.33" style="fill: #ff7f0e; stroke: #ff7f0e"/><use xlink:href="#maf31dde1b2" x="214.13" y="244.02" style="fill: #ff7f0e; stroke: #ff7f0e"/><use xlink:href="#maf31dde1b2" x="199.83" y="231.98" style="fill: #ff7f0e; stroke: #ff7f0e"/><use xlink:href="#maf31dde1b2" x="190.38" y="215.11" style="fill: #ff7f0e; stroke: #ff7f0e"/><use xlink:href="#maf31dde1b2" x="187.28" y="204.76" style="fill: #ff7f0e; stroke: #ff7f0e"/><use xlink:href="#maf31dde1b2" x="184.18" y="215.11" style="fill: #ff7f0e; stroke: #ff7f0e"/><use xlink:href="#maf31dde1b2" x="174.74" y="231.98" style="fill: #ff7f0e; stroke: #ff7f0e"/><use xlink:href="#maf31dde1b2" x="160.43" y="244.02" style="fill: #ff7f0e; stroke: #ff7f0e"/><use xlink:href="#maf31dde1b2" x="143.8" y="249.33" style="fill: #ff7f0e; stroke: #ff7f0e"/><use xlink:href="#maf31dde1b2" x="126.75" y="248.31" style="fill: #ff7f0e; stroke: #ff7f0e"/><use xlink:href="#maf31dde1b2" x="110.71" y="241.72" style="fill: #ff7f0e; stroke: #ff7f0e"/><use xlink:href="#maf31dde1b2" x="96.82" y="230.44" style="fill: #ff7f0e; stroke: #ff7f0e"/><use xlink:href="#maf31dde1b2" x="85.97" y="215.38" style="fill: #ff7f0e; stroke: #ff7f0e"/><use xlink:href="#maf31dde1b2" x="78.83" y="197.51" style="fill: #ff7f0e; stroke: #ff7f0e"/><use xlink:href="#maf31dde1b2" x="75.83" y="177.86" style="fill: #ff7f0e; stroke: #ff7f0e"/><use xlink:href="#maf31dde1b2" x="77.2" y="157.45" style="fill: #ff7f0e; stroke: #ff7f0e"/><use xlink:href="#maf31dde1b2" x="82.97" y="137.29" style="fill: #ff7f0e; stroke: #ff7f0e"/><use xlink:href="#maf31dde1b2" x="92.93" y="118.35" style="fill: #ff7f0e; stroke: #ff7f0e"/><use xlink:href="#maf31dde1b2" x="106.73" y="101.51" style="fill: #ff7f0e; stroke: #ff7f0e"/><use xlink:href="#maf31dde1b2" x="123.8" y="87.55" style="fill: #ff7f0e; stroke: #ff7f0e"/><use xlink:href="#maf31dde1b2" x="143.46" y="77.11" style="fill: #ff7f0e; stroke: #ff7f0e"/><use xlink:href="#maf31dde1b2" x="164.91" y="70.65" style="fill: #ff7f0e; stroke: #ff7f0e"/><use xlink:href="#maf31dde1b2" x="187.28" y="68.47" style="fill: #ff7f0e; stroke: #ff7f0e"/></g></g><g id="patch_3"><path d="M 187.28 39.79 
C 166.57 39.79 146.06 43.87 126.92 51.8 
C 107.79 59.72 90.4 71.34 75.75 85.99 
C 61.11 100.63 49.49 118.02 41.56 137.16 
C 33.64 156.29 29.56 176.8 29.56 197.51 
C 29.56 218.23 33.64 238.74 41.56 257.87 
C 49.49 277.01 61.11 294.4 75.75 309.04 
C 90.4 323.69 107.79 335.3 126.92 343.23 
C 146.06 351.16 166.57 355.24 187.28 355.24 
C 207.99 355.24 228.5 351.16 247.64 343.23 
C 266.78 335.3 284.16 323.69 298.81 309.04 
C 313.45 294.4 325.07 277.01 333 257.87 
C 340.93 238.74 345.01 218.23 345.01 197.51 
C 345.01 176.8 340.93 156.29 333 137.16 
C 325.07 118.02 313.45 100.63 298.81 85.99 
C 284.16 71.34 266.78 59.72 247.64 51.8 
C 228.5 43.87 207.99 39.79 187.28 39.79 
" style="fill: none; stroke: #ffffff; stroke-width: 0.8; stroke-linejoin: miter; stroke-linecap: square"/></g><g id="text_13"><!-- Respuesta direccional: $10\,\lg\gamma$ = 2,66 dB --><g style="fill: #ffffff" transform="translate(66.98 16.32) scale(0.12 -0.12)"><defs><path id="DejaVuSans-35" d="M 2841 2188 
Q 3044 2119 3236 1894 
Q 3428 1669 3622 1275 
L 4263 0 
L 3584 0 
L 2988 1197 
Q 2756 1666 2539 1819 
Q 2322 1972 1947 1972 
L 1259 1972 
L 1259 0 
L 628 0 
L 628 4666 
L 2053 4666 
Q 2853 4666 3247 4331 
Q 3641 3997 3641 3322 
Q 3641 2881 3436 2590 
Q 3231 2300 2841 2188 
z
M 1259 4147 
L 1259 2491 
L 2053 2491 
Q 2509 2491 2742 2702 
Q 2975 2913 2975 3322 
Q 2975 3731 2742 3939 
Q 2509 4147 2053 4147 
L 1259 4147 
z
" transform="scale(0.015625)"/><path id="DejaVuSans-48" d="M 3597 1894 
L 3597 1613 
L 953 1613 
Q 991 1019 1311 708 
Q 1631 397 2203 397 
Q 2534 397 2845 478 
Q 3156 559 3463 722 
L 3463 178 
Q 3153 47 2828 -22 
Q 2503 -91 2169 -91 
Q 1331 -91 842 396 
Q 353 884 353 1716 
Q 353 2575 817 3079 
Q 1281 3584 2069 3584 
Q 2775 3584 3186 3129 
Q 3597 2675 3597 1894 
z
M 3022 2063 
Q 3016 2534 2758 2815 
Q 2500 3097 2075 3097 
Q 1594 3097 1305 2825 
Q 1016 2553 972 2059 
L 3022 2063 
z
" transform="scale(0.015625)"/><path id="DejaVuSans-56" d="M 2834 3397 
L 2834 2853 
Q 2591 2978 2328 3040 
Q 2066 3103 1784 3103 
Q 1356 3103 1142 2972 
Q 928 2841 928 2578 
Q 928 2378 1081 2264 
Q 1234 2150 1697 2047 
L 1894 2003 
Q 2506 1872 2764 1633 
Q 3022 1394 3022 966 
Q 3022 478 2636 193 
Q 2250 -91 1575 -91 
Q 1294 -91 989 -36 
Q 684 19 347 128 
L 347 722 
Q 666 556 975 473 
Q 1284 391 1588 391 
Q 1994 391 2212 530 
Q 2431 669 2431 922 
Q 2431 1156 2273 1281 
Q 2116 1406 1581 1522 
L 1381 1569 
Q 847 1681 609 1914 
Q 372 2147 372 2553 
Q 372 3047 722 3315 
Q 1072 3584 1716 3584 
Q 2034 3584 2315 3537 
Q 2597 3491 2834 3397 
z
" transform="scale(0.015625)"/><path id="DejaVuSans-53" d="M 1159 525 
L 1159 -1331 
L 581 -1331 
L 581 3500 
L 1159 3500 
L 1159 2969 
Q 1341 3281 1617 3432 
Q 1894 3584 2278 3584 
Q 2916 3584 3314 3078 
Q 3713 2572 3713 1747 
Q 3713 922 3314 415 
Q 2916 -91 2278 -91 
Q 1894 -91 1617 61 
Q 1341 213 1159 525 
z
M 3116 1747 
Q 3116 2381 2855 2742 
Q 2594 3103 2138 3103 
Q 1681 3103 1420 2742 
Q 1159 2381 1159 1747 
Q 1159 1113 1420 752 
Q 1681 391 2138 391 
Q 2594 391 2855 752 
Q 3116 1113 3116 1747 
z
" transform="scale(0.015625)"/><path id="DejaVuSans-58" d="M 544 1381 
L 544 3500 
L 1119 3500 
L 1119 1403 
Q 1119 906 1312 657 
Q 1506 409 1894 409 
Q 2359 409 2629 706 
Q 2900 1003 2900 1516 
L 2900 3500 
L 3475 3500 
L 3475 0 
L 2900 0 
L 2900 538 
Q 2691 219 2414 64 
Q 2138 -91 1772 -91 
Q 1169 -91 856 284 
Q 544 659 544 1381 
z
M 1991 3584 
L 1991 3584 
z
" transform="scale(0.015625)"/><path id="DejaVuSans-57" d="M 1172 4494 
L 1172 3500 
L 2356 3500 
L 2356 3053 
L 1172 3053 
L 1172 1153 
Q 1172 725 1289 603 
Q 1406 481 1766 481 
L 2356 481 
L 2356 0 
L 1766 0 
Q 1100 0 847 248 
Q 594 497 594 1153 
L 594 3053 
L 172 3053 
L 172 3500 
L 594 3500 
L 594 4494 
L 1172 4494 
z
" transform="scale(0.015625)"/><path id="DejaVuSans-44" d="M 2194 1759 
Q 1497 1759 1228 1600 
Q 959 1441 959 1056 
Q 959 750 1161 570 
Q 1363 391 1709 391 
Q 2188 391 2477 730 
Q 2766 1069 2766 1631 
L 2766 1759 
L 2194 1759 
z
M 3341 1997 
L 3341 0 
L 2766 0 
L 2766 531 
Q 2569 213 2275 61 
Q 1981 -91 1556 -91 
Q 1019 -91 701 211 
Q 384 513 384 1019 
Q 384 1609 779 1909 
Q 1175 2209 1959 2209 
L 2766 2209 
L 2766 2266 
Q 2766 2663 2505 2880 
Q 2244 3097 1772 3097 
Q 1472 3097 1187 3025 
Q 903 2953 641 2809 
L 641 3341 
Q 956 3463 1253 3523 
Q 1550 3584 1831 3584 
Q 2591 3584 2966 3190 
Q 3341 2797 3341 1997 
z
" transform="scale(0.015625)"/><path id="DejaVuSans-3" transform="scale(0.015625)"/><path id="DejaVuSans-47" d="M 2906 2969 
L 2906 4863 
L 3481 4863 
L 3481 0 
L 2906 0 
L 2906 525 
Q 2725 213 2448 61 
Q 2172 -91 1784 -91 
Q 1150 -91 751 415 
Q 353 922 353 1747 
Q 353 2572 751 3078 
Q 1150 3584 1784 3584 
Q 2172 3584 2448 3432 
Q 2725 3281 2906 2969 
z
M 947 1747 
Q 947 1113 1208 752 
Q 1469 391 1925 391 
Q 2381 391 2643 752 
Q 2906 1113 2906 1747 
Q 2906 2381 2643 2742 
Q 2381 3103 1925 3103 
Q 1469 3103 1208 2742 
Q 947 2381 947 1747 
z
" transform="scale(0.015625)"/><path id="DejaVuSans-4c" d="M 603 3500 
L 1178 3500 
L 1178 0 
L 603 0 
L 603 3500 
z
M 603 4863 
L 1178 4863 
L 1178 4134 
L 603 4134 
L 603 4863 
z
" transform="scale(0.015625)"/><path id="DejaVuSans-55" d="M 2631 2963 
Q 2534 3019 2420 3045 
Q 2306 3072 2169 3072 
Q 1681 3072 1420 2755 
Q 1159 2438 1159 1844 
L 1159 0 
L 581 0 
L 581 3500 
L 1159 3500 
L 1159 2956 
Q 1341 3275 1631 3429 
Q 1922 3584 2338 3584 
Q 2397 3584 2469 3576 
Q 2541 3569 2628 3553 
L 2631 2963 
z
" transform="scale(0.015625)"/><path id="DejaVuSans-46" d="M 3122 3366 
L 3122 2828 
Q 2878 2963 2633 3030 
Q 2388 3097 2138 3097 
Q 1578 3097 1268 2742 
Q 959 2388 959 1747 
Q 959 1106 1268 751 
Q 1578 397 2138 397 
Q 2388 397 2633 464 
Q 2878 531 3122 666 
L 3122 134 
Q 2881 22 2623 -34 
Q 2366 -91 2075 -91 
Q 1284 -91 818 406 
Q 353 903 353 1747 
Q 353 2603 823 3093 
Q 1294 3584 2113 3584 
Q 2378 3584 2631 3529 
Q 2884 3475 3122 3366 
z
" transform="scale(0.015625)"/><path id="DejaVuSans-52" d="M 1959 3097 
Q 1497 3097 1228 2736 
Q 959 2375 959 1747 
Q 959 1119 1226 758 
Q 1494 397 1959 397 
Q 2419 397 2687 759 
Q 2956 1122 2956 1747 
Q 2956 2369 2687 2733 
Q 2419 3097 1959 3097 
z
M 1959 3584 
Q 2709 3584 3137 3096 
Q 3566 2609 3566 1747 
Q 3566 888 3137 398 
Q 2709 -91 1959 -91 
Q 1206 -91 779 398 
Q 353 888 353 1747 
Q 353 2609 779 3096 
Q 1206 3584 1959 3584 
z
" transform="scale(0.015625)"/><path id="DejaVuSans-51" d="M 3513 2113 
L 3513 0 
L 2938 0 
L 2938 2094 
Q 2938 2591 2744 2837 
Q 2550 3084 2163 3084 
Q 1697 3084 1428 2787 
Q 1159 2491 1159 1978 
L 1159 0 
L 581 0 
L 581 3500 
L 1159 3500 
L 1159 2956 
Q 1366 3272 1645 3428 
Q 1925 3584 2291 3584 
Q 2894 3584 3203 3211 
Q 3513 2838 3513 2113 
z
" transform="scale(0.015625)"/><path id="DejaVuSans-4f" d="M 603 4863 
L 1178 4863 
L 1178 0 
L 603 0 
L 603 4863 
z
" transform="scale(0.015625)"/><path id="DejaVuSans-1d" d="M 750 794 
L 1409 794 
L 1409 0 
L 750 0 
L 750 794 
z
M 750 3309 
L 1409 3309 
L 1409 2516 
L 750 2516 
L 750 3309 
z
" transform="scale(0.015625)"/><path id="DejaVuSans-4a" d="M 2906 1791 
Q 2906 2416 2648 2759 
Q 2391 3103 1925 3103 
Q 1463 3103 1205 2759 
Q 947 2416 947 1791 
Q 947 1169 1205 825 
Q 1463 481 1925 481 
Q 2391 481 2648 825 
Q 2906 1169 2906 1791 
z
M 3481 434 
Q 3481 -459 3084 -895 
Q 2688 -1331 1869 -1331 
Q 1566 -1331 1297 -1286 
Q 1028 -1241 775 -1147 
L 775 -588 
Q 1028 -725 1275 -790 
Q 1522 -856 1778 -856 
Q 2344 -856 2625 -561 
Q 2906 -266 2906 331 
L 2906 616 
Q 2728 306 2450 153 
Q 2172 0 1784 0 
Q 1141 0 747 490 
Q 353 981 353 1791 
Q 353 2603 747 3093 
Q 1141 3584 1784 3584 
Q 2172 3584 2450 3431 
Q 2728 3278 2906 2969 
L 2906 3500 
L 3481 3500 
L 3481 434 
z
" transform="scale(0.015625)"/><path id="DejaVuSans-Oblique-347" d="M 1491 2950 
L 1838 788 
L 3456 3500 
L 4066 3500 
L 1972 0 
L 1713 -1331 
L 1138 -1331 
L 1397 0 
L 988 2613 
Q 925 3006 628 3006 
L 475 3006 
L 569 3500 
L 788 3500 
Q 1403 3500 1491 2950 
z
" transform="scale(0.015625)"/><path id="DejaVuSans-20" d="M 678 2906 
L 4684 2906 
L 4684 2381 
L 678 2381 
L 678 2906 
z
M 678 1631 
L 4684 1631 
L 4684 1100 
L 678 1100 
L 678 1631 
z
" transform="scale(0.015625)"/><path id="DejaVuSans-f" d="M 750 794 
L 1409 794 
L 1409 256 
L 897 -744 
L 494 -744 
L 750 256 
L 750 794 
z
" transform="scale(0.015625)"/><path id="DejaVuSans-19" d="M 2113 2584 
Q 1688 2584 1439 2293 
Q 1191 2003 1191 1497 
Q 1191 994 1439 701 
Q 1688 409 2113 409 
Q 2538 409 2786 701 
Q 3034 994 3034 1497 
Q 3034 2003 2786 2293 
Q 2538 2584 2113 2584 
z
M 3366 4563 
L 3366 3988 
Q 3128 4100 2886 4159 
Q 2644 4219 2406 4219 
Q 1781 4219 1451 3797 
Q 1122 3375 1075 2522 
Q 1259 2794 1537 2939 
Q 1816 3084 2150 3084 
Q 2853 3084 3261 2657 
Q 3669 2231 3669 1497 
Q 3669 778 3244 343 
Q 2819 -91 2113 -91 
Q 1303 -91 875 529 
Q 447 1150 447 2328 
Q 447 3434 972 4092 
Q 1497 4750 2381 4750 
Q 2619 4750 2861 4703 
Q 3103 4656 3366 4563 
z
" transform="scale(0.015625)"/><path id="DejaVuSans-25" d="M 1259 2228 
L 1259 519 
L 2272 519 
Q 2781 519 3026 730 
Q 3272 941 3272 1375 
Q 3272 1813 3026 2020 
Q 2781 2228 2272 2228 
L 1259 2228 
z
M 1259 4147 
L 1259 2741 
L 2194 2741 
Q 2656 2741 2882 2914 
Q 3109 3088 3109 3444 
Q 3109 3797 2882 3972 
Q 2656 4147 2194 4147 
L 1259 4147 
z
M 628 4666 
L 2241 4666 
Q 2963 4666 3353 4366 
Q 3744 4066 3744 3513 
Q 3744 3084 3544 2831 
Q 3344 2578 2956 2516 
Q 3422 2416 3680 2098 
Q 3938 1781 3938 1306 
Q 3938 681 3513 340 
Q 3088 0 2303 0 
L 628 0 
L 628 4666 
z
" transform="scale(0.015625)"/></defs><use xlink:href="#DejaVuSans-35" transform="translate(0 0.02)"/><use xlink:href="#DejaVuSans-48" transform="translate(65.48 0.02)"/><use xlink:href="#DejaVuSans-56" transform="translate(127.01 0.02)"/><use xlink:href="#DejaVuSans-53" transform="translate(179.11 0.02)"/><use xlink:href="#DejaVuSans-58" transform="translate(242.58 0.02)"/><use xlink:href="#DejaVuSans-48" transform="translate(305.96 0.02)"/><use xlink:href="#DejaVuSans-56" transform="translate(367.48 0.02)"/><use xlink:href="#DejaVuSans-57" transform="translate(419.58 0.02)"/><use xlink:href="#DejaVuSans-44" transform="translate(458.79 0.02)"/><use xlink:href="#DejaVuSans-3" transform="translate(520.07 0.02)"/><use xlink:href="#DejaVuSans-47" transform="translate(551.86 0.02)"/><use xlink:href="#DejaVuSans-4c" transform="translate(615.34 0.02)"/><use xlink:href="#DejaVuSans-55" transform="translate(643.12 0.02)"/><use xlink:href="#DejaVuSans-48" transform="translate(682.23 0.02)"/><use xlink:href="#DejaVuSans-46" transform="translate(743.76 0.02)"/><use xlink:href="#DejaVuSans-46" transform="translate(798.74 0.02)"/><use xlink:href="#DejaVuSans-4c" transform="translate(853.72 0.02)"/><use xlink:href="#DejaVuSans-52" transform="translate(881.5 0.02)"/><use xlink:href="#DejaVuSans-51" transform="translate(942.68 0.02)"/><use xlink:href="#DejaVuSans-44" transform="translate(1006.06 0.02)"/><use xlink:href="#DejaVuSans-4f" transform="translate(1067.34 0.02)"/><use xlink:href="#DejaVuSans-1d" transform="translate(1095.12 0.02)"/><use xlink:href="#DejaVuSans-3" transform="translate(1128.81 0.02)"/><use xlink:href="#DejaVuSans-14" transform="translate(1160.6 0.02)"/><use xlink:href="#DejaVuSans-13" transform="translate(1224.22 0.02)"/><use xlink:href="#DejaVuSans-4f" transform="translate(1304.08 0.02)"/><use xlink:href="#DejaVuSans-4a" transform="translate(1331.87 0.02)"/><use xlink:href="#DejaVuSans-Oblique-347" transform="translate(1411.58 0.02)"/><use xlink:href="#DejaVuSans-3" transform="translate(1470.76 0.02)"/><use xlink:href="#DejaVuSans-20" transform="translate(1502.55 0.02)"/><use xlink:href="#DejaVuSans-3" transform="translate(1586.33 0.02)"/><use xlink:href="#DejaVuSans-15" transform="translate(1618.12 0.02)"/><use xlink:href="#DejaVuSans-f" transform="translate(1681.74 0.02)"/><use xlink:href="#DejaVuSans-19" transform="translate(1713.53 0.02)"/><use xlink:href="#DejaVuSans-19" transform="translate(1777.15 0.02)"/><use xlink:href="#DejaVuSans-3" transform="translate(1840.78 0.02)"/><use xlink:href="#DejaVuSans-47" transform="translate(1872.57 0.02)"/><use xlink:href="#DejaVuSans-25" transform="translate(1936.04 0.02)"/></g></g><g id="legend_1"><g id="patch_4"><path d="M 65.83 414.16 
L 308.73 414.16 
Q 310.4 414.16 310.4 412.5 
L 310.4 400.83 
Q 310.4 399.17 308.73 399.17 
L 65.83 399.17 
Q 64.16 399.17 64.16 400.83 
L 64.16 412.5 
Q 64.16 414.16 65.83 414.16 
z
" style="opacity: 0.8; stroke: #cccccc; stroke-linejoin: miter"/></g><g id="line2d_15"><path d="M 67.5 405.91 
L 75.83 405.91 
L 84.16 405.91 
" style="fill: none; stroke: #1f77b4; stroke-width: 1.5; stroke-linecap: square"/><g><use xlink:href="#mc1cd494209" x="75.83" y="405.91" style="fill: #1f77b4; stroke: #1f77b4"/></g></g><g id="text_14"><!-- Plano X-Y (h), $\alpha$ = 0° --><g style="fill: #ffffff" transform="translate(90.82 408.83) scale(0.0833 -0.0833)"><defs><path id="DejaVuSans-33" d="M 1259 4147 
L 1259 2394 
L 2053 2394 
Q 2494 2394 2734 2622 
Q 2975 2850 2975 3272 
Q 2975 3691 2734 3919 
Q 2494 4147 2053 4147 
L 1259 4147 
z
M 628 4666 
L 2053 4666 
Q 2838 4666 3239 4311 
Q 3641 3956 3641 3272 
Q 3641 2581 3239 2228 
Q 2838 1875 2053 1875 
L 1259 1875 
L 1259 0 
L 628 0 
L 628 4666 
z
" transform="scale(0.015625)"/><path id="DejaVuSans-3b" d="M 403 4666 
L 1081 4666 
L 2241 2931 
L 3406 4666 
L 4084 4666 
L 2584 2425 
L 4184 0 
L 3506 0 
L 2194 1984 
L 872 0 
L 191 0 
L 1856 2491 
L 403 4666 
z
" transform="scale(0.015625)"/><path id="DejaVuSans-10" d="M 313 2009 
L 1997 2009 
L 1997 1497 
L 313 1497 
L 313 2009 
z
" transform="scale(0.015625)"/><path id="DejaVuSans-3c" d="M -13 4666 
L 666 4666 
L 1959 2747 
L 3244 4666 
L 3922 4666 
L 2272 2222 
L 2272 0 
L 1638 0 
L 1638 2222 
L -13 4666 
z
" transform="scale(0.015625)"/><path id="DejaVuSans-b" d="M 1984 4856 
Q 1566 4138 1362 3434 
Q 1159 2731 1159 2009 
Q 1159 1288 1364 580 
Q 1569 -128 1984 -844 
L 1484 -844 
Q 1016 -109 783 600 
Q 550 1309 550 2009 
Q 550 2706 781 3412 
Q 1013 4119 1484 4856 
L 1984 4856 
z
" transform="scale(0.015625)"/><path id="DejaVuSans-4b" d="M 3513 2113 
L 3513 0 
L 2938 0 
L 2938 2094 
Q 2938 2591 2744 2837 
Q 2550 3084 2163 3084 
Q 1697 3084 1428 2787 
Q 1159 2491 1159 1978 
L 1159 0 
L 581 0 
L 581 4863 
L 1159 4863 
L 1159 2956 
Q 1366 3272 1645 3428 
Q 1925 3584 2291 3584 
Q 2894 3584 3203 3211 
Q 3513 2838 3513 2113 
z
" transform="scale(0.015625)"/><path id="DejaVuSans-c" d="M 513 4856 
L 1013 4856 
Q 1481 4119 1714 3412 
Q 1947 2706 1947 2009 
Q 1947 1309 1714 600 
Q 1481 -109 1013 -844 
L 513 -844 
Q 928 -128 1133 580 
Q 1338 1288 1338 2009 
Q 1338 2731 1133 3434 
Q 928 4138 513 4856 
z
" transform="scale(0.015625)"/><path id="DejaVuSans-Oblique-345" d="M 2619 1628 
L 2622 2350 
Q 2625 3088 2069 3091 
Q 1653 3094 1394 2747 
Q 1069 2319 959 1747 
Q 825 1059 994 731 
Q 1169 397 1547 397 
Q 1966 397 2319 1063 
L 2619 1628 
z
M 2166 3578 
Q 3141 3594 3128 2584 
Q 3128 2584 3616 3500 
L 4128 3500 
L 3119 1603 
L 3109 919 
Q 3109 766 3194 638 
Q 3291 488 3391 488 
L 3669 488 
L 3575 0 
L 3228 0 
Q 2934 0 2722 263 
Q 2622 394 2619 669 
Q 2416 334 2066 50 
Q 1900 -81 1453 -78 
Q 722 -72 456 397 
Q 184 884 353 1747 
Q 534 2675 1009 3097 
Q 1544 3569 2166 3578 
z
" transform="scale(0.015625)"/></defs><use xlink:href="#DejaVuSans-33" transform="translate(0 0.02)"/><use xlink:href="#DejaVuSans-4f" transform="translate(60.3 0.02)"/><use xlink:href="#DejaVuSans-44" transform="translate(88.09 0.02)"/><use xlink:href="#DejaVuSans-51" transform="translate(149.37 0.02)"/><use xlink:href="#DejaVuSans-52" transform="translate(212.74 0.02)"/><use xlink:href="#DejaVuSans-3" transform="translate(273.93 0.02)"/><use xlink:href="#DejaVuSans-3b" transform="translate(305.71 0.02)"/><use xlink:href="#DejaVuSans-10" transform="translate(369.22 0.02)"/><use xlink:href="#DejaVuSans-3c" transform="translate(393.3 0.02)"/><use xlink:href="#DejaVuSans-3" transform="translate(454.39 0.02)"/><use xlink:href="#DejaVuSans-b" transform="translate(486.17 0.02)"/><use xlink:href="#DejaVuSans-4b" transform="translate(525.19 0.02)"/><use xlink:href="#DejaVuSans-c" transform="translate(588.57 0.02)"/><use xlink:href="#DejaVuSans-f" transform="translate(627.58 0.02)"/><use xlink:href="#DejaVuSans-3" transform="translate(659.37 0.02)"/><use xlink:href="#DejaVuSans-Oblique-345" transform="translate(691.15 0.02)"/><use xlink:href="#DejaVuSans-3" transform="translate(757.07 0.02)"/><use xlink:href="#DejaVuSans-20" transform="translate(788.86 0.02)"/><use xlink:href="#DejaVuSans-3" transform="translate(872.65 0.02)"/><use xlink:href="#DejaVuSans-13" transform="translate(904.44 0.02)"/><use xlink:href="#DejaVuSans-72" transform="translate(968.06 0.02)"/></g></g><g id="line2d_16"><path d="M 192.36 405.91 
L 200.69 405.91 
L 209.02 405.91 
" style="fill: none; stroke: #ff7f0e; stroke-width: 1.5; stroke-linecap: square"/><g><use xlink:href="#maf31dde1b2" x="200.69" y="405.91" style="fill: #ff7f0e; stroke: #ff7f0e"/></g></g><g id="text_15"><!-- Plano X-Z (v), $\alpha$ = 90° --><g style="fill: #ffffff" transform="translate(215.69 408.83) scale(0.0833 -0.0833)"><defs><path id="DejaVuSans-3d" d="M 359 4666 
L 4025 4666 
L 4025 4184 
L 1075 531 
L 4097 531 
L 4097 0 
L 288 0 
L 288 481 
L 3238 4134 
L 359 4134 
L 359 4666 
z
" transform="scale(0.015625)"/><path id="DejaVuSans-59" d="M 191 3500 
L 800 3500 
L 1894 563 
L 2988 3500 
L 3597 3500 
L 2284 0 
L 1503 0 
L 191 3500 
z
" transform="scale(0.015625)"/></defs><use xlink:href="#DejaVuSans-33" transform="translate(0 0.02)"/><use xlink:href="#DejaVuSans-4f" transform="translate(60.3 0.02)"/><use xlink:href="#DejaVuSans-44" transform="translate(88.09 0.02)"/><use xlink:href="#DejaVuSans-51" transform="translate(149.37 0.02)"/><use xlink:href="#DejaVuSans-52" transform="translate(212.74 0.02)"/><use xlink:href="#DejaVuSans-3" transform="translate(273.93 0.02)"/><use xlink:href="#DejaVuSans-3b" transform="translate(305.71 0.02)"/><use xlink:href="#DejaVuSans-10" transform="translate(369.22 0.02)"/><use xlink:href="#DejaVuSans-3d" transform="translate(405.3 0.02)"/><use xlink:href="#DejaVuSans-3" transform="translate(473.81 0.02)"/><use xlink:href="#DejaVuSans-b" transform="translate(505.6 0.02)"/><use xlink:href="#DejaVuSans-59" transform="translate(544.61 0.02)"/><use xlink:href="#DejaVuSans-c" transform="translate(603.79 0.02)"/><use xlink:href="#DejaVuSans-f" transform="translate(642.8 0.02)"/><use xlink:href="#DejaVuSans-3" transform="translate(674.59 0.02)"/><use xlink:href="#DejaVuSans-Oblique-345" transform="translate(706.38 0.02)"/><use xlink:href="#DejaVuSans-3" transform="translate(772.29 0.02)"/><use xlink:href="#DejaVuSans-20" transform="translate(804.08 0.02)"/><use xlink:href="#DejaVuSans-3" transform="translate(887.87 0.02)"/><use xlink:href="#DejaVuSans-1c" transform="translate(919.66 0.02)"/><use xlink:href="#DejaVuSans-13" transform="translate(983.28 0.02)"/><use xlink:href="#DejaVuSans-72" transform="translate(1046.9 0.02)"/></g></g></g></g><g id="axes_2"><g id="patch_5"><path d="M 465.35 355.24 
L 895.81 355.24 
L 895.81 39.79 
L 465.35 39.79 
z
"/></g><g id="matplotlib.axis_3"><g id="xtick_9"><g id="line2d_17"><path d="M 465.35 355.24 
L 465.35 39.79 
" clip-path="url(#p33da7bd00d)" style="fill: none; stroke-dasharray: 2.96,1.28; stroke-dashoffset: 0; stroke: #ffffff; stroke-opacity: 0.3; stroke-width: 0.8"/></g><g id="line2d_18"><defs><path id="m8d14ee1197" d="M 0 0 
L 0 3.5 
" style="stroke: #ffffff; stroke-width: 0.8"/></defs><g><use xlink:href="#m8d14ee1197" x="465.35" y="355.24" style="fill: #ffffff; stroke: #ffffff; stroke-width: 0.8"/></g></g><g id="text_16"><!-- 0 --><g style="fill: #ffffff" transform="translate(462.17 369.83) scale(0.1 -0.1)"><use xlink:href="#DejaVuSans-13"/></g></g></g><g id="xtick_10"><g id="line2d_19"><path d="M 519.16 355.24 
L 519.16 39.79 
" clip-path="url(#p33da7bd00d)" style="fill: none; stroke-dasharray: 2.96,1.28; stroke-dashoffset: 0; stroke: #ffffff; stroke-opacity: 0.3; stroke-width: 0.8"/></g><g id="line2d_20"><g><use xlink:href="#m8d14ee1197" x="519.16" y="355.24" style="fill: #ffffff; stroke: #ffffff; stroke-width: 0.8"/></g></g><g id="text_17"><!-- 45 --><g style="fill: #ffffff" transform="translate(512.8 369.83) scale(0.1 -0.1)"><use xlink:href="#DejaVuSans-17"/><use xlink:href="#DejaVuSans-18" transform="translate(63.62 0)"/></g></g></g><g id="xtick_11"><g id="line2d_21"><path d="M 572.97 355.24 
L 572.97 39.79 
" clip-path="url(#p33da7bd00d)" style="fill: none; stroke-dasharray: 2.96,1.28; stroke-dashoffset: 0; stroke: #ffffff; stroke-opacity: 0.3; stroke-width: 0.8"/></g><g id="line2d_22"><g><use xlink:href="#m8d14ee1197" x="572.97" y="355.24" style="fill: #ffffff; stroke: #ffffff; stroke-width: 0.8"/></g></g><g id="text_18"><!-- 90 --><g style="fill: #ffffff" transform="translate(566.6 369.83) scale(0.1 -0.1)"><use xlink:href="#DejaVuSans-1c"/><use xlink:href="#DejaVuSans-13" transform="translate(63.62 0)"/></g></g></g><g id="xtick_12"><g id="line2d_23"><path d="M 626.78 355.24 
L 626.78 39.79 
" clip-path="url(#p33da7bd00d)" style="fill: none; stroke-dasharray: 2.96,1.28; stroke-dashoffset: 0; stroke: #ffffff; stroke-opacity: 0.3; stroke-width: 0.8"/></g><g id="line2d_24"><g><use xlink:href="#m8d14ee1197" x="626.78" y="355.24" style="fill: #ffffff; stroke: #ffffff; stroke-width: 0.8"/></g></g><g id="text_19"><!-- 135 --><g style="fill: #ffffff" transform="translate(617.23 369.83) scale(0.1 -0.1)"><use xlink:href="#DejaVuSans-14"/><use xlink:href="#DejaVuSans-16" transform="translate(63.62 0)"/><use xlink:href="#DejaVuSans-18" transform="translate(127.25 0)"/></g></g></g><g id="xtick_13"><g id="line2d_25"><path d="M 680.58 355.24 
L 680.58 39.79 
" clip-path="url(#p33da7bd00d)" style="fill: none; stroke-dasharray: 2.96,1.28; stroke-dashoffset: 0; stroke: #ffffff; stroke-opacity: 0.3; stroke-width: 0.8"/></g><g id="line2d_26"><g><use xlink:href="#m8d14ee1197" x="680.58" y="355.24" style="fill: #ffffff; stroke: #ffffff; stroke-width: 0.8"/></g></g><g id="text_20"><!-- 180 --><g style="fill: #ffffff" transform="translate(671.04 369.83) scale(0.1 -0.1)"><use xlink:href="#DejaVuSans-14"/><use xlink:href="#DejaVuSans-1b" transform="translate(63.62 0)"/><use xlink:href="#DejaVuSans-13" transform="translate(127.25 0)"/></g></g></g><g id="xtick_14"><g id="line2d_27"><path d="M 734.39 355.24 
L 734.39 39.79 
" clip-path="url(#p33da7bd00d)" style="fill: none; stroke-dasharray: 2.96,1.28; stroke-dashoffset: 0; stroke: #ffffff; stroke-opacity: 0.3; stroke-width: 0.8"/></g><g id="line2d_28"><g><use xlink:href="#m8d14ee1197" x="734.39" y="355.24" style="fill: #ffffff; stroke: #ffffff; stroke-width: 0.8"/></g></g><g id="text_21"><!-- 225 --><g style="fill: #ffffff" transform="translate(724.85 369.83) scale(0.1 -0.1)"><use xlink:href="#DejaVuSans-15"/><use xlink:href="#DejaVuSans-15" transform="translate(63.62 0)"/><use xlink:href="#DejaVuSans-18" transform="translate(127.25 0)"/></g></g></g><g id="xtick_15"><g id="line2d_29"><path d="M 788.2 355.24 
L 788.2 39.79 
" clip-path="url(#p33da7bd00d)" style="fill: none; stroke-dasharray: 2.96,1.28; stroke-dashoffset: 0; stroke: #ffffff; stroke-opacity: 0.3; stroke-width: 0.8"/></g><g id="line2d_30"><g><use xlink:href="#m8d14ee1197" x="788.2" y="355.24" style="fill: #ffffff; stroke: #ffffff; stroke-width: 0.8"/></g></g><g id="text_22"><!-- 270 --><g style="fill: #ffffff" transform="translate(778.66 369.83) scale(0.1 -0.1)"><use xlink:href="#DejaVuSans-15"/><use xlink:href="#DejaVuSans-1a" transform="translate(63.62 0)"/><use xlink:href="#DejaVuSans-13" transform="translate(127.25 0)"/></g></g></g><g id="xtick_16"><g id="line2d_31"><path d="M 842.01 355.24 
L 842.01 39.79 
" clip-path="url(#p33da7bd00d)" style="fill: none; stroke-dasharray: 2.96,1.28; stroke-dashoffset: 0; stroke: #ffffff; stroke-opacity: 0.3; stroke-width: 0.8"/></g><g id="line2d_32"><g><use xlink:href="#m8d14ee1197" x="842.01" y="355.24" style="fill: #ffffff; stroke: #ffffff; stroke-width: 0.8"/></g></g><g id="text_23"><!-- 315 --><g style="fill: #ffffff" transform="translate(832.46 369.83) scale(0.1 -0.1)"><use xlink:href="#DejaVuSans-16"/><use xlink:href="#DejaVuSans-14" transform="translate(63.62 0)"/><use xlink:href="#DejaVuSans-18" transform="translate(127.25 0)"/></g></g></g><g id="xtick_17"><g id="line2d_33"><path d="M 895.81 355.24 
L 895.81 39.79 
" clip-path="url(#p33da7bd00d)" style="fill: none; stroke-dasharray: 2.96,1.28; stroke-dashoffset: 0; stroke: #ffffff; stroke-opacity: 0.3; stroke-width: 0.8"/></g><g id="line2d_34"><g><use xlink:href="#m8d14ee1197" x="895.81" y="355.24" style="fill: #ffffff; stroke: #ffffff; stroke-width: 0.8"/></g></g><g id="text_24"><!-- 360 --><g style="fill: #ffffff" transform="translate(886.27 369.83) scale(0.1 -0.1)"><use xlink:href="#DejaVuSans-16"/><use xlink:href="#DejaVuSans-19" transform="translate(63.62 0)"/><use xlink:href="#DejaVuSans-13" transform="translate(127.25 0)"/></g></g></g><g id="text_25"><!-- Ángulo de incidencia $\phi$ [°] --><g style="fill: #ffffff" transform="translate(615.53 385.54) scale(0.1 -0.1)"><defs><path id="DejaVuSans-83" d="M 2188 4044 
L 1331 1722 
L 3047 1722 
L 2188 4044 
z
M 1831 4666 
L 2547 4666 
L 4325 0 
L 3669 0 
L 3244 1197 
L 1141 1197 
L 716 0 
L 50 0 
L 1831 4666 
z
M 2360 5935 
L 2938 5935 
L 2225 5110 
L 1747 5110 
L 2360 5935 
z
" transform="scale(0.015625)"/><path id="DejaVuSans-Oblique-369" d="M 2991 4863 
L 2738 3572 
Q 3363 3572 3684 3094 
Q 4016 2606 3850 1747 
Q 3681 888 3159 400 
Q 2653 -78 2028 -78 
L 1784 -1331 
L 1213 -1331 
L 1456 -78 
Q 834 -78 509 400 
Q 178 888 347 1747 
Q 513 2606 1034 3094 
Q 1544 3572 2166 3572 
L 2419 4863 
L 2991 4863 
z
M 2128 434 
Q 2481 434 2784 756 
Q 3116 1116 3244 1747 
Q 3369 2372 3169 2738 
Q 2991 3059 2638 3059 
L 2128 434 
z
M 1556 434 
L 2066 3059 
Q 1716 3059 1413 2738 
Q 1072 2372 953 1747 
Q 834 1116 1028 756 
Q 1203 434 1556 434 
z
" transform="scale(0.015625)"/><path id="DejaVuSans-3e" d="M 550 4863 
L 1875 4863 
L 1875 4416 
L 1125 4416 
L 1125 -397 
L 1875 -397 
L 1875 -844 
L 550 -844 
L 550 4863 
z
" transform="scale(0.015625)"/><path id="DejaVuSans-40" d="M 1947 4863 
L 1947 -844 
L 622 -844 
L 622 -397 
L 1369 -397 
L 1369 4416 
L 622 4416 
L 622 4863 
L 1947 4863 
z
" transform="scale(0.015625)"/></defs><use xlink:href="#DejaVuSans-83" transform="translate(0 0.27)"/><use xlink:href="#DejaVuSans-51" transform="translate(68.41 0.27)"/><use xlink:href="#DejaVuSans-4a" transform="translate(131.79 0.27)"/><use xlink:href="#DejaVuSans-58" transform="translate(195.26 0.27)"/><use xlink:href="#DejaVuSans-4f" transform="translate(258.64 0.27)"/><use xlink:href="#DejaVuSans-52" transform="translate(286.43 0.27)"/><use xlink:href="#DejaVuSans-3" transform="translate(347.61 0.27)"/><use xlink:href="#DejaVuSans-47" transform="translate(379.39 0.27)"/><use xlink:href="#DejaVuSans-48" transform="translate(442.87 0.27)"/><use xlink:href="#DejaVuSans-3" transform="translate(504.39 0.27)"/><use xlink:href="#DejaVuSans-4c" transform="translate(536.18 0.27)"/><use xlink:href="#DejaVuSans-51" transform="translate(563.96 0.27)"/><use xlink:href="#DejaVuSans-46" transform="translate(627.34 0.27)"/><use xlink:href="#DejaVuSans-4c" transform="translate(682.32 0.27)"/><use xlink:href="#DejaVuSans-47" transform="translate(710.11 0.27)"/><use xlink:href="#DejaVuSans-48" transform="translate(773.58 0.27)"/><use xlink:href="#DejaVuSans-51" transform="translate(835.11 0.27)"/><use xlink:href="#DejaVuSans-46" transform="translate(898.49 0.27)"/><use xlink:href="#DejaVuSans-4c" transform="translate(953.47 0.27)"/><use xlink:href="#DejaVuSans-44" transform="translate(981.25 0.27)"/><use xlink:href="#DejaVuSans-3" transform="translate(1042.53 0.27)"/><use xlink:href="#DejaVuSans-Oblique-369" transform="translate(1074.32 0.27)"/><use xlink:href="#DejaVuSans-3" transform="translate(1140.28 0.27)"/><use xlink:href="#DejaVuSans-3e" transform="translate(1172.07 0.27)"/><use xlink:href="#DejaVuSans-72" transform="translate(1211.08 0.27)"/><use xlink:href="#DejaVuSans-40" transform="translate(1261.08 0.27)"/></g></g></g><g id="matplotlib.axis_4"><g id="ytick_5"><g id="line2d_35"><path d="M 465.35 355.24 
L 895.81 355.24 
" clip-path="url(#p33da7bd00d)" style="fill: none; stroke-dasharray: 2.96,1.28; stroke-dashoffset: 0; stroke: #ffffff; stroke-opacity: 0.3; stroke-width: 0.8"/></g><g id="line2d_36"><defs><path id="m5e07181663" d="M 0 0 
L -3.5 0 
" style="stroke: #ffffff; stroke-width: 0.8"/></defs><g><use xlink:href="#m5e07181663" x="465.35" y="355.24" style="fill: #ffffff; stroke: #ffffff; stroke-width: 0.8"/></g></g><g id="text_26"><!-- 0,0 --><g style="fill: #ffffff" transform="translate(442.45 359.04) scale(0.1 -0.1)"><use xlink:href="#DejaVuSans-13"/><use xlink:href="#DejaVuSans-f" transform="translate(63.62 0)"/><use xlink:href="#DejaVuSans-13" transform="translate(95.41 0)"/></g></g></g><g id="ytick_6"><g id="line2d_37"><path d="M 465.35 301.62 
L 895.81 301.62 
" clip-path="url(#p33da7bd00d)" style="fill: none; stroke-dasharray: 2.96,1.28; stroke-dashoffset: 0; stroke: #ffffff; stroke-opacity: 0.3; stroke-width: 0.8"/></g><g id="line2d_38"><g><use xlink:href="#m5e07181663" x="465.35" y="301.62" style="fill: #ffffff; stroke: #ffffff; stroke-width: 0.8"/></g></g><g id="text_27"><!-- 0,5 --><g style="fill: #ffffff" transform="translate(442.45 305.42) scale(0.1 -0.1)"><use xlink:href="#DejaVuSans-13"/><use xlink:href="#DejaVuSans-f" transform="translate(63.62 0)"/><use xlink:href="#DejaVuSans-18" transform="translate(95.41 0)"/></g></g></g><g id="ytick_7"><g id="line2d_39"><path d="M 465.35 248 
L 895.81 248 
" clip-path="url(#p33da7bd00d)" style="fill: none; stroke-dasharray: 2.96,1.28; stroke-dashoffset: 0; stroke: #ffffff; stroke-opacity: 0.3; stroke-width: 0.8"/></g><g id="line2d_40"><g><use xlink:href="#m5e07181663" x="465.35" y="248" style="fill: #ffffff; stroke: #ffffff; stroke-width: 0.8"/></g></g><g id="text_28"><!-- 1,0 --><g style="fill: #ffffff" transform="translate(442.45 251.8) scale(0.1 -0.1)"><use xlink:href="#DejaVuSans-14"/><use xlink:href="#DejaVuSans-f" transform="translate(63.62 0)"/><use xlink:href="#DejaVuSans-13" transform="translate(95.41 0)"/></g></g></g><g id="ytick_8"><g id="line2d_41"><path d="M 465.35 194.38 
L 895.81 194.38 
" clip-path="url(#p33da7bd00d)" style="fill: none; stroke-dasharray: 2.96,1.28; stroke-dashoffset: 0; stroke: #ffffff; stroke-opacity: 0.3; stroke-width: 0.8"/></g><g id="line2d_42"><g><use xlink:href="#m5e07181663" x="465.35" y="194.38" style="fill: #ffffff; stroke: #ffffff; stroke-width: 0.8"/></g></g><g id="text_29"><!-- 1,5 --><g style="fill: #ffffff" transform="translate(442.45 198.18) scale(0.1 -0.1)"><use xlink:href="#DejaVuSans-14"/><use xlink:href="#DejaVuSans-f" transform="translate(63.62 0)"/><use xlink:href="#DejaVuSans-18" transform="translate(95.41 0)"/></g></g></g><g id="ytick_9"><g id="line2d_43"><path d="M 465.35 140.76 
L 895.81 140.76 
" clip-path="url(#p33da7bd00d)" style="fill: none; stroke-dasharray: 2.96,1.28; stroke-dashoffset: 0; stroke: #ffffff; stroke-opacity: 0.3; stroke-width: 0.8"/></g><g id="line2d_44"><g><use xlink:href="#m5e07181663" x="465.35" y="140.76" style="fill: #ffffff; stroke: #ffffff; stroke-width: 0.8"/></g></g><g id="text_30"><!-- 2,0 --><g style="fill: #ffffff" transform="translate(442.45 144.56) scale(0.1 -0.1)"><use xlink:href="#DejaVuSans-15"/><use xlink:href="#DejaVuSans-f" transform="translate(63.62 0)"/><use xlink:href="#DejaVuSans-13" transform="translate(95.41 0)"/></g></g></g><g id="ytick_10"><g id="line2d_45"><path d="M 465.35 87.14 
L 895.81 87.14 
" clip-path="url(#p33da7bd00d)" style="fill: none; stroke-dasharray: 2.96,1.28; stroke-dashoffset: 0; stroke: #ffffff; stroke-opacity: 0.3; stroke-width: 0.8"/></g><g id="line2d_46"><g><use xlink:href="#m5e07181663" x="465.35" y="87.14" style="fill: #ffffff; stroke: #ffffff; stroke-width: 0.8"/></g></g><g id="text_31"><!-- 2,5 --><g style="fill: #ffffff" transform="translate(442.45 90.94) scale(0.1 -0.1)"><use xlink:href="#DejaVuSans-15"/><use xlink:href="#DejaVuSans-f" transform="translate(63.62 0)"/><use xlink:href="#DejaVuSans-18" transform="translate(95.41 0)"/></g></g></g><g id="text_32"><!-- Peso [% de la esfera] --><g style="fill: #ffffff" transform="translate(436.05 250.44) rotate(-90) scale(0.1 -0.1)"><defs><path id="DejaVuSans-8" d="M 4653 2053 
Q 4381 2053 4226 1822 
Q 4072 1591 4072 1178 
Q 4072 772 4226 539 
Q 4381 306 4653 306 
Q 4919 306 5073 539 
Q 5228 772 5228 1178 
Q 5228 1588 5073 1820 
Q 4919 2053 4653 2053 
z
M 4653 2450 
Q 5147 2450 5437 2106 
Q 5728 1763 5728 1178 
Q 5728 594 5436 251 
Q 5144 -91 4653 -91 
Q 4153 -91 3862 251 
Q 3572 594 3572 1178 
Q 3572 1766 3864 2108 
Q 4156 2450 4653 2450 
z
M 1428 4353 
Q 1159 4353 1004 4120 
Q 850 3888 850 3481 
Q 850 3069 1003 2837 
Q 1156 2606 1428 2606 
Q 1700 2606 1854 2837 
Q 2009 3069 2009 3481 
Q 2009 3884 1853 4118 
Q 1697 4353 1428 4353 
z
M 4250 4750 
L 4750 4750 
L 1831 -91 
L 1331 -91 
L 4250 4750 
z
M 1428 4750 
Q 1922 4750 2215 4408 
Q 2509 4066 2509 3481 
Q 2509 2891 2217 2550 
Q 1925 2209 1428 2209 
Q 931 2209 642 2551 
Q 353 2894 353 3481 
Q 353 4063 643 4406 
Q 934 4750 1428 4750 
z
" transform="scale(0.015625)"/><path id="DejaVuSans-49" d="M 2375 4863 
L 2375 4384 
L 1825 4384 
Q 1516 4384 1395 4259 
Q 1275 4134 1275 3809 
L 1275 3500 
L 2222 3500 
L 2222 3053 
L 1275 3053 
L 1275 0 
L 697 0 
L 697 3053 
L 147 3053 
L 147 3500 
L 697 3500 
L 697 3744 
Q 697 4328 969 4595 
Q 1241 4863 1831 4863 
L 2375 4863 
z
" transform="scale(0.015625)"/></defs><use xlink:href="#DejaVuSans-33"/><use xlink:href="#DejaVuSans-48" transform="translate(56.73 0)"/><use xlink:href="#DejaVuSans-56" transform="translate(118.27 0)"/><use xlink:href="#DejaVuSans-52" transform="translate(170.36 0)"/><use xlink:href="#DejaVuSans-3" transform="translate(231.55 0)"/><use xlink:href="#DejaVuSans-3e" transform="translate(263.33 0)"/><use xlink:href="#DejaVuSans-8" transform="translate(302.34 0)"/><use xlink:href="#DejaVuSans-3" transform="translate(397.36 0)"/><use xlink:href="#DejaVuSans-47" transform="translate(429.14 0)"/><use xlink:href="#DejaVuSans-48" transform="translate(492.62 0)"/><use xlink:href="#DejaVuSans-3" transform="translate(554.16 0)"/><use xlink:href="#DejaVuSans-4f" transform="translate(585.94 0)"/><use xlink:href="#DejaVuSans-44" transform="translate(613.72 0)"/><use xlink:href="#DejaVuSans-3" transform="translate(675 0)"/><use xlink:href="#DejaVuSans-48" transform="translate(706.78 0)"/><use xlink:href="#DejaVuSans-56" transform="translate(768.31 0)"/><use xlink:href="#DejaVuSans-49" transform="translate(820.41 0)"/><use xlink:href="#DejaVuSans-48" transform="translate(855.61 0)"/><use xlink:href="#DejaVuSans-55" transform="translate(917.14 0)"/><use xlink:href="#DejaVuSans-44" transform="translate(958.25 0)"/><use xlink:href="#DejaVuSans-40" transform="translate(1019.53 0)"/></g></g></g><g id="line2d_47"><path d="M 465.35 345.03 
L 477.31 314.66 
L 489.27 275.32 
L 501.22 238.4 
L 513.18 205.04 
L 525.14 176.24 
L 537.1 152.88 
L 549.05 135.66 
L 561.01 125.12 
L 572.97 121.57 
L 584.92 125.12 
L 596.88 135.66 
L 608.84 152.88 
L 620.8 176.24 
L 632.75 205.04 
L 644.71 238.4 
L 656.67 275.32 
L 668.63 314.66 
L 680.58 345.03 
L 692.54 314.66 
L 704.5 275.32 
L 716.45 238.4 
L 728.41 205.04 
L 740.37 176.24 
L 752.33 152.88 
L 764.28 135.66 
L 776.24 125.12 
L 788.2 121.57 
L 800.16 125.12 
L 812.11 135.66 
L 824.07 152.88 
L 836.03 176.24 
L 847.99 205.04 
L 859.94 238.4 
L 871.9 275.32 
L 883.86 314.66 
" clip-path="url(#p33da7bd00d)" style="fill: none; stroke: #1f77b4; stroke-width: 1.2; stroke-linecap: square"/><defs><path id="m6a7671b2ea" d="M 0 1.5 
C 0.4 1.5 0.78 1.34 1.06 1.06 
C 1.34 0.78 1.5 0.4 1.5 0 
C 1.5 -0.4 1.34 -0.78 1.06 -1.06 
C 0.78 -1.34 0.4 -1.5 0 -1.5 
C -0.4 -1.5 -0.78 -1.34 -1.06 -1.06 
C -1.34 -0.78 -1.5 -0.4 -1.5 0 
C -1.5 0.4 -1.34 0.78 -1.06 1.06 
C -0.78 1.34 -0.4 1.5 0 1.5 
z
" style="stroke: #1f77b4"/></defs><g clip-path="url(#p33da7bd00d)"><use xlink:href="#m6a7671b2ea" x="465.35" y="345.03" style="fill: #1f77b4; stroke: #1f77b4"/><use xlink:href="#m6a7671b2ea" x="477.31" y="314.66" style="fill: #1f77b4; stroke: #1f77b4"/><use xlink:href="#m6a7671b2ea" x="489.27" y="275.32" style="fill: #1f77b4; stroke: #1f77b4"/><use xlink:href="#m6a7671b2ea" x="501.22" y="238.4" style="fill: #1f77b4; stroke: #1f77b4"/><use xlink:href="#m6a7671b2ea" x="513.18" y="205.04" style="fill: #1f77b4; stroke: #1f77b4"/><use xlink:href="#m6a7671b2ea" x="525.14" y="176.24" style="fill: #1f77b4; stroke: #1f77b4"/><use xlink:href="#m6a7671b2ea" x="537.1" y="152.88" style="fill: #1f77b4; stroke: #1f77b4"/><use xlink:href="#m6a7671b2ea" x="549.05" y="135.66" style="fill: #1f77b4; stroke: #1f77b4"/><use xlink:href="#m6a7671b2ea" x="561.01" y="125.12" style="fill: #1f77b4; stroke: #1f77b4"/><use xlink:href="#m6a7671b2ea" x="572.97" y="121.57" style="fill: #1f77b4; stroke: #1f77b4"/><use xlink:href="#m6a7671b2ea" x="584.92" y="125.12" style="fill: #1f77b4; stroke: #1f77b4"/><use xlink:href="#m6a7671b2ea" x="596.88" y="135.66" style="fill: #1f77b4; stroke: #1f77b4"/><use xlink:href="#m6a7671b2ea" x="608.84" y="152.88" style="fill: #1f77b4; stroke: #1f77b4"/><use xlink:href="#m6a7671b2ea" x="620.8" y="176.24" style="fill: #1f77b4; stroke: #1f77b4"/><use xlink:href="#m6a7671b2ea" x="632.75" y="205.04" style="fill: #1f77b4; stroke: #1f77b4"/><use xlink:href="#m6a7671b2ea" x="644.71" y="238.4" style="fill: #1f77b4; stroke: #1f77b4"/><use xlink:href="#m6a7671b2ea" x="656.67" y="275.32" style="fill: #1f77b4; stroke: #1f77b4"/><use xlink:href="#m6a7671b2ea" x="668.63" y="314.66" style="fill: #1f77b4; stroke: #1f77b4"/><use xlink:href="#m6a7671b2ea" x="680.58" y="345.03" style="fill: #1f77b4; stroke: #1f77b4"/><use xlink:href="#m6a7671b2ea" x="692.54" y="314.66" style="fill: #1f77b4; stroke: #1f77b4"/><use xlink:href="#m6a7671b2ea" x="704.5" y="275.32" style="fill: #1f77b4; stroke: #1f77b4"/><use xlink:href="#m6a7671b2ea" x="716.45" y="238.4" style="fill: #1f77b4; stroke: #1f77b4"/><use xlink:href="#m6a7671b2ea" x="728.41" y="205.04" style="fill: #1f77b4; stroke: #1f77b4"/><use xlink:href="#m6a7671b2ea" x="740.37" y="176.24" style="fill: #1f77b4; stroke: #1f77b4"/><use xlink:href="#m6a7671b2ea" x="752.33" y="152.88" style="fill: #1f77b4; stroke: #1f77b4"/><use xlink:href="#m6a7671b2ea" x="764.28" y="135.66" style="fill: #1f77b4; stroke: #1f77b4"/><use xlink:href="#m6a7671b2ea" x="776.24" y="125.12" style="fill: #1f77b4; stroke: #1f77b4"/><use xlink:href="#m6a7671b2ea" x="788.2" y="121.57" style="fill: #1f77b4; stroke: #1f77b4"/><use xlink:href="#m6a7671b2ea" x="800.16" y="125.12" style="fill: #1f77b4; stroke: #1f77b4"/><use xlink:href="#m6a7671b2ea" x="812.11" y="135.66" style="fill: #1f77b4; stroke: #1f77b4"/><use xlink:href="#m6a7671b2ea" x="824.07" y="152.88" style="fill: #1f77b4; stroke: #1f77b4"/><use xlink:href="#m6a7671b2ea" x="836.03" y="176.24" style="fill: #1f77b4; stroke: #1f77b4"/><use xlink:href="#m6a7671b2ea" x="847.99" y="205.04" style="fill: #1f77b4; stroke: #1f77b4"/><use xlink:href="#m6a7671b2ea" x="859.94" y="238.4" style="fill: #1f77b4; stroke: #1f77b4"/><use xlink:href="#m6a7671b2ea" x="871.9" y="275.32" style="fill: #1f77b4; stroke: #1f77b4"/><use xlink:href="#m6a7671b2ea" x="883.86" y="314.66" style="fill: #1f77b4; stroke: #1f77b4"/></g></g><g id="patch_6"><path d="M 465.35 355.24 
L 465.35 39.79 
" style="fill: none; stroke: #ffffff; stroke-width: 0.8; stroke-linejoin: miter; stroke-linecap: square"/></g><g id="patch_7"><path d="M 895.81 355.24 
L 895.81 39.79 
" style="fill: none; stroke: #ffffff; stroke-width: 0.8; stroke-linejoin: miter; stroke-linecap: square"/></g><g id="patch_8"><path d="M 465.35 355.24 
L 895.81 355.24 
" style="fill: none; stroke: #ffffff; stroke-width: 0.8; stroke-linejoin: miter; stroke-linecap: square"/></g><g id="patch_9"><path d="M 465.35 39.79 
L 895.81 39.79 
" style="fill: none; stroke: #ffffff; stroke-width: 0.8; stroke-linejoin: miter; stroke-linecap: square"/></g><g id="text_33"><!-- Pesos de las lecturas: elemento mayor 2,18 % de la esfera --><g style="fill: #ffffff" transform="translate(504.13 33.79) scale(0.12 -0.12)"><defs><path id="DejaVuSans-50" d="M 3328 2828 
Q 3544 3216 3844 3400 
Q 4144 3584 4550 3584 
Q 5097 3584 5394 3201 
Q 5691 2819 5691 2113 
L 5691 0 
L 5113 0 
L 5113 2094 
Q 5113 2597 4934 2840 
Q 4756 3084 4391 3084 
Q 3944 3084 3684 2787 
Q 3425 2491 3425 1978 
L 3425 0 
L 2847 0 
L 2847 2094 
Q 2847 2600 2669 2842 
Q 2491 3084 2119 3084 
Q 1678 3084 1418 2786 
Q 1159 2488 1159 1978 
L 1159 0 
L 581 0 
L 581 3500 
L 1159 3500 
L 1159 2956 
Q 1356 3278 1631 3431 
Q 1906 3584 2284 3584 
Q 2666 3584 2933 3390 
Q 3200 3197 3328 2828 
z
" transform="scale(0.015625)"/><path id="DejaVuSans-5c" d="M 2059 -325 
Q 1816 -950 1584 -1140 
Q 1353 -1331 966 -1331 
L 506 -1331 
L 506 -850 
L 844 -850 
Q 1081 -850 1212 -737 
Q 1344 -625 1503 -206 
L 1606 56 
L 191 3500 
L 800 3500 
L 1894 763 
L 2988 3500 
L 3597 3500 
L 2059 -325 
z
" transform="scale(0.015625)"/></defs><use xlink:href="#DejaVuSans-33"/><use xlink:href="#DejaVuSans-48" transform="translate(56.73 0)"/><use xlink:href="#DejaVuSans-56" transform="translate(118.27 0)"/><use xlink:href="#DejaVuSans-52" transform="translate(170.36 0)"/><use xlink:href="#DejaVuSans-56" transform="translate(231.55 0)"/><use xlink:href="#DejaVuSans-3" transform="translate(283.64 0)"/><use xlink:href="#DejaVuSans-47" transform="translate(315.42 0)"/><use xlink:href="#DejaVuSans-48" transform="translate(378.91 0)"/><use xlink:href="#DejaVuSans-3" transform="translate(440.44 0)"/><use xlink:href="#DejaVuSans-4f" transform="translate(472.22 0)"/><use xlink:href="#DejaVuSans-44" transform="translate(500 0)"/><use xlink:href="#DejaVuSans-56" transform="translate(561.28 0)"/><use xlink:href="#DejaVuSans-3" transform="translate(613.38 0)"/><use xlink:href="#DejaVuSans-4f" transform="translate(645.16 0)"/><use xlink:href="#DejaVuSans-48" transform="translate(672.94 0)"/><use xlink:href="#DejaVuSans-46" transform="translate(734.47 0)"/><use xlink:href="#DejaVuSans-57" transform="translate(789.45 0)"/><use xlink:href="#DejaVuSans-58" transform="translate(828.66 0)"/><use xlink:href="#DejaVuSans-55" transform="translate(892.03 0)"/><use xlink:href="#DejaVuSans-44" transform="translate(933.14 0)"/><use xlink:href="#DejaVuSans-56" transform="translate(994.42 0)"/><use xlink:href="#DejaVuSans-1d" transform="translate(1046.52 0)"/><use xlink:href="#DejaVuSans-3" transform="translate(1080.2 0)"/><use xlink:href="#DejaVuSans-48" transform="translate(1111.98 0)"/><use xlink:href="#DejaVuSans-4f" transform="translate(1173.52 0)"/><use xlink:href="#DejaVuSans-48" transform="translate(1201.3 0)"/><use xlink:href="#DejaVuSans-50" transform="translate(1262.83 0)"/><use xlink:href="#DejaVuSans-48" transform="translate(1360.23 0)"/><use xlink:href="#DejaVuSans-51" transform="translate(1421.77 0)"/><use xlink:href="#DejaVuSans-57" transform="translate(1485.14 0)"/><use xlink:href="#DejaVuSans-52" transform="translate(1524.34 0)"/><use xlink:href="#DejaVuSans-3" transform="translate(1585.53 0)"/><use xlink:href="#DejaVuSans-50" transform="translate(1617.31 0)"/><use xlink:href="#DejaVuSans-44" transform="translate(1714.72 0)"/><use xlink:href="#DejaVuSans-5c" transform="translate(1776 0)"/><use xlink:href="#DejaVuSans-52" transform="translate(1835.19 0)"/><use xlink:href="#DejaVuSans-55" transform="translate(1896.38 0)"/><use xlink:href="#DejaVuSans-3" transform="translate(1937.48 0)"/><use xlink:href="#DejaVuSans-15" transform="translate(1969.27 0)"/><use xlink:href="#DejaVuSans-f" transform="translate(2032.89 0)"/><use xlink:href="#DejaVuSans-14" transform="translate(2064.67 0)"/><use xlink:href="#DejaVuSans-1b" transform="translate(2128.3 0)"/><use xlink:href="#DejaVuSans-3" transform="translate(2191.92 0)"/><use xlink:href="#DejaVuSans-8" transform="translate(2223.7 0)"/><use xlink:href="#DejaVuSans-3" transform="translate(2318.72 0)"/><use xlink:href="#DejaVuSans-47" transform="translate(2350.5 0)"/><use xlink:href="#DejaVuSans-48" transform="translate(2413.98 0)"/><use xlink:href="#DejaVuSans-3" transform="translate(2475.52 0)"/><use xlink:href="#DejaVuSans-4f" transform="translate(2507.3 0)"/><use xlink:href="#DejaVuSans-44" transform="translate(2535.08 0)"/><use xlink:href="#DejaVuSans-3" transform="translate(2596.36 0)"/><use xlink:href="#DejaVuSans-48" transform="translate(2628.14 0)"/><use xlink:href="#DejaVuSans-56" transform="translate(2689.67 0)"/><use xlink:href="#DejaVuSans-49" transform="translate(2741.77 0)"/><use xlink:href="#DejaVuSans-48" transform="translate(2776.97 0)"/><use xlink:href="#DejaVuSans-55" transform="translate(2838.5 0)"/><use xlink:href="#DejaVuSans-44" transform="translate(2879.61 0)"/></g></g><g id="legend_2"><g id="patch_10"><path d="M 627.77 58.95 
L 733.4 58.95 
Q 735.06 58.95 735.06 57.28 
L 735.06 45.62 
Q 735.06 43.95 733.4 43.95 
L 627.77 43.95 
Q 626.1 43.95 626.1 45.62 
L 626.1 57.28 
Q 626.1 58.95 627.77 58.95 
z
" style="opacity: 0.8; stroke: #cccccc; stroke-linejoin: miter"/></g><g id="line2d_48"><path d="M 629.44 50.7 
L 637.77 50.7 
L 646.1 50.7 
" style="fill: none; stroke: #1f77b4; stroke-width: 1.2; stroke-linecap: square"/><g><use xlink:href="#m6a7671b2ea" x="637.77" y="50.7" style="fill: #1f77b4; stroke: #1f77b4"/></g></g><g id="text_34"><!-- $K(\phi)$ en cada plano --><g style="fill: #ffffff" transform="translate(652.76 53.62) scale(0.0833 -0.0833)"><defs><path id="DejaVuSans-Oblique-2e" d="M 1081 4666 
L 1716 4666 
L 1331 2700 
L 3781 4666 
L 4622 4666 
L 1850 2438 
L 3878 0 
L 3109 0 
L 1247 2272 
L 806 0 
L 172 0 
L 1081 4666 
z
" transform="scale(0.015625)"/></defs><use xlink:href="#DejaVuSans-Oblique-2e" transform="translate(0 0.02)"/><use xlink:href="#DejaVuSans-b" transform="translate(65.58 0.02)"/><use xlink:href="#DejaVuSans-Oblique-369" transform="translate(104.59 0.02)"/><use xlink:href="#DejaVuSans-c" transform="translate(170.56 0.02)"/><use xlink:href="#DejaVuSans-3" transform="translate(209.57 0.02)"/><use xlink:href="#DejaVuSans-48" transform="translate(241.36 0.02)"/><use xlink:href="#DejaVuSans-51" transform="translate(302.88 0.02)"/><use xlink:href="#DejaVuSans-3" transform="translate(366.26 0.02)"/><use xlink:href="#DejaVuSans-46" transform="translate(398.05 0.02)"/><use xlink:href="#DejaVuSans-44" transform="translate(453.03 0.02)"/><use xlink:href="#DejaVuSans-47" transform="translate(514.31 0.02)"/><use xlink:href="#DejaVuSans-44" transform="translate(577.78 0.02)"/><use xlink:href="#DejaVuSans-3" transform="translate(639.06 0.02)"/><use xlink:href="#DejaVuSans-53" transform="translate(670.85 0.02)"/><use xlink:href="#DejaVuSans-4f" transform="translate(734.33 0.02)"/><use xlink:href="#DejaVuSans-44" transform="translate(762.11 0.02)"/><use xlink:href="#DejaVuSans-51" transform="translate(823.39 0.02)"/><use xlink:href="#DejaVuSans-52" transform="translate(886.77 0.02)"/></g></g></g></g></g><defs><clipPath id="p982757ed48"><path d="M 345.01 197.51 
C 345.01 176.8 340.93 156.29 333 137.16 
C 325.07 118.02 313.45 100.63 298.81 85.99 
C 284.16 71.34 266.78 59.72 247.64 51.8 
C 228.5 43.87 207.99 39.79 187.28 39.79 
C 166.57 39.79 146.06 43.87 126.92 51.8 
C 107.79 59.72 90.4 71.34 75.75 85.99 
C 61.11 100.63 49.49 118.02 41.56 137.16 
C 33.64 156.29 29.56 176.8 29.56 197.51 
C 29.56 218.23 33.64 238.74 41.56 257.87 
C 49.49 277.01 61.11 294.4 75.75 309.04 
C 90.4 323.69 107.79 335.3 126.92 343.23 
C 146.06 351.16 166.57 355.24 187.28 355.24 
C 207.99 355.24 228.5 351.16 247.64 343.23 
C 266.78 335.3 284.16 323.69 298.81 309.04 
C 313.45 294.4 325.07 277.01 333 257.87 
C 340.93 238.74 345.01 218.23 345.01 197.51 
M 187.28 197.51 
C 187.28 197.51 187.28 197.51 187.28 197.51 
C 187.28 197.51 187.28 197.51 187.28 197.51 
C 187.28 197.51 187.28 197.51 187.28 197.51 
C 187.28 197.51 187.28 197.51 187.28 197.51 
C 187.28 197.51 187.28 197.51 187.28 197.51 
C 187.28 197.51 187.28 197.51 187.28 197.51 
C 187.28 197.51 187.28 197.51 187.28 197.51 
C 187.28 197.51 187.28 197.51 187.28 197.51 
C 187.28 197.51 187.28 197.51 187.28 197.51 
C 187.28 197.51 187.28 197.51 187.28 197.51 
C 187.28 197.51 187.28 197.51 187.28 197.51 
C 187.28 197.51 187.28 197.51 187.28 197.51 
C 187.28 197.51 187.28 197.51 187.28 197.51 
C 187.28 197.51 187.28 197.51 187.28 197.51 
C 187.28 197.51 187.28 197.51 187.28 197.51 
C 187.28 197.51 187.28 197.51 187.28 197.51 
z
"/></clipPath><clipPath id="p33da7bd00d"><rect x="465.35" y="39.79" width="430.46" height="315.45"/></clipPath></defs></svg>
