<?xml version="1.0" encoding="utf-8" standalone="no"?><svg xmlns:xlink="http://www.w3.org/1999/xlink" width="847.851225pt" height="381.62pt" viewBox="0 0 847.851225 381.62" xmlns="http://www.w3.org/2000/svg" version="1.1"><defs><style type="text/css">*{stroke-linejoin: round; stroke-linecap: butt}</style></defs><g id="figure_1"><g id="patch_1"><path d="M 0 381.62 
L 847.85 381.62 
L 847.85 0 
L 0 0 
z
" style="fill: #ffffff"/></g><g id="axes_1"><g id="patch_2"><path d="M 40.93 343.32 
L 412.61 343.32 
L 412.61 26.32 
L 40.93 26.32 
z
" style="fill: #ffffff"/></g><g id="patch_3"><path d="M 132.91 343.32 
L 320.62 343.32 
L 320.62 26.32 
L 132.91 26.32 
z
" clip-path="url(#pc9ecfd6786)" style="fill: #c8deed; stroke: #c8deed; stroke-linejoin: miter"/></g><g id="matplotlib.axis_1"><g id="xtick_1"><g id="line2d_1"><path d="M 57.82 343.32 
L 57.82 26.32 
" clip-path="url(#pc9ecfd6786)" style="fill: none; stroke-dasharray: 2.96,1.28; stroke-dashoffset: 0; stroke: #e0e0e0; stroke-opacity: 0.6; stroke-width: 0.8"/></g><g id="line2d_2"><defs><path id="m3d27035b55" d="M 0 0 
L 0 3.5 
" style="stroke: #000000; stroke-width: 0.8"/></defs><g><use xlink:href="#m3d27035b55" x="57.82" y="343.32" style="stroke: #000000; stroke-width: 0.8"/></g></g><g id="text_1"><!-- 0 --><g transform="translate(54.64 357.92) scale(0.1 -0.1)"><defs><path id="DejaVuSans-13" d="M 2034 4250 
Q 1547 4250 1301 3770 
Q 1056 3291 1056 2328 
Q 1056 1369 1301 889 
Q 1547 409 2034 409 
Q 2525 409 2770 889 
Q 3016 1369 3016 2328 
Q 3016 3291 2770 3770 
Q 2525 4250 2034 4250 
z
M 2034 4750 
Q 2819 4750 3233 4129 
Q 3647 3509 3647 2328 
Q 3647 1150 3233 529 
Q 2819 -91 2034 -91 
Q 1250 -91 836 529 
Q 422 1150 422 2328 
Q 422 3509 836 4129 
Q 1250 4750 2034 4750 
z
" transform="scale(0.015625)"/></defs><use xlink:href="#DejaVuSans-13"/></g></g></g><g id="xtick_2"><g id="line2d_3"><path d="M 104.75 343.32 
L 104.75 26.32 
" clip-path="url(#pc9ecfd6786)" style="fill: none; stroke-dasharray: 2.96,1.28; stroke-dashoffset: 0; stroke: #e0e0e0; stroke-opacity: 0.6; stroke-width: 0.8"/></g><g id="line2d_4"><g><use xlink:href="#m3d27035b55" x="104.75" y="343.32" style="stroke: #000000; stroke-width: 0.8"/></g></g><g id="text_2"><!-- 25 --><g transform="translate(98.39 357.92) scale(0.1 -0.1)"><defs><path id="DejaVuSans-15" d="M 1228 531 
L 3431 531 
L 3431 0 
L 469 0 
L 469 531 
Q 828 903 1448 1529 
Q 2069 2156 2228 2338 
Q 2531 2678 2651 2914 
Q 2772 3150 2772 3378 
Q 2772 3750 2511 3984 
Q 2250 4219 1831 4219 
Q 1534 4219 1204 4116 
Q 875 4013 500 3803 
L 500 4441 
Q 881 4594 1212 4672 
Q 1544 4750 1819 4750 
Q 2544 4750 2975 4387 
Q 3406 4025 3406 3419 
Q 3406 3131 3298 2873 
Q 3191 2616 2906 2266 
Q 2828 2175 2409 1742 
Q 1991 1309 1228 531 
z
" transform="scale(0.015625)"/><path id="DejaVuSans-18" d="M 691 4666 
L 3169 4666 
L 3169 4134 
L 1269 4134 
L 1269 2991 
Q 1406 3038 1543 3061 
Q 1681 3084 1819 3084 
Q 2600 3084 3056 2656 
Q 3513 2228 3513 1497 
Q 3513 744 3044 326 
Q 2575 -91 1722 -91 
Q 1428 -91 1123 -41 
Q 819 9 494 109 
L 494 744 
Q 775 591 1075 516 
Q 1375 441 1709 441 
Q 2250 441 2565 725 
Q 2881 1009 2881 1497 
Q 2881 1984 2565 2268 
Q 2250 2553 1709 2553 
Q 1456 2553 1204 2497 
Q 953 2441 691 2322 
L 691 4666 
z
" transform="scale(0.015625)"/></defs><use xlink:href="#DejaVuSans-15"/><use xlink:href="#DejaVuSans-18" transform="translate(63.62 0)"/></g></g></g><g id="xtick_3"><g id="line2d_5"><path d="M 151.68 343.32 
L 151.68 26.32 
" clip-path="url(#pc9ecfd6786)" style="fill: none; stroke-dasharray: 2.96,1.28; stroke-dashoffset: 0; stroke: #e0e0e0; stroke-opacity: 0.6; stroke-width: 0.8"/></g><g id="line2d_6"><g><use xlink:href="#m3d27035b55" x="151.68" y="343.32" style="stroke: #000000; stroke-width: 0.8"/></g></g><g id="text_3"><!-- 50 --><g transform="translate(145.32 357.92) scale(0.1 -0.1)"><use xlink:href="#DejaVuSans-18"/><use xlink:href="#DejaVuSans-13" transform="translate(63.62 0)"/></g></g></g><g id="xtick_4"><g id="line2d_7"><path d="M 198.61 343.32 
L 198.61 26.32 
" clip-path="url(#pc9ecfd6786)" style="fill: none; stroke-dasharray: 2.96,1.28; stroke-dashoffset: 0; stroke: #e0e0e0; stroke-opacity: 0.6; stroke-width: 0.8"/></g><g id="line2d_8"><g><use xlink:href="#m3d27035b55" x="198.61" y="343.32" style="stroke: #000000; stroke-width: 0.8"/></g></g><g id="text_4"><!-- 75 --><g transform="translate(192.25 357.92) scale(0.1 -0.1)"><defs><path id="DejaVuSans-1a" d="M 525 4666 
L 3525 4666 
L 3525 4397 
L 1831 0 
L 1172 0 
L 2766 4134 
L 525 4134 
L 525 4666 
z
" transform="scale(0.015625)"/></defs><use xlink:href="#DejaVuSans-1a"/><use xlink:href="#DejaVuSans-18" transform="translate(63.62 0)"/></g></g></g><g id="xtick_5"><g id="line2d_9"><path d="M 245.54 343.32 
L 245.54 26.32 
" clip-path="url(#pc9ecfd6786)" style="fill: none; stroke-dasharray: 2.96,1.28; stroke-dashoffset: 0; stroke: #e0e0e0; stroke-opacity: 0.6; stroke-width: 0.8"/></g><g id="line2d_10"><g><use xlink:href="#m3d27035b55" x="245.54" y="343.32" style="stroke: #000000; stroke-width: 0.8"/></g></g><g id="text_5"><!-- 100 --><g transform="translate(235.99 357.92) scale(0.1 -0.1)"><defs><path id="DejaVuSans-14" d="M 794 531 
L 1825 531 
L 1825 4091 
L 703 3866 
L 703 4441 
L 1819 4666 
L 2450 4666 
L 2450 531 
L 3481 531 
L 3481 0 
L 794 0 
L 794 531 
z
" transform="scale(0.015625)"/></defs><use xlink:href="#DejaVuSans-14"/><use xlink:href="#DejaVuSans-13" transform="translate(63.62 0)"/><use xlink:href="#DejaVuSans-13" transform="translate(127.25 0)"/></g></g></g><g id="xtick_6"><g id="line2d_11"><path d="M 292.47 343.32 
L 292.47 26.32 
" clip-path="url(#pc9ecfd6786)" style="fill: none; stroke-dasharray: 2.96,1.28; stroke-dashoffset: 0; stroke: #e0e0e0; stroke-opacity: 0.6; stroke-width: 0.8"/></g><g id="line2d_12"><g><use xlink:href="#m3d27035b55" x="292.47" y="343.32" style="stroke: #000000; stroke-width: 0.8"/></g></g><g id="text_6"><!-- 125 --><g transform="translate(282.92 357.92) scale(0.1 -0.1)"><use xlink:href="#DejaVuSans-14"/><use xlink:href="#DejaVuSans-15" transform="translate(63.62 0)"/><use xlink:href="#DejaVuSans-18" transform="translate(127.25 0)"/></g></g></g><g id="xtick_7"><g id="line2d_13"><path d="M 339.4 343.32 
L 339.4 26.32 
" clip-path="url(#pc9ecfd6786)" style="fill: none; stroke-dasharray: 2.96,1.28; stroke-dashoffset: 0; stroke: #e0e0e0; stroke-opacity: 0.6; stroke-width: 0.8"/></g><g id="line2d_14"><g><use xlink:href="#m3d27035b55" x="339.4" y="343.32" style="stroke: #000000; stroke-width: 0.8"/></g></g><g id="text_7"><!-- 150 --><g transform="translate(329.85 357.92) scale(0.1 -0.1)"><use xlink:href="#DejaVuSans-14"/><use xlink:href="#DejaVuSans-18" transform="translate(63.62 0)"/><use xlink:href="#DejaVuSans-13" transform="translate(127.25 0)"/></g></g></g><g id="xtick_8"><g id="line2d_15"><path d="M 386.32 343.32 
L 386.32 26.32 
" clip-path="url(#pc9ecfd6786)" style="fill: none; stroke-dasharray: 2.96,1.28; stroke-dashoffset: 0; stroke: #e0e0e0; stroke-opacity: 0.6; stroke-width: 0.8"/></g><g id="line2d_16"><g><use xlink:href="#m3d27035b55" x="386.32" y="343.32" style="stroke: #000000; stroke-width: 0.8"/></g></g><g id="text_8"><!-- 175 --><g transform="translate(376.78 357.92) scale(0.1 -0.1)"><use xlink:href="#DejaVuSans-14"/><use xlink:href="#DejaVuSans-1a" transform="translate(63.62 0)"/><use xlink:href="#DejaVuSans-18" transform="translate(127.25 0)"/></g></g></g><g id="text_9"><!-- Polar angle $\theta$ [°]  (0° forward → 180° rearward) --><g transform="translate(109.32 372.02) scale(0.1 -0.1)"><defs><path id="DejaVuSans-33" d="M 1259 4147 
L 1259 2394 
L 2053 2394 
Q 2494 2394 2734 2622 
Q 2975 2850 2975 3272 
Q 2975 3691 2734 3919 
Q 2494 4147 2053 4147 
L 1259 4147 
z
M 628 4666 
L 2053 4666 
Q 2838 4666 3239 4311 
Q 3641 3956 3641 3272 
Q 3641 2581 3239 2228 
Q 2838 1875 2053 1875 
L 1259 1875 
L 1259 0 
L 628 0 
L 628 4666 
z
" transform="scale(0.015625)"/><path id="DejaVuSans-52" d="M 1959 3097 
Q 1497 3097 1228 2736 
Q 959 2375 959 1747 
Q 959 1119 1226 758 
Q 1494 397 1959 397 
Q 2419 397 2687 759 
Q 2956 1122 2956 1747 
Q 2956 2369 2687 2733 
Q 2419 3097 1959 3097 
z
M 1959 3584 
Q 2709 3584 3137 3096 
Q 3566 2609 3566 1747 
Q 3566 888 3137 398 
Q 2709 -91 1959 -91 
Q 1206 -91 779 398 
Q 353 888 353 1747 
Q 353 2609 779 3096 
Q 1206 3584 1959 3584 
z
" transform="scale(0.015625)"/><path id="DejaVuSans-4f" d="M 603 4863 
L 1178 4863 
L 1178 0 
L 603 0 
L 603 4863 
z
" transform="scale(0.015625)"/><path id="DejaVuSans-44" d="M 2194 1759 
Q 1497 1759 1228 1600 
Q 959 1441 959 1056 
Q 959 750 1161 570 
Q 1363 391 1709 391 
Q 2188 391 2477 730 
Q 2766 1069 2766 1631 
L 2766 1759 
L 2194 1759 
z
M 3341 1997 
L 3341 0 
L 2766 0 
L 2766 531 
Q 2569 213 2275 61 
Q 1981 -91 1556 -91 
Q 1019 -91 701 211 
Q 384 513 384 1019 
Q 384 1609 779 1909 
Q 1175 2209 1959 2209 
L 2766 2209 
L 2766 2266 
Q 2766 2663 2505 2880 
Q 2244 3097 1772 3097 
Q 1472 3097 1187 3025 
Q 903 2953 641 2809 
L 641 3341 
Q 956 3463 1253 3523 
Q 1550 3584 1831 3584 
Q 2591 3584 2966 3190 
Q 3341 2797 3341 1997 
z
" transform="scale(0.015625)"/><path id="DejaVuSans-55" d="M 2631 2963 
Q 2534 3019 2420 3045 
Q 2306 3072 2169 3072 
Q 1681 3072 1420 2755 
Q 1159 2438 1159 1844 
L 1159 0 
L 581 0 
L 581 3500 
L 1159 3500 
L 1159 2956 
Q 1341 3275 1631 3429 
Q 1922 3584 2338 3584 
Q 2397 3584 2469 3576 
Q 2541 3569 2628 3553 
L 2631 2963 
z
" transform="scale(0.015625)"/><path id="DejaVuSans-3" transform="scale(0.015625)"/><path id="DejaVuSans-51" d="M 3513 2113 
L 3513 0 
L 2938 0 
L 2938 2094 
Q 2938 2591 2744 2837 
Q 2550 3084 2163 3084 
Q 1697 3084 1428 2787 
Q 1159 2491 1159 1978 
L 1159 0 
L 581 0 
L 581 3500 
L 1159 3500 
L 1159 2956 
Q 1366 3272 1645 3428 
Q 1925 3584 2291 3584 
Q 2894 3584 3203 3211 
Q 3513 2838 3513 2113 
z
" transform="scale(0.015625)"/><path id="DejaVuSans-4a" d="M 2906 1791 
Q 2906 2416 2648 2759 
Q 2391 3103 1925 3103 
Q 1463 3103 1205 2759 
Q 947 2416 947 1791 
Q 947 1169 1205 825 
Q 1463 481 1925 481 
Q 2391 481 2648 825 
Q 2906 1169 2906 1791 
z
M 3481 434 
Q 3481 -459 3084 -895 
Q 2688 -1331 1869 -1331 
Q 1566 -1331 1297 -1286 
Q 1028 -1241 775 -1147 
L 775 -588 
Q 1028 -725 1275 -790 
Q 1522 -856 1778 -856 
Q 2344 -856 2625 -561 
Q 2906 -266 2906 331 
L 2906 616 
Q 2728 306 2450 153 
Q 2172 0 1784 0 
Q 1141 0 747 490 
Q 353 981 353 1791 
Q 353 2603 747 3093 
Q 1141 3584 1784 3584 
Q 2172 3584 2450 3431 
Q 2728 3278 2906 2969 
L 2906 3500 
L 3481 3500 
L 3481 434 
z
" transform="scale(0.015625)"/><path id="DejaVuSans-48" d="M 3597 1894 
L 3597 1613 
L 953 1613 
Q 991 1019 1311 708 
Q 1631 397 2203 397 
Q 2534 397 2845 478 
Q 3156 559 3463 722 
L 3463 178 
Q 3153 47 2828 -22 
Q 2503 -91 2169 -91 
Q 1331 -91 842 396 
Q 353 884 353 1716 
Q 353 2575 817 3079 
Q 1281 3584 2069 3584 
Q 2775 3584 3186 3129 
Q 3597 2675 3597 1894 
z
M 3022 2063 
Q 3016 2534 2758 2815 
Q 2500 3097 2075 3097 
Q 1594 3097 1305 2825 
Q 1016 2553 972 2059 
L 3022 2063 
z
" transform="scale(0.015625)"/><path id="DejaVuSans-Oblique-34c" d="M 2913 2219 
L 925 2219 
Q 791 1284 928 888 
Q 1100 400 1566 400 
Q 2034 400 2391 891 
Q 2703 1322 2913 2219 
z
M 3009 2750 
Q 3094 3638 2984 3950 
Q 2813 4444 2353 4444 
Q 1875 4444 1525 3956 
Q 1250 3563 1034 2750 
L 3009 2750 
z
M 2444 4913 
Q 3194 4913 3494 4250 
Q 3794 3591 3566 2422 
Q 3341 1256 2781 594 
Q 2225 -72 1475 -72 
Q 722 -72 425 594 
Q 128 1256 353 2422 
Q 581 3591 1134 4250 
Q 1691 4913 2444 4913 
z
" transform="scale(0.015625)"/><path id="DejaVuSans-3e" d="M 550 4863 
L 1875 4863 
L 1875 4416 
L 1125 4416 
L 1125 -397 
L 1875 -397 
L 1875 -844 
L 550 -844 
L 550 4863 
z
" transform="scale(0.015625)"/><path id="DejaVuSans-72" d="M 1600 4347 
Q 1350 4347 1178 4173 
Q 1006 4000 1006 3750 
Q 1006 3503 1178 3333 
Q 1350 3163 1600 3163 
Q 1850 3163 2022 3333 
Q 2194 3503 2194 3750 
Q 2194 3997 2020 4172 
Q 1847 4347 1600 4347 
z
M 1600 4750 
Q 1800 4750 1984 4673 
Q 2169 4597 2303 4453 
Q 2447 4313 2519 4134 
Q 2591 3956 2591 3750 
Q 2591 3338 2302 3052 
Q 2013 2766 1594 2766 
Q 1172 2766 890 3047 
Q 609 3328 609 3750 
Q 609 4169 896 4459 
Q 1184 4750 1600 4750 
z
" transform="scale(0.015625)"/><path id="DejaVuSans-40" d="M 1947 4863 
L 1947 -844 
L 622 -844 
L 622 -397 
L 1369 -397 
L 1369 4416 
L 622 4416 
L 622 4863 
L 1947 4863 
z
" transform="scale(0.015625)"/><path id="DejaVuSans-b" d="M 1984 4856 
Q 1566 4138 1362 3434 
Q 1159 2731 1159 2009 
Q 1159 1288 1364 580 
Q 1569 -128 1984 -844 
L 1484 -844 
Q 1016 -109 783 600 
Q 550 1309 550 2009 
Q 550 2706 781 3412 
Q 1013 4119 1484 4856 
L 1984 4856 
z
" transform="scale(0.015625)"/><path id="DejaVuSans-49" d="M 2375 4863 
L 2375 4384 
L 1825 4384 
Q 1516 4384 1395 4259 
Q 1275 4134 1275 3809 
L 1275 3500 
L 2222 3500 
L 2222 3053 
L 1275 3053 
L 1275 0 
L 697 0 
L 697 3053 
L 147 3053 
L 147 3500 
L 697 3500 
L 697 3744 
Q 697 4328 969 4595 
Q 1241 4863 1831 4863 
L 2375 4863 
z
" transform="scale(0.015625)"/><path id="DejaVuSans-5a" d="M 269 3500 
L 844 3500 
L 1563 769 
L 2278 3500 
L 2956 3500 
L 3675 769 
L 4391 3500 
L 4966 3500 
L 4050 0 
L 3372 0 
L 2619 2869 
L 1863 0 
L 1184 0 
L 269 3500 
z
" transform="scale(0.015625)"/><path id="DejaVuSans-47" d="M 2906 2969 
L 2906 4863 
L 3481 4863 
L 3481 0 
L 2906 0 
L 2906 525 
Q 2725 213 2448 61 
Q 2172 -91 1784 -91 
Q 1150 -91 751 415 
Q 353 922 353 1747 
Q 353 2572 751 3078 
Q 1150 3584 1784 3584 
Q 2172 3584 2448 3432 
Q 2725 3281 2906 2969 
z
M 947 1747 
Q 947 1113 1208 752 
Q 1469 391 1925 391 
Q 2381 391 2643 752 
Q 2906 1113 2906 1747 
Q 2906 2381 2643 2742 
Q 2381 3103 1925 3103 
Q 1469 3103 1208 2742 
Q 947 2381 947 1747 
z
" transform="scale(0.015625)"/><path id="DejaVuSans-c1c" d="M 5050 2147 
L 5050 1866 
L 3822 638 
L 3447 1013 
L 4175 1741 
L 366 1741 
L 366 2272 
L 4175 2272 
L 3447 3000 
L 3822 3375 
L 5050 2147 
z
" transform="scale(0.015625)"/><path id="DejaVuSans-1b" d="M 2034 2216 
Q 1584 2216 1326 1975 
Q 1069 1734 1069 1313 
Q 1069 891 1326 650 
Q 1584 409 2034 409 
Q 2484 409 2743 651 
Q 3003 894 3003 1313 
Q 3003 1734 2745 1975 
Q 2488 2216 2034 2216 
z
M 1403 2484 
Q 997 2584 770 2862 
Q 544 3141 544 3541 
Q 544 4100 942 4425 
Q 1341 4750 2034 4750 
Q 2731 4750 3128 4425 
Q 3525 4100 3525 3541 
Q 3525 3141 3298 2862 
Q 3072 2584 2669 2484 
Q 3125 2378 3379 2068 
Q 3634 1759 3634 1313 
Q 3634 634 3220 271 
Q 2806 -91 2034 -91 
Q 1263 -91 848 271 
Q 434 634 434 1313 
Q 434 1759 690 2068 
Q 947 2378 1403 2484 
z
M 1172 3481 
Q 1172 3119 1398 2916 
Q 1625 2713 2034 2713 
Q 2441 2713 2670 2916 
Q 2900 3119 2900 3481 
Q 2900 3844 2670 4047 
Q 2441 4250 2034 4250 
Q 1625 4250 1398 4047 
Q 1172 3844 1172 3481 
z
" transform="scale(0.015625)"/><path id="DejaVuSans-c" d="M 513 4856 
L 1013 4856 
Q 1481 4119 1714 3412 
Q 1947 2706 1947 2009 
Q 1947 1309 1714 600 
Q 1481 -109 1013 -844 
L 513 -844 
Q 928 -128 1133 580 
Q 1338 1288 1338 2009 
Q 1338 2731 1133 3434 
Q 928 4138 513 4856 
z
" transform="scale(0.015625)"/></defs><use xlink:href="#DejaVuSans-33" transform="translate(0 0.23)"/><use xlink:href="#DejaVuSans-52" transform="translate(56.3 0.23)"/><use xlink:href="#DejaVuSans-4f" transform="translate(117.48 0.23)"/><use xlink:href="#DejaVuSans-44" transform="translate(145.27 0.23)"/><use xlink:href="#DejaVuSans-55" transform="translate(206.55 0.23)"/><use xlink:href="#DejaVuSans-3" transform="translate(247.66 0.23)"/><use xlink:href="#DejaVuSans-44" transform="translate(279.45 0.23)"/><use xlink:href="#DejaVuSans-51" transform="translate(340.73 0.23)"/><use xlink:href="#DejaVuSans-4a" transform="translate(404.11 0.23)"/><use xlink:href="#DejaVuSans-4f" transform="translate(467.58 0.23)"/><use xlink:href="#DejaVuSans-48" transform="translate(495.37 0.23)"/><use xlink:href="#DejaVuSans-3" transform="translate(556.89 0.23)"/><use xlink:href="#DejaVuSans-Oblique-34c" transform="translate(588.68 0.23)"/><use xlink:href="#DejaVuSans-3" transform="translate(649.86 0.23)"/><use xlink:href="#DejaVuSans-3e" transform="translate(681.64 0.23)"/><use xlink:href="#DejaVuSans-72" transform="translate(720.66 0.23)"/><use xlink:href="#DejaVuSans-40" transform="translate(770.66 0.23)"/><use xlink:href="#DejaVuSans-3" transform="translate(809.67 0.23)"/><use xlink:href="#DejaVuSans-3" transform="translate(841.46 0.23)"/><use xlink:href="#DejaVuSans-b" transform="translate(873.25 0.23)"/><use xlink:href="#DejaVuSans-13" transform="translate(912.26 0.23)"/><use xlink:href="#DejaVuSans-72" transform="translate(975.88 0.23)"/><use xlink:href="#DejaVuSans-3" transform="translate(1025.88 0.23)"/><use xlink:href="#DejaVuSans-49" transform="translate(1057.67 0.23)"/><use xlink:href="#DejaVuSans-52" transform="translate(1092.88 0.23)"/><use xlink:href="#DejaVuSans-55" transform="translate(1154.06 0.23)"/><use xlink:href="#DejaVuSans-5a" transform="translate(1195.17 0.23)"/><use xlink:href="#DejaVuSans-44" transform="translate(1276.96 0.23)"/><use xlink:href="#DejaVuSans-55" transform="translate(1338.24 0.23)"/><use xlink:href="#DejaVuSans-47" transform="translate(1377.35 0.23)"/><use xlink:href="#DejaVuSans-3" transform="translate(1440.83 0.23)"/><use xlink:href="#DejaVuSans-c1c" transform="translate(1472.61 0.23)"/><use xlink:href="#DejaVuSans-3" transform="translate(1556.4 0.23)"/><use xlink:href="#DejaVuSans-14" transform="translate(1588.19 0.23)"/><use xlink:href="#DejaVuSans-1b" transform="translate(1651.81 0.23)"/><use xlink:href="#DejaVuSans-13" transform="translate(1715.44 0.23)"/><use xlink:href="#DejaVuSans-72" transform="translate(1779.06 0.23)"/><use xlink:href="#DejaVuSans-3" transform="translate(1829.06 0.23)"/><use xlink:href="#DejaVuSans-55" transform="translate(1860.85 0.23)"/><use xlink:href="#DejaVuSans-48" transform="translate(1899.96 0.23)"/><use xlink:href="#DejaVuSans-44" transform="translate(1961.48 0.23)"/><use xlink:href="#DejaVuSans-55" transform="translate(2022.76 0.23)"/><use xlink:href="#DejaVuSans-5a" transform="translate(2063.88 0.23)"/><use xlink:href="#DejaVuSans-44" transform="translate(2145.66 0.23)"/><use xlink:href="#DejaVuSans-55" transform="translate(2206.94 0.23)"/><use xlink:href="#DejaVuSans-47" transform="translate(2246.05 0.23)"/><use xlink:href="#DejaVuSans-c" transform="translate(2309.53 0.23)"/></g></g></g><g id="matplotlib.axis_2"><g id="ytick_1"><g id="line2d_17"><path d="M 40.93 325.03 
L 412.61 325.03 
" clip-path="url(#pc9ecfd6786)" style="fill: none; stroke-dasharray: 2.96,1.28; stroke-dashoffset: 0; stroke: #e0e0e0; stroke-opacity: 0.6; stroke-width: 0.8"/></g><g id="line2d_18"><defs><path id="mef640d9f3a" d="M 0 0 
L -3.5 0 
" style="stroke: #000000; stroke-width: 0.8"/></defs><g><use xlink:href="#mef640d9f3a" x="40.93" y="325.03" style="stroke: #000000; stroke-width: 0.8"/></g></g><g id="text_10"><!-- 55 --><g transform="translate(21.2 328.83) scale(0.1 -0.1)"><use xlink:href="#DejaVuSans-18"/><use xlink:href="#DejaVuSans-18" transform="translate(63.62 0)"/></g></g></g><g id="ytick_2"><g id="line2d_19"><path d="M 40.93 281.96 
L 412.61 281.96 
" clip-path="url(#pc9ecfd6786)" style="fill: none; stroke-dasharray: 2.96,1.28; stroke-dashoffset: 0; stroke: #e0e0e0; stroke-opacity: 0.6; stroke-width: 0.8"/></g><g id="line2d_20"><g><use xlink:href="#mef640d9f3a" x="40.93" y="281.96" style="stroke: #000000; stroke-width: 0.8"/></g></g><g id="text_11"><!-- 60 --><g transform="translate(21.2 285.76) scale(0.1 -0.1)"><defs><path id="DejaVuSans-19" d="M 2113 2584 
Q 1688 2584 1439 2293 
Q 1191 2003 1191 1497 
Q 1191 994 1439 701 
Q 1688 409 2113 409 
Q 2538 409 2786 701 
Q 3034 994 3034 1497 
Q 3034 2003 2786 2293 
Q 2538 2584 2113 2584 
z
M 3366 4563 
L 3366 3988 
Q 3128 4100 2886 4159 
Q 2644 4219 2406 4219 
Q 1781 4219 1451 3797 
Q 1122 3375 1075 2522 
Q 1259 2794 1537 2939 
Q 1816 3084 2150 3084 
Q 2853 3084 3261 2657 
Q 3669 2231 3669 1497 
Q 3669 778 3244 343 
Q 2819 -91 2113 -91 
Q 1303 -91 875 529 
Q 447 1150 447 2328 
Q 447 3434 972 4092 
Q 1497 4750 2381 4750 
Q 2619 4750 2861 4703 
Q 3103 4656 3366 4563 
z
" transform="scale(0.015625)"/></defs><use xlink:href="#DejaVuSans-19"/><use xlink:href="#DejaVuSans-13" transform="translate(63.62 0)"/></g></g></g><g id="ytick_3"><g id="line2d_21"><path d="M 40.93 238.88 
L 412.61 238.88 
" clip-path="url(#pc9ecfd6786)" style="fill: none; stroke-dasharray: 2.96,1.28; stroke-dashoffset: 0; stroke: #e0e0e0; stroke-opacity: 0.6; stroke-width: 0.8"/></g><g id="line2d_22"><g><use xlink:href="#mef640d9f3a" x="40.93" y="238.88" style="stroke: #000000; stroke-width: 0.8"/></g></g><g id="text_12"><!-- 65 --><g transform="translate(21.2 242.68) scale(0.1 -0.1)"><use xlink:href="#DejaVuSans-19"/><use xlink:href="#DejaVuSans-18" transform="translate(63.62 0)"/></g></g></g><g id="ytick_4"><g id="line2d_23"><path d="M 40.93 195.81 
L 412.61 195.81 
" clip-path="url(#pc9ecfd6786)" style="fill: none; stroke-dasharray: 2.96,1.28; stroke-dashoffset: 0; stroke: #e0e0e0; stroke-opacity: 0.6; stroke-width: 0.8"/></g><g id="line2d_24"><g><use xlink:href="#mef640d9f3a" x="40.93" y="195.81" style="stroke: #000000; stroke-width: 0.8"/></g></g><g id="text_13"><!-- 70 --><g transform="translate(21.2 199.6) scale(0.1 -0.1)"><use xlink:href="#DejaVuSans-1a"/><use xlink:href="#DejaVuSans-13" transform="translate(63.62 0)"/></g></g></g><g id="ytick_5"><g id="line2d_25"><path d="M 40.93 152.73 
L 412.61 152.73 
" clip-path="url(#pc9ecfd6786)" style="fill: none; stroke-dasharray: 2.96,1.28; stroke-dashoffset: 0; stroke: #e0e0e0; stroke-opacity: 0.6; stroke-width: 0.8"/></g><g id="line2d_26"><g><use xlink:href="#mef640d9f3a" x="40.93" y="152.73" style="stroke: #000000; stroke-width: 0.8"/></g></g><g id="text_14"><!-- 75 --><g transform="translate(21.2 156.53) scale(0.1 -0.1)"><use xlink:href="#DejaVuSans-1a"/><use xlink:href="#DejaVuSans-18" transform="translate(63.62 0)"/></g></g></g><g id="ytick_6"><g id="line2d_27"><path d="M 40.93 109.65 
L 412.61 109.65 
" clip-path="url(#pc9ecfd6786)" style="fill: none; stroke-dasharray: 2.96,1.28; stroke-dashoffset: 0; stroke: #e0e0e0; stroke-opacity: 0.6; stroke-width: 0.8"/></g><g id="line2d_28"><g><use xlink:href="#mef640d9f3a" x="40.93" y="109.65" style="stroke: #000000; stroke-width: 0.8"/></g></g><g id="text_15"><!-- 80 --><g transform="translate(21.2 113.45) scale(0.1 -0.1)"><use xlink:href="#DejaVuSans-1b"/><use xlink:href="#DejaVuSans-13" transform="translate(63.62 0)"/></g></g></g><g id="ytick_7"><g id="line2d_29"><path d="M 40.93 66.58 
L 412.61 66.58 
" clip-path="url(#pc9ecfd6786)" style="fill: none; stroke-dasharray: 2.96,1.28; stroke-dashoffset: 0; stroke: #e0e0e0; stroke-opacity: 0.6; stroke-width: 0.8"/></g><g id="line2d_30"><g><use xlink:href="#mef640d9f3a" x="40.93" y="66.58" style="stroke: #000000; stroke-width: 0.8"/></g></g><g id="text_16"><!-- 85 --><g transform="translate(21.2 70.38) scale(0.1 -0.1)"><use xlink:href="#DejaVuSans-1b"/><use xlink:href="#DejaVuSans-18" transform="translate(63.62 0)"/></g></g></g><g id="text_17"><!-- Source level at 60 m [dB] --><g transform="translate(14.8 248.59) rotate(-90) scale(0.1 -0.1)"><defs><path id="DejaVuSans-36" d="M 3425 4513 
L 3425 3897 
Q 3066 4069 2747 4153 
Q 2428 4238 2131 4238 
Q 1616 4238 1336 4038 
Q 1056 3838 1056 3469 
Q 1056 3159 1242 3001 
Q 1428 2844 1947 2747 
L 2328 2669 
Q 3034 2534 3370 2195 
Q 3706 1856 3706 1288 
Q 3706 609 3251 259 
Q 2797 -91 1919 -91 
Q 1588 -91 1214 -16 
Q 841 59 441 206 
L 441 856 
Q 825 641 1194 531 
Q 1563 422 1919 422 
Q 2459 422 2753 634 
Q 3047 847 3047 1241 
Q 3047 1584 2836 1778 
Q 2625 1972 2144 2069 
L 1759 2144 
Q 1053 2284 737 2584 
Q 422 2884 422 3419 
Q 422 4038 858 4394 
Q 1294 4750 2059 4750 
Q 2388 4750 2728 4690 
Q 3069 4631 3425 4513 
z
" transform="scale(0.015625)"/><path id="DejaVuSans-58" d="M 544 1381 
L 544 3500 
L 1119 3500 
L 1119 1403 
Q 1119 906 1312 657 
Q 1506 409 1894 409 
Q 2359 409 2629 706 
Q 2900 1003 2900 1516 
L 2900 3500 
L 3475 3500 
L 3475 0 
L 2900 0 
L 2900 538 
Q 2691 219 2414 64 
Q 2138 -91 1772 -91 
Q 1169 -91 856 284 
Q 544 659 544 1381 
z
M 1991 3584 
L 1991 3584 
z
" transform="scale(0.015625)"/><path id="DejaVuSans-46" d="M 3122 3366 
L 3122 2828 
Q 2878 2963 2633 3030 
Q 2388 3097 2138 3097 
Q 1578 3097 1268 2742 
Q 959 2388 959 1747 
Q 959 1106 1268 751 
Q 1578 397 2138 397 
Q 2388 397 2633 464 
Q 2878 531 3122 666 
L 3122 134 
Q 2881 22 2623 -34 
Q 2366 -91 2075 -91 
Q 1284 -91 818 406 
Q 353 903 353 1747 
Q 353 2603 823 3093 
Q 1294 3584 2113 3584 
Q 2378 3584 2631 3529 
Q 2884 3475 3122 3366 
z
" transform="scale(0.015625)"/><path id="DejaVuSans-59" d="M 191 3500 
L 800 3500 
L 1894 563 
L 2988 3500 
L 3597 3500 
L 2284 0 
L 1503 0 
L 191 3500 
z
" transform="scale(0.015625)"/><path id="DejaVuSans-57" d="M 1172 4494 
L 1172 3500 
L 2356 3500 
L 2356 3053 
L 1172 3053 
L 1172 1153 
Q 1172 725 1289 603 
Q 1406 481 1766 481 
L 2356 481 
L 2356 0 
L 1766 0 
Q 1100 0 847 248 
Q 594 497 594 1153 
L 594 3053 
L 172 3053 
L 172 3500 
L 594 3500 
L 594 4494 
L 1172 4494 
z
" transform="scale(0.015625)"/><path id="DejaVuSans-50" d="M 3328 2828 
Q 3544 3216 3844 3400 
Q 4144 3584 4550 3584 
Q 5097 3584 5394 3201 
Q 5691 2819 5691 2113 
L 5691 0 
L 5113 0 
L 5113 2094 
Q 5113 2597 4934 2840 
Q 4756 3084 4391 3084 
Q 3944 3084 3684 2787 
Q 3425 2491 3425 1978 
L 3425 0 
L 2847 0 
L 2847 2094 
Q 2847 2600 2669 2842 
Q 2491 3084 2119 3084 
Q 1678 3084 1418 2786 
Q 1159 2488 1159 1978 
L 1159 0 
L 581 0 
L 581 3500 
L 1159 3500 
L 1159 2956 
Q 1356 3278 1631 3431 
Q 1906 3584 2284 3584 
Q 2666 3584 2933 3390 
Q 3200 3197 3328 2828 
z
" transform="scale(0.015625)"/><path id="DejaVuSans-25" d="M 1259 2228 
L 1259 519 
L 2272 519 
Q 2781 519 3026 730 
Q 3272 941 3272 1375 
Q 3272 1813 3026 2020 
Q 2781 2228 2272 2228 
L 1259 2228 
z
M 1259 4147 
L 1259 2741 
L 2194 2741 
Q 2656 2741 2882 2914 
Q 3109 3088 3109 3444 
Q 3109 3797 2882 3972 
Q 2656 4147 2194 4147 
L 1259 4147 
z
M 628 4666 
L 2241 4666 
Q 2963 4666 3353 4366 
Q 3744 4066 3744 3513 
Q 3744 3084 3544 2831 
Q 3344 2578 2956 2516 
Q 3422 2416 3680 2098 
Q 3938 1781 3938 1306 
Q 3938 681 3513 340 
Q 3088 0 2303 0 
L 628 0 
L 628 4666 
z
" transform="scale(0.015625)"/></defs><use xlink:href="#DejaVuSans-36"/><use xlink:href="#DejaVuSans-52" transform="translate(63.48 0)"/><use xlink:href="#DejaVuSans-58" transform="translate(124.67 0)"/><use xlink:href="#DejaVuSans-55" transform="translate(188.05 0)"/><use xlink:href="#DejaVuSans-46" transform="translate(226.95 0)"/><use xlink:href="#DejaVuSans-48" transform="translate(281.94 0)"/><use xlink:href="#DejaVuSans-3" transform="translate(343.47 0)"/><use xlink:href="#DejaVuSans-4f" transform="translate(375.25 0)"/><use xlink:href="#DejaVuSans-48" transform="translate(403.03 0)"/><use xlink:href="#DejaVuSans-59" transform="translate(464.56 0)"/><use xlink:href="#DejaVuSans-48" transform="translate(523.75 0)"/><use xlink:href="#DejaVuSans-4f" transform="translate(585.28 0)"/><use xlink:href="#DejaVuSans-3" transform="translate(613.06 0)"/><use xlink:href="#DejaVuSans-44" transform="translate(644.84 0)"/><use xlink:href="#DejaVuSans-57" transform="translate(706.12 0)"/><use xlink:href="#DejaVuSans-3" transform="translate(745.33 0)"/><use xlink:href="#DejaVuSans-19" transform="translate(777.11 0)"/><use xlink:href="#DejaVuSans-13" transform="translate(840.73 0)"/><use xlink:href="#DejaVuSans-3" transform="translate(904.36 0)"/><use xlink:href="#DejaVuSans-50" transform="translate(936.14 0)"/><use xlink:href="#DejaVuSans-3" transform="translate(1033.55 0)"/><use xlink:href="#DejaVuSans-3e" transform="translate(1065.33 0)"/><use xlink:href="#DejaVuSans-47" transform="translate(1104.34 0)"/><use xlink:href="#DejaVuSans-25" transform="translate(1167.83 0)"/><use xlink:href="#DejaVuSans-40" transform="translate(1236.44 0)"/></g></g></g><g id="line2d_31"><path d="M 57.82 64.25 
L 67.21 61.44 
L 76.59 58.82 
L 132.91 58.82 
L 162.94 54.67 
L 247.41 43.05 
L 264.31 40.73 
L 294.34 44.83 
L 320.62 48.47 
L 376.94 48.47 
L 388.2 51.63 
L 395.71 53.9 
L 395.71 53.9 
" clip-path="url(#pc9ecfd6786)" style="fill: none; stroke: #2ca02c; stroke-width: 2; stroke-linecap: square"/></g><g id="line2d_32"><path d="M 57.82 130.41 
L 67.21 127.6 
L 76.59 124.99 
L 132.91 124.99 
L 162.94 120.83 
L 207.99 114.6 
L 228.64 111.1 
L 239.91 108.2 
L 245.54 106.83 
L 251.17 103.42 
L 256.8 100.3 
L 262.43 97.41 
L 264.31 96.5 
L 268.06 93.08 
L 271.82 89.95 
L 275.57 87.06 
L 279.33 84.38 
L 283.08 81.87 
L 286.83 77.1 
L 290.59 72.87 
L 294.34 69.07 
L 298.1 65.62 
L 301.85 62.46 
L 309.36 59 
L 316.87 55.83 
L 320.62 54.34 
L 376.94 54.34 
L 380.69 58 
L 384.45 62.05 
L 388.2 66.6 
L 391.96 71.78 
L 393.83 74.66 
L 395.71 77.78 
L 395.71 77.78 
" clip-path="url(#pc9ecfd6786)" style="fill: none; stroke: #1f77b4; stroke-width: 2; stroke-linecap: square"/></g><g id="line2d_33"><path d="M 57.82 328.91 
L 67.21 326.1 
L 76.59 323.48 
L 132.91 323.48 
L 162.94 319.33 
L 247.41 307.71 
L 264.31 305.39 
L 294.34 309.49 
L 320.62 313.13 
L 376.94 313.13 
L 388.2 316.29 
L 395.71 318.56 
L 395.71 318.56 
" clip-path="url(#pc9ecfd6786)" style="fill: none; stroke: #d62728; stroke-width: 2; stroke-linecap: square"/></g><g id="patch_4"><path d="M 40.93 343.32 
L 40.93 26.32 
" style="fill: none; stroke: #000000; stroke-width: 0.8; stroke-linejoin: miter; stroke-linecap: square"/></g><g id="patch_5"><path d="M 412.61 343.32 
L 412.61 26.32 
" style="fill: none; stroke: #000000; stroke-width: 0.8; stroke-linejoin: miter; stroke-linecap: square"/></g><g id="patch_6"><path d="M 40.93 343.32 
L 412.61 343.32 
" style="fill: none; stroke: #000000; stroke-width: 0.8; stroke-linejoin: miter; stroke-linecap: square"/></g><g id="patch_7"><path d="M 40.93 26.32 
L 412.61 26.32 
" style="fill: none; stroke: #000000; stroke-width: 0.8; stroke-linejoin: miter; stroke-linecap: square"/></g><g id="text_18"><!-- measured polar band --><g transform="translate(178.63 326.09) scale(0.09 -0.09)"><defs><path id="DejaVuSans-56" d="M 2834 3397 
L 2834 2853 
Q 2591 2978 2328 3040 
Q 2066 3103 1784 3103 
Q 1356 3103 1142 2972 
Q 928 2841 928 2578 
Q 928 2378 1081 2264 
Q 1234 2150 1697 2047 
L 1894 2003 
Q 2506 1872 2764 1633 
Q 3022 1394 3022 966 
Q 3022 478 2636 193 
Q 2250 -91 1575 -91 
Q 1294 -91 989 -36 
Q 684 19 347 128 
L 347 722 
Q 666 556 975 473 
Q 1284 391 1588 391 
Q 1994 391 2212 530 
Q 2431 669 2431 922 
Q 2431 1156 2273 1281 
Q 2116 1406 1581 1522 
L 1381 1569 
Q 847 1681 609 1914 
Q 372 2147 372 2553 
Q 372 3047 722 3315 
Q 1072 3584 1716 3584 
Q 2034 3584 2315 3537 
Q 2597 3491 2834 3397 
z
" transform="scale(0.015625)"/><path id="DejaVuSans-53" d="M 1159 525 
L 1159 -1331 
L 581 -1331 
L 581 3500 
L 1159 3500 
L 1159 2969 
Q 1341 3281 1617 3432 
Q 1894 3584 2278 3584 
Q 2916 3584 3314 3078 
Q 3713 2572 3713 1747 
Q 3713 922 3314 415 
Q 2916 -91 2278 -91 
Q 1894 -91 1617 61 
Q 1341 213 1159 525 
z
M 3116 1747 
Q 3116 2381 2855 2742 
Q 2594 3103 2138 3103 
Q 1681 3103 1420 2742 
Q 1159 2381 1159 1747 
Q 1159 1113 1420 752 
Q 1681 391 2138 391 
Q 2594 391 2855 752 
Q 3116 1113 3116 1747 
z
" transform="scale(0.015625)"/><path id="DejaVuSans-45" d="M 3116 1747 
Q 3116 2381 2855 2742 
Q 2594 3103 2138 3103 
Q 1681 3103 1420 2742 
Q 1159 2381 1159 1747 
Q 1159 1113 1420 752 
Q 1681 391 2138 391 
Q 2594 391 2855 752 
Q 3116 1113 3116 1747 
z
M 1159 2969 
Q 1341 3281 1617 3432 
Q 1894 3584 2278 3584 
Q 2916 3584 3314 3078 
Q 3713 2572 3713 1747 
Q 3713 922 3314 415 
Q 2916 -91 2278 -91 
Q 1894 -91 1617 61 
Q 1341 213 1159 525 
L 1159 0 
L 581 0 
L 581 4863 
L 1159 4863 
L 1159 2969 
z
" transform="scale(0.015625)"/></defs><use xlink:href="#DejaVuSans-50"/><use xlink:href="#DejaVuSans-48" transform="translate(97.41 0)"/><use xlink:href="#DejaVuSans-44" transform="translate(158.94 0)"/><use xlink:href="#DejaVuSans-56" transform="translate(220.22 0)"/><use xlink:href="#DejaVuSans-58" transform="translate(272.31 0)"/><use xlink:href="#DejaVuSans-55" transform="translate(335.69 0)"/><use xlink:href="#DejaVuSans-48" transform="translate(374.59 0)"/><use xlink:href="#DejaVuSans-47" transform="translate(436.12 0)"/><use xlink:href="#DejaVuSans-3" transform="translate(499.61 0)"/><use xlink:href="#DejaVuSans-53" transform="translate(531.39 0)"/><use xlink:href="#DejaVuSans-52" transform="translate(594.88 0)"/><use xlink:href="#DejaVuSans-4f" transform="translate(656.06 0)"/><use xlink:href="#DejaVuSans-44" transform="translate(683.84 0)"/><use xlink:href="#DejaVuSans-55" transform="translate(745.12 0)"/><use xlink:href="#DejaVuSans-3" transform="translate(786.23 0)"/><use xlink:href="#DejaVuSans-45" transform="translate(818.02 0)"/><use xlink:href="#DejaVuSans-44" transform="translate(881.5 0)"/><use xlink:href="#DejaVuSans-51" transform="translate(942.78 0)"/><use xlink:href="#DejaVuSans-47" transform="translate(1006.16 0)"/></g></g><g id="text_19"><!-- Fore-aft section ($\varphi$ = 0°) --><g transform="translate(153.93 16.32) scale(0.12 -0.12)"><defs><path id="DejaVuSans-29" d="M 628 4666 
L 3309 4666 
L 3309 4134 
L 1259 4134 
L 1259 2759 
L 3109 2759 
L 3109 2228 
L 1259 2228 
L 1259 0 
L 628 0 
L 628 4666 
z
" transform="scale(0.015625)"/><path id="DejaVuSans-10" d="M 313 2009 
L 1997 2009 
L 1997 1497 
L 313 1497 
L 313 2009 
z
" transform="scale(0.015625)"/><path id="DejaVuSans-4c" d="M 603 3500 
L 1178 3500 
L 1178 0 
L 603 0 
L 603 3500 
z
M 603 4863 
L 1178 4863 
L 1178 4134 
L 603 4134 
L 603 4863 
z
" transform="scale(0.015625)"/><path id="DejaVuSans-Oblique-35a" d="M 2969 3034 
Q 2766 3034 2675 2581 
L 2259 438 
Q 2553 438 2916 763 
Q 3244 1053 3375 1750 
Q 3497 2400 3300 2750 
Q 3138 3034 2969 3034 
z
M 3063 3525 
Q 3513 3525 3819 3113 
Q 4147 2672 3981 1750 
Q 3828 903 3291 400 
Q 2784 -75 2159 -75 
L 1916 -1331 
L 1344 -1331 
L 1588 -78 
Q 963 -78 641 400 
Q 309 888 475 1747 
Q 647 2641 1166 3097 
Q 1556 3438 2084 3525 
L 1984 3016 
Q 1766 2944 1538 2700 
Q 1194 2341 1081 1747 
Q 963 1116 1156 756 
Q 1334 434 1688 434 
L 2103 2581 
Q 2288 3525 3063 3525 
z
" transform="scale(0.015625)"/><path id="DejaVuSans-20" d="M 678 2906 
L 4684 2906 
L 4684 2381 
L 678 2381 
L 678 2906 
z
M 678 1631 
L 4684 1631 
L 4684 1100 
L 678 1100 
L 678 1631 
z
" transform="scale(0.015625)"/></defs><use xlink:href="#DejaVuSans-29" transform="translate(0 0.02)"/><use xlink:href="#DejaVuSans-52" transform="translate(53.52 0.02)"/><use xlink:href="#DejaVuSans-55" transform="translate(114.7 0.02)"/><use xlink:href="#DejaVuSans-48" transform="translate(153.81 0.02)"/><use xlink:href="#DejaVuSans-10" transform="translate(215.34 0.02)"/><use xlink:href="#DejaVuSans-44" transform="translate(251.42 0.02)"/><use xlink:href="#DejaVuSans-49" transform="translate(312.7 0.02)"/><use xlink:href="#DejaVuSans-57" transform="translate(345.91 0.02)"/><use xlink:href="#DejaVuSans-3" transform="translate(385.12 0.02)"/><use xlink:href="#DejaVuSans-56" transform="translate(416.9 0.02)"/><use xlink:href="#DejaVuSans-48" transform="translate(469 0.02)"/><use xlink:href="#DejaVuSans-46" transform="translate(530.53 0.02)"/><use xlink:href="#DejaVuSans-57" transform="translate(585.51 0.02)"/><use xlink:href="#DejaVuSans-4c" transform="translate(624.71 0.02)"/><use xlink:href="#DejaVuSans-52" transform="translate(652.5 0.02)"/><use xlink:href="#DejaVuSans-51" transform="translate(713.68 0.02)"/><use xlink:href="#DejaVuSans-3" transform="translate(777.06 0.02)"/><use xlink:href="#DejaVuSans-b" transform="translate(808.85 0.02)"/><use xlink:href="#DejaVuSans-Oblique-35a" transform="translate(847.86 0.02)"/><use xlink:href="#DejaVuSans-3" transform="translate(913.83 0.02)"/><use xlink:href="#DejaVuSans-20" transform="translate(945.61 0.02)"/><use xlink:href="#DejaVuSans-3" transform="translate(1029.4 0.02)"/><use xlink:href="#DejaVuSans-13" transform="translate(1061.19 0.02)"/><use xlink:href="#DejaVuSans-72" transform="translate(1124.81 0.02)"/><use xlink:href="#DejaVuSans-c" transform="translate(1174.81 0.02)"/></g></g><g id="legend_1"><g id="patch_8"><path d="M 309.23 70.47 
L 406.77 70.47 
Q 408.44 70.47 408.44 68.81 
L 408.44 32.15 
Q 408.44 30.48 406.77 30.48 
L 309.23 30.48 
Q 307.56 30.48 307.56 32.15 
L 307.56 68.81 
Q 307.56 70.47 309.23 70.47 
z
" style="fill: #ffffff; opacity: 0.8; stroke: #cccccc; stroke-linejoin: miter"/></g><g id="line2d_34"><path d="M 310.9 37.23 
L 319.23 37.23 
L 327.56 37.23 
" style="fill: none; stroke: #2ca02c; stroke-width: 2; stroke-linecap: square"/></g><g id="text_20"><!-- 100 Hz ($\varphi$ = 0°) --><g transform="translate(334.22 40.15) scale(0.0833 -0.0833)"><defs><path id="DejaVuSans-2b" d="M 628 4666 
L 1259 4666 
L 1259 2753 
L 3553 2753 
L 3553 4666 
L 4184 4666 
L 4184 0 
L 3553 0 
L 3553 2222 
L 1259 2222 
L 1259 0 
L 628 0 
L 628 4666 
z
" transform="scale(0.015625)"/><path id="DejaVuSans-5d" d="M 353 3500 
L 3084 3500 
L 3084 2975 
L 922 459 
L 3084 459 
L 3084 0 
L 275 0 
L 275 525 
L 2438 3041 
L 353 3041 
L 353 3500 
z
" transform="scale(0.015625)"/></defs><use xlink:href="#DejaVuSans-14" transform="translate(0 0.12)"/><use xlink:href="#DejaVuSans-13" transform="translate(63.62 0.12)"/><use xlink:href="#DejaVuSans-13" transform="translate(127.25 0.12)"/><use xlink:href="#DejaVuSans-3" transform="translate(190.87 0.12)"/><use xlink:href="#DejaVuSans-2b" transform="translate(222.66 0.12)"/><use xlink:href="#DejaVuSans-5d" transform="translate(297.85 0.12)"/><use xlink:href="#DejaVuSans-3" transform="translate(350.34 0.12)"/><use xlink:href="#DejaVuSans-b" transform="translate(382.13 0.12)"/><use xlink:href="#DejaVuSans-Oblique-35a" transform="translate(421.14 0.12)"/><use xlink:href="#DejaVuSans-3" transform="translate(487.11 0.12)"/><use xlink:href="#DejaVuSans-20" transform="translate(518.9 0.12)"/><use xlink:href="#DejaVuSans-3" transform="translate(602.69 0.12)"/><use xlink:href="#DejaVuSans-13" transform="translate(634.47 0.12)"/><use xlink:href="#DejaVuSans-72" transform="translate(698.1 0.12)"/><use xlink:href="#DejaVuSans-c" transform="translate(748.1 0.12)"/></g></g><g id="line2d_35"><path d="M 310.9 49.73 
L 319.23 49.73 
L 327.56 49.73 
" style="fill: none; stroke: #1f77b4; stroke-width: 2; stroke-linecap: square"/></g><g id="text_21"><!-- 631 Hz ($\varphi$ = 0°) --><g transform="translate(334.22 52.64) scale(0.0833 -0.0833)"><defs><path id="DejaVuSans-16" d="M 2597 2516 
Q 3050 2419 3304 2112 
Q 3559 1806 3559 1356 
Q 3559 666 3084 287 
Q 2609 -91 1734 -91 
Q 1441 -91 1130 -33 
Q 819 25 488 141 
L 488 750 
Q 750 597 1062 519 
Q 1375 441 1716 441 
Q 2309 441 2620 675 
Q 2931 909 2931 1356 
Q 2931 1769 2642 2001 
Q 2353 2234 1838 2234 
L 1294 2234 
L 1294 2753 
L 1863 2753 
Q 2328 2753 2575 2939 
Q 2822 3125 2822 3475 
Q 2822 3834 2567 4026 
Q 2313 4219 1838 4219 
Q 1578 4219 1281 4162 
Q 984 4106 628 3988 
L 628 4550 
Q 988 4650 1302 4700 
Q 1616 4750 1894 4750 
Q 2613 4750 3031 4423 
Q 3450 4097 3450 3541 
Q 3450 3153 3228 2886 
Q 3006 2619 2597 2516 
z
" transform="scale(0.015625)"/></defs><use xlink:href="#DejaVuSans-19" transform="translate(0 0.12)"/><use xlink:href="#DejaVuSans-16" transform="translate(63.62 0.12)"/><use xlink:href="#DejaVuSans-14" transform="translate(127.25 0.12)"/><use xlink:href="#DejaVuSans-3" transform="translate(190.87 0.12)"/><use xlink:href="#DejaVuSans-2b" transform="translate(222.66 0.12)"/><use xlink:href="#DejaVuSans-5d" transform="translate(297.85 0.12)"/><use xlink:href="#DejaVuSans-3" transform="translate(350.34 0.12)"/><use xlink:href="#DejaVuSans-b" transform="translate(382.13 0.12)"/><use xlink:href="#DejaVuSans-Oblique-35a" transform="translate(421.14 0.12)"/><use xlink:href="#DejaVuSans-3" transform="translate(487.11 0.12)"/><use xlink:href="#DejaVuSans-20" transform="translate(518.9 0.12)"/><use xlink:href="#DejaVuSans-3" transform="translate(602.69 0.12)"/><use xlink:href="#DejaVuSans-13" transform="translate(634.47 0.12)"/><use xlink:href="#DejaVuSans-72" transform="translate(698.1 0.12)"/><use xlink:href="#DejaVuSans-c" transform="translate(748.1 0.12)"/></g></g><g id="line2d_36"><path d="M 310.9 62.23 
L 319.23 62.23 
L 327.56 62.23 
" style="fill: none; stroke: #d62728; stroke-width: 2; stroke-linecap: square"/></g><g id="text_22"><!-- 3981 Hz ($\varphi$ = 0°) --><g transform="translate(334.22 65.14) scale(0.0833 -0.0833)"><defs><path id="DejaVuSans-1c" d="M 703 97 
L 703 672 
Q 941 559 1184 500 
Q 1428 441 1663 441 
Q 2288 441 2617 861 
Q 2947 1281 2994 2138 
Q 2813 1869 2534 1725 
Q 2256 1581 1919 1581 
Q 1219 1581 811 2004 
Q 403 2428 403 3163 
Q 403 3881 828 4315 
Q 1253 4750 1959 4750 
Q 2769 4750 3195 4129 
Q 3622 3509 3622 2328 
Q 3622 1225 3098 567 
Q 2575 -91 1691 -91 
Q 1453 -91 1209 -44 
Q 966 3 703 97 
z
M 1959 2075 
Q 2384 2075 2632 2365 
Q 2881 2656 2881 3163 
Q 2881 3666 2632 3958 
Q 2384 4250 1959 4250 
Q 1534 4250 1286 3958 
Q 1038 3666 1038 3163 
Q 1038 2656 1286 2365 
Q 1534 2075 1959 2075 
z
" transform="scale(0.015625)"/></defs><use xlink:href="#DejaVuSans-16" transform="translate(0 0.12)"/><use xlink:href="#DejaVuSans-1c" transform="translate(63.62 0.12)"/><use xlink:href="#DejaVuSans-1b" transform="translate(127.25 0.12)"/><use xlink:href="#DejaVuSans-14" transform="translate(190.87 0.12)"/><use xlink:href="#DejaVuSans-3" transform="translate(254.49 0.12)"/><use xlink:href="#DejaVuSans-2b" transform="translate(286.28 0.12)"/><use xlink:href="#DejaVuSans-5d" transform="translate(361.47 0.12)"/><use xlink:href="#DejaVuSans-3" transform="translate(413.96 0.12)"/><use xlink:href="#DejaVuSans-b" transform="translate(445.75 0.12)"/><use xlink:href="#DejaVuSans-Oblique-35a" transform="translate(484.77 0.12)"/><use xlink:href="#DejaVuSans-3" transform="translate(550.73 0.12)"/><use xlink:href="#DejaVuSans-20" transform="translate(582.52 0.12)"/><use xlink:href="#DejaVuSans-3" transform="translate(666.31 0.12)"/><use xlink:href="#DejaVuSans-13" transform="translate(698.1 0.12)"/><use xlink:href="#DejaVuSans-72" transform="translate(761.72 0.12)"/><use xlink:href="#DejaVuSans-c" transform="translate(811.72 0.12)"/></g></g></g></g><g id="axes_2"><g id="patch_9"><path d="M 465.61 343.32 
L 762.95 343.32 
L 762.95 26.32 
L 465.61 26.32 
z
" style="fill: #ffffff"/></g><g id="QuadContourSet_1"><path d="M 482.13 343.32 
L 498.65 343.32 
L 515.16 343.32 
L 531.68 343.32 
L 548.2 343.32 
L 563.62 343.32 
L 563.62 325.71 
L 563.62 308.1 
L 563.62 290.48 
L 552.61 272.87 
L 548.2 265.83 
L 541.6 255.26 
L 531.68 239.41 
L 515.16 239.41 
L 498.65 239.41 
L 482.13 239.41 
L 471.02 237.65 
L 466.31 220.04 
L 465.98 202.43 
L 465.86 184.82 
L 465.98 167.21 
L 466.31 149.6 
L 471.02 131.99 
L 482.13 130.22 
L 498.65 130.22 
L 515.16 130.22 
L 531.68 130.22 
L 541.6 114.37 
L 548.2 103.81 
L 552.61 96.76 
L 563.62 79.15 
L 563.62 61.54 
L 563.62 43.93 
L 563.62 26.32 
L 548.2 26.32 
L 531.68 26.32 
L 515.16 26.32 
L 498.65 26.32 
L 482.13 26.32 
L 465.61 26.32 
L 465.61 43.93 
L 465.61 61.54 
L 465.61 79.15 
L 465.61 96.76 
L 465.61 114.37 
L 465.61 131.99 
L 465.61 149.6 
L 465.61 167.21 
L 465.61 184.82 
L 465.61 202.43 
L 465.61 220.04 
L 465.61 237.65 
L 465.61 255.26 
L 465.61 272.87 
L 465.61 290.48 
L 465.61 308.1 
L 465.61 325.71 
L 465.61 343.32 
z
" clip-path="url(#p531e56a264)" style="fill: #470e61"/><path d="M 564.72 343.32 
L 581.24 343.32 
L 597.76 343.32 
L 607.29 343.32 
L 607.29 325.71 
L 607.29 308.1 
L 607.29 290.48 
L 597.76 274.81 
L 596.55 272.87 
L 585.59 255.26 
L 581.24 248.24 
L 574.62 237.65 
L 564.72 221.8 
L 563.62 220.04 
L 552.61 202.43 
L 548.2 195.39 
L 541.6 184.82 
L 548.2 174.25 
L 552.61 167.21 
L 563.62 149.6 
L 564.72 147.83 
L 574.62 131.99 
L 581.24 121.39 
L 585.59 114.37 
L 596.55 96.76 
L 597.76 94.83 
L 607.29 79.15 
L 607.29 61.54 
L 607.29 43.93 
L 607.29 26.32 
L 597.76 26.32 
L 581.24 26.32 
L 564.72 26.32 
L 563.62 26.32 
L 563.62 43.93 
L 563.62 61.54 
L 563.62 79.15 
L 552.61 96.76 
L 548.2 103.81 
L 541.6 114.37 
L 531.68 130.22 
L 515.16 130.22 
L 498.65 130.22 
L 482.13 130.22 
L 471.02 131.99 
L 466.31 149.6 
L 465.98 167.21 
L 465.86 184.82 
L 465.98 202.43 
L 466.31 220.04 
L 471.02 237.65 
L 482.13 239.41 
L 498.65 239.41 
L 515.16 239.41 
L 531.68 239.41 
L 541.6 255.26 
L 548.2 265.83 
L 552.61 272.87 
L 563.62 290.48 
L 563.62 308.1 
L 563.62 325.71 
L 563.62 343.32 
z
" clip-path="url(#p531e56a264)" style="fill: #482979"/><path d="M 614.28 343.32 
L 630.8 343.32 
L 641.43 343.32 
L 641.43 325.71 
L 641.43 308.1 
L 641.43 290.48 
L 632.86 272.87 
L 630.8 267.53 
L 624.08 255.26 
L 615.82 237.65 
L 614.28 233.93 
L 606.27 220.04 
L 597.76 204.7 
L 596.36 202.43 
L 585.54 184.82 
L 596.36 167.21 
L 597.76 164.93 
L 606.27 149.6 
L 614.28 135.71 
L 615.82 131.99 
L 624.08 114.37 
L 630.8 102.1 
L 632.86 96.76 
L 641.43 79.15 
L 641.43 61.54 
L 641.43 43.93 
L 641.43 26.32 
L 630.8 26.32 
L 614.28 26.32 
L 607.29 26.32 
L 607.29 43.93 
L 607.29 61.54 
L 607.29 79.15 
L 597.76 94.83 
L 596.55 96.76 
L 585.59 114.37 
L 581.24 121.39 
L 574.62 131.99 
L 564.72 147.83 
L 563.62 149.6 
L 552.61 167.21 
L 548.2 174.25 
L 541.6 184.82 
L 548.2 195.39 
L 552.61 202.43 
L 563.62 220.04 
L 564.72 221.8 
L 574.62 237.65 
L 581.24 248.24 
L 585.59 255.26 
L 596.55 272.87 
L 597.76 274.81 
L 607.29 290.48 
L 607.29 308.1 
L 607.29 325.71 
L 607.29 343.32 
z
" clip-path="url(#p531e56a264)" style="fill: #424186"/><path d="M 647.32 343.32 
L 663.84 343.32 
L 680.36 343.32 
L 696.87 343.32 
L 713.39 343.32 
L 729.91 343.32 
L 746.43 343.32 
L 747.69 343.32 
L 747.69 325.71 
L 747.69 308.1 
L 747.69 290.48 
L 746.43 285.6 
L 729.91 285.6 
L 713.39 285.6 
L 696.87 285.6 
L 680.36 285.49 
L 663.84 275.95 
L 659.16 272.87 
L 647.32 260.8 
L 644.58 255.26 
L 637.55 237.65 
L 632.69 220.04 
L 630.8 210.98 
L 627.32 202.43 
L 621.04 184.82 
L 627.32 167.21 
L 630.8 158.66 
L 632.69 149.6 
L 637.55 131.99 
L 644.58 114.37 
L 647.32 108.84 
L 659.16 96.76 
L 663.84 93.68 
L 680.36 84.15 
L 696.87 84.04 
L 713.39 84.04 
L 729.91 84.04 
L 746.43 84.04 
L 747.69 79.15 
L 747.69 61.54 
L 747.69 43.93 
L 747.69 26.32 
L 746.43 26.32 
L 729.91 26.32 
L 713.39 26.32 
L 696.87 26.32 
L 680.36 26.32 
L 663.84 26.32 
L 647.32 26.32 
L 641.43 26.32 
L 641.43 43.93 
L 641.43 61.54 
L 641.43 79.15 
L 632.86 96.76 
L 630.8 102.1 
L 624.08 114.37 
L 615.82 131.99 
L 614.28 135.71 
L 606.27 149.6 
L 597.76 164.93 
L 596.36 167.21 
L 585.54 184.82 
L 596.36 202.43 
L 597.76 204.7 
L 606.27 220.04 
L 614.28 233.93 
L 615.82 237.65 
L 624.08 255.26 
L 630.8 267.53 
L 632.86 272.87 
L 641.43 290.48 
L 641.43 308.1 
L 641.43 325.71 
L 641.43 343.32 
z
" clip-path="url(#p531e56a264)" style="fill: #39568c"/><path d="M 750.99 325.71 
L 750.99 308.1 
L 750.99 290.48 
L 746.47 272.87 
L 746.43 272.79 
L 729.91 272.79 
L 713.39 272.79 
L 696.87 272.79 
L 680.36 270.89 
L 663.84 255.86 
L 663.27 255.26 
L 651.43 237.65 
L 647.32 226.03 
L 645.2 220.04 
L 640.55 202.43 
L 637.31 184.82 
L 640.55 167.21 
L 645.2 149.6 
L 647.32 143.61 
L 651.43 131.99 
L 663.27 114.37 
L 663.84 113.78 
L 680.36 98.75 
L 696.87 96.84 
L 713.39 96.84 
L 729.91 96.84 
L 746.43 96.84 
L 746.47 96.76 
L 750.99 79.15 
L 750.99 61.54 
L 750.99 43.93 
L 750.99 26.32 
L 747.69 26.32 
L 747.69 43.93 
L 747.69 61.54 
L 747.69 79.15 
L 746.43 84.04 
L 729.91 84.04 
L 713.39 84.04 
L 696.87 84.04 
L 680.36 84.15 
L 663.84 93.68 
L 659.16 96.76 
L 647.32 108.84 
L 644.58 114.37 
L 637.55 131.99 
L 632.69 149.6 
L 630.8 158.66 
L 627.32 167.21 
L 621.04 184.82 
L 627.32 202.43 
L 630.8 210.98 
L 632.69 220.04 
L 637.55 237.65 
L 644.58 255.26 
L 647.32 260.8 
L 659.16 272.87 
L 663.84 275.95 
L 680.36 285.49 
L 696.87 285.6 
L 713.39 285.6 
L 729.91 285.6 
L 746.43 285.6 
L 747.69 290.48 
L 747.69 308.1 
L 747.69 325.71 
L 747.69 343.32 
L 750.99 343.32 
z
" clip-path="url(#p531e56a264)" style="fill: #2f6b8e"/><path d="M 754.29 325.71 
L 754.29 308.1 
L 754.29 290.48 
L 751.01 272.87 
L 746.43 262.2 
L 729.91 262.2 
L 713.39 262.2 
L 696.87 262.2 
L 680.36 258.42 
L 676.94 255.26 
L 663.94 237.65 
L 663.84 237.44 
L 655.27 220.04 
L 650.64 202.43 
L 648.03 184.82 
L 650.64 167.21 
L 655.27 149.6 
L 663.84 132.19 
L 663.94 131.99 
L 676.94 114.37 
L 680.36 111.22 
L 696.87 107.44 
L 713.39 107.44 
L 729.91 107.44 
L 746.43 107.44 
L 751.01 96.76 
L 754.29 79.15 
L 754.29 61.54 
L 754.29 43.93 
L 754.29 26.32 
L 750.99 26.32 
L 750.99 43.93 
L 750.99 61.54 
L 750.99 79.15 
L 746.47 96.76 
L 746.43 96.84 
L 729.91 96.84 
L 713.39 96.84 
L 696.87 96.84 
L 680.36 98.75 
L 663.84 113.78 
L 663.27 114.37 
L 651.43 131.99 
L 647.32 143.61 
L 645.2 149.6 
L 640.55 167.21 
L 637.31 184.82 
L 640.55 202.43 
L 645.2 220.04 
L 647.32 226.03 
L 651.43 237.65 
L 663.27 255.26 
L 663.84 255.86 
L 680.36 270.89 
L 696.87 272.79 
L 713.39 272.79 
L 729.91 272.79 
L 746.43 272.79 
L 746.47 272.87 
L 750.99 290.48 
L 750.99 308.1 
L 750.99 325.71 
L 750.99 343.32 
L 754.29 343.32 
z
" clip-path="url(#p531e56a264)" style="fill: #277e8e"/><path d="M 757.59 325.71 
L 757.59 308.1 
L 757.59 290.48 
L 755.56 272.87 
L 749.33 255.26 
L 746.43 251.88 
L 729.91 251.88 
L 713.39 251.88 
L 696.87 251.88 
L 680.36 246.63 
L 673.18 237.65 
L 664.59 220.04 
L 663.84 217.45 
L 658.83 202.43 
L 655.81 184.82 
L 658.83 167.21 
L 663.84 152.19 
L 664.59 149.6 
L 673.18 131.99 
L 680.36 123.01 
L 696.87 117.75 
L 713.39 117.75 
L 729.91 117.75 
L 746.43 117.75 
L 749.33 114.37 
L 755.56 96.76 
L 757.59 79.15 
L 757.59 61.54 
L 757.59 43.93 
L 757.59 26.32 
L 754.29 26.32 
L 754.29 43.93 
L 754.29 61.54 
L 754.29 79.15 
L 751.01 96.76 
L 746.43 107.44 
L 729.91 107.44 
L 713.39 107.44 
L 696.87 107.44 
L 680.36 111.22 
L 676.94 114.37 
L 663.94 131.99 
L 663.84 132.19 
L 655.27 149.6 
L 650.64 167.21 
L 648.03 184.82 
L 650.64 202.43 
L 655.27 220.04 
L 663.84 237.44 
L 663.94 237.65 
L 676.94 255.26 
L 680.36 258.42 
L 696.87 262.2 
L 713.39 262.2 
L 729.91 262.2 
L 746.43 262.2 
L 751.01 272.87 
L 754.29 290.48 
L 754.29 308.1 
L 754.29 325.71 
L 754.29 343.32 
L 757.59 343.32 
z
" clip-path="url(#p531e56a264)" style="fill: #21908d"/><path d="M 760.89 325.71 
L 760.89 308.1 
L 760.89 290.48 
L 760.11 272.87 
L 757.72 255.26 
L 746.43 242.09 
L 729.91 242.09 
L 713.39 242.09 
L 696.87 242.09 
L 685.81 237.65 
L 680.36 234.9 
L 671.74 220.04 
L 666.23 202.43 
L 663.84 186.12 
L 663.6 184.82 
L 663.84 183.52 
L 666.23 167.21 
L 671.74 149.6 
L 680.36 134.74 
L 685.81 131.99 
L 696.87 127.55 
L 713.39 127.55 
L 729.91 127.55 
L 746.43 127.55 
L 757.72 114.37 
L 760.11 96.76 
L 760.89 79.15 
L 760.89 61.54 
L 760.89 43.93 
L 760.89 26.32 
L 757.59 26.32 
L 757.59 43.93 
L 757.59 61.54 
L 757.59 79.15 
L 755.56 96.76 
L 749.33 114.37 
L 746.43 117.75 
L 729.91 117.75 
L 713.39 117.75 
L 696.87 117.75 
L 680.36 123.01 
L 673.18 131.99 
L 664.59 149.6 
L 663.84 152.19 
L 658.83 167.21 
L 655.81 184.82 
L 658.83 202.43 
L 663.84 217.45 
L 664.59 220.04 
L 673.18 237.65 
L 680.36 246.63 
L 696.87 251.88 
L 713.39 251.88 
L 729.91 251.88 
L 746.43 251.88 
L 749.33 255.26 
L 755.56 272.87 
L 757.59 290.48 
L 757.59 308.1 
L 757.59 325.71 
L 757.59 343.32 
L 760.89 343.32 
z
" clip-path="url(#p531e56a264)" style="fill: #1fa287"/><path d="M 762.95 343.32 
L 762.95 325.71 
L 762.95 308.1 
L 762.95 290.48 
L 762.95 272.87 
L 762.95 255.26 
L 762.95 237.65 
L 762.95 220.04 
L 762.95 202.43 
L 762.95 184.82 
L 762.95 167.21 
L 762.95 149.6 
L 762.95 131.99 
L 762.95 114.37 
L 762.95 96.76 
L 762.95 79.15 
L 762.95 61.54 
L 762.95 43.93 
L 762.95 26.32 
L 760.89 26.32 
L 760.89 43.93 
L 760.89 61.54 
L 760.89 79.15 
L 760.11 96.76 
L 757.72 114.37 
L 746.43 127.55 
L 729.91 127.55 
L 713.39 127.55 
L 696.87 127.55 
L 685.81 131.99 
L 680.36 134.74 
L 671.74 149.6 
L 666.23 167.21 
L 663.84 183.52 
L 663.6 184.82 
L 663.84 186.12 
L 666.23 202.43 
L 671.74 220.04 
L 680.36 234.9 
L 685.81 237.65 
L 696.87 242.09 
L 713.39 242.09 
L 729.91 242.09 
L 746.43 242.09 
L 757.72 255.26 
L 760.11 272.87 
L 760.89 290.48 
L 760.89 308.1 
L 760.89 325.71 
L 760.89 343.32 
z
M 678.9 220.04 
L 672.39 202.43 
L 669.52 184.82 
L 672.39 167.21 
L 678.9 149.6 
L 680.36 147.08 
L 696.87 137.71 
L 713.39 137.71 
L 729.91 137.71 
L 746.43 137.71 
L 758.84 149.6 
L 760.72 167.21 
L 761.13 184.82 
L 760.72 202.43 
L 758.84 220.04 
L 746.43 231.93 
L 729.91 231.93 
L 713.39 231.93 
L 696.87 231.93 
L 680.36 222.56 
z
" clip-path="url(#p531e56a264)" style="fill: #31b57b"/><path d="M 680.36 222.56 
L 696.87 231.93 
L 713.39 231.93 
L 729.91 231.93 
L 746.43 231.93 
L 758.84 220.04 
L 760.72 202.43 
L 761.13 184.82 
L 760.72 167.21 
L 758.84 149.6 
L 746.43 137.71 
L 729.91 137.71 
L 713.39 137.71 
L 696.87 137.71 
L 680.36 147.08 
L 678.9 149.6 
L 672.39 167.21 
L 669.52 184.82 
L 672.39 202.43 
L 678.9 220.04 
z
M 694.48 220.04 
L 680.36 207.17 
L 678.55 202.43 
L 675.38 184.82 
L 678.55 167.21 
L 680.36 162.47 
L 694.48 149.6 
L 696.87 148.18 
L 713.39 148.18 
L 729.91 148.18 
L 746.43 148.18 
L 747.91 149.6 
L 754.78 167.21 
L 756.27 184.82 
L 754.78 202.43 
L 747.91 220.04 
L 746.43 221.45 
L 729.91 221.45 
L 713.39 221.45 
L 696.87 221.45 
z
" clip-path="url(#p531e56a264)" style="fill: #54c568"/><path d="M 696.87 221.45 
L 713.39 221.45 
L 729.91 221.45 
L 746.43 221.45 
L 747.91 220.04 
L 754.78 202.43 
L 756.27 184.82 
L 754.78 167.21 
L 747.91 149.6 
L 746.43 148.18 
L 729.91 148.18 
L 713.39 148.18 
L 696.87 148.18 
L 694.48 149.6 
L 680.36 162.47 
L 678.55 167.21 
L 675.38 184.82 
L 678.55 202.43 
L 680.36 207.17 
L 694.48 220.04 
z
M 690.86 202.43 
L 682.49 184.82 
L 690.86 167.21 
L 696.87 161.6 
L 713.39 161.6 
L 729.91 161.6 
L 746.43 161.6 
L 748.84 167.21 
L 751.41 184.82 
L 748.84 202.43 
L 746.43 208.04 
L 729.91 208.04 
L 713.39 208.04 
L 696.87 208.04 
z
" clip-path="url(#p531e56a264)" style="fill: #7fd34e"/><path d="M 696.87 208.04 
L 713.39 208.04 
L 729.91 208.04 
L 746.43 208.04 
L 748.84 202.43 
L 751.41 184.82 
L 748.84 167.21 
L 746.43 161.6 
L 729.91 161.6 
L 713.39 161.6 
L 696.87 161.6 
L 690.86 167.21 
L 682.49 184.82 
L 690.86 202.43 
z
M 696.52 184.82 
L 696.87 184.11 
L 713.39 184.11 
L 729.91 184.11 
L 746.43 184.11 
L 746.55 184.82 
L 746.43 185.53 
L 729.91 185.53 
L 713.39 185.53 
L 696.87 185.53 
z
" clip-path="url(#p531e56a264)" style="fill: #b2dd2d"/><path d="M 696.87 185.53 
L 713.39 185.53 
L 729.91 185.53 
L 746.43 185.53 
L 746.55 184.82 
L 746.43 184.11 
L 729.91 184.11 
L 713.39 184.11 
L 696.87 184.11 
L 696.52 184.82 
z
" clip-path="url(#p531e56a264)" style="fill: #e7e419"/></g><g id="matplotlib.axis_3"><g id="xtick_9"><g id="line2d_37"><path d="M 465.61 343.32 
L 465.61 26.32 
" clip-path="url(#p531e56a264)" style="fill: none; stroke-dasharray: 2.96,1.28; stroke-dashoffset: 0; stroke: #b0b0b0; stroke-opacity: 0.5; stroke-width: 0.8"/></g><g id="line2d_38"><g><use xlink:href="#m3d27035b55" x="465.61" y="343.32" style="stroke: #000000; stroke-width: 0.8"/></g></g><g id="text_23"><!-- 0 --><g transform="translate(462.43 357.92) scale(0.1 -0.1)"><use xlink:href="#DejaVuSans-13"/></g></g></g><g id="xtick_10"><g id="line2d_39"><path d="M 498.65 343.32 
L 498.65 26.32 
" clip-path="url(#p531e56a264)" style="fill: none; stroke-dasharray: 2.96,1.28; stroke-dashoffset: 0; stroke: #b0b0b0; stroke-opacity: 0.5; stroke-width: 0.8"/></g><g id="line2d_40"><g><use xlink:href="#m3d27035b55" x="498.65" y="343.32" style="stroke: #000000; stroke-width: 0.8"/></g></g><g id="text_24"><!-- 20 --><g transform="translate(492.28 357.92) scale(0.1 -0.1)"><use xlink:href="#DejaVuSans-15"/><use xlink:href="#DejaVuSans-13" transform="translate(63.62 0)"/></g></g></g><g id="xtick_11"><g id="line2d_41"><path d="M 531.68 343.32 
L 531.68 26.32 
" clip-path="url(#p531e56a264)" style="fill: none; stroke-dasharray: 2.96,1.28; stroke-dashoffset: 0; stroke: #b0b0b0; stroke-opacity: 0.5; stroke-width: 0.8"/></g><g id="line2d_42"><g><use xlink:href="#m3d27035b55" x="531.68" y="343.32" style="stroke: #000000; stroke-width: 0.8"/></g></g><g id="text_25"><!-- 40 --><g transform="translate(525.32 357.92) scale(0.1 -0.1)"><defs><path id="DejaVuSans-17" d="M 2419 4116 
L 825 1625 
L 2419 1625 
L 2419 4116 
z
M 2253 4666 
L 3047 4666 
L 3047 1625 
L 3713 1625 
L 3713 1100 
L 3047 1100 
L 3047 0 
L 2419 0 
L 2419 1100 
L 313 1100 
L 313 1709 
L 2253 4666 
z
" transform="scale(0.015625)"/></defs><use xlink:href="#DejaVuSans-17"/><use xlink:href="#DejaVuSans-13" transform="translate(63.62 0)"/></g></g></g><g id="xtick_12"><g id="line2d_43"><path d="M 564.72 343.32 
L 564.72 26.32 
" clip-path="url(#p531e56a264)" style="fill: none; stroke-dasharray: 2.96,1.28; stroke-dashoffset: 0; stroke: #b0b0b0; stroke-opacity: 0.5; stroke-width: 0.8"/></g><g id="line2d_44"><g><use xlink:href="#m3d27035b55" x="564.72" y="343.32" style="stroke: #000000; stroke-width: 0.8"/></g></g><g id="text_26"><!-- 60 --><g transform="translate(558.36 357.92) scale(0.1 -0.1)"><use xlink:href="#DejaVuSans-19"/><use xlink:href="#DejaVuSans-13" transform="translate(63.62 0)"/></g></g></g><g id="xtick_13"><g id="line2d_45"><path d="M 597.76 343.32 
L 597.76 26.32 
" clip-path="url(#p531e56a264)" style="fill: none; stroke-dasharray: 2.96,1.28; stroke-dashoffset: 0; stroke: #b0b0b0; stroke-opacity: 0.5; stroke-width: 0.8"/></g><g id="line2d_46"><g><use xlink:href="#m3d27035b55" x="597.76" y="343.32" style="stroke: #000000; stroke-width: 0.8"/></g></g><g id="text_27"><!-- 80 --><g transform="translate(591.4 357.92) scale(0.1 -0.1)"><use xlink:href="#DejaVuSans-1b"/><use xlink:href="#DejaVuSans-13" transform="translate(63.62 0)"/></g></g></g><g id="xtick_14"><g id="line2d_47"><path d="M 630.8 343.32 
L 630.8 26.32 
" clip-path="url(#p531e56a264)" style="fill: none; stroke-dasharray: 2.96,1.28; stroke-dashoffset: 0; stroke: #b0b0b0; stroke-opacity: 0.5; stroke-width: 0.8"/></g><g id="line2d_48"><g><use xlink:href="#m3d27035b55" x="630.8" y="343.32" style="stroke: #000000; stroke-width: 0.8"/></g></g><g id="text_28"><!-- 100 --><g transform="translate(621.25 357.92) scale(0.1 -0.1)"><use xlink:href="#DejaVuSans-14"/><use xlink:href="#DejaVuSans-13" transform="translate(63.62 0)"/><use xlink:href="#DejaVuSans-13" transform="translate(127.25 0)"/></g></g></g><g id="xtick_15"><g id="line2d_49"><path d="M 663.84 343.32 
L 663.84 26.32 
" clip-path="url(#p531e56a264)" style="fill: none; stroke-dasharray: 2.96,1.28; stroke-dashoffset: 0; stroke: #b0b0b0; stroke-opacity: 0.5; stroke-width: 0.8"/></g><g id="line2d_50"><g><use xlink:href="#m3d27035b55" x="663.84" y="343.32" style="stroke: #000000; stroke-width: 0.8"/></g></g><g id="text_29"><!-- 120 --><g transform="translate(654.29 357.92) scale(0.1 -0.1)"><use xlink:href="#DejaVuSans-14"/><use xlink:href="#DejaVuSans-15" transform="translate(63.62 0)"/><use xlink:href="#DejaVuSans-13" transform="translate(127.25 0)"/></g></g></g><g id="xtick_16"><g id="line2d_51"><path d="M 696.87 343.32 
L 696.87 26.32 
" clip-path="url(#p531e56a264)" style="fill: none; stroke-dasharray: 2.96,1.28; stroke-dashoffset: 0; stroke: #b0b0b0; stroke-opacity: 0.5; stroke-width: 0.8"/></g><g id="line2d_52"><g><use xlink:href="#m3d27035b55" x="696.87" y="343.32" style="stroke: #000000; stroke-width: 0.8"/></g></g><g id="text_30"><!-- 140 --><g transform="translate(687.33 357.92) scale(0.1 -0.1)"><use xlink:href="#DejaVuSans-14"/><use xlink:href="#DejaVuSans-17" transform="translate(63.62 0)"/><use xlink:href="#DejaVuSans-13" transform="translate(127.25 0)"/></g></g></g><g id="xtick_17"><g id="line2d_53"><path d="M 729.91 343.32 
L 729.91 26.32 
" clip-path="url(#p531e56a264)" style="fill: none; stroke-dasharray: 2.96,1.28; stroke-dashoffset: 0; stroke: #b0b0b0; stroke-opacity: 0.5; stroke-width: 0.8"/></g><g id="line2d_54"><g><use xlink:href="#m3d27035b55" x="729.91" y="343.32" style="stroke: #000000; stroke-width: 0.8"/></g></g><g id="text_31"><!-- 160 --><g transform="translate(720.37 357.92) scale(0.1 -0.1)"><use xlink:href="#DejaVuSans-14"/><use xlink:href="#DejaVuSans-19" transform="translate(63.62 0)"/><use xlink:href="#DejaVuSans-13" transform="translate(127.25 0)"/></g></g></g><g id="xtick_18"><g id="line2d_55"><path d="M 762.95 343.32 
L 762.95 26.32 
" clip-path="url(#p531e56a264)" style="fill: none; stroke-dasharray: 2.96,1.28; stroke-dashoffset: 0; stroke: #b0b0b0; stroke-opacity: 0.5; stroke-width: 0.8"/></g><g id="line2d_56"><g><use xlink:href="#m3d27035b55" x="762.95" y="343.32" style="stroke: #000000; stroke-width: 0.8"/></g></g><g id="text_32"><!-- 180 --><g transform="translate(753.41 357.92) scale(0.1 -0.1)"><use xlink:href="#DejaVuSans-14"/><use xlink:href="#DejaVuSans-1b" transform="translate(63.62 0)"/><use xlink:href="#DejaVuSans-13" transform="translate(127.25 0)"/></g></g></g><g id="text_33"><!-- Polar angle $\theta$ [°] --><g transform="translate(573.78 372.02) scale(0.1 -0.1)"><use xlink:href="#DejaVuSans-33" transform="translate(0 0.23)"/><use xlink:href="#DejaVuSans-52" transform="translate(56.3 0.23)"/><use xlink:href="#DejaVuSans-4f" transform="translate(117.48 0.23)"/><use xlink:href="#DejaVuSans-44" transform="translate(145.27 0.23)"/><use xlink:href="#DejaVuSans-55" transform="translate(206.55 0.23)"/><use xlink:href="#DejaVuSans-3" transform="translate(247.66 0.23)"/><use xlink:href="#DejaVuSans-44" transform="translate(279.45 0.23)"/><use xlink:href="#DejaVuSans-51" transform="translate(340.73 0.23)"/><use xlink:href="#DejaVuSans-4a" transform="translate(404.11 0.23)"/><use xlink:href="#DejaVuSans-4f" transform="translate(467.58 0.23)"/><use xlink:href="#DejaVuSans-48" transform="translate(495.37 0.23)"/><use xlink:href="#DejaVuSans-3" transform="translate(556.89 0.23)"/><use xlink:href="#DejaVuSans-Oblique-34c" transform="translate(588.68 0.23)"/><use xlink:href="#DejaVuSans-3" transform="translate(649.86 0.23)"/><use xlink:href="#DejaVuSans-3e" transform="translate(681.64 0.23)"/><use xlink:href="#DejaVuSans-72" transform="translate(720.66 0.23)"/><use xlink:href="#DejaVuSans-40" transform="translate(770.66 0.23)"/></g></g></g><g id="matplotlib.axis_4"><g id="ytick_8"><g id="line2d_57"><path d="M 465.61 325.71 
L 762.95 325.71 
" clip-path="url(#p531e56a264)" style="fill: none; stroke-dasharray: 2.96,1.28; stroke-dashoffset: 0; stroke: #b0b0b0; stroke-opacity: 0.5; stroke-width: 0.8"/></g><g id="line2d_58"><g><use xlink:href="#mef640d9f3a" x="465.61" y="325.71" style="stroke: #000000; stroke-width: 0.8"/></g></g><g id="text_34"><!-- −80 --><g transform="translate(437.5 329.51) scale(0.1 -0.1)"><defs><path id="DejaVuSans-c9c" d="M 678 2272 
L 4684 2272 
L 4684 1741 
L 678 1741 
L 678 2272 
z
" transform="scale(0.015625)"/></defs><use xlink:href="#DejaVuSans-c9c"/><use xlink:href="#DejaVuSans-1b" transform="translate(83.8 0)"/><use xlink:href="#DejaVuSans-13" transform="translate(147.42 0)"/></g></g></g><g id="ytick_9"><g id="line2d_59"><path d="M 465.61 290.48 
L 762.95 290.48 
" clip-path="url(#p531e56a264)" style="fill: none; stroke-dasharray: 2.96,1.28; stroke-dashoffset: 0; stroke: #b0b0b0; stroke-opacity: 0.5; stroke-width: 0.8"/></g><g id="line2d_60"><g><use xlink:href="#mef640d9f3a" x="465.61" y="290.48" style="stroke: #000000; stroke-width: 0.8"/></g></g><g id="text_35"><!-- −60 --><g transform="translate(437.5 294.28) scale(0.1 -0.1)"><use xlink:href="#DejaVuSans-c9c"/><use xlink:href="#DejaVuSans-19" transform="translate(83.8 0)"/><use xlink:href="#DejaVuSans-13" transform="translate(147.42 0)"/></g></g></g><g id="ytick_10"><g id="line2d_61"><path d="M 465.61 255.26 
L 762.95 255.26 
" clip-path="url(#p531e56a264)" style="fill: none; stroke-dasharray: 2.96,1.28; stroke-dashoffset: 0; stroke: #b0b0b0; stroke-opacity: 0.5; stroke-width: 0.8"/></g><g id="line2d_62"><g><use xlink:href="#mef640d9f3a" x="465.61" y="255.26" style="stroke: #000000; stroke-width: 0.8"/></g></g><g id="text_36"><!-- −40 --><g transform="translate(437.5 259.06) scale(0.1 -0.1)"><use xlink:href="#DejaVuSans-c9c"/><use xlink:href="#DejaVuSans-17" transform="translate(83.8 0)"/><use xlink:href="#DejaVuSans-13" transform="translate(147.42 0)"/></g></g></g><g id="ytick_11"><g id="line2d_63"><path d="M 465.61 220.04 
L 762.95 220.04 
" clip-path="url(#p531e56a264)" style="fill: none; stroke-dasharray: 2.96,1.28; stroke-dashoffset: 0; stroke: #b0b0b0; stroke-opacity: 0.5; stroke-width: 0.8"/></g><g id="line2d_64"><g><use xlink:href="#mef640d9f3a" x="465.61" y="220.04" style="stroke: #000000; stroke-width: 0.8"/></g></g><g id="text_37"><!-- −20 --><g transform="translate(437.5 223.84) scale(0.1 -0.1)"><use xlink:href="#DejaVuSans-c9c"/><use xlink:href="#DejaVuSans-15" transform="translate(83.8 0)"/><use xlink:href="#DejaVuSans-13" transform="translate(147.42 0)"/></g></g></g><g id="ytick_12"><g id="line2d_65"><path d="M 465.61 184.82 
L 762.95 184.82 
" clip-path="url(#p531e56a264)" style="fill: none; stroke-dasharray: 2.96,1.28; stroke-dashoffset: 0; stroke: #b0b0b0; stroke-opacity: 0.5; stroke-width: 0.8"/></g><g id="line2d_66"><g><use xlink:href="#mef640d9f3a" x="465.61" y="184.82" style="stroke: #000000; stroke-width: 0.8"/></g></g><g id="text_38"><!-- 0 --><g transform="translate(452.24 188.62) scale(0.1 -0.1)"><use xlink:href="#DejaVuSans-13"/></g></g></g><g id="ytick_13"><g id="line2d_67"><path d="M 465.61 149.6 
L 762.95 149.6 
" clip-path="url(#p531e56a264)" style="fill: none; stroke-dasharray: 2.96,1.28; stroke-dashoffset: 0; stroke: #b0b0b0; stroke-opacity: 0.5; stroke-width: 0.8"/></g><g id="line2d_68"><g><use xlink:href="#mef640d9f3a" x="465.61" y="149.6" style="stroke: #000000; stroke-width: 0.8"/></g></g><g id="text_39"><!-- 20 --><g transform="translate(445.88 153.4) scale(0.1 -0.1)"><use xlink:href="#DejaVuSans-15"/><use xlink:href="#DejaVuSans-13" transform="translate(63.62 0)"/></g></g></g><g id="ytick_14"><g id="line2d_69"><path d="M 465.61 114.37 
L 762.95 114.37 
" clip-path="url(#p531e56a264)" style="fill: none; stroke-dasharray: 2.96,1.28; stroke-dashoffset: 0; stroke: #b0b0b0; stroke-opacity: 0.5; stroke-width: 0.8"/></g><g id="line2d_70"><g><use xlink:href="#mef640d9f3a" x="465.61" y="114.37" style="stroke: #000000; stroke-width: 0.8"/></g></g><g id="text_40"><!-- 40 --><g transform="translate(445.88 118.17) scale(0.1 -0.1)"><use xlink:href="#DejaVuSans-17"/><use xlink:href="#DejaVuSans-13" transform="translate(63.62 0)"/></g></g></g><g id="ytick_15"><g id="line2d_71"><path d="M 465.61 79.15 
L 762.95 79.15 
" clip-path="url(#p531e56a264)" style="fill: none; stroke-dasharray: 2.96,1.28; stroke-dashoffset: 0; stroke: #b0b0b0; stroke-opacity: 0.5; stroke-width: 0.8"/></g><g id="line2d_72"><g><use xlink:href="#mef640d9f3a" x="465.61" y="79.15" style="stroke: #000000; stroke-width: 0.8"/></g></g><g id="text_41"><!-- 60 --><g transform="translate(445.88 82.95) scale(0.1 -0.1)"><use xlink:href="#DejaVuSans-19"/><use xlink:href="#DejaVuSans-13" transform="translate(63.62 0)"/></g></g></g><g id="ytick_16"><g id="line2d_73"><path d="M 465.61 43.93 
L 762.95 43.93 
" clip-path="url(#p531e56a264)" style="fill: none; stroke-dasharray: 2.96,1.28; stroke-dashoffset: 0; stroke: #b0b0b0; stroke-opacity: 0.5; stroke-width: 0.8"/></g><g id="line2d_74"><g><use xlink:href="#mef640d9f3a" x="465.61" y="43.93" style="stroke: #000000; stroke-width: 0.8"/></g></g><g id="text_42"><!-- 80 --><g transform="translate(445.88 47.73) scale(0.1 -0.1)"><use xlink:href="#DejaVuSans-1b"/><use xlink:href="#DejaVuSans-13" transform="translate(63.62 0)"/></g></g></g><g id="text_43"><!-- Azimuth $\varphi$ [°] --><g transform="translate(431.1 218.32) rotate(-90) scale(0.1 -0.1)"><defs><path id="DejaVuSans-24" d="M 2188 4044 
L 1331 1722 
L 3047 1722 
L 2188 4044 
z
M 1831 4666 
L 2547 4666 
L 4325 0 
L 3669 0 
L 3244 1197 
L 1141 1197 
L 716 0 
L 50 0 
L 1831 4666 
z
" transform="scale(0.015625)"/><path id="DejaVuSans-4b" d="M 3513 2113 
L 3513 0 
L 2938 0 
L 2938 2094 
Q 2938 2591 2744 2837 
Q 2550 3084 2163 3084 
Q 1697 3084 1428 2787 
Q 1159 2491 1159 1978 
L 1159 0 
L 581 0 
L 581 4863 
L 1159 4863 
L 1159 2956 
Q 1366 3272 1645 3428 
Q 1925 3584 2291 3584 
Q 2894 3584 3203 3211 
Q 3513 2838 3513 2113 
z
" transform="scale(0.015625)"/></defs><use xlink:href="#DejaVuSans-24" transform="translate(0 0.02)"/><use xlink:href="#DejaVuSans-5d" transform="translate(68.41 0.02)"/><use xlink:href="#DejaVuSans-4c" transform="translate(120.9 0.02)"/><use xlink:href="#DejaVuSans-50" transform="translate(148.68 0.02)"/><use xlink:href="#DejaVuSans-58" transform="translate(246.09 0.02)"/><use xlink:href="#DejaVuSans-57" transform="translate(309.47 0.02)"/><use xlink:href="#DejaVuSans-4b" transform="translate(348.68 0.02)"/><use xlink:href="#DejaVuSans-3" transform="translate(412.06 0.02)"/><use xlink:href="#DejaVuSans-Oblique-35a" transform="translate(443.85 0.02)"/><use xlink:href="#DejaVuSans-3" transform="translate(509.81 0.02)"/><use xlink:href="#DejaVuSans-3e" transform="translate(541.6 0.02)"/><use xlink:href="#DejaVuSans-72" transform="translate(580.62 0.02)"/><use xlink:href="#DejaVuSans-40" transform="translate(630.62 0.02)"/></g></g></g><g id="line2d_75"><path d="M 531.68 290.48 
L 696.87 290.48 
L 696.87 79.15 
L 531.68 79.15 
L 531.68 290.48 
" clip-path="url(#p531e56a264)" style="fill: none; stroke-dasharray: 5.92,2.56; stroke-dashoffset: 0; stroke: #000000; stroke-width: 1.6"/></g><g id="patch_10"><path d="M 465.61 343.32 
L 465.61 26.32 
" style="fill: none; stroke: #000000; stroke-width: 0.8; stroke-linejoin: miter; stroke-linecap: square"/></g><g id="patch_11"><path d="M 762.95 343.32 
L 762.95 26.32 
" style="fill: none; stroke: #000000; stroke-width: 0.8; stroke-linejoin: miter; stroke-linecap: square"/></g><g id="patch_12"><path d="M 465.61 343.32 
L 762.95 343.32 
" style="fill: none; stroke: #000000; stroke-width: 0.8; stroke-linejoin: miter; stroke-linecap: square"/></g><g id="patch_13"><path d="M 465.61 26.32 
L 762.95 26.32 
" style="fill: none; stroke: #000000; stroke-width: 0.8; stroke-linejoin: miter; stroke-linecap: square"/></g><g id="text_44"><!-- measured coverage --><g transform="translate(569.47 68.59) scale(0.09 -0.09)"><use xlink:href="#DejaVuSans-50"/><use xlink:href="#DejaVuSans-48" transform="translate(97.41 0)"/><use xlink:href="#DejaVuSans-44" transform="translate(158.94 0)"/><use xlink:href="#DejaVuSans-56" transform="translate(220.22 0)"/><use xlink:href="#DejaVuSans-58" transform="translate(272.31 0)"/><use xlink:href="#DejaVuSans-55" transform="translate(335.69 0)"/><use xlink:href="#DejaVuSans-48" transform="translate(374.59 0)"/><use xlink:href="#DejaVuSans-47" transform="translate(436.12 0)"/><use xlink:href="#DejaVuSans-3" transform="translate(499.61 0)"/><use xlink:href="#DejaVuSans-46" transform="translate(531.39 0)"/><use xlink:href="#DejaVuSans-52" transform="translate(586.38 0)"/><use xlink:href="#DejaVuSans-59" transform="translate(647.56 0)"/><use xlink:href="#DejaVuSans-48" transform="translate(706.75 0)"/><use xlink:href="#DejaVuSans-55" transform="translate(768.28 0)"/><use xlink:href="#DejaVuSans-44" transform="translate(809.39 0)"/><use xlink:href="#DejaVuSans-4a" transform="translate(870.67 0)"/><use xlink:href="#DejaVuSans-48" transform="translate(934.16 0)"/></g></g><g id="text_45"><g id="patch_14"><path d="M 471.55 333.34 
L 749.58 333.34 
Q 752.28 333.34 752.28 330.64 
L 752.28 309.03 
Q 752.28 306.33 749.58 306.33 
L 471.55 306.33 
Q 468.85 306.33 468.85 309.03 
L 468.85 330.64 
Q 468.85 333.34 471.55 333.34 
z
" style="fill: #e0e0e0; opacity: 0.75; stroke: #000000; stroke-linejoin: miter"/></g><!-- 9.4 dB between the loudest and quietest measured cell; --><g transform="translate(471.55 316.77) scale(0.09 -0.09)"><defs><path id="DejaVuSans-11" d="M 684 794 
L 1344 794 
L 1344 0 
L 684 0 
L 684 794 
z
" transform="scale(0.015625)"/><path id="DejaVuSans-54" d="M 947 1747 
Q 947 1113 1208 752 
Q 1469 391 1925 391 
Q 2381 391 2643 752 
Q 2906 1113 2906 1747 
Q 2906 2381 2643 2742 
Q 2381 3103 1925 3103 
Q 1469 3103 1208 2742 
Q 947 2381 947 1747 
z
M 2906 525 
Q 2725 213 2448 61 
Q 2172 -91 1784 -91 
Q 1150 -91 751 415 
Q 353 922 353 1747 
Q 353 2572 751 3078 
Q 1150 3584 1784 3584 
Q 2172 3584 2448 3432 
Q 2725 3281 2906 2969 
L 2906 3500 
L 3481 3500 
L 3481 -1331 
L 2906 -1331 
L 2906 525 
z
" transform="scale(0.015625)"/><path id="DejaVuSans-1e" d="M 750 3309 
L 1409 3309 
L 1409 2516 
L 750 2516 
L 750 3309 
z
M 750 794 
L 1409 794 
L 1409 256 
L 897 -744 
L 494 -744 
L 750 256 
L 750 794 
z
" transform="scale(0.015625)"/></defs><use xlink:href="#DejaVuSans-1c"/><use xlink:href="#DejaVuSans-11" transform="translate(63.62 0)"/><use xlink:href="#DejaVuSans-17" transform="translate(95.41 0)"/><use xlink:href="#DejaVuSans-3" transform="translate(159.03 0)"/><use xlink:href="#DejaVuSans-47" transform="translate(190.81 0)"/><use xlink:href="#DejaVuSans-25" transform="translate(254.3 0)"/><use xlink:href="#DejaVuSans-3" transform="translate(322.91 0)"/><use xlink:href="#DejaVuSans-45" transform="translate(354.69 0)"/><use xlink:href="#DejaVuSans-48" transform="translate(418.17 0)"/><use xlink:href="#DejaVuSans-57" transform="translate(479.7 0)"/><use xlink:href="#DejaVuSans-5a" transform="translate(518.91 0)"/><use xlink:href="#DejaVuSans-48" transform="translate(600.69 0)"/><use xlink:href="#DejaVuSans-48" transform="translate(662.22 0)"/><use xlink:href="#DejaVuSans-51" transform="translate(723.75 0)"/><use xlink:href="#DejaVuSans-3" transform="translate(787.12 0)"/><use xlink:href="#DejaVuSans-57" transform="translate(818.91 0)"/><use xlink:href="#DejaVuSans-4b" transform="translate(858.11 0)"/><use xlink:href="#DejaVuSans-48" transform="translate(921.48 0)"/><use xlink:href="#DejaVuSans-3" transform="translate(983.02 0)"/><use xlink:href="#DejaVuSans-4f" transform="translate(1014.8 0)"/><use xlink:href="#DejaVuSans-52" transform="translate(1042.58 0)"/><use xlink:href="#DejaVuSans-58" transform="translate(1103.77 0)"/><use xlink:href="#DejaVuSans-47" transform="translate(1167.14 0)"/><use xlink:href="#DejaVuSans-48" transform="translate(1230.62 0)"/><use xlink:href="#DejaVuSans-56" transform="translate(1292.16 0)"/><use xlink:href="#DejaVuSans-57" transform="translate(1344.25 0)"/><use xlink:href="#DejaVuSans-3" transform="translate(1383.45 0)"/><use xlink:href="#DejaVuSans-44" transform="translate(1415.23 0)"/><use xlink:href="#DejaVuSans-51" transform="translate(1476.52 0)"/><use xlink:href="#DejaVuSans-47" transform="translate(1539.89 0)"/><use xlink:href="#DejaVuSans-3" transform="translate(1603.38 0)"/><use xlink:href="#DejaVuSans-54" transform="translate(1635.16 0)"/><use xlink:href="#DejaVuSans-58" transform="translate(1698.64 0)"/><use xlink:href="#DejaVuSans-4c" transform="translate(1762.02 0)"/><use xlink:href="#DejaVuSans-48" transform="translate(1789.8 0)"/><use xlink:href="#DejaVuSans-57" transform="translate(1851.33 0)"/><use xlink:href="#DejaVuSans-48" transform="translate(1890.53 0)"/><use xlink:href="#DejaVuSans-56" transform="translate(1952.06 0)"/><use xlink:href="#DejaVuSans-57" transform="translate(2004.16 0)"/><use xlink:href="#DejaVuSans-3" transform="translate(2043.36 0)"/><use xlink:href="#DejaVuSans-50" transform="translate(2075.14 0)"/><use xlink:href="#DejaVuSans-48" transform="translate(2172.55 0)"/><use xlink:href="#DejaVuSans-44" transform="translate(2234.08 0)"/><use xlink:href="#DejaVuSans-56" transform="translate(2295.36 0)"/><use xlink:href="#DejaVuSans-58" transform="translate(2347.45 0)"/><use xlink:href="#DejaVuSans-55" transform="translate(2410.83 0)"/><use xlink:href="#DejaVuSans-48" transform="translate(2449.73 0)"/><use xlink:href="#DejaVuSans-47" transform="translate(2511.27 0)"/><use xlink:href="#DejaVuSans-3" transform="translate(2574.75 0)"/><use xlink:href="#DejaVuSans-46" transform="translate(2606.53 0)"/><use xlink:href="#DejaVuSans-48" transform="translate(2661.52 0)"/><use xlink:href="#DejaVuSans-4f" transform="translate(2723.05 0)"/><use xlink:href="#DejaVuSans-4f" transform="translate(2750.83 0)"/><use xlink:href="#DejaVuSans-1e" transform="translate(2778.61 0)"/></g><!-- outside the dashed patch the field is gap-filled, not measured --><g transform="translate(471.55 327.57) scale(0.09 -0.09)"><defs><path id="DejaVuSans-13af" d="M 3431 3500 
L 3431 0 
L 2853 0 
L 2853 3053 
L 1275 3053 
L 1275 0 
L 697 0 
L 697 3053 
L 147 3053 
L 147 3500 
L 697 3500 
L 697 3744 
Q 697 4316 967 4589 
Q 1238 4863 1797 4863 
L 2375 4863 
L 2375 4384 
L 1825 4384 
Q 1516 4384 1395 4259 
Q 1275 4134 1275 3809 
L 1275 3500 
L 3431 3500 
z
M 2853 4856 
L 3431 4856 
L 3431 4128 
L 2853 4128 
L 2853 4856 
z
" transform="scale(0.015625)"/><path id="DejaVuSans-f" d="M 750 794 
L 1409 794 
L 1409 256 
L 897 -744 
L 494 -744 
L 750 256 
L 750 794 
z
" transform="scale(0.015625)"/></defs><use xlink:href="#DejaVuSans-52"/><use xlink:href="#DejaVuSans-58" transform="translate(61.19 0)"/><use xlink:href="#DejaVuSans-57" transform="translate(124.56 0)"/><use xlink:href="#DejaVuSans-56" transform="translate(163.77 0)"/><use xlink:href="#DejaVuSans-4c" transform="translate(215.86 0)"/><use xlink:href="#DejaVuSans-47" transform="translate(243.64 0)"/><use xlink:href="#DejaVuSans-48" transform="translate(307.12 0)"/><use xlink:href="#DejaVuSans-3" transform="translate(368.66 0)"/><use xlink:href="#DejaVuSans-57" transform="translate(400.44 0)"/><use xlink:href="#DejaVuSans-4b" transform="translate(439.64 0)"/><use xlink:href="#DejaVuSans-48" transform="translate(503.02 0)"/><use xlink:href="#DejaVuSans-3" transform="translate(564.55 0)"/><use xlink:href="#DejaVuSans-47" transform="translate(596.33 0)"/><use xlink:href="#DejaVuSans-44" transform="translate(659.81 0)"/><use xlink:href="#DejaVuSans-56" transform="translate(721.09 0)"/><use xlink:href="#DejaVuSans-4b" transform="translate(773.19 0)"/><use xlink:href="#DejaVuSans-48" transform="translate(836.56 0)"/><use xlink:href="#DejaVuSans-47" transform="translate(898.09 0)"/><use xlink:href="#DejaVuSans-3" transform="translate(961.58 0)"/><use xlink:href="#DejaVuSans-53" transform="translate(993.36 0)"/><use xlink:href="#DejaVuSans-44" transform="translate(1056.84 0)"/><use xlink:href="#DejaVuSans-57" transform="translate(1118.12 0)"/><use xlink:href="#DejaVuSans-46" transform="translate(1157.33 0)"/><use xlink:href="#DejaVuSans-4b" transform="translate(1212.31 0)"/><use xlink:href="#DejaVuSans-3" transform="translate(1275.69 0)"/><use xlink:href="#DejaVuSans-57" transform="translate(1307.47 0)"/><use xlink:href="#DejaVuSans-4b" transform="translate(1346.67 0)"/><use xlink:href="#DejaVuSans-48" transform="translate(1410.05 0)"/><use xlink:href="#DejaVuSans-3" transform="translate(1471.58 0)"/><use xlink:href="#DejaVuSans-13af" transform="translate(1503.36 0)"/><use xlink:href="#DejaVuSans-48" transform="translate(1566.34 0)"/><use xlink:href="#DejaVuSans-4f" transform="translate(1627.88 0)"/><use xlink:href="#DejaVuSans-47" transform="translate(1655.66 0)"/><use xlink:href="#DejaVuSans-3" transform="translate(1719.14 0)"/><use xlink:href="#DejaVuSans-4c" transform="translate(1750.92 0)"/><use xlink:href="#DejaVuSans-56" transform="translate(1778.7 0)"/><use xlink:href="#DejaVuSans-3" transform="translate(1830.8 0)"/><use xlink:href="#DejaVuSans-4a" transform="translate(1862.58 0)"/><use xlink:href="#DejaVuSans-44" transform="translate(1926.06 0)"/><use xlink:href="#DejaVuSans-53" transform="translate(1987.34 0)"/><use xlink:href="#DejaVuSans-10" transform="translate(2050.83 0)"/><use xlink:href="#DejaVuSans-13af" transform="translate(2086.91 0)"/><use xlink:href="#DejaVuSans-4f" transform="translate(2149.89 0)"/><use xlink:href="#DejaVuSans-4f" transform="translate(2177.67 0)"/><use xlink:href="#DejaVuSans-48" transform="translate(2205.45 0)"/><use xlink:href="#DejaVuSans-47" transform="translate(2266.98 0)"/><use xlink:href="#DejaVuSans-f" transform="translate(2330.47 0)"/><use xlink:href="#DejaVuSans-3" transform="translate(2362.25 0)"/><use xlink:href="#DejaVuSans-51" transform="translate(2394.03 0)"/><use xlink:href="#DejaVuSans-52" transform="translate(2457.41 0)"/><use xlink:href="#DejaVuSans-57" transform="translate(2518.59 0)"/><use xlink:href="#DejaVuSans-3" transform="translate(2557.8 0)"/><use xlink:href="#DejaVuSans-50" transform="translate(2589.58 0)"/><use xlink:href="#DejaVuSans-48" transform="translate(2686.98 0)"/><use xlink:href="#DejaVuSans-44" transform="translate(2748.52 0)"/><use xlink:href="#DejaVuSans-56" transform="translate(2809.8 0)"/><use xlink:href="#DejaVuSans-58" transform="translate(2861.89 0)"/><use xlink:href="#DejaVuSans-55" transform="translate(2925.27 0)"/><use xlink:href="#DejaVuSans-48" transform="translate(2964.17 0)"/><use xlink:href="#DejaVuSans-47" transform="translate(3025.7 0)"/></g></g><g id="text_46"><!-- 631 Hz band, the most directive one --><g transform="translate(504.65 16.32) scale(0.12 -0.12)"><use xlink:href="#DejaVuSans-19"/><use xlink:href="#DejaVuSans-16" transform="translate(63.62 0)"/><use xlink:href="#DejaVuSans-14" transform="translate(127.25 0)"/><use xlink:href="#DejaVuSans-3" transform="translate(190.88 0)"/><use xlink:href="#DejaVuSans-2b" transform="translate(222.66 0)"/><use xlink:href="#DejaVuSans-5d" transform="translate(297.86 0)"/><use xlink:href="#DejaVuSans-3" transform="translate(350.34 0)"/><use xlink:href="#DejaVuSans-45" transform="translate(382.12 0)"/><use xlink:href="#DejaVuSans-44" transform="translate(445.61 0)"/><use xlink:href="#DejaVuSans-51" transform="translate(506.89 0)"/><use xlink:href="#DejaVuSans-47" transform="translate(570.27 0)"/><use xlink:href="#DejaVuSans-f" transform="translate(633.75 0)"/><use xlink:href="#DejaVuSans-3" transform="translate(665.53 0)"/><use xlink:href="#DejaVuSans-57" transform="translate(697.31 0)"/><use xlink:href="#DejaVuSans-4b" transform="translate(736.52 0)"/><use xlink:href="#DejaVuSans-48" transform="translate(799.89 0)"/><use xlink:href="#DejaVuSans-3" transform="translate(861.42 0)"/><use xlink:href="#DejaVuSans-50" transform="translate(893.2 0)"/><use xlink:href="#DejaVuSans-52" transform="translate(990.61 0)"/><use xlink:href="#DejaVuSans-56" transform="translate(1051.8 0)"/><use xlink:href="#DejaVuSans-57" transform="translate(1103.89 0)"/><use xlink:href="#DejaVuSans-3" transform="translate(1143.09 0)"/><use xlink:href="#DejaVuSans-47" transform="translate(1174.88 0)"/><use xlink:href="#DejaVuSans-4c" transform="translate(1238.36 0)"/><use xlink:href="#DejaVuSans-55" transform="translate(1266.14 0)"/><use xlink:href="#DejaVuSans-48" transform="translate(1305.05 0)"/><use xlink:href="#DejaVuSans-46" transform="translate(1366.58 0)"/><use xlink:href="#DejaVuSans-57" transform="translate(1421.56 0)"/><use xlink:href="#DejaVuSans-4c" transform="translate(1460.77 0)"/><use xlink:href="#DejaVuSans-59" transform="translate(1488.55 0)"/><use xlink:href="#DejaVuSans-48" transform="translate(1547.73 0)"/><use xlink:href="#DejaVuSans-3" transform="translate(1609.27 0)"/><use xlink:href="#DejaVuSans-52" transform="translate(1641.05 0)"/><use xlink:href="#DejaVuSans-51" transform="translate(1702.23 0)"/><use xlink:href="#DejaVuSans-48" transform="translate(1765.61 0)"/></g></g></g><g id="axes_3"><g id="patch_15"><path d="M 781.53 343.32 
L 797.38 343.32 
L 797.38 26.32 
L 781.53 26.32 
z
" style="fill: #ffffff"/></g><g id="QuadMesh_1"><path d="M 781.53 343.32 
L 797.38 343.32 
L 797.38 318.93 
L 781.53 318.93 
L 781.53 343.32 
" clip-path="url(#pa309900d80)" style="fill: #470e61"/><path d="M 781.53 318.93 
L 797.38 318.93 
L 797.38 294.55 
L 781.53 294.55 
L 781.53 318.93 
" clip-path="url(#pa309900d80)" style="fill: #482979"/><path d="M 781.53 294.55 
L 797.38 294.55 
L 797.38 270.16 
L 781.53 270.16 
L 781.53 294.55 
" clip-path="url(#pa309900d80)" style="fill: #424186"/><path d="M 781.53 270.16 
L 797.38 270.16 
L 797.38 245.78 
L 781.53 245.78 
L 781.53 270.16 
" clip-path="url(#pa309900d80)" style="fill: #39568c"/><path d="M 781.53 245.78 
L 797.38 245.78 
L 797.38 221.4 
L 781.53 221.4 
L 781.53 245.78 
" clip-path="url(#pa309900d80)" style="fill: #2f6b8e"/><path d="M 781.53 221.4 
L 797.38 221.4 
L 797.38 197.01 
L 781.53 197.01 
L 781.53 221.4 
" clip-path="url(#pa309900d80)" style="fill: #277e8e"/><path d="M 781.53 197.01 
L 797.38 197.01 
L 797.38 172.63 
L 781.53 172.63 
L 781.53 197.01 
" clip-path="url(#pa309900d80)" style="fill: #21908d"/><path d="M 781.53 172.63 
L 797.38 172.63 
L 797.38 148.24 
L 781.53 148.24 
L 781.53 172.63 
" clip-path="url(#pa309900d80)" style="fill: #1fa287"/><path d="M 781.53 148.24 
L 797.38 148.24 
L 797.38 123.86 
L 781.53 123.86 
L 781.53 148.24 
" clip-path="url(#pa309900d80)" style="fill: #31b57b"/><path d="M 781.53 123.86 
L 797.38 123.86 
L 797.38 99.47 
L 781.53 99.47 
L 781.53 123.86 
" clip-path="url(#pa309900d80)" style="fill: #54c568"/><path d="M 781.53 99.47 
L 797.38 99.47 
L 797.38 75.09 
L 781.53 75.09 
L 781.53 99.47 
" clip-path="url(#pa309900d80)" style="fill: #7fd34e"/><path d="M 781.53 75.09 
L 797.38 75.09 
L 797.38 50.7 
L 781.53 50.7 
L 781.53 75.09 
" clip-path="url(#pa309900d80)" style="fill: #b2dd2d"/><path d="M 781.53 50.7 
L 797.38 50.7 
L 797.38 26.32 
L 781.53 26.32 
L 781.53 50.7 
" clip-path="url(#pa309900d80)" style="fill: #e7e419"/></g><g id="matplotlib.axis_5"/><g id="matplotlib.axis_6"><g id="ytick_17"><g id="line2d_76"><defs><path id="mbcf877dec0" d="M 0 0 
L 3.5 0 
" style="stroke: #000000; stroke-width: 0.8"/></defs><g><use xlink:href="#mbcf877dec0" x="797.38" y="343.32" style="stroke: #000000; stroke-width: 0.8"/></g></g><g id="text_47"><!-- 76.8 --><g transform="translate(804.38 347.12) scale(0.1 -0.1)"><use xlink:href="#DejaVuSans-1a"/><use xlink:href="#DejaVuSans-19" transform="translate(63.62 0)"/><use xlink:href="#DejaVuSans-11" transform="translate(127.25 0)"/><use xlink:href="#DejaVuSans-1b" transform="translate(159.03 0)"/></g></g></g><g id="ytick_18"><g id="line2d_77"><g><use xlink:href="#mbcf877dec0" x="797.38" y="294.55" style="stroke: #000000; stroke-width: 0.8"/></g></g><g id="text_48"><!-- 78.4 --><g transform="translate(804.38 298.35) scale(0.1 -0.1)"><use xlink:href="#DejaVuSans-1a"/><use xlink:href="#DejaVuSans-1b" transform="translate(63.62 0)"/><use xlink:href="#DejaVuSans-11" transform="translate(127.25 0)"/><use xlink:href="#DejaVuSans-17" transform="translate(159.03 0)"/></g></g></g><g id="ytick_19"><g id="line2d_78"><g><use xlink:href="#mbcf877dec0" x="797.38" y="245.78" style="stroke: #000000; stroke-width: 0.8"/></g></g><g id="text_49"><!-- 80.0 --><g transform="translate(804.38 249.58) scale(0.1 -0.1)"><use xlink:href="#DejaVuSans-1b"/><use xlink:href="#DejaVuSans-13" transform="translate(63.62 0)"/><use xlink:href="#DejaVuSans-11" transform="translate(127.25 0)"/><use xlink:href="#DejaVuSans-13" transform="translate(159.03 0)"/></g></g></g><g id="ytick_20"><g id="line2d_79"><g><use xlink:href="#mbcf877dec0" x="797.38" y="197.01" style="stroke: #000000; stroke-width: 0.8"/></g></g><g id="text_50"><!-- 81.6 --><g transform="translate(804.38 200.81) scale(0.1 -0.1)"><use xlink:href="#DejaVuSans-1b"/><use xlink:href="#DejaVuSans-14" transform="translate(63.62 0)"/><use xlink:href="#DejaVuSans-11" transform="translate(127.25 0)"/><use xlink:href="#DejaVuSans-19" transform="translate(159.03 0)"/></g></g></g><g id="ytick_21"><g id="line2d_80"><g><use xlink:href="#mbcf877dec0" x="797.38" y="148.24" style="stroke: #000000; stroke-width: 0.8"/></g></g><g id="text_51"><!-- 83.2 --><g transform="translate(804.38 152.04) scale(0.1 -0.1)"><use xlink:href="#DejaVuSans-1b"/><use xlink:href="#DejaVuSans-16" transform="translate(63.62 0)"/><use xlink:href="#DejaVuSans-11" transform="translate(127.25 0)"/><use xlink:href="#DejaVuSans-15" transform="translate(159.03 0)"/></g></g></g><g id="ytick_22"><g id="line2d_81"><g><use xlink:href="#mbcf877dec0" x="797.38" y="99.47" style="stroke: #000000; stroke-width: 0.8"/></g></g><g id="text_52"><!-- 84.8 --><g transform="translate(804.38 103.27) scale(0.1 -0.1)"><use xlink:href="#DejaVuSans-1b"/><use xlink:href="#DejaVuSans-17" transform="translate(63.62 0)"/><use xlink:href="#DejaVuSans-11" transform="translate(127.25 0)"/><use xlink:href="#DejaVuSans-1b" transform="translate(159.03 0)"/></g></g></g><g id="ytick_23"><g id="line2d_82"><g><use xlink:href="#mbcf877dec0" x="797.38" y="50.7" style="stroke: #000000; stroke-width: 0.8"/></g></g><g id="text_53"><!-- 86.4 --><g transform="translate(804.38 54.5) scale(0.1 -0.1)"><use xlink:href="#DejaVuSans-1b"/><use xlink:href="#DejaVuSans-19" transform="translate(63.62 0)"/><use xlink:href="#DejaVuSans-11" transform="translate(127.25 0)"/><use xlink:href="#DejaVuSans-17" transform="translate(159.03 0)"/></g></g></g><g id="text_54"><!-- Source level at 60 m [dB] --><g transform="translate(838.25 248.59) rotate(-90) scale(0.1 -0.1)"><use xlink:href="#DejaVuSans-36"/><use xlink:href="#DejaVuSans-52" transform="translate(63.48 0)"/><use xlink:href="#DejaVuSans-58" transform="translate(124.67 0)"/><use xlink:href="#DejaVuSans-55" transform="translate(188.05 0)"/><use xlink:href="#DejaVuSans-46" transform="translate(226.95 0)"/><use xlink:href="#DejaVuSans-48" transform="translate(281.94 0)"/><use xlink:href="#DejaVuSans-3" transform="translate(343.47 0)"/><use xlink:href="#DejaVuSans-4f" transform="translate(375.25 0)"/><use xlink:href="#DejaVuSans-48" transform="translate(403.03 0)"/><use xlink:href="#DejaVuSans-59" transform="translate(464.56 0)"/><use xlink:href="#DejaVuSans-48" transform="translate(523.75 0)"/><use xlink:href="#DejaVuSans-4f" transform="translate(585.28 0)"/><use xlink:href="#DejaVuSans-3" transform="translate(613.06 0)"/><use xlink:href="#DejaVuSans-44" transform="translate(644.84 0)"/><use xlink:href="#DejaVuSans-57" transform="translate(706.12 0)"/><use xlink:href="#DejaVuSans-3" transform="translate(745.33 0)"/><use xlink:href="#DejaVuSans-19" transform="translate(777.11 0)"/><use xlink:href="#DejaVuSans-13" transform="translate(840.73 0)"/><use xlink:href="#DejaVuSans-3" transform="translate(904.36 0)"/><use xlink:href="#DejaVuSans-50" transform="translate(936.14 0)"/><use xlink:href="#DejaVuSans-3" transform="translate(1033.55 0)"/><use xlink:href="#DejaVuSans-3e" transform="translate(1065.33 0)"/><use xlink:href="#DejaVuSans-47" transform="translate(1104.34 0)"/><use xlink:href="#DejaVuSans-25" transform="translate(1167.83 0)"/><use xlink:href="#DejaVuSans-40" transform="translate(1236.44 0)"/></g></g></g><g id="LineCollection_1"/><g id="patch_16"><path d="M 781.53 343.32 
L 789.46 343.32 
L 797.38 343.32 
L 797.38 26.32 
L 789.46 26.32 
L 781.53 26.32 
L 781.53 343.32 
z
" style="fill: none; stroke: #000000; stroke-width: 0.8; stroke-linejoin: miter; stroke-linecap: square"/></g></g></g><defs><clipPath id="pc9ecfd6786"><rect x="40.93" y="26.32" width="371.68" height="317"/></clipPath><clipPath id="p531e56a264"><rect x="465.61" y="26.32" width="297.34" height="317"/></clipPath><clipPath id="pa309900d80"><rect x="781.53" y="26.32" width="15.85" height="317"/></clipPath></defs></svg>
