<?xml version="1.0" encoding="utf-8" standalone="no"?>
<!DOCTYPE svg PUBLIC "-//W3C//DTD SVG 1.1//EN"
  "http://www.w3.org/Graphics/SVG/1.1/DTD/svg11.dtd">
<svg xmlns:xlink="http://www.w3.org/1999/xlink" width="614.505469pt" height="399.159687pt" viewBox="0 0 614.505469 399.159687" xmlns="http://www.w3.org/2000/svg" version="1.1">
 <metadata>
  <rdf:RDF xmlns:dc="http://purl.org/dc/elements/1.1/" xmlns:cc="http://creativecommons.org/ns#" xmlns:rdf="http://www.w3.org/1999/02/22-rdf-syntax-ns#">
   <cc:Work>
    <dc:type rdf:resource="http://purl.org/dc/dcmitype/StillImage"/>
    <dc:format>image/svg+xml</dc:format>
    <dc:creator>
     <cc:Agent>
      <dc:title>Matplotlib v3.11.0, https://matplotlib.org/</dc:title>
     </cc:Agent>
    </dc:creator>
   </cc:Work>
  </rdf:RDF>
 </metadata>
 <defs>
  <style type="text/css">*{stroke-linejoin: round; stroke-linecap: butt}</style>
 </defs>
 <g id="figure_1">
  <g id="patch_1">
   <path d="M 0 399.159687 
L 614.505469 399.159687 
L 614.505469 0 
L 0 0 
z
"/>
  </g>
  <g id="axes_1">
   <g id="patch_2">
    <path d="M 49.305469 360.958125 
L 607.305469 360.958125 
L 607.305469 28.318125 
L 49.305469 28.318125 
z
"/>
   </g>
   <g id="line2d_1">
    <path d="M -1 106.425348 
L 3.831331 106.425736 
L 53.875236 79.615964 
L 83.149045 55.268341 
L 103.919142 57.259506 
L 120.029681 88.836496 
L 133.19295 120.011311 
L 144.322336 138.283032 
L 153.963048 151.518157 
L 162.466758 161.910828 
L 170.073587 170.29791 
L 176.9548 176.43187 
L 183.236856 177.669396 
L 189.015787 170.456597 
L 194.366241 155.928539 
L 199.347395 132.997747 
L 204.006953 67.085984 
L 208.383935 53.399019 
L 212.510664 63.638595 
L 216.414214 128.796711 
L 220.117493 153.56564 
L 223.640049 169.686347 
L 226.998706 181.783392 
L 230.208038 191.472217 
L 233.280761 199.526804 
L 236.228032 206.382476 
L 239.059692 212.311581 
L 241.784472 217.499018 
L 244.410147 222.07886 
L 246.943673 226.153429 
L 249.391301 229.80366 
L 251.758663 233.09495 
L 256.272514 238.804038 
L 260.520686 243.596835 
L 264.532723 247.669628 
L 268.333501 251.121415 
L 271.944158 253.96485 
L 273.683955 255.140651 
L 275.382812 256.134653 
L 277.042612 256.930193 
L 278.665109 257.51032 
L 280.251944 257.860343 
L 281.804651 257.970446 
L 283.324667 257.837727 
L 284.81334 257.467055 
L 286.271937 256.870485 
L 287.701649 256.065454 
L 289.103598 255.072336 
L 290.478842 253.912025 
L 291.828378 252.604011 
L 294.454053 249.60899 
L 296.987579 246.182531 
L 299.435206 242.369572 
L 301.802569 238.173446 
L 304.094765 233.564007 
L 306.31642 228.481085 
L 308.471747 222.8322 
L 310.564592 216.483325 
L 312.598475 209.2394 
L 314.576629 200.806211 
L 316.502026 190.712308 
L 317.445805 184.807222 
L 318.377406 178.130477 
L 319.29714 170.446163 
L 320.205304 161.387793 
L 321.102186 150.336287 
L 321.988063 136.102491 
L 322.863203 115.808377 
L 323.727861 76.162425 
L 324.582286 54.592332 
L 325.426718 58.434421 
L 326.261387 94.238278 
L 327.086517 123.590655 
L 327.902324 141.318654 
L 328.709015 154.297106 
L 329.506792 164.590673 
L 331.076377 180.454003 
L 332.612565 192.537789 
L 334.116746 202.309936 
L 335.590228 210.517746 
L 337.034238 217.595149 
L 339.147504 226.667385 
L 341.200669 234.380742 
L 343.197056 241.090958 
L 345.775834 248.867903 
L 348.26567 255.630172 
L 351.261872 263.010366 
L 354.13867 269.480927 
L 357.446031 276.333437 
L 361.122365 283.37563 
L 365.106719 290.495951 
L 370.249209 299.174104 
L 378.75292 313.395524 
L 381.507405 318.435327 
L 383.787534 323.031149 
L 385.997853 328.031028 
L 389.882306 337.307811 
L 390.566653 338.301886 
L 390.906409 338.591225 
L 391.244574 338.720795 
L 391.581163 338.683364 
L 391.916189 338.480365 
L 392.581614 337.62398 
L 393.240962 336.296519 
L 394.541864 332.892563 
L 398.918846 320.728028 
L 403.331508 309.555594 
L 406.677192 300.780911 
L 408.824506 294.569089 
L 410.909794 287.810516 
L 412.686287 281.248876 
L 414.17496 274.970158 
L 415.633557 267.888458 
L 417.063269 259.731017 
L 418.233442 251.815841 
L 419.384951 242.484415 
L 420.518382 231.101145 
L 421.412488 219.757543 
L 422.295656 205.195663 
L 422.951014 190.712452 
L 423.600476 170.446241 
L 424.030228 150.33632 
L 424.457437 115.808382 
L 424.882133 54.592332 
L 425.093548 58.434422 
L 425.514529 123.590642 
L 425.93307 154.297021 
L 426.556367 180.453569 
L 427.174328 197.654664 
L 427.990135 214.174216 
L 428.997098 229.358942 
L 429.99021 241.070783 
L 431.164189 252.317553 
L 432.510131 262.92807 
L 434.01824 272.855433 
L 435.49549 281.162798 
L 437.122049 289.123352 
L 438.887372 296.697443 
L 440.780637 303.862864 
L 442.790922 310.595692 
L 444.746746 316.400783 
L 446.650982 321.382078 
L 448.353481 325.238141 
L 449.867124 328.111484 
L 451.055597 329.92399 
L 452.0797 331.111865 
L 452.946088 331.806122 
L 453.660219 332.141589 
L 454.367356 332.247961 
L 455.067634 332.121952 
L 455.761185 331.764927 
L 456.584746 331.039969 
L 457.399019 330.007537 
L 458.33754 328.442681 
L 459.395407 326.221991 
L 460.567268 323.226836 
L 461.84741 319.333052 
L 463.229835 314.385704 
L 464.586287 308.710797 
L 465.917723 302.207215 
L 467.225049 294.687342 
L 468.393328 286.708065 
L 469.543004 277.243956 
L 470.562288 266.919793 
L 471.456394 255.601976 
L 472.229755 243.136339 
L 472.886105 229.364739 
L 473.536543 210.516917 
L 474.074134 186.851536 
L 474.394777 164.590673 
L 474.714003 123.590657 
L 475.031823 54.592332 
L 475.663298 170.445979 
L 476.18534 200.804771 
L 476.806848 222.829071 
L 477.525243 240.379669 
L 478.337607 255.075803 
L 479.340374 269.003254 
L 480.427567 280.938131 
L 481.595216 291.41725 
L 482.934027 301.421886 
L 484.341442 310.289924 
L 485.813047 318.185264 
L 487.255254 324.774481 
L 488.669215 330.207796 
L 489.970117 334.317669 
L 491.163501 337.347027 
L 492.254254 339.529088 
L 493.328773 341.18929 
L 494.387535 342.424041 
L 495.510639 343.386489 
L 496.694888 344.108236 
L 498.090813 344.68496 
L 499.761085 345.119276 
L 501.905375 345.436494 
L 505.041817 345.657566 
L 510.481902 345.78659 
L 524.810976 345.8347 
L 570.368405 345.838115 
L 570.424832 53.349612 
L 570.453029 65.284231 
L 570.565706 345.838115 
L 604.358199 345.838125 
L 604.358199 345.838125 
" clip-path="url(#pe051353937)" style="fill: none; stroke: #808080; stroke-opacity: 0.6; stroke-width: 1.2; stroke-linecap: square"/>
   </g>
   <g id="matplotlib.axis_1">
    <g id="xtick_1">
     <g id="line2d_2">
      <path d="M 76.357622 360.958125 
L 76.357622 28.318125 
" clip-path="url(#pe051353937)" style="fill: none; stroke: #555555; stroke-opacity: 0.5; stroke-width: 0.8; stroke-linecap: square"/>
     </g>
     <g id="line2d_3">
      <defs>
       <path id="m8d14ee1197" d="M 0 0 
L 0 3.5 
" style="stroke: #ffffff; stroke-width: 0.8"/>
      </defs>
      <g>
       <use xlink:href="#m8d14ee1197" x="76.357622" y="360.958125" style="fill: #ffffff; stroke: #ffffff; stroke-width: 0.8"/>
      </g>
     </g>
     <g id="text_1">
      <text style="font-size: 10px; font-family: 'DejaVu Sans', 'Bitstream Vera Sans', 'Computer Modern Sans Serif', 'Lucida Grande', 'Verdana', 'Geneva', 'Lucid', 'Arial', 'Helvetica', 'Avant Garde', sans-serif; text-anchor: middle; fill: #ffffff" x="76.357622" y="375.555781" transform="rotate(-0 76.357622 375.555781)">16</text>
     </g>
    </g>
    <g id="xtick_2">
     <g id="line2d_4">
      <path d="M 125.264526 360.958125 
L 125.264526 28.318125 
" clip-path="url(#pe051353937)" style="fill: none; stroke: #555555; stroke-opacity: 0.5; stroke-width: 0.8; stroke-linecap: square"/>
     </g>
     <g id="line2d_5">
      <g>
       <use xlink:href="#m8d14ee1197" x="125.264526" y="360.958125" style="fill: #ffffff; stroke: #ffffff; stroke-width: 0.8"/>
      </g>
     </g>
     <g id="text_2">
      <text style="font-size: 10px; font-family: 'DejaVu Sans', 'Bitstream Vera Sans', 'Computer Modern Sans Serif', 'Lucida Grande', 'Verdana', 'Geneva', 'Lucid', 'Arial', 'Helvetica', 'Avant Garde', sans-serif; text-anchor: middle; fill: #ffffff" x="125.264526" y="375.555781" transform="rotate(-0 125.264526 375.555781)">31.5</text>
     </g>
    </g>
    <g id="xtick_3">
     <g id="line2d_6">
      <path d="M 175.308432 360.958125 
L 175.308432 28.318125 
" clip-path="url(#pe051353937)" style="fill: none; stroke: #555555; stroke-opacity: 0.5; stroke-width: 0.8; stroke-linecap: square"/>
     </g>
     <g id="line2d_7">
      <g>
       <use xlink:href="#m8d14ee1197" x="175.308432" y="360.958125" style="fill: #ffffff; stroke: #ffffff; stroke-width: 0.8"/>
      </g>
     </g>
     <g id="text_3">
      <text style="font-size: 10px; font-family: 'DejaVu Sans', 'Bitstream Vera Sans', 'Computer Modern Sans Serif', 'Lucida Grande', 'Verdana', 'Geneva', 'Lucid', 'Arial', 'Helvetica', 'Avant Garde', sans-serif; text-anchor: middle; fill: #ffffff" x="175.308432" y="375.555781" transform="rotate(-0 175.308432 375.555781)">63</text>
     </g>
    </g>
    <g id="xtick_4">
     <g id="line2d_8">
      <path d="M 224.777051 360.958125 
L 224.777051 28.318125 
" clip-path="url(#pe051353937)" style="fill: none; stroke: #555555; stroke-opacity: 0.5; stroke-width: 0.8; stroke-linecap: square"/>
     </g>
     <g id="line2d_9">
      <g>
       <use xlink:href="#m8d14ee1197" x="224.777051" y="360.958125" style="fill: #ffffff; stroke: #ffffff; stroke-width: 0.8"/>
      </g>
     </g>
     <g id="text_4">
      <text style="font-size: 10px; font-family: 'DejaVu Sans', 'Bitstream Vera Sans', 'Computer Modern Sans Serif', 'Lucida Grande', 'Verdana', 'Geneva', 'Lucid', 'Arial', 'Helvetica', 'Avant Garde', sans-serif; text-anchor: middle; fill: #ffffff" x="224.777051" y="375.555781" transform="rotate(-0 224.777051 375.555781)">125</text>
     </g>
    </g>
    <g id="xtick_5">
     <g id="line2d_10">
      <path d="M 274.820956 360.958125 
L 274.820956 28.318125 
" clip-path="url(#pe051353937)" style="fill: none; stroke: #555555; stroke-opacity: 0.5; stroke-width: 0.8; stroke-linecap: square"/>
     </g>
     <g id="line2d_11">
      <g>
       <use xlink:href="#m8d14ee1197" x="274.820956" y="360.958125" style="fill: #ffffff; stroke: #ffffff; stroke-width: 0.8"/>
      </g>
     </g>
     <g id="text_5">
      <text style="font-size: 10px; font-family: 'DejaVu Sans', 'Bitstream Vera Sans', 'Computer Modern Sans Serif', 'Lucida Grande', 'Verdana', 'Geneva', 'Lucid', 'Arial', 'Helvetica', 'Avant Garde', sans-serif; text-anchor: middle; fill: #ffffff" x="274.820956" y="375.555781" transform="rotate(-0 274.820956 375.555781)">250</text>
     </g>
    </g>
    <g id="xtick_6">
     <g id="line2d_12">
      <path d="M 324.864862 360.958125 
L 324.864862 28.318125 
" clip-path="url(#pe051353937)" style="fill: none; stroke: #555555; stroke-opacity: 0.5; stroke-width: 0.8; stroke-linecap: square"/>
     </g>
     <g id="line2d_13">
      <g>
       <use xlink:href="#m8d14ee1197" x="324.864862" y="360.958125" style="fill: #ffffff; stroke: #ffffff; stroke-width: 0.8"/>
      </g>
     </g>
     <g id="text_6">
      <text style="font-size: 10px; font-family: 'DejaVu Sans', 'Bitstream Vera Sans', 'Computer Modern Sans Serif', 'Lucida Grande', 'Verdana', 'Geneva', 'Lucid', 'Arial', 'Helvetica', 'Avant Garde', sans-serif; text-anchor: middle; fill: #ffffff" x="324.864862" y="375.555781" transform="rotate(-0 324.864862 375.555781)">500</text>
     </g>
    </g>
    <g id="xtick_7">
     <g id="line2d_14">
      <path d="M 374.908768 360.958125 
L 374.908768 28.318125 
" clip-path="url(#pe051353937)" style="fill: none; stroke: #555555; stroke-opacity: 0.5; stroke-width: 0.8; stroke-linecap: square"/>
     </g>
     <g id="line2d_15">
      <g>
       <use xlink:href="#m8d14ee1197" x="374.908768" y="360.958125" style="fill: #ffffff; stroke: #ffffff; stroke-width: 0.8"/>
      </g>
     </g>
     <g id="text_7">
      <text style="font-size: 10px; font-family: 'DejaVu Sans', 'Bitstream Vera Sans', 'Computer Modern Sans Serif', 'Lucida Grande', 'Verdana', 'Geneva', 'Lucid', 'Arial', 'Helvetica', 'Avant Garde', sans-serif; text-anchor: middle; fill: #ffffff" x="374.908768" y="375.556562" transform="rotate(-0 374.908768 375.556562)">1k</text>
     </g>
    </g>
    <g id="xtick_8">
     <g id="line2d_16">
      <path d="M 424.952673 360.958125 
L 424.952673 28.318125 
" clip-path="url(#pe051353937)" style="fill: none; stroke: #555555; stroke-opacity: 0.5; stroke-width: 0.8; stroke-linecap: square"/>
     </g>
     <g id="line2d_17">
      <g>
       <use xlink:href="#m8d14ee1197" x="424.952673" y="360.958125" style="fill: #ffffff; stroke: #ffffff; stroke-width: 0.8"/>
      </g>
     </g>
     <g id="text_8">
      <text style="font-size: 10px; font-family: 'DejaVu Sans', 'Bitstream Vera Sans', 'Computer Modern Sans Serif', 'Lucida Grande', 'Verdana', 'Geneva', 'Lucid', 'Arial', 'Helvetica', 'Avant Garde', sans-serif; text-anchor: middle; fill: #ffffff" x="424.952673" y="375.556562" transform="rotate(-0 424.952673 375.556562)">2k</text>
     </g>
    </g>
    <g id="xtick_9">
     <g id="line2d_18">
      <path d="M 474.996579 360.958125 
L 474.996579 28.318125 
" clip-path="url(#pe051353937)" style="fill: none; stroke: #555555; stroke-opacity: 0.5; stroke-width: 0.8; stroke-linecap: square"/>
     </g>
     <g id="line2d_19">
      <g>
       <use xlink:href="#m8d14ee1197" x="474.996579" y="360.958125" style="fill: #ffffff; stroke: #ffffff; stroke-width: 0.8"/>
      </g>
     </g>
     <g id="text_9">
      <text style="font-size: 10px; font-family: 'DejaVu Sans', 'Bitstream Vera Sans', 'Computer Modern Sans Serif', 'Lucida Grande', 'Verdana', 'Geneva', 'Lucid', 'Arial', 'Helvetica', 'Avant Garde', sans-serif; text-anchor: middle; fill: #ffffff" x="474.996579" y="375.556562" transform="rotate(-0 474.996579 375.556562)">4k</text>
     </g>
    </g>
    <g id="xtick_10">
     <g id="line2d_20">
      <path d="M 525.040485 360.958125 
L 525.040485 28.318125 
" clip-path="url(#pe051353937)" style="fill: none; stroke: #555555; stroke-opacity: 0.5; stroke-width: 0.8; stroke-linecap: square"/>
     </g>
     <g id="line2d_21">
      <g>
       <use xlink:href="#m8d14ee1197" x="525.040485" y="360.958125" style="fill: #ffffff; stroke: #ffffff; stroke-width: 0.8"/>
      </g>
     </g>
     <g id="text_10">
      <text style="font-size: 10px; font-family: 'DejaVu Sans', 'Bitstream Vera Sans', 'Computer Modern Sans Serif', 'Lucida Grande', 'Verdana', 'Geneva', 'Lucid', 'Arial', 'Helvetica', 'Avant Garde', sans-serif; text-anchor: middle; fill: #ffffff" x="525.040485" y="375.556562" transform="rotate(-0 525.040485 375.556562)">8k</text>
     </g>
    </g>
    <g id="xtick_11">
     <g id="line2d_22">
      <path d="M 575.08439 360.958125 
L 575.08439 28.318125 
" clip-path="url(#pe051353937)" style="fill: none; stroke: #555555; stroke-opacity: 0.5; stroke-width: 0.8; stroke-linecap: square"/>
     </g>
     <g id="line2d_23">
      <g>
       <use xlink:href="#m8d14ee1197" x="575.08439" y="360.958125" style="fill: #ffffff; stroke: #ffffff; stroke-width: 0.8"/>
      </g>
     </g>
     <g id="text_11">
      <text style="font-size: 10px; font-family: 'DejaVu Sans', 'Bitstream Vera Sans', 'Computer Modern Sans Serif', 'Lucida Grande', 'Verdana', 'Geneva', 'Lucid', 'Arial', 'Helvetica', 'Avant Garde', sans-serif; text-anchor: middle; fill: #ffffff" x="575.08439" y="375.556562" transform="rotate(-0 575.08439 375.556562)">16k</text>
     </g>
    </g>
    <g id="xtick_12">
     <g id="line2d_24">
      <path d="M 92.468161 360.958125 
L 92.468161 28.318125 
" clip-path="url(#pe051353937)" style="fill: none; stroke-dasharray: 0.8,1.32; stroke-dashoffset: 0; stroke: #555555; stroke-opacity: 0.4; stroke-width: 0.8"/>
     </g>
     <g id="line2d_25">
      <defs>
       <path id="m1caa325441" d="M 0 0 
L 0 2 
" style="stroke: #ffffff; stroke-width: 0.6"/>
      </defs>
      <g>
       <use xlink:href="#m1caa325441" x="92.468161" y="360.958125" style="fill: #ffffff; stroke: #ffffff; stroke-width: 0.6"/>
      </g>
     </g>
    </g>
    <g id="xtick_13">
     <g id="line2d_26">
      <path d="M 121.741969 360.958125 
L 121.741969 28.318125 
" clip-path="url(#pe051353937)" style="fill: none; stroke-dasharray: 0.8,1.32; stroke-dashoffset: 0; stroke: #555555; stroke-opacity: 0.4; stroke-width: 0.8"/>
     </g>
     <g id="line2d_27">
      <g>
       <use xlink:href="#m1caa325441" x="121.741969" y="360.958125" style="fill: #ffffff; stroke: #ffffff; stroke-width: 0.6"/>
      </g>
     </g>
    </g>
    <g id="xtick_14">
     <g id="line2d_28">
      <path d="M 142.512067 360.958125 
L 142.512067 28.318125 
" clip-path="url(#pe051353937)" style="fill: none; stroke-dasharray: 0.8,1.32; stroke-dashoffset: 0; stroke: #555555; stroke-opacity: 0.4; stroke-width: 0.8"/>
     </g>
     <g id="line2d_29">
      <g>
       <use xlink:href="#m1caa325441" x="142.512067" y="360.958125" style="fill: #ffffff; stroke: #ffffff; stroke-width: 0.6"/>
      </g>
     </g>
    </g>
    <g id="xtick_15">
     <g id="line2d_30">
      <path d="M 158.622606 360.958125 
L 158.622606 28.318125 
" clip-path="url(#pe051353937)" style="fill: none; stroke-dasharray: 0.8,1.32; stroke-dashoffset: 0; stroke: #555555; stroke-opacity: 0.4; stroke-width: 0.8"/>
     </g>
     <g id="line2d_31">
      <g>
       <use xlink:href="#m1caa325441" x="158.622606" y="360.958125" style="fill: #ffffff; stroke: #ffffff; stroke-width: 0.6"/>
      </g>
     </g>
    </g>
    <g id="xtick_16">
     <g id="line2d_32">
      <path d="M 171.785875 360.958125 
L 171.785875 28.318125 
" clip-path="url(#pe051353937)" style="fill: none; stroke-dasharray: 0.8,1.32; stroke-dashoffset: 0; stroke: #555555; stroke-opacity: 0.4; stroke-width: 0.8"/>
     </g>
     <g id="line2d_33">
      <g>
       <use xlink:href="#m1caa325441" x="171.785875" y="360.958125" style="fill: #ffffff; stroke: #ffffff; stroke-width: 0.6"/>
      </g>
     </g>
    </g>
    <g id="xtick_17">
     <g id="line2d_34">
      <path d="M 182.91526 360.958125 
L 182.91526 28.318125 
" clip-path="url(#pe051353937)" style="fill: none; stroke-dasharray: 0.8,1.32; stroke-dashoffset: 0; stroke: #555555; stroke-opacity: 0.4; stroke-width: 0.8"/>
     </g>
     <g id="line2d_35">
      <g>
       <use xlink:href="#m1caa325441" x="182.91526" y="360.958125" style="fill: #ffffff; stroke: #ffffff; stroke-width: 0.6"/>
      </g>
     </g>
    </g>
    <g id="xtick_18">
     <g id="line2d_36">
      <path d="M 192.555972 360.958125 
L 192.555972 28.318125 
" clip-path="url(#pe051353937)" style="fill: none; stroke-dasharray: 0.8,1.32; stroke-dashoffset: 0; stroke: #555555; stroke-opacity: 0.4; stroke-width: 0.8"/>
     </g>
     <g id="line2d_37">
      <g>
       <use xlink:href="#m1caa325441" x="192.555972" y="360.958125" style="fill: #ffffff; stroke: #ffffff; stroke-width: 0.6"/>
      </g>
     </g>
    </g>
    <g id="xtick_19">
     <g id="line2d_38">
      <path d="M 201.059683 360.958125 
L 201.059683 28.318125 
" clip-path="url(#pe051353937)" style="fill: none; stroke-dasharray: 0.8,1.32; stroke-dashoffset: 0; stroke: #555555; stroke-opacity: 0.4; stroke-width: 0.8"/>
     </g>
     <g id="line2d_39">
      <g>
       <use xlink:href="#m1caa325441" x="201.059683" y="360.958125" style="fill: #ffffff; stroke: #ffffff; stroke-width: 0.6"/>
      </g>
     </g>
    </g>
    <g id="xtick_20">
     <g id="line2d_40">
      <path d="M 258.710417 360.958125 
L 258.710417 28.318125 
" clip-path="url(#pe051353937)" style="fill: none; stroke-dasharray: 0.8,1.32; stroke-dashoffset: 0; stroke: #555555; stroke-opacity: 0.4; stroke-width: 0.8"/>
     </g>
     <g id="line2d_41">
      <g>
       <use xlink:href="#m1caa325441" x="258.710417" y="360.958125" style="fill: #ffffff; stroke: #ffffff; stroke-width: 0.6"/>
      </g>
     </g>
    </g>
    <g id="xtick_21">
     <g id="line2d_42">
      <path d="M 287.984225 360.958125 
L 287.984225 28.318125 
" clip-path="url(#pe051353937)" style="fill: none; stroke-dasharray: 0.8,1.32; stroke-dashoffset: 0; stroke: #555555; stroke-opacity: 0.4; stroke-width: 0.8"/>
     </g>
     <g id="line2d_43">
      <g>
       <use xlink:href="#m1caa325441" x="287.984225" y="360.958125" style="fill: #ffffff; stroke: #ffffff; stroke-width: 0.6"/>
      </g>
     </g>
    </g>
    <g id="xtick_22">
     <g id="line2d_44">
      <path d="M 308.754323 360.958125 
L 308.754323 28.318125 
" clip-path="url(#pe051353937)" style="fill: none; stroke-dasharray: 0.8,1.32; stroke-dashoffset: 0; stroke: #555555; stroke-opacity: 0.4; stroke-width: 0.8"/>
     </g>
     <g id="line2d_45">
      <g>
       <use xlink:href="#m1caa325441" x="308.754323" y="360.958125" style="fill: #ffffff; stroke: #ffffff; stroke-width: 0.6"/>
      </g>
     </g>
    </g>
    <g id="xtick_23">
     <g id="line2d_46">
      <path d="M 338.028131 360.958125 
L 338.028131 28.318125 
" clip-path="url(#pe051353937)" style="fill: none; stroke-dasharray: 0.8,1.32; stroke-dashoffset: 0; stroke: #555555; stroke-opacity: 0.4; stroke-width: 0.8"/>
     </g>
     <g id="line2d_47">
      <g>
       <use xlink:href="#m1caa325441" x="338.028131" y="360.958125" style="fill: #ffffff; stroke: #ffffff; stroke-width: 0.6"/>
      </g>
     </g>
    </g>
    <g id="xtick_24">
     <g id="line2d_48">
      <path d="M 349.157516 360.958125 
L 349.157516 28.318125 
" clip-path="url(#pe051353937)" style="fill: none; stroke-dasharray: 0.8,1.32; stroke-dashoffset: 0; stroke: #555555; stroke-opacity: 0.4; stroke-width: 0.8"/>
     </g>
     <g id="line2d_49">
      <g>
       <use xlink:href="#m1caa325441" x="349.157516" y="360.958125" style="fill: #ffffff; stroke: #ffffff; stroke-width: 0.6"/>
      </g>
     </g>
    </g>
    <g id="xtick_25">
     <g id="line2d_50">
      <path d="M 358.798229 360.958125 
L 358.798229 28.318125 
" clip-path="url(#pe051353937)" style="fill: none; stroke-dasharray: 0.8,1.32; stroke-dashoffset: 0; stroke: #555555; stroke-opacity: 0.4; stroke-width: 0.8"/>
     </g>
     <g id="line2d_51">
      <g>
       <use xlink:href="#m1caa325441" x="358.798229" y="360.958125" style="fill: #ffffff; stroke: #ffffff; stroke-width: 0.6"/>
      </g>
     </g>
    </g>
    <g id="xtick_26">
     <g id="line2d_52">
      <path d="M 367.301939 360.958125 
L 367.301939 28.318125 
" clip-path="url(#pe051353937)" style="fill: none; stroke-dasharray: 0.8,1.32; stroke-dashoffset: 0; stroke: #555555; stroke-opacity: 0.4; stroke-width: 0.8"/>
     </g>
     <g id="line2d_53">
      <g>
       <use xlink:href="#m1caa325441" x="367.301939" y="360.958125" style="fill: #ffffff; stroke: #ffffff; stroke-width: 0.6"/>
      </g>
     </g>
    </g>
    <g id="xtick_27">
     <g id="line2d_54">
      <path d="M 454.226482 360.958125 
L 454.226482 28.318125 
" clip-path="url(#pe051353937)" style="fill: none; stroke-dasharray: 0.8,1.32; stroke-dashoffset: 0; stroke: #555555; stroke-opacity: 0.4; stroke-width: 0.8"/>
     </g>
     <g id="line2d_55">
      <g>
       <use xlink:href="#m1caa325441" x="454.226482" y="360.958125" style="fill: #ffffff; stroke: #ffffff; stroke-width: 0.6"/>
      </g>
     </g>
    </g>
    <g id="xtick_28">
     <g id="line2d_56">
      <path d="M 491.107118 360.958125 
L 491.107118 28.318125 
" clip-path="url(#pe051353937)" style="fill: none; stroke-dasharray: 0.8,1.32; stroke-dashoffset: 0; stroke: #555555; stroke-opacity: 0.4; stroke-width: 0.8"/>
     </g>
     <g id="line2d_57">
      <g>
       <use xlink:href="#m1caa325441" x="491.107118" y="360.958125" style="fill: #ffffff; stroke: #ffffff; stroke-width: 0.6"/>
      </g>
     </g>
    </g>
    <g id="xtick_29">
     <g id="line2d_58">
      <path d="M 504.270387 360.958125 
L 504.270387 28.318125 
" clip-path="url(#pe051353937)" style="fill: none; stroke-dasharray: 0.8,1.32; stroke-dashoffset: 0; stroke: #555555; stroke-opacity: 0.4; stroke-width: 0.8"/>
     </g>
     <g id="line2d_59">
      <g>
       <use xlink:href="#m1caa325441" x="504.270387" y="360.958125" style="fill: #ffffff; stroke: #ffffff; stroke-width: 0.6"/>
      </g>
     </g>
    </g>
    <g id="xtick_30">
     <g id="line2d_60">
      <path d="M 515.399773 360.958125 
L 515.399773 28.318125 
" clip-path="url(#pe051353937)" style="fill: none; stroke-dasharray: 0.8,1.32; stroke-dashoffset: 0; stroke: #555555; stroke-opacity: 0.4; stroke-width: 0.8"/>
     </g>
     <g id="line2d_61">
      <g>
       <use xlink:href="#m1caa325441" x="515.399773" y="360.958125" style="fill: #ffffff; stroke: #ffffff; stroke-width: 0.6"/>
      </g>
     </g>
    </g>
    <g id="xtick_31">
     <g id="line2d_62">
      <path d="M 533.544195 360.958125 
L 533.544195 28.318125 
" clip-path="url(#pe051353937)" style="fill: none; stroke-dasharray: 0.8,1.32; stroke-dashoffset: 0; stroke: #555555; stroke-opacity: 0.4; stroke-width: 0.8"/>
     </g>
     <g id="line2d_63">
      <g>
       <use xlink:href="#m1caa325441" x="533.544195" y="360.958125" style="fill: #ffffff; stroke: #ffffff; stroke-width: 0.6"/>
      </g>
     </g>
    </g>
    <g id="xtick_32">
     <g id="line2d_64">
      <path d="M 591.19493 360.958125 
L 591.19493 28.318125 
" clip-path="url(#pe051353937)" style="fill: none; stroke-dasharray: 0.8,1.32; stroke-dashoffset: 0; stroke: #555555; stroke-opacity: 0.4; stroke-width: 0.8"/>
     </g>
     <g id="line2d_65">
      <g>
       <use xlink:href="#m1caa325441" x="591.19493" y="360.958125" style="fill: #ffffff; stroke: #ffffff; stroke-width: 0.6"/>
      </g>
     </g>
    </g>
    <g id="text_12">
     <text style="font-size: 10px; font-family: 'DejaVu Sans', 'Bitstream Vera Sans', 'Computer Modern Sans Serif', 'Lucida Grande', 'Verdana', 'Geneva', 'Lucid', 'Arial', 'Helvetica', 'Avant Garde', sans-serif; text-anchor: middle; fill: #ffffff" x="328.305469" y="389.557344" transform="rotate(-0 328.305469 389.557344)">Frequency [Hz]</text>
    </g>
   </g>
   <g id="matplotlib.axis_2">
    <g id="ytick_1">
     <g id="line2d_66">
      <path d="M 49.305469 342.745831 
L 607.305469 342.745831 
" clip-path="url(#pe051353937)" style="fill: none; stroke: #555555; stroke-opacity: 0.5; stroke-width: 0.8; stroke-linecap: square"/>
     </g>
     <g id="line2d_67">
      <defs>
       <path id="m5e07181663" d="M 0 0 
L -3.5 0 
" style="stroke: #ffffff; stroke-width: 0.8"/>
      </defs>
      <g>
       <use xlink:href="#m5e07181663" x="49.305469" y="342.745831" style="fill: #ffffff; stroke: #ffffff; stroke-width: 0.8"/>
      </g>
     </g>
     <g id="text_13">
      <text style="font-size: 10px; font-family: 'DejaVu Sans', 'Bitstream Vera Sans', 'Computer Modern Sans Serif', 'Lucida Grande', 'Verdana', 'Geneva', 'Lucid', 'Arial', 'Helvetica', 'Avant Garde', sans-serif; text-anchor: end; fill: #ffffff" x="42.305469" y="346.544659" transform="rotate(-0 42.305469 346.544659)">−20</text>
     </g>
    </g>
    <g id="ytick_2">
     <g id="line2d_68">
      <path d="M 49.305469 303.099885 
L 607.305469 303.099885 
" clip-path="url(#pe051353937)" style="fill: none; stroke: #555555; stroke-opacity: 0.5; stroke-width: 0.8; stroke-linecap: square"/>
     </g>
     <g id="line2d_69">
      <g>
       <use xlink:href="#m5e07181663" x="49.305469" y="303.099885" style="fill: #ffffff; stroke: #ffffff; stroke-width: 0.8"/>
      </g>
     </g>
     <g id="text_14">
      <text style="font-size: 10px; font-family: 'DejaVu Sans', 'Bitstream Vera Sans', 'Computer Modern Sans Serif', 'Lucida Grande', 'Verdana', 'Geneva', 'Lucid', 'Arial', 'Helvetica', 'Avant Garde', sans-serif; text-anchor: end; fill: #ffffff" x="42.305469" y="306.898713" transform="rotate(-0 42.305469 306.898713)">0</text>
     </g>
    </g>
    <g id="ytick_3">
     <g id="line2d_70">
      <path d="M 49.305469 263.453938 
L 607.305469 263.453938 
" clip-path="url(#pe051353937)" style="fill: none; stroke: #555555; stroke-opacity: 0.5; stroke-width: 0.8; stroke-linecap: square"/>
     </g>
     <g id="line2d_71">
      <g>
       <use xlink:href="#m5e07181663" x="49.305469" y="263.453938" style="fill: #ffffff; stroke: #ffffff; stroke-width: 0.8"/>
      </g>
     </g>
     <g id="text_15">
      <text style="font-size: 10px; font-family: 'DejaVu Sans', 'Bitstream Vera Sans', 'Computer Modern Sans Serif', 'Lucida Grande', 'Verdana', 'Geneva', 'Lucid', 'Arial', 'Helvetica', 'Avant Garde', sans-serif; text-anchor: end; fill: #ffffff" x="42.305469" y="267.252766" transform="rotate(-0 42.305469 267.252766)">20</text>
     </g>
    </g>
    <g id="ytick_4">
     <g id="line2d_72">
      <path d="M 49.305469 223.807992 
L 607.305469 223.807992 
" clip-path="url(#pe051353937)" style="fill: none; stroke: #555555; stroke-opacity: 0.5; stroke-width: 0.8; stroke-linecap: square"/>
     </g>
     <g id="line2d_73">
      <g>
       <use xlink:href="#m5e07181663" x="49.305469" y="223.807992" style="fill: #ffffff; stroke: #ffffff; stroke-width: 0.8"/>
      </g>
     </g>
     <g id="text_16">
      <text style="font-size: 10px; font-family: 'DejaVu Sans', 'Bitstream Vera Sans', 'Computer Modern Sans Serif', 'Lucida Grande', 'Verdana', 'Geneva', 'Lucid', 'Arial', 'Helvetica', 'Avant Garde', sans-serif; text-anchor: end; fill: #ffffff" x="42.305469" y="227.60682" transform="rotate(-0 42.305469 227.60682)">40</text>
     </g>
    </g>
    <g id="ytick_5">
     <g id="line2d_74">
      <path d="M 49.305469 184.162046 
L 607.305469 184.162046 
" clip-path="url(#pe051353937)" style="fill: none; stroke: #555555; stroke-opacity: 0.5; stroke-width: 0.8; stroke-linecap: square"/>
     </g>
     <g id="line2d_75">
      <g>
       <use xlink:href="#m5e07181663" x="49.305469" y="184.162046" style="fill: #ffffff; stroke: #ffffff; stroke-width: 0.8"/>
      </g>
     </g>
     <g id="text_17">
      <text style="font-size: 10px; font-family: 'DejaVu Sans', 'Bitstream Vera Sans', 'Computer Modern Sans Serif', 'Lucida Grande', 'Verdana', 'Geneva', 'Lucid', 'Arial', 'Helvetica', 'Avant Garde', sans-serif; text-anchor: end; fill: #ffffff" x="42.305469" y="187.960874" transform="rotate(-0 42.305469 187.960874)">60</text>
     </g>
    </g>
    <g id="ytick_6">
     <g id="line2d_76">
      <path d="M 49.305469 144.516099 
L 607.305469 144.516099 
" clip-path="url(#pe051353937)" style="fill: none; stroke: #555555; stroke-opacity: 0.5; stroke-width: 0.8; stroke-linecap: square"/>
     </g>
     <g id="line2d_77">
      <g>
       <use xlink:href="#m5e07181663" x="49.305469" y="144.516099" style="fill: #ffffff; stroke: #ffffff; stroke-width: 0.8"/>
      </g>
     </g>
     <g id="text_18">
      <text style="font-size: 10px; font-family: 'DejaVu Sans', 'Bitstream Vera Sans', 'Computer Modern Sans Serif', 'Lucida Grande', 'Verdana', 'Geneva', 'Lucid', 'Arial', 'Helvetica', 'Avant Garde', sans-serif; text-anchor: end; fill: #ffffff" x="42.305469" y="148.314927" transform="rotate(-0 42.305469 148.314927)">80</text>
     </g>
    </g>
    <g id="ytick_7">
     <g id="line2d_78">
      <path d="M 49.305469 104.870153 
L 607.305469 104.870153 
" clip-path="url(#pe051353937)" style="fill: none; stroke: #555555; stroke-opacity: 0.5; stroke-width: 0.8; stroke-linecap: square"/>
     </g>
     <g id="line2d_79">
      <g>
       <use xlink:href="#m5e07181663" x="49.305469" y="104.870153" style="fill: #ffffff; stroke: #ffffff; stroke-width: 0.8"/>
      </g>
     </g>
     <g id="text_19">
      <text style="font-size: 10px; font-family: 'DejaVu Sans', 'Bitstream Vera Sans', 'Computer Modern Sans Serif', 'Lucida Grande', 'Verdana', 'Geneva', 'Lucid', 'Arial', 'Helvetica', 'Avant Garde', sans-serif; text-anchor: end; fill: #ffffff" x="42.305469" y="108.668981" transform="rotate(-0 42.305469 108.668981)">100</text>
     </g>
    </g>
    <g id="ytick_8">
     <g id="line2d_80">
      <path d="M 49.305469 65.224206 
L 607.305469 65.224206 
" clip-path="url(#pe051353937)" style="fill: none; stroke: #555555; stroke-opacity: 0.5; stroke-width: 0.8; stroke-linecap: square"/>
     </g>
     <g id="line2d_81">
      <g>
       <use xlink:href="#m5e07181663" x="49.305469" y="65.224206" style="fill: #ffffff; stroke: #ffffff; stroke-width: 0.8"/>
      </g>
     </g>
     <g id="text_20">
      <text style="font-size: 10px; font-family: 'DejaVu Sans', 'Bitstream Vera Sans', 'Computer Modern Sans Serif', 'Lucida Grande', 'Verdana', 'Geneva', 'Lucid', 'Arial', 'Helvetica', 'Avant Garde', sans-serif; text-anchor: end; fill: #ffffff" x="42.305469" y="69.023035" transform="rotate(-0 42.305469 69.023035)">120</text>
     </g>
    </g>
    <g id="text_21">
     <text style="font-size: 10px; font-family: 'DejaVu Sans', 'Bitstream Vera Sans', 'Computer Modern Sans Serif', 'Lucida Grande', 'Verdana', 'Geneva', 'Lucid', 'Arial', 'Helvetica', 'Avant Garde', sans-serif; text-anchor: middle; fill: #ffffff" x="14.798438" y="194.638125" transform="rotate(-90 14.798438 194.638125)">Level [dB]</text>
    </g>
   </g>
   <g id="line2d_82">
    <path d="M 59.048481 107.556677 
L 75.672707 96.001656 
L 92.296932 43.986698 
L 108.921158 98.633891 
L 125.545383 125.269365 
L 142.169609 149.736925 
L 158.793835 141.716156 
L 175.41806 125.647943 
L 192.042286 111.949788 
L 208.666512 43.577387 
L 225.290737 98.857534 
L 241.914963 136.437096 
L 258.539188 159.864081 
L 275.163414 156.162924 
L 291.78764 139.113367 
L 308.411865 125.087962 
L 325.036091 43.490345 
L 341.660316 100.708674 
L 358.284542 152.266604 
L 374.908768 171.964816 
L 391.532993 150.09156 
L 408.157219 135.731312 
L 424.781445 43.438125 
L 441.40567 103.379729 
L 458.029896 146.79952 
L 474.654121 43.452875 
L 491.278347 102.50368 
L 507.902573 159.422234 
L 524.526798 166.534953 
L 541.151024 187.880577 
L 557.77525 95.124219 
L 574.399475 43.489362 
L 591.023701 106.755081 
" clip-path="url(#pe051353937)" style="fill: none; stroke: #1f77b4; stroke-width: 1.5; stroke-linecap: square"/>
    <defs>
     <path id="m73513c5733" d="M 0 2.5 
C 0.663008 2.5 1.29895 2.236584 1.767767 1.767767 
C 2.236584 1.29895 2.5 0.663008 2.5 0 
C 2.5 -0.663008 2.236584 -1.29895 1.767767 -1.767767 
C 1.29895 -2.236584 0.663008 -2.5 0 -2.5 
C -0.663008 -2.5 -1.29895 -2.236584 -1.767767 -1.767767 
C -2.236584 -1.29895 -2.5 -0.663008 -2.5 0 
C -2.5 0.663008 -2.236584 1.29895 -1.767767 1.767767 
C -1.29895 2.236584 -0.663008 2.5 0 2.5 
z
" style="stroke: #1f77b4; stroke-width: 1.5"/>
    </defs>
    <g clip-path="url(#pe051353937)">
     <use xlink:href="#m73513c5733" x="59.048481" y="107.556677" style="fill: #ffffff; stroke: #1f77b4; stroke-width: 1.5"/>
     <use xlink:href="#m73513c5733" x="75.672707" y="96.001656" style="fill: #ffffff; stroke: #1f77b4; stroke-width: 1.5"/>
     <use xlink:href="#m73513c5733" x="92.296932" y="43.986698" style="fill: #ffffff; stroke: #1f77b4; stroke-width: 1.5"/>
     <use xlink:href="#m73513c5733" x="108.921158" y="98.633891" style="fill: #ffffff; stroke: #1f77b4; stroke-width: 1.5"/>
     <use xlink:href="#m73513c5733" x="125.545383" y="125.269365" style="fill: #ffffff; stroke: #1f77b4; stroke-width: 1.5"/>
     <use xlink:href="#m73513c5733" x="142.169609" y="149.736925" style="fill: #ffffff; stroke: #1f77b4; stroke-width: 1.5"/>
     <use xlink:href="#m73513c5733" x="158.793835" y="141.716156" style="fill: #ffffff; stroke: #1f77b4; stroke-width: 1.5"/>
     <use xlink:href="#m73513c5733" x="175.41806" y="125.647943" style="fill: #ffffff; stroke: #1f77b4; stroke-width: 1.5"/>
     <use xlink:href="#m73513c5733" x="192.042286" y="111.949788" style="fill: #ffffff; stroke: #1f77b4; stroke-width: 1.5"/>
     <use xlink:href="#m73513c5733" x="208.666512" y="43.577387" style="fill: #ffffff; stroke: #1f77b4; stroke-width: 1.5"/>
     <use xlink:href="#m73513c5733" x="225.290737" y="98.857534" style="fill: #ffffff; stroke: #1f77b4; stroke-width: 1.5"/>
     <use xlink:href="#m73513c5733" x="241.914963" y="136.437096" style="fill: #ffffff; stroke: #1f77b4; stroke-width: 1.5"/>
     <use xlink:href="#m73513c5733" x="258.539188" y="159.864081" style="fill: #ffffff; stroke: #1f77b4; stroke-width: 1.5"/>
     <use xlink:href="#m73513c5733" x="275.163414" y="156.162924" style="fill: #ffffff; stroke: #1f77b4; stroke-width: 1.5"/>
     <use xlink:href="#m73513c5733" x="291.78764" y="139.113367" style="fill: #ffffff; stroke: #1f77b4; stroke-width: 1.5"/>
     <use xlink:href="#m73513c5733" x="308.411865" y="125.087962" style="fill: #ffffff; stroke: #1f77b4; stroke-width: 1.5"/>
     <use xlink:href="#m73513c5733" x="325.036091" y="43.490345" style="fill: #ffffff; stroke: #1f77b4; stroke-width: 1.5"/>
     <use xlink:href="#m73513c5733" x="341.660316" y="100.708674" style="fill: #ffffff; stroke: #1f77b4; stroke-width: 1.5"/>
     <use xlink:href="#m73513c5733" x="358.284542" y="152.266604" style="fill: #ffffff; stroke: #1f77b4; stroke-width: 1.5"/>
     <use xlink:href="#m73513c5733" x="374.908768" y="171.964816" style="fill: #ffffff; stroke: #1f77b4; stroke-width: 1.5"/>
     <use xlink:href="#m73513c5733" x="391.532993" y="150.09156" style="fill: #ffffff; stroke: #1f77b4; stroke-width: 1.5"/>
     <use xlink:href="#m73513c5733" x="408.157219" y="135.731312" style="fill: #ffffff; stroke: #1f77b4; stroke-width: 1.5"/>
     <use xlink:href="#m73513c5733" x="424.781445" y="43.438125" style="fill: #ffffff; stroke: #1f77b4; stroke-width: 1.5"/>
     <use xlink:href="#m73513c5733" x="441.40567" y="103.379729" style="fill: #ffffff; stroke: #1f77b4; stroke-width: 1.5"/>
     <use xlink:href="#m73513c5733" x="458.029896" y="146.79952" style="fill: #ffffff; stroke: #1f77b4; stroke-width: 1.5"/>
     <use xlink:href="#m73513c5733" x="474.654121" y="43.452875" style="fill: #ffffff; stroke: #1f77b4; stroke-width: 1.5"/>
     <use xlink:href="#m73513c5733" x="491.278347" y="102.50368" style="fill: #ffffff; stroke: #1f77b4; stroke-width: 1.5"/>
     <use xlink:href="#m73513c5733" x="507.902573" y="159.422234" style="fill: #ffffff; stroke: #1f77b4; stroke-width: 1.5"/>
     <use xlink:href="#m73513c5733" x="524.526798" y="166.534953" style="fill: #ffffff; stroke: #1f77b4; stroke-width: 1.5"/>
     <use xlink:href="#m73513c5733" x="541.151024" y="187.880577" style="fill: #ffffff; stroke: #1f77b4; stroke-width: 1.5"/>
     <use xlink:href="#m73513c5733" x="557.77525" y="95.124219" style="fill: #ffffff; stroke: #1f77b4; stroke-width: 1.5"/>
     <use xlink:href="#m73513c5733" x="574.399475" y="43.489362" style="fill: #ffffff; stroke: #1f77b4; stroke-width: 1.5"/>
     <use xlink:href="#m73513c5733" x="591.023701" y="106.755081" style="fill: #ffffff; stroke: #1f77b4; stroke-width: 1.5"/>
    </g>
   </g>
   <g id="patch_3">
    <path d="M 49.305469 360.958125 
L 49.305469 28.318125 
" style="fill: none; stroke: #ffffff; stroke-width: 0.8; stroke-linejoin: miter; stroke-linecap: square"/>
   </g>
   <g id="patch_4">
    <path d="M 607.305469 360.958125 
L 607.305469 28.318125 
" style="fill: none; stroke: #ffffff; stroke-width: 0.8; stroke-linejoin: miter; stroke-linecap: square"/>
   </g>
   <g id="patch_5">
    <path d="M 49.305469 360.958125 
L 607.305469 360.958125 
" style="fill: none; stroke: #ffffff; stroke-width: 0.8; stroke-linejoin: miter; stroke-linecap: square"/>
   </g>
   <g id="patch_6">
    <path d="M 49.305469 28.318125 
L 607.305469 28.318125 
" style="fill: none; stroke: #ffffff; stroke-width: 0.8; stroke-linejoin: miter; stroke-linecap: square"/>
   </g>
   <g id="text_22">
    <text style="font-weight: 700; font-size: 12px; font-family: 'DejaVu Sans', 'Bitstream Vera Sans', 'Computer Modern Sans Serif', 'Lucida Grande', 'Verdana', 'Geneva', 'Lucid', 'Arial', 'Helvetica', 'Avant Garde', sans-serif; text-anchor: middle; fill: #ffffff" x="328.305469" y="16.318125" transform="rotate(-0 328.305469 16.318125)">1/3 Octave Band Analysis</text>
   </g>
   <g id="legend_1">
    <g id="patch_7">
     <path d="M 427.453906 355.958125 
L 600.305469 355.958125 
Q 602.305469 355.958125 602.305469 353.958125 
L 602.305469 324.956562 
Q 602.305469 322.956562 600.305469 322.956562 
L 427.453906 322.956562 
Q 425.453906 322.956562 425.453906 324.956562 
L 425.453906 353.958125 
Q 425.453906 355.958125 427.453906 355.958125 
z
" style="opacity: 0.8; stroke: #cccccc; stroke-linejoin: miter"/>
    </g>
    <g id="line2d_83">
     <path d="M 429.453906 331.055 
L 439.453906 331.055 
L 449.453906 331.055 
" style="fill: none; stroke: #808080; stroke-opacity: 0.6; stroke-width: 1.2; stroke-linecap: square"/>
    </g>
    <g id="text_23">
     <text style="font-size: 10px; font-family: 'DejaVu Sans', 'Bitstream Vera Sans', 'Computer Modern Sans Serif', 'Lucida Grande', 'Verdana', 'Geneva', 'Lucid', 'Arial', 'Helvetica', 'Avant Garde', sans-serif; text-anchor: start; fill: #ffffff" x="457.453906" y="334.555" transform="rotate(-0 457.453906 334.555)">Raw Signal Spectrum (PSD)</text>
    </g>
    <g id="line2d_84">
     <path d="M 429.453906 346.055781 
L 439.453906 346.055781 
L 449.453906 346.055781 
" style="fill: none; stroke: #1f77b4; stroke-width: 1.5; stroke-linecap: square"/>
     <g>
      <use xlink:href="#m73513c5733" x="439.453906" y="346.055781" style="fill: #ffffff; stroke: #1f77b4; stroke-width: 1.5"/>
     </g>
    </g>
    <g id="text_24">
     <text style="font-size: 10px; font-family: 'DejaVu Sans', 'Bitstream Vera Sans', 'Computer Modern Sans Serif', 'Lucida Grande', 'Verdana', 'Geneva', 'Lucid', 'Arial', 'Helvetica', 'Avant Garde', sans-serif; text-anchor: start; fill: #ffffff" x="457.453906" y="349.555781" transform="rotate(-0 457.453906 349.555781)">Measured 1/3 Octave Bands</text>
    </g>
   </g>
  </g>
 </g>
 <defs>
  <clipPath id="pe051353937">
   <rect x="49.305469" y="28.318125" width="558" height="332.64"/>
  </clipPath>
 </defs>
</svg>
