<?xml version="1.0" encoding="utf-8" standalone="no"?>
<!DOCTYPE svg PUBLIC "-//W3C//DTD SVG 1.1//EN"
  "http://www.w3.org/Graphics/SVG/1.1/DTD/svg11.dtd">
<svg xmlns:xlink="http://www.w3.org/1999/xlink" width="609.703906pt" height="400.038906pt" viewBox="0 0 609.703906 400.038906" xmlns="http://www.w3.org/2000/svg" version="1.1">
 <metadata>
  <rdf:RDF xmlns:dc="http://purl.org/dc/elements/1.1/" xmlns:cc="http://creativecommons.org/ns#" xmlns:rdf="http://www.w3.org/1999/02/22-rdf-syntax-ns#">
   <cc:Work>
    <dc:type rdf:resource="http://purl.org/dc/dcmitype/StillImage"/>
    <dc:format>image/svg+xml</dc:format>
    <dc:creator>
     <cc:Agent>
      <dc:title>Matplotlib v3.11.0, https://matplotlib.org/</dc:title>
     </cc:Agent>
    </dc:creator>
   </cc:Work>
  </rdf:RDF>
 </metadata>
 <defs>
  <style type="text/css">*{stroke-linejoin: round; stroke-linecap: butt}</style>
 </defs>
 <g id="figure_1">
  <g id="patch_1">
   <path d="M 0 400.038906 
L 609.703906 400.038906 
L 609.703906 0 
L 0 0 
z
"/>
  </g>
  <g id="axes_1">
   <g id="patch_2">
    <path d="M 44.503906 361.438125 
L 602.503906 361.438125 
L 602.503906 28.798125 
L 44.503906 28.798125 
z
"/>
   </g>
   <g id="FillBetweenPolyCollection_1">
    <defs>
     <path id="m9169b3fa29" d="M 55.032208 -38.600781 
L 55.032208 -38.600781 
L 65.56051 -38.600781 
L 76.088812 -38.600781 
L 86.617114 -38.600908 
L 97.145416 -38.606287 
L 107.673718 -38.610606 
L 118.202019 -38.614984 
L 128.730321 -38.618978 
L 139.258623 -39.248816 
L 149.786925 -42.700888 
L 160.315227 -51.37775 
L 170.843529 -67.739381 
L 181.371831 -94.548656 
L 191.900133 -134.506257 
L 202.428435 -178.32495 
L 212.956736 -241.403933 
L 223.485038 -304.712781 
L 234.01334 -300.679586 
L 244.541642 -273.906484 
L 255.069944 -226.087533 
L 265.598246 -180.695012 
L 276.126548 -145.240569 
L 286.65485 -119.048488 
L 297.183152 -99.421821 
L 307.711453 -82.801093 
L 318.239755 -70.827571 
L 328.768057 -61.441977 
L 339.296359 -53.99969 
L 349.824661 -48.150691 
L 360.352963 -44.149643 
L 370.881265 -41.675794 
L 381.409567 -40.285438 
L 391.937869 -39.516526 
L 402.46617 -39.054747 
L 412.994472 -38.776324 
L 423.522774 -38.602939 
L 434.051076 -38.600781 
L 444.579378 -38.600781 
L 455.10768 -38.600781 
L 465.635982 -38.600781 
L 476.164284 -38.600781 
L 486.692585 -38.600781 
L 497.220887 -38.600781 
L 507.749189 -38.600781 
L 518.277491 -38.600781 
L 528.805793 -38.600781 
L 539.334095 -38.600781 
L 549.862397 -38.600781 
L 560.390699 -38.600781 
L 570.919001 -38.600781 
L 581.447302 -38.600781 
L 591.975604 -38.600781 
L 602.503906 -38.600781 
L 602.503906 -38.600781 
L 602.503906 -38.600781 
L 591.975604 -38.600781 
L 581.447302 -38.600781 
L 570.919001 -38.600781 
L 560.390699 -38.600781 
L 549.862397 -38.600781 
L 539.334095 -38.600781 
L 528.805793 -38.600781 
L 518.277491 -38.600781 
L 507.749189 -38.600781 
L 497.220887 -38.600781 
L 486.692585 -38.600781 
L 476.164284 -38.600781 
L 465.635982 -38.600781 
L 455.10768 -38.600781 
L 444.579378 -38.600781 
L 434.051076 -38.600781 
L 423.522774 -38.600781 
L 412.994472 -38.600781 
L 402.46617 -38.600781 
L 391.937869 -38.600781 
L 381.409567 -38.600781 
L 370.881265 -38.600781 
L 360.352963 -38.600781 
L 349.824661 -38.600781 
L 339.296359 -38.600781 
L 328.768057 -38.600781 
L 318.239755 -38.600781 
L 307.711453 -38.600781 
L 297.183152 -38.600781 
L 286.65485 -38.600781 
L 276.126548 -38.600781 
L 265.598246 -38.600781 
L 255.069944 -38.600781 
L 244.541642 -38.600781 
L 234.01334 -38.600781 
L 223.485038 -38.600781 
L 212.956736 -38.600781 
L 202.428435 -38.600781 
L 191.900133 -38.600781 
L 181.371831 -38.600781 
L 170.843529 -38.600781 
L 160.315227 -38.600781 
L 149.786925 -38.600781 
L 139.258623 -38.600781 
L 128.730321 -38.600781 
L 118.202019 -38.600781 
L 107.673718 -38.600781 
L 97.145416 -38.600781 
L 86.617114 -38.600781 
L 76.088812 -38.600781 
L 65.56051 -38.600781 
L 55.032208 -38.600781 
z
" style="stroke: #1f77b4; stroke-opacity: 0.3"/>
    </defs>
    <g clip-path="url(#p36c71dfc62)">
     <use xlink:href="#m9169b3fa29" x="0" y="400.038906" style="fill: #1f77b4; fill-opacity: 0.3; stroke: #1f77b4; stroke-opacity: 0.3"/>
    </g>
   </g>
   <g id="matplotlib.axis_1">
    <g id="xtick_1">
     <g id="line2d_1">
      <path d="M 44.503906 361.438125 
L 44.503906 28.798125 
" clip-path="url(#p36c71dfc62)" style="fill: none; stroke-dasharray: 2.96,1.28; stroke-dashoffset: 0; stroke: #ffffff; stroke-opacity: 0.5; stroke-width: 0.8"/>
     </g>
     <g id="line2d_2">
      <defs>
       <path id="m8d14ee1197" d="M 0 0 
L 0 3.5 
" style="stroke: #ffffff; stroke-width: 0.8"/>
      </defs>
      <g>
       <use xlink:href="#m8d14ee1197" x="44.503906" y="361.438125" style="fill: #ffffff; stroke: #ffffff; stroke-width: 0.8"/>
      </g>
     </g>
     <g id="text_1">
      <text style="font-size: 10px; font-family: 'DejaVu Sans', 'Bitstream Vera Sans', 'Computer Modern Sans Serif', 'Lucida Grande', 'Verdana', 'Geneva', 'Lucid', 'Arial', 'Helvetica', 'Avant Garde', sans-serif; text-anchor: middle; fill: #ffffff" x="44.503906" y="376.035781" transform="rotate(-0 44.503906 376.035781)">0</text>
     </g>
    </g>
    <g id="xtick_2">
     <g id="line2d_3">
      <path d="M 128.730321 361.438125 
L 128.730321 28.798125 
" clip-path="url(#p36c71dfc62)" style="fill: none; stroke-dasharray: 2.96,1.28; stroke-dashoffset: 0; stroke: #ffffff; stroke-opacity: 0.5; stroke-width: 0.8"/>
     </g>
     <g id="line2d_4">
      <g>
       <use xlink:href="#m8d14ee1197" x="128.730321" y="361.438125" style="fill: #ffffff; stroke: #ffffff; stroke-width: 0.8"/>
      </g>
     </g>
     <g id="text_2">
      <text style="font-size: 10px; font-family: 'DejaVu Sans', 'Bitstream Vera Sans', 'Computer Modern Sans Serif', 'Lucida Grande', 'Verdana', 'Geneva', 'Lucid', 'Arial', 'Helvetica', 'Avant Garde', sans-serif; text-anchor: middle; fill: #ffffff" x="128.730321" y="376.035781" transform="rotate(-0 128.730321 376.035781)">4</text>
     </g>
    </g>
    <g id="xtick_3">
     <g id="line2d_5">
      <path d="M 212.956736 361.438125 
L 212.956736 28.798125 
" clip-path="url(#p36c71dfc62)" style="fill: none; stroke-dasharray: 2.96,1.28; stroke-dashoffset: 0; stroke: #ffffff; stroke-opacity: 0.5; stroke-width: 0.8"/>
     </g>
     <g id="line2d_6">
      <g>
       <use xlink:href="#m8d14ee1197" x="212.956736" y="361.438125" style="fill: #ffffff; stroke: #ffffff; stroke-width: 0.8"/>
      </g>
     </g>
     <g id="text_3">
      <text style="font-size: 10px; font-family: 'DejaVu Sans', 'Bitstream Vera Sans', 'Computer Modern Sans Serif', 'Lucida Grande', 'Verdana', 'Geneva', 'Lucid', 'Arial', 'Helvetica', 'Avant Garde', sans-serif; text-anchor: middle; fill: #ffffff" x="212.956736" y="376.035781" transform="rotate(-0 212.956736 376.035781)">8</text>
     </g>
    </g>
    <g id="xtick_4">
     <g id="line2d_7">
      <path d="M 297.183152 361.438125 
L 297.183152 28.798125 
" clip-path="url(#p36c71dfc62)" style="fill: none; stroke-dasharray: 2.96,1.28; stroke-dashoffset: 0; stroke: #ffffff; stroke-opacity: 0.5; stroke-width: 0.8"/>
     </g>
     <g id="line2d_8">
      <g>
       <use xlink:href="#m8d14ee1197" x="297.183152" y="361.438125" style="fill: #ffffff; stroke: #ffffff; stroke-width: 0.8"/>
      </g>
     </g>
     <g id="text_4">
      <text style="font-size: 10px; font-family: 'DejaVu Sans', 'Bitstream Vera Sans', 'Computer Modern Sans Serif', 'Lucida Grande', 'Verdana', 'Geneva', 'Lucid', 'Arial', 'Helvetica', 'Avant Garde', sans-serif; text-anchor: middle; fill: #ffffff" x="297.183152" y="376.035781" transform="rotate(-0 297.183152 376.035781)">12</text>
     </g>
    </g>
    <g id="xtick_5">
     <g id="line2d_9">
      <path d="M 381.409567 361.438125 
L 381.409567 28.798125 
" clip-path="url(#p36c71dfc62)" style="fill: none; stroke-dasharray: 2.96,1.28; stroke-dashoffset: 0; stroke: #ffffff; stroke-opacity: 0.5; stroke-width: 0.8"/>
     </g>
     <g id="line2d_10">
      <g>
       <use xlink:href="#m8d14ee1197" x="381.409567" y="361.438125" style="fill: #ffffff; stroke: #ffffff; stroke-width: 0.8"/>
      </g>
     </g>
     <g id="text_5">
      <text style="font-size: 10px; font-family: 'DejaVu Sans', 'Bitstream Vera Sans', 'Computer Modern Sans Serif', 'Lucida Grande', 'Verdana', 'Geneva', 'Lucid', 'Arial', 'Helvetica', 'Avant Garde', sans-serif; text-anchor: middle; fill: #ffffff" x="381.409567" y="376.035781" transform="rotate(-0 381.409567 376.035781)">16</text>
     </g>
    </g>
    <g id="xtick_6">
     <g id="line2d_11">
      <path d="M 465.635982 361.438125 
L 465.635982 28.798125 
" clip-path="url(#p36c71dfc62)" style="fill: none; stroke-dasharray: 2.96,1.28; stroke-dashoffset: 0; stroke: #ffffff; stroke-opacity: 0.5; stroke-width: 0.8"/>
     </g>
     <g id="line2d_12">
      <g>
       <use xlink:href="#m8d14ee1197" x="465.635982" y="361.438125" style="fill: #ffffff; stroke: #ffffff; stroke-width: 0.8"/>
      </g>
     </g>
     <g id="text_6">
      <text style="font-size: 10px; font-family: 'DejaVu Sans', 'Bitstream Vera Sans', 'Computer Modern Sans Serif', 'Lucida Grande', 'Verdana', 'Geneva', 'Lucid', 'Arial', 'Helvetica', 'Avant Garde', sans-serif; text-anchor: middle; fill: #ffffff" x="465.635982" y="376.035781" transform="rotate(-0 465.635982 376.035781)">20</text>
     </g>
    </g>
    <g id="xtick_7">
     <g id="line2d_13">
      <path d="M 549.862397 361.438125 
L 549.862397 28.798125 
" clip-path="url(#p36c71dfc62)" style="fill: none; stroke-dasharray: 2.96,1.28; stroke-dashoffset: 0; stroke: #ffffff; stroke-opacity: 0.5; stroke-width: 0.8"/>
     </g>
     <g id="line2d_14">
      <g>
       <use xlink:href="#m8d14ee1197" x="549.862397" y="361.438125" style="fill: #ffffff; stroke: #ffffff; stroke-width: 0.8"/>
      </g>
     </g>
     <g id="text_7">
      <text style="font-size: 10px; font-family: 'DejaVu Sans', 'Bitstream Vera Sans', 'Computer Modern Sans Serif', 'Lucida Grande', 'Verdana', 'Geneva', 'Lucid', 'Arial', 'Helvetica', 'Avant Garde', sans-serif; text-anchor: middle; fill: #ffffff" x="549.862397" y="376.035781" transform="rotate(-0 549.862397 376.035781)">24</text>
     </g>
    </g>
    <g id="text_8">
     <text style="font-size: 10px; font-family: 'DejaVu Sans', 'Bitstream Vera Sans', 'Computer Modern Sans Serif', 'Lucida Grande', 'Verdana', 'Geneva', 'Lucid', 'Arial', 'Helvetica', 'Avant Garde', sans-serif; text-anchor: middle; fill: #ffffff" x="323.503906" y="390.436562" transform="rotate(-0 323.503906 390.436562)">Razón de banda crítica z [Bark]</text>
    </g>
   </g>
   <g id="matplotlib.axis_2">
    <g id="ytick_1">
     <g id="line2d_15">
      <path d="M 44.503906 361.438125 
L 602.503906 361.438125 
" clip-path="url(#p36c71dfc62)" style="fill: none; stroke-dasharray: 2.96,1.28; stroke-dashoffset: 0; stroke: #ffffff; stroke-opacity: 0.5; stroke-width: 0.8"/>
     </g>
     <g id="line2d_16">
      <defs>
       <path id="m5e07181663" d="M 0 0 
L -3.5 0 
" style="stroke: #ffffff; stroke-width: 0.8"/>
      </defs>
      <g>
       <use xlink:href="#m5e07181663" x="44.503906" y="361.438125" style="fill: #ffffff; stroke: #ffffff; stroke-width: 0.8"/>
      </g>
     </g>
     <g id="text_9">
      <text style="font-size: 10px; font-family: 'DejaVu Sans', 'Bitstream Vera Sans', 'Computer Modern Sans Serif', 'Lucida Grande', 'Verdana', 'Geneva', 'Lucid', 'Arial', 'Helvetica', 'Avant Garde', sans-serif; text-anchor: end; fill: #ffffff" x="37.503906" y="365.236953" transform="rotate(-0 37.503906 365.236953)">0</text>
     </g>
    </g>
    <g id="ytick_2">
     <g id="line2d_17">
      <path d="M 44.503906 288.794669 
L 602.503906 288.794669 
" clip-path="url(#p36c71dfc62)" style="fill: none; stroke-dasharray: 2.96,1.28; stroke-dashoffset: 0; stroke: #ffffff; stroke-opacity: 0.5; stroke-width: 0.8"/>
     </g>
     <g id="line2d_18">
      <g>
       <use xlink:href="#m5e07181663" x="44.503906" y="288.794669" style="fill: #ffffff; stroke: #ffffff; stroke-width: 0.8"/>
      </g>
     </g>
     <g id="text_10">
      <text style="font-size: 10px; font-family: 'DejaVu Sans', 'Bitstream Vera Sans', 'Computer Modern Sans Serif', 'Lucida Grande', 'Verdana', 'Geneva', 'Lucid', 'Arial', 'Helvetica', 'Avant Garde', sans-serif; text-anchor: end; fill: #ffffff" x="37.503906" y="292.593497" transform="rotate(-0 37.503906 292.593497)">0,2</text>
     </g>
    </g>
    <g id="ytick_3">
     <g id="line2d_19">
      <path d="M 44.503906 216.151212 
L 602.503906 216.151212 
" clip-path="url(#p36c71dfc62)" style="fill: none; stroke-dasharray: 2.96,1.28; stroke-dashoffset: 0; stroke: #ffffff; stroke-opacity: 0.5; stroke-width: 0.8"/>
     </g>
     <g id="line2d_20">
      <g>
       <use xlink:href="#m5e07181663" x="44.503906" y="216.151212" style="fill: #ffffff; stroke: #ffffff; stroke-width: 0.8"/>
      </g>
     </g>
     <g id="text_11">
      <text style="font-size: 10px; font-family: 'DejaVu Sans', 'Bitstream Vera Sans', 'Computer Modern Sans Serif', 'Lucida Grande', 'Verdana', 'Geneva', 'Lucid', 'Arial', 'Helvetica', 'Avant Garde', sans-serif; text-anchor: end; fill: #ffffff" x="37.503906" y="219.95004" transform="rotate(-0 37.503906 219.95004)">0,4</text>
     </g>
    </g>
    <g id="ytick_4">
     <g id="line2d_21">
      <path d="M 44.503906 143.507756 
L 602.503906 143.507756 
" clip-path="url(#p36c71dfc62)" style="fill: none; stroke-dasharray: 2.96,1.28; stroke-dashoffset: 0; stroke: #ffffff; stroke-opacity: 0.5; stroke-width: 0.8"/>
     </g>
     <g id="line2d_22">
      <g>
       <use xlink:href="#m5e07181663" x="44.503906" y="143.507756" style="fill: #ffffff; stroke: #ffffff; stroke-width: 0.8"/>
      </g>
     </g>
     <g id="text_12">
      <text style="font-size: 10px; font-family: 'DejaVu Sans', 'Bitstream Vera Sans', 'Computer Modern Sans Serif', 'Lucida Grande', 'Verdana', 'Geneva', 'Lucid', 'Arial', 'Helvetica', 'Avant Garde', sans-serif; text-anchor: end; fill: #ffffff" x="37.503906" y="147.306584" transform="rotate(-0 37.503906 147.306584)">0,6</text>
     </g>
    </g>
    <g id="ytick_5">
     <g id="line2d_23">
      <path d="M 44.503906 70.864299 
L 602.503906 70.864299 
" clip-path="url(#p36c71dfc62)" style="fill: none; stroke-dasharray: 2.96,1.28; stroke-dashoffset: 0; stroke: #ffffff; stroke-opacity: 0.5; stroke-width: 0.8"/>
     </g>
     <g id="line2d_24">
      <g>
       <use xlink:href="#m5e07181663" x="44.503906" y="70.864299" style="fill: #ffffff; stroke: #ffffff; stroke-width: 0.8"/>
      </g>
     </g>
     <g id="text_13">
      <text style="font-size: 10px; font-family: 'DejaVu Sans', 'Bitstream Vera Sans', 'Computer Modern Sans Serif', 'Lucida Grande', 'Verdana', 'Geneva', 'Lucid', 'Arial', 'Helvetica', 'Avant Garde', sans-serif; text-anchor: end; fill: #ffffff" x="37.503906" y="74.663128" transform="rotate(-0 37.503906 74.663128)">0,8</text>
     </g>
    </g>
    <g id="text_14">
     <text style="font-size: 10px; font-family: 'DejaVu Sans', 'Bitstream Vera Sans', 'Computer Modern Sans Serif', 'Lucida Grande', 'Verdana', 'Geneva', 'Lucid', 'Arial', 'Helvetica', 'Avant Garde', sans-serif; text-anchor: middle; fill: #ffffff" x="15.198438" y="195.118125" transform="rotate(-90 15.198438 195.118125)">Sonoridad específica N' [sonios_HMS/Bark]</text>
    </g>
   </g>
   <g id="line2d_25">
    <path d="M 55.032208 361.438125 
L 65.56051 361.438125 
L 76.088812 361.438125 
L 86.617114 361.437999 
L 97.145416 361.432619 
L 107.673718 361.4283 
L 118.202019 361.423922 
L 128.730321 361.419928 
L 139.258623 360.790091 
L 149.786925 357.338018 
L 160.315227 348.661156 
L 170.843529 332.299525 
L 181.371831 305.490251 
L 191.900133 265.532649 
L 202.428435 221.713956 
L 212.956736 158.634973 
L 223.485038 95.326125 
L 234.01334 99.35932 
L 244.541642 126.132422 
L 255.069944 173.951373 
L 265.598246 219.343894 
L 276.126548 254.798338 
L 286.65485 280.990418 
L 297.183152 300.617085 
L 307.711453 317.237813 
L 318.239755 329.211335 
L 328.768057 338.596929 
L 339.296359 346.039216 
L 349.824661 351.888215 
L 360.352963 355.889264 
L 370.881265 358.363112 
L 381.409567 359.753468 
L 391.937869 360.52238 
L 402.46617 360.984159 
L 412.994472 361.262582 
L 423.522774 361.435967 
L 434.051076 361.438125 
L 444.579378 361.438125 
L 455.10768 361.438125 
L 465.635982 361.438125 
L 476.164284 361.438125 
L 486.692585 361.438125 
L 497.220887 361.438125 
L 507.749189 361.438125 
L 518.277491 361.438125 
L 528.805793 361.438125 
L 539.334095 361.438125 
L 549.862397 361.438125 
L 560.390699 361.438125 
L 570.919001 361.438125 
L 581.447302 361.438125 
L 591.975604 361.438125 
L 602.503906 361.438125 
" clip-path="url(#p36c71dfc62)" style="fill: none; stroke: #1f77b4; stroke-width: 1.8; stroke-linecap: square"/>
   </g>
   <g id="patch_3">
    <path d="M 44.503906 361.438125 
L 44.503906 28.798125 
" style="fill: none; stroke: #ffffff; stroke-width: 0.8; stroke-linejoin: miter; stroke-linecap: square"/>
   </g>
   <g id="patch_4">
    <path d="M 602.503906 361.438125 
L 602.503906 28.798125 
" style="fill: none; stroke: #ffffff; stroke-width: 0.8; stroke-linejoin: miter; stroke-linecap: square"/>
   </g>
   <g id="patch_5">
    <path d="M 44.503906 361.438125 
L 602.503906 361.438125 
" style="fill: none; stroke: #ffffff; stroke-width: 0.8; stroke-linejoin: miter; stroke-linecap: square"/>
   </g>
   <g id="patch_6">
    <path d="M 44.503906 28.798125 
L 602.503906 28.798125 
" style="fill: none; stroke: #ffffff; stroke-width: 0.8; stroke-linejoin: miter; stroke-linecap: square"/>
   </g>
   <g id="patch_7">
    <path d="M 324.386388 106.398769 
Q 274.928776 100.971423 226.47139 95.653839 
" style="fill: none; stroke: #ffffff; stroke-width: 0.9; stroke-linecap: round"/>
    <path d="M 230.229356 98.078235 
L 226.47139 95.653839 
L 230.665686 94.102104 
" style="fill: none; stroke: #ffffff; stroke-width: 0.9; stroke-linecap: round"/>
   </g>
   <g id="text_15">
    <text style="font-size: 10px; font-family: 'DejaVu Sans', 'Bitstream Vera Sans', 'Computer Modern Sans Serif', 'Lucida Grande', 'Verdana', 'Geneva', 'Lucid', 'Arial', 'Helvetica', 'Avant Garde', sans-serif; text-anchor: start; fill: #ffffff" x="318.239755" y="116.615085" transform="rotate(-0 318.239755 116.615085)">Sonoridad específica máxima</text>
   </g>
   <g id="text_16">
    <text style="font-weight: 700; font-size: 12px; font-family: 'DejaVu Sans', 'Bitstream Vera Sans', 'Computer Modern Sans Serif', 'Lucida Grande', 'Verdana', 'Geneva', 'Lucid', 'Arial', 'Helvetica', 'Avant Garde', sans-serif; text-anchor: middle; fill: #ffffff" x="323.503906" y="16.798125" transform="rotate(-0 323.503906 16.798125)">Sonoridad específica de Sottek (ECMA-418-2)</text>
   </g>
   <g id="legend_1">
    <g id="patch_8">
     <path d="M 372.140469 49.498828 
L 596.203906 49.498828 
Q 598.003906 49.498828 598.003906 47.698828 
L 598.003906 35.098125 
Q 598.003906 33.298125 596.203906 33.298125 
L 372.140469 33.298125 
Q 370.340469 33.298125 370.340469 35.098125 
L 370.340469 47.698828 
Q 370.340469 49.498828 372.140469 49.498828 
z
" style="opacity: 0.8; stroke: #cccccc; stroke-linejoin: miter"/>
    </g>
    <g id="line2d_26">
     <path d="M 373.940469 40.586719 
L 382.940469 40.586719 
L 391.940469 40.586719 
" style="fill: none; stroke: #1f77b4; stroke-width: 1.8; stroke-linecap: square"/>
    </g>
    <g id="text_17">
     <text style="font-size: 9px; font-family: 'DejaVu Sans', 'Bitstream Vera Sans', 'Computer Modern Sans Serif', 'Lucida Grande', 'Verdana', 'Geneva', 'Lucid', 'Arial', 'Helvetica', 'Avant Garde', sans-serif; text-anchor: start; fill: #ffffff" x="399.140469" y="43.736719" transform="rotate(-0 399.140469 43.736719)">Tono de 1 kHz, 60 dB (N = 2,8 sonios_HMS)</text>
    </g>
   </g>
  </g>
 </g>
 <defs>
  <clipPath id="p36c71dfc62">
   <rect x="44.503906" y="28.798125" width="558" height="332.64"/>
  </clipPath>
 </defs>
</svg>
