<?xml version="1.0" encoding="utf-8" standalone="no"?>
<!DOCTYPE svg PUBLIC "-//W3C//DTD SVG 1.1//EN"
  "http://www.w3.org/Graphics/SVG/1.1/DTD/svg11.dtd">
<svg xmlns:xlink="http://www.w3.org/1999/xlink" width="609.303906pt" height="399.158906pt" viewBox="0 0 609.303906 399.158906" xmlns="http://www.w3.org/2000/svg" version="1.1">
 <metadata>
  <rdf:RDF xmlns:dc="http://purl.org/dc/elements/1.1/" xmlns:cc="http://creativecommons.org/ns#" xmlns:rdf="http://www.w3.org/1999/02/22-rdf-syntax-ns#">
   <cc:Work>
    <dc:type rdf:resource="http://purl.org/dc/dcmitype/StillImage"/>
    <dc:format>image/svg+xml</dc:format>
    <dc:creator>
     <cc:Agent>
      <dc:title>Matplotlib v3.11.1, https://matplotlib.org/</dc:title>
     </cc:Agent>
    </dc:creator>
   </cc:Work>
  </rdf:RDF>
 </metadata>
 <defs>
  <style type="text/css">*{stroke-linejoin: round; stroke-linecap: butt}</style>
 </defs>
 <g id="figure_1">
  <g id="patch_1">
   <path d="M -0 399.158906 
L 609.303906 399.158906 
L 609.303906 0 
L -0 0 
z
" style="fill: #ffffff"/>
  </g>
  <g id="axes_1">
   <g id="patch_2">
    <path d="M 44.103906 360.958125 
L 602.103906 360.958125 
L 602.103906 28.318125 
L 44.103906 28.318125 
z
" style="fill: #ffffff"/>
   </g>
   <g id="FillBetweenPolyCollection_1">
    <defs>
     <path id="m1458e51181" d="M 54.632208 -38.200781 
L 54.632208 -38.200781 
L 65.16051 -38.200781 
L 75.688812 -38.208561 
L 86.217114 -38.204136 
L 96.745416 -38.207059 
L 107.273718 -38.210758 
L 117.802019 -38.215203 
L 128.330321 -38.219259 
L 138.858623 -38.85769 
L 149.386925 -42.361856 
L 159.915227 -51.171422 
L 170.443529 -67.782371 
L 180.971831 -95.005984 
L 191.500133 -135.573736 
L 202.028435 -186.178462 
L 212.556736 -233.964382 
L 223.085038 -292.357176 
L 233.61334 -304.312781 
L 244.141642 -277.1351 
L 254.669944 -228.578751 
L 265.198246 -182.457357 
L 275.726548 -146.481827 
L 286.25485 -119.881474 
L 296.783152 -99.959766 
L 307.311453 -84.327493 
L 317.839755 -70.915304 
L 328.368057 -61.37195 
L 338.896359 -53.813203 
L 349.424661 -47.877043 
L 359.952963 -43.821632 
L 370.481265 -41.314994 
L 381.009567 -39.906929 
L 391.537869 -39.128397 
L 402.06617 -38.660659 
L 412.594472 -38.378635 
L 423.122774 -38.202967 
L 433.651076 -38.200781 
L 444.179378 -38.200781 
L 454.70768 -38.200781 
L 465.235982 -38.200781 
L 475.764284 -38.200781 
L 486.292585 -38.200781 
L 496.820887 -38.200781 
L 507.349189 -38.200781 
L 517.877491 -38.200781 
L 528.405793 -38.200781 
L 538.934095 -38.200781 
L 549.462397 -38.200781 
L 559.990699 -38.200781 
L 570.519001 -38.200781 
L 581.047302 -38.200781 
L 591.575604 -38.200781 
L 602.103906 -38.200781 
L 602.103906 -38.200781 
L 602.103906 -38.200781 
L 591.575604 -38.200781 
L 581.047302 -38.200781 
L 570.519001 -38.200781 
L 559.990699 -38.200781 
L 549.462397 -38.200781 
L 538.934095 -38.200781 
L 528.405793 -38.200781 
L 517.877491 -38.200781 
L 507.349189 -38.200781 
L 496.820887 -38.200781 
L 486.292585 -38.200781 
L 475.764284 -38.200781 
L 465.235982 -38.200781 
L 454.70768 -38.200781 
L 444.179378 -38.200781 
L 433.651076 -38.200781 
L 423.122774 -38.200781 
L 412.594472 -38.200781 
L 402.06617 -38.200781 
L 391.537869 -38.200781 
L 381.009567 -38.200781 
L 370.481265 -38.200781 
L 359.952963 -38.200781 
L 349.424661 -38.200781 
L 338.896359 -38.200781 
L 328.368057 -38.200781 
L 317.839755 -38.200781 
L 307.311453 -38.200781 
L 296.783152 -38.200781 
L 286.25485 -38.200781 
L 275.726548 -38.200781 
L 265.198246 -38.200781 
L 254.669944 -38.200781 
L 244.141642 -38.200781 
L 233.61334 -38.200781 
L 223.085038 -38.200781 
L 212.556736 -38.200781 
L 202.028435 -38.200781 
L 191.500133 -38.200781 
L 180.971831 -38.200781 
L 170.443529 -38.200781 
L 159.915227 -38.200781 
L 149.386925 -38.200781 
L 138.858623 -38.200781 
L 128.330321 -38.200781 
L 117.802019 -38.200781 
L 107.273718 -38.200781 
L 96.745416 -38.200781 
L 86.217114 -38.200781 
L 75.688812 -38.200781 
L 65.16051 -38.200781 
L 54.632208 -38.200781 
z
" style="stroke: #1f77b4; stroke-opacity: 0.3"/>
    </defs>
    <g clip-path="url(#pf930e7b208)">
     <use xlink:href="#m1458e51181" x="0" y="399.158906" style="fill: #1f77b4; fill-opacity: 0.3; stroke: #1f77b4; stroke-opacity: 0.3"/>
    </g>
   </g>
   <g id="matplotlib.axis_1">
    <g id="xtick_1">
     <g id="line2d_1">
      <path d="M 44.103906 360.958125 
L 44.103906 28.318125 
" clip-path="url(#pf930e7b208)" style="fill: none; stroke-dasharray: 2.96,1.28; stroke-dashoffset: 0; stroke: #b0b0b0; stroke-opacity: 0.5; stroke-width: 0.8"/>
     </g>
     <g id="line2d_2">
      <defs>
       <path id="m3d27035b55" d="M 0 0 
L 0 3.5 
" style="stroke: #000000; stroke-width: 0.8"/>
      </defs>
      <g>
       <use xlink:href="#m3d27035b55" x="44.103906" y="360.958125" style="stroke: #000000; stroke-width: 0.8"/>
      </g>
     </g>
     <g id="text_1">
      <text style="font-size: 10px; font-family: 'DejaVu Sans', 'Bitstream Vera Sans', 'Computer Modern Sans Serif', 'Lucida Grande', 'Verdana', 'Geneva', 'Lucid', 'Arial', 'Helvetica', 'Avant Garde', sans-serif; text-anchor: middle" x="44.103906" y="375.555781" transform="rotate(-0 44.103906 375.555781)">0</text>
     </g>
    </g>
    <g id="xtick_2">
     <g id="line2d_3">
      <path d="M 128.330321 360.958125 
L 128.330321 28.318125 
" clip-path="url(#pf930e7b208)" style="fill: none; stroke-dasharray: 2.96,1.28; stroke-dashoffset: 0; stroke: #b0b0b0; stroke-opacity: 0.5; stroke-width: 0.8"/>
     </g>
     <g id="line2d_4">
      <g>
       <use xlink:href="#m3d27035b55" x="128.330321" y="360.958125" style="stroke: #000000; stroke-width: 0.8"/>
      </g>
     </g>
     <g id="text_2">
      <text style="font-size: 10px; font-family: 'DejaVu Sans', 'Bitstream Vera Sans', 'Computer Modern Sans Serif', 'Lucida Grande', 'Verdana', 'Geneva', 'Lucid', 'Arial', 'Helvetica', 'Avant Garde', sans-serif; text-anchor: middle" x="128.330321" y="375.555781" transform="rotate(-0 128.330321 375.555781)">4</text>
     </g>
    </g>
    <g id="xtick_3">
     <g id="line2d_5">
      <path d="M 212.556736 360.958125 
L 212.556736 28.318125 
" clip-path="url(#pf930e7b208)" style="fill: none; stroke-dasharray: 2.96,1.28; stroke-dashoffset: 0; stroke: #b0b0b0; stroke-opacity: 0.5; stroke-width: 0.8"/>
     </g>
     <g id="line2d_6">
      <g>
       <use xlink:href="#m3d27035b55" x="212.556736" y="360.958125" style="stroke: #000000; stroke-width: 0.8"/>
      </g>
     </g>
     <g id="text_3">
      <text style="font-size: 10px; font-family: 'DejaVu Sans', 'Bitstream Vera Sans', 'Computer Modern Sans Serif', 'Lucida Grande', 'Verdana', 'Geneva', 'Lucid', 'Arial', 'Helvetica', 'Avant Garde', sans-serif; text-anchor: middle" x="212.556736" y="375.555781" transform="rotate(-0 212.556736 375.555781)">8</text>
     </g>
    </g>
    <g id="xtick_4">
     <g id="line2d_7">
      <path d="M 296.783152 360.958125 
L 296.783152 28.318125 
" clip-path="url(#pf930e7b208)" style="fill: none; stroke-dasharray: 2.96,1.28; stroke-dashoffset: 0; stroke: #b0b0b0; stroke-opacity: 0.5; stroke-width: 0.8"/>
     </g>
     <g id="line2d_8">
      <g>
       <use xlink:href="#m3d27035b55" x="296.783152" y="360.958125" style="stroke: #000000; stroke-width: 0.8"/>
      </g>
     </g>
     <g id="text_4">
      <text style="font-size: 10px; font-family: 'DejaVu Sans', 'Bitstream Vera Sans', 'Computer Modern Sans Serif', 'Lucida Grande', 'Verdana', 'Geneva', 'Lucid', 'Arial', 'Helvetica', 'Avant Garde', sans-serif; text-anchor: middle" x="296.783152" y="375.555781" transform="rotate(-0 296.783152 375.555781)">12</text>
     </g>
    </g>
    <g id="xtick_5">
     <g id="line2d_9">
      <path d="M 381.009567 360.958125 
L 381.009567 28.318125 
" clip-path="url(#pf930e7b208)" style="fill: none; stroke-dasharray: 2.96,1.28; stroke-dashoffset: 0; stroke: #b0b0b0; stroke-opacity: 0.5; stroke-width: 0.8"/>
     </g>
     <g id="line2d_10">
      <g>
       <use xlink:href="#m3d27035b55" x="381.009567" y="360.958125" style="stroke: #000000; stroke-width: 0.8"/>
      </g>
     </g>
     <g id="text_5">
      <text style="font-size: 10px; font-family: 'DejaVu Sans', 'Bitstream Vera Sans', 'Computer Modern Sans Serif', 'Lucida Grande', 'Verdana', 'Geneva', 'Lucid', 'Arial', 'Helvetica', 'Avant Garde', sans-serif; text-anchor: middle" x="381.009567" y="375.555781" transform="rotate(-0 381.009567 375.555781)">16</text>
     </g>
    </g>
    <g id="xtick_6">
     <g id="line2d_11">
      <path d="M 465.235982 360.958125 
L 465.235982 28.318125 
" clip-path="url(#pf930e7b208)" style="fill: none; stroke-dasharray: 2.96,1.28; stroke-dashoffset: 0; stroke: #b0b0b0; stroke-opacity: 0.5; stroke-width: 0.8"/>
     </g>
     <g id="line2d_12">
      <g>
       <use xlink:href="#m3d27035b55" x="465.235982" y="360.958125" style="stroke: #000000; stroke-width: 0.8"/>
      </g>
     </g>
     <g id="text_6">
      <text style="font-size: 10px; font-family: 'DejaVu Sans', 'Bitstream Vera Sans', 'Computer Modern Sans Serif', 'Lucida Grande', 'Verdana', 'Geneva', 'Lucid', 'Arial', 'Helvetica', 'Avant Garde', sans-serif; text-anchor: middle" x="465.235982" y="375.555781" transform="rotate(-0 465.235982 375.555781)">20</text>
     </g>
    </g>
    <g id="xtick_7">
     <g id="line2d_13">
      <path d="M 549.462397 360.958125 
L 549.462397 28.318125 
" clip-path="url(#pf930e7b208)" style="fill: none; stroke-dasharray: 2.96,1.28; stroke-dashoffset: 0; stroke: #b0b0b0; stroke-opacity: 0.5; stroke-width: 0.8"/>
     </g>
     <g id="line2d_14">
      <g>
       <use xlink:href="#m3d27035b55" x="549.462397" y="360.958125" style="stroke: #000000; stroke-width: 0.8"/>
      </g>
     </g>
     <g id="text_7">
      <text style="font-size: 10px; font-family: 'DejaVu Sans', 'Bitstream Vera Sans', 'Computer Modern Sans Serif', 'Lucida Grande', 'Verdana', 'Geneva', 'Lucid', 'Arial', 'Helvetica', 'Avant Garde', sans-serif; text-anchor: middle" x="549.462397" y="375.555781" transform="rotate(-0 549.462397 375.555781)">24</text>
     </g>
    </g>
    <g id="text_8">
     <text style="font-size: 10px; font-family: 'DejaVu Sans', 'Bitstream Vera Sans', 'Computer Modern Sans Serif', 'Lucida Grande', 'Verdana', 'Geneva', 'Lucid', 'Arial', 'Helvetica', 'Avant Garde', sans-serif; text-anchor: middle" x="323.103906" y="389.556562" transform="rotate(-0 323.103906 389.556562)">Critical-band rate z [Bark]</text>
    </g>
   </g>
   <g id="matplotlib.axis_2">
    <g id="ytick_1">
     <g id="line2d_15">
      <path d="M 44.103906 360.958125 
L 602.103906 360.958125 
" clip-path="url(#pf930e7b208)" style="fill: none; stroke-dasharray: 2.96,1.28; stroke-dashoffset: 0; stroke: #b0b0b0; stroke-opacity: 0.5; stroke-width: 0.8"/>
     </g>
     <g id="line2d_16">
      <defs>
       <path id="mef640d9f3a" d="M 0 0 
L -3.5 0 
" style="stroke: #000000; stroke-width: 0.8"/>
      </defs>
      <g>
       <use xlink:href="#mef640d9f3a" x="44.103906" y="360.958125" style="stroke: #000000; stroke-width: 0.8"/>
      </g>
     </g>
     <g id="text_9">
      <text style="font-size: 10px; font-family: 'DejaVu Sans', 'Bitstream Vera Sans', 'Computer Modern Sans Serif', 'Lucida Grande', 'Verdana', 'Geneva', 'Lucid', 'Arial', 'Helvetica', 'Avant Garde', sans-serif; text-anchor: end" x="37.103906" y="364.756953" transform="rotate(-0 37.103906 364.756953)">0.0</text>
     </g>
    </g>
    <g id="ytick_2">
     <g id="line2d_17">
      <path d="M 44.103906 287.194311 
L 602.103906 287.194311 
" clip-path="url(#pf930e7b208)" style="fill: none; stroke-dasharray: 2.96,1.28; stroke-dashoffset: 0; stroke: #b0b0b0; stroke-opacity: 0.5; stroke-width: 0.8"/>
     </g>
     <g id="line2d_18">
      <g>
       <use xlink:href="#mef640d9f3a" x="44.103906" y="287.194311" style="stroke: #000000; stroke-width: 0.8"/>
      </g>
     </g>
     <g id="text_10">
      <text style="font-size: 10px; font-family: 'DejaVu Sans', 'Bitstream Vera Sans', 'Computer Modern Sans Serif', 'Lucida Grande', 'Verdana', 'Geneva', 'Lucid', 'Arial', 'Helvetica', 'Avant Garde', sans-serif; text-anchor: end" x="37.103906" y="290.99314" transform="rotate(-0 37.103906 290.99314)">0.2</text>
     </g>
    </g>
    <g id="ytick_3">
     <g id="line2d_19">
      <path d="M 44.103906 213.430498 
L 602.103906 213.430498 
" clip-path="url(#pf930e7b208)" style="fill: none; stroke-dasharray: 2.96,1.28; stroke-dashoffset: 0; stroke: #b0b0b0; stroke-opacity: 0.5; stroke-width: 0.8"/>
     </g>
     <g id="line2d_20">
      <g>
       <use xlink:href="#mef640d9f3a" x="44.103906" y="213.430498" style="stroke: #000000; stroke-width: 0.8"/>
      </g>
     </g>
     <g id="text_11">
      <text style="font-size: 10px; font-family: 'DejaVu Sans', 'Bitstream Vera Sans', 'Computer Modern Sans Serif', 'Lucida Grande', 'Verdana', 'Geneva', 'Lucid', 'Arial', 'Helvetica', 'Avant Garde', sans-serif; text-anchor: end" x="37.103906" y="217.229326" transform="rotate(-0 37.103906 217.229326)">0.4</text>
     </g>
    </g>
    <g id="ytick_4">
     <g id="line2d_21">
      <path d="M 44.103906 139.666684 
L 602.103906 139.666684 
" clip-path="url(#pf930e7b208)" style="fill: none; stroke-dasharray: 2.96,1.28; stroke-dashoffset: 0; stroke: #b0b0b0; stroke-opacity: 0.5; stroke-width: 0.8"/>
     </g>
     <g id="line2d_22">
      <g>
       <use xlink:href="#mef640d9f3a" x="44.103906" y="139.666684" style="stroke: #000000; stroke-width: 0.8"/>
      </g>
     </g>
     <g id="text_12">
      <text style="font-size: 10px; font-family: 'DejaVu Sans', 'Bitstream Vera Sans', 'Computer Modern Sans Serif', 'Lucida Grande', 'Verdana', 'Geneva', 'Lucid', 'Arial', 'Helvetica', 'Avant Garde', sans-serif; text-anchor: end" x="37.103906" y="143.465512" transform="rotate(-0 37.103906 143.465512)">0.6</text>
     </g>
    </g>
    <g id="ytick_5">
     <g id="line2d_23">
      <path d="M 44.103906 65.902871 
L 602.103906 65.902871 
" clip-path="url(#pf930e7b208)" style="fill: none; stroke-dasharray: 2.96,1.28; stroke-dashoffset: 0; stroke: #b0b0b0; stroke-opacity: 0.5; stroke-width: 0.8"/>
     </g>
     <g id="line2d_24">
      <g>
       <use xlink:href="#mef640d9f3a" x="44.103906" y="65.902871" style="stroke: #000000; stroke-width: 0.8"/>
      </g>
     </g>
     <g id="text_13">
      <text style="font-size: 10px; font-family: 'DejaVu Sans', 'Bitstream Vera Sans', 'Computer Modern Sans Serif', 'Lucida Grande', 'Verdana', 'Geneva', 'Lucid', 'Arial', 'Helvetica', 'Avant Garde', sans-serif; text-anchor: end" x="37.103906" y="69.701699" transform="rotate(-0 37.103906 69.701699)">0.8</text>
     </g>
    </g>
    <g id="text_14">
     <text style="font-size: 10px; font-family: 'DejaVu Sans', 'Bitstream Vera Sans', 'Computer Modern Sans Serif', 'Lucida Grande', 'Verdana', 'Geneva', 'Lucid', 'Arial', 'Helvetica', 'Avant Garde', sans-serif; text-anchor: middle" x="14.798438" y="194.638125" transform="rotate(-90 14.798438 194.638125)">Specific loudness N' [sone_HMS/Bark]</text>
    </g>
   </g>
   <g id="line2d_25">
    <path d="M 54.632208 360.958125 
L 65.16051 360.958125 
L 75.688812 360.950345 
L 86.217114 360.95477 
L 96.745416 360.951847 
L 107.273718 360.948148 
L 117.802019 360.943703 
L 128.330321 360.939648 
L 138.858623 360.301216 
L 149.386925 356.79705 
L 159.915227 347.987484 
L 170.443529 331.376535 
L 180.971831 304.152922 
L 191.500133 263.58517 
L 202.028435 212.980444 
L 212.556736 165.194524 
L 223.085038 106.80173 
L 233.61334 94.846125 
L 244.141642 122.023806 
L 254.669944 170.580155 
L 265.198246 216.701549 
L 275.726548 252.677079 
L 286.25485 279.277432 
L 296.783152 299.199141 
L 307.311453 314.831413 
L 317.839755 328.243602 
L 328.368057 337.786956 
L 338.896359 345.345704 
L 349.424661 351.281864 
L 359.952963 355.337275 
L 370.481265 357.843913 
L 381.009567 359.251977 
L 391.537869 360.030509 
L 402.06617 360.498247 
L 412.594472 360.780272 
L 423.122774 360.955939 
L 433.651076 360.958125 
L 444.179378 360.958125 
L 454.70768 360.958125 
L 465.235982 360.958125 
L 475.764284 360.958125 
L 486.292585 360.958125 
L 496.820887 360.958125 
L 507.349189 360.958125 
L 517.877491 360.958125 
L 528.405793 360.958125 
L 538.934095 360.958125 
L 549.462397 360.958125 
L 559.990699 360.958125 
L 570.519001 360.958125 
L 581.047302 360.958125 
L 591.575604 360.958125 
L 602.103906 360.958125 
" clip-path="url(#pf930e7b208)" style="fill: none; stroke: #1f77b4; stroke-width: 1.8; stroke-linecap: square"/>
   </g>
   <g id="patch_3">
    <path d="M 44.103906 360.958125 
L 44.103906 28.318125 
" style="fill: none; stroke: #000000; stroke-width: 0.8; stroke-linejoin: miter; stroke-linecap: square"/>
   </g>
   <g id="patch_4">
    <path d="M 602.103906 360.958125 
L 602.103906 28.318125 
" style="fill: none; stroke: #000000; stroke-width: 0.8; stroke-linejoin: miter; stroke-linecap: square"/>
   </g>
   <g id="patch_5">
    <path d="M 44.103906 360.958125 
L 602.103906 360.958125 
" style="fill: none; stroke: #000000; stroke-width: 0.8; stroke-linejoin: miter; stroke-linecap: square"/>
   </g>
   <g id="patch_6">
    <path d="M 44.103906 28.318125 
L 602.103906 28.318125 
" style="fill: none; stroke: #000000; stroke-width: 0.8; stroke-linejoin: miter; stroke-linecap: square"/>
   </g>
   <g id="patch_7">
    <path d="M 326.037198 106.290693 
Q 280.816693 100.691174 236.594792 95.215309 
" style="fill: none; stroke: #000000; stroke-width: 0.9; stroke-linecap: round"/>
    <path d="M 240.318697 97.691704 
L 236.594792 95.215309 
L 240.810251 93.722022 
" style="fill: none; stroke: #000000; stroke-width: 0.9; stroke-linecap: round"/>
   </g>
   <g id="text_15">
    <text style="font-size: 10px; font-family: 'DejaVu Sans', 'Bitstream Vera Sans', 'Computer Modern Sans Serif', 'Lucida Grande', 'Verdana', 'Geneva', 'Lucid', 'Arial', 'Helvetica', 'Avant Garde', sans-serif; text-anchor: start" x="328.368057" y="116.135085" transform="rotate(-0 328.368057 116.135085)">Peak specific loudness</text>
   </g>
   <g id="text_16">
    <text style="font-weight: 700; font-size: 12px; font-family: 'DejaVu Sans', 'Bitstream Vera Sans', 'Computer Modern Sans Serif', 'Lucida Grande', 'Verdana', 'Geneva', 'Lucid', 'Arial', 'Helvetica', 'Avant Garde', sans-serif; text-anchor: middle" x="323.103906" y="16.318125" transform="rotate(-0 323.103906 16.318125)">Sottek Specific Loudness (ECMA-418-2)</text>
   </g>
   <g id="legend_1">
    <g id="patch_8">
     <path d="M 393.419219 49.018828 
L 595.803906 49.018828 
Q 597.603906 49.018828 597.603906 47.218828 
L 597.603906 34.618125 
Q 597.603906 32.818125 595.803906 32.818125 
L 393.419219 32.818125 
Q 391.619219 32.818125 391.619219 34.618125 
L 391.619219 47.218828 
Q 391.619219 49.018828 393.419219 49.018828 
z
" style="fill: #ffffff; opacity: 0.8; stroke: #cccccc; stroke-linejoin: miter"/>
    </g>
    <g id="line2d_26">
     <path d="M 395.219219 40.106719 
L 404.219219 40.106719 
L 413.219219 40.106719 
" style="fill: none; stroke: #1f77b4; stroke-width: 1.8; stroke-linecap: square"/>
    </g>
    <g id="text_17">
     <text style="font-size: 9px; font-family: 'DejaVu Sans', 'Bitstream Vera Sans', 'Computer Modern Sans Serif', 'Lucida Grande', 'Verdana', 'Geneva', 'Lucid', 'Arial', 'Helvetica', 'Avant Garde', sans-serif; text-anchor: start" x="420.419219" y="43.256719" transform="rotate(-0 420.419219 43.256719)">1 kHz tone, 60 dB (N = 2.8 sone_HMS)</text>
    </g>
   </g>
  </g>
 </g>
 <defs>
  <clipPath id="pf930e7b208">
   <rect x="44.103906" y="28.318125" width="558" height="332.64"/>
  </clipPath>
 </defs>
</svg>
