<?xml version="1.0" encoding="utf-8" standalone="no"?>
<!DOCTYPE svg PUBLIC "-//W3C//DTD SVG 1.1//EN"
  "http://www.w3.org/Graphics/SVG/1.1/DTD/svg11.dtd">
<svg xmlns:xlink="http://www.w3.org/1999/xlink" width="713.098437pt" height="425.396562pt" viewBox="0 0 713.098437 425.396562" xmlns="http://www.w3.org/2000/svg" version="1.1">
 <metadata>
  <rdf:RDF xmlns:dc="http://purl.org/dc/elements/1.1/" xmlns:cc="http://creativecommons.org/ns#" xmlns:rdf="http://www.w3.org/1999/02/22-rdf-syntax-ns#">
   <cc:Work>
    <dc:type rdf:resource="http://purl.org/dc/dcmitype/StillImage"/>
    <dc:format>image/svg+xml</dc:format>
    <dc:creator>
     <cc:Agent>
      <dc:title>Matplotlib v3.11.0, https://matplotlib.org/</dc:title>
     </cc:Agent>
    </dc:creator>
   </cc:Work>
  </rdf:RDF>
 </metadata>
 <defs>
  <style type="text/css">*{stroke-linejoin: round; stroke-linecap: butt}</style>
 </defs>
 <g id="figure_1">
  <g id="patch_1">
   <path d="M 0 425.396562 
L 713.098437 425.396562 
L 713.098437 0 
L 0 0 
z
"/>
  </g>
  <g id="axes_1">
   <g id="patch_2">
    <path d="M 52.100781 384.993437 
L 705.898438 384.993437 
L 705.898438 28.798125 
L 52.100781 28.798125 
z
"/>
   </g>
   <g id="matplotlib.axis_1">
    <g id="xtick_1">
     <g id="line2d_1">
      <path d="M 225.628962 384.993437 
L 225.628962 28.798125 
" clip-path="url(#p9adcb59786)" style="fill: none; stroke-dasharray: 2.96,1.28; stroke-dashoffset: 0; stroke: #555555; stroke-opacity: 0.5; stroke-width: 0.8"/>
     </g>
     <g id="line2d_2">
      <defs>
       <path id="m8d14ee1197" d="M 0 0 
L 0 3.5 
" style="stroke: #ffffff; stroke-width: 0.8"/>
      </defs>
      <g>
       <use xlink:href="#m8d14ee1197" x="225.628962" y="384.993437" style="fill: #ffffff; stroke: #ffffff; stroke-width: 0.8"/>
      </g>
     </g>
     <g id="text_1">
      <!-- $\mathdefault{10^{2}}$ -->
      <g style="fill: #ffffff" transform="translate(216.828962 401.393437)">
       <text>
        <tspan x="0" y="-0.674688" style="font-size: 10px; font-family: 'DejaVu Sans'; fill: #ffffff">1</tspan>
        <tspan x="6.362305" y="-0.674688" style="font-size: 10px; font-family: 'DejaVu Sans'; fill: #ffffff">0</tspan>
        <tspan x="12.820312" y="-4.804688" style="font-size: 7px; font-family: 'DejaVu Sans'; fill: #ffffff">2</tspan>
       </text>
      </g>
     </g>
    </g>
    <g id="xtick_2">
     <g id="line2d_3">
      <path d="M 557.49975 384.993437 
L 557.49975 28.798125 
" clip-path="url(#p9adcb59786)" style="fill: none; stroke-dasharray: 2.96,1.28; stroke-dashoffset: 0; stroke: #555555; stroke-opacity: 0.5; stroke-width: 0.8"/>
     </g>
     <g id="line2d_4">
      <g>
       <use xlink:href="#m8d14ee1197" x="557.49975" y="384.993437" style="fill: #ffffff; stroke: #ffffff; stroke-width: 0.8"/>
      </g>
     </g>
     <g id="text_2">
      <!-- $\mathdefault{10^{3}}$ -->
      <g style="fill: #ffffff" transform="translate(548.69975 401.393437)">
       <text>
        <tspan x="0" y="-0.674688" style="font-size: 10px; font-family: 'DejaVu Sans'; fill: #ffffff">1</tspan>
        <tspan x="6.362305" y="-0.674688" style="font-size: 10px; font-family: 'DejaVu Sans'; fill: #ffffff">0</tspan>
        <tspan x="12.820312" y="-4.804688" style="font-size: 7px; font-family: 'DejaVu Sans'; fill: #ffffff">3</tspan>
       </text>
      </g>
     </g>
    </g>
    <g id="xtick_3">
     <g id="line2d_5">
      <path d="M 52.100781 384.993437 
L 52.100781 28.798125 
" clip-path="url(#p9adcb59786)" style="fill: none; stroke-dasharray: 2.96,1.28; stroke-dashoffset: 0; stroke: #555555; stroke-opacity: 0.5; stroke-width: 0.8"/>
     </g>
     <g id="line2d_6">
      <defs>
       <path id="m1caa325441" d="M 0 0 
L 0 2 
" style="stroke: #ffffff; stroke-width: 0.6"/>
      </defs>
      <g>
       <use xlink:href="#m1caa325441" x="52.100781" y="384.993437" style="fill: #ffffff; stroke: #ffffff; stroke-width: 0.6"/>
      </g>
     </g>
    </g>
    <g id="xtick_4">
     <g id="line2d_7">
      <path d="M 93.564298 384.993437 
L 93.564298 28.798125 
" clip-path="url(#p9adcb59786)" style="fill: none; stroke-dasharray: 2.96,1.28; stroke-dashoffset: 0; stroke: #555555; stroke-opacity: 0.5; stroke-width: 0.8"/>
     </g>
     <g id="line2d_8">
      <g>
       <use xlink:href="#m1caa325441" x="93.564298" y="384.993437" style="fill: #ffffff; stroke: #ffffff; stroke-width: 0.6"/>
      </g>
     </g>
    </g>
    <g id="xtick_5">
     <g id="line2d_9">
      <path d="M 125.7259 384.993437 
L 125.7259 28.798125 
" clip-path="url(#p9adcb59786)" style="fill: none; stroke-dasharray: 2.96,1.28; stroke-dashoffset: 0; stroke: #555555; stroke-opacity: 0.5; stroke-width: 0.8"/>
     </g>
     <g id="line2d_10">
      <g>
       <use xlink:href="#m1caa325441" x="125.7259" y="384.993437" style="fill: #ffffff; stroke: #ffffff; stroke-width: 0.6"/>
      </g>
     </g>
    </g>
    <g id="xtick_6">
     <g id="line2d_11">
      <path d="M 152.003843 384.993437 
L 152.003843 28.798125 
" clip-path="url(#p9adcb59786)" style="fill: none; stroke-dasharray: 2.96,1.28; stroke-dashoffset: 0; stroke: #555555; stroke-opacity: 0.5; stroke-width: 0.8"/>
     </g>
     <g id="line2d_12">
      <g>
       <use xlink:href="#m1caa325441" x="152.003843" y="384.993437" style="fill: #ffffff; stroke: #ffffff; stroke-width: 0.6"/>
      </g>
     </g>
    </g>
    <g id="xtick_7">
     <g id="line2d_13">
      <path d="M 174.221527 384.993437 
L 174.221527 28.798125 
" clip-path="url(#p9adcb59786)" style="fill: none; stroke-dasharray: 2.96,1.28; stroke-dashoffset: 0; stroke: #555555; stroke-opacity: 0.5; stroke-width: 0.8"/>
     </g>
     <g id="line2d_14">
      <g>
       <use xlink:href="#m1caa325441" x="174.221527" y="384.993437" style="fill: #ffffff; stroke: #ffffff; stroke-width: 0.6"/>
      </g>
     </g>
    </g>
    <g id="xtick_8">
     <g id="line2d_15">
      <path d="M 193.46736 384.993437 
L 193.46736 28.798125 
" clip-path="url(#p9adcb59786)" style="fill: none; stroke-dasharray: 2.96,1.28; stroke-dashoffset: 0; stroke: #555555; stroke-opacity: 0.5; stroke-width: 0.8"/>
     </g>
     <g id="line2d_16">
      <g>
       <use xlink:href="#m1caa325441" x="193.46736" y="384.993437" style="fill: #ffffff; stroke: #ffffff; stroke-width: 0.6"/>
      </g>
     </g>
    </g>
    <g id="xtick_9">
     <g id="line2d_17">
      <path d="M 210.443388 384.993437 
L 210.443388 28.798125 
" clip-path="url(#p9adcb59786)" style="fill: none; stroke-dasharray: 2.96,1.28; stroke-dashoffset: 0; stroke: #555555; stroke-opacity: 0.5; stroke-width: 0.8"/>
     </g>
     <g id="line2d_18">
      <g>
       <use xlink:href="#m1caa325441" x="210.443388" y="384.993437" style="fill: #ffffff; stroke: #ffffff; stroke-width: 0.6"/>
      </g>
     </g>
    </g>
    <g id="xtick_10">
     <g id="line2d_19">
      <path d="M 325.532024 384.993437 
L 325.532024 28.798125 
" clip-path="url(#p9adcb59786)" style="fill: none; stroke-dasharray: 2.96,1.28; stroke-dashoffset: 0; stroke: #555555; stroke-opacity: 0.5; stroke-width: 0.8"/>
     </g>
     <g id="line2d_20">
      <g>
       <use xlink:href="#m1caa325441" x="325.532024" y="384.993437" style="fill: #ffffff; stroke: #ffffff; stroke-width: 0.6"/>
      </g>
     </g>
    </g>
    <g id="xtick_11">
     <g id="line2d_21">
      <path d="M 383.971569 384.993437 
L 383.971569 28.798125 
" clip-path="url(#p9adcb59786)" style="fill: none; stroke-dasharray: 2.96,1.28; stroke-dashoffset: 0; stroke: #555555; stroke-opacity: 0.5; stroke-width: 0.8"/>
     </g>
     <g id="line2d_22">
      <g>
       <use xlink:href="#m1caa325441" x="383.971569" y="384.993437" style="fill: #ffffff; stroke: #ffffff; stroke-width: 0.6"/>
      </g>
     </g>
    </g>
    <g id="xtick_12">
     <g id="line2d_23">
      <path d="M 425.435086 384.993437 
L 425.435086 28.798125 
" clip-path="url(#p9adcb59786)" style="fill: none; stroke-dasharray: 2.96,1.28; stroke-dashoffset: 0; stroke: #555555; stroke-opacity: 0.5; stroke-width: 0.8"/>
     </g>
     <g id="line2d_24">
      <g>
       <use xlink:href="#m1caa325441" x="425.435086" y="384.993437" style="fill: #ffffff; stroke: #ffffff; stroke-width: 0.6"/>
      </g>
     </g>
    </g>
    <g id="xtick_13">
     <g id="line2d_25">
      <path d="M 457.596688 384.993437 
L 457.596688 28.798125 
" clip-path="url(#p9adcb59786)" style="fill: none; stroke-dasharray: 2.96,1.28; stroke-dashoffset: 0; stroke: #555555; stroke-opacity: 0.5; stroke-width: 0.8"/>
     </g>
     <g id="line2d_26">
      <g>
       <use xlink:href="#m1caa325441" x="457.596688" y="384.993437" style="fill: #ffffff; stroke: #ffffff; stroke-width: 0.6"/>
      </g>
     </g>
    </g>
    <g id="xtick_14">
     <g id="line2d_27">
      <path d="M 483.87463 384.993437 
L 483.87463 28.798125 
" clip-path="url(#p9adcb59786)" style="fill: none; stroke-dasharray: 2.96,1.28; stroke-dashoffset: 0; stroke: #555555; stroke-opacity: 0.5; stroke-width: 0.8"/>
     </g>
     <g id="line2d_28">
      <g>
       <use xlink:href="#m1caa325441" x="483.87463" y="384.993437" style="fill: #ffffff; stroke: #ffffff; stroke-width: 0.6"/>
      </g>
     </g>
    </g>
    <g id="xtick_15">
     <g id="line2d_29">
      <path d="M 506.092314 384.993437 
L 506.092314 28.798125 
" clip-path="url(#p9adcb59786)" style="fill: none; stroke-dasharray: 2.96,1.28; stroke-dashoffset: 0; stroke: #555555; stroke-opacity: 0.5; stroke-width: 0.8"/>
     </g>
     <g id="line2d_30">
      <g>
       <use xlink:href="#m1caa325441" x="506.092314" y="384.993437" style="fill: #ffffff; stroke: #ffffff; stroke-width: 0.6"/>
      </g>
     </g>
    </g>
    <g id="xtick_16">
     <g id="line2d_31">
      <path d="M 525.338147 384.993437 
L 525.338147 28.798125 
" clip-path="url(#p9adcb59786)" style="fill: none; stroke-dasharray: 2.96,1.28; stroke-dashoffset: 0; stroke: #555555; stroke-opacity: 0.5; stroke-width: 0.8"/>
     </g>
     <g id="line2d_32">
      <g>
       <use xlink:href="#m1caa325441" x="525.338147" y="384.993437" style="fill: #ffffff; stroke: #ffffff; stroke-width: 0.6"/>
      </g>
     </g>
    </g>
    <g id="xtick_17">
     <g id="line2d_33">
      <path d="M 542.314175 384.993437 
L 542.314175 28.798125 
" clip-path="url(#p9adcb59786)" style="fill: none; stroke-dasharray: 2.96,1.28; stroke-dashoffset: 0; stroke: #555555; stroke-opacity: 0.5; stroke-width: 0.8"/>
     </g>
     <g id="line2d_34">
      <g>
       <use xlink:href="#m1caa325441" x="542.314175" y="384.993437" style="fill: #ffffff; stroke: #ffffff; stroke-width: 0.6"/>
      </g>
     </g>
    </g>
    <g id="xtick_18">
     <g id="line2d_35">
      <path d="M 657.402811 384.993437 
L 657.402811 28.798125 
" clip-path="url(#p9adcb59786)" style="fill: none; stroke-dasharray: 2.96,1.28; stroke-dashoffset: 0; stroke: #555555; stroke-opacity: 0.5; stroke-width: 0.8"/>
     </g>
     <g id="line2d_36">
      <g>
       <use xlink:href="#m1caa325441" x="657.402811" y="384.993437" style="fill: #ffffff; stroke: #ffffff; stroke-width: 0.6"/>
      </g>
     </g>
    </g>
    <g id="text_3">
     <text style="font-size: 10px; font-family: 'DejaVu Sans', 'Bitstream Vera Sans', 'Computer Modern Sans Serif', 'Lucida Grande', 'Verdana', 'Geneva', 'Lucid', 'Arial', 'Helvetica', 'Avant Garde', sans-serif; text-anchor: middle; fill: #ffffff" x="378.999609" y="415.794219" transform="rotate(-0 378.999609 415.794219)">Frecuencia de excitación [Hz]</text>
    </g>
   </g>
   <g id="matplotlib.axis_2">
    <g id="ytick_1">
     <g id="line2d_37">
      <path d="M 52.100781 343.78552 
L 705.898438 343.78552 
" clip-path="url(#p9adcb59786)" style="fill: none; stroke-dasharray: 2.96,1.28; stroke-dashoffset: 0; stroke: #555555; stroke-opacity: 0.5; stroke-width: 0.8"/>
     </g>
     <g id="line2d_38">
      <defs>
       <path id="m5e07181663" d="M 0 0 
L -3.5 0 
" style="stroke: #ffffff; stroke-width: 0.8"/>
      </defs>
      <g>
       <use xlink:href="#m5e07181663" x="52.100781" y="343.78552" style="fill: #ffffff; stroke: #ffffff; stroke-width: 0.8"/>
      </g>
     </g>
     <g id="text_4">
      <!-- $\mathdefault{10^{-1}}$ -->
      <g style="fill: #ffffff" transform="translate(21.600781 348.43552)">
       <text>
        <tspan x="0" y="-0.762187" style="font-size: 10px; font-family: 'DejaVu Sans'; fill: #ffffff">1</tspan>
        <tspan x="6.362305" y="-0.762187" style="font-size: 10px; font-family: 'DejaVu Sans'; fill: #ffffff">0</tspan>
        <tspan x="12.820312" y="-4.892187" style="font-size: 7px; font-family: 'DejaVu Sans'; fill: #ffffff">−</tspan>
        <tspan x="18.685547" y="-4.892187" style="font-size: 7px; font-family: 'DejaVu Sans'; fill: #ffffff">1</tspan>
       </text>
      </g>
     </g>
    </g>
    <g id="ytick_2">
     <g id="line2d_39">
      <path d="M 52.100781 206.895781 
L 705.898438 206.895781 
" clip-path="url(#p9adcb59786)" style="fill: none; stroke-dasharray: 2.96,1.28; stroke-dashoffset: 0; stroke: #555555; stroke-opacity: 0.5; stroke-width: 0.8"/>
     </g>
     <g id="line2d_40">
      <g>
       <use xlink:href="#m5e07181663" x="52.100781" y="206.895781" style="fill: #ffffff; stroke: #ffffff; stroke-width: 0.8"/>
      </g>
     </g>
     <g id="text_5">
      <!-- $\mathdefault{10^{0}}$ -->
      <g style="fill: #ffffff" transform="translate(27.500781 211.595781)">
       <text>
        <tspan x="0" y="-0.674688" style="font-size: 10px; font-family: 'DejaVu Sans'; fill: #ffffff">1</tspan>
        <tspan x="6.362305" y="-0.674688" style="font-size: 10px; font-family: 'DejaVu Sans'; fill: #ffffff">0</tspan>
        <tspan x="12.820312" y="-4.804688" style="font-size: 7px; font-family: 'DejaVu Sans'; fill: #ffffff">0</tspan>
       </text>
      </g>
     </g>
    </g>
    <g id="ytick_3">
     <g id="line2d_41">
      <path d="M 52.100781 70.006042 
L 705.898438 70.006042 
" clip-path="url(#p9adcb59786)" style="fill: none; stroke-dasharray: 2.96,1.28; stroke-dashoffset: 0; stroke: #555555; stroke-opacity: 0.5; stroke-width: 0.8"/>
     </g>
     <g id="line2d_42">
      <g>
       <use xlink:href="#m5e07181663" x="52.100781" y="70.006042" style="fill: #ffffff; stroke: #ffffff; stroke-width: 0.8"/>
      </g>
     </g>
     <g id="text_6">
      <!-- $\mathdefault{10^{1}}$ -->
      <g style="fill: #ffffff" transform="translate(27.500781 74.656042)">
       <text>
        <tspan x="0" y="-0.762187" style="font-size: 10px; font-family: 'DejaVu Sans'; fill: #ffffff">1</tspan>
        <tspan x="6.362305" y="-0.762187" style="font-size: 10px; font-family: 'DejaVu Sans'; fill: #ffffff">0</tspan>
        <tspan x="12.820312" y="-4.892187" style="font-size: 7px; font-family: 'DejaVu Sans'; fill: #ffffff">1</tspan>
       </text>
      </g>
     </g>
    </g>
    <g id="ytick_4">
     <g id="line2d_43">
      <path d="M 52.100781 384.993437 
L 705.898438 384.993437 
" clip-path="url(#p9adcb59786)" style="fill: none; stroke-dasharray: 2.96,1.28; stroke-dashoffset: 0; stroke: #555555; stroke-opacity: 0.5; stroke-width: 0.8"/>
     </g>
     <g id="line2d_44">
      <defs>
       <path id="maf9657be6c" d="M 0 0 
L -2 0 
" style="stroke: #ffffff; stroke-width: 0.6"/>
      </defs>
      <g>
       <use xlink:href="#maf9657be6c" x="52.100781" y="384.993437" style="fill: #ffffff; stroke: #ffffff; stroke-width: 0.6"/>
      </g>
     </g>
    </g>
    <g id="ytick_5">
     <g id="line2d_45">
      <path d="M 52.100781 374.154337 
L 705.898438 374.154337 
" clip-path="url(#p9adcb59786)" style="fill: none; stroke-dasharray: 2.96,1.28; stroke-dashoffset: 0; stroke: #555555; stroke-opacity: 0.5; stroke-width: 0.8"/>
     </g>
     <g id="line2d_46">
      <g>
       <use xlink:href="#maf9657be6c" x="52.100781" y="374.154337" style="fill: #ffffff; stroke: #ffffff; stroke-width: 0.6"/>
      </g>
     </g>
    </g>
    <g id="ytick_6">
     <g id="line2d_47">
      <path d="M 52.100781 364.990009 
L 705.898438 364.990009 
" clip-path="url(#p9adcb59786)" style="fill: none; stroke-dasharray: 2.96,1.28; stroke-dashoffset: 0; stroke: #555555; stroke-opacity: 0.5; stroke-width: 0.8"/>
     </g>
     <g id="line2d_48">
      <g>
       <use xlink:href="#maf9657be6c" x="52.100781" y="364.990009" style="fill: #ffffff; stroke: #ffffff; stroke-width: 0.6"/>
      </g>
     </g>
    </g>
    <g id="ytick_7">
     <g id="line2d_49">
      <path d="M 52.100781 357.051506 
L 705.898438 357.051506 
" clip-path="url(#p9adcb59786)" style="fill: none; stroke-dasharray: 2.96,1.28; stroke-dashoffset: 0; stroke: #555555; stroke-opacity: 0.5; stroke-width: 0.8"/>
     </g>
     <g id="line2d_50">
      <g>
       <use xlink:href="#maf9657be6c" x="52.100781" y="357.051506" style="fill: #ffffff; stroke: #ffffff; stroke-width: 0.6"/>
      </g>
     </g>
    </g>
    <g id="ytick_8">
     <g id="line2d_51">
      <path d="M 52.100781 350.049251 
L 705.898438 350.049251 
" clip-path="url(#p9adcb59786)" style="fill: none; stroke-dasharray: 2.96,1.28; stroke-dashoffset: 0; stroke: #555555; stroke-opacity: 0.5; stroke-width: 0.8"/>
     </g>
     <g id="line2d_52">
      <g>
       <use xlink:href="#maf9657be6c" x="52.100781" y="350.049251" style="fill: #ffffff; stroke: #ffffff; stroke-width: 0.6"/>
      </g>
     </g>
    </g>
    <g id="ytick_9">
     <g id="line2d_53">
      <path d="M 52.100781 302.577603 
L 705.898438 302.577603 
" clip-path="url(#p9adcb59786)" style="fill: none; stroke-dasharray: 2.96,1.28; stroke-dashoffset: 0; stroke: #555555; stroke-opacity: 0.5; stroke-width: 0.8"/>
     </g>
     <g id="line2d_54">
      <g>
       <use xlink:href="#maf9657be6c" x="52.100781" y="302.577603" style="fill: #ffffff; stroke: #ffffff; stroke-width: 0.6"/>
      </g>
     </g>
    </g>
    <g id="ytick_10">
     <g id="line2d_55">
      <path d="M 52.100781 278.472516 
L 705.898438 278.472516 
" clip-path="url(#p9adcb59786)" style="fill: none; stroke-dasharray: 2.96,1.28; stroke-dashoffset: 0; stroke: #555555; stroke-opacity: 0.5; stroke-width: 0.8"/>
     </g>
     <g id="line2d_56">
      <g>
       <use xlink:href="#maf9657be6c" x="52.100781" y="278.472516" style="fill: #ffffff; stroke: #ffffff; stroke-width: 0.6"/>
      </g>
     </g>
    </g>
    <g id="ytick_11">
     <g id="line2d_57">
      <path d="M 52.100781 261.369685 
L 705.898438 261.369685 
" clip-path="url(#p9adcb59786)" style="fill: none; stroke-dasharray: 2.96,1.28; stroke-dashoffset: 0; stroke: #555555; stroke-opacity: 0.5; stroke-width: 0.8"/>
     </g>
     <g id="line2d_58">
      <g>
       <use xlink:href="#maf9657be6c" x="52.100781" y="261.369685" style="fill: #ffffff; stroke: #ffffff; stroke-width: 0.6"/>
      </g>
     </g>
    </g>
    <g id="ytick_12">
     <g id="line2d_59">
      <path d="M 52.100781 248.103699 
L 705.898438 248.103699 
" clip-path="url(#p9adcb59786)" style="fill: none; stroke-dasharray: 2.96,1.28; stroke-dashoffset: 0; stroke: #555555; stroke-opacity: 0.5; stroke-width: 0.8"/>
     </g>
     <g id="line2d_60">
      <g>
       <use xlink:href="#maf9657be6c" x="52.100781" y="248.103699" style="fill: #ffffff; stroke: #ffffff; stroke-width: 0.6"/>
      </g>
     </g>
    </g>
    <g id="ytick_13">
     <g id="line2d_61">
      <path d="M 52.100781 237.264599 
L 705.898438 237.264599 
" clip-path="url(#p9adcb59786)" style="fill: none; stroke-dasharray: 2.96,1.28; stroke-dashoffset: 0; stroke: #555555; stroke-opacity: 0.5; stroke-width: 0.8"/>
     </g>
     <g id="line2d_62">
      <g>
       <use xlink:href="#maf9657be6c" x="52.100781" y="237.264599" style="fill: #ffffff; stroke: #ffffff; stroke-width: 0.6"/>
      </g>
     </g>
    </g>
    <g id="ytick_14">
     <g id="line2d_63">
      <path d="M 52.100781 228.10027 
L 705.898438 228.10027 
" clip-path="url(#p9adcb59786)" style="fill: none; stroke-dasharray: 2.96,1.28; stroke-dashoffset: 0; stroke: #555555; stroke-opacity: 0.5; stroke-width: 0.8"/>
     </g>
     <g id="line2d_64">
      <g>
       <use xlink:href="#maf9657be6c" x="52.100781" y="228.10027" style="fill: #ffffff; stroke: #ffffff; stroke-width: 0.6"/>
      </g>
     </g>
    </g>
    <g id="ytick_15">
     <g id="line2d_65">
      <path d="M 52.100781 220.161768 
L 705.898438 220.161768 
" clip-path="url(#p9adcb59786)" style="fill: none; stroke-dasharray: 2.96,1.28; stroke-dashoffset: 0; stroke: #555555; stroke-opacity: 0.5; stroke-width: 0.8"/>
     </g>
     <g id="line2d_66">
      <g>
       <use xlink:href="#maf9657be6c" x="52.100781" y="220.161768" style="fill: #ffffff; stroke: #ffffff; stroke-width: 0.6"/>
      </g>
     </g>
    </g>
    <g id="ytick_16">
     <g id="line2d_67">
      <path d="M 52.100781 213.159512 
L 705.898438 213.159512 
" clip-path="url(#p9adcb59786)" style="fill: none; stroke-dasharray: 2.96,1.28; stroke-dashoffset: 0; stroke: #555555; stroke-opacity: 0.5; stroke-width: 0.8"/>
     </g>
     <g id="line2d_68">
      <g>
       <use xlink:href="#maf9657be6c" x="52.100781" y="213.159512" style="fill: #ffffff; stroke: #ffffff; stroke-width: 0.6"/>
      </g>
     </g>
    </g>
    <g id="ytick_17">
     <g id="line2d_69">
      <path d="M 52.100781 165.687864 
L 705.898438 165.687864 
" clip-path="url(#p9adcb59786)" style="fill: none; stroke-dasharray: 2.96,1.28; stroke-dashoffset: 0; stroke: #555555; stroke-opacity: 0.5; stroke-width: 0.8"/>
     </g>
     <g id="line2d_70">
      <g>
       <use xlink:href="#maf9657be6c" x="52.100781" y="165.687864" style="fill: #ffffff; stroke: #ffffff; stroke-width: 0.6"/>
      </g>
     </g>
    </g>
    <g id="ytick_18">
     <g id="line2d_71">
      <path d="M 52.100781 141.582777 
L 705.898438 141.582777 
" clip-path="url(#p9adcb59786)" style="fill: none; stroke-dasharray: 2.96,1.28; stroke-dashoffset: 0; stroke: #555555; stroke-opacity: 0.5; stroke-width: 0.8"/>
     </g>
     <g id="line2d_72">
      <g>
       <use xlink:href="#maf9657be6c" x="52.100781" y="141.582777" style="fill: #ffffff; stroke: #ffffff; stroke-width: 0.6"/>
      </g>
     </g>
    </g>
    <g id="ytick_19">
     <g id="line2d_73">
      <path d="M 52.100781 124.479946 
L 705.898438 124.479946 
" clip-path="url(#p9adcb59786)" style="fill: none; stroke-dasharray: 2.96,1.28; stroke-dashoffset: 0; stroke: #555555; stroke-opacity: 0.5; stroke-width: 0.8"/>
     </g>
     <g id="line2d_74">
      <g>
       <use xlink:href="#maf9657be6c" x="52.100781" y="124.479946" style="fill: #ffffff; stroke: #ffffff; stroke-width: 0.6"/>
      </g>
     </g>
    </g>
    <g id="ytick_20">
     <g id="line2d_75">
      <path d="M 52.100781 111.21396 
L 705.898438 111.21396 
" clip-path="url(#p9adcb59786)" style="fill: none; stroke-dasharray: 2.96,1.28; stroke-dashoffset: 0; stroke: #555555; stroke-opacity: 0.5; stroke-width: 0.8"/>
     </g>
     <g id="line2d_76">
      <g>
       <use xlink:href="#maf9657be6c" x="52.100781" y="111.21396" style="fill: #ffffff; stroke: #ffffff; stroke-width: 0.6"/>
      </g>
     </g>
    </g>
    <g id="ytick_21">
     <g id="line2d_77">
      <path d="M 52.100781 100.37486 
L 705.898438 100.37486 
" clip-path="url(#p9adcb59786)" style="fill: none; stroke-dasharray: 2.96,1.28; stroke-dashoffset: 0; stroke: #555555; stroke-opacity: 0.5; stroke-width: 0.8"/>
     </g>
     <g id="line2d_78">
      <g>
       <use xlink:href="#maf9657be6c" x="52.100781" y="100.37486" style="fill: #ffffff; stroke: #ffffff; stroke-width: 0.6"/>
      </g>
     </g>
    </g>
    <g id="ytick_22">
     <g id="line2d_79">
      <path d="M 52.100781 91.210531 
L 705.898438 91.210531 
" clip-path="url(#p9adcb59786)" style="fill: none; stroke-dasharray: 2.96,1.28; stroke-dashoffset: 0; stroke: #555555; stroke-opacity: 0.5; stroke-width: 0.8"/>
     </g>
     <g id="line2d_80">
      <g>
       <use xlink:href="#maf9657be6c" x="52.100781" y="91.210531" style="fill: #ffffff; stroke: #ffffff; stroke-width: 0.6"/>
      </g>
     </g>
    </g>
    <g id="ytick_23">
     <g id="line2d_81">
      <path d="M 52.100781 83.272029 
L 705.898438 83.272029 
" clip-path="url(#p9adcb59786)" style="fill: none; stroke-dasharray: 2.96,1.28; stroke-dashoffset: 0; stroke: #555555; stroke-opacity: 0.5; stroke-width: 0.8"/>
     </g>
     <g id="line2d_82">
      <g>
       <use xlink:href="#maf9657be6c" x="52.100781" y="83.272029" style="fill: #ffffff; stroke: #ffffff; stroke-width: 0.6"/>
      </g>
     </g>
    </g>
    <g id="ytick_24">
     <g id="line2d_83">
      <path d="M 52.100781 76.269773 
L 705.898438 76.269773 
" clip-path="url(#p9adcb59786)" style="fill: none; stroke-dasharray: 2.96,1.28; stroke-dashoffset: 0; stroke: #555555; stroke-opacity: 0.5; stroke-width: 0.8"/>
     </g>
     <g id="line2d_84">
      <g>
       <use xlink:href="#maf9657be6c" x="52.100781" y="76.269773" style="fill: #ffffff; stroke: #ffffff; stroke-width: 0.6"/>
      </g>
     </g>
    </g>
    <g id="ytick_25">
     <g id="line2d_85">
      <path d="M 52.100781 28.798125 
L 705.898438 28.798125 
" clip-path="url(#p9adcb59786)" style="fill: none; stroke-dasharray: 2.96,1.28; stroke-dashoffset: 0; stroke: #555555; stroke-opacity: 0.5; stroke-width: 0.8"/>
     </g>
     <g id="line2d_86">
      <g>
       <use xlink:href="#maf9657be6c" x="52.100781" y="28.798125" style="fill: #ffffff; stroke: #ffffff; stroke-width: 0.6"/>
      </g>
     </g>
    </g>
    <g id="text_7">
     <text style="font-size: 10px; font-family: 'DejaVu Sans', 'Bitstream Vera Sans', 'Computer Modern Sans Serif', 'Lucida Grande', 'Verdana', 'Geneva', 'Lucid', 'Arial', 'Helvetica', 'Avant Garde', sans-serif; text-anchor: middle; fill: #ffffff" x="15.198438" y="206.895781" transform="rotate(-90 15.198438 206.895781)">Distorsión respecto al fundamental [%]</text>
    </g>
   </g>
   <g id="line2d_87">
    <path d="M 74.960469 101.013426 
L 97.178153 100.960542 
L 116.423986 101.111353 
L 133.400014 100.944505 
L 148.585588 101.055873 
L 162.322611 100.915363 
L 174.863531 101.003712 
L 186.400058 100.889543 
L 197.081214 100.963324 
L 207.025133 100.868247 
L 216.327048 100.93235 
L 225.064853 100.850825 
L 233.303075 100.908227 
L 241.095765 100.836511 
L 248.48865 100.889117 
L 268.63249 100.814891 
L 286.30312 100.8512 
L 302.041976 100.794755 
L 316.230109 100.83127 
L 329.145878 100.785265 
L 340.998827 100.823278 
L 351.950649 100.784873 
L 362.128735 100.825485 
L 371.635234 100.793728 
L 380.553314 100.838041 
L 388.951591 100.812918 
L 396.887338 100.862092 
L 404.408852 100.844127 
L 411.557242 100.899406 
L 418.367784 100.889465 
L 424.870977 100.952171 
L 431.093367 100.951356 
L 437.058203 101.022886 
L 442.785963 101.032464 
L 448.294773 101.114268 
L 453.600758 101.135618 
L 458.718325 101.229177 
L 463.660397 101.263749 
L 468.438613 101.370551 
L 473.063491 101.419818 
L 477.544566 101.541328 
L 481.890513 101.606757 
L 486.109243 101.744388 
L 490.207993 101.827396 
L 494.193399 101.982487 
L 498.07156 102.084417 
L 501.848099 102.258206 
L 505.528205 102.380298 
L 511.460304 102.688402 
L 514.905798 102.839102 
L 520.471341 103.194578 
L 523.710346 103.375573 
L 528.952002 103.780845 
L 532.007869 103.993507 
L 536.961265 104.450509 
L 539.853596 104.695904 
L 544.548788 105.206106 
L 547.294198 105.485007 
L 551.756773 106.049442 
L 554.369466 106.362336 
L 558.621387 106.981597 
L 561.113604 107.328683 
L 565.173863 108.002907 
L 568.341675 108.546881 
L 571.441357 109.112901 
L 574.475777 109.700771 
L 577.447628 110.310238 
L 580.359437 110.940988 
L 583.918375 111.735833 
L 588.757715 112.956903 
L 592.117532 113.827177 
L 596.693461 115.147357 
L 599.87526 116.086057 
L 605.431267 117.899584 
L 608.427833 118.907092 
L 613.669489 120.830707 
L 616.501204 121.893433 
L 621.462179 123.902029 
L 624.146235 125.005493 
L 628.855064 127.073153 
L 631.406097 128.20289 
L 634.903349 129.84054 
L 637.350431 130.981833 
L 640.708012 132.628476 
L 643.059282 133.772018 
L 646.287921 135.415389 
L 648.998904 136.802357 
L 652.098586 138.392408 
L 655.133006 140.006899 
L 658.104857 141.56805 
L 661.016666 143.148013 
L 663.870812 144.669875 
L 666.669534 146.20612 
L 669.414943 147.680504 
L 672.109034 149.165942 
L 674.753689 150.586666 
L 677.35069 152.016092 
L 679.901724 153.378756 
L 682.40839 154.748627 
L 684.872204 156.05038 
L 687.294608 157.358584 
L 689.676971 158.597907 
L 692.020594 159.843551 
L 694.326718 161.02004 
L 696.596523 162.203247 
L 698.831136 163.317429 
L 701.031631 164.43916 
L 703.199035 165.492314 
L 705.334329 166.554201 
L 705.636804 166.681412 
L 705.636804 166.681412 
" clip-path="url(#p9adcb59786)" style="fill: none; stroke: #1f77b4; stroke-width: 2; stroke-linecap: square"/>
   </g>
   <g id="line2d_88">
    <path d="M 74.960469 104.01886 
L 97.178153 104.243897 
L 280.650252 103.967169 
L 316.230109 103.957329 
L 344.742665 103.930725 
L 374.669654 103.945409 
L 399.438372 103.952873 
L 424.870977 104.021182 
L 442.785963 104.087251 
L 498.07156 104.849113 
L 525.829938 105.961946 
L 545.469748 107.40614 
L 561.113604 109.177 
L 573.72314 111.151035 
L 585.317703 113.500321 
L 596.693461 116.392518 
L 601.12857 117.672346 
L 611.943365 121.230342 
L 623.613408 125.732284 
L 627.302485 127.276355 
L 641.181345 133.645495 
L 662.246798 144.480756 
L 667.459287 147.29303 
L 672.489826 150.000841 
L 677.35069 152.635774 
L 682.052952 155.150717 
L 685.915367 157.215888 
L 691.020847 159.885798 
L 694.653172 161.769867 
L 700.092673 164.506993 
L 703.506021 166.198282 
L 705.636804 167.221118 
L 705.636804 167.221118 
" clip-path="url(#p9adcb59786)" style="fill: none; stroke-dasharray: 5.55,2.4; stroke-dashoffset: 0; stroke: #d62728; stroke-width: 1.5"/>
   </g>
   <g id="line2d_89">
    <path d="M 74.960469 170.621049 
L 97.178153 168.075664 
L 116.423986 169.904232 
L 133.400014 168.513435 
L 148.585588 169.646141 
L 162.322611 168.705212 
L 174.863531 169.519644 
L 186.400058 168.808312 
L 197.081214 169.44769 
L 207.025133 168.870884 
L 216.327048 169.402982 
L 225.064853 168.912254 
L 233.303075 169.373665 
L 241.095765 168.941552 
L 248.48865 169.353898 
L 255.520759 168.963619 
L 262.225673 169.340551 
L 268.63249 168.981263 
L 274.766592 169.331856 
L 280.650252 168.996236 
L 286.30312 169.326779 
L 291.74262 169.009715 
L 296.984276 169.324718 
L 302.041976 169.022536 
L 306.928195 169.325333 
L 311.65418 169.035336 
L 316.230109 169.328456 
L 320.665218 169.048626 
L 324.967915 169.334032 
L 329.145878 169.062839 
L 333.206137 169.342088 
L 337.155142 169.078357 
L 340.998827 169.352709 
L 344.742665 169.095535 
L 348.391712 169.366027 
L 351.950649 169.114707 
L 355.423821 169.38221 
L 358.815263 169.136198 
L 362.128735 169.401455 
L 365.36774 169.160327 
L 368.535552 169.423981 
L 371.635234 169.187415 
L 374.669654 169.450033 
L 377.641505 169.217784 
L 380.553314 169.47987 
L 383.40746 169.251758 
L 386.206182 169.513769 
L 388.951591 169.289668 
L 391.645682 169.552024 
L 394.290337 169.331852 
L 396.887338 169.594939 
L 399.438372 169.378651 
L 401.945038 169.642831 
L 404.408852 169.430415 
L 406.831256 169.696031 
L 409.213619 169.4875 
L 411.557242 169.754875 
L 413.863366 169.550268 
L 416.133171 169.819713 
L 418.367784 169.619085 
L 420.568279 169.890901 
L 422.735683 169.694325 
L 424.870977 169.9688 
L 426.975096 169.776364 
L 429.04894 170.05378 
L 431.093367 169.865584 
L 433.109199 170.146215 
L 435.097226 169.96237 
L 437.058203 170.246482 
L 438.992859 170.067106 
L 440.901889 170.35496 
L 442.785963 170.18018 
L 444.645726 170.472032 
L 446.481798 170.301979 
L 448.294773 170.598078 
L 450.085227 170.432889 
L 451.853711 170.733478 
L 453.600758 170.573294 
L 455.326883 170.878611 
L 457.032579 170.723571 
L 458.718325 171.033849 
L 460.384582 170.884096 
L 462.031796 171.19956 
L 463.660397 171.055237 
L 465.270801 171.376105 
L 466.86341 171.237352 
L 468.438613 171.563837 
L 469.996787 171.430792 
L 471.538295 171.763099 
L 473.063491 171.635896 
L 474.572716 171.974221 
L 476.066301 171.852992 
L 477.544566 172.197522 
L 479.007824 172.082391 
L 480.456376 172.433306 
L 481.890513 172.324392 
L 483.310521 172.681861 
L 484.716675 172.579275 
L 486.109243 172.943457 
L 487.488485 172.847303 
L 488.854653 173.218347 
L 490.207993 173.12872 
L 491.548744 173.506762 
L 492.877137 173.423748 
L 494.193399 173.808913 
L 495.497748 173.732587 
L 496.7904 174.124989 
L 498.07156 174.055416 
L 499.341433 174.455156 
L 500.600216 174.392389 
L 501.848099 174.799554 
L 503.085271 174.743636 
L 504.311914 175.1583 
L 505.528205 175.10926 
L 506.734318 175.531484 
L 507.930422 175.48934 
L 509.116681 175.919171 
L 510.293256 175.883927 
L 511.460304 176.321399 
L 512.617978 176.293047 
L 513.766427 176.738178 
L 514.905798 176.716697 
L 516.036233 177.169494 
L 517.15787 177.154848 
L 518.270846 177.615303 
L 519.375293 177.607447 
L 520.471341 178.075537 
L 521.559117 178.07441 
L 522.638745 178.5501 
L 523.710346 178.555629 
L 524.774038 179.038872 
L 525.829938 179.050972 
L 526.878158 179.541706 
L 527.91881 179.560281 
L 528.952002 180.058433 
L 529.97784 180.083374 
L 530.996428 180.588858 
L 532.007869 180.620046 
L 533.012261 181.132766 
L 534.009702 181.17007 
L 535.000287 181.68992 
L 535.984111 181.733199 
L 536.961265 182.260062 
L 537.931839 182.309166 
L 538.89592 182.842915 
L 539.853596 182.897687 
L 540.80495 183.438186 
L 541.750066 183.498458 
L 542.689025 184.045565 
L 543.621906 184.111163 
L 544.548788 184.664726 
L 545.469748 184.735469 
L 546.384859 185.295331 
L 547.294198 185.371033 
L 548.197835 185.937031 
L 549.095842 186.017498 
L 549.988288 186.589464 
L 550.875243 186.6745 
L 551.756773 187.252262 
L 552.632943 187.341665 
L 553.50382 187.925045 
L 554.369466 188.018613 
L 555.229944 188.607432 
L 556.085316 188.704956 
L 556.935641 189.299033 
L 557.780978 189.400306 
L 558.621387 189.999456 
L 559.456923 190.104268 
L 560.287644 190.708308 
L 561.113604 190.816447 
L 561.934858 191.425192 
L 562.751459 191.536448 
L 563.563459 192.149713 
L 564.37091 192.263876 
L 565.173863 192.881477 
L 565.972367 192.998337 
L 566.766472 193.620091 
L 567.556225 193.73944 
L 568.341675 194.365166 
L 569.122867 194.486798 
L 569.899849 195.116316 
L 570.672664 195.240028 
L 571.441357 195.873161 
L 572.205972 195.99875 
L 572.966553 196.635324 
L 573.72314 196.762593 
L 574.475777 197.402438 
L 575.224505 197.53119 
L 575.969362 198.174138 
L 576.71039 198.304182 
L 577.447628 198.950068 
L 578.181114 199.081217 
L 578.910886 199.729882 
L 579.636981 199.861951 
L 580.359437 200.513239 
L 581.07829 200.646048 
L 581.793575 201.299806 
L 582.505328 201.433179 
L 583.213583 202.089261 
L 583.918375 202.223027 
L 584.619737 202.881289 
L 585.317703 203.01528 
L 586.012305 203.675585 
L 586.703576 203.809638 
L 587.391547 204.471851 
L 588.076249 204.60581 
L 588.757715 205.269802 
L 589.435973 205.403511 
L 590.111055 206.069159 
L 590.782989 206.20247 
L 591.451805 206.869652 
L 592.117532 207.002422 
L 592.780199 207.671024 
L 593.439832 207.803111 
L 594.09646 208.473023 
L 594.750111 208.604292 
L 595.40081 209.275408 
L 596.048585 209.405728 
L 596.693461 210.077946 
L 597.335465 210.207192 
L 597.974622 210.880416 
L 598.610957 211.008463 
L 599.244495 211.682601 
L 599.87526 211.809333 
L 600.503277 212.484296 
L 601.12857 212.609598 
L 601.751161 213.285303 
L 602.371074 213.409066 
L 602.988333 214.085433 
L 603.602959 214.20755 
L 604.214976 214.884505 
L 604.824404 215.004874 
L 605.431267 215.682344 
L 606.035585 215.800868 
L 606.63738 216.478785 
L 607.236672 216.595368 
L 607.833483 217.27367 
L 608.427833 217.388221 
L 609.019742 218.066846 
L 609.60923 218.179279 
L 610.196317 218.858171 
L 610.781023 218.9684 
L 611.363366 219.647506 
L 611.943365 219.75545 
L 612.52104 220.43472 
L 613.096408 220.540301 
L 613.669489 221.219689 
L 614.2403 221.322832 
L 614.80886 222.002295 
L 615.375185 222.102926 
L 615.939294 222.782423 
L 616.501204 222.880475 
L 617.060932 223.559969 
L 617.618494 223.655374 
L 618.173907 224.33483 
L 618.727189 224.427523 
L 619.278355 225.10691 
L 619.827421 225.19683 
L 620.374403 225.876117 
L 620.919317 225.963205 
L 621.462179 226.642367 
L 622.003004 226.726565 
L 622.541807 227.405578 
L 623.078603 227.48683 
L 623.613408 228.165671 
L 624.146235 228.243925 
L 624.6771 228.922576 
L 625.206017 228.997781 
L 625.733 229.676223 
L 626.258063 229.748329 
L 626.78122 230.426549 
L 627.302485 230.495509 
L 627.821872 231.173491 
L 628.339393 231.23926 
L 628.855064 231.916995 
L 629.368895 231.979527 
L 629.880902 232.657005 
L 630.391096 232.716259 
L 630.89949 233.393473 
L 631.406097 233.449407 
L 631.91093 234.12635 
L 632.414001 234.178926 
L 632.915322 234.855595 
L 633.414906 234.904774 
L 633.912763 235.581165 
L 634.408907 235.62691 
L 634.903349 236.303024 
L 635.3961 236.345298 
L 635.887173 237.021135 
L 636.376578 237.059905 
L 636.864327 237.735467 
L 637.350431 237.770698 
L 637.834901 238.445989 
L 638.317747 238.47765 
L 638.798982 239.152673 
L 639.278615 239.180732 
L 639.756658 239.855495 
L 640.23312 239.879921 
L 640.708012 240.554431 
L 641.181345 240.575194 
L 641.653128 241.249459 
L 642.123372 241.266531 
L 642.592087 241.940561 
L 643.059282 241.953914 
L 643.524968 242.627719 
L 643.989154 242.637325 
L 644.45185 243.310919 
L 644.913065 243.316752 
L 645.372809 243.990146 
L 645.831091 243.992179 
L 646.287921 244.665389 
L 646.743307 244.663597 
L 647.19726 245.336637 
L 647.649786 245.330996 
L 648.100897 246.003881 
L 648.5506 245.994366 
L 648.998904 246.667115 
L 649.445818 246.653703 
L 649.89135 247.326331 
L 650.33551 247.308999 
L 650.778305 247.981527 
L 651.219743 247.960251 
L 651.659834 248.632698 
L 652.098586 248.607456 
L 652.536005 249.279843 
L 652.972101 249.250613 
L 653.406882 249.92296 
L 653.840355 249.889721 
L 654.272528 250.56205 
L 654.703409 250.524781 
L 655.133006 251.197116 
L 655.561326 251.155794 
L 655.988377 251.828158 
L 656.414167 251.782764 
L 656.838702 252.455181 
L 657.261991 252.405695 
L 657.68404 253.07819 
L 658.104857 253.02459 
L 658.524448 253.697189 
L 658.942822 253.639457 
L 659.359985 254.312185 
L 659.775944 254.250301 
L 660.190706 254.923186 
L 660.604277 254.857129 
L 661.016666 255.530199 
L 661.427878 255.459951 
L 661.83792 256.133234 
L 662.246798 256.058775 
L 662.65452 256.7323 
L 663.061092 256.653611 
L 663.466521 257.327408 
L 663.870812 257.244469 
L 664.273972 257.918568 
L 664.676007 257.831361 
L 665.076925 258.505793 
L 665.47673 258.414299 
L 665.875429 259.089095 
L 666.273028 258.993295 
L 666.669534 259.668487 
L 667.064951 259.568362 
L 667.459287 260.243984 
L 667.852547 260.139515 
L 668.244737 260.815599 
L 668.635862 260.706768 
L 669.025929 261.383347 
L 669.414943 261.270135 
L 669.80291 261.947245 
L 670.189836 261.829633 
L 670.575725 262.507308 
L 670.960584 262.385277 
L 671.344419 263.063553 
L 671.727233 262.937083 
L 672.109034 263.615996 
L 672.489826 263.48507 
L 672.869614 264.164657 
L 673.248405 264.029255 
L 673.626202 264.709552 
L 674.003012 264.569655 
L 674.378839 265.250701 
L 674.753689 265.106289 
L 675.127566 265.788122 
L 675.500476 265.639176 
L 675.872424 266.321835 
L 676.243414 266.168336 
L 676.613452 266.85186 
L 676.982542 266.693788 
L 677.35069 267.378217 
L 677.717899 267.215552 
L 678.084176 267.900927 
L 678.449523 267.733649 
L 678.813948 268.420011 
L 679.177453 268.2481 
L 679.540043 268.93549 
L 679.901724 268.758926 
L 680.262499 269.447386 
L 680.622373 269.266149 
L 680.981352 269.955722 
L 681.339438 269.76979 
L 681.696637 270.460519 
L 682.052952 270.269872 
L 682.40839 270.961802 
L 682.762952 270.766418 
L 683.116645 271.459592 
L 683.469472 271.259451 
L 683.821437 271.953914 
L 684.172544 271.748993 
L 684.522799 272.44479 
L 684.872204 272.235068 
L 685.220765 272.932246 
L 685.568484 272.7177 
L 685.915367 273.416305 
L 686.261416 273.196913 
L 686.606637 273.896993 
L 686.951033 273.672731 
L 687.294608 274.374333 
L 687.637366 274.145179 
L 687.979311 274.848351 
L 688.320447 274.614282 
L 688.660776 275.319073 
L 689.000305 275.080065 
L 689.339035 275.786524 
L 689.676971 275.542552 
L 690.014116 276.250729 
L 690.350475 276.001769 
L 690.686051 276.711715 
L 691.020847 276.457743 
L 691.354867 277.169508 
L 691.688115 276.910498 
L 692.020594 277.624135 
L 692.352308 277.360061 
L 692.68326 278.075622 
L 693.013454 277.806458 
L 693.342894 278.523996 
L 693.671582 278.249716 
L 693.999522 278.969283 
L 694.326718 278.689861 
L 694.653172 279.411512 
L 694.978889 279.126919 
L 695.303872 279.850709 
L 695.628123 279.560918 
L 695.951646 280.286902 
L 696.274445 279.991885 
L 696.596523 280.720118 
L 696.917882 280.419846 
L 697.238527 281.150386 
L 697.55846 280.84483 
L 697.877684 281.577733 
L 698.196203 281.266863 
L 698.514019 282.002187 
L 698.831136 281.685973 
L 699.147557 282.423776 
L 699.463285 282.102188 
L 699.778322 282.84253 
L 700.092673 282.515535 
L 700.406339 283.258475 
L 700.719324 282.926042 
L 701.031631 283.671641 
L 701.343263 283.333738 
L 701.654223 284.082056 
L 701.964513 283.738649 
L 702.274136 284.489749 
L 702.583096 284.140805 
L 702.891395 284.894748 
L 703.199035 284.540232 
L 703.506021 285.297083 
L 703.812354 284.93696 
L 704.118037 285.696781 
L 704.423074 285.331017 
L 704.727466 286.093874 
L 705.031217 285.722431 
L 705.334329 286.488388 
L 705.636804 286.11123 
L 705.636804 286.11123 
" clip-path="url(#p9adcb59786)" style="fill: none; stroke-dasharray: 5.55,2.4; stroke-dashoffset: 0; stroke: #2ca02c; stroke-width: 1.5"/>
   </g>
   <g id="line2d_90">
    <path d="M 52.100781 103.838973 
L 705.898438 103.838973 
" clip-path="url(#p9adcb59786)" style="fill: none; stroke-dasharray: 1.2,1.98; stroke-dashoffset: 0; stroke: #d62728; stroke-opacity: 0.8; stroke-width: 1.2"/>
   </g>
   <g id="line2d_91">
    <path d="M 52.100781 169.151977 
L 705.898438 169.151977 
" clip-path="url(#p9adcb59786)" style="fill: none; stroke-dasharray: 1.2,1.98; stroke-dashoffset: 0; stroke: #2ca02c; stroke-opacity: 0.8; stroke-width: 1.2"/>
   </g>
   <g id="patch_3">
    <path d="M 52.100781 384.993437 
L 52.100781 28.798125 
" style="fill: none; stroke: #ffffff; stroke-width: 0.8; stroke-linejoin: miter; stroke-linecap: square"/>
   </g>
   <g id="patch_4">
    <path d="M 705.898438 384.993437 
L 705.898438 28.798125 
" style="fill: none; stroke: #ffffff; stroke-width: 0.8; stroke-linejoin: miter; stroke-linecap: square"/>
   </g>
   <g id="patch_5">
    <path d="M 52.100781 384.993437 
L 705.898438 384.993437 
" style="fill: none; stroke: #ffffff; stroke-width: 0.8; stroke-linejoin: miter; stroke-linecap: square"/>
   </g>
   <g id="patch_6">
    <path d="M 52.100781 28.798125 
L 705.898438 28.798125 
" style="fill: none; stroke: #ffffff; stroke-width: 0.8; stroke-linejoin: miter; stroke-linecap: square"/>
   </g>
   <g id="text_8">
    <text style="font-size: 8.5px; font-family: 'DejaVu Sans', 'Bitstream Vera Sans', 'Computer Modern Sans Serif', 'Lucida Grande', 'Verdana', 'Geneva', 'Lucid', 'Arial', 'Helvetica', 'Avant Garde', sans-serif; fill: #ffffff" transform="translate(489.719441 48.914463)">un solo barrido separa cada orden de distorsión;</text>
    <text style="font-size: 8.5px; font-family: 'DejaVu Sans', 'Bitstream Vera Sans', 'Computer Modern Sans Serif', 'Lucida Grande', 'Verdana', 'Geneva', 'Lucid', 'Arial', 'Helvetica', 'Avant Garde', sans-serif; fill: #ffffff" transform="translate(442.14202 59.116787)">cada uno cae donde su producto n·f cruza el corte de 3 kHz</text>
   </g>
   <g id="text_9">
    <text style="font-weight: 700; font-size: 12px; font-family: 'DejaVu Sans', 'Bitstream Vera Sans', 'Computer Modern Sans Serif', 'Lucida Grande', 'Verdana', 'Geneva', 'Lucid', 'Arial', 'Helvetica', 'Avant Garde', sans-serif; text-anchor: middle; fill: #ffffff" x="378.999609" y="16.798125" transform="rotate(-0 378.999609 16.798125)">Distorsión armónica por orden con barrido sinusoidal (Farina / Novak)</text>
   </g>
   <g id="legend_1">
    <g id="patch_7">
     <path d="M 58.400781 380.493437 
L 197.336875 380.493437 
Q 199.136875 380.493437 199.136875 378.693437 
L 199.136875 311.369922 
Q 199.136875 309.569922 197.336875 309.569922 
L 58.400781 309.569922 
Q 56.600781 309.569922 56.600781 311.369922 
L 56.600781 378.693437 
Q 56.600781 380.493437 58.400781 380.493437 
z
" style="opacity: 0.8; stroke: #cccccc; stroke-linejoin: miter"/>
    </g>
    <g id="line2d_92">
     <path d="M 60.200781 316.858516 
L 69.200781 316.858516 
L 78.200781 316.858516 
" style="fill: none; stroke: #1f77b4; stroke-width: 2; stroke-linecap: square"/>
    </g>
    <g id="text_10">
     <text style="font-size: 9px; font-family: 'DejaVu Sans', 'Bitstream Vera Sans', 'Computer Modern Sans Serif', 'Lucida Grande', 'Verdana', 'Geneva', 'Lucid', 'Arial', 'Helvetica', 'Avant Garde', sans-serif; text-anchor: start; fill: #ffffff" x="85.400781" y="320.008516" transform="rotate(-0 85.400781 320.008516)">THD(f) total</text>
    </g>
    <g id="line2d_93">
     <path d="M 60.200781 330.719219 
L 69.200781 330.719219 
L 78.200781 330.719219 
" style="fill: none; stroke-dasharray: 5.55,2.4; stroke-dashoffset: 0; stroke: #d62728; stroke-width: 1.5"/>
    </g>
    <g id="text_11">
     <text style="font-size: 9px; font-family: 'DejaVu Sans', 'Bitstream Vera Sans', 'Computer Modern Sans Serif', 'Lucida Grande', 'Verdana', 'Geneva', 'Lucid', 'Arial', 'Helvetica', 'Avant Garde', sans-serif; text-anchor: start; fill: #ffffff" x="85.400781" y="333.869219" transform="rotate(-0 85.400781 333.869219)">2º armónico d₂(f)</text>
    </g>
    <g id="line2d_94">
     <path d="M 60.200781 344.579922 
L 69.200781 344.579922 
L 78.200781 344.579922 
" style="fill: none; stroke-dasharray: 5.55,2.4; stroke-dashoffset: 0; stroke: #2ca02c; stroke-width: 1.5"/>
    </g>
    <g id="text_12">
     <text style="font-size: 9px; font-family: 'DejaVu Sans', 'Bitstream Vera Sans', 'Computer Modern Sans Serif', 'Lucida Grande', 'Verdana', 'Geneva', 'Lucid', 'Arial', 'Helvetica', 'Avant Garde', sans-serif; text-anchor: start; fill: #ffffff" x="85.400781" y="347.729922" transform="rotate(-0 85.400781 347.729922)">3er armónico d₃(f)</text>
    </g>
    <g id="line2d_95">
     <path d="M 60.200781 358.080625 
L 69.200781 358.080625 
L 78.200781 358.080625 
" style="fill: none; stroke-dasharray: 1.2,1.98; stroke-dashoffset: 0; stroke: #d62728; stroke-opacity: 0.8; stroke-width: 1.2"/>
    </g>
    <g id="text_13">
     <text style="font-size: 9px; font-family: 'DejaVu Sans', 'Bitstream Vera Sans', 'Computer Modern Sans Serif', 'Lucida Grande', 'Verdana', 'Geneva', 'Lucid', 'Arial', 'Helvetica', 'Avant Garde', sans-serif; text-anchor: start; fill: #ffffff" x="85.400781" y="361.230625" transform="rotate(-0 85.400781 361.230625)">Nivel de Chebyshev a₂/2</text>
    </g>
    <g id="line2d_96">
     <path d="M 60.200781 371.581328 
L 69.200781 371.581328 
L 78.200781 371.581328 
" style="fill: none; stroke-dasharray: 1.2,1.98; stroke-dashoffset: 0; stroke: #2ca02c; stroke-opacity: 0.8; stroke-width: 1.2"/>
    </g>
    <g id="text_14">
     <text style="font-size: 9px; font-family: 'DejaVu Sans', 'Bitstream Vera Sans', 'Computer Modern Sans Serif', 'Lucida Grande', 'Verdana', 'Geneva', 'Lucid', 'Arial', 'Helvetica', 'Avant Garde', sans-serif; text-anchor: start; fill: #ffffff" x="85.400781" y="374.731328" transform="rotate(-0 85.400781 374.731328)">Nivel de Chebyshev a₃/4</text>
    </g>
   </g>
  </g>
 </g>
 <defs>
  <clipPath id="p9adcb59786">
   <rect x="52.100781" y="28.798125" width="653.797656" height="356.195312"/>
  </clipPath>
 </defs>
</svg>
