<?xml version="1.0" encoding="utf-8" standalone="no"?>
<!DOCTYPE svg PUBLIC "-//W3C//DTD SVG 1.1//EN"
  "http://www.w3.org/Graphics/SVG/1.1/DTD/svg11.dtd">
<svg xmlns:xlink="http://www.w3.org/1999/xlink" width="772.01125pt" height="324.796562pt" viewBox="0 0 772.01125 324.796562" xmlns="http://www.w3.org/2000/svg" version="1.1">
 <metadata>
  <rdf:RDF xmlns:dc="http://purl.org/dc/elements/1.1/" xmlns:cc="http://creativecommons.org/ns#" xmlns:rdf="http://www.w3.org/1999/02/22-rdf-syntax-ns#">
   <cc:Work>
    <dc:type rdf:resource="http://purl.org/dc/dcmitype/StillImage"/>
    <dc:format>image/svg+xml</dc:format>
    <dc:creator>
     <cc:Agent>
      <dc:title>Matplotlib v3.11.1, https://matplotlib.org/</dc:title>
     </cc:Agent>
    </dc:creator>
   </cc:Work>
  </rdf:RDF>
 </metadata>
 <defs>
  <style type="text/css">*{stroke-linejoin: round; stroke-linecap: butt}</style>
 </defs>
 <g id="figure_1">
  <g id="patch_1">
   <path d="M 0 324.796562 
L 772.01125 324.796562 
L 772.01125 0 
L 0 0 
z
" style="fill: #ffffff"/>
  </g>
  <g id="axes_1">
   <g id="patch_2">
    <path d="M 38.171094 286.195781 
L 374.44875 286.195781 
L 374.44875 26.798125 
L 38.171094 26.798125 
z
" style="fill: #ffffff"/>
   </g>
   <g id="matplotlib.axis_1">
    <g id="xtick_1">
     <g id="line2d_1">
      <path d="M 38.171094 286.195781 
L 38.171094 26.798125 
" clip-path="url(#pc7a2e077d3)" style="fill: none; stroke-dasharray: 2.96,1.28; stroke-dashoffset: 0; stroke: #e0e0e0; stroke-opacity: 0.5; stroke-width: 0.8"/>
     </g>
     <g id="line2d_2">
      <defs>
       <path id="m3d27035b55" d="M 0 0 
L 0 3.5 
" style="stroke: #000000; stroke-width: 0.8"/>
      </defs>
      <g>
       <use xlink:href="#m3d27035b55" x="38.171094" y="286.195781" style="stroke: #000000; stroke-width: 0.8"/>
      </g>
     </g>
     <g id="text_1">
      <text style="font-size: 10px; font-family: sans-serif; text-anchor: middle" x="38.171094" y="300.793437" transform="rotate(-0 38.171094 300.793437)">0</text>
     </g>
    </g>
    <g id="xtick_2">
     <g id="line2d_3">
      <path d="M 91.975519 286.195781 
L 91.975519 26.798125 
" clip-path="url(#pc7a2e077d3)" style="fill: none; stroke-dasharray: 2.96,1.28; stroke-dashoffset: 0; stroke: #e0e0e0; stroke-opacity: 0.5; stroke-width: 0.8"/>
     </g>
     <g id="line2d_4">
      <g>
       <use xlink:href="#m3d27035b55" x="91.975519" y="286.195781" style="stroke: #000000; stroke-width: 0.8"/>
      </g>
     </g>
     <g id="text_2">
      <text style="font-size: 10px; font-family: sans-serif; text-anchor: middle" x="91.975519" y="300.793437" transform="rotate(-0 91.975519 300.793437)">5</text>
     </g>
    </g>
    <g id="xtick_3">
     <g id="line2d_5">
      <path d="M 145.779944 286.195781 
L 145.779944 26.798125 
" clip-path="url(#pc7a2e077d3)" style="fill: none; stroke-dasharray: 2.96,1.28; stroke-dashoffset: 0; stroke: #e0e0e0; stroke-opacity: 0.5; stroke-width: 0.8"/>
     </g>
     <g id="line2d_6">
      <g>
       <use xlink:href="#m3d27035b55" x="145.779944" y="286.195781" style="stroke: #000000; stroke-width: 0.8"/>
      </g>
     </g>
     <g id="text_3">
      <text style="font-size: 10px; font-family: sans-serif; text-anchor: middle" x="145.779944" y="300.793437" transform="rotate(-0 145.779944 300.793437)">10</text>
     </g>
    </g>
    <g id="xtick_4">
     <g id="line2d_7">
      <path d="M 199.584369 286.195781 
L 199.584369 26.798125 
" clip-path="url(#pc7a2e077d3)" style="fill: none; stroke-dasharray: 2.96,1.28; stroke-dashoffset: 0; stroke: #e0e0e0; stroke-opacity: 0.5; stroke-width: 0.8"/>
     </g>
     <g id="line2d_8">
      <g>
       <use xlink:href="#m3d27035b55" x="199.584369" y="286.195781" style="stroke: #000000; stroke-width: 0.8"/>
      </g>
     </g>
     <g id="text_4">
      <text style="font-size: 10px; font-family: sans-serif; text-anchor: middle" x="199.584369" y="300.793437" transform="rotate(-0 199.584369 300.793437)">15</text>
     </g>
    </g>
    <g id="xtick_5">
     <g id="line2d_9">
      <path d="M 253.388794 286.195781 
L 253.388794 26.798125 
" clip-path="url(#pc7a2e077d3)" style="fill: none; stroke-dasharray: 2.96,1.28; stroke-dashoffset: 0; stroke: #e0e0e0; stroke-opacity: 0.5; stroke-width: 0.8"/>
     </g>
     <g id="line2d_10">
      <g>
       <use xlink:href="#m3d27035b55" x="253.388794" y="286.195781" style="stroke: #000000; stroke-width: 0.8"/>
      </g>
     </g>
     <g id="text_5">
      <text style="font-size: 10px; font-family: sans-serif; text-anchor: middle" x="253.388794" y="300.793437" transform="rotate(-0 253.388794 300.793437)">20</text>
     </g>
    </g>
    <g id="xtick_6">
     <g id="line2d_11">
      <path d="M 307.193219 286.195781 
L 307.193219 26.798125 
" clip-path="url(#pc7a2e077d3)" style="fill: none; stroke-dasharray: 2.96,1.28; stroke-dashoffset: 0; stroke: #e0e0e0; stroke-opacity: 0.5; stroke-width: 0.8"/>
     </g>
     <g id="line2d_12">
      <g>
       <use xlink:href="#m3d27035b55" x="307.193219" y="286.195781" style="stroke: #000000; stroke-width: 0.8"/>
      </g>
     </g>
     <g id="text_6">
      <text style="font-size: 10px; font-family: sans-serif; text-anchor: middle" x="307.193219" y="300.793437" transform="rotate(-0 307.193219 300.793437)">25</text>
     </g>
    </g>
    <g id="xtick_7">
     <g id="line2d_13">
      <path d="M 360.997644 286.195781 
L 360.997644 26.798125 
" clip-path="url(#pc7a2e077d3)" style="fill: none; stroke-dasharray: 2.96,1.28; stroke-dashoffset: 0; stroke: #e0e0e0; stroke-opacity: 0.5; stroke-width: 0.8"/>
     </g>
     <g id="line2d_14">
      <g>
       <use xlink:href="#m3d27035b55" x="360.997644" y="286.195781" style="stroke: #000000; stroke-width: 0.8"/>
      </g>
     </g>
     <g id="text_7">
      <text style="font-size: 10px; font-family: sans-serif; text-anchor: middle" x="360.997644" y="300.793437" transform="rotate(-0 360.997644 300.793437)">30</text>
     </g>
    </g>
    <g id="text_8">
     <text style="font-size: 10px; font-family: sans-serif; text-anchor: middle" x="206.309922" y="314.794219" transform="rotate(-0 206.309922 314.794219)">Tiempo [ms]</text>
    </g>
   </g>
   <g id="matplotlib.axis_2">
    <g id="ytick_1">
     <g id="line2d_15">
      <path d="M 38.171094 251.637791 
L 374.44875 251.637791 
" clip-path="url(#pc7a2e077d3)" style="fill: none; stroke-dasharray: 2.96,1.28; stroke-dashoffset: 0; stroke: #e0e0e0; stroke-opacity: 0.5; stroke-width: 0.8"/>
     </g>
     <g id="line2d_16">
      <defs>
       <path id="mef640d9f3a" d="M 0 0 
L -3.5 0 
" style="stroke: #000000; stroke-width: 0.8"/>
      </defs>
      <g>
       <use xlink:href="#mef640d9f3a" x="38.171094" y="251.637791" style="stroke: #000000; stroke-width: 0.8"/>
      </g>
     </g>
     <g id="text_9">
      <text style="font-size: 10px; font-family: sans-serif; text-anchor: end" x="31.171094" y="255.43662" transform="rotate(-0 31.171094 255.43662)">-3</text>
     </g>
    </g>
    <g id="ytick_2">
     <g id="line2d_17">
      <path d="M 38.171094 216.033622 
L 374.44875 216.033622 
" clip-path="url(#pc7a2e077d3)" style="fill: none; stroke-dasharray: 2.96,1.28; stroke-dashoffset: 0; stroke: #e0e0e0; stroke-opacity: 0.5; stroke-width: 0.8"/>
     </g>
     <g id="line2d_18">
      <g>
       <use xlink:href="#mef640d9f3a" x="38.171094" y="216.033622" style="stroke: #000000; stroke-width: 0.8"/>
      </g>
     </g>
     <g id="text_10">
      <text style="font-size: 10px; font-family: sans-serif; text-anchor: end" x="31.171094" y="219.832451" transform="rotate(-0 31.171094 219.832451)">-2</text>
     </g>
    </g>
    <g id="ytick_3">
     <g id="line2d_19">
      <path d="M 38.171094 180.429453 
L 374.44875 180.429453 
" clip-path="url(#pc7a2e077d3)" style="fill: none; stroke-dasharray: 2.96,1.28; stroke-dashoffset: 0; stroke: #e0e0e0; stroke-opacity: 0.5; stroke-width: 0.8"/>
     </g>
     <g id="line2d_20">
      <g>
       <use xlink:href="#mef640d9f3a" x="38.171094" y="180.429453" style="stroke: #000000; stroke-width: 0.8"/>
      </g>
     </g>
     <g id="text_11">
      <text style="font-size: 10px; font-family: sans-serif; text-anchor: end" x="31.171094" y="184.228282" transform="rotate(-0 31.171094 184.228282)">-1</text>
     </g>
    </g>
    <g id="ytick_4">
     <g id="line2d_21">
      <path d="M 38.171094 144.825285 
L 374.44875 144.825285 
" clip-path="url(#pc7a2e077d3)" style="fill: none; stroke-dasharray: 2.96,1.28; stroke-dashoffset: 0; stroke: #e0e0e0; stroke-opacity: 0.5; stroke-width: 0.8"/>
     </g>
     <g id="line2d_22">
      <g>
       <use xlink:href="#mef640d9f3a" x="38.171094" y="144.825285" style="stroke: #000000; stroke-width: 0.8"/>
      </g>
     </g>
     <g id="text_12">
      <text style="font-size: 10px; font-family: sans-serif; text-anchor: end" x="31.171094" y="148.624113" transform="rotate(-0 31.171094 148.624113)">0</text>
     </g>
    </g>
    <g id="ytick_5">
     <g id="line2d_23">
      <path d="M 38.171094 109.221116 
L 374.44875 109.221116 
" clip-path="url(#pc7a2e077d3)" style="fill: none; stroke-dasharray: 2.96,1.28; stroke-dashoffset: 0; stroke: #e0e0e0; stroke-opacity: 0.5; stroke-width: 0.8"/>
     </g>
     <g id="line2d_24">
      <g>
       <use xlink:href="#mef640d9f3a" x="38.171094" y="109.221116" style="stroke: #000000; stroke-width: 0.8"/>
      </g>
     </g>
     <g id="text_13">
      <text style="font-size: 10px; font-family: sans-serif; text-anchor: end" x="31.171094" y="113.019944" transform="rotate(-0 31.171094 113.019944)">1</text>
     </g>
    </g>
    <g id="ytick_6">
     <g id="line2d_25">
      <path d="M 38.171094 73.616947 
L 374.44875 73.616947 
" clip-path="url(#pc7a2e077d3)" style="fill: none; stroke-dasharray: 2.96,1.28; stroke-dashoffset: 0; stroke: #e0e0e0; stroke-opacity: 0.5; stroke-width: 0.8"/>
     </g>
     <g id="line2d_26">
      <g>
       <use xlink:href="#mef640d9f3a" x="38.171094" y="73.616947" style="stroke: #000000; stroke-width: 0.8"/>
      </g>
     </g>
     <g id="text_14">
      <text style="font-size: 10px; font-family: sans-serif; text-anchor: end" x="31.171094" y="77.415775" transform="rotate(-0 31.171094 77.415775)">2</text>
     </g>
    </g>
    <g id="ytick_7">
     <g id="line2d_27">
      <path d="M 38.171094 38.012778 
L 374.44875 38.012778 
" clip-path="url(#pc7a2e077d3)" style="fill: none; stroke-dasharray: 2.96,1.28; stroke-dashoffset: 0; stroke: #e0e0e0; stroke-opacity: 0.5; stroke-width: 0.8"/>
     </g>
     <g id="line2d_28">
      <g>
       <use xlink:href="#mef640d9f3a" x="38.171094" y="38.012778" style="stroke: #000000; stroke-width: 0.8"/>
      </g>
     </g>
     <g id="text_15">
      <text style="font-size: 10px; font-family: sans-serif; text-anchor: end" x="31.171094" y="41.811606" transform="rotate(-0 31.171094 41.811606)">3</text>
     </g>
    </g>
    <g id="text_16">
     <text style="font-size: 10px; font-family: sans-serif; text-anchor: middle" x="14.798438" y="156.496953" transform="rotate(-90 14.798438 156.496953)">Amplitud</text>
    </g>
   </g>
   <g id="line2d_29">
    <path d="M 38.171094 102.721685 
L 39.484678 60.837999 
L 40.798263 65.478338 
L 42.111848 121.099228 
L 43.425432 114.41945 
L 44.739017 121.750787 
L 46.052601 86.637267 
L 47.366186 106.485501 
L 48.679771 80.666207 
L 49.993355 163.324945 
L 51.30694 54.119859 
L 52.620524 107.089076 
L 53.934109 82.206645 
L 55.247693 108.315701 
L 56.561278 116.198897 
L 57.874863 89.582212 
L 59.188447 78.484772 
L 60.502032 111.911682 
L 61.815616 111.147603 
L 63.129201 85.402564 
L 64.442786 136.344611 
L 65.75637 158.377949 
L 67.069955 99.079297 
L 68.383539 134.994747 
L 69.697124 176.987959 
L 71.010709 143.914728 
L 72.324293 135.263574 
L 73.637878 160.980652 
L 74.951462 173.183759 
L 76.265047 127.065872 
L 77.578632 102.332861 
L 78.892216 141.184541 
L 80.205801 160.201377 
L 81.519385 126.798796 
L 82.83297 118.717598 
L 84.146555 153.587497 
L 85.460139 128.814534 
L 86.773724 114.895612 
L 88.087308 156.563933 
L 89.400893 177.426276 
L 90.714478 141.552524 
L 92.028062 145.662824 
L 93.341647 119.084299 
L 94.655231 195.498945 
L 95.968816 175.59349 
L 97.282401 180.920334 
L 98.595985 208.929523 
L 99.90957 148.641179 
L 101.223154 134.70072 
L 102.536739 173.805723 
L 103.850323 104.421501 
L 105.163908 120.728279 
L 106.477493 125.122824 
L 107.791077 130.427536 
L 109.104662 110.789677 
L 110.418246 181.898206 
L 111.731831 117.838685 
L 113.045416 116.35488 
L 114.359 190.33099 
L 115.672585 121.211147 
L 116.986169 138.885747 
L 118.299754 104.728119 
L 119.613339 142.735538 
L 120.926923 128.569078 
L 122.240508 116.570306 
L 123.554092 155.306115 
L 124.867677 108.27884 
L 126.181262 131.092419 
L 127.494846 112.620356 
L 128.808431 145.873899 
L 130.122015 95.61492 
L 131.4356 112.28743 
L 132.749185 138.803629 
L 134.062769 114.603647 
L 135.376354 96.357704 
L 136.689938 81.294658 
L 138.003523 190.733828 
L 139.317108 114.29874 
L 140.630692 129.682651 
L 141.944277 149.544596 
L 143.257861 180.658773 
L 144.571446 110.247269 
L 145.885031 192.481444 
L 147.198615 135.751614 
L 148.5122 113.819004 
L 149.825784 207.876408 
L 151.139369 167.691797 
L 152.452953 200.929242 
L 153.766538 152.258746 
L 155.080123 112.478889 
L 156.393707 96.871919 
L 157.707292 218.816753 
L 160.334461 140.343273 
L 161.648046 112.664726 
L 164.275215 187.446318 
L 165.588799 154.40246 
L 166.902384 164.745134 
L 168.215969 171.117735 
L 169.529553 188.562321 
L 170.843138 153.354171 
L 172.156722 156.645001 
L 173.470307 170.358872 
L 174.783892 175.549263 
L 176.097476 210.761119 
L 177.411061 186.688463 
L 178.724645 134.24706 
L 180.03823 180.649413 
L 181.351815 222.491156 
L 182.665399 135.9909 
L 183.978984 163.895084 
L 185.292568 115.829781 
L 186.606153 183.557044 
L 187.919738 202.731875 
L 189.233322 236.683744 
L 190.546907 150.603143 
L 191.860491 113.190323 
L 193.174076 223.739846 
L 194.487661 220.324758 
L 195.801245 182.585875 
L 197.11483 229.906389 
L 198.428414 213.555475 
L 199.741999 217.349644 
L 201.055583 201.019967 
L 202.369168 172.849775 
L 203.682753 207.447781 
L 204.996337 178.808329 
L 206.309922 221.225288 
L 207.623506 196.666233 
L 208.937091 274.404979 
L 210.250676 251.082183 
L 211.56426 177.707168 
L 212.877845 220.034378 
L 214.191429 180.466555 
L 215.505014 179.233874 
L 216.818599 151.694366 
L 218.132183 165.201377 
L 219.445768 155.732315 
L 220.759352 188.775549 
L 222.072937 204.464405 
L 223.386522 202.47892 
L 224.700106 191.690939 
L 226.013691 209.25144 
L 227.327275 187.827885 
L 228.64086 170.620935 
L 229.954445 157.123025 
L 231.268029 173.674762 
L 232.581614 222.200712 
L 233.895198 161.224209 
L 235.208783 150.11694 
L 236.522368 121.331039 
L 237.835952 136.416092 
L 239.149537 174.579533 
L 240.463121 176.537772 
L 241.776706 88.835454 
L 243.090291 128.714166 
L 244.403875 94.407932 
L 245.71746 85.07156 
L 247.031044 179.519583 
L 248.344629 141.50902 
L 249.658214 139.675157 
L 250.971798 136.9727 
L 252.285383 138.087838 
L 253.598967 149.473136 
L 254.912552 150.850828 
L 256.226136 204.809876 
L 257.539721 162.426649 
L 258.853306 181.22415 
L 260.16689 153.393837 
L 261.480475 172.281862 
L 262.794059 137.37606 
L 264.107644 130.596565 
L 265.421229 146.369615 
L 266.734813 145.457983 
L 268.048398 151.777929 
L 269.361982 168.116544 
L 270.675567 158.03441 
L 271.989152 167.492236 
L 273.302736 138.095323 
L 274.616321 148.824824 
L 275.929905 129.494215 
L 277.24349 189.294758 
L 278.557075 117.364023 
L 279.870659 169.004076 
L 281.184244 167.129178 
L 282.497828 149.143413 
L 283.811413 160.136623 
L 285.124998 132.318849 
L 286.438582 159.604974 
L 287.752167 175.265678 
L 289.065751 168.160722 
L 290.379336 99.484814 
L 293.006505 179.714906 
L 294.32009 142.947488 
L 295.633674 193.847184 
L 296.947259 88.077849 
L 298.260844 195.096546 
L 299.574428 132.379426 
L 300.888013 131.612186 
L 302.201597 196.597929 
L 303.515182 141.993681 
L 304.828766 120.971057 
L 306.142351 139.02208 
L 307.455936 146.625096 
L 308.76952 125.491263 
L 310.083105 151.306701 
L 311.396689 146.118514 
L 312.710274 161.074881 
L 314.023859 136.743051 
L 315.337443 186.587073 
L 316.651028 130.537144 
L 317.964612 170.951972 
L 319.278197 188.327258 
L 321.905366 95.883655 
L 323.218951 117.035344 
L 324.532535 161.751485 
L 325.84612 120.289089 
L 327.159705 154.179013 
L 328.473289 140.549308 
L 329.786874 130.504877 
L 331.100458 204.041053 
L 332.414043 120.5303 
L 333.727628 156.122374 
L 335.041212 142.123485 
L 336.354797 163.608582 
L 337.668381 161.725476 
L 338.981966 140.323132 
L 340.295551 80.909386 
L 341.609135 51.347188 
L 342.92272 102.865984 
L 344.236304 64.951084 
L 345.549889 106.275855 
L 346.863474 157.214709 
L 348.177058 89.963295 
L 349.490643 79.408073 
L 350.804227 106.507181 
L 352.117812 82.626614 
L 353.431396 73.721824 
L 354.744981 119.561696 
L 356.058566 139.364088 
L 357.37215 99.684565 
L 358.685735 99.958113 
L 359.999319 105.230503 
L 361.312904 63.309468 
L 362.626489 40.689448 
L 363.940073 110.122109 
L 365.253658 75.541221 
L 366.567242 68.854373 
L 367.880827 77.142692 
L 369.194412 67.425901 
L 370.507996 114.195109 
L 371.821581 78.930276 
L 373.135165 38.588928 
L 373.135165 38.588928 
" clip-path="url(#pc7a2e077d3)" style="fill: none; stroke: #e0e0e0; stroke-linecap: square"/>
   </g>
   <g id="line2d_30">
    <path d="M 38.171094 104.058389 
L 39.484678 103.582484 
L 40.798263 104.007138 
L 42.111848 100.000969 
L 43.425432 108.664621 
L 44.739017 110.400275 
L 46.052601 104.133599 
L 47.366186 114.08295 
L 48.679771 104.772634 
L 49.993355 108.226921 
L 51.30694 100.329718 
L 52.620524 102.200718 
L 53.934109 100.456361 
L 55.247693 107.084734 
L 56.561278 108.187133 
L 57.874863 103.788386 
L 59.188447 95.827067 
L 60.502032 119.080667 
L 61.815616 102.352342 
L 63.129201 113.479397 
L 64.442786 108.210157 
L 65.75637 119.232074 
L 67.069955 112.43346 
L 68.383539 125.77871 
L 69.697124 115.551755 
L 71.010709 119.478396 
L 72.324293 122.197822 
L 73.637878 117.246741 
L 74.951462 122.791113 
L 76.265047 136.078022 
L 77.578632 133.600812 
L 78.892216 142.979824 
L 80.205801 134.716339 
L 81.519385 137.459415 
L 82.83297 139.626988 
L 84.146555 133.832826 
L 85.460139 148.804969 
L 86.773724 154.952605 
L 88.087308 147.028944 
L 89.400893 154.867014 
L 90.714478 152.521437 
L 92.028062 155.547264 
L 93.341647 149.598242 
L 94.655231 156.154539 
L 95.968816 155.067839 
L 97.282401 155.830701 
L 98.595985 152.481979 
L 99.90957 150.243563 
L 101.223154 146.435293 
L 102.536739 143.005645 
L 103.850323 151.756165 
L 105.163908 149.027731 
L 106.477493 148.468044 
L 107.791077 146.507328 
L 109.104662 137.949308 
L 110.418246 140.354574 
L 111.731831 127.963204 
L 113.045416 135.695593 
L 114.359 132.691283 
L 115.672585 126.016379 
L 116.986169 130.40815 
L 118.299754 136.97275 
L 119.613339 129.731305 
L 120.926923 134.885791 
L 122.240508 125.908754 
L 123.554092 118.84563 
L 124.867677 125.81305 
L 126.181262 126.865396 
L 127.494846 123.686893 
L 128.808431 119.962423 
L 130.122015 129.564471 
L 131.4356 132.560492 
L 132.749185 127.981319 
L 134.062769 129.871936 
L 135.376354 128.272451 
L 136.689938 139.53983 
L 138.003523 135.595735 
L 139.317108 139.076773 
L 140.630692 135.15988 
L 141.944277 139.417908 
L 143.257861 142.731444 
L 144.571446 147.908695 
L 145.885031 145.580657 
L 147.198615 154.108199 
L 148.5122 155.170881 
L 149.825784 153.744416 
L 151.139369 161.121299 
L 152.452953 166.65286 
L 153.766538 157.277193 
L 155.080123 162.639048 
L 156.393707 158.785216 
L 157.707292 160.320102 
L 159.020876 158.056957 
L 160.334461 153.454522 
L 161.648046 153.820352 
L 162.96163 164.020219 
L 164.275215 159.040556 
L 165.588799 175.263294 
L 166.902384 159.362701 
L 168.215969 156.149824 
L 169.529553 162.305904 
L 170.843138 167.321116 
L 172.156722 170.240865 
L 173.470307 167.360769 
L 174.783892 168.700202 
L 176.097476 170.920597 
L 177.411061 174.816553 
L 178.724645 172.413437 
L 180.03823 172.199138 
L 181.351815 180.589191 
L 182.665399 182.735164 
L 183.978984 185.73555 
L 185.292568 182.472021 
L 187.919738 186.118065 
L 189.233322 189.108982 
L 190.546907 186.684772 
L 191.860491 194.455947 
L 193.174076 196.4024 
L 194.487661 197.967421 
L 195.801245 195.468152 
L 197.11483 199.529808 
L 198.428414 200.772448 
L 199.741999 211.863566 
L 201.055583 209.310733 
L 202.369168 214.656417 
L 203.682753 212.258071 
L 204.996337 208.444028 
L 206.309922 205.757076 
L 207.623506 204.767604 
L 208.937091 205.506652 
L 210.250676 195.189647 
L 211.56426 198.070602 
L 212.877845 199.40907 
L 214.191429 199.730677 
L 215.505014 196.035419 
L 216.818599 194.785445 
L 218.132183 187.98986 
L 219.445768 187.163142 
L 220.759352 187.77554 
L 222.072937 180.3598 
L 223.386522 175.866574 
L 224.700106 181.177335 
L 227.327275 173.550915 
L 228.64086 168.075199 
L 229.954445 159.323877 
L 231.268029 166.95292 
L 232.581614 146.248917 
L 233.895198 161.149424 
L 235.208783 157.648802 
L 236.522368 155.863537 
L 237.835952 141.050272 
L 239.149537 162.182826 
L 240.463121 149.179633 
L 241.776706 150.261486 
L 243.090291 148.076626 
L 244.403875 156.042529 
L 245.71746 155.047067 
L 247.031044 154.819139 
L 248.344629 164.202053 
L 249.658214 157.037493 
L 250.971798 157.219359 
L 252.285383 151.322224 
L 253.598967 157.751847 
L 254.912552 159.093101 
L 256.226136 153.431039 
L 257.539721 148.85939 
L 258.853306 154.463899 
L 260.16689 148.829942 
L 261.480475 159.349939 
L 262.794059 164.240481 
L 264.107644 155.330394 
L 265.421229 151.624285 
L 266.734813 158.07479 
L 268.048398 148.326131 
L 269.361982 159.277748 
L 271.989152 154.620179 
L 273.302736 152.713683 
L 274.616321 143.285156 
L 275.929905 146.048449 
L 277.24349 145.29157 
L 278.557075 144.070612 
L 279.870659 142.018489 
L 281.184244 140.205245 
L 282.497828 139.849037 
L 283.811413 140.971472 
L 285.124998 141.810486 
L 286.438582 135.007006 
L 287.752167 141.121642 
L 289.065751 137.043679 
L 290.379336 145.060416 
L 291.692921 143.351357 
L 293.006505 136.450902 
L 294.32009 132.949969 
L 295.633674 142.586927 
L 296.947259 144.670786 
L 298.260844 150.816589 
L 299.574428 143.232623 
L 300.888013 151.22109 
L 302.201597 149.633116 
L 303.515182 157.69077 
L 304.828766 160.499487 
L 306.142351 152.927705 
L 308.76952 147.613536 
L 310.083105 155.526891 
L 311.396689 152.489222 
L 312.710274 161.753196 
L 315.337443 149.009845 
L 316.651028 161.667833 
L 317.964612 158.395811 
L 319.278197 158.05569 
L 320.591782 155.190019 
L 321.905366 153.719275 
L 323.218951 143.397523 
L 324.532535 138.915954 
L 325.84612 142.609741 
L 327.159705 138.218834 
L 328.473289 130.773146 
L 329.786874 137.373354 
L 331.100458 132.212697 
L 332.414043 129.29307 
L 333.727628 127.156245 
L 335.041212 112.740368 
L 336.354797 121.697805 
L 337.668381 119.154265 
L 338.981966 103.51985 
L 340.295551 105.144132 
L 341.609135 98.381047 
L 342.92272 101.607131 
L 344.236304 100.193754 
L 345.549889 102.469376 
L 346.863474 95.974911 
L 348.177058 93.638098 
L 349.490643 93.808909 
L 350.804227 96.873428 
L 352.117812 83.702249 
L 353.431396 106.172054 
L 354.744981 100.471432 
L 356.058566 98.014912 
L 357.37215 94.50019 
L 358.685735 97.814917 
L 359.999319 102.256531 
L 361.312904 86.182933 
L 362.626489 97.411105 
L 363.940073 107.040465 
L 365.253658 96.899352 
L 366.567242 94.269893 
L 367.880827 104.591298 
L 369.194412 107.696782 
L 370.507996 95.878936 
L 371.821581 98.59464 
L 373.135165 105.056416 
L 373.135165 105.056416 
" clip-path="url(#pc7a2e077d3)" style="fill: none; stroke: #1f77b4; stroke-width: 1.8; stroke-linecap: square"/>
   </g>
   <g id="line2d_31">
    <path d="M 38.171094 103.505561 
L 39.484678 103.955087 
L 40.798263 104.28319 
L 43.425432 104.595316 
L 46.052601 104.524062 
L 49.993355 104.020257 
L 52.620524 103.701285 
L 55.247693 103.646175 
L 56.561278 103.783809 
L 57.874863 104.064088 
L 59.188447 104.508507 
L 60.502032 105.135531 
L 61.815616 105.960077 
L 63.129201 106.993075 
L 64.442786 108.241106 
L 65.75637 109.706148 
L 67.069955 111.385413 
L 69.697124 115.351422 
L 72.324293 120.022162 
L 74.951462 125.211988 
L 82.83297 141.315288 
L 85.460139 145.901054 
L 86.773724 147.893003 
L 88.087308 149.646414 
L 89.400893 151.137551 
L 90.714478 152.347058 
L 92.028062 153.260387 
L 93.341647 153.868116 
L 94.655231 154.166175 
L 95.968816 154.15596 
L 97.282401 153.844335 
L 98.595985 153.243527 
L 99.90957 152.370909 
L 101.223154 151.24868 
L 102.536739 149.903448 
L 105.163908 146.669325 
L 107.791077 142.94843 
L 113.045416 135.297182 
L 115.672585 131.985865 
L 116.986169 130.580123 
L 118.299754 129.378889 
L 119.613339 128.405437 
L 120.926923 127.678422 
L 122.240508 127.211576 
L 123.554092 127.013514 
L 124.867677 127.087643 
L 126.181262 127.432179 
L 127.494846 128.040278 
L 128.808431 128.900268 
L 130.122015 129.995982 
L 131.4356 131.307183 
L 134.062769 134.477858 
L 136.689938 138.189925 
L 145.885031 151.878187 
L 148.5122 155.087637 
L 151.139369 157.722408 
L 152.452953 158.80969 
L 153.766538 159.7448 
L 155.080123 160.534197 
L 157.707292 161.722382 
L 160.334461 162.503733 
L 168.215969 164.302913 
L 169.529553 164.797976 
L 170.843138 165.413672 
L 172.156722 166.1694 
L 173.470307 167.081198 
L 174.783892 168.161275 
L 176.097476 169.417625 
L 177.411061 170.853736 
L 180.03823 174.255589 
L 182.665399 178.29985 
L 185.292568 182.846005 
L 193.174076 197.214173 
L 195.801245 201.31778 
L 197.11483 203.08018 
L 198.428414 204.60675 
L 199.741999 205.869037 
L 201.055583 206.842296 
L 202.369168 207.506027 
L 203.682753 207.844424 
L 204.996337 207.846734 
L 206.309922 207.50751 
L 207.623506 206.826767 
L 208.937091 205.810018 
L 210.250676 204.468207 
L 211.56426 202.817523 
L 212.877845 200.879123 
L 214.191429 198.678735 
L 216.818599 193.614845 
L 219.445768 187.903064 
L 227.327275 170.036492 
L 229.954445 164.850448 
L 232.581614 160.457436 
L 233.895198 158.607652 
L 235.208783 157.00552 
L 236.522368 155.65698 
L 237.835952 154.562769 
L 239.149537 153.718523 
L 240.463121 153.11497 
L 241.776706 152.73823 
L 243.090291 152.570211 
L 244.403875 152.589089 
L 245.71746 152.769862 
L 248.344629 153.504953 
L 252.285383 155.086036 
L 254.912552 156.103745 
L 257.539721 156.836247 
L 258.853306 157.039889 
L 260.16689 157.112476 
L 261.480475 157.042088 
L 262.794059 156.821164 
L 264.107644 156.446636 
L 265.421229 155.919971 
L 266.734813 155.247086 
L 269.361982 153.507459 
L 271.989152 151.355061 
L 279.870659 144.338327 
L 282.497828 142.529718 
L 283.811413 141.836135 
L 285.124998 141.308175 
L 286.438582 140.960207 
L 287.752167 140.802492 
L 289.065751 140.840863 
L 290.379336 141.076492 
L 291.692921 141.50577 
L 293.006505 142.120287 
L 294.32009 142.906918 
L 296.947259 144.921732 
L 299.574428 147.360866 
L 304.828766 152.508852 
L 307.455936 154.652857 
L 308.76952 155.493713 
L 310.083105 156.137271 
L 311.396689 156.554554 
L 312.710274 156.72008 
L 314.023859 156.612427 
L 315.337443 156.214707 
L 316.651028 155.514959 
L 317.964612 154.506437 
L 319.278197 153.187796 
L 320.591782 151.563173 
L 321.905366 149.642147 
L 323.218951 147.4396 
L 324.532535 144.975464 
L 327.159705 139.365177 
L 329.786874 133.055967 
L 338.981966 109.890718 
L 341.609135 104.246142 
L 342.92272 101.752916 
L 344.236304 99.51065 
L 345.549889 97.537198 
L 346.863474 95.845408 
L 348.177058 94.442953 
L 349.490643 93.332282 
L 350.804227 92.510675 
L 352.117812 91.970402 
L 353.431396 91.698995 
L 354.744981 91.679608 
L 356.058566 91.891473 
L 357.37215 92.31043 
L 358.685735 92.909524 
L 361.312904 94.530288 
L 363.940073 96.507864 
L 369.194412 100.570544 
L 371.821581 102.248784 
L 373.135165 102.93512 
L 373.135165 102.93512 
" clip-path="url(#pc7a2e077d3)" style="fill: none; stroke-dasharray: 4.44,1.92; stroke-dashoffset: 0; stroke: #d62728; stroke-width: 1.2"/>
   </g>
   <g id="patch_3">
    <path d="M 38.171094 286.195781 
L 38.171094 26.798125 
" style="fill: none; stroke: #000000; stroke-width: 0.8; stroke-linejoin: miter; stroke-linecap: square"/>
   </g>
   <g id="patch_4">
    <path d="M 374.44875 286.195781 
L 374.44875 26.798125 
" style="fill: none; stroke: #000000; stroke-width: 0.8; stroke-linejoin: miter; stroke-linecap: square"/>
   </g>
   <g id="patch_5">
    <path d="M 38.171094 286.195781 
L 374.44875 286.195781 
" style="fill: none; stroke: #000000; stroke-width: 0.8; stroke-linejoin: miter; stroke-linecap: square"/>
   </g>
   <g id="patch_6">
    <path d="M 38.171094 26.798125 
L 374.44875 26.798125 
" style="fill: none; stroke: #000000; stroke-width: 0.8; stroke-linejoin: miter; stroke-linecap: square"/>
   </g>
   <g id="text_17">
    <text style="font-size: 8.5px; font-family: sans-serif" transform="translate(44.896647 262.342377)">promediar N períodos reduce el ruido asíncrono</text>
    <!-- en $\sqrt{N}$ en amplitud -->
    <g transform="translate(44.896647 275.521029)">
     <text>
      <tspan x="0" y="-0.630625" style="font-size: 8.5px; font-family: sans-serif">e</tspan>
      <tspan x="5.229492" y="-0.630625" style="font-size: 8.5px; font-family: sans-serif">n</tspan>
      <tspan x="10.616699" y="-0.630625" style="font-size: 8.5px; font-family: sans-serif"> </tspan>
      <tspan x="26.872406" y="-0.630625" style="font-size: 8.5px; font-family: sans-serif"> </tspan>
      <tspan x="29.57431" y="-0.630625" style="font-size: 8.5px; font-family: sans-serif">e</tspan>
      <tspan x="34.803802" y="-0.630625" style="font-size: 8.5px; font-family: sans-serif">n</tspan>
      <tspan x="40.19101" y="-0.630625" style="font-size: 8.5px; font-family: sans-serif"> </tspan>
      <tspan x="42.892914" y="-0.630625" style="font-size: 8.5px; font-family: sans-serif">a</tspan>
      <tspan x="48.101654" y="-0.630625" style="font-size: 8.5px; font-family: sans-serif">m</tspan>
      <tspan x="56.381683" y="-0.630625" style="font-size: 8.5px; font-family: sans-serif">p</tspan>
      <tspan x="61.777191" y="-0.630625" style="font-size: 8.5px; font-family: sans-serif">l</tspan>
      <tspan x="64.138763" y="-0.630625" style="font-size: 8.5px; font-family: sans-serif">i</tspan>
      <tspan x="66.500336" y="-0.630625" style="font-size: 8.5px; font-family: sans-serif">t</tspan>
      <tspan x="69.833099" y="-0.630625" style="font-size: 8.5px; font-family: sans-serif">u</tspan>
      <tspan x="75.220306" y="-0.630625" style="font-size: 8.5px; font-family: sans-serif">d</tspan>
      <tspan x="13.318604" y="-2.0525" style="font-size: 4.800299px; font-family: sans-serif">√</tspan>
      <tspan x="19.451508" y="-0.265625" style="font-style: oblique; font-size: 8.5px; font-family: sans-serif">N</tspan>
     </text>
     <rect x="18.389008" y="-10.46875" width="8.483398" height="0.53125"/>
    </g>
   </g>
   <g id="text_18">
    <text style="font-weight: 700; font-size: 12px; font-family: sans-serif; text-anchor: middle" x="206.309922" y="16.798125" transform="rotate(-0 206.309922 16.798125)">Forma de onda periódica extraída del ruido</text>
   </g>
   <g id="legend_1">
    <g id="patch_7">
     <path d="M 200.08625 70.16 
L 368.84875 70.16 
Q 370.44875 70.16 370.44875 68.56 
L 370.44875 32.398125 
Q 370.44875 30.798125 368.84875 30.798125 
L 200.08625 30.798125 
Q 198.48625 30.798125 198.48625 32.398125 
L 198.48625 68.56 
Q 198.48625 70.16 200.08625 70.16 
z
" style="fill: #ffffff; opacity: 0.8; stroke: #cccccc; stroke-linejoin: miter"/>
    </g>
    <g id="line2d_32">
     <path d="M 201.68625 37.596875 
L 209.68625 37.596875 
L 217.68625 37.596875 
" style="fill: none; stroke: #e0e0e0; stroke-linecap: square"/>
    </g>
    <g id="text_19">
     <text style="font-size: 8px; font-family: sans-serif; text-anchor: start" x="224.08625" y="40.396875" transform="rotate(-0 224.08625 40.396875)">Un período ruidoso</text>
    </g>
    <g id="line2d_33">
     <path d="M 201.68625 49.9175 
L 209.68625 49.9175 
L 217.68625 49.9175 
" style="fill: none; stroke: #1f77b4; stroke-width: 1.8; stroke-linecap: square"/>
    </g>
    <g id="text_20">
     <text style="font-size: 8px; font-family: sans-serif; text-anchor: start" x="224.08625" y="52.7175" transform="rotate(-0 224.08625 52.7175)">Promedio de N = 40 períodos</text>
    </g>
    <g id="line2d_34">
     <path d="M 201.68625 62.238125 
L 209.68625 62.238125 
L 217.68625 62.238125 
" style="fill: none; stroke-dasharray: 4.44,1.92; stroke-dashoffset: 0; stroke: #d62728; stroke-width: 1.2"/>
    </g>
    <g id="text_21">
     <text style="font-size: 8px; font-family: sans-serif; text-anchor: start" x="224.08625" y="65.038125" transform="rotate(-0 224.08625 65.038125)">Forma de onda periódica verdadera</text>
    </g>
   </g>
  </g>
  <g id="axes_2">
   <g id="patch_8">
    <path d="M 422.171094 286.195781 
L 758.44875 286.195781 
L 758.44875 26.798125 
L 422.171094 26.798125 
z
" style="fill: #ffffff"/>
   </g>
   <g id="matplotlib.axis_3">
    <g id="xtick_8">
     <g id="line2d_35">
      <path d="M 422.171094 286.195781 
L 422.171094 26.798125 
" clip-path="url(#p7743f044be)" style="fill: none; stroke-dasharray: 2.96,1.28; stroke-dashoffset: 0; stroke: #e0e0e0; stroke-opacity: 0.5; stroke-width: 0.8"/>
     </g>
     <g id="line2d_36">
      <g>
       <use xlink:href="#m3d27035b55" x="422.171094" y="286.195781" style="stroke: #000000; stroke-width: 0.8"/>
      </g>
     </g>
     <g id="text_22">
      <text style="font-size: 10px; font-family: sans-serif; text-anchor: middle" x="422.171094" y="300.793437" transform="rotate(-0 422.171094 300.793437)">31</text>
     </g>
    </g>
    <g id="xtick_9">
     <g id="line2d_37">
      <path d="M 464.205801 286.195781 
L 464.205801 26.798125 
" clip-path="url(#p7743f044be)" style="fill: none; stroke-dasharray: 2.96,1.28; stroke-dashoffset: 0; stroke: #e0e0e0; stroke-opacity: 0.5; stroke-width: 0.8"/>
     </g>
     <g id="line2d_38">
      <g>
       <use xlink:href="#m3d27035b55" x="464.205801" y="286.195781" style="stroke: #000000; stroke-width: 0.8"/>
      </g>
     </g>
     <g id="text_23">
      <text style="font-size: 10px; font-family: sans-serif; text-anchor: middle" x="464.205801" y="300.793437" transform="rotate(-0 464.205801 300.793437)">31,25</text>
     </g>
    </g>
    <g id="xtick_10">
     <g id="line2d_39">
      <path d="M 506.240508 286.195781 
L 506.240508 26.798125 
" clip-path="url(#p7743f044be)" style="fill: none; stroke-dasharray: 2.96,1.28; stroke-dashoffset: 0; stroke: #e0e0e0; stroke-opacity: 0.5; stroke-width: 0.8"/>
     </g>
     <g id="line2d_40">
      <g>
       <use xlink:href="#m3d27035b55" x="506.240508" y="286.195781" style="stroke: #000000; stroke-width: 0.8"/>
      </g>
     </g>
     <g id="text_24">
      <text style="font-size: 10px; font-family: sans-serif; text-anchor: middle" x="506.240508" y="300.793437" transform="rotate(-0 506.240508 300.793437)">31,5</text>
     </g>
    </g>
    <g id="xtick_11">
     <g id="line2d_41">
      <path d="M 548.275215 286.195781 
L 548.275215 26.798125 
" clip-path="url(#p7743f044be)" style="fill: none; stroke-dasharray: 2.96,1.28; stroke-dashoffset: 0; stroke: #e0e0e0; stroke-opacity: 0.5; stroke-width: 0.8"/>
     </g>
     <g id="line2d_42">
      <g>
       <use xlink:href="#m3d27035b55" x="548.275215" y="286.195781" style="stroke: #000000; stroke-width: 0.8"/>
      </g>
     </g>
     <g id="text_25">
      <text style="font-size: 10px; font-family: sans-serif; text-anchor: middle" x="548.275215" y="300.793437" transform="rotate(-0 548.275215 300.793437)">31,75</text>
     </g>
    </g>
    <g id="xtick_12">
     <g id="line2d_43">
      <path d="M 590.309922 286.195781 
L 590.309922 26.798125 
" clip-path="url(#p7743f044be)" style="fill: none; stroke-dasharray: 2.96,1.28; stroke-dashoffset: 0; stroke: #e0e0e0; stroke-opacity: 0.5; stroke-width: 0.8"/>
     </g>
     <g id="line2d_44">
      <g>
       <use xlink:href="#m3d27035b55" x="590.309922" y="286.195781" style="stroke: #000000; stroke-width: 0.8"/>
      </g>
     </g>
     <g id="text_26">
      <text style="font-size: 10px; font-family: sans-serif; text-anchor: middle" x="590.309922" y="300.793437" transform="rotate(-0 590.309922 300.793437)">32</text>
     </g>
    </g>
    <g id="xtick_13">
     <g id="line2d_45">
      <path d="M 632.344629 286.195781 
L 632.344629 26.798125 
" clip-path="url(#p7743f044be)" style="fill: none; stroke-dasharray: 2.96,1.28; stroke-dashoffset: 0; stroke: #e0e0e0; stroke-opacity: 0.5; stroke-width: 0.8"/>
     </g>
     <g id="line2d_46">
      <g>
       <use xlink:href="#m3d27035b55" x="632.344629" y="286.195781" style="stroke: #000000; stroke-width: 0.8"/>
      </g>
     </g>
     <g id="text_27">
      <text style="font-size: 10px; font-family: sans-serif; text-anchor: middle" x="632.344629" y="300.793437" transform="rotate(-0 632.344629 300.793437)">32,25</text>
     </g>
    </g>
    <g id="xtick_14">
     <g id="line2d_47">
      <path d="M 674.379336 286.195781 
L 674.379336 26.798125 
" clip-path="url(#p7743f044be)" style="fill: none; stroke-dasharray: 2.96,1.28; stroke-dashoffset: 0; stroke: #e0e0e0; stroke-opacity: 0.5; stroke-width: 0.8"/>
     </g>
     <g id="line2d_48">
      <g>
       <use xlink:href="#m3d27035b55" x="674.379336" y="286.195781" style="stroke: #000000; stroke-width: 0.8"/>
      </g>
     </g>
     <g id="text_28">
      <text style="font-size: 10px; font-family: sans-serif; text-anchor: middle" x="674.379336" y="300.793437" transform="rotate(-0 674.379336 300.793437)">32,5</text>
     </g>
    </g>
    <g id="xtick_15">
     <g id="line2d_49">
      <path d="M 716.414043 286.195781 
L 716.414043 26.798125 
" clip-path="url(#p7743f044be)" style="fill: none; stroke-dasharray: 2.96,1.28; stroke-dashoffset: 0; stroke: #e0e0e0; stroke-opacity: 0.5; stroke-width: 0.8"/>
     </g>
     <g id="line2d_50">
      <g>
       <use xlink:href="#m3d27035b55" x="716.414043" y="286.195781" style="stroke: #000000; stroke-width: 0.8"/>
      </g>
     </g>
     <g id="text_29">
      <text style="font-size: 10px; font-family: sans-serif; text-anchor: middle" x="716.414043" y="300.793437" transform="rotate(-0 716.414043 300.793437)">32,75</text>
     </g>
    </g>
    <g id="xtick_16">
     <g id="line2d_51">
      <path d="M 758.44875 286.195781 
L 758.44875 26.798125 
" clip-path="url(#p7743f044be)" style="fill: none; stroke-dasharray: 2.96,1.28; stroke-dashoffset: 0; stroke: #e0e0e0; stroke-opacity: 0.5; stroke-width: 0.8"/>
     </g>
     <g id="line2d_52">
      <g>
       <use xlink:href="#m3d27035b55" x="758.44875" y="286.195781" style="stroke: #000000; stroke-width: 0.8"/>
      </g>
     </g>
     <g id="text_30">
      <text style="font-size: 10px; font-family: sans-serif; text-anchor: middle" x="758.44875" y="300.793437" transform="rotate(-0 758.44875 300.793437)">33</text>
     </g>
    </g>
    <g id="text_31">
     <text style="font-size: 10px; font-family: sans-serif; text-anchor: middle" x="590.309922" y="315.194219" transform="rotate(-0 590.309922 315.194219)">Frecuencia [órdenes]</text>
    </g>
   </g>
   <g id="matplotlib.axis_4">
    <g id="ytick_8">
     <g id="line2d_53">
      <path d="M 422.171094 286.195781 
L 758.44875 286.195781 
" clip-path="url(#p7743f044be)" style="fill: none; stroke-dasharray: 2.96,1.28; stroke-dashoffset: 0; stroke: #e0e0e0; stroke-opacity: 0.5; stroke-width: 0.8"/>
     </g>
     <g id="line2d_54">
      <g>
       <use xlink:href="#mef640d9f3a" x="422.171094" y="286.195781" style="stroke: #000000; stroke-width: 0.8"/>
      </g>
     </g>
     <g id="text_32">
      <text style="font-size: 10px; font-family: sans-serif; text-anchor: end" x="415.171094" y="289.994609" transform="rotate(-0 415.171094 289.994609)">0</text>
     </g>
    </g>
    <g id="ytick_9">
     <g id="line2d_55">
      <path d="M 422.171094 236.786704 
L 758.44875 236.786704 
" clip-path="url(#p7743f044be)" style="fill: none; stroke-dasharray: 2.96,1.28; stroke-dashoffset: 0; stroke: #e0e0e0; stroke-opacity: 0.5; stroke-width: 0.8"/>
     </g>
     <g id="line2d_56">
      <g>
       <use xlink:href="#mef640d9f3a" x="422.171094" y="236.786704" style="stroke: #000000; stroke-width: 0.8"/>
      </g>
     </g>
     <g id="text_33">
      <text style="font-size: 10px; font-family: sans-serif; text-anchor: end" x="415.171094" y="240.585532" transform="rotate(-0 415.171094 240.585532)">0,2</text>
     </g>
    </g>
    <g id="ytick_10">
     <g id="line2d_57">
      <path d="M 422.171094 187.377626 
L 758.44875 187.377626 
" clip-path="url(#p7743f044be)" style="fill: none; stroke-dasharray: 2.96,1.28; stroke-dashoffset: 0; stroke: #e0e0e0; stroke-opacity: 0.5; stroke-width: 0.8"/>
     </g>
     <g id="line2d_58">
      <g>
       <use xlink:href="#mef640d9f3a" x="422.171094" y="187.377626" style="stroke: #000000; stroke-width: 0.8"/>
      </g>
     </g>
     <g id="text_34">
      <text style="font-size: 10px; font-family: sans-serif; text-anchor: end" x="415.171094" y="191.176455" transform="rotate(-0 415.171094 191.176455)">0,4</text>
     </g>
    </g>
    <g id="ytick_11">
     <g id="line2d_59">
      <path d="M 422.171094 137.968549 
L 758.44875 137.968549 
" clip-path="url(#p7743f044be)" style="fill: none; stroke-dasharray: 2.96,1.28; stroke-dashoffset: 0; stroke: #e0e0e0; stroke-opacity: 0.5; stroke-width: 0.8"/>
     </g>
     <g id="line2d_60">
      <g>
       <use xlink:href="#mef640d9f3a" x="422.171094" y="137.968549" style="stroke: #000000; stroke-width: 0.8"/>
      </g>
     </g>
     <g id="text_35">
      <text style="font-size: 10px; font-family: sans-serif; text-anchor: end" x="415.171094" y="141.767377" transform="rotate(-0 415.171094 141.767377)">0,6</text>
     </g>
    </g>
    <g id="ytick_12">
     <g id="line2d_61">
      <path d="M 422.171094 88.559472 
L 758.44875 88.559472 
" clip-path="url(#p7743f044be)" style="fill: none; stroke-dasharray: 2.96,1.28; stroke-dashoffset: 0; stroke: #e0e0e0; stroke-opacity: 0.5; stroke-width: 0.8"/>
     </g>
     <g id="line2d_62">
      <g>
       <use xlink:href="#mef640d9f3a" x="422.171094" y="88.559472" style="stroke: #000000; stroke-width: 0.8"/>
      </g>
     </g>
     <g id="text_36">
      <text style="font-size: 10px; font-family: sans-serif; text-anchor: end" x="415.171094" y="92.3583" transform="rotate(-0 415.171094 92.3583)">0,8</text>
     </g>
    </g>
    <g id="ytick_13">
     <g id="line2d_63">
      <path d="M 422.171094 39.150394 
L 758.44875 39.150394 
" clip-path="url(#p7743f044be)" style="fill: none; stroke-dasharray: 2.96,1.28; stroke-dashoffset: 0; stroke: #e0e0e0; stroke-opacity: 0.5; stroke-width: 0.8"/>
     </g>
     <g id="line2d_64">
      <g>
       <use xlink:href="#mef640d9f3a" x="422.171094" y="39.150394" style="stroke: #000000; stroke-width: 0.8"/>
      </g>
     </g>
     <g id="text_37">
      <text style="font-size: 10px; font-family: sans-serif; text-anchor: end" x="415.171094" y="42.949222" transform="rotate(-0 415.171094 42.949222)">1</text>
     </g>
    </g>
    <g id="text_38">
     <text style="font-size: 10px; font-family: sans-serif; text-anchor: middle" x="392.865625" y="156.496953" transform="rotate(-90 392.865625 156.496953)">Magnitud del filtro peine</text>
    </g>
   </g>
   <g id="line2d_65">
    <path d="M 422.171094 39.150394 
L 422.255184 39.254363 
L 422.423365 40.085171 
L 422.675636 42.876788 
L 423.011998 49.418248 
L 423.516541 64.923498 
L 424.105174 90.60166 
L 424.946078 137.813979 
L 427.384701 284.262874 
L 427.468791 284.170754 
L 428.225605 254.710164 
L 428.814238 240.164696 
L 429.23469 234.406862 
L 429.571052 232.487061 
L 429.739233 232.376728 
L 429.907414 232.802634 
L 430.159685 234.387668 
L 430.496047 238.104264 
L 431.00059 246.538067 
L 431.757404 263.491285 
L 432.682398 286.133621 
L 433.607393 267.023497 
L 434.196026 258.911247 
L 434.616478 255.509242 
L 434.95284 254.288936 
L 435.121021 254.174789 
L 435.289202 254.382642 
L 435.541473 255.275467 
L 435.877835 257.477338 
L 436.382378 262.651944 
L 437.139191 273.398059 
L 437.896005 285.588511 
L 437.980096 285.466683 
L 438.905091 272.429667 
L 439.493724 266.70107 
L 439.914176 264.229854 
L 440.250538 263.302292 
L 440.418719 263.191642 
L 440.586899 263.313082 
L 440.839171 263.918349 
L 441.175532 265.471367 
L 441.680075 269.207299 
L 442.352799 276.150503 
L 443.193703 286.132403 
L 444.202788 275.198361 
L 444.791421 270.7944 
L 445.211873 268.88909 
L 445.548235 268.178954 
L 445.800506 268.129187 
L 446.052778 268.486212 
L 446.38914 269.566309 
L 446.809592 271.798063 
L 447.398225 276.254663 
L 448.40731 285.847998 
L 448.4914 285.720619 
L 449.500486 276.85882 
L 450.089119 273.291409 
L 450.509571 271.76111 
L 450.845933 271.208714 
L 451.098204 271.194351 
L 451.350475 271.51788 
L 451.686837 272.452289 
L 452.107289 274.356526 
L 452.695922 278.138365 
L 453.705008 286.130296 
L 453.789098 285.433965 
L 454.798183 277.946538 
L 455.386816 274.951811 
L 455.807268 273.686743 
L 456.14363 273.252491 
L 456.395901 273.271122 
L 456.648173 273.580879 
L 456.984535 274.427549 
L 457.404987 276.120784 
L 457.99362 279.453062 
L 458.918615 285.956613 
L 459.002705 285.823426 
L 460.095881 278.697237 
L 460.684514 276.116687 
L 461.104966 275.048553 
L 461.441328 274.706047 
L 461.693599 274.754131 
L 461.94587 275.059946 
L 462.282232 275.851374 
L 462.786775 277.778454 
L 463.459498 281.41696 
L 464.216312 286.127178 
L 465.309488 279.636519 
L 465.898121 277.218718 
L 466.318573 276.177707 
L 466.654935 275.804101 
L 466.907206 275.799835 
L 467.159477 276.030445 
L 467.495839 276.690157 
L 467.916291 278.034868 
L 468.504924 280.715787 
L 469.429919 286.015253 
L 469.51401 285.874422 
L 470.607185 279.978726 
L 471.195818 277.812783 
L 471.616271 276.901763 
L 471.952632 276.597309 
L 472.204904 276.623432 
L 472.457175 276.865778 
L 472.793537 277.512557 
L 473.298079 279.11164 
L 473.970803 282.164137 
L 474.727617 286.122852 
L 475.904883 280.218568 
L 476.493516 278.251302 
L 476.913968 277.44555 
L 477.25033 277.199268 
L 477.502601 277.252795 
L 477.838963 277.637343 
L 478.259415 278.593537 
L 478.763958 280.349261 
L 479.520772 283.868195 
L 479.941224 286.051332 
L 480.025314 285.900296 
L 481.11849 280.703057 
L 481.707123 278.774285 
L 482.127575 277.953983 
L 482.463937 277.672302 
L 482.716208 277.686744 
L 483.05257 278.00468 
L 483.473022 278.859061 
L 483.977565 280.475365 
L 484.734379 283.779111 
L 485.238921 286.117017 
L 486.416187 280.776574 
L 487.00482 278.980228 
L 487.425273 278.236805 
L 487.761634 278.002961 
L 488.013906 278.044369 
L 488.350267 278.38567 
L 488.77072 279.24857 
L 489.275262 280.845522 
L 490.032076 284.067118 
L 490.452528 286.07535 
L 490.536619 285.910734 
L 491.629794 281.09902 
L 492.218427 279.298957 
L 492.63888 278.526735 
L 492.975241 278.256085 
L 493.227513 278.263102 
L 493.563874 278.551356 
L 493.984327 279.340058 
L 494.488869 280.843601 
L 495.245683 283.935703 
L 495.750226 286.109217 
L 496.927492 281.057342 
L 497.516125 279.344577 
L 497.936577 278.629658 
L 498.272939 278.3996 
L 498.52521 278.433185 
L 498.861572 278.750895 
L 499.282024 279.565789 
L 499.786567 281.084092 
L 500.543381 284.164196 
L 500.963833 286.092178 
L 501.132014 285.520353 
L 502.225189 280.970819 
L 502.813823 279.326963 
L 503.234275 278.661166 
L 503.570636 278.468516 
L 503.822908 278.528318 
L 504.15927 278.87772 
L 504.579722 279.725762 
L 505.168355 281.577936 
L 506.009259 285.131743 
L 506.26153 286.098745 
L 507.438797 281.124515 
L 508.02743 279.42578 
L 508.447882 278.711158 
L 508.784244 278.4765 
L 509.036515 278.504423 
L 509.372877 278.812499 
L 509.793329 279.613617 
L 510.297871 281.11577 
L 511.054685 284.179252 
L 511.475137 286.104373 
L 511.643318 285.507843 
L 512.736494 280.937891 
L 513.325127 279.274918 
L 513.745579 278.595731 
L 514.081941 278.394244 
L 514.334212 278.449254 
L 514.670574 278.795541 
L 515.091026 279.646159 
L 515.595569 281.207067 
L 516.352383 284.348435 
L 516.772835 286.084468 
L 517.950101 280.992607 
L 518.538734 279.240912 
L 518.959186 278.498184 
L 519.295548 278.249384 
L 519.547819 278.27249 
L 519.884181 278.58272 
L 520.304633 279.40125 
L 520.809176 280.94623 
L 521.56599 284.114367 
L 521.986442 286.113399 
L 522.238713 285.063525 
L 523.247799 280.692091 
L 523.836432 278.941362 
L 524.256884 278.219985 
L 524.593246 278.00041 
L 524.845517 278.052088 
L 525.181879 278.408445 
L 525.602331 279.295527 
L 526.106873 280.934101 
L 526.863687 284.250456 
L 527.28414 286.064467 
L 528.545496 280.319146 
L 529.134129 278.552 
L 529.554581 277.846042 
L 529.890943 277.655278 
L 530.143214 277.737828 
L 530.479576 278.146822 
L 530.900028 279.115853 
L 531.488661 281.216809 
L 532.329566 285.243516 
L 532.497747 286.120147 
L 532.750018 284.952279 
L 533.843194 279.85558 
L 534.431827 278.052349 
L 534.852279 277.35564 
L 535.188641 277.194004 
L 535.440912 277.310816 
L 535.777274 277.781131 
L 536.197726 278.84931 
L 536.786359 281.121713 
L 537.627263 285.424825 
L 537.795444 286.035258 
L 539.056801 279.614589 
L 539.645434 277.618221 
L 540.065886 276.810608 
L 540.402248 276.583096 
L 540.654519 276.666182 
L 540.990881 277.114594 
L 541.411333 278.194762 
L 541.915876 280.167935 
L 542.67269 284.142536 
L 543.009051 286.125182 
L 543.345413 284.260328 
L 544.354498 278.898223 
L 544.943131 276.799673 
L 545.363583 275.97594 
L 545.699945 275.772363 
L 545.952217 275.895122 
L 546.288578 276.424638 
L 546.70903 277.648372 
L 547.297664 280.278683 
L 548.138568 285.307022 
L 548.306749 285.989822 
L 549.568105 278.380672 
L 550.156738 275.979596 
L 550.577191 274.991413 
L 550.913552 274.697499 
L 551.165824 274.780067 
L 551.418095 275.12385 
L 551.754457 275.979015 
L 552.258999 278.048314 
L 552.931723 281.994848 
L 553.520356 286.128874 
L 553.940808 283.205417 
L 554.949893 276.750657 
L 555.538526 274.295735 
L 555.958978 273.390124 
L 556.21125 273.225002 
L 556.463521 273.353903 
L 556.715792 273.777689 
L 557.052154 274.790493 
L 557.556697 277.19671 
L 558.22942 281.741731 
L 558.818053 285.911699 
L 560.1635 275.576583 
L 560.752133 272.60751 
L 561.172586 271.440933 
L 561.424857 271.17305 
L 561.593038 271.182547 
L 561.845309 271.482669 
L 562.181671 272.412443 
L 562.602123 274.387286 
L 563.190756 278.475613 
L 564.03166 286.131467 
L 564.115751 285.434905 
L 565.461198 273.234021 
L 566.049831 269.747373 
L 566.470283 268.399028 
L 566.722554 268.108928 
L 566.890735 268.141996 
L 567.143007 268.536579 
L 567.479368 269.703526 
L 567.899821 272.149409 
L 568.488454 277.191507 
L 569.329358 285.751324 
L 570.758895 269.584437 
L 571.347528 265.233082 
L 571.767981 263.553393 
L 572.020252 263.200412 
L 572.188433 263.252665 
L 572.440704 263.771431 
L 572.777066 265.286381 
L 573.197518 268.46022 
L 573.786151 275.033475 
L 574.542965 286.133117 
L 574.627055 284.915473 
L 576.140683 262.146504 
L 576.729316 256.523139 
L 577.149769 254.483801 
L 577.40204 254.172807 
L 577.570221 254.368698 
L 577.822492 255.283622 
L 578.158854 257.673419 
L 578.579306 262.501676 
L 579.167939 272.387449 
L 579.840663 285.259769 
L 581.774743 241.246289 
L 582.279285 234.756236 
L 582.615647 232.647293 
L 582.783828 232.353064 
L 582.867918 232.407864 
L 583.036099 232.93597 
L 583.28837 234.811872 
L 583.624732 239.416384 
L 584.045184 248.645511 
L 584.549727 264.788379 
L 585.05427 286.133921 
L 585.811084 246.058207 
L 587.408802 145.610527 
L 588.501977 84.490624 
L 589.174701 57.670298 
L 589.679244 44.958031 
L 590.015605 40.422207 
L 590.267877 39.176389 
L 590.351967 39.176389 
L 590.520148 39.79977 
L 590.772419 42.283872 
L 591.108781 48.42854 
L 591.529233 60.440209 
L 592.117866 84.490624 
L 592.958771 130.158426 
L 595.565574 286.133921 
L 596.322388 256.037625 
L 596.911021 240.951736 
L 597.331473 234.811872 
L 597.667835 232.601258 
L 597.836016 232.353064 
L 598.004197 232.647293 
L 598.256468 234.048109 
L 598.59283 237.547492 
L 599.097373 245.725151 
L 599.854186 262.467747 
L 600.779181 285.259769 
L 600.863272 285.143339 
L 601.704176 267.740664 
L 602.292809 259.364561 
L 602.713261 255.755802 
L 603.049623 254.368698 
L 603.217804 254.172807 
L 603.385985 254.300994 
L 603.638256 255.079712 
L 603.974618 257.142797 
L 604.47916 262.146504 
L 605.151884 271.439633 
L 606.076879 286.133117 
L 607.085964 271.941137 
L 607.674597 266.390055 
L 608.095049 264.062335 
L 608.431411 263.252665 
L 608.599592 263.200412 
L 608.767773 263.379137 
L 609.020044 264.06709 
L 609.356406 265.7217 
L 609.860948 269.584437 
L 610.617762 277.616716 
L 611.290486 285.751324 
L 611.374576 285.626529 
L 612.383662 274.823796 
L 612.972295 270.554637 
L 613.392747 268.760147 
L 613.729108 268.141996 
L 613.897289 268.108928 
L 614.06547 268.257644 
L 614.317742 268.812627 
L 614.654103 270.138703 
L 615.158646 273.234021 
L 615.91546 279.691948 
L 616.588183 286.131467 
L 617.681359 276.555013 
L 618.269992 273.097868 
L 618.690444 271.658846 
L 619.026806 271.182547 
L 619.279077 271.225054 
L 619.531349 271.603882 
L 619.86771 272.60751 
L 620.372253 275.069174 
L 621.044976 279.722372 
L 621.80179 285.911699 
L 621.885881 285.781591 
L 622.894966 278.208256 
L 623.483599 275.120591 
L 623.904051 273.777689 
L 624.240413 273.278077 
L 624.492684 273.247606 
L 624.744956 273.509407 
L 625.081317 274.295735 
L 625.50177 275.922542 
L 626.090403 279.185369 
L 627.099488 286.128874 
L 627.183578 285.518796 
L 628.192664 278.924007 
L 628.781297 276.260974 
L 629.201749 275.12385 
L 629.538111 274.723442 
L 629.790382 274.728045 
L 630.042653 274.991413 
L 630.379015 275.729472 
L 630.799467 277.221161 
L 631.3881 280.178018 
L 632.313095 285.989822 
L 632.397185 285.85309 
L 633.490361 279.431204 
L 634.078994 277.087127 
L 634.499446 276.108205 
L 634.835808 275.786931 
L 635.088079 275.822088 
L 635.340351 276.091287 
L 635.676712 276.799673 
L 636.181255 278.538982 
L 636.853979 281.842692 
L 637.610793 286.125182 
L 638.703968 280.167935 
L 639.292601 277.934768 
L 639.713053 276.966812 
L 640.049415 276.614197 
L 640.301686 276.603945 
L 640.553958 276.810608 
L 640.89032 277.412257 
L 641.310772 278.647313 
L 641.899405 281.121411 
L 642.8244 286.035258 
L 642.90849 285.88969 
L 644.001666 280.391736 
L 644.590299 278.36093 
L 645.010751 277.501646 
L 645.347113 277.21022 
L 645.599384 277.229725 
L 645.851655 277.451954 
L 646.188017 278.052349 
L 646.69256 279.545587 
L 647.365283 282.408194 
L 648.122097 286.120147 
L 649.299363 280.538868 
L 649.887996 278.669878 
L 650.308448 277.90015 
L 650.64481 277.661233 
L 650.897081 277.707966 
L 651.233443 278.067867 
L 651.653895 278.970616 
L 652.158438 280.635085 
L 652.915252 283.982525 
L 653.335704 286.064467 
L 653.419795 285.907124 
L 654.51297 280.934101 
L 655.101603 279.080796 
L 655.522056 278.289006 
L 655.858417 278.014166 
L 656.110689 278.024563 
L 656.44705 278.325492 
L 656.867503 279.141747 
L 657.372045 280.692091 
L 658.128859 283.871077 
L 658.633402 286.113399 
L 659.810668 280.94623 
L 660.399301 279.201059 
L 660.819753 278.475613 
L 661.156115 278.244697 
L 661.408386 278.281821 
L 661.744748 278.609334 
L 662.1652 279.443494 
L 662.669743 280.992607 
L 663.426557 284.126665 
L 663.847009 286.084468 
L 664.01519 285.516778 
L 665.108365 280.910902 
L 665.696998 279.252668 
L 666.117451 278.583898 
L 666.453812 278.392888 
L 666.706084 278.455973 
L 667.042445 278.812039 
L 667.462898 279.67116 
L 668.051531 281.54151 
L 668.892435 285.120098 
L 669.144706 286.104373 
L 670.321972 281.11577 
L 670.910605 279.418246 
L 671.331058 278.706888 
L 671.667419 278.475613 
L 671.919691 278.506189 
L 672.256052 278.817533 
L 672.676505 279.621602 
L 673.181047 281.124515 
L 673.937861 284.181481 
L 674.358313 286.098745 
L 674.526494 285.517383 
L 675.61967 280.979642 
L 676.208303 279.334242 
L 676.628755 278.665038 
L 676.965117 278.46896 
L 677.217388 278.526119 
L 677.55375 278.872321 
L 677.974202 279.717583 
L 678.562835 281.569599 
L 679.40374 285.133081 
L 679.656011 286.092178 
L 680.833277 281.084092 
L 681.42191 279.367604 
L 681.842362 278.642706 
L 682.178724 278.40231 
L 682.430995 278.427791 
L 682.767357 278.735511 
L 683.187809 279.541383 
L 683.692352 281.057342 
L 684.449166 284.157286 
L 684.869618 286.109217 
L 685.037799 285.491382 
L 686.130974 280.843601 
L 686.719608 279.146122 
L 687.14006 278.449852 
L 687.476421 278.240679 
L 687.728693 278.293905 
L 688.065055 278.643536 
L 688.485507 279.507878 
L 688.990049 281.09902 
L 689.746863 284.309999 
L 690.167315 286.07535 
L 691.344582 280.845522 
L 691.933215 279.039322 
L 692.353667 278.270251 
L 692.690029 278.009905 
L 692.9423 278.030544 
L 693.278662 278.34623 
L 693.699114 279.185917 
L 694.203656 280.776574 
L 694.96047 284.048131 
L 695.380922 286.117017 
L 695.633194 285.015912 
L 696.726369 280.166531 
L 697.315003 278.459074 
L 697.735455 277.803593 
L 698.071816 277.655559 
L 698.324088 277.770411 
L 698.66045 278.221426 
L 699.080902 279.23893 
L 699.669535 281.394771 
L 700.67862 286.051332 
L 701.939977 280.016419 
L 702.52861 278.150755 
L 702.949062 277.401043 
L 703.285424 277.194425 
L 703.537695 277.277166 
L 703.874057 277.703069 
L 704.294509 278.719875 
L 704.799051 280.568743 
L 705.555865 284.277936 
L 705.892227 286.122852 
L 706.228589 284.405294 
L 707.237674 279.442827 
L 707.826307 277.512557 
L 708.246759 276.761303 
L 708.583121 276.58176 
L 708.835392 276.701262 
L 709.171754 277.197248 
L 709.592206 278.33262 
L 710.180839 280.759341 
L 711.021744 285.374636 
L 711.189925 286.015253 
L 712.451281 279.084441 
L 713.039914 276.914964 
L 713.460366 276.030445 
L 713.796728 275.774955 
L 714.048999 275.858204 
L 714.301271 276.177707 
L 714.637632 276.961475 
L 715.142175 278.843192 
L 715.814899 282.409887 
L 716.403532 286.127178 
L 716.823984 283.525914 
L 717.833069 277.778454 
L 718.421702 275.613976 
L 718.842154 274.827786 
L 719.094426 274.693084 
L 719.346697 274.819287 
L 719.683059 275.392353 
L 720.103511 276.732723 
L 720.608053 279.155788 
L 721.364867 284.014516 
L 721.701229 285.956613 
L 722.962586 277.430204 
L 723.551219 274.712527 
L 723.971671 273.580879 
L 724.308033 273.232224 
L 724.560304 273.311883 
L 724.812575 273.686743 
L 725.148937 274.63672 
L 725.569389 276.50284 
L 726.158022 280.189219 
L 726.914836 286.130296 
L 726.998927 285.561487 
L 728.260283 275.839462 
L 728.848916 272.770904 
L 729.269368 271.51788 
L 729.52164 271.194351 
L 729.773911 271.208714 
L 730.026182 271.566022 
L 730.362544 272.570316 
L 730.782996 274.631297 
L 731.371629 278.81723 
L 732.212534 285.847998 
L 733.557981 273.543717 
L 734.146614 269.938221 
L 734.567066 268.486212 
L 734.819337 268.129187 
L 734.987518 268.11654 
L 735.239789 268.442016 
L 735.576151 269.518208 
L 735.996603 271.858013 
L 736.585236 276.777561 
L 737.426141 286.132403 
L 737.510231 285.241836 
L 738.939769 269.207299 
L 739.528402 265.007045 
L 739.948854 263.459278 
L 740.201125 263.191642 
L 740.369306 263.302292 
L 740.621577 263.909518 
L 740.957939 265.541023 
L 741.378391 268.851784 
L 741.967024 275.584571 
L 742.723838 285.588511 
L 744.321557 261.653353 
L 744.91019 256.238604 
L 745.246551 254.604286 
L 745.498823 254.174789 
L 745.667004 254.288936 
L 745.919275 255.078939 
L 746.255637 257.301882 
L 746.676089 261.93002 
L 747.264722 271.57378 
L 747.937445 286.133621 
L 748.021536 284.254243 
L 749.871525 241.942163 
L 750.376068 235.1533 
L 750.71243 232.802634 
L 750.880611 232.376728 
L 750.964701 232.363318 
L 751.132882 232.750787 
L 751.385153 234.406862 
L 751.721515 238.706726 
L 752.141967 247.548028 
L 752.64651 263.237523 
L 753.235143 284.262874 
L 754.076047 238.607868 
L 757.019213 68.124785 
L 757.607846 49.418248 
L 758.028298 41.741761 
L 758.280569 39.566112 
L 758.44875 39.150394 
L 758.44875 39.150394 
" clip-path="url(#p7743f044be)" style="fill: none; stroke: #2ca02c; stroke-width: 1.2; stroke-linecap: square"/>
   </g>
   <g id="line2d_66">
    <path d="M 422.171094 39.150394 
L 422.339275 39.312587 
L 422.591546 40.163051 
L 422.927908 42.422396 
L 423.34836 47.023248 
L 423.852902 55.057245 
L 424.525626 69.744842 
L 425.36653 93.699381 
L 426.459706 131.957165 
L 430.580137 286.133765 
L 431.505132 262.023735 
L 432.261946 247.408011 
L 432.93467 238.510881 
L 433.439212 234.37143 
L 433.859664 232.533835 
L 434.111936 232.107899 
L 434.280117 232.095527 
L 434.448298 232.293701 
L 434.700569 232.971767 
L 435.036931 234.549812 
L 435.541473 238.234138 
L 436.214197 245.238397 
L 437.139191 257.720511 
L 438.989181 286.132992 
L 439.073272 284.883779 
L 440.166447 270.198307 
L 441.007352 261.621034 
L 441.680075 256.906864 
L 442.184618 254.732096 
L 442.60507 253.828051 
L 442.857341 253.678219 
L 443.109612 253.816572 
L 443.361884 254.235387 
L 443.698246 255.212781 
L 444.202788 257.515968 
L 444.791421 261.324598 
L 445.632326 268.409792 
L 447.061863 282.807393 
L 447.398225 286.131672 
L 448.659581 274.33169 
L 449.500486 268.278734 
L 450.173209 264.88422 
L 450.677752 263.287086 
L 451.098204 262.603205 
L 451.350475 262.47658 
L 451.602747 262.560401 
L 451.939108 262.992449 
L 452.359561 264.02665 
L 452.864103 265.940349 
L 453.536827 269.486371 
L 454.461821 275.7655 
L 455.807268 286.129759 
L 457.152715 276.351204 
L 457.99362 271.637722 
L 458.666343 268.989398 
L 459.170886 267.749074 
L 459.591338 267.228924 
L 459.9277 267.152425 
L 460.264062 267.37458 
L 460.600423 267.887611 
L 461.104966 269.174944 
L 461.693599 271.390264 
L 462.450413 275.173708 
L 463.627679 282.410034 
L 464.216312 286.127178 
L 465.64585 277.473959 
L 466.486754 273.570989 
L 467.159477 271.391865 
L 467.66402 270.387827 
L 468.084472 269.986666 
L 468.420834 269.95462 
L 468.757196 270.177177 
L 469.177648 270.803669 
L 469.68219 272.038424 
L 470.354914 274.417077 
L 471.195818 278.329845 
L 472.625356 286.123826 
L 472.709446 285.64487 
L 474.138984 278.116247 
L 474.979888 274.740315 
L 475.652611 272.876229 
L 476.157154 272.037936 
L 476.577606 271.726575 
L 476.913968 271.734525 
L 477.25033 271.969154 
L 477.670782 272.572699 
L 478.175325 273.727331 
L 478.848048 275.91942 
L 479.688952 279.495526 
L 481.034399 286.119556 
L 482.548027 278.806056 
L 483.388932 275.690173 
L 484.061655 273.952599 
L 484.566198 273.1594 
L 484.98665 272.853411 
L 485.323012 272.845383 
L 485.659373 273.04698 
L 486.079826 273.587028 
L 486.584368 274.636557 
L 487.257092 276.648657 
L 488.097996 279.956767 
L 489.443443 286.114164 
L 491.041161 278.894741 
L 491.882066 276.02256 
L 492.554789 274.445336 
L 493.059332 273.747798 
L 493.479784 273.503947 
L 493.816146 273.5337 
L 494.152508 273.762362 
L 494.57296 274.321283 
L 495.077502 275.372156 
L 495.750226 277.352321 
L 496.59113 280.573491 
L 497.852487 286.107363 
L 499.450205 279.122346 
L 500.291109 276.319625 
L 500.963833 274.76813 
L 501.468376 274.073206 
L 501.888828 273.821571 
L 502.225189 273.839273 
L 502.561551 274.051349 
L 502.982003 274.584174 
L 503.486546 275.597709 
L 504.15927 277.522007 
L 505.000174 280.671817 
L 506.26153 286.098743 
L 507.943339 278.85174 
L 508.784244 276.1328 
L 509.456967 274.653396 
L 509.96151 274.0143 
L 510.381962 273.809765 
L 510.718324 273.865237 
L 511.138776 274.207352 
L 511.643318 275.0065 
L 512.231951 276.438541 
L 512.988765 278.962928 
L 513.997851 283.195182 
L 514.670574 286.087702 
L 516.352383 278.714524 
L 517.193287 275.924187 
L 517.866011 274.393395 
L 518.370553 273.723015 
L 518.791005 273.499108 
L 519.127367 273.544387 
L 519.547819 273.881325 
L 519.968272 274.522838 
L 520.556905 275.903714 
L 521.229628 278.094935 
L 522.154623 281.933287 
L 523.079618 286.073325 
L 524.845517 278.044119 
L 525.686421 275.194592 
L 526.359145 273.658153 
L 526.863687 273.01043 
L 527.28414 272.823705 
L 527.620501 272.910769 
L 528.040954 273.314732 
L 528.545496 274.221145 
L 529.134129 275.822723 
L 529.890943 278.629097 
L 530.900028 283.324369 
L 531.488661 286.054165 
L 533.254561 277.431142 
L 534.095465 274.337262 
L 534.768188 272.651438 
L 535.272731 271.92758 
L 535.693183 271.704801 
L 536.029545 271.782531 
L 536.365907 272.088616 
L 536.786359 272.787444 
L 537.290902 274.07075 
L 537.963625 276.468486 
L 538.804529 280.368068 
L 539.897705 286.027792 
L 541.747695 276.068041 
L 542.588599 272.697465 
L 543.261323 270.886952 
L 543.765865 270.135607 
L 544.102227 269.944618 
L 544.438589 270.00873 
L 544.77495 270.329709 
L 545.195403 271.088416 
L 545.699945 272.504677 
L 546.372669 275.180829 
L 547.213573 279.575861 
L 548.306749 285.989814 
L 550.240829 274.032736 
L 551.081733 270.19292 
L 551.670366 268.35076 
L 552.174909 267.42301 
L 552.511271 267.163979 
L 552.847632 267.202873 
L 553.183994 267.543535 
L 553.604446 268.392105 
L 554.108989 270.013394 
L 554.697622 272.681123 
L 555.454436 277.171608 
L 556.547612 285.143275 
L 556.715792 285.931412 
L 558.733963 270.791873 
L 559.574867 266.130549 
L 560.1635 263.899433 
L 560.668043 262.78821 
L 561.004405 262.492391 
L 561.256676 262.513407 
L 561.508947 262.746194 
L 561.845309 263.388009 
L 562.265761 264.719255 
L 562.770304 267.069015 
L 563.443027 271.38213 
L 564.283932 278.362648 
L 565.124836 285.831947 
L 567.395278 263.614317 
L 568.152092 258.236923 
L 568.740725 255.367399 
L 569.161177 254.1465 
L 569.497539 253.711804 
L 569.74981 253.716714 
L 570.002081 254.012847 
L 570.338443 254.867904 
L 570.758895 256.680384 
L 571.263438 259.931038 
L 571.936161 265.99563 
L 572.777066 276.005291 
L 573.53388 285.629324 
L 576.477045 242.823451 
L 577.149769 236.518271 
L 577.654311 233.475868 
L 577.990673 232.375412 
L 578.242944 232.078645 
L 578.411125 232.144584 
L 578.663396 232.653409 
L 578.999758 234.122725 
L 579.42021 237.27432 
L 579.924753 243.037328 
L 580.513386 252.519527 
L 581.2702 268.981581 
L 581.942923 285.011645 
L 582.952009 251.760994 
L 584.465637 193.499361 
L 586.736078 106.176734 
L 587.745164 75.191831 
L 588.586068 55.84591 
L 589.174701 46.475888 
L 589.679244 41.42538 
L 590.015605 39.646907 
L 590.267877 39.160533 
L 590.436058 39.241635 
L 590.604238 39.646907 
L 590.85651 40.860336 
L 591.192871 43.597561 
L 591.697414 50.045154 
L 592.286047 60.948091 
L 593.042861 79.820633 
L 593.967856 109.070957 
L 595.313303 159.740944 
L 598.088287 266.345113 
L 598.67692 285.011645 
L 598.761011 284.899926 
L 599.686006 261.086685 
L 600.442819 246.738128 
L 601.115543 238.083634 
L 601.620086 234.122725 
L 602.040538 232.428272 
L 602.292809 232.08474 
L 602.46099 232.12557 
L 602.713261 232.576715 
L 603.049623 233.870979 
L 603.470075 236.518271 
L 604.058708 241.911863 
L 604.815522 251.152767 
L 605.992788 268.655142 
L 607.085964 285.629324 
L 607.170054 285.506795 
L 608.347321 269.705539 
L 609.188225 261.267679 
L 609.860948 256.680384 
L 610.365491 254.604563 
L 610.701853 253.881461 
L 610.954124 253.683001 
L 611.206395 253.773802 
L 611.458667 254.1465 
L 611.795028 255.065235 
L 612.299571 257.288006 
L 612.888204 261.016912 
L 613.729108 268.019635 
L 615.158646 282.372391 
L 615.495008 285.831947 
L 615.579098 285.705062 
L 616.840455 273.987318 
L 617.681359 268.026355 
L 618.354083 264.719255 
L 618.858625 263.192065 
L 619.279077 262.567371 
L 619.531349 262.476021 
L 619.78362 262.594579 
L 620.119982 263.071611 
L 620.540434 264.159003 
L 621.044976 266.130549 
L 621.7177 269.740719 
L 622.642695 276.078544 
L 623.904051 285.931412 
L 623.988142 285.800097 
L 625.333589 276.083608 
L 626.174493 271.440814 
L 626.847217 268.860873 
L 627.351759 267.675864 
L 627.772211 267.202873 
L 628.108573 267.163979 
L 628.444935 267.42301 
L 628.865387 268.152652 
L 629.36993 269.588285 
L 630.042653 272.346338 
L 630.883558 276.866789 
L 632.313095 285.989814 
L 632.397185 285.853056 
L 633.826723 277.252118 
L 634.667627 273.408351 
L 635.340351 271.286893 
L 635.844893 270.329709 
L 636.265346 269.968622 
L 636.601707 269.968606 
L 636.938069 270.222633 
L 637.358521 270.886952 
L 637.863064 272.163718 
L 638.535787 274.590395 
L 639.376692 278.546598 
L 640.722139 286.027792 
L 640.806229 285.884173 
L 642.235767 278.3109 
L 643.076671 274.883253 
L 643.749394 272.968385 
L 644.253937 272.088616 
L 644.674389 271.741652 
L 645.010751 271.721062 
L 645.347113 271.92758 
L 645.767565 272.497242 
L 646.272107 273.614117 
L 646.944831 275.762848 
L 647.785735 279.299473 
L 649.131182 286.054165 
L 649.215273 285.901907 
L 650.728901 278.629097 
L 651.569805 275.560304 
L 652.242528 273.869205 
L 652.747071 273.114093 
L 653.167523 272.840879 
L 653.503885 272.859174 
L 653.840247 273.086743 
L 654.260699 273.658153 
L 654.765242 274.742711 
L 655.437965 276.795151 
L 656.278869 280.140146 
L 657.540226 286.073325 
L 657.624316 285.910215 
L 659.137944 279.060478 
L 659.978849 276.143963 
L 660.651572 274.522838 
L 661.156115 273.789238 
L 661.576567 273.5143 
L 661.912929 273.519052 
L 662.24929 273.723015 
L 662.669743 274.252071 
L 663.174285 275.269533 
L 663.847009 277.211143 
L 664.687913 280.396968 
L 665.94927 286.087702 
L 666.03336 285.910937 
L 667.631078 278.962928 
L 668.471983 276.203161 
L 669.144706 274.6943 
L 669.649249 274.034459 
L 670.069701 273.813108 
L 670.406063 273.855195 
L 670.826515 274.180372 
L 671.331058 274.958458 
L 671.919691 276.364312 
L 672.676505 278.85174 
L 673.68559 283.028986 
L 674.358313 286.098743 
L 674.526494 285.51685 
L 676.040122 279.00899 
L 676.881026 276.247336 
L 677.55375 274.725454 
L 678.058293 274.051349 
L 678.478745 273.816554 
L 678.815106 273.847638 
L 679.235559 274.159663 
L 679.656011 274.76813 
L 680.244644 276.089178 
L 680.917367 278.193785 
L 681.842362 281.886705 
L 682.767357 286.107363 
L 682.851447 285.891182 
L 684.533256 278.555475 
L 685.374161 275.808683 
L 686.046884 274.321283 
L 686.551427 273.686724 
L 686.971879 273.49382 
L 687.308241 273.564115 
L 687.728693 273.931952 
L 688.233235 274.77271 
L 688.821868 276.267894 
L 689.578682 278.894741 
L 690.587768 283.292734 
L 691.176401 286.114164 
L 691.428672 285.052845 
L 692.9423 278.209276 
L 693.783204 275.314233 
L 694.455928 273.732321 
L 694.96047 273.04698 
L 695.380922 272.827644 
L 695.717284 272.888358 
L 696.053646 273.1594 
L 696.474098 273.788903 
L 696.978641 274.95219 
L 697.651364 277.131048 
L 698.492269 280.675865 
L 699.585444 286.119556 
L 699.669535 285.836184 
L 701.435434 277.254568 
L 702.276338 274.209535 
L 702.949062 272.572699 
L 703.453604 271.889481 
L 703.789966 271.711152 
L 704.126328 271.760304 
L 704.46269 272.037936 
L 704.883142 272.702048 
L 705.387684 273.946069 
L 706.060408 276.297744 
L 706.901312 280.154019 
L 707.994488 286.123826 
L 708.078578 285.787615 
L 709.844478 276.263413 
L 710.685382 272.838862 
L 711.358105 270.973893 
L 711.862648 270.177177 
L 712.19901 269.95462 
L 712.535372 269.986666 
L 712.871733 270.275576 
L 713.292186 270.994948 
L 713.796728 272.366386 
L 714.469452 274.989434 
L 715.310356 279.333593 
L 716.403532 286.127178 
L 716.487622 285.714863 
L 718.337612 274.255927 
L 719.178516 270.353349 
L 719.767149 268.456146 
L 720.271692 267.475969 
L 720.608053 267.180193 
L 720.944415 267.181543 
L 721.280777 267.484431 
L 721.701229 268.286345 
L 722.205772 269.853974 
L 722.794405 272.464736 
L 723.551219 276.895264 
L 724.644394 284.81627 
L 724.812575 286.129759 
L 725.317118 282.271652 
L 726.830746 271.062744 
L 727.67165 266.325224 
L 728.260283 264.02665 
L 728.764826 262.850717 
L 729.101188 262.509286 
L 729.353459 262.49526 
L 729.60573 262.692612 
L 729.942092 263.287086 
L 730.362544 264.56002 
L 730.867087 266.84294 
L 731.53981 271.076197 
L 732.380715 277.979217 
L 733.221619 286.131672 
L 733.810252 280.193094 
L 735.40797 264.66322 
L 736.248875 258.489333 
L 736.837508 255.529024 
L 737.25796 254.235387 
L 737.594322 253.738866 
L 737.846593 253.695824 
L 738.098864 253.943054 
L 738.435226 254.732096 
L 738.855678 256.462085 
L 739.360221 259.616304 
L 740.032944 265.562117 
L 740.873849 275.449884 
L 741.630663 286.132992 
L 742.471567 273.277144 
L 744.153376 248.370569 
L 744.99428 238.988291 
L 745.582913 234.549812 
L 746.003365 232.696095 
L 746.339727 232.095527 
L 746.507908 232.107899 
L 746.676089 232.336644 
L 746.92836 233.096918 
L 747.264722 234.912822 
L 747.685174 238.510881 
L 748.189717 244.819415 
L 748.77835 254.934837 
L 749.535164 272.172817 
L 750.039706 286.133765 
L 750.79652 262.070195 
L 752.141967 211.946618 
L 755.169223 96.390641 
L 756.094218 69.744842 
L 756.851032 53.533861 
L 757.439665 44.949321 
L 757.944207 40.607833 
L 758.280569 39.312587 
L 758.44875 39.150394 
L 758.44875 39.150394 
" clip-path="url(#p7743f044be)" style="fill: none; stroke: #1f77b4; stroke-width: 1.4; stroke-linecap: square"/>
   </g>
   <g id="line2d_67">
    <path d="M 598.716863 286.195781 
L 598.716863 26.798125 
" clip-path="url(#p7743f044be)" style="fill: none; stroke-dasharray: 1.3,2.145; stroke-dashoffset: 0; stroke: #d62728; stroke-width: 1.3"/>
   </g>
   <g id="patch_9">
    <path d="M 422.171094 286.195781 
L 422.171094 26.798125 
" style="fill: none; stroke: #000000; stroke-width: 0.8; stroke-linejoin: miter; stroke-linecap: square"/>
   </g>
   <g id="patch_10">
    <path d="M 758.44875 286.195781 
L 758.44875 26.798125 
" style="fill: none; stroke: #000000; stroke-width: 0.8; stroke-linejoin: miter; stroke-linecap: square"/>
   </g>
   <g id="patch_11">
    <path d="M 422.171094 286.195781 
L 758.44875 286.195781 
" style="fill: none; stroke: #000000; stroke-width: 0.8; stroke-linejoin: miter; stroke-linecap: square"/>
   </g>
   <g id="patch_12">
    <path d="M 422.171094 26.798125 
L 758.44875 26.798125 
" style="fill: none; stroke: #000000; stroke-width: 0.8; stroke-linejoin: miter; stroke-linecap: square"/>
   </g>
   <g id="text_39">
    <text style="font-size: 8.5px; font-family: sans-serif" transform="translate(428.896647 151.176572)">N = 20 sitúa un nodo en 32,05 órdenes y lo</text>
    <text style="font-size: 8.5px; font-family: sans-serif" transform="translate(428.896647 161.378896)">elimina; la potencia de dos N = 32 lo deja pasar</text>
   </g>
   <g id="text_40">
    <text style="font-weight: 700; font-size: 12px; font-family: sans-serif; text-anchor: middle" x="590.309922" y="16.798125" transform="rotate(-0 590.309922 16.798125)">Rechazo de un tono eligiendo N (McFadden 1987)</text>
   </g>
   <g id="legend_2">
    <g id="patch_13">
     <path d="M 626.65625 69.2 
L 752.84875 69.2 
Q 754.44875 69.2 754.44875 67.6 
L 754.44875 32.398125 
Q 754.44875 30.798125 752.84875 30.798125 
L 626.65625 30.798125 
Q 625.05625 30.798125 625.05625 32.398125 
L 625.05625 67.6 
Q 625.05625 69.2 626.65625 69.2 
z
" style="fill: #ffffff; opacity: 0.8; stroke: #cccccc; stroke-linejoin: miter"/>
    </g>
    <g id="line2d_68">
     <path d="M 628.25625 37.276875 
L 636.25625 37.276875 
L 644.25625 37.276875 
" style="fill: none; stroke: #2ca02c; stroke-width: 1.2; stroke-linecap: square"/>
    </g>
    <g id="text_41">
     <text style="font-size: 8px; font-family: sans-serif; text-anchor: start" x="650.65625" y="40.076875" transform="rotate(-0 650.65625 40.076875)">N = 32 (potencia de dos)</text>
    </g>
    <g id="line2d_69">
     <path d="M 628.25625 49.2775 
L 636.25625 49.2775 
L 644.25625 49.2775 
" style="fill: none; stroke: #1f77b4; stroke-width: 1.4; stroke-linecap: square"/>
    </g>
    <g id="text_42">
     <text style="font-size: 8px; font-family: sans-serif; text-anchor: start" x="650.65625" y="52.0775" transform="rotate(-0 650.65625 52.0775)">N = 20 (nodo en 32,05)</text>
    </g>
    <g id="line2d_70">
     <path d="M 628.25625 61.278125 
L 636.25625 61.278125 
L 644.25625 61.278125 
" style="fill: none; stroke-dasharray: 1.3,2.145; stroke-dashoffset: 0; stroke: #d62728; stroke-width: 1.3"/>
    </g>
    <g id="text_43">
     <text style="font-size: 8px; font-family: sans-serif; text-anchor: start" x="650.65625" y="64.078125" transform="rotate(-0 650.65625 64.078125)">Tono interferente (32,05)</text>
    </g>
   </g>
  </g>
 </g>
 <defs>
  <clipPath id="pc7a2e077d3">
   <rect x="38.171094" y="26.798125" width="336.277656" height="259.397656"/>
  </clipPath>
  <clipPath id="p7743f044be">
   <rect x="422.171094" y="26.798125" width="336.277656" height="259.397656"/>
  </clipPath>
 </defs>
</svg>
