<?xml version="1.0" encoding="utf-8" standalone="no"?>
<!DOCTYPE svg PUBLIC "-//W3C//DTD SVG 1.1//EN"
  "http://www.w3.org/Graphics/SVG/1.1/DTD/svg11.dtd">
<svg xmlns:xlink="http://www.w3.org/1999/xlink" width="712.781562pt" height="603.278438pt" viewBox="0 0 712.781562 603.278438" xmlns="http://www.w3.org/2000/svg" version="1.1">
 <metadata>
  <rdf:RDF xmlns:dc="http://purl.org/dc/elements/1.1/" xmlns:cc="http://creativecommons.org/ns#" xmlns:rdf="http://www.w3.org/1999/02/22-rdf-syntax-ns#">
   <cc:Work>
    <dc:type rdf:resource="http://purl.org/dc/dcmitype/StillImage"/>
    <dc:format>image/svg+xml</dc:format>
    <dc:creator>
     <cc:Agent>
      <dc:title>Matplotlib v3.11.1, https://matplotlib.org/</dc:title>
     </cc:Agent>
    </dc:creator>
   </cc:Work>
  </rdf:RDF>
 </metadata>
 <defs>
  <style type="text/css">*{stroke-linejoin: round; stroke-linecap: butt}</style>
 </defs>
 <g id="figure_1">
  <g id="patch_1">
   <path d="M 0 603.278438 
L 712.781562 603.278438 
L 712.781562 0 
L 0 0 
z
" style="fill: #ffffff"/>
  </g>
  <g id="axes_1">
   <g id="patch_2">
    <path d="M 44.103906 285.65918 
L 705.581563 285.65918 
L 705.581563 67.243047 
L 44.103906 67.243047 
z
" style="fill: #ffffff"/>
   </g>
   <g id="matplotlib.axis_1">
    <g id="xtick_1">
     <g id="line2d_1">
      <path d="M 44.103906 285.65918 
L 44.103906 67.243047 
" clip-path="url(#p6b8296e1d3)" style="fill: none; stroke-dasharray: 2.96,1.28; stroke-dashoffset: 0; stroke: #b0b0b0; stroke-opacity: 0.5; stroke-width: 0.8"/>
     </g>
     <g id="line2d_2">
      <defs>
       <path id="m3d27035b55" d="M 0 0 
L 0 3.5 
" style="stroke: #000000; stroke-width: 0.8"/>
      </defs>
      <g>
       <use xlink:href="#m3d27035b55" x="44.103906" y="285.65918" style="stroke: #000000; stroke-width: 0.8"/>
      </g>
     </g>
     <g id="text_1">
      <text style="font-size: 10px; font-family: sans-serif; text-anchor: middle" x="44.103906" y="300.256836" transform="rotate(-0 44.103906 300.256836)">0.00</text>
     </g>
    </g>
    <g id="xtick_2">
     <g id="line2d_3">
      <path d="M 120.10088 285.65918 
L 120.10088 67.243047 
" clip-path="url(#p6b8296e1d3)" style="fill: none; stroke-dasharray: 2.96,1.28; stroke-dashoffset: 0; stroke: #b0b0b0; stroke-opacity: 0.5; stroke-width: 0.8"/>
     </g>
     <g id="line2d_4">
      <g>
       <use xlink:href="#m3d27035b55" x="120.10088" y="285.65918" style="stroke: #000000; stroke-width: 0.8"/>
      </g>
     </g>
     <g id="text_2">
      <text style="font-size: 10px; font-family: sans-serif; text-anchor: middle" x="120.10088" y="300.256836" transform="rotate(-0 120.10088 300.256836)">0.25</text>
     </g>
    </g>
    <g id="xtick_3">
     <g id="line2d_5">
      <path d="M 196.097853 285.65918 
L 196.097853 67.243047 
" clip-path="url(#p6b8296e1d3)" style="fill: none; stroke-dasharray: 2.96,1.28; stroke-dashoffset: 0; stroke: #b0b0b0; stroke-opacity: 0.5; stroke-width: 0.8"/>
     </g>
     <g id="line2d_6">
      <g>
       <use xlink:href="#m3d27035b55" x="196.097853" y="285.65918" style="stroke: #000000; stroke-width: 0.8"/>
      </g>
     </g>
     <g id="text_3">
      <text style="font-size: 10px; font-family: sans-serif; text-anchor: middle" x="196.097853" y="300.256836" transform="rotate(-0 196.097853 300.256836)">0.50</text>
     </g>
    </g>
    <g id="xtick_4">
     <g id="line2d_7">
      <path d="M 272.094826 285.65918 
L 272.094826 67.243047 
" clip-path="url(#p6b8296e1d3)" style="fill: none; stroke-dasharray: 2.96,1.28; stroke-dashoffset: 0; stroke: #b0b0b0; stroke-opacity: 0.5; stroke-width: 0.8"/>
     </g>
     <g id="line2d_8">
      <g>
       <use xlink:href="#m3d27035b55" x="272.094826" y="285.65918" style="stroke: #000000; stroke-width: 0.8"/>
      </g>
     </g>
     <g id="text_4">
      <text style="font-size: 10px; font-family: sans-serif; text-anchor: middle" x="272.094826" y="300.256836" transform="rotate(-0 272.094826 300.256836)">0.75</text>
     </g>
    </g>
    <g id="xtick_5">
     <g id="line2d_9">
      <path d="M 348.0918 285.65918 
L 348.0918 67.243047 
" clip-path="url(#p6b8296e1d3)" style="fill: none; stroke-dasharray: 2.96,1.28; stroke-dashoffset: 0; stroke: #b0b0b0; stroke-opacity: 0.5; stroke-width: 0.8"/>
     </g>
     <g id="line2d_10">
      <g>
       <use xlink:href="#m3d27035b55" x="348.0918" y="285.65918" style="stroke: #000000; stroke-width: 0.8"/>
      </g>
     </g>
     <g id="text_5">
      <text style="font-size: 10px; font-family: sans-serif; text-anchor: middle" x="348.0918" y="300.256836" transform="rotate(-0 348.0918 300.256836)">1.00</text>
     </g>
    </g>
    <g id="xtick_6">
     <g id="line2d_11">
      <path d="M 424.088773 285.65918 
L 424.088773 67.243047 
" clip-path="url(#p6b8296e1d3)" style="fill: none; stroke-dasharray: 2.96,1.28; stroke-dashoffset: 0; stroke: #b0b0b0; stroke-opacity: 0.5; stroke-width: 0.8"/>
     </g>
     <g id="line2d_12">
      <g>
       <use xlink:href="#m3d27035b55" x="424.088773" y="285.65918" style="stroke: #000000; stroke-width: 0.8"/>
      </g>
     </g>
     <g id="text_6">
      <text style="font-size: 10px; font-family: sans-serif; text-anchor: middle" x="424.088773" y="300.256836" transform="rotate(-0 424.088773 300.256836)">1.25</text>
     </g>
    </g>
    <g id="xtick_7">
     <g id="line2d_13">
      <path d="M 500.085746 285.65918 
L 500.085746 67.243047 
" clip-path="url(#p6b8296e1d3)" style="fill: none; stroke-dasharray: 2.96,1.28; stroke-dashoffset: 0; stroke: #b0b0b0; stroke-opacity: 0.5; stroke-width: 0.8"/>
     </g>
     <g id="line2d_14">
      <g>
       <use xlink:href="#m3d27035b55" x="500.085746" y="285.65918" style="stroke: #000000; stroke-width: 0.8"/>
      </g>
     </g>
     <g id="text_7">
      <text style="font-size: 10px; font-family: sans-serif; text-anchor: middle" x="500.085746" y="300.256836" transform="rotate(-0 500.085746 300.256836)">1.50</text>
     </g>
    </g>
    <g id="xtick_8">
     <g id="line2d_15">
      <path d="M 576.08272 285.65918 
L 576.08272 67.243047 
" clip-path="url(#p6b8296e1d3)" style="fill: none; stroke-dasharray: 2.96,1.28; stroke-dashoffset: 0; stroke: #b0b0b0; stroke-opacity: 0.5; stroke-width: 0.8"/>
     </g>
     <g id="line2d_16">
      <g>
       <use xlink:href="#m3d27035b55" x="576.08272" y="285.65918" style="stroke: #000000; stroke-width: 0.8"/>
      </g>
     </g>
     <g id="text_8">
      <text style="font-size: 10px; font-family: sans-serif; text-anchor: middle" x="576.08272" y="300.256836" transform="rotate(-0 576.08272 300.256836)">1.75</text>
     </g>
    </g>
    <g id="xtick_9">
     <g id="line2d_17">
      <path d="M 652.079693 285.65918 
L 652.079693 67.243047 
" clip-path="url(#p6b8296e1d3)" style="fill: none; stroke-dasharray: 2.96,1.28; stroke-dashoffset: 0; stroke: #b0b0b0; stroke-opacity: 0.5; stroke-width: 0.8"/>
     </g>
     <g id="line2d_18">
      <g>
       <use xlink:href="#m3d27035b55" x="652.079693" y="285.65918" style="stroke: #000000; stroke-width: 0.8"/>
      </g>
     </g>
     <g id="text_9">
      <text style="font-size: 10px; font-family: sans-serif; text-anchor: middle" x="652.079693" y="300.256836" transform="rotate(-0 652.079693 300.256836)">2.00</text>
     </g>
    </g>
    <g id="text_10">
     <text style="font-size: 10px; font-family: sans-serif; text-anchor: middle" x="374.842734" y="314.257617" transform="rotate(-0 374.842734 314.257617)">Time [s]</text>
    </g>
   </g>
   <g id="matplotlib.axis_2">
    <g id="ytick_1">
     <g id="line2d_19">
      <path d="M 44.103906 285.65918 
L 705.581563 285.65918 
" clip-path="url(#p6b8296e1d3)" style="fill: none; stroke-dasharray: 2.96,1.28; stroke-dashoffset: 0; stroke: #b0b0b0; stroke-opacity: 0.5; stroke-width: 0.8"/>
     </g>
     <g id="line2d_20">
      <defs>
       <path id="mef640d9f3a" d="M 0 0 
L -3.5 0 
" style="stroke: #000000; stroke-width: 0.8"/>
      </defs>
      <g>
       <use xlink:href="#mef640d9f3a" x="44.103906" y="285.65918" style="stroke: #000000; stroke-width: 0.8"/>
      </g>
     </g>
     <g id="text_11">
      <text style="font-size: 10px; font-family: sans-serif; text-anchor: end" x="37.103906" y="289.458008" transform="rotate(-0 37.103906 289.458008)">0.0</text>
     </g>
    </g>
    <g id="ytick_2">
     <g id="line2d_21">
      <path d="M 44.103906 257.815255 
L 705.581563 257.815255 
" clip-path="url(#p6b8296e1d3)" style="fill: none; stroke-dasharray: 2.96,1.28; stroke-dashoffset: 0; stroke: #b0b0b0; stroke-opacity: 0.5; stroke-width: 0.8"/>
     </g>
     <g id="line2d_22">
      <g>
       <use xlink:href="#mef640d9f3a" x="44.103906" y="257.815255" style="stroke: #000000; stroke-width: 0.8"/>
      </g>
     </g>
     <g id="text_12">
      <text style="font-size: 10px; font-family: sans-serif; text-anchor: end" x="37.103906" y="261.614083" transform="rotate(-0 37.103906 261.614083)">0.2</text>
     </g>
    </g>
    <g id="ytick_3">
     <g id="line2d_23">
      <path d="M 44.103906 229.971331 
L 705.581563 229.971331 
" clip-path="url(#p6b8296e1d3)" style="fill: none; stroke-dasharray: 2.96,1.28; stroke-dashoffset: 0; stroke: #b0b0b0; stroke-opacity: 0.5; stroke-width: 0.8"/>
     </g>
     <g id="line2d_24">
      <g>
       <use xlink:href="#mef640d9f3a" x="44.103906" y="229.971331" style="stroke: #000000; stroke-width: 0.8"/>
      </g>
     </g>
     <g id="text_13">
      <text style="font-size: 10px; font-family: sans-serif; text-anchor: end" x="37.103906" y="233.770159" transform="rotate(-0 37.103906 233.770159)">0.4</text>
     </g>
    </g>
    <g id="ytick_4">
     <g id="line2d_25">
      <path d="M 44.103906 202.127406 
L 705.581563 202.127406 
" clip-path="url(#p6b8296e1d3)" style="fill: none; stroke-dasharray: 2.96,1.28; stroke-dashoffset: 0; stroke: #b0b0b0; stroke-opacity: 0.5; stroke-width: 0.8"/>
     </g>
     <g id="line2d_26">
      <g>
       <use xlink:href="#mef640d9f3a" x="44.103906" y="202.127406" style="stroke: #000000; stroke-width: 0.8"/>
      </g>
     </g>
     <g id="text_14">
      <text style="font-size: 10px; font-family: sans-serif; text-anchor: end" x="37.103906" y="205.926234" transform="rotate(-0 37.103906 205.926234)">0.6</text>
     </g>
    </g>
    <g id="ytick_5">
     <g id="line2d_27">
      <path d="M 44.103906 174.283482 
L 705.581563 174.283482 
" clip-path="url(#p6b8296e1d3)" style="fill: none; stroke-dasharray: 2.96,1.28; stroke-dashoffset: 0; stroke: #b0b0b0; stroke-opacity: 0.5; stroke-width: 0.8"/>
     </g>
     <g id="line2d_28">
      <g>
       <use xlink:href="#mef640d9f3a" x="44.103906" y="174.283482" style="stroke: #000000; stroke-width: 0.8"/>
      </g>
     </g>
     <g id="text_15">
      <text style="font-size: 10px; font-family: sans-serif; text-anchor: end" x="37.103906" y="178.08231" transform="rotate(-0 37.103906 178.08231)">0.8</text>
     </g>
    </g>
    <g id="ytick_6">
     <g id="line2d_29">
      <path d="M 44.103906 146.439557 
L 705.581563 146.439557 
" clip-path="url(#p6b8296e1d3)" style="fill: none; stroke-dasharray: 2.96,1.28; stroke-dashoffset: 0; stroke: #b0b0b0; stroke-opacity: 0.5; stroke-width: 0.8"/>
     </g>
     <g id="line2d_30">
      <g>
       <use xlink:href="#mef640d9f3a" x="44.103906" y="146.439557" style="stroke: #000000; stroke-width: 0.8"/>
      </g>
     </g>
     <g id="text_16">
      <text style="font-size: 10px; font-family: sans-serif; text-anchor: end" x="37.103906" y="150.238386" transform="rotate(-0 37.103906 150.238386)">1.0</text>
     </g>
    </g>
    <g id="ytick_7">
     <g id="line2d_31">
      <path d="M 44.103906 118.595633 
L 705.581563 118.595633 
" clip-path="url(#p6b8296e1d3)" style="fill: none; stroke-dasharray: 2.96,1.28; stroke-dashoffset: 0; stroke: #b0b0b0; stroke-opacity: 0.5; stroke-width: 0.8"/>
     </g>
     <g id="line2d_32">
      <g>
       <use xlink:href="#mef640d9f3a" x="44.103906" y="118.595633" style="stroke: #000000; stroke-width: 0.8"/>
      </g>
     </g>
     <g id="text_17">
      <text style="font-size: 10px; font-family: sans-serif; text-anchor: end" x="37.103906" y="122.394461" transform="rotate(-0 37.103906 122.394461)">1.2</text>
     </g>
    </g>
    <g id="ytick_8">
     <g id="line2d_33">
      <path d="M 44.103906 90.751708 
L 705.581563 90.751708 
" clip-path="url(#p6b8296e1d3)" style="fill: none; stroke-dasharray: 2.96,1.28; stroke-dashoffset: 0; stroke: #b0b0b0; stroke-opacity: 0.5; stroke-width: 0.8"/>
     </g>
     <g id="line2d_34">
      <g>
       <use xlink:href="#mef640d9f3a" x="44.103906" y="90.751708" style="stroke: #000000; stroke-width: 0.8"/>
      </g>
     </g>
     <g id="text_18">
      <text style="font-size: 10px; font-family: sans-serif; text-anchor: end" x="37.103906" y="94.550537" transform="rotate(-0 37.103906 94.550537)">1.4</text>
     </g>
    </g>
    <g id="text_19">
     <text style="font-size: 10px; font-family: sans-serif; text-anchor: middle" x="14.798438" y="176.451113" transform="rotate(-90 14.798438 176.451113)">Tonality T [tu_HMS]</text>
    </g>
   </g>
   <g id="line2d_35">
    <path d="M 44.103906 285.65918 
L 53.831519 285.65918 
L 55.452788 285.529831 
L 57.074056 285.105372 
L 58.695325 283.733318 
L 61.937863 268.034906 
L 63.559131 261.754444 
L 65.1804 254.754825 
L 68.422938 238.97821 
L 76.529282 197.455679 
L 79.771819 182.47986 
L 81.393088 175.673536 
L 83.014357 169.349614 
L 84.635625 163.576733 
L 86.256894 158.323995 
L 87.878163 153.611913 
L 89.499432 149.418103 
L 91.1207 145.72155 
L 92.741969 142.508827 
L 94.363238 139.742272 
L 95.984507 137.358917 
L 97.605776 135.283432 
L 99.227044 133.463843 
L 100.848313 131.855301 
L 102.469582 130.412369 
L 105.712119 127.952833 
L 108.954657 125.913559 
L 112.197194 124.21973 
L 115.439732 122.923452 
L 118.682269 122.043103 
L 121.924807 121.545795 
L 126.788613 121.111299 
L 141.380032 120.358658 
L 146.243838 120.245466 
L 151.107645 120.392738 
L 160.835257 120.871717 
L 167.320332 121.002929 
L 177.047945 121.168129 
L 190.018095 121.55205 
L 194.881901 121.308953 
L 201.366976 120.906446 
L 211.094589 120.758319 
L 224.064739 120.465098 
L 230.549814 120.09573 
L 237.034889 119.446106 
L 250.005039 117.872866 
L 254.868846 117.64677 
L 258.111383 117.722974 
L 264.596458 118.251583 
L 274.324071 119.118346 
L 287.294221 119.840741 
L 297.021834 120.026618 
L 303.506909 119.893207 
L 308.370715 119.569828 
L 316.477059 118.610224 
L 319.719596 118.249702 
L 324.583403 117.967659 
L 329.447209 117.999638 
L 334.311015 118.220879 
L 344.038628 118.894258 
L 348.902434 119.580185 
L 355.387509 120.81963 
L 358.630047 121.418924 
L 361.872584 121.8392 
L 365.115122 122.007999 
L 368.357659 121.867503 
L 378.085272 121.096921 
L 384.570347 120.766734 
L 392.676691 120.599449 
L 399.161766 120.123351 
L 405.646841 119.610022 
L 410.510647 119.48599 
L 438.072216 119.493839 
L 442.936023 119.343765 
L 446.17856 119.418575 
L 451.042366 119.819375 
L 455.906173 120.252002 
L 459.14871 120.348379 
L 475.361398 120.315951 
L 480.225204 120.685887 
L 489.952817 121.54157 
L 493.195354 121.506693 
L 506.165504 120.674651 
L 511.029311 120.483602 
L 519.135654 120.021957 
L 525.62073 119.833505 
L 530.484536 119.842587 
L 538.59088 119.996699 
L 541.833417 119.873333 
L 545.075955 119.575964 
L 551.56103 118.796224 
L 554.803567 118.634269 
L 559.667374 118.668367 
L 571.016255 118.964696 
L 575.880061 118.754738 
L 582.365136 118.443761 
L 590.47148 118.509697 
L 596.956555 118.720564 
L 606.684168 119.301546 
L 611.547974 119.289676 
L 631.003199 118.630573 
L 637.488274 118.704706 
L 642.352081 118.934489 
L 655.322231 119.883817 
L 656.9435 120.05091 
L 658.564768 120.388514 
L 660.186037 121.052439 
L 661.807306 122.203315 
L 663.428575 124.041975 
L 665.049843 126.801802 
L 666.671112 130.679324 
L 668.292381 135.767685 
L 669.91365 141.990888 
L 671.534918 149.199906 
L 674.777456 165.499083 
L 682.8838 208.442271 
L 684.505069 216.241792 
L 686.126337 221.378217 
L 689.368875 228.31813 
L 699.096487 250.523131 
L 702.339025 257.038355 
L 705.581563 262.708285 
L 705.581563 262.708285 
" clip-path="url(#p6b8296e1d3)" style="fill: none; stroke: #1f77b4; stroke-width: 1.8; stroke-linecap: square"/>
   </g>
   <g id="line2d_36">
    <path d="M 44.103906 285.65918 
L 104.090851 285.628242 
L 108.954657 285.107983 
L 110.575926 284.827876 
L 115.439732 282.93386 
L 117.061001 282.420605 
L 118.682269 282.050595 
L 120.303538 281.843748 
L 121.924807 281.777982 
L 123.546076 281.830689 
L 126.788613 282.271848 
L 133.273688 283.679112 
L 141.380032 284.928661 
L 151.107645 284.93958 
L 164.077795 285.65918 
L 190.018095 285.640505 
L 194.881901 285.07937 
L 198.124439 284.997928 
L 202.988245 285.242986 
L 209.47332 285.65918 
L 233.792352 285.65918 
L 235.413621 285.424672 
L 241.898696 283.513827 
L 245.141233 282.817051 
L 248.383771 282.379094 
L 250.005039 282.321138 
L 253.247577 282.548438 
L 258.111383 283.338076 
L 271.081533 285.564305 
L 274.324071 285.65918 
L 305.128177 285.622507 
L 309.991984 285.190375 
L 314.85579 284.616303 
L 318.098328 284.461841 
L 321.340865 284.539419 
L 327.82594 285.020628 
L 335.932284 285.586511 
L 339.174822 285.65918 
L 376.464003 285.65918 
L 378.085272 285.418681 
L 379.706541 285.047661 
L 386.191616 283.098437 
L 389.434153 282.622143 
L 392.676691 282.426437 
L 394.29796 282.49468 
L 397.540497 282.989968 
L 400.783035 283.604025 
L 404.025572 283.98693 
L 408.889378 284.33411 
L 426.723335 285.346825 
L 429.965872 285.366343 
L 433.20841 285.118804 
L 436.450947 284.824066 
L 439.693485 284.701484 
L 444.557291 284.877141 
L 449.421098 285.195462 
L 454.284904 285.461882 
L 457.527441 285.527956 
L 460.769979 285.318507 
L 465.633785 284.865629 
L 468.876323 284.892519 
L 473.740129 285.281191 
L 476.982667 285.54256 
L 481.846473 285.649482 
L 486.710279 285.553069 
L 494.816623 285.65918 
L 499.680429 285.657033 
L 522.378192 285.65918 
L 528.863267 285.304176 
L 533.727073 285.407968 
L 538.59088 285.5494 
L 541.833417 285.65918 
L 548.318492 285.561946 
L 554.803567 284.777703 
L 559.667374 284.545763 
L 562.909911 283.948641 
L 566.152449 283.718597 
L 569.394986 283.784414 
L 574.258793 284.151689 
L 588.850211 285.65918 
L 598.577824 285.593255 
L 606.684168 285.089435 
L 609.926705 285.180735 
L 616.41178 285.549309 
L 619.654318 284.640193 
L 622.896855 283.607189 
L 624.518124 283.189425 
L 626.139393 282.892893 
L 629.381931 282.63848 
L 632.624468 282.451902 
L 635.867006 282.213695 
L 637.488274 282.226394 
L 640.730812 282.543411 
L 643.973349 282.857761 
L 653.700962 283.40044 
L 661.807306 284.759663 
L 666.671112 284.701713 
L 671.534918 284.597822 
L 679.641262 284.929194 
L 686.126337 285.499132 
L 692.611412 285.198559 
L 697.475219 285.174197 
L 703.960294 285.359374 
L 705.581563 285.426322 
L 705.581563 285.426322 
" clip-path="url(#p6b8296e1d3)" style="fill: none; stroke: #d62728; stroke-width: 1.8; stroke-linecap: square"/>
   </g>
   <g id="patch_3">
    <path d="M 44.103906 285.65918 
L 44.103906 67.243047 
" style="fill: none; stroke: #000000; stroke-width: 0.8; stroke-linejoin: miter; stroke-linecap: square"/>
   </g>
   <g id="patch_4">
    <path d="M 705.581563 285.65918 
L 705.581563 67.243047 
" style="fill: none; stroke: #000000; stroke-width: 0.8; stroke-linejoin: miter; stroke-linecap: square"/>
   </g>
   <g id="patch_5">
    <path d="M 44.103906 285.65918 
L 705.581563 285.65918 
" style="fill: none; stroke: #000000; stroke-width: 0.8; stroke-linejoin: miter; stroke-linecap: square"/>
   </g>
   <g id="patch_6">
    <path d="M 44.103906 67.243047 
L 705.581563 67.243047 
" style="fill: none; stroke: #000000; stroke-width: 0.8; stroke-linejoin: miter; stroke-linecap: square"/>
   </g>
   <g id="text_20">
    <text style="font-weight: 700; font-size: 12px; font-family: sans-serif; text-anchor: middle" x="374.842734" y="57.243047" transform="rotate(-0 374.842734 57.243047)">ECMA-418-2 Tonality T(t)</text>
   </g>
   <g id="legend_1">
    <g id="patch_7">
     <path d="M 526.381719 101.444453 
L 699.281563 101.444453 
Q 701.081563 101.444453 701.081563 99.644453 
L 701.081563 73.543047 
Q 701.081563 71.743047 699.281563 71.743047 
L 526.381719 71.743047 
Q 524.581719 71.743047 524.581719 73.543047 
L 524.581719 99.644453 
Q 524.581719 101.444453 526.381719 101.444453 
z
" style="fill: #ffffff; opacity: 0.8; stroke: #cccccc; stroke-linejoin: miter"/>
    </g>
    <g id="line2d_37">
     <path d="M 528.181719 79.031641 
L 537.181719 79.031641 
L 546.181719 79.031641 
" style="fill: none; stroke: #1f77b4; stroke-width: 1.8; stroke-linecap: square"/>
    </g>
    <g id="text_21">
     <text style="font-size: 9px; font-family: sans-serif; text-anchor: start" x="553.381719" y="82.181641" transform="rotate(-0 553.381719 82.181641)">Tone in noise (T = 1.19 tu_HMS)</text>
    </g>
    <g id="line2d_38">
     <path d="M 528.181719 92.532344 
L 537.181719 92.532344 
L 546.181719 92.532344 
" style="fill: none; stroke: #d62728; stroke-width: 1.8; stroke-linecap: square"/>
    </g>
    <g id="text_22">
     <text style="font-size: 9px; font-family: sans-serif; text-anchor: start" x="553.381719" y="95.682344" transform="rotate(-0 553.381719 95.682344)">Pure noise (T = 0.02 tu_HMS)</text>
    </g>
   </g>
  </g>
  <g id="axes_2">
   <g id="patch_8">
    <path d="M 44.103906 565.077656 
L 705.581563 565.077656 
L 705.581563 346.661523 
L 44.103906 346.661523 
z
" style="fill: #ffffff"/>
   </g>
   <g id="matplotlib.axis_3">
    <g id="xtick_10">
     <g id="line2d_39">
      <path d="M 93.71473 565.077656 
L 93.71473 346.661523 
" clip-path="url(#p6f83a20308)" style="fill: none; stroke-dasharray: 2.96,1.28; stroke-dashoffset: 0; stroke: #b0b0b0; stroke-opacity: 0.5; stroke-width: 0.8"/>
     </g>
     <g id="line2d_40">
      <g>
       <use xlink:href="#m3d27035b55" x="93.71473" y="565.077656" style="stroke: #000000; stroke-width: 0.8"/>
      </g>
     </g>
     <g id="text_23">
      <text style="font-size: 10px; font-family: sans-serif; text-anchor: middle" x="93.71473" y="579.675313" transform="rotate(-0 93.71473 579.675313)">25</text>
     </g>
    </g>
    <g id="xtick_11">
     <g id="line2d_41">
      <path d="M 176.399438 565.077656 
L 176.399438 346.661523 
" clip-path="url(#p6f83a20308)" style="fill: none; stroke-dasharray: 2.96,1.28; stroke-dashoffset: 0; stroke: #b0b0b0; stroke-opacity: 0.5; stroke-width: 0.8"/>
     </g>
     <g id="line2d_42">
      <g>
       <use xlink:href="#m3d27035b55" x="176.399438" y="565.077656" style="stroke: #000000; stroke-width: 0.8"/>
      </g>
     </g>
     <g id="text_24">
      <text style="font-size: 10px; font-family: sans-serif; text-anchor: middle" x="176.399438" y="579.675313" transform="rotate(-0 176.399438 579.675313)">50</text>
     </g>
    </g>
    <g id="xtick_12">
     <g id="line2d_43">
      <path d="M 259.084145 565.077656 
L 259.084145 346.661523 
" clip-path="url(#p6f83a20308)" style="fill: none; stroke-dasharray: 2.96,1.28; stroke-dashoffset: 0; stroke: #b0b0b0; stroke-opacity: 0.5; stroke-width: 0.8"/>
     </g>
     <g id="line2d_44">
      <g>
       <use xlink:href="#m3d27035b55" x="259.084145" y="565.077656" style="stroke: #000000; stroke-width: 0.8"/>
      </g>
     </g>
     <g id="text_25">
      <text style="font-size: 10px; font-family: sans-serif; text-anchor: middle" x="259.084145" y="579.675313" transform="rotate(-0 259.084145 579.675313)">75</text>
     </g>
    </g>
    <g id="xtick_13">
     <g id="line2d_45">
      <path d="M 341.768852 565.077656 
L 341.768852 346.661523 
" clip-path="url(#p6f83a20308)" style="fill: none; stroke-dasharray: 2.96,1.28; stroke-dashoffset: 0; stroke: #b0b0b0; stroke-opacity: 0.5; stroke-width: 0.8"/>
     </g>
     <g id="line2d_46">
      <g>
       <use xlink:href="#m3d27035b55" x="341.768852" y="565.077656" style="stroke: #000000; stroke-width: 0.8"/>
      </g>
     </g>
     <g id="text_26">
      <text style="font-size: 10px; font-family: sans-serif; text-anchor: middle" x="341.768852" y="579.675313" transform="rotate(-0 341.768852 579.675313)">100</text>
     </g>
    </g>
    <g id="xtick_14">
     <g id="line2d_47">
      <path d="M 424.453559 565.077656 
L 424.453559 346.661523 
" clip-path="url(#p6f83a20308)" style="fill: none; stroke-dasharray: 2.96,1.28; stroke-dashoffset: 0; stroke: #b0b0b0; stroke-opacity: 0.5; stroke-width: 0.8"/>
     </g>
     <g id="line2d_48">
      <g>
       <use xlink:href="#m3d27035b55" x="424.453559" y="565.077656" style="stroke: #000000; stroke-width: 0.8"/>
      </g>
     </g>
     <g id="text_27">
      <text style="font-size: 10px; font-family: sans-serif; text-anchor: middle" x="424.453559" y="579.675313" transform="rotate(-0 424.453559 579.675313)">125</text>
     </g>
    </g>
    <g id="xtick_15">
     <g id="line2d_49">
      <path d="M 507.138266 565.077656 
L 507.138266 346.661523 
" clip-path="url(#p6f83a20308)" style="fill: none; stroke-dasharray: 2.96,1.28; stroke-dashoffset: 0; stroke: #b0b0b0; stroke-opacity: 0.5; stroke-width: 0.8"/>
     </g>
     <g id="line2d_50">
      <g>
       <use xlink:href="#m3d27035b55" x="507.138266" y="565.077656" style="stroke: #000000; stroke-width: 0.8"/>
      </g>
     </g>
     <g id="text_28">
      <text style="font-size: 10px; font-family: sans-serif; text-anchor: middle" x="507.138266" y="579.675313" transform="rotate(-0 507.138266 579.675313)">150</text>
     </g>
    </g>
    <g id="xtick_16">
     <g id="line2d_51">
      <path d="M 589.822973 565.077656 
L 589.822973 346.661523 
" clip-path="url(#p6f83a20308)" style="fill: none; stroke-dasharray: 2.96,1.28; stroke-dashoffset: 0; stroke: #b0b0b0; stroke-opacity: 0.5; stroke-width: 0.8"/>
     </g>
     <g id="line2d_52">
      <g>
       <use xlink:href="#m3d27035b55" x="589.822973" y="565.077656" style="stroke: #000000; stroke-width: 0.8"/>
      </g>
     </g>
     <g id="text_29">
      <text style="font-size: 10px; font-family: sans-serif; text-anchor: middle" x="589.822973" y="579.675313" transform="rotate(-0 589.822973 579.675313)">175</text>
     </g>
    </g>
    <g id="xtick_17">
     <g id="line2d_53">
      <path d="M 672.50768 565.077656 
L 672.50768 346.661523 
" clip-path="url(#p6f83a20308)" style="fill: none; stroke-dasharray: 2.96,1.28; stroke-dashoffset: 0; stroke: #b0b0b0; stroke-opacity: 0.5; stroke-width: 0.8"/>
     </g>
     <g id="line2d_54">
      <g>
       <use xlink:href="#m3d27035b55" x="672.50768" y="565.077656" style="stroke: #000000; stroke-width: 0.8"/>
      </g>
     </g>
     <g id="text_30">
      <text style="font-size: 10px; font-family: sans-serif; text-anchor: middle" x="672.50768" y="579.675313" transform="rotate(-0 672.50768 579.675313)">200</text>
     </g>
    </g>
    <g id="text_31">
     <text style="font-size: 10px; font-family: sans-serif; text-anchor: middle" x="374.842734" y="593.676094" transform="rotate(-0 374.842734 593.676094)">Modulation frequency f_mod [Hz]</text>
    </g>
   </g>
   <g id="matplotlib.axis_4">
    <g id="ytick_9">
     <g id="line2d_55">
      <path d="M 44.103906 565.077656 
L 705.581563 565.077656 
" clip-path="url(#p6f83a20308)" style="fill: none; stroke-dasharray: 2.96,1.28; stroke-dashoffset: 0; stroke: #b0b0b0; stroke-opacity: 0.5; stroke-width: 0.8"/>
     </g>
     <g id="line2d_56">
      <g>
       <use xlink:href="#mef640d9f3a" x="44.103906" y="565.077656" style="stroke: #000000; stroke-width: 0.8"/>
      </g>
     </g>
     <g id="text_32">
      <text style="font-size: 10px; font-family: sans-serif; text-anchor: end" x="37.103906" y="568.876484" transform="rotate(-0 37.103906 568.876484)">0.0</text>
     </g>
    </g>
    <g id="ytick_10">
     <g id="line2d_57">
      <path d="M 44.103906 530.115522 
L 705.581563 530.115522 
" clip-path="url(#p6f83a20308)" style="fill: none; stroke-dasharray: 2.96,1.28; stroke-dashoffset: 0; stroke: #b0b0b0; stroke-opacity: 0.5; stroke-width: 0.8"/>
     </g>
     <g id="line2d_58">
      <g>
       <use xlink:href="#mef640d9f3a" x="44.103906" y="530.115522" style="stroke: #000000; stroke-width: 0.8"/>
      </g>
     </g>
     <g id="text_33">
      <text style="font-size: 10px; font-family: sans-serif; text-anchor: end" x="37.103906" y="533.91435" transform="rotate(-0 37.103906 533.91435)">0.2</text>
     </g>
    </g>
    <g id="ytick_11">
     <g id="line2d_59">
      <path d="M 44.103906 495.153388 
L 705.581563 495.153388 
" clip-path="url(#p6f83a20308)" style="fill: none; stroke-dasharray: 2.96,1.28; stroke-dashoffset: 0; stroke: #b0b0b0; stroke-opacity: 0.5; stroke-width: 0.8"/>
     </g>
     <g id="line2d_60">
      <g>
       <use xlink:href="#mef640d9f3a" x="44.103906" y="495.153388" style="stroke: #000000; stroke-width: 0.8"/>
      </g>
     </g>
     <g id="text_34">
      <text style="font-size: 10px; font-family: sans-serif; text-anchor: end" x="37.103906" y="498.952216" transform="rotate(-0 37.103906 498.952216)">0.4</text>
     </g>
    </g>
    <g id="ytick_12">
     <g id="line2d_61">
      <path d="M 44.103906 460.191254 
L 705.581563 460.191254 
" clip-path="url(#p6f83a20308)" style="fill: none; stroke-dasharray: 2.96,1.28; stroke-dashoffset: 0; stroke: #b0b0b0; stroke-opacity: 0.5; stroke-width: 0.8"/>
     </g>
     <g id="line2d_62">
      <g>
       <use xlink:href="#mef640d9f3a" x="44.103906" y="460.191254" style="stroke: #000000; stroke-width: 0.8"/>
      </g>
     </g>
     <g id="text_35">
      <text style="font-size: 10px; font-family: sans-serif; text-anchor: end" x="37.103906" y="463.990083" transform="rotate(-0 37.103906 463.990083)">0.6</text>
     </g>
    </g>
    <g id="ytick_13">
     <g id="line2d_63">
      <path d="M 44.103906 425.22912 
L 705.581563 425.22912 
" clip-path="url(#p6f83a20308)" style="fill: none; stroke-dasharray: 2.96,1.28; stroke-dashoffset: 0; stroke: #b0b0b0; stroke-opacity: 0.5; stroke-width: 0.8"/>
     </g>
     <g id="line2d_64">
      <g>
       <use xlink:href="#mef640d9f3a" x="44.103906" y="425.22912" style="stroke: #000000; stroke-width: 0.8"/>
      </g>
     </g>
     <g id="text_36">
      <text style="font-size: 10px; font-family: sans-serif; text-anchor: end" x="37.103906" y="429.027949" transform="rotate(-0 37.103906 429.027949)">0.8</text>
     </g>
    </g>
    <g id="ytick_14">
     <g id="line2d_65">
      <path d="M 44.103906 390.266987 
L 705.581563 390.266987 
" clip-path="url(#p6f83a20308)" style="fill: none; stroke-dasharray: 2.96,1.28; stroke-dashoffset: 0; stroke: #b0b0b0; stroke-opacity: 0.5; stroke-width: 0.8"/>
     </g>
     <g id="line2d_66">
      <g>
       <use xlink:href="#mef640d9f3a" x="44.103906" y="390.266987" style="stroke: #000000; stroke-width: 0.8"/>
      </g>
     </g>
     <g id="text_37">
      <text style="font-size: 10px; font-family: sans-serif; text-anchor: end" x="37.103906" y="394.065815" transform="rotate(-0 37.103906 394.065815)">1.0</text>
     </g>
    </g>
    <g id="ytick_15">
     <g id="line2d_67">
      <path d="M 44.103906 355.304853 
L 705.581563 355.304853 
" clip-path="url(#p6f83a20308)" style="fill: none; stroke-dasharray: 2.96,1.28; stroke-dashoffset: 0; stroke: #b0b0b0; stroke-opacity: 0.5; stroke-width: 0.8"/>
     </g>
     <g id="line2d_68">
      <g>
       <use xlink:href="#mef640d9f3a" x="44.103906" y="355.304853" style="stroke: #000000; stroke-width: 0.8"/>
      </g>
     </g>
     <g id="text_38">
      <text style="font-size: 10px; font-family: sans-serif; text-anchor: end" x="37.103906" y="359.103681" transform="rotate(-0 37.103906 359.103681)">1.2</text>
     </g>
    </g>
    <g id="text_39">
     <text style="font-size: 10px; font-family: sans-serif; text-anchor: middle" x="14.798438" y="455.86959" transform="rotate(-90 14.798438 455.86959)">Roughness R [asper]</text>
    </g>
   </g>
   <g id="line2d_69">
    <path d="M 77.177789 524.867809 
L 110.251672 485.438537 
L 143.325555 443.600459 
L 176.399438 408.350423 
L 209.47332 395.499139 
L 242.547203 390.34475 
L 275.621086 405.045352 
L 341.768852 446.13252 
L 407.916617 478.768518 
L 507.138266 509.607881 
L 606.359914 527.08807 
L 672.50768 533.528223 
" clip-path="url(#p6f83a20308)" style="fill: none; stroke: #2ca02c; stroke-width: 2; stroke-linecap: square"/>
    <defs>
     <path id="m9c1aa2331e" d="M 0 3 
C 0.795609 3 1.55874 2.683901 2.12132 2.12132 
C 2.683901 1.55874 3 0.795609 3 0 
C 3 -0.795609 2.683901 -1.55874 2.12132 -2.12132 
C 1.55874 -2.683901 0.795609 -3 0 -3 
C -0.795609 -3 -1.55874 -2.683901 -2.12132 -2.12132 
C -2.683901 -1.55874 -3 -0.795609 -3 0 
C -3 0.795609 -2.683901 1.55874 -2.12132 2.12132 
C -1.55874 2.683901 -0.795609 3 0 3 
z
" style="stroke: #2ca02c"/>
    </defs>
    <g clip-path="url(#p6f83a20308)">
     <use xlink:href="#m9c1aa2331e" x="77.177789" y="524.867809" style="fill: #2ca02c; stroke: #2ca02c"/>
     <use xlink:href="#m9c1aa2331e" x="110.251672" y="485.438537" style="fill: #2ca02c; stroke: #2ca02c"/>
     <use xlink:href="#m9c1aa2331e" x="143.325555" y="443.600459" style="fill: #2ca02c; stroke: #2ca02c"/>
     <use xlink:href="#m9c1aa2331e" x="176.399438" y="408.350423" style="fill: #2ca02c; stroke: #2ca02c"/>
     <use xlink:href="#m9c1aa2331e" x="209.47332" y="395.499139" style="fill: #2ca02c; stroke: #2ca02c"/>
     <use xlink:href="#m9c1aa2331e" x="242.547203" y="390.34475" style="fill: #2ca02c; stroke: #2ca02c"/>
     <use xlink:href="#m9c1aa2331e" x="275.621086" y="405.045352" style="fill: #2ca02c; stroke: #2ca02c"/>
     <use xlink:href="#m9c1aa2331e" x="341.768852" y="446.13252" style="fill: #2ca02c; stroke: #2ca02c"/>
     <use xlink:href="#m9c1aa2331e" x="407.916617" y="478.768518" style="fill: #2ca02c; stroke: #2ca02c"/>
     <use xlink:href="#m9c1aa2331e" x="507.138266" y="509.607881" style="fill: #2ca02c; stroke: #2ca02c"/>
     <use xlink:href="#m9c1aa2331e" x="606.359914" y="527.08807" style="fill: #2ca02c; stroke: #2ca02c"/>
     <use xlink:href="#m9c1aa2331e" x="672.50768" y="533.528223" style="fill: #2ca02c; stroke: #2ca02c"/>
    </g>
   </g>
   <g id="patch_9">
    <path d="M 44.103906 565.077656 
L 44.103906 346.661523 
" style="fill: none; stroke: #000000; stroke-width: 0.8; stroke-linejoin: miter; stroke-linecap: square"/>
   </g>
   <g id="patch_10">
    <path d="M 705.581563 565.077656 
L 705.581563 346.661523 
" style="fill: none; stroke: #000000; stroke-width: 0.8; stroke-linejoin: miter; stroke-linecap: square"/>
   </g>
   <g id="patch_11">
    <path d="M 44.103906 565.077656 
L 705.581563 565.077656 
" style="fill: none; stroke: #000000; stroke-width: 0.8; stroke-linejoin: miter; stroke-linecap: square"/>
   </g>
   <g id="patch_12">
    <path d="M 44.103906 346.661523 
L 705.581563 346.661523 
" style="fill: none; stroke: #000000; stroke-width: 0.8; stroke-linejoin: miter; stroke-linecap: square"/>
   </g>
   <g id="patch_13">
    <path d="M 354.311524 394.031505 
Q 299.430426 392.221149 245.555012 390.443968 
" style="fill: none; stroke: #000000; stroke-width: 0.9; stroke-linecap: round"/>
    <path d="M 249.4869 392.574757 
L 245.555012 390.443968 
L 249.618776 388.576931 
" style="fill: none; stroke: #000000; stroke-width: 0.9; stroke-linecap: round"/>
   </g>
   <g id="text_40">
    <text style="font-size: 10px; font-family: sans-serif; text-anchor: start" x="358.305793" y="399.081395" transform="rotate(-0 358.305793 399.081395)">Peak R = 1.0 asper @ 70 Hz</text>
   </g>
   <g id="text_41">
    <text style="font-weight: 700; font-size: 12px; font-family: sans-serif; text-anchor: middle" x="374.842734" y="336.661523" transform="rotate(-0 374.842734 336.661523)">ECMA-418-2 Roughness vs Modulation Frequency</text>
   </g>
   <g id="line2d_70">
    <defs>
     <path id="mc94b9033b8" d="M 0 4.5 
C 1.193414 4.5 2.338109 4.025852 3.181981 3.181981 
C 4.025852 2.338109 4.5 1.193414 4.5 0 
C 4.5 -1.193414 4.025852 -2.338109 3.181981 -3.181981 
C 2.338109 -4.025852 1.193414 -4.5 0 -4.5 
C -1.193414 -4.5 -2.338109 -4.025852 -3.181981 -3.181981 
C -4.025852 -2.338109 -4.5 -1.193414 -4.5 0 
C -4.5 1.193414 -4.025852 2.338109 -3.181981 3.181981 
C -2.338109 4.025852 -1.193414 4.5 0 4.5 
z
" style="stroke: #d62728; stroke-width: 1.6"/>
    </defs>
    <g clip-path="url(#p6f83a20308)">
     <use xlink:href="#mc94b9033b8" x="242.547203" y="390.34475" style="fill-opacity: 0; stroke: #d62728; stroke-width: 1.6"/>
    </g>
   </g>
   <g id="legend_2">
    <g id="patch_14">
     <path d="M 561.793906 367.362227 
L 699.281563 367.362227 
Q 701.081563 367.362227 701.081563 365.562227 
L 701.081563 352.961523 
Q 701.081563 351.161523 699.281563 351.161523 
L 561.793906 351.161523 
Q 559.993906 351.161523 559.993906 352.961523 
L 559.993906 365.562227 
Q 559.993906 367.362227 561.793906 367.362227 
z
" style="fill: #ffffff; opacity: 0.8; stroke: #cccccc; stroke-linejoin: miter"/>
    </g>
    <g id="line2d_71">
     <path d="M 563.593906 358.450117 
L 572.593906 358.450117 
L 581.593906 358.450117 
" style="fill: none; stroke: #2ca02c; stroke-width: 2; stroke-linecap: square"/>
     <g>
      <use xlink:href="#m9c1aa2331e" x="572.593906" y="358.450117" style="fill: #2ca02c; stroke: #2ca02c"/>
     </g>
    </g>
    <g id="text_42">
     <text style="font-size: 9px; font-family: sans-serif; text-anchor: start" x="588.793906" y="361.600117" transform="rotate(-0 588.793906 361.600117)">1 kHz carrier, 100 % AM</text>
    </g>
   </g>
  </g>
  <g id="text_43">
   <text style="font-weight: 700; font-size: 13px; font-family: sans-serif; text-anchor: middle" x="356.381562" y="17.077969" transform="rotate(-0 356.381562 17.077969)">Sound Quality Metrics (ECMA-418-2 Sottek Hearing Model)</text>
  </g>
 </g>
 <defs>
  <clipPath id="p6b8296e1d3">
   <rect x="44.103906" y="67.243047" width="661.477656" height="218.416133"/>
  </clipPath>
  <clipPath id="p6f83a20308">
   <rect x="44.103906" y="346.661523" width="661.477656" height="218.416133"/>
  </clipPath>
 </defs>
</svg>
