<?xml version="1.0" encoding="utf-8" standalone="no"?>
<!DOCTYPE svg PUBLIC "-//W3C//DTD SVG 1.1//EN"
  "http://www.w3.org/Graphics/SVG/1.1/DTD/svg11.dtd">
<svg xmlns:xlink="http://www.w3.org/1999/xlink" width="627.230469pt" height="399.158906pt" viewBox="0 0 627.230469 399.158906" xmlns="http://www.w3.org/2000/svg" version="1.1">
 <metadata>
  <rdf:RDF xmlns:dc="http://purl.org/dc/elements/1.1/" xmlns:cc="http://creativecommons.org/ns#" xmlns:rdf="http://www.w3.org/1999/02/22-rdf-syntax-ns#">
   <cc:Work>
    <dc:type rdf:resource="http://purl.org/dc/dcmitype/StillImage"/>
    <dc:format>image/svg+xml</dc:format>
    <dc:creator>
     <cc:Agent>
      <dc:title>Matplotlib v3.11.1, https://matplotlib.org/</dc:title>
     </cc:Agent>
    </dc:creator>
   </cc:Work>
  </rdf:RDF>
 </metadata>
 <defs>
  <style type="text/css">*{stroke-linejoin: round; stroke-linecap: butt}</style>
 </defs>
 <g id="figure_1">
  <g id="patch_1">
   <path d="M 0 399.158906 
L 627.230469 399.158906 
L 627.230469 0 
L 0 0 
z
" style="fill: #ffffff"/>
  </g>
  <g id="axes_1">
   <g id="patch_2">
    <path d="M 49.305469 360.958125 
L 607.305469 360.958125 
L 607.305469 28.318125 
L 49.305469 28.318125 
z
" style="fill: #ffffff"/>
   </g>
   <g id="patch_3">
    <path d="M 226.411108 360.958125 
L 355.721004 360.958125 
L 355.721004 28.318125 
L 226.411108 28.318125 
z
" clip-path="url(#p23290e4125)" style="fill: #2ca02c; opacity: 0.15; stroke: #2ca02c; stroke-linejoin: miter"/>
   </g>
   <g id="matplotlib.axis_1">
    <g id="xtick_1">
     <g id="line2d_1">
      <path d="M 49.305469 360.958125 
L 49.305469 28.318125 
" clip-path="url(#p23290e4125)" style="fill: none; stroke-dasharray: 2.96,1.28; stroke-dashoffset: 0; stroke: #b0b0b0; stroke-opacity: 0.5; stroke-width: 0.8"/>
     </g>
     <g id="line2d_2">
      <defs>
       <path id="m3d27035b55" d="M 0 0 
L 0 3.5 
" style="stroke: #000000; stroke-width: 0.8"/>
      </defs>
      <g>
       <use xlink:href="#m3d27035b55" x="49.305469" y="360.958125" style="stroke: #000000; stroke-width: 0.8"/>
      </g>
     </g>
     <g id="text_1">
      <text style="font-size: 10px; font-family: sans-serif; text-anchor: middle" x="49.305469" y="375.555781" transform="rotate(-0 49.305469 375.555781)">700</text>
     </g>
    </g>
    <g id="xtick_2">
     <g id="line2d_3">
      <path d="M 129.019754 360.958125 
L 129.019754 28.318125 
" clip-path="url(#p23290e4125)" style="fill: none; stroke-dasharray: 2.96,1.28; stroke-dashoffset: 0; stroke: #b0b0b0; stroke-opacity: 0.5; stroke-width: 0.8"/>
     </g>
     <g id="line2d_4">
      <g>
       <use xlink:href="#m3d27035b55" x="129.019754" y="360.958125" style="stroke: #000000; stroke-width: 0.8"/>
      </g>
     </g>
     <g id="text_2">
      <text style="font-size: 10px; font-family: sans-serif; text-anchor: middle" x="129.019754" y="375.555781" transform="rotate(-0 129.019754 375.555781)">800</text>
     </g>
    </g>
    <g id="xtick_3">
     <g id="line2d_5">
      <path d="M 208.73404 360.958125 
L 208.73404 28.318125 
" clip-path="url(#p23290e4125)" style="fill: none; stroke-dasharray: 2.96,1.28; stroke-dashoffset: 0; stroke: #b0b0b0; stroke-opacity: 0.5; stroke-width: 0.8"/>
     </g>
     <g id="line2d_6">
      <g>
       <use xlink:href="#m3d27035b55" x="208.73404" y="360.958125" style="stroke: #000000; stroke-width: 0.8"/>
      </g>
     </g>
     <g id="text_3">
      <text style="font-size: 10px; font-family: sans-serif; text-anchor: middle" x="208.73404" y="375.555781" transform="rotate(-0 208.73404 375.555781)">900</text>
     </g>
    </g>
    <g id="xtick_4">
     <g id="line2d_7">
      <path d="M 288.448326 360.958125 
L 288.448326 28.318125 
" clip-path="url(#p23290e4125)" style="fill: none; stroke-dasharray: 2.96,1.28; stroke-dashoffset: 0; stroke: #b0b0b0; stroke-opacity: 0.5; stroke-width: 0.8"/>
     </g>
     <g id="line2d_8">
      <g>
       <use xlink:href="#m3d27035b55" x="288.448326" y="360.958125" style="stroke: #000000; stroke-width: 0.8"/>
      </g>
     </g>
     <g id="text_4">
      <text style="font-size: 10px; font-family: sans-serif; text-anchor: middle" x="288.448326" y="375.555781" transform="rotate(-0 288.448326 375.555781)">1000</text>
     </g>
    </g>
    <g id="xtick_5">
     <g id="line2d_9">
      <path d="M 368.162612 360.958125 
L 368.162612 28.318125 
" clip-path="url(#p23290e4125)" style="fill: none; stroke-dasharray: 2.96,1.28; stroke-dashoffset: 0; stroke: #b0b0b0; stroke-opacity: 0.5; stroke-width: 0.8"/>
     </g>
     <g id="line2d_10">
      <g>
       <use xlink:href="#m3d27035b55" x="368.162612" y="360.958125" style="stroke: #000000; stroke-width: 0.8"/>
      </g>
     </g>
     <g id="text_5">
      <text style="font-size: 10px; font-family: sans-serif; text-anchor: middle" x="368.162612" y="375.555781" transform="rotate(-0 368.162612 375.555781)">1100</text>
     </g>
    </g>
    <g id="xtick_6">
     <g id="line2d_11">
      <path d="M 447.876897 360.958125 
L 447.876897 28.318125 
" clip-path="url(#p23290e4125)" style="fill: none; stroke-dasharray: 2.96,1.28; stroke-dashoffset: 0; stroke: #b0b0b0; stroke-opacity: 0.5; stroke-width: 0.8"/>
     </g>
     <g id="line2d_12">
      <g>
       <use xlink:href="#m3d27035b55" x="447.876897" y="360.958125" style="stroke: #000000; stroke-width: 0.8"/>
      </g>
     </g>
     <g id="text_6">
      <text style="font-size: 10px; font-family: sans-serif; text-anchor: middle" x="447.876897" y="375.555781" transform="rotate(-0 447.876897 375.555781)">1200</text>
     </g>
    </g>
    <g id="xtick_7">
     <g id="line2d_13">
      <path d="M 527.591183 360.958125 
L 527.591183 28.318125 
" clip-path="url(#p23290e4125)" style="fill: none; stroke-dasharray: 2.96,1.28; stroke-dashoffset: 0; stroke: #b0b0b0; stroke-opacity: 0.5; stroke-width: 0.8"/>
     </g>
     <g id="line2d_14">
      <g>
       <use xlink:href="#m3d27035b55" x="527.591183" y="360.958125" style="stroke: #000000; stroke-width: 0.8"/>
      </g>
     </g>
     <g id="text_7">
      <text style="font-size: 10px; font-family: sans-serif; text-anchor: middle" x="527.591183" y="375.555781" transform="rotate(-0 527.591183 375.555781)">1300</text>
     </g>
    </g>
    <g id="xtick_8">
     <g id="line2d_15">
      <path d="M 607.305469 360.958125 
L 607.305469 28.318125 
" clip-path="url(#p23290e4125)" style="fill: none; stroke-dasharray: 2.96,1.28; stroke-dashoffset: 0; stroke: #b0b0b0; stroke-opacity: 0.5; stroke-width: 0.8"/>
     </g>
     <g id="line2d_16">
      <g>
       <use xlink:href="#m3d27035b55" x="607.305469" y="360.958125" style="stroke: #000000; stroke-width: 0.8"/>
      </g>
     </g>
     <g id="text_8">
      <text style="font-size: 10px; font-family: sans-serif; text-anchor: middle" x="607.305469" y="375.555781" transform="rotate(-0 607.305469 375.555781)">1400</text>
     </g>
    </g>
    <g id="text_9">
     <text style="font-size: 10px; font-family: sans-serif; text-anchor: middle" x="328.305469" y="389.556562" transform="rotate(-0 328.305469 389.556562)">Frequency [Hz]</text>
    </g>
   </g>
   <g id="matplotlib.axis_2">
    <g id="ytick_1">
     <g id="line2d_17">
      <path d="M 49.305469 336.811469 
L 607.305469 336.811469 
" clip-path="url(#p23290e4125)" style="fill: none; stroke-dasharray: 2.96,1.28; stroke-dashoffset: 0; stroke: #b0b0b0; stroke-opacity: 0.5; stroke-width: 0.8"/>
     </g>
     <g id="line2d_18">
      <defs>
       <path id="mef640d9f3a" d="M 0 0 
L -3.5 0 
" style="stroke: #000000; stroke-width: 0.8"/>
      </defs>
      <g>
       <use xlink:href="#mef640d9f3a" x="49.305469" y="336.811469" style="stroke: #000000; stroke-width: 0.8"/>
      </g>
     </g>
     <g id="text_10">
      <text style="font-size: 10px; font-family: sans-serif; text-anchor: end" x="42.305469" y="340.610297" transform="rotate(-0 42.305469 340.610297)">−70</text>
     </g>
    </g>
    <g id="ytick_2">
     <g id="line2d_19">
      <path d="M 49.305469 275.993423 
L 607.305469 275.993423 
" clip-path="url(#p23290e4125)" style="fill: none; stroke-dasharray: 2.96,1.28; stroke-dashoffset: 0; stroke: #b0b0b0; stroke-opacity: 0.5; stroke-width: 0.8"/>
     </g>
     <g id="line2d_20">
      <g>
       <use xlink:href="#mef640d9f3a" x="49.305469" y="275.993423" style="stroke: #000000; stroke-width: 0.8"/>
      </g>
     </g>
     <g id="text_11">
      <text style="font-size: 10px; font-family: sans-serif; text-anchor: end" x="42.305469" y="279.792251" transform="rotate(-0 42.305469 279.792251)">−60</text>
     </g>
    </g>
    <g id="ytick_3">
     <g id="line2d_21">
      <path d="M 49.305469 215.175376 
L 607.305469 215.175376 
" clip-path="url(#p23290e4125)" style="fill: none; stroke-dasharray: 2.96,1.28; stroke-dashoffset: 0; stroke: #b0b0b0; stroke-opacity: 0.5; stroke-width: 0.8"/>
     </g>
     <g id="line2d_22">
      <g>
       <use xlink:href="#mef640d9f3a" x="49.305469" y="215.175376" style="stroke: #000000; stroke-width: 0.8"/>
      </g>
     </g>
     <g id="text_12">
      <text style="font-size: 10px; font-family: sans-serif; text-anchor: end" x="42.305469" y="218.974205" transform="rotate(-0 42.305469 218.974205)">−50</text>
     </g>
    </g>
    <g id="ytick_4">
     <g id="line2d_23">
      <path d="M 49.305469 154.35733 
L 607.305469 154.35733 
" clip-path="url(#p23290e4125)" style="fill: none; stroke-dasharray: 2.96,1.28; stroke-dashoffset: 0; stroke: #b0b0b0; stroke-opacity: 0.5; stroke-width: 0.8"/>
     </g>
     <g id="line2d_24">
      <g>
       <use xlink:href="#mef640d9f3a" x="49.305469" y="154.35733" style="stroke: #000000; stroke-width: 0.8"/>
      </g>
     </g>
     <g id="text_13">
      <text style="font-size: 10px; font-family: sans-serif; text-anchor: end" x="42.305469" y="158.156158" transform="rotate(-0 42.305469 158.156158)">−40</text>
     </g>
    </g>
    <g id="ytick_5">
     <g id="line2d_25">
      <path d="M 49.305469 93.539284 
L 607.305469 93.539284 
" clip-path="url(#p23290e4125)" style="fill: none; stroke-dasharray: 2.96,1.28; stroke-dashoffset: 0; stroke: #b0b0b0; stroke-opacity: 0.5; stroke-width: 0.8"/>
     </g>
     <g id="line2d_26">
      <g>
       <use xlink:href="#mef640d9f3a" x="49.305469" y="93.539284" style="stroke: #000000; stroke-width: 0.8"/>
      </g>
     </g>
     <g id="text_14">
      <text style="font-size: 10px; font-family: sans-serif; text-anchor: end" x="42.305469" y="97.338112" transform="rotate(-0 42.305469 97.338112)">−30</text>
     </g>
    </g>
    <g id="ytick_6">
     <g id="line2d_27">
      <path d="M 49.305469 32.721238 
L 607.305469 32.721238 
" clip-path="url(#p23290e4125)" style="fill: none; stroke-dasharray: 2.96,1.28; stroke-dashoffset: 0; stroke: #b0b0b0; stroke-opacity: 0.5; stroke-width: 0.8"/>
     </g>
     <g id="line2d_28">
      <g>
       <use xlink:href="#mef640d9f3a" x="49.305469" y="32.721238" style="stroke: #000000; stroke-width: 0.8"/>
      </g>
     </g>
     <g id="text_15">
      <text style="font-size: 10px; font-family: sans-serif; text-anchor: end" x="42.305469" y="36.520066" transform="rotate(-0 42.305469 36.520066)">−20</text>
     </g>
    </g>
    <g id="text_16">
     <text style="font-size: 10px; font-family: sans-serif; text-anchor: middle" x="14.798438" y="194.638125" transform="rotate(-90 14.798438 194.638125)">Bin power [dB]</text>
    </g>
   </g>
   <g id="line2d_29">
    <path d="M 50.102612 337.482878 
L 50.899754 334.577899 
L 51.696897 336.049596 
L 52.49404 339.335783 
L 53.291183 339.822745 
L 54.088326 339.188004 
L 54.885469 338.126576 
L 55.682612 339.363096 
L 56.479754 341.441992 
L 57.276897 335.067503 
L 58.07404 331.39695 
L 58.871183 335.412119 
L 59.668326 336.557256 
L 60.465469 335.601987 
L 61.262612 338.413913 
L 62.059754 330.651447 
L 62.856897 330.110799 
L 63.65404 335.289744 
L 64.451183 339.496208 
L 65.248326 341.538466 
L 66.045469 342.185685 
L 66.842612 338.964233 
L 67.639754 333.250427 
L 68.436897 329.848429 
L 69.23404 334.438784 
L 70.031183 331.311547 
L 70.828326 329.000561 
L 71.625469 335.799535 
L 72.422612 336.845375 
L 73.219754 345.812793 
L 74.016897 345.828606 
L 74.81404 343.19561 
L 75.611183 333.732319 
L 76.408326 334.317397 
L 77.205469 336.626369 
L 78.002612 336.31963 
L 78.799754 332.446241 
L 79.596897 334.161891 
L 80.39404 330.731596 
L 81.191183 332.665736 
L 81.988326 338.718543 
L 82.785469 341.911649 
L 83.582612 335.35543 
L 84.379754 330.763778 
L 85.176897 331.965197 
L 85.97404 335.147954 
L 86.771183 337.706995 
L 87.568326 334.147167 
L 88.365469 339.260031 
L 89.162612 342.073422 
L 89.959754 335.525153 
L 90.756897 330.995229 
L 91.55404 333.011825 
L 92.351183 335.548114 
L 93.148326 335.057936 
L 93.945469 333.789205 
L 94.742612 331.596512 
L 95.539754 340.106965 
L 96.336897 340.14851 
L 97.13404 337.528781 
L 97.931183 337.982568 
L 98.728326 335.287112 
L 99.525469 336.404702 
L 100.322612 333.205808 
L 101.119754 335.264671 
L 101.916897 336.225608 
L 102.71404 332.306699 
L 103.511183 336.781406 
L 104.308326 339.169991 
L 105.105469 336.521321 
L 105.902612 335.212318 
L 106.699754 338.858443 
L 107.496897 339.347872 
L 108.29404 340.590888 
L 109.091183 335.460116 
L 109.888326 333.557238 
L 110.685469 335.285874 
L 111.482612 339.789137 
L 112.279754 338.131614 
L 113.076897 343.744526 
L 113.87404 334.456894 
L 114.671183 336.013884 
L 115.468326 332.01428 
L 116.265469 332.461475 
L 117.062612 340.512401 
L 117.859754 337.638353 
L 118.656897 334.249369 
L 119.45404 335.571707 
L 120.251183 337.151156 
L 121.048326 333.772391 
L 121.845469 329.797459 
L 122.642612 333.627372 
L 123.439754 336.344987 
L 124.236897 334.838811 
L 125.03404 330.105475 
L 125.831183 334.205124 
L 126.628326 335.49196 
L 127.425469 338.080177 
L 128.222612 335.895517 
L 129.019754 334.160189 
L 129.816897 336.527638 
L 130.61404 332.457951 
L 131.411183 326.472936 
L 132.208326 332.136482 
L 133.005469 334.511849 
L 133.802612 341.056695 
L 134.599754 335.43358 
L 135.396897 334.391403 
L 136.19404 335.635304 
L 136.991183 343.154377 
L 137.788326 336.540652 
L 138.585469 333.306897 
L 139.382612 341.772386 
L 140.179754 345.838125 
L 140.976897 337.134411 
L 141.77404 338.219163 
L 142.571183 340.528834 
L 143.368326 340.16471 
L 144.165469 338.898273 
L 144.962612 336.713517 
L 145.759754 342.242854 
L 146.556897 343.541781 
L 147.35404 335.932216 
L 148.151183 332.495227 
L 148.948326 337.319038 
L 149.745469 336.559305 
L 150.542612 340.09505 
L 151.339754 341.413395 
L 152.136897 337.843691 
L 152.93404 335.33561 
L 153.731183 337.782621 
L 154.528326 342.152309 
L 155.325469 334.935668 
L 156.122612 334.717375 
L 156.919754 335.358563 
L 157.716897 334.690506 
L 158.51404 336.684485 
L 159.311183 337.948026 
L 160.108326 338.44005 
L 160.905469 341.363635 
L 161.702612 336.784082 
L 162.499754 337.517155 
L 163.296897 345.24563 
L 164.09404 339.043127 
L 164.891183 334.151006 
L 165.688326 336.136688 
L 166.485469 336.695009 
L 167.282612 339.893365 
L 168.079754 340.645069 
L 168.876897 338.937942 
L 169.67404 338.70384 
L 170.471183 335.681333 
L 171.268326 334.229147 
L 172.065469 334.535085 
L 172.862612 331.779253 
L 173.659754 327.959831 
L 174.456897 330.373014 
L 175.25404 334.683536 
L 176.051183 333.561499 
L 176.848326 336.458452 
L 177.645469 338.167848 
L 178.442612 343.401602 
L 179.239754 337.036881 
L 180.036897 336.5069 
L 180.83404 335.734129 
L 181.631183 333.846989 
L 182.428326 338.280853 
L 183.225469 338.974905 
L 184.022612 338.194815 
L 184.819754 340.512552 
L 185.616897 337.680302 
L 186.41404 332.929469 
L 187.211183 331.817037 
L 188.008326 333.377405 
L 188.805469 337.421579 
L 189.602612 334.779803 
L 190.399754 335.372055 
L 191.196897 341.099998 
L 191.99404 344.823891 
L 192.791183 340.498877 
L 193.588326 340.512083 
L 194.385469 339.59018 
L 195.182612 333.876966 
L 195.979754 332.450975 
L 196.776897 335.668046 
L 197.57404 338.339871 
L 198.371183 337.396758 
L 199.168326 334.487119 
L 199.965469 338.444747 
L 200.762612 332.589956 
L 201.559754 332.475251 
L 202.356897 335.268554 
L 203.15404 331.587126 
L 203.951183 330.303061 
L 204.748326 332.881249 
L 205.545469 328.045503 
L 206.342612 335.753783 
L 207.139754 344.814608 
L 207.936897 338.13391 
L 208.73404 338.259199 
L 209.531183 338.183954 
L 210.328326 336.189096 
L 211.125469 336.798506 
L 211.922612 340.310373 
L 212.719754 336.211498 
L 213.516897 336.357418 
L 214.31404 340.659064 
L 215.111183 340.98204 
L 215.908326 338.071065 
L 216.705469 333.106299 
L 217.502612 335.567301 
L 218.299754 334.561521 
L 219.096897 335.27878 
L 219.89404 339.574304 
L 220.691183 340.423185 
L 221.488326 338.909665 
L 222.285469 339.163542 
L 223.082612 335.497858 
L 223.879754 332.723037 
L 225.47404 330.69405 
L 226.271183 331.45316 
L 227.068326 335.009678 
L 227.865469 333.144336 
L 228.662612 334.628752 
L 229.459754 338.855764 
L 230.256897 334.678475 
L 231.05404 332.166017 
L 231.851183 333.432451 
L 232.648326 344.873512 
L 233.445469 339.769321 
L 234.242612 340.416308 
L 235.039754 344.608794 
L 235.836897 339.777711 
L 236.63404 336.529007 
L 237.431183 335.290137 
L 238.228326 333.486619 
L 239.025469 331.991269 
L 239.822612 336.734997 
L 240.619754 340.062563 
L 241.416897 338.309146 
L 242.21404 332.706603 
L 243.011183 332.50755 
L 243.808326 335.180319 
L 244.605469 330.480469 
L 245.402612 330.211725 
L 246.199754 333.8881 
L 246.996897 332.580642 
L 247.79404 331.795972 
L 248.591183 338.542432 
L 249.388326 339.486614 
L 250.185469 333.792618 
L 250.982612 337.209701 
L 251.779754 337.093177 
L 252.576897 333.30613 
L 253.37404 335.169831 
L 254.171183 333.651496 
L 254.968326 333.629342 
L 255.765469 338.443256 
L 256.562612 332.345926 
L 257.359754 328.706231 
L 258.156897 331.91892 
L 258.95404 334.275563 
L 259.751183 334.558053 
L 260.548326 334.018654 
L 261.345469 331.870399 
L 262.142612 330.955862 
L 262.939754 335.65787 
L 263.736897 336.85903 
L 264.53404 330.648105 
L 265.331183 334.459938 
L 266.128326 337.387725 
L 266.925469 337.453577 
L 267.722612 337.954531 
L 268.519754 333.773167 
L 269.316897 331.615271 
L 270.11404 337.05277 
L 270.911183 336.294575 
L 271.708326 342.950017 
L 272.505469 336.893201 
L 274.099754 337.013759 
L 274.896897 334.754931 
L 275.69404 337.10257 
L 276.491183 334.995324 
L 277.288326 339.410403 
L 278.085469 336.962076 
L 278.882612 333.723435 
L 279.679754 335.02974 
L 280.476897 334.688681 
L 281.27404 339.78113 
L 282.071183 335.803961 
L 282.868326 332.506743 
L 283.665469 334.145058 
L 284.462612 334.68218 
L 285.259754 336.491791 
L 286.056897 334.266688 
L 286.85404 335.627622 
L 287.651183 80.059534 
L 288.448326 43.438125 
L 289.245469 80.044592 
L 290.042612 337.092124 
L 290.839754 343.256944 
L 291.636897 334.877054 
L 292.43404 338.157694 
L 293.231183 338.491604 
L 294.028326 335.611105 
L 294.825469 331.752727 
L 295.622612 334.682683 
L 296.419754 335.892945 
L 298.01404 343.887614 
L 298.811183 339.024711 
L 299.608326 336.436608 
L 300.405469 328.705148 
L 301.202612 327.747948 
L 301.999754 333.802837 
L 302.796897 333.665096 
L 303.59404 335.762338 
L 304.391183 339.948325 
L 305.188326 334.74079 
L 305.985469 333.725723 
L 306.782612 333.999656 
L 307.579754 335.323587 
L 308.376897 332.95983 
L 309.17404 330.173231 
L 309.971183 328.656126 
L 310.768326 332.169052 
L 311.565469 338.16597 
L 312.362612 334.23694 
L 313.159754 334.297397 
L 313.956897 336.107048 
L 314.75404 336.801159 
L 315.551183 337.261708 
L 316.348326 340.964505 
L 317.145469 339.901639 
L 317.942612 337.539954 
L 318.739754 332.658054 
L 319.536897 332.102059 
L 320.33404 342.056114 
L 321.131183 338.596491 
L 321.928326 336.383291 
L 322.725469 333.192258 
L 323.522612 329.105793 
L 324.319754 329.723913 
L 325.116897 331.967997 
L 325.91404 334.921435 
L 326.711183 337.072708 
L 327.508326 334.857996 
L 328.305469 341.568018 
L 329.899754 332.971405 
L 330.696897 334.942562 
L 331.49404 332.840572 
L 332.291183 342.729871 
L 333.088326 339.567551 
L 333.885469 334.477964 
L 334.682612 339.794691 
L 336.276897 334.429489 
L 337.07404 336.2584 
L 337.871183 336.436013 
L 338.668326 333.032052 
L 339.465469 333.619441 
L 340.262612 331.431442 
L 341.059754 331.694613 
L 341.856897 337.105398 
L 342.65404 336.274058 
L 343.451183 334.885045 
L 344.248326 333.030106 
L 345.045469 334.302453 
L 345.842612 339.123234 
L 346.639754 333.215083 
L 347.436897 337.399093 
L 348.23404 337.243558 
L 349.031183 338.362478 
L 349.828326 337.467607 
L 350.625469 333.462142 
L 351.422612 338.014184 
L 352.219754 332.938968 
L 353.016897 336.872689 
L 353.81404 337.803468 
L 354.611183 333.907577 
L 355.408326 336.710473 
L 356.205469 338.276888 
L 357.002612 338.075568 
L 357.799754 341.517602 
L 358.596897 338.208627 
L 359.39404 332.202464 
L 360.191183 334.223438 
L 360.988326 342.159631 
L 361.785469 340.006204 
L 362.582612 338.714533 
L 363.379754 339.194121 
L 364.176897 336.728756 
L 364.97404 337.052661 
L 365.771183 336.603962 
L 366.568326 342.069378 
L 367.365469 335.754118 
L 368.959754 340.953313 
L 371.351183 334.393813 
L 372.148326 338.193329 
L 372.945469 334.124793 
L 373.742612 334.434561 
L 374.539754 338.271309 
L 375.336897 340.040651 
L 376.13404 336.66627 
L 376.931183 334.360551 
L 377.728326 336.136555 
L 378.525469 340.923882 
L 379.322612 335.500636 
L 380.119754 333.482817 
L 380.916897 335.639146 
L 381.71404 339.316601 
L 382.511183 337.779913 
L 384.105469 332.407619 
L 384.902612 328.897827 
L 385.699754 333.002409 
L 386.496897 329.833827 
L 388.091183 331.212845 
L 388.888326 334.037962 
L 389.685469 335.683147 
L 390.482612 336.092517 
L 391.279754 334.898005 
L 392.076897 337.03691 
L 392.87404 337.832863 
L 393.671183 334.137049 
L 394.468326 333.442742 
L 395.265469 339.026538 
L 396.062612 331.699165 
L 396.859754 334.594861 
L 397.656897 339.344468 
L 398.45404 335.548605 
L 399.251183 333.50637 
L 400.048326 333.711396 
L 400.845469 336.199743 
L 401.642612 332.040231 
L 402.439754 331.82201 
L 403.236897 334.966436 
L 404.03404 331.122236 
L 404.831183 329.287479 
L 405.628326 333.194968 
L 406.425469 334.752356 
L 407.222612 337.806033 
L 408.019754 339.57234 
L 408.816897 335.94338 
L 409.61404 335.43171 
L 410.411183 333.313881 
L 411.208326 333.128953 
L 412.005469 338.13778 
L 412.802612 332.974664 
L 413.599754 336.361041 
L 414.396897 340.257572 
L 415.19404 338.126505 
L 415.991183 332.68897 
L 416.788326 332.146937 
L 417.585469 334.719502 
L 418.382612 343.134412 
L 419.179754 338.64824 
L 419.976897 340.59063 
L 420.77404 336.454879 
L 421.571183 336.567309 
L 422.368326 336.842457 
L 423.165469 338.363225 
L 423.962612 338.298131 
L 424.759754 345.399598 
L 425.556897 342.401633 
L 426.35404 341.865722 
L 427.151183 340.255716 
L 427.948326 339.530796 
L 428.745469 332.238656 
L 429.542612 332.280341 
L 430.339754 336.823781 
L 431.136897 339.289659 
L 431.93404 334.661388 
L 432.731183 336.174049 
L 433.528326 336.968221 
L 434.325469 338.840563 
L 435.122612 338.888633 
L 435.919754 337.618595 
L 436.716897 333.031855 
L 437.51404 330.072967 
L 438.311183 330.892732 
L 440.702612 339.927446 
L 441.499754 334.222603 
L 442.296897 333.752692 
L 443.09404 335.747552 
L 443.891183 333.190453 
L 444.688326 334.102183 
L 445.485469 336.461033 
L 446.282612 337.620052 
L 447.876897 331.506911 
L 448.67404 332.597053 
L 449.471183 332.931552 
L 450.268326 334.008158 
L 451.065469 332.842084 
L 451.862612 336.685724 
L 452.659754 336.791008 
L 453.456897 333.428261 
L 454.25404 334.591356 
L 455.051183 337.562598 
L 455.848326 342.393868 
L 456.645469 340.906499 
L 457.442612 336.169844 
L 459.036897 332.283361 
L 459.83404 336.295097 
L 460.631183 331.230776 
L 462.225469 336.873613 
L 463.022612 338.127931 
L 464.616897 338.874073 
L 465.41404 339.736588 
L 466.211183 339.891619 
L 467.008326 334.767067 
L 467.805469 327.411874 
L 468.602612 326.979809 
L 469.399754 331.658963 
L 470.196897 335.168807 
L 470.99404 336.117218 
L 471.791183 331.426133 
L 472.588326 330.028712 
L 473.385469 332.331514 
L 474.182612 335.019191 
L 474.979754 341.195754 
L 475.776897 335.136824 
L 476.57404 338.13079 
L 478.168326 339.916142 
L 478.965469 343.353093 
L 479.762612 341.65587 
L 480.559754 333.169605 
L 481.356897 337.684379 
L 482.15404 334.402495 
L 482.951183 338.659865 
L 483.748326 336.886806 
L 484.545469 333.029233 
L 486.139754 332.701952 
L 486.936897 335.022534 
L 487.73404 337.894178 
L 488.531183 336.638613 
L 489.328326 336.691487 
L 490.125469 333.673007 
L 490.922612 338.04822 
L 491.719754 339.590094 
L 492.516897 342.718105 
L 493.31404 336.088722 
L 494.908326 334.426977 
L 495.705469 330.658872 
L 496.502612 330.694876 
L 497.299754 331.052538 
L 498.096897 333.567614 
L 498.89404 332.770703 
L 499.691183 336.349396 
L 500.488326 340.710017 
L 501.285469 335.048107 
L 502.879754 337.253999 
L 503.676897 337.793774 
L 504.47404 338.716097 
L 505.271183 336.977983 
L 506.068326 336.231836 
L 506.865469 333.329485 
L 507.662612 333.776933 
L 508.459754 335.905396 
L 509.256897 343.539846 
L 510.05404 345.514409 
L 510.851183 338.088036 
L 511.648326 339.182696 
L 512.445469 343.067608 
L 513.242612 341.652648 
L 514.039754 335.016405 
L 514.836897 336.309809 
L 515.63404 341.414246 
L 516.431183 344.281191 
L 517.228326 337.646479 
L 518.025469 337.878086 
L 518.822612 335.754043 
L 519.619754 337.605539 
L 520.416897 333.235579 
L 521.21404 334.36474 
L 522.011183 334.381477 
L 522.808326 332.814465 
L 523.605469 333.686307 
L 524.402612 331.606538 
L 525.996897 333.043479 
L 526.79404 327.115374 
L 527.591183 322.88333 
L 528.388326 334.339853 
L 529.185469 337.087164 
L 529.982612 334.394508 
L 530.779754 333.394999 
L 531.576897 338.97525 
L 532.37404 337.560184 
L 533.171183 335.177237 
L 533.968326 329.077359 
L 534.765469 334.27064 
L 535.562612 340.505945 
L 536.359754 339.377115 
L 537.156897 335.929345 
L 537.95404 338.046543 
L 538.751183 341.067404 
L 539.548326 338.597953 
L 540.345469 340.4257 
L 541.142612 336.830856 
L 541.939754 337.673656 
L 542.736897 335.351102 
L 543.53404 333.429026 
L 545.925469 334.602916 
L 546.722612 340.31137 
L 547.519754 335.868458 
L 548.316897 336.344979 
L 549.11404 334.162333 
L 549.911183 328.737702 
L 550.708326 331.205284 
L 551.505469 338.980313 
L 552.302612 342.591943 
L 553.099754 333.981196 
L 553.896897 332.803037 
L 554.69404 330.157266 
L 555.491183 330.970627 
L 557.085469 339.283461 
L 557.882612 340.037703 
L 558.679754 335.181539 
L 559.476897 337.091817 
L 560.27404 340.527076 
L 561.071183 338.404159 
L 561.868326 332.000179 
L 562.665469 327.631617 
L 563.462612 328.312835 
L 564.259754 329.613227 
L 565.056897 337.462009 
L 565.85404 340.4312 
L 567.448326 337.582387 
L 568.245469 338.209695 
L 569.042612 344.795496 
L 569.839754 337.091432 
L 570.636897 333.77576 
L 571.43404 339.094975 
L 572.231183 338.320468 
L 573.028326 337.820021 
L 573.825469 338.326646 
L 574.622612 334.235395 
L 575.419754 332.293363 
L 576.216897 331.852689 
L 577.01404 332.058959 
L 577.811183 337.732837 
L 578.608326 337.393598 
L 579.405469 335.772683 
L 580.202612 335.726993 
L 580.999754 335.388239 
L 581.796897 338.110445 
L 582.59404 340.016229 
L 583.391183 341.482495 
L 584.188326 342.373093 
L 584.985469 341.848958 
L 585.782612 334.577087 
L 586.579754 333.912571 
L 587.376897 339.500186 
L 588.17404 337.315983 
L 588.971183 345.600169 
L 589.768326 345.068876 
L 590.565469 335.871977 
L 591.362612 338.271012 
L 592.159754 342.000447 
L 592.956897 336.962769 
L 593.75404 340.534265 
L 594.551183 338.859343 
L 595.348326 333.320829 
L 596.145469 337.816874 
L 596.942612 338.607437 
L 597.739754 333.896454 
L 598.536897 335.660038 
L 599.33404 337.068657 
L 600.131183 336.142684 
L 600.928326 339.324342 
L 601.725469 334.873284 
L 602.522612 332.232539 
L 603.319754 336.932985 
L 604.116897 340.165765 
L 604.91404 337.930605 
L 605.711183 331.954199 
L 606.508326 337.307237 
L 606.508326 337.307237 
" clip-path="url(#p23290e4125)" style="fill: none; stroke: #1f77b4; stroke-linecap: square"/>
   </g>
   <g id="line2d_30">
    <path d="M 288.448326 360.958125 
L 288.448326 28.318125 
" clip-path="url(#p23290e4125)" style="fill: none; stroke-dasharray: 5.18,2.24; stroke-dashoffset: 0; stroke: #d62728; stroke-width: 1.4"/>
   </g>
   <g id="patch_4">
    <path d="M 49.305469 360.958125 
L 49.305469 28.318125 
" style="fill: none; stroke: #000000; stroke-width: 0.8; stroke-linejoin: miter; stroke-linecap: square"/>
   </g>
   <g id="patch_5">
    <path d="M 607.305469 360.958125 
L 607.305469 28.318125 
" style="fill: none; stroke: #000000; stroke-width: 0.8; stroke-linejoin: miter; stroke-linecap: square"/>
   </g>
   <g id="patch_6">
    <path d="M 49.305469 360.958125 
L 607.305469 360.958125 
" style="fill: none; stroke: #000000; stroke-width: 0.8; stroke-linejoin: miter; stroke-linecap: square"/>
   </g>
   <g id="patch_7">
    <path d="M 49.305469 28.318125 
L 607.305469 28.318125 
" style="fill: none; stroke: #000000; stroke-width: 0.8; stroke-linejoin: miter; stroke-linecap: square"/>
   </g>
   <g id="patch_8">
    <path d="M 380.145789 73.002334 
Q 335.280689 64.488689 291.514022 56.183484 
" style="fill: none; stroke: #000000; stroke-linecap: round"/>
    <path d="M 295.426724 59.165222 
L 291.514022 56.183484 
L 296.247034 54.842365 
" style="fill: none; stroke: #000000; stroke-linecap: round"/>
   </g>
   <g id="text_17">
    <text style="font-size: 11px; font-family: sans-serif" transform="translate(384.105469 78.889554)">TNR = 27.7 dB</text>
    <text style="font-size: 11px; font-family: sans-serif" transform="translate(384.105469 92.092562)">(criterion 8.0 dB)</text>
   </g>
   <g id="text_18">
    <text style="font-weight: 700; font-size: 12px; font-family: sans-serif; text-anchor: middle" x="328.305469" y="16.318125" transform="rotate(-0 328.305469 16.318125)">Tone-to-Noise Ratio (ECMA-418-1, clause 11)</text>
   </g>
   <g id="legend_1">
    <g id="patch_9">
     <path d="M 431.957344 62.519531 
L 601.005469 62.519531 
Q 602.805469 62.519531 602.805469 60.719531 
L 602.805469 34.618125 
Q 602.805469 32.818125 601.005469 32.818125 
L 431.957344 32.818125 
Q 430.157344 32.818125 430.157344 34.618125 
L 430.157344 60.719531 
Q 430.157344 62.519531 431.957344 62.519531 
z
" style="fill: #ffffff; opacity: 0.8; stroke: #cccccc; stroke-linejoin: miter"/>
    </g>
    <g id="line2d_31">
     <path d="M 433.757344 40.106719 
L 442.757344 40.106719 
L 451.757344 40.106719 
" style="fill: none; stroke: #1f77b4; stroke-linecap: square"/>
    </g>
    <g id="text_19">
     <text style="font-size: 9px; font-family: sans-serif; text-anchor: start" x="458.957344" y="43.256719" transform="rotate(-0 458.957344 43.256719)">Averaged FFT spectrum (Hann)</text>
    </g>
    <g id="patch_10">
     <path d="M 433.757344 56.757422 
L 451.757344 56.757422 
L 451.757344 50.457422 
L 433.757344 50.457422 
z
" style="fill: #2ca02c; opacity: 0.15; stroke: #2ca02c; stroke-linejoin: miter"/>
    </g>
    <g id="text_20">
     <text style="font-size: 9px; font-family: sans-serif; text-anchor: start" x="458.957344" y="56.757422" transform="rotate(-0 458.957344 56.757422)">Critical band around the tone</text>
    </g>
   </g>
  </g>
 </g>
 <defs>
  <clipPath id="p23290e4125">
   <rect x="49.305469" y="28.318125" width="558" height="332.64"/>
  </clipPath>
 </defs>
</svg>
