<?xml version="1.0" encoding="utf-8" standalone="no"?>
<!DOCTYPE svg PUBLIC "-//W3C//DTD SVG 1.1//EN"
  "http://www.w3.org/Graphics/SVG/1.1/DTD/svg11.dtd">
<svg xmlns:xlink="http://www.w3.org/1999/xlink" width="707.749375pt" height="455.102437pt" viewBox="0 0 707.749375 455.102437" xmlns="http://www.w3.org/2000/svg" version="1.1">
 <metadata>
  <rdf:RDF xmlns:dc="http://purl.org/dc/elements/1.1/" xmlns:cc="http://creativecommons.org/ns#" xmlns:rdf="http://www.w3.org/1999/02/22-rdf-syntax-ns#">
   <cc:Work>
    <dc:type rdf:resource="http://purl.org/dc/dcmitype/StillImage"/>
    <dc:format>image/svg+xml</dc:format>
    <dc:creator>
     <cc:Agent>
      <dc:title>Matplotlib v3.11.1, https://matplotlib.org/</dc:title>
     </cc:Agent>
    </dc:creator>
   </cc:Work>
  </rdf:RDF>
 </metadata>
 <defs>
  <style type="text/css">*{stroke-linejoin: round; stroke-linecap: butt}</style>
 </defs>
 <g id="figure_1">
  <g id="patch_1">
   <path d="M 0 455.102437 
L 707.749375 455.102437 
L 707.749375 0 
L 0 0 
z
"/>
  </g>
  <g id="axes_1">
   <g id="patch_2">
    <path d="M 47.711719 203.303062 
L 700.549375 203.303062 
L 700.549375 46.706812 
L 47.711719 46.706812 
z
"/>
   </g>
   <g id="matplotlib.axis_1">
    <g id="xtick_1">
     <g id="line2d_1">
      <path d="M 77.386158 203.303062 
L 77.386158 46.706812 
" clip-path="url(#pc3e7a0cda0)" style="fill: none; stroke-dasharray: 2.96,1.28; stroke-dashoffset: 0; stroke: #555555; stroke-opacity: 0.5; stroke-width: 0.8"/>
     </g>
     <g id="line2d_2">
      <defs>
       <path id="m8d14ee1197" d="M 0 0 
L 0 3.5 
" style="stroke: #ffffff; stroke-width: 0.8"/>
      </defs>
      <g>
       <use xlink:href="#m8d14ee1197" x="77.386158" y="203.303062" style="fill: #ffffff; stroke: #ffffff; stroke-width: 0.8"/>
      </g>
     </g>
     <g id="text_1">
      <text style="font-size: 10px; font-family: sans-serif; text-anchor: middle; fill: #ffffff" x="77.386158" y="217.900719" transform="rotate(-0 77.386158 217.900719)">0</text>
     </g>
    </g>
    <g id="xtick_2">
     <g id="line2d_3">
      <path d="M 162.423356 203.303062 
L 162.423356 46.706812 
" clip-path="url(#pc3e7a0cda0)" style="fill: none; stroke-dasharray: 2.96,1.28; stroke-dashoffset: 0; stroke: #555555; stroke-opacity: 0.5; stroke-width: 0.8"/>
     </g>
     <g id="line2d_4">
      <g>
       <use xlink:href="#m8d14ee1197" x="162.423356" y="203.303062" style="fill: #ffffff; stroke: #ffffff; stroke-width: 0.8"/>
      </g>
     </g>
     <g id="text_2">
      <text style="font-size: 10px; font-family: sans-serif; text-anchor: middle; fill: #ffffff" x="162.423356" y="217.900719" transform="rotate(-0 162.423356 217.900719)">1</text>
     </g>
    </g>
    <g id="xtick_3">
     <g id="line2d_5">
      <path d="M 247.460554 203.303062 
L 247.460554 46.706812 
" clip-path="url(#pc3e7a0cda0)" style="fill: none; stroke-dasharray: 2.96,1.28; stroke-dashoffset: 0; stroke: #555555; stroke-opacity: 0.5; stroke-width: 0.8"/>
     </g>
     <g id="line2d_6">
      <g>
       <use xlink:href="#m8d14ee1197" x="247.460554" y="203.303062" style="fill: #ffffff; stroke: #ffffff; stroke-width: 0.8"/>
      </g>
     </g>
     <g id="text_3">
      <text style="font-size: 10px; font-family: sans-serif; text-anchor: middle; fill: #ffffff" x="247.460554" y="217.900719" transform="rotate(-0 247.460554 217.900719)">2</text>
     </g>
    </g>
    <g id="xtick_4">
     <g id="line2d_7">
      <path d="M 332.497752 203.303062 
L 332.497752 46.706812 
" clip-path="url(#pc3e7a0cda0)" style="fill: none; stroke-dasharray: 2.96,1.28; stroke-dashoffset: 0; stroke: #555555; stroke-opacity: 0.5; stroke-width: 0.8"/>
     </g>
     <g id="line2d_8">
      <g>
       <use xlink:href="#m8d14ee1197" x="332.497752" y="203.303062" style="fill: #ffffff; stroke: #ffffff; stroke-width: 0.8"/>
      </g>
     </g>
     <g id="text_4">
      <text style="font-size: 10px; font-family: sans-serif; text-anchor: middle; fill: #ffffff" x="332.497752" y="217.900719" transform="rotate(-0 332.497752 217.900719)">3</text>
     </g>
    </g>
    <g id="xtick_5">
     <g id="line2d_9">
      <path d="M 417.53495 203.303062 
L 417.53495 46.706812 
" clip-path="url(#pc3e7a0cda0)" style="fill: none; stroke-dasharray: 2.96,1.28; stroke-dashoffset: 0; stroke: #555555; stroke-opacity: 0.5; stroke-width: 0.8"/>
     </g>
     <g id="line2d_10">
      <g>
       <use xlink:href="#m8d14ee1197" x="417.53495" y="203.303062" style="fill: #ffffff; stroke: #ffffff; stroke-width: 0.8"/>
      </g>
     </g>
     <g id="text_5">
      <text style="font-size: 10px; font-family: sans-serif; text-anchor: middle; fill: #ffffff" x="417.53495" y="217.900719" transform="rotate(-0 417.53495 217.900719)">4</text>
     </g>
    </g>
    <g id="xtick_6">
     <g id="line2d_11">
      <path d="M 502.572148 203.303062 
L 502.572148 46.706812 
" clip-path="url(#pc3e7a0cda0)" style="fill: none; stroke-dasharray: 2.96,1.28; stroke-dashoffset: 0; stroke: #555555; stroke-opacity: 0.5; stroke-width: 0.8"/>
     </g>
     <g id="line2d_12">
      <g>
       <use xlink:href="#m8d14ee1197" x="502.572148" y="203.303062" style="fill: #ffffff; stroke: #ffffff; stroke-width: 0.8"/>
      </g>
     </g>
     <g id="text_6">
      <text style="font-size: 10px; font-family: sans-serif; text-anchor: middle; fill: #ffffff" x="502.572148" y="217.900719" transform="rotate(-0 502.572148 217.900719)">5</text>
     </g>
    </g>
    <g id="xtick_7">
     <g id="line2d_13">
      <path d="M 587.609346 203.303062 
L 587.609346 46.706812 
" clip-path="url(#pc3e7a0cda0)" style="fill: none; stroke-dasharray: 2.96,1.28; stroke-dashoffset: 0; stroke: #555555; stroke-opacity: 0.5; stroke-width: 0.8"/>
     </g>
     <g id="line2d_14">
      <g>
       <use xlink:href="#m8d14ee1197" x="587.609346" y="203.303062" style="fill: #ffffff; stroke: #ffffff; stroke-width: 0.8"/>
      </g>
     </g>
     <g id="text_7">
      <text style="font-size: 10px; font-family: sans-serif; text-anchor: middle; fill: #ffffff" x="587.609346" y="217.900719" transform="rotate(-0 587.609346 217.900719)">6</text>
     </g>
    </g>
    <g id="xtick_8">
     <g id="line2d_15">
      <path d="M 672.646544 203.303062 
L 672.646544 46.706812 
" clip-path="url(#pc3e7a0cda0)" style="fill: none; stroke-dasharray: 2.96,1.28; stroke-dashoffset: 0; stroke: #555555; stroke-opacity: 0.5; stroke-width: 0.8"/>
     </g>
     <g id="line2d_16">
      <g>
       <use xlink:href="#m8d14ee1197" x="672.646544" y="203.303062" style="fill: #ffffff; stroke: #ffffff; stroke-width: 0.8"/>
      </g>
     </g>
     <g id="text_8">
      <text style="font-size: 10px; font-family: sans-serif; text-anchor: middle; fill: #ffffff" x="672.646544" y="217.900719" transform="rotate(-0 672.646544 217.900719)">7</text>
     </g>
    </g>
    <g id="text_9">
     <text style="font-size: 10px; font-family: sans-serif; text-anchor: middle; fill: #ffffff" x="374.130547" y="231.9015" transform="rotate(-0 374.130547 231.9015)">Tiempo [ms]</text>
    </g>
   </g>
   <g id="matplotlib.axis_2">
    <g id="ytick_1">
     <g id="line2d_17">
      <path d="M 47.711719 196.185051 
L 700.549375 196.185051 
" clip-path="url(#pc3e7a0cda0)" style="fill: none; stroke-dasharray: 2.96,1.28; stroke-dashoffset: 0; stroke: #555555; stroke-opacity: 0.5; stroke-width: 0.8"/>
     </g>
     <g id="line2d_18">
      <defs>
       <path id="m5e07181663" d="M 0 0 
L -3.5 0 
" style="stroke: #ffffff; stroke-width: 0.8"/>
      </defs>
      <g>
       <use xlink:href="#m5e07181663" x="47.711719" y="196.185051" style="fill: #ffffff; stroke: #ffffff; stroke-width: 0.8"/>
      </g>
     </g>
     <g id="text_10">
      <text style="font-size: 10px; font-family: sans-serif; text-anchor: end; fill: #ffffff" x="40.711719" y="199.983879" transform="rotate(-0 40.711719 199.983879)">-1</text>
     </g>
    </g>
    <g id="ytick_2">
     <g id="line2d_19">
      <path d="M 47.711719 160.594994 
L 700.549375 160.594994 
" clip-path="url(#pc3e7a0cda0)" style="fill: none; stroke-dasharray: 2.96,1.28; stroke-dashoffset: 0; stroke: #555555; stroke-opacity: 0.5; stroke-width: 0.8"/>
     </g>
     <g id="line2d_20">
      <g>
       <use xlink:href="#m5e07181663" x="47.711719" y="160.594994" style="fill: #ffffff; stroke: #ffffff; stroke-width: 0.8"/>
      </g>
     </g>
     <g id="text_11">
      <text style="font-size: 10px; font-family: sans-serif; text-anchor: end; fill: #ffffff" x="40.711719" y="164.393822" transform="rotate(-0 40.711719 164.393822)">-0,5</text>
     </g>
    </g>
    <g id="ytick_3">
     <g id="line2d_21">
      <path d="M 47.711719 125.004937 
L 700.549375 125.004937 
" clip-path="url(#pc3e7a0cda0)" style="fill: none; stroke-dasharray: 2.96,1.28; stroke-dashoffset: 0; stroke: #555555; stroke-opacity: 0.5; stroke-width: 0.8"/>
     </g>
     <g id="line2d_22">
      <g>
       <use xlink:href="#m5e07181663" x="47.711719" y="125.004937" style="fill: #ffffff; stroke: #ffffff; stroke-width: 0.8"/>
      </g>
     </g>
     <g id="text_12">
      <text style="font-size: 10px; font-family: sans-serif; text-anchor: end; fill: #ffffff" x="40.711719" y="128.803766" transform="rotate(-0 40.711719 128.803766)">0</text>
     </g>
    </g>
    <g id="ytick_4">
     <g id="line2d_23">
      <path d="M 47.711719 89.414881 
L 700.549375 89.414881 
" clip-path="url(#pc3e7a0cda0)" style="fill: none; stroke-dasharray: 2.96,1.28; stroke-dashoffset: 0; stroke: #555555; stroke-opacity: 0.5; stroke-width: 0.8"/>
     </g>
     <g id="line2d_24">
      <g>
       <use xlink:href="#m5e07181663" x="47.711719" y="89.414881" style="fill: #ffffff; stroke: #ffffff; stroke-width: 0.8"/>
      </g>
     </g>
     <g id="text_13">
      <text style="font-size: 10px; font-family: sans-serif; text-anchor: end; fill: #ffffff" x="40.711719" y="93.213709" transform="rotate(-0 40.711719 93.213709)">0,5</text>
     </g>
    </g>
    <g id="ytick_5">
     <g id="line2d_25">
      <path d="M 47.711719 53.824824 
L 700.549375 53.824824 
" clip-path="url(#pc3e7a0cda0)" style="fill: none; stroke-dasharray: 2.96,1.28; stroke-dashoffset: 0; stroke: #555555; stroke-opacity: 0.5; stroke-width: 0.8"/>
     </g>
     <g id="line2d_26">
      <g>
       <use xlink:href="#m5e07181663" x="47.711719" y="53.824824" style="fill: #ffffff; stroke: #ffffff; stroke-width: 0.8"/>
      </g>
     </g>
     <g id="text_14">
      <text style="font-size: 10px; font-family: sans-serif; text-anchor: end; fill: #ffffff" x="40.711719" y="57.623652" transform="rotate(-0 40.711719 57.623652)">1</text>
     </g>
    </g>
    <g id="text_15">
     <text style="font-size: 10px; font-family: sans-serif; text-anchor: middle; fill: #ffffff" x="14.798438" y="125.004937" transform="rotate(-90 14.798438 125.004937)">Amplitud</text>
    </g>
   </g>
   <g id="line2d_27">
    <path d="M 77.386158 125.004937 
L 162.423356 125.004937 
L 164.194964 81.67323 
L 165.966572 56.250227 
L 167.738181 59.243087 
L 169.509789 89.414881 
L 171.281397 134.295807 
L 173.053006 175.336879 
L 174.824614 195.576095 
L 176.596222 186.648724 
L 178.36783 152.244388 
L 180.139439 106.582168 
L 181.911047 68.533957 
L 183.682655 53.824824 
L 185.454264 68.533957 
L 187.225872 106.582168 
L 188.99748 152.244388 
L 190.769088 186.648724 
L 192.540697 195.576095 
L 194.312305 175.336879 
L 196.083913 134.295807 
L 197.855522 89.414881 
L 199.62713 59.243087 
L 201.398738 56.250227 
L 203.170347 81.67323 
L 206.713563 168.336645 
L 208.485171 193.759648 
L 210.25678 190.766788 
L 212.028388 160.594994 
L 213.799996 115.714068 
L 215.571605 74.672996 
L 217.343213 54.43378 
L 219.114821 63.361151 
L 220.886429 97.765487 
L 222.658038 143.427707 
L 224.429646 181.475918 
L 226.201254 196.185051 
L 227.972863 181.475918 
L 229.744471 143.427707 
L 231.516079 97.765487 
L 233.287688 63.361151 
L 235.059296 54.43378 
L 236.830904 74.672996 
L 238.602512 115.714068 
L 240.374121 160.594994 
L 242.145729 190.766788 
L 243.917337 193.759648 
L 245.688946 168.336645 
L 249.232162 81.67323 
L 251.00377 56.250227 
L 252.775379 59.243087 
L 254.546987 89.414881 
L 256.318595 134.295807 
L 258.090204 175.336879 
L 259.861812 195.576095 
L 261.63342 186.648724 
L 263.405029 152.244388 
L 265.176637 106.582168 
L 266.948245 68.533957 
L 268.719853 53.824824 
L 270.491462 68.533957 
L 272.26307 106.582168 
L 274.034678 152.244388 
L 275.806287 186.648724 
L 277.577895 195.576095 
L 279.349503 175.336879 
L 281.121111 134.295807 
L 282.89272 89.414881 
L 284.664328 59.243087 
L 286.435936 56.250227 
L 288.207545 81.67323 
L 291.750761 168.336645 
L 293.52237 193.759648 
L 295.293978 190.766788 
L 297.065586 160.594994 
L 298.837194 115.714068 
L 300.608803 74.672996 
L 302.380411 54.43378 
L 304.152019 63.361151 
L 305.923628 97.765487 
L 307.695236 143.427707 
L 309.466844 181.475918 
L 311.238452 196.185051 
L 313.010061 181.475918 
L 314.781669 143.427707 
L 316.553277 97.765487 
L 318.324886 63.361151 
L 320.096494 54.43378 
L 321.868102 74.672996 
L 323.639711 115.714068 
L 325.411319 160.594994 
L 327.182927 190.766788 
L 328.954535 193.759648 
L 330.726144 168.336645 
L 334.26936 81.67323 
L 336.040969 56.250227 
L 337.812577 59.243087 
L 339.584185 89.414881 
L 341.355793 134.295807 
L 343.127402 175.336879 
L 344.89901 195.576095 
L 346.670618 186.648724 
L 348.442227 152.244388 
L 350.213835 106.582168 
L 351.985443 68.533957 
L 353.757051 53.824824 
L 355.52866 68.533957 
L 357.300268 106.582168 
L 359.071876 152.244388 
L 360.843485 186.648724 
L 362.615093 195.576095 
L 364.386701 175.336879 
L 366.15831 134.295807 
L 367.929918 89.414881 
L 369.701526 59.243087 
L 371.473134 56.250227 
L 373.244743 81.67323 
L 376.787959 168.336645 
L 378.559568 193.759648 
L 380.331176 190.766788 
L 382.102784 160.594994 
L 383.874392 115.714068 
L 385.646001 74.672996 
L 387.417609 54.43378 
L 389.189217 63.361151 
L 390.960826 97.765487 
L 392.732434 143.427707 
L 394.504042 181.475918 
L 396.275651 196.185051 
L 398.047259 181.475918 
L 399.818867 143.427707 
L 401.590475 97.765487 
L 403.362084 63.361151 
L 405.133692 54.43378 
L 406.9053 74.672996 
L 408.676909 115.714068 
L 410.448517 160.594994 
L 412.220125 190.766788 
L 413.991733 193.759648 
L 415.763342 168.336645 
L 419.306558 81.67323 
L 421.078167 56.250227 
L 422.849775 59.243087 
L 424.621383 89.414881 
L 426.392992 134.295807 
L 428.1646 175.336879 
L 429.936208 195.576095 
L 431.707816 186.648724 
L 433.479425 152.244388 
L 435.251033 106.582168 
L 437.022641 68.533957 
L 438.79425 53.824824 
L 440.565858 68.533957 
L 442.337466 106.582168 
L 444.109074 152.244388 
L 445.880683 186.648724 
L 447.652291 195.576095 
L 449.423899 175.336879 
L 451.195508 134.295807 
L 452.967116 89.414881 
L 454.738724 59.243087 
L 456.510333 56.250227 
L 458.281941 81.67323 
L 461.825157 168.336645 
L 463.596766 193.759648 
L 465.368374 190.766788 
L 467.139982 160.594994 
L 468.911591 115.714068 
L 470.683199 74.672996 
L 472.454807 54.43378 
L 474.226415 63.361151 
L 475.998024 97.765487 
L 477.769632 143.427707 
L 479.54124 181.475918 
L 481.312849 196.185051 
L 483.084457 181.475918 
L 484.856065 143.427707 
L 486.627674 97.765487 
L 488.399282 63.361151 
L 490.17089 54.43378 
L 491.942498 74.672996 
L 493.714107 115.714068 
L 495.485715 160.594994 
L 497.257323 190.766788 
L 499.028932 193.759648 
L 500.80054 168.336645 
L 504.343756 81.67323 
L 506.115365 56.250227 
L 507.886973 59.243087 
L 509.658581 89.414881 
L 511.43019 134.295807 
L 513.201798 175.336879 
L 514.973406 195.576095 
L 516.745015 186.648724 
L 518.516623 152.244388 
L 520.288231 106.582168 
L 522.059839 68.533957 
L 523.831448 53.824824 
L 525.603056 68.533957 
L 527.374664 106.582168 
L 529.146273 152.244388 
L 530.917881 186.648724 
L 532.689489 195.576095 
L 534.461097 175.336879 
L 536.232706 134.295807 
L 538.004314 89.414881 
L 539.775922 59.243087 
L 541.547531 56.250227 
L 543.319139 81.67323 
L 546.862356 168.336645 
L 548.633964 193.759648 
L 550.405572 190.766788 
L 552.17718 160.594994 
L 553.948789 115.714068 
L 555.720397 74.672996 
L 557.492005 54.43378 
L 559.263614 63.361151 
L 561.035222 97.765487 
L 562.80683 143.427707 
L 564.578438 181.475918 
L 566.350047 196.185051 
L 568.121655 181.475918 
L 569.893263 143.427707 
L 571.664872 97.765487 
L 573.43648 63.361151 
L 575.208088 54.43378 
L 576.979697 74.672996 
L 578.751305 115.714068 
L 580.522913 160.594994 
L 582.294521 190.766788 
L 584.06613 193.759648 
L 585.837738 168.336645 
L 587.609346 125.004937 
L 670.874936 125.004937 
L 670.874936 125.004937 
" clip-path="url(#pc3e7a0cda0)" style="fill: none; stroke: #1f77b4; stroke-width: 0.9; stroke-linecap: square"/>
   </g>
   <g id="line2d_28">
    <path d="M 77.386158 125.004937 
L 160.651747 125.004937 
L 162.423356 53.824824 
L 585.837738 53.824824 
L 587.609346 125.004937 
L 670.874936 125.004937 
L 670.874936 125.004937 
" clip-path="url(#pc3e7a0cda0)" style="fill: none; stroke-dasharray: 5.92,2.56; stroke-dashoffset: 0; stroke: #d62728; stroke-width: 1.6"/>
   </g>
   <g id="line2d_29">
    <path d="M 77.386158 125.004937 
L 160.651747 125.004937 
L 162.423356 196.185051 
L 585.837738 196.185051 
L 587.609346 125.004937 
L 670.874936 125.004937 
L 670.874936 125.004937 
" clip-path="url(#pc3e7a0cda0)" style="fill: none; stroke-dasharray: 5.92,2.56; stroke-dashoffset: 0; stroke: #d62728; stroke-width: 1.6"/>
   </g>
   <g id="patch_3">
    <path d="M 47.711719 203.303062 
L 47.711719 46.706812 
" style="fill: none; stroke: #ffffff; stroke-width: 0.8; stroke-linejoin: miter; stroke-linecap: square"/>
   </g>
   <g id="patch_4">
    <path d="M 700.549375 203.303062 
L 700.549375 46.706812 
" style="fill: none; stroke: #ffffff; stroke-width: 0.8; stroke-linejoin: miter; stroke-linecap: square"/>
   </g>
   <g id="patch_5">
    <path d="M 47.711719 203.303062 
L 700.549375 203.303062 
" style="fill: none; stroke: #ffffff; stroke-width: 0.8; stroke-linejoin: miter; stroke-linecap: square"/>
   </g>
   <g id="patch_6">
    <path d="M 47.711719 46.706812 
L 700.549375 46.706812 
" style="fill: none; stroke: #ffffff; stroke-width: 0.8; stroke-linejoin: miter; stroke-linecap: square"/>
   </g>
   <g id="text_16">
    <text style="font-weight: 700; font-size: 12px; font-family: sans-serif; text-anchor: middle; fill: #ffffff" x="374.130547" y="40.706812" transform="rotate(-0 374.130547 40.706812)">Salva única de 5 ms de tono de 5 kHz (25 períodos completos)</text>
   </g>
   <g id="legend_1">
    <g id="patch_7">
     <path d="M 539.785469 67.767516 
L 694.249375 67.767516 
Q 696.049375 67.767516 696.049375 65.967516 
L 696.049375 53.006812 
Q 696.049375 51.206812 694.249375 51.206812 
L 539.785469 51.206812 
Q 537.985469 51.206812 537.985469 53.006812 
L 537.985469 65.967516 
Q 537.985469 67.767516 539.785469 67.767516 
z
" style="opacity: 0.8; stroke: #cccccc; stroke-linejoin: miter"/>
    </g>
    <g id="line2d_30">
     <path d="M 541.585469 58.855406 
L 550.585469 58.855406 
L 559.585469 58.855406 
" style="fill: none; stroke-dasharray: 5.92,2.56; stroke-dashoffset: 0; stroke: #d62728; stroke-width: 1.6"/>
    </g>
    <g id="text_17">
     <text style="font-size: 9px; font-family: sans-serif; text-anchor: start; fill: #ffffff" x="566.785469" y="62.005406" transform="rotate(-0 566.785469 62.005406)">Envolvente de conmutación</text>
    </g>
   </g>
  </g>
  <g id="axes_2">
   <g id="patch_8">
    <path d="M 47.711719 416.901656 
L 700.549375 416.901656 
L 700.549375 260.305406 
L 47.711719 260.305406 
z
"/>
   </g>
   <g id="matplotlib.axis_3">
    <g id="xtick_9">
     <g id="line2d_31">
      <path d="M 77.386158 416.901656 
L 77.386158 260.305406 
" clip-path="url(#p11f3152687)" style="fill: none; stroke-dasharray: 2.96,1.28; stroke-dashoffset: 0; stroke: #555555; stroke-opacity: 0.5; stroke-width: 0.8"/>
     </g>
     <g id="line2d_32">
      <g>
       <use xlink:href="#m8d14ee1197" x="77.386158" y="416.901656" style="fill: #ffffff; stroke: #ffffff; stroke-width: 0.8"/>
      </g>
     </g>
     <g id="text_18">
      <text style="font-size: 10px; font-family: sans-serif; text-anchor: middle; fill: #ffffff" x="77.386158" y="431.499312" transform="rotate(-0 77.386158 431.499312)">0</text>
     </g>
    </g>
    <g id="xtick_10">
     <g id="line2d_33">
      <path d="M 151.576119 416.901656 
L 151.576119 260.305406 
" clip-path="url(#p11f3152687)" style="fill: none; stroke-dasharray: 2.96,1.28; stroke-dashoffset: 0; stroke: #555555; stroke-opacity: 0.5; stroke-width: 0.8"/>
     </g>
     <g id="line2d_34">
      <g>
       <use xlink:href="#m8d14ee1197" x="151.576119" y="416.901656" style="fill: #ffffff; stroke: #ffffff; stroke-width: 0.8"/>
      </g>
     </g>
     <g id="text_19">
      <text style="font-size: 10px; font-family: sans-serif; text-anchor: middle; fill: #ffffff" x="151.576119" y="431.499312" transform="rotate(-0 151.576119 431.499312)">0,05</text>
     </g>
    </g>
    <g id="xtick_11">
     <g id="line2d_35">
      <path d="M 225.76608 416.901656 
L 225.76608 260.305406 
" clip-path="url(#p11f3152687)" style="fill: none; stroke-dasharray: 2.96,1.28; stroke-dashoffset: 0; stroke: #555555; stroke-opacity: 0.5; stroke-width: 0.8"/>
     </g>
     <g id="line2d_36">
      <g>
       <use xlink:href="#m8d14ee1197" x="225.76608" y="416.901656" style="fill: #ffffff; stroke: #ffffff; stroke-width: 0.8"/>
      </g>
     </g>
     <g id="text_20">
      <text style="font-size: 10px; font-family: sans-serif; text-anchor: middle; fill: #ffffff" x="225.76608" y="431.499312" transform="rotate(-0 225.76608 431.499312)">0,1</text>
     </g>
    </g>
    <g id="xtick_12">
     <g id="line2d_37">
      <path d="M 299.956042 416.901656 
L 299.956042 260.305406 
" clip-path="url(#p11f3152687)" style="fill: none; stroke-dasharray: 2.96,1.28; stroke-dashoffset: 0; stroke: #555555; stroke-opacity: 0.5; stroke-width: 0.8"/>
     </g>
     <g id="line2d_38">
      <g>
       <use xlink:href="#m8d14ee1197" x="299.956042" y="416.901656" style="fill: #ffffff; stroke: #ffffff; stroke-width: 0.8"/>
      </g>
     </g>
     <g id="text_21">
      <text style="font-size: 10px; font-family: sans-serif; text-anchor: middle; fill: #ffffff" x="299.956042" y="431.499312" transform="rotate(-0 299.956042 431.499312)">0,15</text>
     </g>
    </g>
    <g id="xtick_13">
     <g id="line2d_39">
      <path d="M 374.146003 416.901656 
L 374.146003 260.305406 
" clip-path="url(#p11f3152687)" style="fill: none; stroke-dasharray: 2.96,1.28; stroke-dashoffset: 0; stroke: #555555; stroke-opacity: 0.5; stroke-width: 0.8"/>
     </g>
     <g id="line2d_40">
      <g>
       <use xlink:href="#m8d14ee1197" x="374.146003" y="416.901656" style="fill: #ffffff; stroke: #ffffff; stroke-width: 0.8"/>
      </g>
     </g>
     <g id="text_22">
      <text style="font-size: 10px; font-family: sans-serif; text-anchor: middle; fill: #ffffff" x="374.146003" y="431.499312" transform="rotate(-0 374.146003 431.499312)">0,2</text>
     </g>
    </g>
    <g id="xtick_14">
     <g id="line2d_41">
      <path d="M 448.335964 416.901656 
L 448.335964 260.305406 
" clip-path="url(#p11f3152687)" style="fill: none; stroke-dasharray: 2.96,1.28; stroke-dashoffset: 0; stroke: #555555; stroke-opacity: 0.5; stroke-width: 0.8"/>
     </g>
     <g id="line2d_42">
      <g>
       <use xlink:href="#m8d14ee1197" x="448.335964" y="416.901656" style="fill: #ffffff; stroke: #ffffff; stroke-width: 0.8"/>
      </g>
     </g>
     <g id="text_23">
      <text style="font-size: 10px; font-family: sans-serif; text-anchor: middle; fill: #ffffff" x="448.335964" y="431.499312" transform="rotate(-0 448.335964 431.499312)">0,25</text>
     </g>
    </g>
    <g id="xtick_15">
     <g id="line2d_43">
      <path d="M 522.525926 416.901656 
L 522.525926 260.305406 
" clip-path="url(#p11f3152687)" style="fill: none; stroke-dasharray: 2.96,1.28; stroke-dashoffset: 0; stroke: #555555; stroke-opacity: 0.5; stroke-width: 0.8"/>
     </g>
     <g id="line2d_44">
      <g>
       <use xlink:href="#m8d14ee1197" x="522.525926" y="416.901656" style="fill: #ffffff; stroke: #ffffff; stroke-width: 0.8"/>
      </g>
     </g>
     <g id="text_24">
      <text style="font-size: 10px; font-family: sans-serif; text-anchor: middle; fill: #ffffff" x="522.525926" y="431.499312" transform="rotate(-0 522.525926 431.499312)">0,3</text>
     </g>
    </g>
    <g id="xtick_16">
     <g id="line2d_45">
      <path d="M 596.715887 416.901656 
L 596.715887 260.305406 
" clip-path="url(#p11f3152687)" style="fill: none; stroke-dasharray: 2.96,1.28; stroke-dashoffset: 0; stroke: #555555; stroke-opacity: 0.5; stroke-width: 0.8"/>
     </g>
     <g id="line2d_46">
      <g>
       <use xlink:href="#m8d14ee1197" x="596.715887" y="416.901656" style="fill: #ffffff; stroke: #ffffff; stroke-width: 0.8"/>
      </g>
     </g>
     <g id="text_25">
      <text style="font-size: 10px; font-family: sans-serif; text-anchor: middle; fill: #ffffff" x="596.715887" y="431.499312" transform="rotate(-0 596.715887 431.499312)">0,35</text>
     </g>
    </g>
    <g id="xtick_17">
     <g id="line2d_47">
      <path d="M 670.905849 416.901656 
L 670.905849 260.305406 
" clip-path="url(#p11f3152687)" style="fill: none; stroke-dasharray: 2.96,1.28; stroke-dashoffset: 0; stroke: #555555; stroke-opacity: 0.5; stroke-width: 0.8"/>
     </g>
     <g id="line2d_48">
      <g>
       <use xlink:href="#m8d14ee1197" x="670.905849" y="416.901656" style="fill: #ffffff; stroke: #ffffff; stroke-width: 0.8"/>
      </g>
     </g>
     <g id="text_26">
      <text style="font-size: 10px; font-family: sans-serif; text-anchor: middle; fill: #ffffff" x="670.905849" y="431.499312" transform="rotate(-0 670.905849 431.499312)">0,4</text>
     </g>
    </g>
    <g id="text_27">
     <text style="font-size: 10px; font-family: sans-serif; text-anchor: middle; fill: #ffffff" x="374.130547" y="445.500094" transform="rotate(-0 374.130547 445.500094)">Tiempo [s]</text>
    </g>
   </g>
   <g id="matplotlib.axis_4">
    <g id="ytick_6">
     <g id="line2d_49">
      <path d="M 47.711719 409.783645 
L 700.549375 409.783645 
" clip-path="url(#p11f3152687)" style="fill: none; stroke-dasharray: 2.96,1.28; stroke-dashoffset: 0; stroke: #555555; stroke-opacity: 0.5; stroke-width: 0.8"/>
     </g>
     <g id="line2d_50">
      <g>
       <use xlink:href="#m5e07181663" x="47.711719" y="409.783645" style="fill: #ffffff; stroke: #ffffff; stroke-width: 0.8"/>
      </g>
     </g>
     <g id="text_28">
      <text style="font-size: 10px; font-family: sans-serif; text-anchor: end; fill: #ffffff" x="40.711719" y="413.582473" transform="rotate(-0 40.711719 413.582473)">-1</text>
     </g>
    </g>
    <g id="ytick_7">
     <g id="line2d_51">
      <path d="M 47.711719 374.193588 
L 700.549375 374.193588 
" clip-path="url(#p11f3152687)" style="fill: none; stroke-dasharray: 2.96,1.28; stroke-dashoffset: 0; stroke: #555555; stroke-opacity: 0.5; stroke-width: 0.8"/>
     </g>
     <g id="line2d_52">
      <g>
       <use xlink:href="#m5e07181663" x="47.711719" y="374.193588" style="fill: #ffffff; stroke: #ffffff; stroke-width: 0.8"/>
      </g>
     </g>
     <g id="text_29">
      <text style="font-size: 10px; font-family: sans-serif; text-anchor: end; fill: #ffffff" x="40.711719" y="377.992416" transform="rotate(-0 40.711719 377.992416)">-0,5</text>
     </g>
    </g>
    <g id="ytick_8">
     <g id="line2d_53">
      <path d="M 47.711719 338.603531 
L 700.549375 338.603531 
" clip-path="url(#p11f3152687)" style="fill: none; stroke-dasharray: 2.96,1.28; stroke-dashoffset: 0; stroke: #555555; stroke-opacity: 0.5; stroke-width: 0.8"/>
     </g>
     <g id="line2d_54">
      <g>
       <use xlink:href="#m5e07181663" x="47.711719" y="338.603531" style="fill: #ffffff; stroke: #ffffff; stroke-width: 0.8"/>
      </g>
     </g>
     <g id="text_30">
      <text style="font-size: 10px; font-family: sans-serif; text-anchor: end; fill: #ffffff" x="40.711719" y="342.402359" transform="rotate(-0 40.711719 342.402359)">0</text>
     </g>
    </g>
    <g id="ytick_9">
     <g id="line2d_55">
      <path d="M 47.711719 303.013474 
L 700.549375 303.013474 
" clip-path="url(#p11f3152687)" style="fill: none; stroke-dasharray: 2.96,1.28; stroke-dashoffset: 0; stroke: #555555; stroke-opacity: 0.5; stroke-width: 0.8"/>
     </g>
     <g id="line2d_56">
      <g>
       <use xlink:href="#m5e07181663" x="47.711719" y="303.013474" style="fill: #ffffff; stroke: #ffffff; stroke-width: 0.8"/>
      </g>
     </g>
     <g id="text_31">
      <text style="font-size: 10px; font-family: sans-serif; text-anchor: end; fill: #ffffff" x="40.711719" y="306.812303" transform="rotate(-0 40.711719 306.812303)">0,5</text>
     </g>
    </g>
    <g id="ytick_10">
     <g id="line2d_57">
      <path d="M 47.711719 267.423418 
L 700.549375 267.423418 
" clip-path="url(#p11f3152687)" style="fill: none; stroke-dasharray: 2.96,1.28; stroke-dashoffset: 0; stroke: #555555; stroke-opacity: 0.5; stroke-width: 0.8"/>
     </g>
     <g id="line2d_58">
      <g>
       <use xlink:href="#m5e07181663" x="47.711719" y="267.423418" style="fill: #ffffff; stroke: #ffffff; stroke-width: 0.8"/>
      </g>
     </g>
     <g id="text_32">
      <text style="font-size: 10px; font-family: sans-serif; text-anchor: end; fill: #ffffff" x="40.711719" y="271.222246" transform="rotate(-0 40.711719 271.222246)">1</text>
     </g>
    </g>
    <g id="text_33">
     <text style="font-size: 10px; font-family: sans-serif; text-anchor: middle; fill: #ffffff" x="14.798438" y="338.603531" transform="rotate(-90 14.798438 338.603531)">Amplitud</text>
    </g>
   </g>
   <g id="line2d_59">
    <path d="M 77.386158 338.603531 
L 77.447983 269.848821 
L 77.509808 303.013474 
L 77.602545 409.174689 
L 77.633458 400.247318 
L 77.757107 267.423418 
L 77.78802 282.13255 
L 77.91167 409.174689 
L 77.942582 388.935472 
L 78.066232 269.848821 
L 78.097145 295.271824 
L 78.189882 407.358241 
L 78.251707 374.193588 
L 78.344445 268.032373 
L 78.375357 276.959745 
L 78.499007 409.783645 
L 78.52992 395.074512 
L 78.65357 268.032373 
L 78.684482 288.27159 
L 78.808132 407.358241 
L 78.839044 381.935239 
L 78.931782 269.848821 
L 78.993607 303.013474 
L 79.086344 409.174689 
L 79.117257 400.247318 
L 79.240907 267.423418 
L 79.271819 282.13255 
L 79.395469 409.174689 
L 79.426382 388.935472 
L 79.550032 269.848821 
L 79.580944 295.271824 
L 79.673681 407.358241 
L 79.735506 374.193588 
L 79.828244 268.032373 
L 79.859156 276.959745 
L 79.982806 409.783645 
L 80.013719 395.074512 
L 80.137369 268.032373 
L 80.168281 288.27159 
L 80.291931 407.358241 
L 80.322844 381.935239 
L 80.415581 269.848821 
L 80.477406 303.013474 
L 80.570144 409.174689 
L 80.601056 400.247318 
L 80.724706 267.423418 
L 80.755618 282.13255 
L 80.879268 409.174689 
L 80.910181 388.935472 
L 81.033831 269.848821 
L 81.064743 295.271824 
L 81.157481 407.358241 
L 81.219306 374.193588 
L 81.312043 268.032373 
L 81.342956 276.959745 
L 81.466606 409.783645 
L 81.497518 395.074512 
L 81.621168 268.032373 
L 81.65208 288.27159 
L 81.77573 407.358241 
L 81.806643 381.935239 
L 81.89938 269.848821 
L 81.961205 303.013474 
L 82.053943 409.174689 
L 82.084855 400.247318 
L 82.208505 267.423418 
L 82.239418 282.13255 
L 82.363068 409.174689 
L 82.39398 388.935472 
L 82.51763 269.848821 
L 82.548542 295.271824 
L 82.64128 407.358241 
L 82.703105 374.193588 
L 82.795842 268.032373 
L 82.826755 276.959745 
L 82.950405 409.783645 
L 82.981317 395.074512 
L 83.104967 268.032373 
L 83.13588 288.27159 
L 83.25953 407.358241 
L 83.290442 381.935239 
L 83.38318 269.848821 
L 83.445005 303.013474 
L 83.537742 409.174689 
L 83.568654 400.247318 
L 83.692304 267.423418 
L 83.723217 282.13255 
L 83.846867 409.174689 
L 83.877779 388.935472 
L 84.001429 269.848821 
L 84.032342 295.271824 
L 84.125079 407.358241 
L 84.186904 374.193588 
L 84.279642 268.032373 
L 84.310554 276.959745 
L 84.434204 409.783645 
L 84.465116 395.074512 
L 84.588766 268.032373 
L 84.619679 288.27159 
L 84.743329 407.358241 
L 84.774241 381.935239 
L 84.897891 338.603531 
L 225.76608 338.603531 
L 225.827905 269.848821 
L 225.88973 303.013474 
L 225.982468 409.174689 
L 226.01338 400.247318 
L 226.13703 267.423418 
L 226.167943 282.13255 
L 226.291593 409.174689 
L 226.322505 388.935472 
L 226.446155 269.848821 
L 226.477068 295.271824 
L 226.569805 407.358241 
L 226.63163 374.193588 
L 226.724367 268.032373 
L 226.75528 276.959745 
L 226.87893 409.783645 
L 226.909842 395.074512 
L 227.033492 268.032373 
L 227.064405 288.27159 
L 227.188055 407.358241 
L 227.218967 381.935239 
L 227.311705 269.848821 
L 227.37353 303.013474 
L 227.466267 409.174689 
L 227.497179 400.247318 
L 227.620829 267.423418 
L 227.651742 282.13255 
L 227.775392 409.174689 
L 227.806304 388.935472 
L 227.929954 269.848821 
L 227.960867 295.271824 
L 228.053604 407.358241 
L 228.115429 374.193588 
L 228.208167 268.032373 
L 228.239079 276.959745 
L 228.362729 409.783645 
L 228.393642 395.074512 
L 228.517291 268.032373 
L 228.548204 288.27159 
L 228.671854 407.358241 
L 228.702766 381.935239 
L 228.795504 269.848821 
L 228.857329 303.013474 
L 228.950066 409.174689 
L 228.980979 400.247318 
L 229.104629 267.423418 
L 229.135541 282.13255 
L 229.259191 409.174689 
L 229.290104 388.935472 
L 229.413753 269.848821 
L 229.444666 295.271824 
L 229.537403 407.358241 
L 229.599228 374.193588 
L 229.691966 268.032373 
L 229.722878 276.959745 
L 229.846528 409.783645 
L 229.877441 395.074512 
L 230.001091 268.032373 
L 230.032003 288.27159 
L 230.155653 407.358241 
L 230.186566 381.935239 
L 230.279303 269.848821 
L 230.341128 303.013474 
L 230.433865 409.174689 
L 230.464778 400.247318 
L 230.588428 267.423418 
L 230.61934 282.13255 
L 230.74299 409.174689 
L 230.773903 388.935472 
L 230.897553 269.848821 
L 230.928465 295.271824 
L 231.021203 407.358241 
L 231.083028 374.193588 
L 231.175765 268.032373 
L 231.206678 276.959745 
L 231.330327 409.783645 
L 231.36124 395.074512 
L 231.48489 268.032373 
L 231.515802 288.27159 
L 231.639452 407.358241 
L 231.670365 381.935239 
L 231.763102 269.848821 
L 231.824927 303.013474 
L 231.917665 409.174689 
L 231.948577 400.247318 
L 232.072227 267.423418 
L 232.10314 282.13255 
L 232.22679 409.174689 
L 232.257702 388.935472 
L 232.381352 269.848821 
L 232.412264 295.271824 
L 232.505002 407.358241 
L 232.566827 374.193588 
L 232.659564 268.032373 
L 232.690477 276.959745 
L 232.814127 409.783645 
L 232.845039 395.074512 
L 232.968689 268.032373 
L 232.999602 288.27159 
L 233.123252 407.358241 
L 233.154164 381.935239 
L 233.277814 338.603531 
L 374.146003 338.603531 
L 374.207828 269.848821 
L 374.269653 303.013474 
L 374.362391 409.174689 
L 374.393303 400.247318 
L 374.516953 267.423418 
L 374.547865 282.13255 
L 374.671515 409.174689 
L 374.702428 388.935472 
L 374.826078 269.848821 
L 374.85699 295.271824 
L 374.949728 407.358241 
L 375.011553 374.193588 
L 375.10429 268.032373 
L 375.135203 276.959745 
L 375.258853 409.783645 
L 375.289765 395.074512 
L 375.413415 268.032373 
L 375.444327 288.27159 
L 375.567977 407.358241 
L 375.59889 381.935239 
L 375.691627 269.848821 
L 375.753452 303.013474 
L 375.84619 409.174689 
L 375.877102 400.247318 
L 376.000752 267.423418 
L 376.031665 282.13255 
L 376.155315 409.174689 
L 376.186227 388.935472 
L 376.309877 269.848821 
L 376.340789 295.271824 
L 376.433527 407.358241 
L 376.495352 374.193588 
L 376.588089 268.032373 
L 376.619002 276.959745 
L 376.742652 409.783645 
L 376.773564 395.074512 
L 376.897214 268.032373 
L 376.928127 288.27159 
L 377.051777 407.358241 
L 377.082689 381.935239 
L 377.175427 269.848821 
L 377.237252 303.013474 
L 377.329989 409.174689 
L 377.360901 400.247318 
L 377.484551 267.423418 
L 377.515464 282.13255 
L 377.639114 409.174689 
L 377.670026 388.935472 
L 377.793676 269.848821 
L 377.824589 295.271824 
L 377.917326 407.358241 
L 377.979151 374.193588 
L 378.071889 268.032373 
L 378.102801 276.959745 
L 378.226451 409.783645 
L 378.257363 395.074512 
L 378.381013 268.032373 
L 378.411926 288.27159 
L 378.535576 407.358241 
L 378.566488 381.935239 
L 378.659226 269.848821 
L 378.721051 303.013474 
L 378.813788 409.174689 
L 378.844701 400.247318 
L 378.968351 267.423418 
L 378.999263 282.13255 
L 379.122913 409.174689 
L 379.153826 388.935472 
L 379.277475 269.848821 
L 379.308388 295.271824 
L 379.401125 407.358241 
L 379.46295 374.193588 
L 379.555688 268.032373 
L 379.5866 276.959745 
L 379.71025 409.783645 
L 379.741163 395.074512 
L 379.864813 268.032373 
L 379.895725 288.27159 
L 380.019375 407.358241 
L 380.050288 381.935239 
L 380.143025 269.848821 
L 380.20485 303.013474 
L 380.297587 409.174689 
L 380.3285 400.247318 
L 380.45215 267.423418 
L 380.483062 282.13255 
L 380.606712 409.174689 
L 380.637625 388.935472 
L 380.761275 269.848821 
L 380.792187 295.271824 
L 380.884925 407.358241 
L 380.94675 374.193588 
L 381.039487 268.032373 
L 381.0704 276.959745 
L 381.194049 409.783645 
L 381.224962 395.074512 
L 381.348612 268.032373 
L 381.379524 288.27159 
L 381.503174 407.358241 
L 381.534087 381.935239 
L 381.657737 338.603531 
L 522.525926 338.603531 
L 522.587751 269.848821 
L 522.649576 303.013474 
L 522.742313 409.174689 
L 522.773226 400.247318 
L 522.896876 267.423418 
L 522.927788 282.13255 
L 523.051438 409.174689 
L 523.082351 388.935472 
L 523.206 269.848821 
L 523.236913 295.271824 
L 523.32965 407.358241 
L 523.391475 374.193588 
L 523.484213 268.032373 
L 523.515125 276.959745 
L 523.638775 409.783645 
L 523.669688 395.074512 
L 523.793338 268.032373 
L 523.82425 288.27159 
L 523.9479 407.358241 
L 523.978813 381.935239 
L 524.07155 269.848821 
L 524.133375 303.013474 
L 524.226112 409.174689 
L 524.257025 400.247318 
L 524.380675 267.423418 
L 524.411587 282.13255 
L 524.535237 409.174689 
L 524.56615 388.935472 
L 524.6898 269.848821 
L 524.720712 295.271824 
L 524.81345 407.358241 
L 524.875275 374.193588 
L 524.968012 268.032373 
L 524.998925 276.959745 
L 525.122574 409.783645 
L 525.153487 395.074512 
L 525.277137 268.032373 
L 525.308049 288.27159 
L 525.431699 407.358241 
L 525.462612 381.935239 
L 525.555349 269.848821 
L 525.617174 303.013474 
L 525.709912 409.174689 
L 525.740824 400.247318 
L 525.864474 267.423418 
L 525.895387 282.13255 
L 526.019037 409.174689 
L 526.049949 388.935472 
L 526.173599 269.848821 
L 526.204511 295.271824 
L 526.297249 407.358241 
L 526.359074 374.193588 
L 526.451811 268.032373 
L 526.482724 276.959745 
L 526.606374 409.783645 
L 526.637286 395.074512 
L 526.760936 268.032373 
L 526.791849 288.27159 
L 526.915499 407.358241 
L 526.946411 381.935239 
L 527.039148 269.848821 
L 527.100973 303.013474 
L 527.193711 409.174689 
L 527.224623 400.247318 
L 527.348273 267.423418 
L 527.379186 282.13255 
L 527.502836 409.174689 
L 527.533748 388.935472 
L 527.657398 269.848821 
L 527.688311 295.271824 
L 527.781048 407.358241 
L 527.842873 374.193588 
L 527.935611 268.032373 
L 527.966523 276.959745 
L 528.090173 409.783645 
L 528.121085 395.074512 
L 528.244735 268.032373 
L 528.275648 288.27159 
L 528.399298 407.358241 
L 528.43021 381.935239 
L 528.522948 269.848821 
L 528.584773 303.013474 
L 528.67751 409.174689 
L 528.708423 400.247318 
L 528.832073 267.423418 
L 528.862985 282.13255 
L 528.986635 409.174689 
L 529.017547 388.935472 
L 529.141197 269.848821 
L 529.17211 295.271824 
L 529.264847 407.358241 
L 529.326672 374.193588 
L 529.41941 268.032373 
L 529.450322 276.959745 
L 529.573972 409.783645 
L 529.604885 395.074512 
L 529.728535 268.032373 
L 529.759447 288.27159 
L 529.883097 407.358241 
L 529.914009 381.935239 
L 530.037659 338.603531 
L 670.874936 338.603531 
L 670.874936 338.603531 
" clip-path="url(#p11f3152687)" style="fill: none; stroke: #1f77b4; stroke-width: 0.5; stroke-linecap: square"/>
   </g>
   <g id="line2d_60">
    <path d="M 77.386158 267.423418 
L 84.774241 267.423418 
L 84.897891 338.603531 
L 225.735168 338.603531 
L 225.858818 267.423418 
L 233.154164 267.423418 
L 233.277814 338.603531 
L 374.115091 338.603531 
L 374.238741 267.423418 
L 381.534087 267.423418 
L 381.657737 338.603531 
L 522.495013 338.603531 
L 522.618663 267.423418 
L 529.914009 267.423418 
L 530.037659 338.603531 
L 670.874936 338.603531 
L 670.874936 338.603531 
" clip-path="url(#p11f3152687)" style="fill: none; stroke-dasharray: 5.92,2.56; stroke-dashoffset: 0; stroke: #d62728; stroke-width: 1.6"/>
   </g>
   <g id="line2d_61">
    <path d="M 77.386158 409.783645 
L 84.774241 409.783645 
L 84.897891 338.603531 
L 225.735168 338.603531 
L 225.858818 409.783645 
L 233.154164 409.783645 
L 233.277814 338.603531 
L 374.115091 338.603531 
L 374.238741 409.783645 
L 381.534087 409.783645 
L 381.657737 338.603531 
L 522.495013 338.603531 
L 522.618663 409.783645 
L 529.914009 409.783645 
L 530.037659 338.603531 
L 670.874936 338.603531 
L 670.874936 338.603531 
" clip-path="url(#p11f3152687)" style="fill: none; stroke-dasharray: 5.92,2.56; stroke-dashoffset: 0; stroke: #d62728; stroke-width: 1.6"/>
   </g>
   <g id="patch_9">
    <path d="M 47.711719 416.901656 
L 47.711719 260.305406 
" style="fill: none; stroke: #ffffff; stroke-width: 0.8; stroke-linejoin: miter; stroke-linecap: square"/>
   </g>
   <g id="patch_10">
    <path d="M 700.549375 416.901656 
L 700.549375 260.305406 
" style="fill: none; stroke: #ffffff; stroke-width: 0.8; stroke-linejoin: miter; stroke-linecap: square"/>
   </g>
   <g id="patch_11">
    <path d="M 47.711719 416.901656 
L 700.549375 416.901656 
" style="fill: none; stroke: #ffffff; stroke-width: 0.8; stroke-linejoin: miter; stroke-linecap: square"/>
   </g>
   <g id="patch_12">
    <path d="M 47.711719 260.305406 
L 700.549375 260.305406 
" style="fill: none; stroke: #ffffff; stroke-width: 0.8; stroke-linejoin: miter; stroke-linecap: square"/>
   </g>
   <g id="text_34">
    <text style="font-weight: 700; font-size: 12px; font-family: sans-serif; text-anchor: middle; fill: #ffffff" x="374.130547" y="254.305406" transform="rotate(-0 374.130547 254.305406)">Tren repetitivo: 10 salvas por segundo (ciclo de trabajo 5 %)</text>
   </g>
   <g id="legend_2">
    <g id="patch_13">
     <path d="M 539.785469 281.366109 
L 694.249375 281.366109 
Q 696.049375 281.366109 696.049375 279.566109 
L 696.049375 266.605406 
Q 696.049375 264.805406 694.249375 264.805406 
L 539.785469 264.805406 
Q 537.985469 264.805406 537.985469 266.605406 
L 537.985469 279.566109 
Q 537.985469 281.366109 539.785469 281.366109 
z
" style="opacity: 0.8; stroke: #cccccc; stroke-linejoin: miter"/>
    </g>
    <g id="line2d_62">
     <path d="M 541.585469 272.454 
L 550.585469 272.454 
L 559.585469 272.454 
" style="fill: none; stroke-dasharray: 5.92,2.56; stroke-dashoffset: 0; stroke: #d62728; stroke-width: 1.6"/>
    </g>
    <g id="text_35">
     <text style="font-size: 9px; font-family: sans-serif; text-anchor: start; fill: #ffffff" x="566.785469" y="275.604" transform="rotate(-0 566.785469 275.604)">Envolvente de conmutación</text>
    </g>
   </g>
  </g>
  <g id="text_36">
   <text style="font-weight: 700; font-size: 12px; font-family: sans-serif; text-anchor: middle; fill: #ffffff" x="351.349375" y="16.53375" transform="rotate(-0 351.349375 16.53375)">Señal de prueba de salvas de tono (IEC 60268-1)</text>
  </g>
 </g>
 <defs>
  <clipPath id="pc3e7a0cda0">
   <rect x="47.711719" y="46.706812" width="652.837656" height="156.59625"/>
  </clipPath>
  <clipPath id="p11f3152687">
   <rect x="47.711719" y="260.305406" width="652.837656" height="156.59625"/>
  </clipPath>
 </defs>
</svg>
