<?xml version="1.0" encoding="utf-8" standalone="no"?>
<!DOCTYPE svg PUBLIC "-//W3C//DTD SVG 1.1//EN"
  "http://www.w3.org/Graphics/SVG/1.1/DTD/svg11.dtd">
<svg xmlns:xlink="http://www.w3.org/1999/xlink" width="708.57625pt" height="439.596563pt" viewBox="0 0 708.57625 439.596563" xmlns="http://www.w3.org/2000/svg" version="1.1">
 <metadata>
  <rdf:RDF xmlns:dc="http://purl.org/dc/elements/1.1/" xmlns:cc="http://creativecommons.org/ns#" xmlns:rdf="http://www.w3.org/1999/02/22-rdf-syntax-ns#">
   <cc:Work>
    <dc:type rdf:resource="http://purl.org/dc/dcmitype/StillImage"/>
    <dc:format>image/svg+xml</dc:format>
    <dc:creator>
     <cc:Agent>
      <dc:title>Matplotlib v3.11.1, https://matplotlib.org/</dc:title>
     </cc:Agent>
    </dc:creator>
   </cc:Work>
  </rdf:RDF>
 </metadata>
 <defs>
  <style type="text/css">*{stroke-linejoin: round; stroke-linecap: butt}</style>
 </defs>
 <g id="figure_1">
  <g id="patch_1">
   <path d="M 0 439.596563 
L 708.57625 439.596563 
L 708.57625 0 
L 0 0 
z
"/>
  </g>
  <g id="axes_1">
   <g id="patch_2">
    <path d="M 51.296094 401.395781 
L 695.01375 401.395781 
L 695.01375 28.798125 
L 51.296094 28.798125 
z
"/>
   </g>
   <g id="matplotlib.axis_1">
    <g id="xtick_1">
     <g id="line2d_1">
      <path d="M 51.296094 401.395781 
L 51.296094 28.798125 
" clip-path="url(#p205a99c377)" style="fill: none; stroke-dasharray: 2.96,1.28; stroke-dashoffset: 0; stroke: #555555; stroke-opacity: 0.5; stroke-width: 0.8"/>
     </g>
     <g id="line2d_2">
      <defs>
       <path id="m8d14ee1197" d="M 0 0 
L 0 3.5 
" style="stroke: #ffffff; stroke-width: 0.8"/>
      </defs>
      <g>
       <use xlink:href="#m8d14ee1197" x="51.296094" y="401.395781" style="fill: #ffffff; stroke: #ffffff; stroke-width: 0.8"/>
      </g>
     </g>
     <g id="text_1">
      <text style="font-size: 10px; font-family: sans-serif; text-anchor: middle; fill: #ffffff" x="51.296094" y="415.993438" transform="rotate(-0 51.296094 415.993438)">0</text>
     </g>
    </g>
    <g id="xtick_2">
     <g id="line2d_3">
      <path d="M 131.760801 401.395781 
L 131.760801 28.798125 
" clip-path="url(#p205a99c377)" style="fill: none; stroke-dasharray: 2.96,1.28; stroke-dashoffset: 0; stroke: #555555; stroke-opacity: 0.5; stroke-width: 0.8"/>
     </g>
     <g id="line2d_4">
      <g>
       <use xlink:href="#m8d14ee1197" x="131.760801" y="401.395781" style="fill: #ffffff; stroke: #ffffff; stroke-width: 0.8"/>
      </g>
     </g>
     <g id="text_2">
      <text style="font-size: 10px; font-family: sans-serif; text-anchor: middle; fill: #ffffff" x="131.760801" y="415.993438" transform="rotate(-0 131.760801 415.993438)">2</text>
     </g>
    </g>
    <g id="xtick_3">
     <g id="line2d_5">
      <path d="M 212.225508 401.395781 
L 212.225508 28.798125 
" clip-path="url(#p205a99c377)" style="fill: none; stroke-dasharray: 2.96,1.28; stroke-dashoffset: 0; stroke: #555555; stroke-opacity: 0.5; stroke-width: 0.8"/>
     </g>
     <g id="line2d_6">
      <g>
       <use xlink:href="#m8d14ee1197" x="212.225508" y="401.395781" style="fill: #ffffff; stroke: #ffffff; stroke-width: 0.8"/>
      </g>
     </g>
     <g id="text_3">
      <text style="font-size: 10px; font-family: sans-serif; text-anchor: middle; fill: #ffffff" x="212.225508" y="415.993438" transform="rotate(-0 212.225508 415.993438)">4</text>
     </g>
    </g>
    <g id="xtick_4">
     <g id="line2d_7">
      <path d="M 292.690215 401.395781 
L 292.690215 28.798125 
" clip-path="url(#p205a99c377)" style="fill: none; stroke-dasharray: 2.96,1.28; stroke-dashoffset: 0; stroke: #555555; stroke-opacity: 0.5; stroke-width: 0.8"/>
     </g>
     <g id="line2d_8">
      <g>
       <use xlink:href="#m8d14ee1197" x="292.690215" y="401.395781" style="fill: #ffffff; stroke: #ffffff; stroke-width: 0.8"/>
      </g>
     </g>
     <g id="text_4">
      <text style="font-size: 10px; font-family: sans-serif; text-anchor: middle; fill: #ffffff" x="292.690215" y="415.993438" transform="rotate(-0 292.690215 415.993438)">6</text>
     </g>
    </g>
    <g id="xtick_5">
     <g id="line2d_9">
      <path d="M 373.154922 401.395781 
L 373.154922 28.798125 
" clip-path="url(#p205a99c377)" style="fill: none; stroke-dasharray: 2.96,1.28; stroke-dashoffset: 0; stroke: #555555; stroke-opacity: 0.5; stroke-width: 0.8"/>
     </g>
     <g id="line2d_10">
      <g>
       <use xlink:href="#m8d14ee1197" x="373.154922" y="401.395781" style="fill: #ffffff; stroke: #ffffff; stroke-width: 0.8"/>
      </g>
     </g>
     <g id="text_5">
      <text style="font-size: 10px; font-family: sans-serif; text-anchor: middle; fill: #ffffff" x="373.154922" y="415.993438" transform="rotate(-0 373.154922 415.993438)">8</text>
     </g>
    </g>
    <g id="xtick_6">
     <g id="line2d_11">
      <path d="M 453.619629 401.395781 
L 453.619629 28.798125 
" clip-path="url(#p205a99c377)" style="fill: none; stroke-dasharray: 2.96,1.28; stroke-dashoffset: 0; stroke: #555555; stroke-opacity: 0.5; stroke-width: 0.8"/>
     </g>
     <g id="line2d_12">
      <g>
       <use xlink:href="#m8d14ee1197" x="453.619629" y="401.395781" style="fill: #ffffff; stroke: #ffffff; stroke-width: 0.8"/>
      </g>
     </g>
     <g id="text_6">
      <text style="font-size: 10px; font-family: sans-serif; text-anchor: middle; fill: #ffffff" x="453.619629" y="415.993438" transform="rotate(-0 453.619629 415.993438)">10</text>
     </g>
    </g>
    <g id="xtick_7">
     <g id="line2d_13">
      <path d="M 534.084336 401.395781 
L 534.084336 28.798125 
" clip-path="url(#p205a99c377)" style="fill: none; stroke-dasharray: 2.96,1.28; stroke-dashoffset: 0; stroke: #555555; stroke-opacity: 0.5; stroke-width: 0.8"/>
     </g>
     <g id="line2d_14">
      <g>
       <use xlink:href="#m8d14ee1197" x="534.084336" y="401.395781" style="fill: #ffffff; stroke: #ffffff; stroke-width: 0.8"/>
      </g>
     </g>
     <g id="text_7">
      <text style="font-size: 10px; font-family: sans-serif; text-anchor: middle; fill: #ffffff" x="534.084336" y="415.993438" transform="rotate(-0 534.084336 415.993438)">12</text>
     </g>
    </g>
    <g id="xtick_8">
     <g id="line2d_15">
      <path d="M 614.549043 401.395781 
L 614.549043 28.798125 
" clip-path="url(#p205a99c377)" style="fill: none; stroke-dasharray: 2.96,1.28; stroke-dashoffset: 0; stroke: #555555; stroke-opacity: 0.5; stroke-width: 0.8"/>
     </g>
     <g id="line2d_16">
      <g>
       <use xlink:href="#m8d14ee1197" x="614.549043" y="401.395781" style="fill: #ffffff; stroke: #ffffff; stroke-width: 0.8"/>
      </g>
     </g>
     <g id="text_8">
      <text style="font-size: 10px; font-family: sans-serif; text-anchor: middle; fill: #ffffff" x="614.549043" y="415.993438" transform="rotate(-0 614.549043 415.993438)">14</text>
     </g>
    </g>
    <g id="xtick_9">
     <g id="line2d_17">
      <path d="M 695.01375 401.395781 
L 695.01375 28.798125 
" clip-path="url(#p205a99c377)" style="fill: none; stroke-dasharray: 2.96,1.28; stroke-dashoffset: 0; stroke: #555555; stroke-opacity: 0.5; stroke-width: 0.8"/>
     </g>
     <g id="line2d_18">
      <g>
       <use xlink:href="#m8d14ee1197" x="695.01375" y="401.395781" style="fill: #ffffff; stroke: #ffffff; stroke-width: 0.8"/>
      </g>
     </g>
     <g id="text_9">
      <text style="font-size: 10px; font-family: sans-serif; text-anchor: middle; fill: #ffffff" x="695.01375" y="415.993438" transform="rotate(-0 695.01375 415.993438)">16</text>
     </g>
    </g>
    <g id="text_10">
     <text style="font-size: 10px; font-family: sans-serif; text-anchor: middle; fill: #ffffff" x="373.154922" y="429.994219" transform="rotate(-0 373.154922 429.994219)">Desplazamiento en frecuencia [bins de la DFT]</text>
    </g>
   </g>
   <g id="matplotlib.axis_2">
    <g id="ytick_1">
     <g id="line2d_19">
      <path d="M 51.296094 401.395781 
L 695.01375 401.395781 
" clip-path="url(#p205a99c377)" style="fill: none; stroke-dasharray: 2.96,1.28; stroke-dashoffset: 0; stroke: #555555; stroke-opacity: 0.5; stroke-width: 0.8"/>
     </g>
     <g id="line2d_20">
      <defs>
       <path id="m5e07181663" d="M 0 0 
L -3.5 0 
" style="stroke: #ffffff; stroke-width: 0.8"/>
      </defs>
      <g>
       <use xlink:href="#m5e07181663" x="51.296094" y="401.395781" style="fill: #ffffff; stroke: #ffffff; stroke-width: 0.8"/>
      </g>
     </g>
     <g id="text_11">
      <text style="font-size: 10px; font-family: sans-serif; text-anchor: end; fill: #ffffff" x="44.296094" y="405.194609" transform="rotate(-0 44.296094 405.194609)">-100</text>
     </g>
    </g>
    <g id="ytick_2">
     <g id="line2d_21">
      <path d="M 51.296094 330.424799 
L 695.01375 330.424799 
" clip-path="url(#p205a99c377)" style="fill: none; stroke-dasharray: 2.96,1.28; stroke-dashoffset: 0; stroke: #555555; stroke-opacity: 0.5; stroke-width: 0.8"/>
     </g>
     <g id="line2d_22">
      <g>
       <use xlink:href="#m5e07181663" x="51.296094" y="330.424799" style="fill: #ffffff; stroke: #ffffff; stroke-width: 0.8"/>
      </g>
     </g>
     <g id="text_12">
      <text style="font-size: 10px; font-family: sans-serif; text-anchor: end; fill: #ffffff" x="44.296094" y="334.223627" transform="rotate(-0 44.296094 334.223627)">-80</text>
     </g>
    </g>
    <g id="ytick_3">
     <g id="line2d_23">
      <path d="M 51.296094 259.453817 
L 695.01375 259.453817 
" clip-path="url(#p205a99c377)" style="fill: none; stroke-dasharray: 2.96,1.28; stroke-dashoffset: 0; stroke: #555555; stroke-opacity: 0.5; stroke-width: 0.8"/>
     </g>
     <g id="line2d_24">
      <g>
       <use xlink:href="#m5e07181663" x="51.296094" y="259.453817" style="fill: #ffffff; stroke: #ffffff; stroke-width: 0.8"/>
      </g>
     </g>
     <g id="text_13">
      <text style="font-size: 10px; font-family: sans-serif; text-anchor: end; fill: #ffffff" x="44.296094" y="263.252645" transform="rotate(-0 44.296094 263.252645)">-60</text>
     </g>
    </g>
    <g id="ytick_4">
     <g id="line2d_25">
      <path d="M 51.296094 188.482835 
L 695.01375 188.482835 
" clip-path="url(#p205a99c377)" style="fill: none; stroke-dasharray: 2.96,1.28; stroke-dashoffset: 0; stroke: #555555; stroke-opacity: 0.5; stroke-width: 0.8"/>
     </g>
     <g id="line2d_26">
      <g>
       <use xlink:href="#m5e07181663" x="51.296094" y="188.482835" style="fill: #ffffff; stroke: #ffffff; stroke-width: 0.8"/>
      </g>
     </g>
     <g id="text_14">
      <text style="font-size: 10px; font-family: sans-serif; text-anchor: end; fill: #ffffff" x="44.296094" y="192.281663" transform="rotate(-0 44.296094 192.281663)">-40</text>
     </g>
    </g>
    <g id="ytick_5">
     <g id="line2d_27">
      <path d="M 51.296094 117.511853 
L 695.01375 117.511853 
" clip-path="url(#p205a99c377)" style="fill: none; stroke-dasharray: 2.96,1.28; stroke-dashoffset: 0; stroke: #555555; stroke-opacity: 0.5; stroke-width: 0.8"/>
     </g>
     <g id="line2d_28">
      <g>
       <use xlink:href="#m5e07181663" x="51.296094" y="117.511853" style="fill: #ffffff; stroke: #ffffff; stroke-width: 0.8"/>
      </g>
     </g>
     <g id="text_15">
      <text style="font-size: 10px; font-family: sans-serif; text-anchor: end; fill: #ffffff" x="44.296094" y="121.310681" transform="rotate(-0 44.296094 121.310681)">-20</text>
     </g>
    </g>
    <g id="ytick_6">
     <g id="line2d_29">
      <path d="M 51.296094 46.540871 
L 695.01375 46.540871 
" clip-path="url(#p205a99c377)" style="fill: none; stroke-dasharray: 2.96,1.28; stroke-dashoffset: 0; stroke: #555555; stroke-opacity: 0.5; stroke-width: 0.8"/>
     </g>
     <g id="line2d_30">
      <g>
       <use xlink:href="#m5e07181663" x="51.296094" y="46.540871" style="fill: #ffffff; stroke: #ffffff; stroke-width: 0.8"/>
      </g>
     </g>
     <g id="text_16">
      <text style="font-size: 10px; font-family: sans-serif; text-anchor: end; fill: #ffffff" x="44.296094" y="50.339699" transform="rotate(-0 44.296094 50.339699)">0</text>
     </g>
    </g>
    <g id="text_17">
     <text style="font-size: 10px; font-family: sans-serif; text-anchor: middle; fill: #ffffff" x="15.198438" y="215.096953" transform="rotate(-90 15.198438 215.096953)">Nivel re lóbulo principal [dB]</text>
    </g>
   </g>
   <g id="line2d_31">
    <path d="M 51.296094 46.540871 
L 53.181985 46.652354 
L 55.067877 46.987777 
L 56.953768 47.5501 
L 58.83966 48.344396 
L 60.725552 49.378076 
L 62.611443 50.661232 
L 64.497335 52.207139 
L 66.383226 54.032972 
L 68.269118 56.160832 
L 70.155009 58.61923 
L 72.040901 61.445281 
L 73.926793 64.688026 
L 75.655527 68.08273 
L 77.38426 71.95254 
L 79.112994 76.39447 
L 80.684571 81.04627 
L 82.256147 86.443955 
L 83.670566 92.139645 
L 84.927827 98.105972 
L 86.02793 104.294226 
L 87.128034 111.788489 
L 88.070979 119.788702 
L 88.856768 128.235799 
L 89.485398 136.922848 
L 90.114029 148.69204 
L 90.585501 161.526679 
L 90.899817 174.254169 
L 91.214132 195.852934 
L 91.37129 217.336116 
M 91.685605 217.576916 
L 91.99992 183.960274 
L 92.471393 162.971735 
L 93.100024 147.743469 
L 93.728654 137.90704 
L 94.514442 129.188041 
L 95.30023 122.709981 
L 96.243176 116.738215 
L 97.186122 112.068363 
L 98.286225 107.75672 
L 99.386329 104.336269 
L 100.486432 101.591711 
L 101.586536 99.384006 
L 102.686639 97.618698 
L 103.786742 96.229245 
L 104.886846 95.16756 
L 105.986949 94.39835 
L 107.087053 93.895567 
L 108.187156 93.640123 
L 109.28726 93.618388 
L 110.387363 93.821212 
L 111.487466 94.243296 
L 112.58757 94.882845 
L 113.844831 95.882218 
L 115.102092 97.175692 
L 116.359353 98.777655 
L 117.773772 100.976447 
L 119.18819 103.640243 
L 120.602609 106.837114 
L 121.85987 110.206433 
L 123.117131 114.179167 
L 124.374392 118.910351 
L 125.474496 123.861131 
L 126.574599 129.843457 
L 127.517545 136.131189 
L 128.460491 144.032117 
L 129.246279 152.582398 
L 129.874909 161.610169 
L 130.50354 174.291177 
L 130.975013 188.930508 
L 131.289328 204.784298 
L 131.603643 238.760743 
M 131.917958 238.881141 
L 132.232274 205.145496 
L 132.703747 183.981019 
L 133.332377 168.522834 
L 133.961008 158.461646 
L 134.746796 149.468687 
L 135.689742 141.561484 
L 136.632687 135.535758 
L 137.732791 130.03342 
L 138.832894 125.669409 
L 139.932998 122.136223 
L 141.190259 118.875801 
L 142.44752 116.273043 
L 143.704781 114.20857 
L 144.962042 112.600844 
L 146.062145 111.523395 
L 147.162249 110.724016 
L 148.262352 110.182336 
L 149.362455 109.883644 
L 150.462559 109.817845 
L 151.562662 109.978792 
L 152.662766 110.363894 
L 153.762869 110.973955 
L 155.02013 111.952241 
L 156.277391 113.242315 
L 157.534652 114.863824 
L 158.791913 116.845524 
L 160.049174 119.228162 
L 161.306435 122.069133 
L 162.563696 125.450227 
L 163.820957 129.491081 
L 165.078219 134.374069 
L 166.178322 139.565164 
L 167.278425 145.95594 
L 168.221371 152.830773 
L 169.007159 160.070644 
L 169.792947 169.56027 
L 170.421578 180.019818 
L 170.893051 191.095622 
L 171.364524 208.439997 
L 171.678839 229.875686 
L 171.835997 251.27797 
M 172.150312 251.358235 
L 172.464627 217.582716 
L 172.9361 196.358909 
L 173.564731 180.822505 
L 174.193361 170.684093 
L 174.979149 161.595974 
L 175.922095 153.576542 
L 176.865041 147.44067 
L 177.965144 141.812384 
L 179.065248 137.325094 
L 180.165351 133.671213 
L 181.422612 130.275911 
L 182.679873 127.541426 
L 183.937134 125.348268 
L 185.194395 123.614794 
L 186.451656 122.283756 
L 187.55176 121.416995 
L 188.651863 120.807551 
L 189.751967 120.441366 
L 190.85207 120.308888 
L 191.952173 120.40444 
L 193.052277 120.725868 
L 194.15238 121.274411 
L 195.252484 122.054771 
L 196.509745 123.241507 
L 197.767006 124.761787 
L 199.024267 126.644305 
L 200.281528 128.929744 
L 201.538789 131.675442 
L 202.79605 134.96313 
L 204.053311 138.91239 
L 205.153414 143.051675 
L 206.253518 148.025079 
L 207.353621 154.140249 
L 208.296567 160.694113 
L 209.082355 167.550816 
L 209.868143 176.435138 
L 210.496774 186.036172 
L 210.968247 195.898654 
L 211.43972 210.445936 
L 211.754035 226.238813 
L 211.911193 238.762486 
L 212.06835 260.154702 
M 212.382665 260.214899 
L 212.696981 226.419403 
L 213.168454 205.165802 
L 213.797084 189.589985 
L 214.425715 179.412513 
L 215.211503 170.276059 
L 216.154449 162.199332 
L 217.097394 156.006921 
L 218.197498 150.313608 
L 219.297601 145.762277 
L 220.554862 141.570411 
L 221.812123 138.195269 
L 223.069384 135.464442 
L 224.326645 133.264184 
L 225.583906 131.516455 
L 226.841167 130.166403 
L 227.941271 129.280434 
L 229.041374 128.650273 
L 230.141478 128.262543 
L 231.241581 128.108256 
L 232.341685 128.18224 
L 233.441788 128.482813 
L 234.541891 129.011685 
L 235.641995 129.774056 
L 236.899256 130.943013 
L 238.156517 132.449446 
L 239.413778 134.323343 
L 240.671039 136.607148 
L 241.9283 139.360719 
L 243.185561 142.669604 
L 244.442822 146.659515 
L 245.542926 150.858461 
L 246.643029 155.927045 
L 247.585975 161.209472 
L 248.528921 167.725367 
L 249.314709 174.550741 
L 250.100497 183.404013 
L 250.729127 192.980406 
L 251.2006 202.824521 
L 251.672073 217.353535 
L 251.986388 233.134285 
L 252.143546 245.651911 
L 252.300704 267.038091 
M 252.615019 267.086247 
L 252.929334 233.278754 
L 253.400807 212.007233 
L 254.029438 196.407669 
L 254.658068 186.206616 
L 255.443856 177.040915 
L 256.386802 168.929422 
L 257.329748 162.702602 
L 258.429851 156.969591 
L 259.529955 152.37903 
L 260.787216 148.142894 
L 262.044477 144.724072 
L 263.301738 141.950146 
L 264.558999 139.707355 
L 265.81626 137.917649 
L 267.073521 136.526165 
L 268.330782 135.493978 
L 269.430885 134.863805 
L 270.530989 134.47492 
L 271.631092 134.318904 
L 272.731196 134.391092 
L 273.831299 134.690281 
L 274.931403 135.218661 
L 276.031506 135.981948 
L 277.288767 137.154421 
L 278.546028 138.668014 
L 279.803289 140.554065 
L 281.06055 142.856865 
L 282.317811 145.638932 
L 283.575072 148.989862 
L 284.832333 153.041908 
L 285.932437 157.320467 
L 287.03254 162.50644 
L 287.975486 167.939251 
L 288.918432 174.687057 
L 289.70422 181.822233 
L 290.490008 191.208204 
L 291.118639 201.585564 
L 291.590111 212.600152 
L 292.061584 229.883672 
L 292.3759 251.278989 
L 292.533057 272.661147 
M 292.847372 272.701275 
L 293.161688 238.885777 
L 293.633161 217.602293 
L 294.261791 201.986857 
L 294.890422 191.770021 
L 295.67621 182.584717 
L 296.619156 174.449883 
L 297.562101 168.199918 
L 298.662205 162.440149 
L 299.762308 157.82309 
L 301.019569 153.556985 
L 302.27683 150.108522 
L 303.534091 147.305277 
L 304.791352 145.033487 
L 306.048613 143.215094 
L 307.305875 141.795232 
L 308.563136 140.73497 
L 309.663239 140.080476 
L 310.763342 139.667495 
L 311.863446 139.487605 
L 312.963549 139.536138 
L 314.063653 139.811887 
L 315.163756 140.317042 
L 316.263859 141.057313 
L 317.363963 142.04229 
L 318.621224 143.485936 
L 319.878485 145.29776 
L 321.135746 147.520192 
L 322.393007 150.21308 
L 323.650268 153.461961 
L 324.907529 157.392533 
L 326.007633 161.540096 
L 327.107736 166.557791 
L 328.050682 171.796987 
L 328.993628 178.270004 
L 329.779416 185.059914 
L 330.565204 193.877961 
L 331.193834 203.426346 
L 331.665307 213.249553 
L 332.13678 227.757743 
L 332.451095 243.524659 
L 332.608253 256.035381 
L 332.765411 277.414666 
M 333.079726 277.449061 
L 333.394041 243.627842 
L 333.865514 222.335803 
L 334.494145 206.709009 
L 335.122775 196.48087 
L 335.908563 187.281512 
L 336.851509 179.129925 
L 337.794455 172.863326 
L 338.894558 167.084298 
L 339.994662 162.44814 
L 341.251923 158.160399 
L 342.509184 154.690502 
L 343.766445 151.866022 
L 345.023706 149.573193 
L 346.280967 147.733955 
L 347.538228 146.293438 
L 348.795489 145.21271 
L 349.895592 144.540459 
L 350.995696 144.109863 
L 352.095799 143.912497 
L 353.195903 143.94369 
L 354.296006 144.202236 
L 355.39611 144.69032 
L 356.496213 145.413654 
L 357.596316 146.381824 
L 358.853577 147.806421 
L 360.110839 149.599362 
L 361.3681 151.803076 
L 362.625361 154.477408 
L 363.882622 157.707893 
L 365.139883 161.620228 
L 366.239986 165.751961 
L 367.34009 170.753945 
L 368.283035 175.979767 
L 369.225981 182.439496 
L 370.011769 189.218396 
L 370.797557 198.025492 
L 371.426188 207.565157 
L 371.897661 217.381849 
L 372.369134 231.883544 
L 372.683449 247.64614 
L 372.840607 260.154706 
L 372.997764 281.531838 
M 373.31208 281.561932 
L 373.626395 247.736422 
L 374.097868 226.437962 
L 374.726498 210.802638 
L 375.355129 200.566004 
L 376.140917 191.356078 
L 377.083863 183.19188 
L 378.026808 176.912748 
L 379.126912 171.119197 
L 380.227015 166.468619 
L 381.484276 162.164524 
L 382.741537 158.678405 
L 383.998798 155.837835 
L 385.256059 153.529045 
L 386.513321 151.673974 
L 387.770582 150.21775 
L 389.027843 149.12144 
L 390.127946 148.435656 
L 391.228049 147.99162 
L 392.328153 147.780907 
L 393.428256 147.798845 
L 394.52836 148.044226 
L 395.628463 148.519235 
L 396.728567 149.229582 
L 397.82867 150.184853 
L 399.085931 151.594816 
L 400.343192 153.373234 
L 401.600453 155.562537 
L 402.857714 158.222567 
L 404.114975 161.438859 
L 405.372236 165.337107 
L 406.47234 169.456602 
L 407.572443 174.446428 
L 408.515389 179.661892 
L 409.458335 186.111321 
L 410.244123 192.881682 
L 411.029911 201.680279 
L 411.658541 211.213172 
L 412.130014 221.024802 
L 412.601487 235.521449 
L 412.915802 251.280687 
L 413.07296 263.787577 
L 413.230118 285.163034 
M 413.544433 285.189783 
L 413.858748 251.360933 
L 414.330221 230.057477 
L 414.958852 214.415511 
L 415.587482 204.17226 
L 416.37327 194.954097 
L 417.316216 186.780064 
L 418.259162 180.491151 
L 419.359265 174.686255 
L 420.459369 170.024405 
L 421.71663 165.707513 
L 422.973891 162.208691 
L 424.231152 159.355507 
L 425.488413 157.034193 
L 426.745674 155.166687 
L 428.002935 153.698117 
L 429.260196 152.589547 
L 430.3603 151.893106 
L 431.460403 151.438479 
L 432.560506 151.217239 
L 433.66061 151.224714 
L 434.760713 151.459696 
L 435.860817 151.924369 
L 436.96092 152.624443 
L 438.061023 153.569502 
L 439.318284 154.967869 
L 440.575546 156.734771 
L 441.832807 158.912635 
L 443.090068 161.561305 
L 444.347329 164.766313 
L 445.60459 168.653354 
L 446.704693 172.763104 
L 447.804797 177.743241 
L 448.747742 182.950447 
L 449.690688 189.391658 
L 450.476476 196.155203 
L 451.262264 204.947011 
L 451.890895 214.474494 
L 452.362368 224.282078 
L 452.833841 238.774689 
L 453.148156 254.531242 
L 453.305314 267.036791 
L 453.462471 288.410908 
M 453.776787 288.43498 
L 454.091102 254.603459 
L 454.562575 233.296003 
L 455.191205 217.64872 
L 455.819836 207.400169 
L 456.605624 198.175405 
L 457.54857 189.993487 
L 458.491515 183.696727 
L 459.591619 177.882725 
L 460.691722 173.21182 
L 461.948983 168.884643 
L 463.206244 165.375601 
L 464.463505 162.512263 
L 465.720766 160.180861 
L 466.978028 158.30333 
L 468.235289 156.824798 
L 469.49255 155.70633 
L 470.592653 155.001281 
L 471.692756 154.538091 
L 472.79286 154.308337 
L 473.892963 154.307343 
L 474.993067 154.533903 
L 476.09317 154.9902 
L 477.193274 155.681943 
L 478.293377 156.618717 
L 479.550638 158.007669 
L 480.807899 159.765215 
L 482.06516 161.93378 
L 483.322421 164.573208 
L 484.579682 167.76903 
L 485.836943 171.646941 
L 486.937047 175.748748 
L 488.03715 180.720984 
L 488.980096 185.92145 
L 489.923042 192.355953 
L 490.70883 199.11393 
L 491.494618 207.900191 
L 492.123248 217.423252 
L 492.594721 227.227527 
L 493.066194 241.716837 
L 493.38051 257.471195 
L 493.537667 269.975647 
L 493.694825 291.348667 
M 494.00914 291.37055 
L 494.323455 257.536842 
L 494.794928 236.226112 
L 495.423559 220.574475 
L 496.052189 210.321584 
L 496.837977 201.091412 
L 497.780923 192.903031 
L 498.723869 186.599836 
L 499.823972 180.778363 
L 500.924076 176.100025 
L 502.181337 171.7644 
L 503.438598 168.246959 
L 504.695859 165.375272 
L 505.95312 163.035568 
L 507.210381 161.149784 
L 508.467642 159.663046 
L 509.724903 158.536419 
L 510.825007 157.824269 
L 511.92511 157.354015 
L 513.025213 157.11723 
L 514.125317 157.109242 
L 515.22542 157.328842 
L 516.325524 157.778214 
L 517.425627 158.463065 
L 518.52573 159.392981 
L 519.782992 160.774138 
L 521.040253 162.523931 
L 522.297514 164.684788 
L 523.554775 167.31655 
L 524.812036 170.504749 
L 526.069297 174.375079 
L 527.1694 178.470287 
L 528.269504 183.435956 
L 529.212449 188.630818 
L 530.155395 195.05974 
L 530.941183 201.813084 
L 531.726971 210.594728 
L 532.355602 220.114106 
L 532.827075 229.915626 
L 533.298548 244.402187 
L 533.612863 260.154714 
L 533.770021 272.658252 
L 533.927178 294.030359 
M 534.241494 294.050417 
L 534.555809 260.214887 
L 535.027282 238.901427 
L 535.655912 223.246161 
L 536.284543 212.989648 
L 537.070331 203.754965 
L 538.013277 195.56119 
L 538.956222 189.252623 
L 540.056326 183.42491 
L 541.156429 178.740361 
L 542.41369 174.397674 
L 543.670951 170.873208 
L 544.928212 167.994533 
L 546.185474 165.647878 
L 547.442735 163.75518 
L 548.699996 162.261566 
L 549.957257 161.128098 
L 551.05736 160.409991 
L 552.157463 159.933807 
L 553.257567 159.691121 
L 554.35767 159.677258 
L 555.457774 159.891009 
L 556.557877 160.334559 
L 557.657981 161.013614 
L 558.758084 161.937762 
L 560.015345 163.312357 
L 561.272606 165.055622 
L 562.529867 167.209984 
L 563.787128 169.835285 
L 565.044389 173.017056 
L 566.30165 176.88099 
L 567.401754 180.970628 
L 568.501857 185.930753 
L 569.444803 191.120882 
L 570.387749 197.545088 
L 571.173537 204.294516 
L 571.959325 213.072257 
L 572.587956 222.588521 
L 573.059428 232.387711 
L 573.530901 246.871946 
L 573.845217 262.622925 
L 574.002374 275.125689 
L 574.159532 296.497024 
M 574.473847 296.515537 
L 574.788162 262.678464 
L 575.259635 241.362695 
L 575.888266 225.704355 
L 576.516896 215.444777 
L 577.302684 206.206272 
L 578.24563 198.007927 
L 579.188576 191.694808 
L 580.288679 185.861804 
L 581.388783 181.171988 
L 582.646044 176.823308 
L 583.903305 173.292879 
L 585.160566 170.408271 
L 586.417827 168.055712 
L 587.675088 166.157138 
L 588.932349 164.657676 
L 590.18961 163.518389 
L 591.289714 162.795214 
L 592.389817 162.313983 
L 593.48992 162.066271 
L 594.590024 162.047403 
L 595.690127 162.256171 
L 596.790231 162.694758 
L 597.890334 163.368872 
L 598.990438 164.288098 
L 600.247699 165.657094 
L 601.50496 167.394787 
L 602.762221 169.543603 
L 604.019482 172.163384 
L 605.276743 175.33966 
L 606.534004 179.198127 
L 607.634107 183.283001 
L 608.734211 188.238382 
L 609.677156 193.42446 
L 610.620102 199.84463 
L 611.40589 206.590705 
L 612.191679 215.365102 
L 612.820309 224.878698 
L 613.291782 234.675891 
L 613.763255 249.158133 
L 614.07757 264.907785 
L 614.234728 277.409887 
L 614.391885 298.780559 
M 614.706201 298.797748 
L 615.020516 264.959353 
L 615.491989 243.641603 
L 616.120619 227.980628 
L 616.74925 217.718421 
L 617.535038 208.476638 
L 618.477984 200.274371 
L 619.42093 193.957344 
L 620.521033 188.119798 
L 621.621136 183.425458 
L 622.878397 179.07163 
L 624.135658 175.536076 
L 625.39292 172.646366 
L 626.650181 170.288729 
L 627.907442 168.3851 
L 629.164703 166.880605 
L 630.421964 165.736308 
L 631.522067 165.008768 
L 632.622171 164.523189 
L 633.722274 164.271146 
L 634.822377 164.247964 
L 635.922481 164.452435 
L 637.022584 164.886741 
L 638.122688 165.556591 
L 639.222791 166.47157 
L 640.480052 167.835731 
L 641.737313 169.568612 
L 642.994574 171.712636 
L 644.251835 174.327646 
L 645.509096 177.499173 
L 646.766357 181.352911 
L 647.866461 185.433665 
L 648.966564 190.38494 
L 649.90951 195.567512 
L 650.852456 201.984187 
L 651.638244 208.727358 
L 652.424032 217.49886 
L 653.052663 227.010145 
L 653.524135 236.805608 
L 653.995608 251.286122 
L 654.309924 267.034625 
L 654.467081 279.536152 
L 654.624239 300.90625 
M 654.938554 300.922291 
L 655.252869 267.08275 
L 655.724342 245.763283 
L 656.352973 230.100023 
L 656.981603 219.835536 
L 657.767391 210.59091 
L 658.710337 202.385241 
L 659.653283 196.064823 
L 660.753386 190.223335 
L 661.85349 185.525067 
L 663.110751 181.166769 
L 664.368012 177.626763 
L 665.625273 174.73262 
L 666.882534 172.370568 
L 668.139795 170.462544 
L 669.397056 168.953672 
L 670.654317 167.805016 
L 671.754421 167.073677 
L 672.854524 166.584313 
L 673.954627 166.328499 
L 675.054731 166.301559 
L 676.154834 166.502286 
L 677.254938 166.932862 
L 678.355041 167.598995 
L 679.455145 168.510271 
L 680.712406 169.870217 
L 681.969667 171.598899 
L 683.226928 173.738742 
L 684.484189 176.349588 
L 685.74145 179.516968 
L 686.998711 183.366576 
L 688.098814 187.443729 
L 689.198918 192.391417 
L 690.141863 197.570925 
L 691.084809 203.984545 
L 691.870597 210.725177 
L 692.656386 219.494146 
L 693.285016 229.00341 
L 693.756489 238.797359 
L 694.227962 253.276363 
L 694.542277 269.023859 
L 694.699435 281.524883 
L 694.856592 302.894479 
L 694.856592 302.894479 
" clip-path="url(#p205a99c377)" style="fill: none; stroke: #ffffff; stroke-opacity: 0.9; stroke-width: 1.4; stroke-linecap: square"/>
   </g>
   <g id="line2d_32">
    <path d="M 51.296094 46.540871 
L 54.282089 46.650407 
L 57.268084 46.979482 
L 60.254079 47.529496 
L 63.240074 48.302824 
L 66.226069 49.302867 
L 69.212064 50.534143 
L 72.198059 52.002399 
L 75.184054 53.714774 
L 78.170049 55.680002 
L 81.156044 57.908691 
L 84.142039 60.413687 
L 87.128034 63.210555 
L 90.114029 66.318235 
L 93.100024 69.759937 
L 95.928861 73.354572 
L 98.757698 77.305166 
L 101.586536 81.650032 
L 104.258215 86.15965 
L 106.929895 91.118515 
L 109.444417 96.259752 
L 111.801782 101.569722 
L 114.159146 107.446915 
L 116.359353 113.557627 
L 118.402402 119.908867 
L 120.288294 126.512783 
L 122.017028 133.387289 
L 123.588604 140.556408 
L 125.003023 148.049804 
L 126.260284 155.900274 
L 127.360387 164.136521 
L 128.303333 172.765385 
L 129.089121 181.731299 
L 129.874909 193.506962 
L 130.50354 206.851811 
L 130.975013 221.983185 
L 131.289328 238.162286 
L 131.603643 272.461905 
L 131.630475 440.596563 
M 131.891185 440.596563 
L 131.917958 272.903372 
L 132.232274 239.48672 
L 132.703747 218.796906 
L 133.175219 206.982521 
L 133.80385 196.572328 
L 134.589638 187.71877 
L 135.375426 181.365052 
L 136.318372 175.695921 
L 137.261318 171.413198 
L 138.204264 168.089145 
L 139.147209 165.473093 
L 140.247313 163.106542 
L 141.347416 161.322652 
L 142.44752 160.010675 
L 143.390465 159.202799 
L 144.333411 158.649503 
L 145.276357 158.323891 
L 146.219303 158.205288 
L 147.319406 158.307531 
L 148.41951 158.651057 
L 149.519613 159.222361 
L 150.776874 160.142785 
L 152.034135 161.341678 
L 153.448554 163.021725 
L 154.862973 165.059252 
L 156.277391 167.470809 
L 157.848968 170.623588 
L 159.420544 174.333192 
L 160.834963 178.223118 
L 162.249381 182.738618 
L 163.6638 188.031876 
L 164.921061 193.581965 
L 166.178322 200.212451 
L 167.278425 207.27197 
L 168.221371 214.713612 
L 169.007159 222.421411 
L 169.792947 232.375033 
L 170.421578 243.202992 
L 170.893051 254.553504 
L 171.364524 272.171231 
L 171.678839 293.788408 
L 171.835997 315.281214 
L 171.857133 440.596563 
M 172.129214 440.596563 
L 172.150312 315.542081 
L 172.464627 281.946578 
L 172.9361 260.991706 
L 173.407573 248.916041 
L 174.036203 238.163203 
L 174.821992 228.890254 
L 175.60778 222.126701 
L 176.550726 215.977881 
L 177.493671 211.22813 
L 178.593775 206.894463 
L 179.693878 203.50058 
L 180.793982 200.815512 
L 181.894085 198.691225 
L 182.994188 197.027643 
L 184.094292 195.754466 
L 185.194395 194.820948 
L 186.294499 194.189819 
L 187.394602 193.833498 
L 188.494706 193.731662 
L 189.594809 193.869648 
L 190.694912 194.237407 
L 191.795016 194.828835 
L 193.052277 195.775524 
L 194.309538 197.012769 
L 195.566799 198.548125 
L 196.981218 200.649548 
L 198.395636 203.17817 
L 199.810055 206.182027 
L 201.224474 209.731793 
L 202.638892 213.932092 
L 203.896153 218.338748 
L 205.153414 223.556565 
L 206.253518 229.001169 
L 207.353621 235.583727 
L 208.296567 242.535222 
L 209.239513 251.368216 
L 210.025301 261.132784 
L 210.653932 271.811395 
L 211.125404 283.050981 
L 211.596877 300.558699 
L 211.911193 322.10304 
L 212.06835 343.559577 
L 212.084227 440.596563 
M 212.366817 440.596563 
L 212.382665 343.748203 
L 212.696981 310.080854 
L 213.168454 289.018942 
L 213.797084 273.697731 
L 214.425715 263.773753 
L 215.211503 254.952621 
L 215.997291 248.380209 
L 216.940237 242.305022 
L 217.883183 237.54193 
L 218.983286 233.133697 
L 220.083389 229.629068 
L 221.183493 226.812046 
L 222.283596 224.54294 
L 223.3837 222.72669 
L 224.483803 221.29619 
L 225.583906 220.202826 
L 226.68401 219.410814 
L 227.784113 218.893646 
L 228.884217 218.631801 
L 229.98432 218.611248 
L 231.084424 218.822454 
L 232.184527 219.259766 
L 233.28463 219.921051 
L 234.541891 220.952832 
L 235.799152 222.28636 
L 237.056413 223.935611 
L 238.470832 226.195765 
L 239.885251 228.929071 
L 241.29967 232.203119 
L 242.556931 235.647114 
L 243.814192 239.699934 
L 245.071453 244.516336 
L 246.171556 249.545685 
L 247.27166 255.610143 
L 248.214605 261.97099 
L 249.157551 269.947441 
L 249.943339 278.562431 
L 250.57197 287.643093 
L 251.2006 300.377965 
L 251.672073 315.058317 
L 251.986388 330.939745 
L 252.300704 364.944058 
L 252.314026 440.596563 
M 252.601721 440.596563 
L 252.615019 365.092551 
L 252.929334 331.385224 
L 253.400807 310.263638 
L 254.029438 294.863399 
L 254.658068 284.861003 
L 255.443856 275.942691 
L 256.386802 268.126711 
L 257.329748 262.19394 
L 258.429851 256.802156 
L 259.529955 252.550873 
L 260.630058 249.132498 
L 261.730162 246.357473 
L 262.987423 243.815841 
L 264.087526 242.048876 
L 265.187629 240.646503 
L 266.287733 239.566121 
L 267.387836 238.776238 
L 268.48794 238.253539 
L 269.588043 237.980979 
L 270.688147 237.946522 
L 271.78825 238.142332 
L 272.888353 238.564269 
L 273.988457 239.211633 
L 275.245718 240.231135 
L 276.502979 241.558479 
L 277.76024 243.210322 
L 279.017501 245.211668 
L 280.274762 247.598271 
L 281.532023 250.420516 
L 282.789284 253.749797 
L 284.046545 257.689377 
L 285.303806 262.393988 
L 286.40391 267.326684 
L 287.504013 273.295558 
L 288.446959 279.575311 
L 289.389905 287.471428 
L 290.175693 296.020045 
L 290.804323 305.04798 
L 291.432954 317.730451 
L 291.904427 332.371714 
L 292.218742 348.227183 
L 292.533057 382.205617 
L 292.543336 440.596563 
M 292.837114 440.596563 
L 292.847372 382.32831 
L 293.161688 348.595262 
L 293.633161 327.435242 
L 294.261791 311.984031 
L 294.890422 301.930971 
L 295.67621 292.949762 
L 296.619156 285.058928 
L 297.562101 279.051977 
L 298.662205 273.574485 
L 299.762308 269.238383 
L 300.862412 265.736064 
L 302.119673 262.514405 
L 303.376934 259.953993 
L 304.634195 257.935308 
L 305.891456 256.376679 
L 306.991559 255.344803 
L 308.091663 254.593352 
L 309.191766 254.101875 
L 310.29187 253.855585 
L 311.391973 253.844316 
L 312.492076 254.061849 
L 313.59218 254.505527 
L 314.692283 255.176088 
L 315.949544 256.225793 
L 317.206805 257.589628 
L 318.464066 259.287153 
L 319.721327 261.347043 
L 320.978588 263.809963 
L 322.235849 266.733234 
L 323.493111 270.198573 
L 324.750372 274.325543 
L 326.007633 279.296454 
L 327.107736 284.565913 
L 328.207839 291.036341 
L 329.150785 297.980445 
L 329.936573 305.278725 
L 330.722362 314.827367 
L 331.350992 325.334555 
L 331.822465 336.446333 
L 332.293938 353.82689 
L 332.608253 375.286813 
L 332.765411 396.701248 
L 332.773591 440.596563 
M 333.071565 440.596563 
L 333.079726 396.805881 
L 333.394041 363.05482 
L 333.865514 341.867864 
L 334.494145 326.380896 
L 335.122775 316.292261 
L 335.908563 307.266832 
L 336.851509 299.3233 
L 337.794455 293.264044 
L 338.894558 287.72602 
L 339.994662 283.32991 
L 341.094765 279.768097 
L 342.352026 276.479068 
L 343.609287 273.851941 
L 344.866548 271.767185 
L 346.123809 270.143121 
L 347.223913 269.054505 
L 348.324016 268.246786 
L 349.42412 267.699508 
L 350.524223 267.397879 
L 351.624326 267.331727 
L 352.72443 267.494827 
L 353.824533 267.884516 
L 354.924637 268.501527 
L 356.181898 269.490562 
L 357.439159 270.794287 
L 358.69642 272.432252 
L 359.953681 274.433124 
L 361.210942 276.837562 
L 362.468203 279.70288 
L 363.725464 283.110785 
L 364.982725 287.180836 
L 366.239986 292.095334 
L 367.34009 297.315842 
L 368.440193 303.737698 
L 369.383139 310.640466 
L 370.168927 317.904507 
L 370.954715 327.419098 
L 371.583346 337.899178 
L 372.054818 348.990703 
L 372.526291 366.351074 
L 372.840607 387.797576 
L 372.997764 409.205311 
L 373.003392 440.596563 
M 373.306467 440.596563 
L 373.31208 409.296566 
L 373.626395 375.532156 
L 374.097868 354.325231 
L 374.726498 338.811739 
L 375.355129 328.696693 
L 376.140917 319.63841 
L 377.083863 311.655686 
L 378.026808 305.557488 
L 379.126912 299.974346 
L 380.227015 295.533452 
L 381.327119 291.927185 
L 382.58438 288.587753 
L 383.841641 285.910644 
L 385.098902 283.776322 
L 386.356163 282.103102 
L 387.456266 280.971808 
L 388.55637 280.121718 
L 389.656473 279.532374 
L 390.756577 279.188979 
L 391.85668 279.081358 
L 392.956783 279.203283 
L 394.056887 279.552088 
L 395.15699 280.128504 
L 396.257094 280.936705 
L 397.514355 282.154463 
L 398.771616 283.703928 
L 400.028877 285.612493 
L 401.286138 287.919105 
L 402.543399 290.678646 
L 403.80066 293.969192 
L 405.057921 297.904522 
L 406.315182 302.657077 
L 407.415285 307.69945 
L 408.515389 313.884238 
L 409.458335 320.498277 
L 410.244123 327.405474 
L 411.029911 336.3406 
L 411.658541 345.982497 
L 412.130014 355.875752 
L 412.601487 370.453915 
L 412.915802 386.267436 
L 413.07296 398.80145 
L 413.230118 420.204018 
L 413.233862 440.596563 
M 413.540703 440.596563 
L 413.544433 420.284953 
L 413.858748 386.510242 
L 414.330221 365.287903 
L 414.958852 349.753927 
L 415.587482 339.618474 
L 416.37327 330.534791 
L 417.316216 322.521743 
L 418.259162 316.39339 
L 419.359265 310.775283 
L 420.459369 306.299649 
L 421.559472 302.658868 
L 422.816733 299.280264 
L 424.073994 296.56427 
L 425.331255 294.391348 
L 426.588516 292.67981 
L 427.845777 291.372364 
L 428.945881 290.527571 
L 430.045984 289.941301 
L 431.146088 289.599469 
L 432.246191 289.492497 
L 433.346295 289.614681 
L 434.446398 289.963843 
L 435.546501 290.541197 
L 436.646605 291.351422 
L 437.903866 292.573548 
L 439.161127 294.130529 
L 440.418388 296.051027 
L 441.675649 298.375692 
L 442.93291 301.161831 
L 444.190171 304.491146 
L 445.447432 308.483188 
L 446.547536 312.660833 
L 447.647639 317.673442 
L 448.747742 323.828643 
L 449.690688 330.417463 
L 450.476476 337.303742 
L 451.262264 346.218039 
L 451.890895 355.843336 
L 452.362368 365.724178 
L 452.833841 380.289959 
L 453.148156 396.095245 
L 453.305314 408.625145 
L 453.464453 440.596563 
M 453.774819 440.596563 
L 453.776787 430.096329 
L 454.091102 396.313423 
L 454.562575 375.078817 
L 455.191205 359.528533 
L 455.819836 349.376827 
L 456.605624 340.272903 
L 457.54857 332.235679 
L 458.491515 326.083271 
L 459.591619 320.437249 
L 460.691722 315.933863 
L 461.791826 312.265491 
L 463.049087 308.855547 
L 464.306348 306.108419 
L 465.563609 303.904567 
L 466.82087 302.1623 
L 468.078131 300.824325 
L 469.178234 299.952981 
L 470.278338 299.340309 
L 471.378441 298.972225 
L 472.478545 298.839147 
L 473.578648 298.935372 
L 474.678751 299.258719 
L 475.778855 299.810403 
L 476.878958 300.5951 
L 478.136219 301.788223 
L 479.39348 303.316385 
L 480.650741 305.208244 
L 481.908002 307.504451 
L 483.165264 310.262308 
L 484.422525 313.563517 
L 485.679786 317.527628 
L 486.779889 321.680976 
L 487.879992 326.669417 
L 488.980096 332.800581 
L 489.923042 339.368901 
L 490.70883 346.238168 
L 491.494618 355.135519 
L 492.123248 364.747305 
L 492.594721 374.618041 
L 493.066194 389.173739 
L 493.38051 404.972315 
L 493.537667 417.498865 
L 493.695147 440.596563 
M 494.00883 440.596563 
L 494.00914 438.960012 
L 494.323455 405.170427 
L 494.794928 383.925822 
L 495.423559 368.362241 
L 496.052189 358.197278 
L 496.837977 349.07684 
L 497.780923 341.01988 
L 498.723869 334.847825 
L 499.823972 329.178994 
L 500.924076 324.652918 
L 502.024179 320.961973 
L 503.28144 317.526377 
L 504.538701 314.753748 
L 505.795962 312.524545 
L 507.053223 310.757077 
L 508.310484 309.394048 
L 509.410588 308.500902 
L 510.510691 307.86654 
L 511.610795 307.476876 
L 512.710898 307.322328 
L 513.811002 307.397192 
L 514.911105 307.699286 
L 516.011208 308.229824 
L 517.111312 308.993481 
L 518.368573 310.162688 
L 519.625834 311.66707 
L 520.883095 313.535285 
L 522.140356 315.807982 
L 523.397617 318.542463 
L 524.654878 321.820427 
L 525.912139 325.761424 
L 527.012243 329.894654 
L 528.112346 334.863076 
L 529.212449 340.974319 
L 530.155395 347.52564 
L 530.941183 354.380797 
L 531.726971 363.264085 
L 532.355602 372.864658 
L 532.827075 382.727003 
L 533.298548 397.274328 
L 533.612863 413.067332 
L 533.880258 440.596563 
M 534.288993 440.596563 
L 534.555809 413.248773 
L 535.027282 391.995858 
L 535.655912 376.421225 
L 536.284543 366.24524 
L 537.070331 357.111066 
L 538.013277 349.037686 
L 538.956222 342.849279 
L 540.056326 337.161454 
L 541.156429 332.616475 
L 542.256533 328.906717 
L 543.513794 325.449728 
L 544.771055 322.655823 
L 546.028316 320.405458 
L 547.285577 318.616942 
L 548.542838 317.232978 
L 549.642941 316.321605 
L 550.743045 315.669101 
L 551.843148 315.26138 
L 552.943252 315.088859 
L 554.043355 315.145832 
L 555.143458 315.430119 
L 556.243562 315.942931 
L 557.343665 316.688944 
L 558.600926 317.838086 
L 559.858187 319.322508 
L 561.115448 321.170866 
L 562.37271 323.42381 
L 563.629971 326.13864 
L 564.887232 329.397055 
L 566.144493 333.318604 
L 567.244596 337.434899 
L 568.344699 342.386462 
L 569.444803 348.480921 
L 570.387749 355.017917 
L 571.173537 361.861177 
L 571.959325 370.732607 
L 572.587956 380.32372 
L 573.059428 390.178986 
L 573.530901 404.719246 
L 573.845217 420.507547 
L 574.057975 440.596563 
M 574.57608 440.596563 
L 574.788162 420.674916 
L 575.259635 399.414984 
L 575.888266 383.831016 
L 576.516896 373.645721 
L 577.302684 364.499942 
L 578.24563 356.412683 
L 579.188576 350.21045 
L 580.288679 344.50656 
L 581.388783 339.945586 
L 582.646044 335.743824 
L 583.903305 332.359963 
L 585.160566 329.621572 
L 586.417827 327.414883 
L 587.675088 325.661833 
L 588.932349 324.307551 
L 590.032453 323.418758 
L 591.132556 322.78658 
L 592.232659 322.397624 
L 593.332763 322.242892 
L 594.432866 322.317198 
L 595.53297 322.618847 
L 596.633073 323.149538 
L 597.733176 323.914458 
L 598.990438 325.087207 
L 600.247699 326.598355 
L 601.50496 328.477872 
L 602.762221 330.768185 
L 604.019482 333.529138 
L 605.276743 336.846262 
L 606.534004 340.845254 
L 607.634107 345.052824 
L 608.734211 350.130656 
L 609.677156 355.421499 
L 610.620102 361.946254 
L 611.40589 368.779348 
L 612.191679 377.640641 
L 612.820309 387.223665 
L 613.291782 397.072878 
L 613.763255 411.607095 
L 614.07757 427.391373 
L 614.239767 440.596563 
M 614.85907 440.596563 
L 615.020516 427.546702 
L 615.491989 406.280766 
L 616.120619 390.688809 
L 616.74925 380.495543 
L 617.535038 371.339827 
L 618.477984 363.240682 
L 619.42093 357.026604 
L 620.521033 351.308947 
L 621.621136 346.734262 
L 622.878397 342.516898 
L 624.135658 339.117506 
L 625.39292 336.363656 
L 626.650181 334.141579 
L 627.907442 332.373211 
L 629.164703 331.003681 
L 630.264806 330.101604 
L 631.364909 329.456194 
L 632.465013 329.054058 
L 633.565116 328.886199 
L 634.66522 328.947428 
L 635.765323 329.236054 
L 636.865427 329.753772 
L 637.96553 330.50577 
L 639.222791 331.663813 
L 640.480052 333.160322 
L 641.737313 335.025264 
L 642.994574 337.301067 
L 644.251835 340.047574 
L 645.509096 343.350317 
L 646.766357 347.33499 
L 647.866461 351.530085 
L 648.966564 356.595488 
L 649.90951 361.875716 
L 650.852456 368.389891 
L 651.638244 375.214195 
L 652.424032 384.066722 
L 653.052663 393.642751 
L 653.524135 403.486727 
L 653.995608 418.015716 
L 654.309924 433.796513 
L 654.395297 440.596563 
M 655.168991 440.596563 
L 655.410027 425.103943 
L 655.8815 407.953183 
L 656.51013 394.174087 
L 657.138761 384.791273 
L 657.924549 376.180268 
L 658.867495 368.452322 
L 659.810441 362.467765 
L 660.910544 356.927322 
L 662.010648 352.475326 
L 663.267909 348.35904 
L 664.52517 345.034795 
L 665.782431 342.339337 
L 667.039692 340.164326 
L 668.296953 338.43514 
L 669.554214 337.099221 
L 670.654317 336.223284 
L 671.754421 335.601844 
L 672.854524 335.222184 
L 673.954627 335.075877 
L 675.054731 335.158251 
L 676.154834 335.468096 
L 677.254938 336.007598 
L 678.355041 336.782464 
L 679.612302 337.968723 
L 680.869563 339.496683 
L 682.126824 341.397673 
L 683.384085 343.715974 
L 684.641346 346.514097 
L 685.898607 349.881628 
L 687.155868 353.950813 
L 688.255972 358.244803 
L 689.356075 363.446606 
L 690.299021 368.8933 
L 691.241967 375.655274 
L 692.027755 382.802474 
L 692.813543 392.200664 
L 693.442174 402.587938 
L 693.913647 413.610041 
L 694.385119 430.901146 
L 694.552462 440.596563 
L 694.552462 440.596563 
" clip-path="url(#p205a99c377)" style="fill: none; stroke: #1f77b4; stroke-opacity: 0.9; stroke-width: 1.4; stroke-linecap: square"/>
   </g>
   <g id="line2d_33">
    <path d="M 51.296094 46.540871 
L 53.967773 46.648698 
L 56.639453 46.972554 
L 59.311133 47.513576 
L 61.982813 48.273677 
L 64.654492 49.255582 
L 67.48333 50.541012 
L 70.312167 52.084549 
L 73.141004 53.892887 
L 75.969842 55.97417 
L 78.798679 58.338191 
L 81.627517 60.996656 
L 84.456354 63.963519 
L 87.285191 67.255426 
L 90.114029 70.892295 
L 92.942866 74.898094 
L 95.771703 79.3019 
L 98.600541 84.139373 
L 101.27222 89.146121 
L 103.9439 94.626044 
L 106.61558 100.638847 
L 109.130102 106.854152 
L 111.487466 113.248489 
L 113.844831 120.289609 
L 116.045038 127.561706 
L 118.088087 135.057282 
L 119.973978 142.77155 
L 121.702712 150.702449 
L 123.431446 159.72535 
L 124.845865 168.22086 
L 126.103126 176.96563 
L 127.360387 187.377945 
L 128.303333 196.884634 
L 129.246279 208.840308 
L 130.032067 222.226066 
L 130.660697 237.6632 
L 131.13217 256.063297 
L 131.446486 278.206096 
L 131.603643 299.962985 
L 131.626928 440.596563 
M 131.894785 440.596563 
L 131.917958 300.754663 
L 132.232274 267.693639 
L 132.703747 247.547733 
L 133.175219 236.290268 
L 133.80385 226.643814 
L 134.432481 220.103909 
L 135.218269 214.378138 
L 136.004057 210.357735 
L 136.789845 207.487932 
L 137.575633 205.459844 
L 138.361421 204.085118 
L 138.990052 203.372297 
L 139.618682 202.95541 
L 140.247313 202.802293 
L 140.875943 202.888967 
L 141.504574 203.197649 
L 142.290362 203.876399 
L 143.07615 204.865455 
L 144.019096 206.450289 
L 144.962042 208.468569 
L 146.062145 211.389435 
L 147.162249 214.967381 
L 148.262352 219.288988 
L 149.362455 224.4965 
L 150.462559 230.823923 
L 151.405505 237.437611 
L 152.34845 245.617713 
L 153.134239 254.236181 
L 153.920027 265.566969 
L 154.548657 278.141308 
L 155.02013 291.471538 
L 155.805918 320.476291 
L 155.963076 318.444248 
L 156.906022 286.35291 
L 157.534652 274.380095 
L 158.163283 266.324391 
L 158.949071 259.286753 
L 159.734859 254.329673 
L 160.520647 250.775702 
L 161.306435 248.264839 
L 161.935066 246.865276 
L 162.563696 245.93493 
L 163.192327 245.432684 
L 163.6638 245.322297 
L 164.135273 245.434887 
L 164.606746 245.770408 
L 165.235376 246.572614 
L 165.864007 247.802586 
L 166.492637 249.501584 
L 167.278425 252.387549 
L 168.064214 256.321328 
L 168.850002 261.674624 
L 169.478632 267.438768 
L 170.107263 275.279201 
L 170.578736 283.429991 
L 171.050209 295.254792 
L 171.364524 307.327089 
L 171.678839 328.284441 
L 171.835997 349.451922 
L 171.851841 440.596563 
M 172.134408 440.596563 
L 172.150312 349.071015 
L 172.464627 314.845205 
L 172.9361 292.965441 
L 173.564731 276.588756 
L 174.193361 265.646689 
L 174.979149 255.601621 
L 175.922095 246.497861 
L 177.022198 238.285986 
L 178.122302 231.738605 
L 179.379563 225.652501 
L 180.636824 220.656348 
L 181.894085 216.497402 
L 183.308504 212.619917 
L 184.722922 209.445389 
L 185.980183 207.12968 
L 187.237444 205.236812 
L 188.494706 203.73005 
L 189.751967 202.583164 
L 190.85207 201.860586 
L 191.952173 201.39213 
L 193.052277 201.173909 
L 194.15238 201.205587 
L 195.252484 201.490428 
L 196.352587 202.035572 
L 197.452691 202.85256 
L 198.552794 203.958193 
L 199.652897 205.375854 
L 200.753001 207.137526 
L 201.853104 209.286909 
L 202.953208 211.884353 
L 204.053311 215.014976 
L 205.153414 218.802756 
L 206.253518 223.436661 
L 207.196464 228.309544 
L 208.139409 234.349902 
L 208.925198 240.681609 
L 209.710986 248.855692 
L 210.339616 257.587812 
L 210.968247 269.977765 
L 211.43972 284.401752 
L 211.754035 300.113358 
L 211.911193 312.596671 
L 212.06835 333.948708 
L 212.085976 440.596563 
M 212.365037 440.596563 
L 212.382665 333.929086 
L 212.696981 300.054483 
L 213.168454 278.683534 
L 213.797084 262.953656 
L 214.425715 252.624808 
L 215.211503 243.302803 
L 216.154449 235.008629 
L 217.097394 228.604261 
L 218.197498 222.670339 
L 219.297601 217.885297 
L 220.554862 213.434418 
L 221.812123 209.808502 
L 223.069384 206.834768 
L 224.326645 204.399115 
L 225.583906 202.423171 
L 226.841167 200.851773 
L 228.098429 199.64571 
L 229.198532 198.868139 
L 230.298635 198.336105 
L 231.398739 198.041028 
L 232.498842 197.978089 
L 233.598946 198.145939 
L 234.699049 198.54663 
L 235.799152 199.185744 
L 236.899256 200.072747 
L 237.999359 201.221613 
L 239.25662 202.88053 
L 240.513881 204.947622 
L 241.771142 207.480043 
L 243.028403 210.559352 
L 244.285665 214.304964 
L 245.385768 218.269813 
L 246.485871 223.072179 
L 247.428817 228.082986 
L 248.371763 234.255608 
L 249.157551 240.693411 
L 249.943339 248.970003 
L 250.57197 257.781644 
L 251.2006 270.248984 
L 251.672073 284.729652 
L 251.986388 300.478413 
L 252.143546 312.980117 
L 252.300704 334.350422 
L 252.318751 440.596563 
M 252.596974 440.596563 
L 252.615019 334.36697 
L 252.929334 300.528056 
L 253.400807 279.209754 
L 254.029438 263.548459 
L 254.658068 253.286399 
L 255.443856 244.045439 
L 256.386802 235.845073 
L 257.329748 229.530913 
L 258.429851 223.69789 
L 259.529955 219.009297 
L 260.787216 214.663476 
L 262.044477 211.137404 
L 263.301738 208.258586 
L 264.558999 205.91319 
L 265.81626 204.023097 
L 267.073521 202.533377 
L 268.330782 201.405041 
L 269.430885 200.6924 
L 270.530989 200.222558 
L 271.631092 199.987059 
L 272.731196 199.981198 
L 273.831299 200.203737 
L 274.931403 200.656833 
L 276.031506 201.346166 
L 277.131609 202.281296 
L 278.38887 203.669274 
L 279.646131 205.426776 
L 280.903393 207.596192 
L 282.160654 210.237331 
L 283.417915 213.435694 
L 284.675176 217.316944 
L 285.775279 221.422302 
L 286.875382 226.398659 
L 287.818328 231.603095 
L 288.761274 238.041961 
L 289.547062 244.803865 
L 290.33285 253.594313 
L 290.961481 263.120904 
L 291.432954 272.927932 
L 291.904427 287.420083 
L 292.218742 303.176383 
L 292.3759 315.68182 
L 292.533057 337.055836 
L 292.55015 440.596563 
M 292.830283 440.596563 
L 292.847372 337.079736 
L 293.161688 303.248084 
L 293.633161 281.940506 
L 294.261791 266.293201 
L 294.890422 256.044784 
L 295.67621 246.820404 
L 296.619156 238.639256 
L 297.562101 232.343596 
L 298.662205 226.531281 
L 299.762308 221.862487 
L 301.019569 217.538223 
L 302.27683 214.032612 
L 303.534091 211.173204 
L 304.791352 208.846214 
L 306.048613 206.97356 
L 307.305875 205.500354 
L 308.563136 204.387645 
L 309.663239 203.687978 
L 310.763342 203.230482 
L 311.863446 203.006721 
L 312.963549 203.012013 
L 314.063653 203.245142 
L 315.163756 203.708282 
L 316.263859 204.407133 
L 317.363963 205.351273 
L 318.621224 206.748949 
L 319.878485 208.515532 
L 321.135746 210.69344 
L 322.393007 213.342502 
L 323.650268 216.548242 
L 324.907529 220.436343 
L 326.007633 224.547282 
L 327.107736 229.528846 
L 328.050682 234.737457 
L 328.993628 241.18024 
L 329.779416 247.945218 
L 330.565204 256.738569 
L 331.193834 266.267365 
L 331.665307 276.075977 
L 332.13678 290.569655 
L 332.451095 306.32694 
L 332.608253 318.832862 
L 332.765411 340.207355 
L 332.782948 440.596563 
M 333.062193 440.596563 
L 333.079726 340.232192 
L 333.394041 306.401452 
L 333.865514 285.095197 
L 334.494145 269.449571 
L 335.122775 259.20274 
L 335.908563 249.980213 
L 336.851509 241.801104 
L 337.794455 235.507285 
L 338.894558 229.696878 
L 339.994662 225.02974 
L 341.251923 220.707072 
L 342.509184 217.202749 
L 343.766445 214.344337 
L 345.023706 212.018057 
L 346.280967 210.145842 
L 347.538228 208.672812 
L 348.795489 207.560026 
L 349.895592 206.860091 
L 350.995696 206.402147 
L 352.095799 206.177763 
L 353.195903 206.182264 
L 354.296006 206.414438 
L 355.39611 206.876464 
L 356.496213 207.57405 
L 357.596316 208.516776 
L 358.853577 209.912662 
L 360.110839 211.677275 
L 361.3681 213.853039 
L 362.625361 216.499792 
L 363.882622 219.703061 
L 365.139883 223.588538 
L 366.239986 227.697058 
L 367.34009 232.676092 
L 368.283035 237.882452 
L 369.225981 244.322906 
L 370.011769 251.085887 
L 370.797557 259.877192 
L 371.426188 269.404315 
L 371.897661 279.211653 
L 372.369134 293.704039 
L 372.683449 309.460454 
L 372.840607 321.965938 
L 372.997764 343.339991 
L 373.013586 440.596563 
M 373.296262 440.596563 
L 373.31208 343.363943 
L 373.626395 309.532311 
L 374.097868 288.224704 
L 374.726498 272.577252 
L 375.355129 262.328566 
L 376.140917 253.103683 
L 377.083863 244.921691 
L 378.026808 238.624933 
L 379.126912 232.811026 
L 380.227015 228.140314 
L 381.484276 223.813474 
L 382.741537 220.304891 
L 383.998798 217.442132 
L 385.256059 215.111424 
L 386.513321 213.234701 
L 387.770582 211.757087 
L 389.027843 210.639644 
L 390.127946 209.935578 
L 391.228049 209.47345 
L 392.328153 209.244834 
L 393.428256 209.245054 
L 394.52836 209.472901 
L 395.628463 209.930557 
L 396.728567 210.623729 
L 397.82867 211.562001 
L 399.085931 212.952747 
L 400.343192 214.712173 
L 401.600453 216.882702 
L 402.857714 219.524174 
L 404.114975 222.722121 
L 405.372236 226.602233 
L 406.47234 230.706028 
L 407.572443 235.680309 
L 408.515389 240.882572 
L 409.458335 247.318911 
L 410.244123 254.078448 
L 411.029911 262.866296 
L 411.658541 272.390645 
L 412.130014 282.195897 
L 412.601487 296.686194 
L 412.915802 312.441214 
L 413.07296 324.945999 
L 413.230118 346.319353 
L 413.246047 440.596563 
M 413.528507 440.596563 
L 413.544433 346.341907 
L 413.858748 312.508874 
L 414.330221 291.199163 
L 414.958852 275.5489 
L 415.587482 265.297396 
L 416.37327 256.068982 
L 417.316216 247.88274 
L 418.259162 241.581719 
L 419.359265 235.762822 
L 420.459369 231.087103 
L 421.71663 226.754524 
L 422.973891 223.240182 
L 424.231152 220.371646 
L 425.488413 218.035145 
L 426.745674 216.152614 
L 428.002935 214.669177 
L 429.260196 213.545899 
L 430.3603 212.836716 
L 431.460403 212.369464 
L 432.560506 212.135715 
L 433.66061 212.130795 
L 434.760713 212.353495 
L 435.860817 212.805998 
L 436.96092 213.494011 
L 438.061023 214.42712 
L 439.318284 215.81196 
L 440.575546 217.565474 
L 441.832807 219.730087 
L 443.090068 222.36564 
L 444.347329 225.557665 
L 445.60459 229.431853 
L 446.704693 233.530463 
L 447.804797 238.499559 
L 448.747742 243.697377 
L 449.690688 250.129271 
L 450.476476 256.885105 
L 451.262264 265.66925 
L 451.890895 275.190636 
L 452.362368 284.993667 
L 452.833841 299.481743 
L 453.148156 315.235282 
L 453.305314 327.739327 
L 453.462471 349.111941 
L 453.477992 440.596563 
M 453.761269 440.596563 
L 453.776787 349.133014 
L 454.091102 315.298501 
L 454.562575 293.986571 
L 455.191205 278.333348 
L 455.819836 268.078886 
L 456.605624 258.846775 
L 457.54857 250.656098 
L 458.491515 244.350645 
L 459.591619 238.52658 
L 460.691722 233.845697 
L 461.948983 229.507221 
L 463.206244 225.986988 
L 464.463505 223.112567 
L 465.720766 220.770186 
L 466.978028 218.881783 
L 468.235289 217.392481 
L 469.49255 216.263345 
L 470.592653 215.549044 
L 471.692756 215.076679 
L 472.79286 214.837823 
L 473.892963 214.827804 
L 474.993067 215.045412 
L 476.09317 215.49283 
L 477.193274 216.175765 
L 478.293377 217.103803 
L 479.550638 218.482858 
L 480.807899 220.230596 
L 482.06516 222.389445 
L 483.322421 225.019244 
L 484.579682 228.205526 
L 485.836943 232.073983 
L 486.937047 236.167588 
L 488.03715 241.131687 
L 488.980096 246.325229 
L 489.923042 252.752855 
L 490.70883 259.505136 
L 491.494618 268.285734 
L 492.123248 277.804286 
L 492.594721 287.605193 
L 493.066194 302.091147 
L 493.38051 317.843273 
L 493.537667 330.346611 
L 493.694825 351.718519 
L 493.709712 440.596563 
M 493.994256 440.596563 
L 494.00914 351.73818 
L 494.323455 317.902255 
L 494.794928 296.588209 
L 495.423559 280.932169 
L 496.052189 270.674892 
L 496.837977 261.439267 
L 497.780923 253.244382 
L 498.723869 246.934726 
L 499.823972 241.105768 
L 500.924076 236.420003 
L 502.181337 232.075959 
L 503.438598 228.550172 
L 504.695859 225.670211 
L 505.95312 223.322304 
L 507.210381 221.428388 
L 508.467642 219.933589 
L 509.724903 218.79897 
L 510.825007 218.079882 
L 511.92511 217.602741 
L 513.025213 217.359122 
L 514.125317 217.34435 
L 515.22542 217.557215 
L 516.325524 217.999903 
L 517.425627 218.678118 
L 518.52573 219.601449 
L 519.782992 220.975137 
L 521.040253 222.717524 
L 522.297514 224.871036 
L 523.554775 227.495515 
L 524.812036 230.67649 
L 526.069297 234.539656 
L 527.1694 238.628644 
L 528.269504 243.588138 
L 529.212449 248.777742 
L 530.155395 255.201438 
L 530.941183 261.950451 
L 531.726971 270.727787 
L 532.355602 280.243734 
L 532.827075 290.04269 
L 533.298548 304.526694 
L 533.612863 320.277522 
L 533.770021 332.780211 
L 533.927178 354.151471 
L 533.941723 440.596563 
M 534.226951 440.596563 
L 534.241494 354.169835 
L 534.555809 320.332615 
L 535.027282 299.016628 
L 535.655912 283.358003 
L 536.284543 273.098145 
L 537.070331 263.859299 
L 538.013277 255.660557 
L 538.956222 249.347053 
L 540.056326 243.513617 
L 541.156429 238.823384 
L 542.41369 234.47425 
L 543.670951 230.943389 
L 544.928212 228.058369 
L 546.185474 225.705419 
L 547.442735 223.806475 
L 548.699996 222.306664 
L 549.957257 221.167048 
L 551.05736 220.443601 
L 552.157463 219.962114 
L 553.257567 219.714159 
L 554.35767 219.695064 
L 555.457774 219.903618 
L 556.557877 220.342006 
L 557.657981 221.015935 
L 558.758084 221.93499 
L 560.015345 223.303807 
L 561.272606 225.041338 
L 562.529867 227.19001 
L 563.787128 229.809663 
L 565.044389 232.985829 
L 566.30165 236.844202 
L 567.401754 240.929007 
L 568.501857 245.884331 
L 569.444803 251.070371 
L 570.387749 257.49051 
L 571.173537 264.236567 
L 571.959325 273.010951 
L 572.587956 282.524542 
L 573.059428 292.321733 
L 573.530901 306.803975 
L 573.845217 322.553629 
L 574.002374 335.055732 
L 574.159532 356.426405 
L 574.173643 440.596563 
M 574.459739 440.596563 
L 574.473847 356.443597 
L 574.788162 322.605206 
L 575.259635 301.287464 
L 575.888266 285.626503 
L 576.516896 275.364313 
L 577.302684 266.122557 
L 578.24563 257.92033 
L 579.188576 251.60335 
L 580.288679 245.76587 
L 581.388783 241.071605 
L 582.646044 236.717877 
L 583.903305 233.182436 
L 585.160566 230.292852 
L 586.417827 227.935353 
L 587.675088 226.031875 
L 588.932349 224.527545 
L 590.18961 223.383425 
L 591.289714 222.656049 
L 592.389817 222.170644 
L 593.48992 221.918784 
L 594.590024 221.895794 
L 595.690127 222.100465 
L 596.790231 222.534981 
L 597.890334 223.205049 
L 598.990438 224.120254 
L 600.247699 225.484685 
L 601.50496 227.217845 
L 602.762221 229.362161 
L 604.019482 231.977472 
L 605.276743 235.149311 
L 606.534004 239.00337 
L 607.634107 243.084414 
L 608.734211 248.035986 
L 609.677156 253.21882 
L 610.620102 259.635761 
L 611.40589 266.379158 
L 612.191679 275.150889 
L 612.820309 284.662361 
L 613.291782 294.457965 
L 613.763255 308.938622 
L 614.07757 324.68722 
L 614.234728 337.188796 
L 614.391885 358.558942 
L 614.405127 440.596563 
M 614.692961 440.596563 
L 614.706201 358.575081 
L 615.020516 324.735637 
L 615.491989 303.416317 
L 616.120619 287.753256 
L 616.74925 277.488969 
L 617.535038 268.244597 
L 618.477984 260.039238 
L 619.42093 253.719134 
L 620.521033 247.878019 
L 621.621136 243.18013 
L 622.878397 238.822272 
L 624.135658 235.282716 
L 625.39292 232.38903 
L 626.650181 230.027444 
L 627.907442 228.119893 
L 629.164703 226.611502 
L 630.421964 225.463335 
L 631.522067 224.73243 
L 632.622171 224.243505 
L 633.722274 223.988136 
L 634.822377 223.961647 
L 635.922481 224.162829 
L 637.022584 224.593867 
L 638.122688 225.260467 
L 639.222791 226.172214 
L 640.480052 227.532706 
L 641.737313 229.261939 
L 642.994574 231.402341 
L 644.251835 234.013753 
L 645.509096 237.181704 
L 646.766357 241.03189 
L 647.866461 245.109554 
L 648.966564 250.057757 
L 649.90951 255.23771 
L 650.852456 261.651778 
L 651.638244 268.392786 
L 652.424032 277.162134 
L 653.052663 286.671702 
L 653.524135 296.465881 
L 653.995608 310.945115 
L 654.309924 326.692764 
L 654.467081 339.193866 
L 654.624239 360.563539 
L 654.637982 440.596563 
M 654.924813 440.596563 
L 654.938554 360.578731 
L 655.252869 326.738342 
L 655.724342 305.417605 
L 656.352973 289.752656 
L 656.981603 279.486486 
L 657.767391 270.239764 
L 658.710337 262.031591 
L 659.653283 255.70868 
L 660.753386 249.864299 
L 661.85349 245.163154 
L 663.110751 240.801587 
L 664.368012 237.258333 
L 665.625273 234.360962 
L 666.882534 231.995703 
L 668.139795 230.084491 
L 669.397056 228.572452 
L 670.654317 227.420648 
L 671.754421 226.686571 
L 672.854524 226.194483 
L 673.954627 225.93596 
L 675.054731 225.906326 
L 676.154834 226.104374 
L 677.254938 226.532285 
L 678.355041 227.195767 
L 679.455145 228.104406 
L 680.712406 229.461355 
L 681.969667 231.187059 
L 683.226928 233.323943 
L 684.484189 235.931847 
L 685.74145 239.096304 
L 686.998711 242.943005 
L 688.098814 247.01763 
L 689.198918 251.962803 
L 690.141863 257.140166 
L 691.084809 263.55165 
L 691.870597 270.29051 
L 692.656386 279.057713 
L 693.285016 288.565569 
L 693.756489 298.358466 
L 694.227962 312.836419 
L 694.542277 328.583216 
L 694.699435 341.083891 
L 694.856592 362.453137 
L 694.856592 362.453137 
" clip-path="url(#p205a99c377)" style="fill: none; stroke: #d62728; stroke-opacity: 0.9; stroke-width: 1.4; stroke-linecap: square"/>
   </g>
   <g id="line2d_34">
    <path d="M 51.296094 46.540871 
L 54.753562 46.655185 
L 58.21103 46.998445 
L 61.668497 47.571603 
L 65.125965 48.376266 
L 68.583433 49.41471 
L 72.040901 50.689921 
L 75.498369 52.205636 
L 78.955837 53.966398 
L 82.413305 55.977632 
L 85.870773 58.245734 
L 89.32824 60.778179 
L 92.785708 63.583663 
L 96.243176 66.672268 
L 99.700644 70.055677 
L 103.158112 73.747429 
L 106.61558 77.763254 
L 110.073048 82.121489 
L 113.530516 86.843605 
L 116.987983 91.954904 
L 120.288294 97.224457 
L 123.588604 102.907092 
L 126.888914 109.04018 
L 130.032067 115.341401 
L 133.175219 122.140199 
L 136.161214 129.113742 
L 139.147209 136.653158 
L 141.976047 144.390289 
L 144.804884 152.794886 
L 147.476564 161.448257 
L 149.991086 170.344089 
L 152.34845 179.475755 
L 154.548657 188.835452 
L 156.748864 199.190544 
L 158.791913 209.926367 
L 160.677805 221.068157 
L 162.406539 232.644809 
L 163.978115 244.687264 
L 165.392534 257.224887 
L 166.649795 270.278046 
L 167.749898 283.843508 
L 168.692844 297.866058 
L 169.63579 315.45625 
L 170.421578 334.988293 
L 171.050209 357.32169 
L 171.521681 384.423601 
L 171.835997 422.627437 
L 171.839422 440.596563 
M 172.147804 440.596563 
L 172.150312 427.519014 
L 172.464627 399.280059 
L 172.778942 390.180151 
L 172.9361 388.41147 
L 173.093258 387.986211 
L 173.250415 388.816214 
L 173.407573 390.974173 
L 173.721888 400.689172 
L 173.879046 410.310458 
L 174.062684 440.596563 
M 174.327427 440.596563 
L 174.507676 405.380201 
L 174.979149 371.766038 
L 175.60778 348.599519 
L 176.23641 333.337751 
L 177.022198 319.423547 
L 177.965144 306.951291 
L 178.90809 297.301257 
L 180.008193 288.385133 
L 181.108297 281.24197 
L 182.2084 275.405066 
L 183.465661 269.960586 
L 184.722922 265.550807 
L 185.980183 261.981565 
L 187.237444 259.11741 
L 188.337548 257.112696 
L 189.437651 255.525114 
L 190.537755 254.318283 
L 191.637858 253.464944 
L 192.580804 252.999662 
L 193.52375 252.770694 
L 194.466696 252.772424 
L 195.409641 253.002203 
L 196.352587 253.460327 
L 197.295533 254.150176 
L 198.395636 255.257099 
L 199.49574 256.706284 
L 200.595843 258.524191 
L 201.695947 260.749042 
L 202.79605 263.43533 
L 203.896153 266.661289 
L 204.996257 270.541797 
L 206.09636 275.252136 
L 207.196464 281.075609 
L 208.139409 287.320798 
L 208.925198 293.829774 
L 209.710986 302.186604 
L 210.339616 311.068578 
L 210.968247 323.61141 
L 211.43972 338.151928 
L 211.754035 353.94207 
L 211.911193 366.464896 
L 212.06835 387.856608 
L 212.077719 440.596563 
M 212.373306 440.596563 
L 212.382665 387.916807 
L 212.696981 354.122636 
L 213.168454 332.873439 
L 213.797084 317.307862 
L 214.425715 307.145424 
L 215.211503 298.034197 
L 216.154449 289.996687 
L 217.097394 283.852685 
L 218.197498 278.226722 
L 219.297601 273.75367 
L 220.397705 270.125166 
L 221.654966 266.771591 
L 222.912227 264.091469 
L 224.169488 261.964409 
L 225.426749 260.307947 
L 226.526852 259.19854 
L 227.626956 258.376618 
L 228.727059 257.82131 
L 229.827162 257.517442 
L 230.927266 257.454483 
L 232.027369 257.625875 
L 233.127473 258.028643 
L 234.227576 258.663233 
L 235.32768 259.53355 
L 236.584941 260.826805 
L 237.842202 262.456239 
L 239.099463 264.448924 
L 240.356724 266.843506 
L 241.613985 269.694588 
L 242.871246 273.079986 
L 244.128507 277.113237 
L 245.385768 281.966558 
L 246.485871 287.099268 
L 247.585975 293.376277 
L 248.528921 300.070769 
L 249.314709 307.045944 
L 250.100497 316.049854 
L 250.729127 325.747331 
L 251.2006 335.682581 
L 251.672073 350.302997 
L 251.986388 366.144826 
L 252.300704 400.109823 
L 252.308212 440.596563 
M 252.60753 440.596563 
L 252.615019 400.219281 
L 252.929334 366.473196 
L 253.400807 345.293987 
L 254.029438 329.817862 
L 254.658068 319.74064 
L 255.443856 310.730255 
L 256.386802 302.805872 
L 257.329748 296.766911 
L 258.429851 291.253948 
L 259.529955 286.884313 
L 260.630058 283.350318 
L 261.887319 280.094637 
L 263.14458 277.502422 
L 264.401841 275.454052 
L 265.659102 273.867759 
L 266.759206 272.813265 
L 267.859309 272.040614 
L 268.959413 271.5293 
L 270.059516 271.264484 
L 271.159619 271.235948 
L 272.259723 271.437424 
L 273.359826 271.866209 
L 274.45993 272.522997 
L 275.717191 273.558275 
L 276.974452 274.909031 
L 278.231713 276.594763 
L 279.488974 278.644091 
L 280.746235 281.097631 
L 282.003496 284.01265 
L 283.260757 287.470817 
L 284.518018 291.591653 
L 285.775279 296.557421 
L 286.875382 301.823161 
L 287.975486 308.290572 
L 288.918432 315.232628 
L 289.70422 322.529569 
L 290.490008 332.077197 
L 291.118639 342.583802 
L 291.590111 353.695273 
L 292.061584 371.075634 
L 292.3759 392.535486 
L 292.533057 413.949903 
L 292.537811 440.596563 
M 292.842637 440.596563 
L 292.847372 414.054536 
L 293.161688 380.303521 
L 293.633161 359.116722 
L 294.261791 343.630123 
L 294.890422 333.542034 
L 295.67621 324.517534 
L 296.619156 316.575467 
L 297.562101 310.518047 
L 298.662205 304.98262 
L 299.762308 300.589577 
L 300.862412 297.031287 
L 302.119673 293.74682 
L 303.376934 291.124805 
L 304.634195 289.045687 
L 305.891456 287.427767 
L 306.991559 286.344924 
L 308.091663 285.543336 
L 309.191766 285.002535 
L 310.29187 284.707714 
L 311.391973 284.648691 
L 312.492076 284.819228 
L 313.59218 285.216652 
L 314.692283 285.841685 
L 315.949544 286.840226 
L 317.206805 288.153802 
L 318.464066 289.80195 
L 319.721327 291.813322 
L 320.978588 294.228566 
L 322.235849 297.104981 
L 323.493111 300.524262 
L 324.750372 304.605957 
L 326.007633 309.532355 
L 327.107736 314.763476 
L 328.207839 321.196127 
L 329.150785 328.108286 
L 329.936573 335.380247 
L 330.722362 344.902841 
L 331.350992 355.389383 
L 331.822465 366.485787 
L 332.293938 383.851065 
L 332.608253 405.300854 
L 332.768063 440.596563 
M 333.077092 440.596563 
L 333.079726 426.804798 
L 333.394041 393.043704 
L 333.865514 371.841777 
L 334.494145 356.334988 
L 335.122775 346.226692 
L 335.908563 337.176907 
L 336.851509 329.20447 
L 337.794455 323.116652 
L 338.894558 317.545734 
L 339.994662 313.117181 
L 341.094765 309.523369 
L 342.352026 306.198302 
L 343.609287 303.535693 
L 344.866548 301.415999 
L 346.123809 299.75753 
L 347.223913 298.639237 
L 348.324016 297.802233 
L 349.42412 297.226056 
L 350.524223 296.895905 
L 351.624326 296.801603 
L 352.72443 296.936916 
L 353.824533 297.299177 
L 354.924637 297.889112 
L 356.02474 298.710892 
L 357.282001 299.94424 
L 358.539262 301.509365 
L 359.796523 303.433657 
L 361.053784 305.756058 
L 362.311045 308.531448 
L 363.568306 311.837896 
L 364.825567 315.789179 
L 366.082828 320.557735 
L 367.182932 325.614145 
L 368.283035 331.813001 
L 369.225981 338.439122 
L 370.011769 345.356404 
L 370.797557 354.301627 
L 371.426188 363.951611 
L 371.897661 373.850935 
L 372.369134 388.435172 
L 372.683449 404.252746 
L 372.840607 416.788786 
L 372.99822 440.596563 
M 373.31164 440.596563 
L 373.31208 438.278372 
L 373.626395 404.507718 
L 374.097868 383.291467 
L 374.726498 367.765614 
L 375.355129 357.63829 
L 376.140917 348.564776 
L 377.083863 340.563942 
L 378.026808 334.447814 
L 379.126912 328.843979 
L 380.227015 324.38263 
L 381.327119 320.756144 
L 382.58438 317.393886 
L 383.841641 314.694247 
L 385.098902 312.537688 
L 386.356163 310.842516 
L 387.613424 309.55144 
L 388.713527 308.72097 
L 389.813631 308.149023 
L 390.913734 307.821513 
L 392.013838 307.728859 
L 393.113941 307.865357 
L 394.214044 308.228829 
L 395.314148 308.820486 
L 396.414251 309.645008 
L 397.671512 310.883462 
L 398.928773 312.45676 
L 400.186034 314.393561 
L 401.443295 316.734515 
L 402.700556 319.536926 
L 403.957818 322.882496 
L 405.215079 326.890776 
L 406.47234 331.744057 
L 407.572443 336.911451 
L 408.672546 343.280607 
L 409.615492 350.13853 
L 410.40128 357.365428 
L 411.187069 366.84308 
L 411.815699 377.293757 
L 412.287172 388.363315 
L 412.758645 405.701789 
L 413.07296 427.133734 
L 413.171826 440.596563 
M 413.6035 440.596563 
L 413.858748 414.832062 
L 414.330221 393.60348 
L 414.958852 378.061223 
L 415.587482 367.917537 
L 416.37327 358.823629 
L 417.316216 350.798409 
L 418.259162 344.657989 
L 419.359265 339.025933 
L 420.459369 334.53649 
L 421.559472 330.882038 
L 422.816733 327.487974 
L 424.073994 324.756695 
L 425.331255 322.568659 
L 426.588516 320.842175 
L 427.845777 319.519951 
L 428.945881 318.66236 
L 430.045984 318.063415 
L 431.146088 317.709032 
L 432.246191 317.589628 
L 433.346295 317.699499 
L 434.446398 318.036466 
L 435.546501 318.60174 
L 436.646605 319.4 
L 437.903866 320.608589 
L 439.161127 322.152179 
L 440.418388 324.059428 
L 441.675649 326.370986 
L 442.93291 329.144156 
L 444.190171 332.460639 
L 445.447432 336.439984 
L 446.547536 340.606629 
L 447.647639 345.608338 
L 448.747742 351.752739 
L 449.690688 358.332379 
L 450.476476 365.211064 
L 451.262264 374.117815 
L 451.890895 383.73711 
L 452.362368 393.613471 
L 452.833841 408.174789 
L 453.148156 423.977108 
L 453.335362 440.596563 
M 453.904826 440.596563 
L 454.091102 424.186434 
L 454.562575 402.947426 
L 455.191205 387.3913 
L 455.819836 377.233782 
L 456.605624 368.122636 
L 457.54857 360.076804 
L 458.491515 353.915853 
L 459.591619 348.259948 
L 460.691722 343.746765 
L 461.791826 340.068681 
L 463.049087 336.647743 
L 464.306348 333.88973 
L 465.563609 331.675101 
L 466.82087 329.922163 
L 468.078131 328.573622 
L 469.178234 327.693118 
L 470.278338 327.071364 
L 471.378441 326.694276 
L 472.478545 326.552271 
L 473.578648 326.639644 
L 474.678751 326.954215 
L 475.778855 327.497196 
L 476.878958 328.273263 
L 478.136219 329.456613 
L 479.39348 330.975094 
L 480.650741 332.857364 
L 481.908002 335.144073 
L 483.165264 337.892522 
L 484.422525 341.184412 
L 485.679786 345.139291 
L 486.779889 349.284631 
L 487.879992 354.26513 
L 488.980096 360.388418 
L 489.923042 366.950036 
L 490.70883 373.813755 
L 491.494618 382.705589 
L 492.123248 392.312985 
L 492.594721 402.180441 
L 493.066194 416.732871 
L 493.38051 432.529274 
L 493.48173 440.596563 
M 494.224132 440.596563 
L 494.480613 423.89119 
L 494.952086 406.763717 
L 495.580716 393.015611 
L 496.209347 383.663719 
L 496.995135 375.091269 
L 497.938081 367.409453 
L 498.881027 361.470873 
L 499.98113 355.98388 
L 501.081233 351.585129 
L 502.338494 347.529448 
L 503.595756 344.265544 
L 504.853017 341.630165 
L 506.110278 339.514974 
L 507.367539 337.845349 
L 508.6248 336.568734 
L 509.724903 335.744479 
L 510.825007 335.174527 
L 511.92511 334.84616 
L 513.025213 334.750955 
L 514.125317 334.884239 
L 515.22542 335.244805 
L 516.325524 335.834837 
L 517.425627 336.660045 
L 518.682888 337.903609 
L 519.940149 339.488631 
L 521.19741 341.44644 
L 522.454671 343.821321 
L 523.711932 346.675785 
L 524.969193 350.099419 
L 526.226454 354.224471 
L 527.326558 358.567153 
L 528.426661 363.817468 
L 529.369607 369.305603 
L 530.312553 376.108888 
L 531.098341 383.290415 
L 531.884129 392.722842 
L 532.51276 403.137442 
L 532.984233 414.180002 
L 533.455705 431.491532 
L 533.615548 440.596563 
M 534.555337 440.596563 
L 534.712966 431.726914 
L 535.184439 414.591922 
L 535.81307 400.833813 
L 536.4417 391.471941 
L 537.227489 382.887051 
L 538.170434 375.190356 
L 539.11338 369.236951 
L 540.213484 363.73273 
L 541.313587 359.316824 
L 542.570848 355.241625 
L 543.828109 351.958296 
L 545.08537 349.303586 
L 546.342631 347.169156 
L 547.599892 345.480384 
L 548.857153 344.184712 
L 549.957257 343.343857 
L 551.05736 342.757374 
L 552.157463 342.412545 
L 553.257567 342.300945 
L 554.35767 342.417902 
L 555.457774 342.762209 
L 556.557877 343.336049 
L 557.657981 344.145131 
L 558.915242 345.370346 
L 560.172503 346.937105 
L 561.429764 348.876737 
L 562.687025 351.233526 
L 563.944286 354.069981 
L 565.201547 357.475691 
L 566.458808 361.582902 
L 567.558911 365.91004 
L 568.659015 371.144875 
L 569.601961 376.61979 
L 570.544906 383.409902 
L 571.330694 390.580486 
L 572.116483 400.002001 
L 572.745113 410.407894 
L 573.216586 421.443937 
L 573.688059 438.748961 
L 573.720725 440.596563 
M 574.916332 440.596563 
L 575.259635 426.539601 
L 575.888266 410.953117 
L 576.516896 400.765315 
L 577.302684 391.616417 
L 578.24563 383.525434 
L 579.188576 377.319498 
L 580.288679 371.611314 
L 581.388783 367.046075 
L 582.646044 362.839473 
L 583.903305 359.450806 
L 585.160566 356.707646 
L 586.417827 354.496224 
L 587.675088 352.738475 
L 588.932349 351.379529 
L 590.032453 350.486683 
L 591.132556 349.850479 
L 592.232659 349.457522 
L 593.332763 349.298814 
L 594.432866 349.369169 
L 595.53297 349.666894 
L 596.633073 350.193684 
L 597.733176 350.954729 
L 598.990438 352.123079 
L 600.247699 353.629861 
L 601.50496 355.505042 
L 602.762221 357.79105 
L 604.019482 360.547728 
L 605.276743 363.860609 
L 606.534004 367.855388 
L 607.634107 372.059296 
L 608.734211 377.133489 
L 609.677156 382.42123 
L 610.620102 388.9429 
L 611.40589 395.773435 
L 612.191679 404.632181 
L 612.820309 414.213176 
L 613.291782 424.060871 
L 613.763255 438.593574 
L 613.808901 440.596563 
M 615.294675 440.596563 
L 615.649146 428.545854 
L 616.277777 414.77168 
L 616.906407 405.393779 
L 617.692196 396.788903 
L 618.635141 389.068298 
L 619.578087 383.091063 
L 620.678191 377.559139 
L 621.778294 373.115637 
L 623.035555 369.009031 
L 624.292816 365.694433 
L 625.550077 363.008591 
L 626.807338 360.843165 
L 628.064599 359.123533 
L 629.32186 357.797137 
L 630.421964 356.929507 
L 631.522067 356.316351 
L 632.622171 355.944951 
L 633.722274 355.806881 
L 634.822377 355.897468 
L 635.922481 356.215504 
L 637.022584 356.763173 
L 638.122688 357.546183 
L 639.379949 358.741721 
L 640.63721 360.278931 
L 641.894471 362.18914 
L 643.151732 364.516632 
L 644.408993 367.323916 
L 645.666254 370.700578 
L 646.923515 374.778865 
L 648.023618 379.080795 
L 649.123722 384.290516 
L 650.066668 389.743979 
L 651.009613 396.512707 
L 651.795401 403.665522 
L 652.58119 413.069316 
L 653.20982 423.461065 
L 653.681293 434.48652 
L 653.875964 440.596563 
M 655.694525 440.596563 
L 656.038658 430.738553 
L 656.667288 418.397889 
L 657.453076 407.892998 
L 658.238864 400.215712 
L 659.18181 393.157712 
L 660.124756 387.605387 
L 661.224859 382.41183 
L 662.324963 378.209626 
L 663.582224 374.307822 
L 664.839485 371.150355 
L 666.096746 368.590523 
L 667.354007 366.529909 
L 668.611268 364.900259 
L 669.868529 363.653335 
L 670.968632 362.849077 
L 672.068736 362.295217 
L 673.168839 361.980333 
L 674.268943 361.897116 
L 675.369046 362.041902 
L 676.46915 362.41445 
L 677.569253 363.017928 
L 678.669356 363.859105 
L 679.926617 365.12557 
L 681.183878 366.740573 
L 682.44114 368.738317 
L 683.698401 371.167041 
L 684.955662 374.095003 
L 686.212923 377.620621 
L 687.470184 381.890602 
L 688.570287 386.414983 
L 689.670391 391.930741 
L 690.613336 397.759257 
L 691.556282 405.093468 
L 692.34207 413.000946 
L 692.970701 421.265944 
L 693.599331 432.621352 
L 693.920548 440.596563 
L 693.920548 440.596563 
" clip-path="url(#p205a99c377)" style="fill: none; stroke: #2ca02c; stroke-opacity: 0.9; stroke-width: 1.4; stroke-linecap: square"/>
   </g>
   <g id="patch_3">
    <path d="M 51.296094 401.395781 
L 51.296094 28.798125 
" style="fill: none; stroke: #ffffff; stroke-width: 0.8; stroke-linejoin: miter; stroke-linecap: square"/>
   </g>
   <g id="patch_4">
    <path d="M 695.01375 401.395781 
L 695.01375 28.798125 
" style="fill: none; stroke: #ffffff; stroke-width: 0.8; stroke-linejoin: miter; stroke-linecap: square"/>
   </g>
   <g id="patch_5">
    <path d="M 51.296094 401.395781 
L 695.01375 401.395781 
" style="fill: none; stroke: #ffffff; stroke-width: 0.8; stroke-linejoin: miter; stroke-linecap: square"/>
   </g>
   <g id="patch_6">
    <path d="M 51.296094 28.798125 
L 695.01375 28.798125 
" style="fill: none; stroke: #ffffff; stroke-width: 0.8; stroke-linejoin: miter; stroke-linecap: square"/>
   </g>
   <g id="text_18">
    <text style="font-weight: 700; font-size: 12px; font-family: sans-serif; text-anchor: middle; fill: #ffffff" x="373.154922" y="16.798125" transform="rotate(-0 373.154922 16.798125)">Ventanas de análisis: el compromiso espectral (Harris 1978)</text>
   </g>
   <g id="legend_1">
    <g id="patch_7">
     <path d="M 432.902813 91.440938 
L 688.71375 91.440938 
Q 690.51375 91.440938 690.51375 89.640938 
L 690.51375 35.098125 
Q 690.51375 33.298125 688.71375 33.298125 
L 432.902813 33.298125 
Q 431.102813 33.298125 431.102813 35.098125 
L 431.102813 89.640938 
Q 431.102813 91.440938 432.902813 91.440938 
z
" style="opacity: 0.8; stroke: #cccccc; stroke-linejoin: miter"/>
    </g>
    <g id="line2d_35">
     <path d="M 434.702813 40.946719 
L 443.702813 40.946719 
L 452.702813 40.946719 
" style="fill: none; stroke: #ffffff; stroke-opacity: 0.9; stroke-width: 1.4; stroke-linecap: square"/>
    </g>
    <g id="text_19">
     <text style="font-size: 9px; font-family: sans-serif; text-anchor: start; fill: #ffffff" x="459.902813" y="44.096719" transform="rotate(-0 459.902813 44.096719)">boxcar: ENBW 1,00 bins, lóbulo lateral -13,3 dB</text>
    </g>
    <g id="line2d_36">
     <path d="M 434.702813 54.807422 
L 443.702813 54.807422 
L 452.702813 54.807422 
" style="fill: none; stroke: #1f77b4; stroke-opacity: 0.9; stroke-width: 1.4; stroke-linecap: square"/>
    </g>
    <g id="text_20">
     <text style="font-size: 9px; font-family: sans-serif; text-anchor: start; fill: #ffffff" x="459.902813" y="57.957422" transform="rotate(-0 459.902813 57.957422)">hann: ENBW 1,50 bins, lóbulo lateral -31,5 dB</text>
    </g>
    <g id="line2d_37">
     <path d="M 434.702813 68.668125 
L 443.702813 68.668125 
L 452.702813 68.668125 
" style="fill: none; stroke: #d62728; stroke-opacity: 0.9; stroke-width: 1.4; stroke-linecap: square"/>
    </g>
    <g id="text_21">
     <text style="font-size: 9px; font-family: sans-serif; text-anchor: start; fill: #ffffff" x="459.902813" y="71.818125" transform="rotate(-0 459.902813 71.818125)">hamming: ENBW 1,36 bins, lóbulo lateral -42,7 dB</text>
    </g>
    <g id="line2d_38">
     <path d="M 434.702813 82.528828 
L 443.702813 82.528828 
L 452.702813 82.528828 
" style="fill: none; stroke: #2ca02c; stroke-opacity: 0.9; stroke-width: 1.4; stroke-linecap: square"/>
    </g>
    <g id="text_22">
     <text style="font-size: 9px; font-family: sans-serif; text-anchor: start; fill: #ffffff" x="459.902813" y="85.678828" transform="rotate(-0 459.902813 85.678828)">blackman: ENBW 1,73 bins, lóbulo lateral -58,1 dB</text>
    </g>
   </g>
  </g>
 </g>
 <defs>
  <clipPath id="p205a99c377">
   <rect x="51.296094" y="28.798125" width="643.717656" height="372.597656"/>
  </clipPath>
 </defs>
</svg>
