<?xml version="1.0" encoding="utf-8" standalone="no"?>
<!DOCTYPE svg PUBLIC "-//W3C//DTD SVG 1.1//EN"
  "http://www.w3.org/Graphics/SVG/1.1/DTD/svg11.dtd">
<svg xmlns:xlink="http://www.w3.org/1999/xlink" width="619.274219pt" height="399.638906pt" viewBox="0 0 619.274219 399.638906" xmlns="http://www.w3.org/2000/svg" version="1.1">
 <metadata>
  <rdf:RDF xmlns:dc="http://purl.org/dc/elements/1.1/" xmlns:cc="http://creativecommons.org/ns#" xmlns:rdf="http://www.w3.org/1999/02/22-rdf-syntax-ns#">
   <cc:Work>
    <dc:type rdf:resource="http://purl.org/dc/dcmitype/StillImage"/>
    <dc:format>image/svg+xml</dc:format>
    <dc:creator>
     <cc:Agent>
      <dc:title>Matplotlib v3.11.0, https://matplotlib.org/</dc:title>
     </cc:Agent>
    </dc:creator>
   </cc:Work>
  </rdf:RDF>
 </metadata>
 <defs>
  <style type="text/css">*{stroke-linejoin: round; stroke-linecap: butt}</style>
 </defs>
 <g id="figure_1">
  <g id="patch_1">
   <path d="M 0 399.638906 
L 619.274219 399.638906 
L 619.274219 0 
L 0 0 
z
" style="fill: #ffffff"/>
  </g>
  <g id="axes_1">
   <g id="patch_2">
    <path d="M 54.074219 361.438125 
L 612.074219 361.438125 
L 612.074219 28.798125 
L 54.074219 28.798125 
z
" style="fill: #ffffff"/>
   </g>
   <g id="matplotlib.axis_1">
    <g id="xtick_1">
     <g id="line2d_1">
      <path d="M 79.437855 361.438125 
L 79.437855 28.798125 
" clip-path="url(#pa32c376272)" style="fill: none; stroke-dasharray: 2.96,1.28; stroke-dashoffset: 0; stroke: #b0b0b0; stroke-opacity: 0.5; stroke-width: 0.8"/>
     </g>
     <g id="line2d_2">
      <defs>
       <path id="m3d27035b55" d="M 0 0 
L 0 3.5 
" style="stroke: #000000; stroke-width: 0.8"/>
      </defs>
      <g>
       <use xlink:href="#m3d27035b55" x="79.437855" y="361.438125" style="stroke: #000000; stroke-width: 0.8"/>
      </g>
     </g>
     <g id="text_1">
      <text style="font-size: 10px; font-family: 'DejaVu Sans', 'Bitstream Vera Sans', 'Computer Modern Sans Serif', 'Lucida Grande', 'Verdana', 'Geneva', 'Lucid', 'Arial', 'Helvetica', 'Avant Garde', sans-serif; text-anchor: middle" x="79.437855" y="376.035781" transform="rotate(-0 79.437855 376.035781)">0</text>
     </g>
    </g>
    <g id="xtick_2">
     <g id="line2d_3">
      <path d="M 147.083614 361.438125 
L 147.083614 28.798125 
" clip-path="url(#pa32c376272)" style="fill: none; stroke-dasharray: 2.96,1.28; stroke-dashoffset: 0; stroke: #b0b0b0; stroke-opacity: 0.5; stroke-width: 0.8"/>
     </g>
     <g id="line2d_4">
      <g>
       <use xlink:href="#m3d27035b55" x="147.083614" y="361.438125" style="stroke: #000000; stroke-width: 0.8"/>
      </g>
     </g>
     <g id="text_2">
      <text style="font-size: 10px; font-family: 'DejaVu Sans', 'Bitstream Vera Sans', 'Computer Modern Sans Serif', 'Lucida Grande', 'Verdana', 'Geneva', 'Lucid', 'Arial', 'Helvetica', 'Avant Garde', sans-serif; text-anchor: middle" x="147.083614" y="376.035781" transform="rotate(-0 147.083614 376.035781)">0,02</text>
     </g>
    </g>
    <g id="xtick_3">
     <g id="line2d_5">
      <path d="M 214.729373 361.438125 
L 214.729373 28.798125 
" clip-path="url(#pa32c376272)" style="fill: none; stroke-dasharray: 2.96,1.28; stroke-dashoffset: 0; stroke: #b0b0b0; stroke-opacity: 0.5; stroke-width: 0.8"/>
     </g>
     <g id="line2d_6">
      <g>
       <use xlink:href="#m3d27035b55" x="214.729373" y="361.438125" style="stroke: #000000; stroke-width: 0.8"/>
      </g>
     </g>
     <g id="text_3">
      <text style="font-size: 10px; font-family: 'DejaVu Sans', 'Bitstream Vera Sans', 'Computer Modern Sans Serif', 'Lucida Grande', 'Verdana', 'Geneva', 'Lucid', 'Arial', 'Helvetica', 'Avant Garde', sans-serif; text-anchor: middle" x="214.729373" y="376.035781" transform="rotate(-0 214.729373 376.035781)">0,04</text>
     </g>
    </g>
    <g id="xtick_4">
     <g id="line2d_7">
      <path d="M 282.375132 361.438125 
L 282.375132 28.798125 
" clip-path="url(#pa32c376272)" style="fill: none; stroke-dasharray: 2.96,1.28; stroke-dashoffset: 0; stroke: #b0b0b0; stroke-opacity: 0.5; stroke-width: 0.8"/>
     </g>
     <g id="line2d_8">
      <g>
       <use xlink:href="#m3d27035b55" x="282.375132" y="361.438125" style="stroke: #000000; stroke-width: 0.8"/>
      </g>
     </g>
     <g id="text_4">
      <text style="font-size: 10px; font-family: 'DejaVu Sans', 'Bitstream Vera Sans', 'Computer Modern Sans Serif', 'Lucida Grande', 'Verdana', 'Geneva', 'Lucid', 'Arial', 'Helvetica', 'Avant Garde', sans-serif; text-anchor: middle" x="282.375132" y="376.035781" transform="rotate(-0 282.375132 376.035781)">0,06</text>
     </g>
    </g>
    <g id="xtick_5">
     <g id="line2d_9">
      <path d="M 350.020891 361.438125 
L 350.020891 28.798125 
" clip-path="url(#pa32c376272)" style="fill: none; stroke-dasharray: 2.96,1.28; stroke-dashoffset: 0; stroke: #b0b0b0; stroke-opacity: 0.5; stroke-width: 0.8"/>
     </g>
     <g id="line2d_10">
      <g>
       <use xlink:href="#m3d27035b55" x="350.020891" y="361.438125" style="stroke: #000000; stroke-width: 0.8"/>
      </g>
     </g>
     <g id="text_5">
      <text style="font-size: 10px; font-family: 'DejaVu Sans', 'Bitstream Vera Sans', 'Computer Modern Sans Serif', 'Lucida Grande', 'Verdana', 'Geneva', 'Lucid', 'Arial', 'Helvetica', 'Avant Garde', sans-serif; text-anchor: middle" x="350.020891" y="376.035781" transform="rotate(-0 350.020891 376.035781)">0,08</text>
     </g>
    </g>
    <g id="xtick_6">
     <g id="line2d_11">
      <path d="M 417.66665 361.438125 
L 417.66665 28.798125 
" clip-path="url(#pa32c376272)" style="fill: none; stroke-dasharray: 2.96,1.28; stroke-dashoffset: 0; stroke: #b0b0b0; stroke-opacity: 0.5; stroke-width: 0.8"/>
     </g>
     <g id="line2d_12">
      <g>
       <use xlink:href="#m3d27035b55" x="417.66665" y="361.438125" style="stroke: #000000; stroke-width: 0.8"/>
      </g>
     </g>
     <g id="text_6">
      <text style="font-size: 10px; font-family: 'DejaVu Sans', 'Bitstream Vera Sans', 'Computer Modern Sans Serif', 'Lucida Grande', 'Verdana', 'Geneva', 'Lucid', 'Arial', 'Helvetica', 'Avant Garde', sans-serif; text-anchor: middle" x="417.66665" y="376.035781" transform="rotate(-0 417.66665 376.035781)">0,1</text>
     </g>
    </g>
    <g id="xtick_7">
     <g id="line2d_13">
      <path d="M 485.312408 361.438125 
L 485.312408 28.798125 
" clip-path="url(#pa32c376272)" style="fill: none; stroke-dasharray: 2.96,1.28; stroke-dashoffset: 0; stroke: #b0b0b0; stroke-opacity: 0.5; stroke-width: 0.8"/>
     </g>
     <g id="line2d_14">
      <g>
       <use xlink:href="#m3d27035b55" x="485.312408" y="361.438125" style="stroke: #000000; stroke-width: 0.8"/>
      </g>
     </g>
     <g id="text_7">
      <text style="font-size: 10px; font-family: 'DejaVu Sans', 'Bitstream Vera Sans', 'Computer Modern Sans Serif', 'Lucida Grande', 'Verdana', 'Geneva', 'Lucid', 'Arial', 'Helvetica', 'Avant Garde', sans-serif; text-anchor: middle" x="485.312408" y="376.035781" transform="rotate(-0 485.312408 376.035781)">0,12</text>
     </g>
    </g>
    <g id="xtick_8">
     <g id="line2d_15">
      <path d="M 552.958167 361.438125 
L 552.958167 28.798125 
" clip-path="url(#pa32c376272)" style="fill: none; stroke-dasharray: 2.96,1.28; stroke-dashoffset: 0; stroke: #b0b0b0; stroke-opacity: 0.5; stroke-width: 0.8"/>
     </g>
     <g id="line2d_16">
      <g>
       <use xlink:href="#m3d27035b55" x="552.958167" y="361.438125" style="stroke: #000000; stroke-width: 0.8"/>
      </g>
     </g>
     <g id="text_8">
      <text style="font-size: 10px; font-family: 'DejaVu Sans', 'Bitstream Vera Sans', 'Computer Modern Sans Serif', 'Lucida Grande', 'Verdana', 'Geneva', 'Lucid', 'Arial', 'Helvetica', 'Avant Garde', sans-serif; text-anchor: middle" x="552.958167" y="376.035781" transform="rotate(-0 552.958167 376.035781)">0,14</text>
     </g>
    </g>
    <g id="text_9">
     <text style="font-size: 10px; font-family: 'DejaVu Sans', 'Bitstream Vera Sans', 'Computer Modern Sans Serif', 'Lucida Grande', 'Verdana', 'Geneva', 'Lucid', 'Arial', 'Helvetica', 'Avant Garde', sans-serif; text-anchor: middle" x="333.074219" y="390.036563" transform="rotate(-0 333.074219 390.036563)">Tiempo [s]</text>
    </g>
   </g>
   <g id="matplotlib.axis_2">
    <g id="ytick_1">
     <g id="line2d_17">
      <path d="M 54.074219 346.31819 
L 612.074219 346.31819 
" clip-path="url(#pa32c376272)" style="fill: none; stroke-dasharray: 2.96,1.28; stroke-dashoffset: 0; stroke: #b0b0b0; stroke-opacity: 0.5; stroke-width: 0.8"/>
     </g>
     <g id="line2d_18">
      <defs>
       <path id="mef640d9f3a" d="M 0 0 
L -3.5 0 
" style="stroke: #000000; stroke-width: 0.8"/>
      </defs>
      <g>
       <use xlink:href="#mef640d9f3a" x="54.074219" y="346.31819" style="stroke: #000000; stroke-width: 0.8"/>
      </g>
     </g>
     <g id="text_10">
      <text style="font-size: 10px; font-family: 'DejaVu Sans', 'Bitstream Vera Sans', 'Computer Modern Sans Serif', 'Lucida Grande', 'Verdana', 'Geneva', 'Lucid', 'Arial', 'Helvetica', 'Avant Garde', sans-serif; text-anchor: end" x="47.074219" y="350.117018" transform="rotate(-0 47.074219 350.117018)">-1</text>
     </g>
    </g>
    <g id="ytick_2">
     <g id="line2d_19">
      <path d="M 54.074219 308.479751 
L 612.074219 308.479751 
" clip-path="url(#pa32c376272)" style="fill: none; stroke-dasharray: 2.96,1.28; stroke-dashoffset: 0; stroke: #b0b0b0; stroke-opacity: 0.5; stroke-width: 0.8"/>
     </g>
     <g id="line2d_20">
      <g>
       <use xlink:href="#mef640d9f3a" x="54.074219" y="308.479751" style="stroke: #000000; stroke-width: 0.8"/>
      </g>
     </g>
     <g id="text_11">
      <text style="font-size: 10px; font-family: 'DejaVu Sans', 'Bitstream Vera Sans', 'Computer Modern Sans Serif', 'Lucida Grande', 'Verdana', 'Geneva', 'Lucid', 'Arial', 'Helvetica', 'Avant Garde', sans-serif; text-anchor: end" x="47.074219" y="312.278579" transform="rotate(-0 47.074219 312.278579)">-0,75</text>
     </g>
    </g>
    <g id="ytick_3">
     <g id="line2d_21">
      <path d="M 54.074219 270.641312 
L 612.074219 270.641312 
" clip-path="url(#pa32c376272)" style="fill: none; stroke-dasharray: 2.96,1.28; stroke-dashoffset: 0; stroke: #b0b0b0; stroke-opacity: 0.5; stroke-width: 0.8"/>
     </g>
     <g id="line2d_22">
      <g>
       <use xlink:href="#mef640d9f3a" x="54.074219" y="270.641312" style="stroke: #000000; stroke-width: 0.8"/>
      </g>
     </g>
     <g id="text_12">
      <text style="font-size: 10px; font-family: 'DejaVu Sans', 'Bitstream Vera Sans', 'Computer Modern Sans Serif', 'Lucida Grande', 'Verdana', 'Geneva', 'Lucid', 'Arial', 'Helvetica', 'Avant Garde', sans-serif; text-anchor: end" x="47.074219" y="274.44014" transform="rotate(-0 47.074219 274.44014)">-0,5</text>
     </g>
    </g>
    <g id="ytick_4">
     <g id="line2d_23">
      <path d="M 54.074219 232.802873 
L 612.074219 232.802873 
" clip-path="url(#pa32c376272)" style="fill: none; stroke-dasharray: 2.96,1.28; stroke-dashoffset: 0; stroke: #b0b0b0; stroke-opacity: 0.5; stroke-width: 0.8"/>
     </g>
     <g id="line2d_24">
      <g>
       <use xlink:href="#mef640d9f3a" x="54.074219" y="232.802873" style="stroke: #000000; stroke-width: 0.8"/>
      </g>
     </g>
     <g id="text_13">
      <text style="font-size: 10px; font-family: 'DejaVu Sans', 'Bitstream Vera Sans', 'Computer Modern Sans Serif', 'Lucida Grande', 'Verdana', 'Geneva', 'Lucid', 'Arial', 'Helvetica', 'Avant Garde', sans-serif; text-anchor: end" x="47.074219" y="236.601701" transform="rotate(-0 47.074219 236.601701)">-0,25</text>
     </g>
    </g>
    <g id="ytick_5">
     <g id="line2d_25">
      <path d="M 54.074219 194.964435 
L 612.074219 194.964435 
" clip-path="url(#pa32c376272)" style="fill: none; stroke-dasharray: 2.96,1.28; stroke-dashoffset: 0; stroke: #b0b0b0; stroke-opacity: 0.5; stroke-width: 0.8"/>
     </g>
     <g id="line2d_26">
      <g>
       <use xlink:href="#mef640d9f3a" x="54.074219" y="194.964435" style="stroke: #000000; stroke-width: 0.8"/>
      </g>
     </g>
     <g id="text_14">
      <text style="font-size: 10px; font-family: 'DejaVu Sans', 'Bitstream Vera Sans', 'Computer Modern Sans Serif', 'Lucida Grande', 'Verdana', 'Geneva', 'Lucid', 'Arial', 'Helvetica', 'Avant Garde', sans-serif; text-anchor: end" x="47.074219" y="198.763263" transform="rotate(-0 47.074219 198.763263)">0</text>
     </g>
    </g>
    <g id="ytick_6">
     <g id="line2d_27">
      <path d="M 54.074219 157.125996 
L 612.074219 157.125996 
" clip-path="url(#pa32c376272)" style="fill: none; stroke-dasharray: 2.96,1.28; stroke-dashoffset: 0; stroke: #b0b0b0; stroke-opacity: 0.5; stroke-width: 0.8"/>
     </g>
     <g id="line2d_28">
      <g>
       <use xlink:href="#mef640d9f3a" x="54.074219" y="157.125996" style="stroke: #000000; stroke-width: 0.8"/>
      </g>
     </g>
     <g id="text_15">
      <text style="font-size: 10px; font-family: 'DejaVu Sans', 'Bitstream Vera Sans', 'Computer Modern Sans Serif', 'Lucida Grande', 'Verdana', 'Geneva', 'Lucid', 'Arial', 'Helvetica', 'Avant Garde', sans-serif; text-anchor: end" x="47.074219" y="160.924824" transform="rotate(-0 47.074219 160.924824)">0,25</text>
     </g>
    </g>
    <g id="ytick_7">
     <g id="line2d_29">
      <path d="M 54.074219 119.287557 
L 612.074219 119.287557 
" clip-path="url(#pa32c376272)" style="fill: none; stroke-dasharray: 2.96,1.28; stroke-dashoffset: 0; stroke: #b0b0b0; stroke-opacity: 0.5; stroke-width: 0.8"/>
     </g>
     <g id="line2d_30">
      <g>
       <use xlink:href="#mef640d9f3a" x="54.074219" y="119.287557" style="stroke: #000000; stroke-width: 0.8"/>
      </g>
     </g>
     <g id="text_16">
      <text style="font-size: 10px; font-family: 'DejaVu Sans', 'Bitstream Vera Sans', 'Computer Modern Sans Serif', 'Lucida Grande', 'Verdana', 'Geneva', 'Lucid', 'Arial', 'Helvetica', 'Avant Garde', sans-serif; text-anchor: end" x="47.074219" y="123.086385" transform="rotate(-0 47.074219 123.086385)">0,5</text>
     </g>
    </g>
    <g id="ytick_8">
     <g id="line2d_31">
      <path d="M 54.074219 81.449118 
L 612.074219 81.449118 
" clip-path="url(#pa32c376272)" style="fill: none; stroke-dasharray: 2.96,1.28; stroke-dashoffset: 0; stroke: #b0b0b0; stroke-opacity: 0.5; stroke-width: 0.8"/>
     </g>
     <g id="line2d_32">
      <g>
       <use xlink:href="#mef640d9f3a" x="54.074219" y="81.449118" style="stroke: #000000; stroke-width: 0.8"/>
      </g>
     </g>
     <g id="text_17">
      <text style="font-size: 10px; font-family: 'DejaVu Sans', 'Bitstream Vera Sans', 'Computer Modern Sans Serif', 'Lucida Grande', 'Verdana', 'Geneva', 'Lucid', 'Arial', 'Helvetica', 'Avant Garde', sans-serif; text-anchor: end" x="47.074219" y="85.247946" transform="rotate(-0 47.074219 85.247946)">0,75</text>
     </g>
    </g>
    <g id="ytick_9">
     <g id="line2d_33">
      <path d="M 54.074219 43.610679 
L 612.074219 43.610679 
" clip-path="url(#pa32c376272)" style="fill: none; stroke-dasharray: 2.96,1.28; stroke-dashoffset: 0; stroke: #b0b0b0; stroke-opacity: 0.5; stroke-width: 0.8"/>
     </g>
     <g id="line2d_34">
      <g>
       <use xlink:href="#mef640d9f3a" x="54.074219" y="43.610679" style="stroke: #000000; stroke-width: 0.8"/>
      </g>
     </g>
     <g id="text_18">
      <text style="font-size: 10px; font-family: 'DejaVu Sans', 'Bitstream Vera Sans', 'Computer Modern Sans Serif', 'Lucida Grande', 'Verdana', 'Geneva', 'Lucid', 'Arial', 'Helvetica', 'Avant Garde', sans-serif; text-anchor: end" x="47.074219" y="47.409507" transform="rotate(-0 47.074219 47.409507)">1</text>
     </g>
    </g>
    <g id="text_19">
     <text style="font-size: 10px; font-family: 'DejaVu Sans', 'Bitstream Vera Sans', 'Computer Modern Sans Serif', 'Lucida Grande', 'Verdana', 'Geneva', 'Lucid', 'Arial', 'Helvetica', 'Avant Garde', sans-serif; text-anchor: middle" x="14.798438" y="195.118125" transform="rotate(-90 14.798438 195.118125)">Amplitud</text>
    </g>
   </g>
   <g id="line2d_35">
    <path d="M 79.437855 194.964435 
L 250.243396 195.070116 
L 251.44129 195.388944 
L 253.273363 195.909096 
L 253.978006 195.857783 
L 254.612185 195.578892 
L 255.246364 195.040684 
L 255.951007 194.138974 
L 256.937508 192.472107 
L 258.417259 189.976902 
L 258.980973 189.397966 
L 259.403759 189.21406 
L 259.756081 189.260543 
L 260.108403 189.510632 
L 260.531189 190.099724 
L 261.024439 191.199357 
L 261.658618 193.246968 
L 262.433726 196.569223 
L 265.040906 208.472766 
L 265.534156 209.538031 
L 265.886478 209.844359 
L 266.168335 209.784786 
L 266.450193 209.437304 
L 266.802514 208.582736 
L 267.2253 206.932307 
L 267.789015 203.701437 
L 268.493658 198.198433 
L 269.550623 187.923912 
L 271.030374 173.809417 
L 271.664553 169.610277 
L 272.157804 167.671651 
L 272.439661 167.179092 
L 272.651054 167.127285 
L 272.862447 167.358468 
L 273.144304 168.118076 
L 273.496626 169.802225 
L 273.989876 173.513493 
L 274.624055 180.440466 
L 275.469627 192.687115 
L 278.006343 231.734774 
L 278.570058 236.56469 
L 278.992844 238.45195 
L 279.204237 238.779078 
L 279.345165 238.758721 
L 279.556558 238.363016 
L 279.838416 237.144728 
L 280.190737 234.509974 
L 280.683988 228.801883 
L 281.318167 218.307931 
L 282.163739 200.038219 
L 284.559526 145.503305 
L 285.123241 137.748076 
L 285.546027 134.302375 
L 285.827884 133.263445 
L 285.968813 133.139723 
L 286.109741 133.285376 
L 286.321134 134.014527 
L 286.602992 135.944742 
L 287.025778 140.870222 
L 287.519028 149.550686 
L 288.153207 164.797314 
L 289.069243 192.648749 
L 291.042245 253.961391 
L 291.676424 267.123549 
L 292.169674 273.393396 
L 292.521996 275.444533 
L 292.733389 275.647402 
L 292.874317 275.344966 
L 293.08571 274.229626 
L 293.367568 271.508769 
L 293.790354 264.83609 
L 294.354068 251.409652 
L 295.058712 228.475709 
L 296.186141 183.127055 
L 297.595428 128.105636 
L 298.300071 108.447315 
L 298.793321 99.723346 
L 299.145643 96.434215 
L 299.357036 95.710368 
L 299.497964 95.760939 
L 299.638893 96.241789 
L 299.850286 97.771772 
L 300.202608 102.461913 
L 300.625394 111.510266 
L 301.189108 128.895974 
L 301.964216 160.842883 
L 304.923718 293.321121 
L 305.487433 305.984671 
L 305.839754 310.187367 
L 306.121612 311.35266 
L 306.192076 311.332158 
L 306.333005 310.914146 
L 306.544398 309.343707 
L 306.826255 305.500685 
L 307.249041 296.092191 
L 307.812756 277.251738 
L 308.517399 245.297643 
L 309.715293 178.703765 
L 311.054115 107.881495 
L 311.758758 81.355909 
L 312.252009 69.589051 
L 312.60433 65.106592 
L 312.815723 64.069956 
L 312.956652 64.080476 
L 313.097581 64.655284 
L 313.308974 66.574435 
L 313.661295 72.556516 
L 314.084081 84.152918 
L 314.647796 106.422387 
L 315.422904 147.18439 
L 318.311941 311.573645 
L 318.875656 328.536033 
L 319.298442 335.400896 
L 319.580299 336.997529 
L 319.650763 337.016499 
L 319.791692 336.596067 
L 320.003085 334.821125 
L 320.284942 330.340571 
L 320.707728 319.238306 
L 321.271443 296.92047 
L 321.976086 259.098908 
L 323.244444 175.860797 
L 324.512802 97.6751 
L 325.217446 66.66299 
L 325.710696 52.823408 
L 326.063018 47.438839 
L 326.344875 45.965587 
L 326.415339 45.99658 
L 326.556268 46.538839 
L 326.767661 48.548744 
L 327.119983 55.039005 
L 327.542769 67.787977 
L 328.106483 92.379546 
L 328.881591 137.394795 
L 331.770629 317.919639 
L 332.334343 336.590531 
L 332.757129 344.291422 
L 333.038987 346.237088 
L 333.109451 346.318125 
L 333.179915 346.23657 
L 333.320844 345.586216 
L 333.532237 343.399215 
L 333.884559 336.585187 
L 334.307345 323.426883 
L 334.871059 298.313365 
L 335.646167 252.75278 
L 338.394276 79.106377 
L 338.95799 58.7436 
L 339.380776 49.580044 
L 339.662634 46.586411 
L 339.874027 46.014898 
L 340.014955 46.433727 
L 340.226348 48.255064 
L 340.508206 52.874912 
L 340.930992 64.308022 
L 341.494706 87.180023 
L 342.269814 129.958478 
L 345.29978 311.749398 
L 345.863495 328.764516 
L 346.286281 335.472928 
L 346.568138 336.921483 
L 346.638603 336.902008 
L 346.779531 336.406113 
L 346.990924 334.52825 
L 347.343246 328.441304 
L 347.766032 316.509248 
L 348.329747 293.613073 
L 349.104854 252.047115 
L 351.852963 94.476679 
L 352.416678 76.017489 
L 352.839464 67.622666 
L 353.191786 64.431237 
L 353.332714 64.140039 
L 353.473643 64.411722 
L 353.685036 65.866335 
L 353.966893 69.723047 
L 354.389679 79.42987 
L 354.953394 98.970373 
L 355.728502 135.533775 
L 358.688003 287.39432 
L 359.251718 302.692419 
L 359.674504 309.182609 
L 359.956361 311.0203 
L 360.09729 311.185634 
L 360.238219 310.850749 
L 360.449612 309.420525 
L 360.731469 305.820869 
L 361.154255 296.978284 
L 361.71797 279.445121 
L 362.493077 247.027102 
L 365.311651 119.625179 
L 365.875365 105.236982 
L 366.298151 98.675903 
L 366.650473 96.133742 
L 366.791402 95.869822 
L 366.93233 96.034107 
L 367.143723 97.074314 
L 367.425581 99.908017 
L 367.848367 107.09766 
L 368.412081 121.57773 
L 369.187189 148.554395 
L 372.076227 256.872541 
L 372.639941 268.380423 
L 373.062727 273.492265 
L 373.344585 275.149963 
L 373.555978 275.469583 
L 373.696906 275.246712 
L 373.908299 274.269343 
L 374.190157 271.800137 
L 374.612943 265.746047 
L 375.176657 253.808181 
L 375.951765 231.935806 
L 378.629409 151.161476 
L 379.263588 140.049742 
L 379.756839 135.028039 
L 380.10916 133.477907 
L 380.250089 133.333738 
L 380.391018 133.458104 
L 380.602411 134.139367 
L 380.884268 135.942024 
L 381.307054 140.440141 
L 381.870769 149.367476 
L 382.645876 165.727788 
L 385.253057 224.432869 
L 385.887236 232.965772 
L 386.380486 236.976732 
L 386.732808 238.367918 
L 386.944201 238.614425 
L 387.085129 238.537946 
L 387.296522 238.07054 
L 387.57838 236.81316 
L 388.001166 233.66527 
L 388.56488 227.434165 
L 389.339988 216.0977 
L 391.80624 177.96751 
L 392.440419 171.853353 
L 392.933669 168.832535 
L 393.356455 167.507309 
L 393.638312 167.265705 
L 393.849705 167.410621 
L 394.131563 168.019049 
L 394.483884 169.401571 
L 394.977135 172.357574 
L 395.681778 178.172824 
L 398.711744 205.38465 
L 399.275459 208.011624 
L 399.768709 209.327762 
L 400.121031 209.711235 
L 400.402888 209.699138 
L 400.684745 209.42134 
L 401.037067 208.732825 
L 401.530317 207.221609 
L 402.234961 204.243418 
L 404.912605 192.056598 
L 405.546784 190.420832 
L 406.040035 189.650477 
L 406.462821 189.331041 
L 406.885607 189.301244 
L 407.308393 189.525128 
L 407.872107 190.140317 
L 408.647215 191.372217 
L 410.620216 194.634243 
L 411.395324 195.418843 
L 412.029503 195.771496 
L 412.663682 195.890099 
L 413.43879 195.797516 
L 414.989005 195.300647 
L 416.257363 195.021464 
L 417.66665 194.964435 
L 586.710582 194.964435 
L 586.710582 194.964435 
" clip-path="url(#pa32c376272)" style="fill: none; stroke: #808080; stroke-opacity: 0.5; stroke-linecap: square"/>
   </g>
   <g id="line2d_36">
    <path d="M 79.437855 194.964456 
L 261.799547 195.073325 
L 265.745549 195.338013 
L 266.591121 195.189027 
L 267.648086 194.796455 
L 269.33923 193.875065 
L 270.46666 193.377262 
L 271.241767 193.257762 
L 271.946411 193.374964 
L 272.651054 193.741732 
L 273.355697 194.367802 
L 274.060341 195.280851 
L 275.258234 197.257824 
L 276.597057 199.366522 
L 277.231236 199.988483 
L 277.654022 200.153121 
L 278.076807 200.084735 
L 278.499593 199.763364 
L 278.992844 199.05275 
L 279.556558 197.802086 
L 280.261202 195.647896 
L 281.318167 191.558157 
L 282.868382 185.495875 
L 283.502561 183.814766 
L 283.925347 183.161949 
L 284.277669 182.963161 
L 284.559526 183.053747 
L 284.841383 183.380164 
L 285.193705 184.159953 
L 285.686955 185.922526 
L 286.25067 188.842994 
L 287.025778 194.192373 
L 289.914815 215.774011 
L 290.408066 217.423266 
L 290.760387 217.899952 
L 290.97178 217.880734 
L 291.183173 217.622812 
L 291.465031 216.8987 
L 291.817352 215.375489 
L 292.310603 212.105433 
L 292.874317 206.803191 
L 293.649425 197.281523 
L 296.32707 162.134258 
L 296.82032 158.719778 
L 297.172642 157.387647 
L 297.454499 157.050695 
L 297.595428 157.135753 
L 297.806821 157.587463 
L 298.088678 158.801534 
L 298.511464 161.929838 
L 299.004714 167.488082 
L 299.638893 177.328391 
L 300.554929 195.538244 
L 302.598395 237.537116 
L 303.232574 245.922126 
L 303.65536 249.277142 
L 303.937217 250.384237 
L 304.14861 250.573598 
L 304.289539 250.392105 
L 304.500932 249.652049 
L 304.782789 247.787953 
L 305.205575 243.134621 
L 305.698826 235.028924 
L 306.403469 219.11493 
L 307.460434 188.908433 
L 309.081114 142.712899 
L 309.785757 128.778476 
L 310.279007 122.827233 
L 310.631329 120.800059 
L 310.842722 120.529275 
L 310.983651 120.752495 
L 311.195044 121.699057 
L 311.476901 124.104666 
L 311.899687 130.166142 
L 312.392937 140.719511 
L 313.097581 161.38114 
L 314.154546 200.439688 
L 315.704761 257.450322 
L 316.409404 275.966382 
L 316.902655 284.241251 
L 317.254976 287.406593 
L 317.466369 288.137896 
L 317.607298 288.126609 
L 317.748227 287.712412 
L 317.95962 286.333196 
L 318.311941 282.026017 
L 318.734727 273.640501 
L 319.298442 257.415159 
L 320.073549 227.344668 
L 321.694229 151.87437 
L 322.68073 112.190665 
L 323.314909 94.530803 
L 323.808159 86.476882 
L 324.090016 84.360506 
L 324.301409 84.011049 
L 324.442338 84.375677 
L 324.653731 85.822092 
L 324.935588 89.41952 
L 325.358374 98.296367 
L 325.922089 116.156736 
L 326.626732 146.552644 
L 327.754162 206.440339 
L 329.163448 278.680258 
L 329.868092 304.453083 
L 330.361342 315.969367 
L 330.713664 320.408464 
L 330.925057 321.468727 
L 331.065985 321.496505 
L 331.206914 320.977666 
L 331.418307 319.174752 
L 331.770629 313.468615 
L 332.193415 302.328145 
L 332.757129 280.847814 
L 333.532237 241.416803 
L 336.491739 78.758979 
L 337.055454 63.076779 
L 337.407775 57.73137 
L 337.689633 56.080505 
L 337.760097 56.039507 
L 337.901026 56.406143 
L 338.112418 58.077092 
L 338.394276 62.396323 
L 338.817062 73.194753 
L 339.380776 95.002291 
L 340.08542 132.072236 
L 341.283313 209.176214 
L 342.622136 290.867764 
L 343.326779 321.519858 
L 343.820029 335.254051 
L 344.172351 340.636064 
L 344.454208 342.148351 
L 344.524673 342.132492 
L 344.665601 341.62662 
L 344.876994 339.685768 
L 345.158852 334.918828 
L 345.581638 323.265648 
L 346.145352 300.008848 
L 346.849996 260.814295 
L 348.188818 170.325569 
L 349.386712 95.530773 
L 350.091355 64.284219 
L 350.584605 50.499003 
L 350.936927 45.243614 
L 351.14832 44.006998 
L 351.218784 43.918125 
L 351.289249 43.991272 
L 351.430177 44.623244 
L 351.64157 46.779349 
L 351.993892 53.535766 
L 352.416678 66.621514 
L 352.980393 91.648308 
L 353.7555 137.164155 
L 356.574074 314.788688 
L 357.137788 334.267782 
L 357.560574 342.619591 
L 357.842432 345.026239 
L 357.98336 345.264191 
L 358.124289 344.857091 
L 358.335682 343.042988 
L 358.617539 338.412249 
L 359.040325 326.915895 
L 359.60404 303.86773 
L 360.308683 265.031574 
L 361.647505 175.619626 
L 362.845399 101.80427 
L 363.550042 70.838234 
L 364.043293 57.031801 
L 364.395614 51.619679 
L 364.677472 50.069501 
L 364.747936 50.071555 
L 364.888865 50.546888 
L 365.100258 52.425499 
L 365.382115 57.054429 
L 365.804901 68.348009 
L 366.368616 90.735651 
L 367.143723 132.302743 
L 370.103225 303.875256 
L 370.66694 320.962045 
L 371.089726 328.049445 
L 371.371583 329.90252 
L 371.512512 329.957447 
L 371.653441 329.432772 
L 371.864834 327.569021 
L 372.217155 321.66068 
L 372.639941 310.194385 
L 373.203656 288.328889 
L 373.978764 248.868512 
L 376.656408 103.862662 
L 377.290587 84.256118 
L 377.713373 76.613022 
L 378.065695 73.782466 
L 378.206624 73.564302 
L 378.347552 73.867318 
L 378.558945 75.289972 
L 378.840802 78.956216 
L 379.263588 88.06477 
L 379.827303 106.255365 
L 380.602411 140.066829 
L 383.491448 276.686334 
L 384.055163 291.213607 
L 384.477949 297.587942 
L 384.759806 299.593597 
L 384.971199 299.908571 
L 385.112128 299.555453 
L 385.323521 298.192678 
L 385.675843 293.763779 
L 386.098629 285.105775 
L 386.662343 268.586785 
L 387.507915 235.876557 
L 389.974167 134.886025 
L 390.608346 118.846718 
L 391.101596 111.247345 
L 391.453918 108.619849 
L 391.665311 108.194337 
L 391.80624 108.379398 
L 392.017633 109.349502 
L 392.29949 111.90106 
L 392.722276 118.271843 
L 393.285991 130.970861 
L 394.061098 154.429475 
L 396.809207 244.026451 
L 397.443386 255.874277 
L 397.936637 261.139995 
L 398.218494 262.517512 
L 398.429887 262.769061 
L 398.570815 262.568696 
L 398.782208 261.726412 
L 399.064066 259.623721 
L 399.486852 254.496291 
L 400.050566 244.456273 
L 400.825674 226.196381 
L 403.36239 162.476391 
L 403.996569 152.664986 
L 404.489819 147.894589 
L 404.842141 146.113662 
L 405.053534 145.700442 
L 405.194463 145.695028 
L 405.405856 146.084578 
L 405.687713 147.323572 
L 406.040035 149.9633 
L 406.533285 155.480921 
L 407.237928 166.277121 
L 408.576751 191.449141 
L 409.70418 211.027772 
L 410.408823 220.04028 
L 410.972538 224.759583 
L 411.395324 226.762662 
L 411.677181 227.362254 
L 411.888574 227.432671 
L 412.099967 227.187249 
L 412.381825 226.38899 
L 412.804611 224.25582 
L 413.368325 219.905042 
L 414.143433 211.870419 
L 416.680149 183.993837 
L 417.314328 179.713641 
L 417.807578 177.606317 
L 418.230364 176.686321 
L 418.512222 176.521603 
L 418.723614 176.614645 
L 419.005472 177.010941 
L 419.357793 177.908285 
L 419.851044 179.810598 
L 420.555687 183.503133 
L 423.303796 199.06502 
L 423.937975 201.187308 
L 424.50169 202.346477 
L 424.924476 202.768321 
L 425.276797 202.844454 
L 425.629119 202.69318 
L 426.051905 202.240451 
L 426.61562 201.292372 
L 427.60212 199.106138 
L 429.011407 196.040443 
L 429.786515 194.853188 
L 430.491158 194.17557 
L 431.195801 193.815569 
L 431.900445 193.710522 
L 432.816481 193.813088 
L 434.859947 194.107674 
L 435.916912 193.980735 
L 438.876413 193.415271 
L 439.651521 193.620608 
L 440.567557 194.110216 
L 441.976844 195.172661 
L 443.386131 196.125251 
L 444.302167 196.483156 
L 445.147739 196.58409 
L 445.993311 196.452632 
L 446.979812 196.051288 
L 450.080242 194.603621 
L 451.137207 194.461827 
L 452.616958 194.515036 
L 455.57646 194.626273 
L 459.240605 194.597756 
L 460.720356 194.887065 
L 463.750323 195.56767 
L 465.018681 195.565209 
L 466.568896 195.321022 
L 469.739791 194.761851 
L 471.501399 194.74292 
L 475.870188 194.80706 
L 478.759226 194.816284 
L 481.295941 195.108501 
L 483.480336 195.26879 
L 485.382873 195.163772 
L 489.610733 194.831914 
L 499.475739 194.970385 
L 503.210349 195.113381 
L 506.874494 194.920295 
L 509.763532 194.90732 
L 514.977892 194.928783 
L 518.853431 194.973596 
L 523.151755 195.024759 
L 529.704938 194.951098 
L 535.201156 194.938356 
L 557.326956 194.967729 
L 564.725711 194.9485 
L 586.710582 194.960749 
L 586.710582 194.960749 
" clip-path="url(#pa32c376272)" style="fill: none; stroke: #1f77b4; stroke-width: 1.3; stroke-linecap: square"/>
   </g>
   <g id="line2d_37">
    <path d="M 79.437855 194.963312 
L 182.386244 194.919842 
L 187.177819 195.014631 
L 191.194286 195.002942 
L 199.579541 194.90411 
L 203.666473 194.929258 
L 209.303619 195.086235 
L 220.789305 194.79792 
L 223.185093 194.958448 
L 226.919702 195.234707 
L 229.174561 195.147324 
L 233.050099 194.946846 
L 235.586815 194.82026 
L 239.955604 194.509518 
L 241.435355 194.684922 
L 243.267427 195.163428 
L 244.958571 195.496299 
L 246.156465 195.497578 
L 249.256896 195.326961 
L 250.595718 195.575652 
L 253.06197 196.11666 
L 253.837077 195.989847 
L 254.471256 195.669422 
L 255.105435 195.057624 
L 255.880543 193.972377 
L 257.007972 191.940117 
L 258.27633 189.767614 
L 258.910509 189.120325 
L 259.333295 188.957819 
L 259.685617 189.020023 
L 260.108403 189.357105 
L 260.531189 189.997617 
L 261.094903 191.331138 
L 261.729082 193.45093 
L 262.574654 197.153834 
L 264.899977 207.958474 
L 265.463692 209.375737 
L 265.816014 209.79381 
L 266.097871 209.818918 
L 266.379728 209.554954 
L 266.73205 208.807129 
L 267.154836 207.285581 
L 267.718551 204.223308 
L 268.423194 198.918238 
L 269.480159 188.886962 
L 271.100839 173.609718 
L 271.735018 169.583549 
L 272.157804 167.963872 
L 272.510125 167.378237 
L 272.721518 167.386815 
L 272.932911 167.676814 
L 273.214769 168.511675 
L 273.56709 170.291189 
L 274.060341 174.172933 
L 274.69452 181.303973 
L 275.540092 193.74669 
L 277.865414 229.979364 
L 278.429129 235.379694 
L 278.851915 237.775365 
L 279.133772 238.485998 
L 279.345165 238.526741 
L 279.556558 238.133764 
L 279.838416 236.925253 
L 280.190737 234.313692 
L 280.683988 228.659406 
L 281.318167 218.235838 
L 282.163739 199.976314 
L 284.559526 145.448952 
L 285.123241 137.735405 
L 285.546027 134.334777 
L 285.827884 133.330742 
L 285.968813 133.225339 
L 286.109741 133.389568 
L 286.321134 134.146481 
L 286.602992 136.111988 
L 287.025778 141.081755 
L 287.519028 149.791331 
L 288.223671 166.955901 
L 289.210172 197.446514 
L 290.97178 252.295673 
L 291.676424 267.203232 
L 292.169674 273.458972 
L 292.521996 275.498514 
L 292.662924 275.707386 
L 292.803853 275.566103 
L 293.015246 274.692046 
L 293.297103 272.288604 
L 293.719889 266.072847 
L 294.21314 255.074067 
L 294.847319 235.766226 
L 295.833819 197.713984 
L 297.665892 125.769053 
L 298.370535 106.908089 
L 298.863785 98.849952 
L 299.216107 96.068346 
L 299.4275 95.655379 
L 299.568429 95.914074 
L 299.779822 97.108504 
L 300.061679 100.202913 
L 300.484465 108.03489 
L 300.977715 121.683141 
L 301.682359 148.35861 
L 302.739324 198.591615 
L 304.289539 271.586128 
L 304.994182 295.300054 
L 305.487433 305.993055 
L 305.839754 310.191279 
L 306.121612 311.357953 
L 306.192076 311.338605 
L 306.333005 310.923952 
L 306.544398 309.361302 
L 306.826255 305.533997 
L 307.249041 296.160277 
L 307.812756 277.374462 
L 308.517399 245.401881 
L 309.715293 178.712317 
L 311.054115 107.789574 
L 311.758758 81.260413 
L 312.252009 69.507895 
L 312.60433 65.040738 
L 312.815723 64.014302 
L 312.956652 64.031705 
L 313.097581 64.613254 
L 313.308974 66.541849 
L 313.661295 72.536339 
L 314.084081 84.138797 
L 314.647796 106.395527 
L 315.422904 147.105197 
L 318.311941 311.671171 
L 318.875656 328.661577 
L 319.298442 335.527201 
L 319.580299 337.10856 
L 319.650763 337.122986 
L 319.791692 336.692695 
L 320.003085 334.901291 
L 320.284942 330.396502 
L 320.707728 319.256073 
L 321.271443 296.893005 
L 321.976086 259.043058 
L 323.244444 175.857397 
L 324.512802 97.680319 
L 325.217446 66.644394 
L 325.710696 52.780929 
L 326.063018 47.378203 
L 326.344875 45.89093 
L 326.415339 45.918587 
L 326.556268 46.454451 
L 326.767661 48.455618 
L 327.119983 54.960166 
L 327.542769 67.734685 
L 328.106483 92.36953 
L 328.881591 137.442802 
L 331.770629 317.885263 
L 332.334343 336.550445 
L 332.757129 344.260376 
L 333.038987 346.217676 
L 333.109451 346.302237 
L 333.179915 346.22443 
L 333.320844 345.582199 
L 333.532237 343.408755 
L 333.884559 336.620073 
L 334.307345 323.494407 
L 334.871059 298.391144 
L 335.646167 252.805087 
L 338.394276 79.068611 
L 338.95799 58.742505 
L 339.380776 49.595709 
L 339.662634 46.60739 
L 339.874027 46.036741 
L 340.014955 46.454692 
L 340.226348 48.272623 
L 340.508206 52.884308 
L 340.930992 64.298549 
L 341.494706 87.136838 
L 342.269814 129.868377 
L 344.031422 246.086694 
L 344.947459 296.93488 
L 345.581638 321.475555 
L 346.074888 332.892858 
L 346.42721 336.582036 
L 346.568138 336.992645 
L 346.638603 336.969004 
L 346.779531 336.465009 
L 346.990924 334.575703 
L 347.343246 328.472077 
L 347.766032 316.524777 
L 348.329747 293.617231 
L 349.104854 252.051071 
L 351.852963 94.423846 
L 352.416678 75.915722 
L 352.839464 67.493127 
L 353.191786 64.287703 
L 353.332714 63.993557 
L 353.473643 64.268182 
L 353.685036 65.735716 
L 353.966893 69.612503 
L 354.389679 79.3536 
L 354.953394 98.94213 
L 355.728502 135.562536 
L 358.688003 287.390956 
L 359.251718 302.711385 
L 359.674504 309.226535 
L 359.956361 311.081506 
L 360.09729 311.255067 
L 360.238219 310.927898 
L 360.449612 309.507963 
L 360.731469 305.918988 
L 361.154255 297.082921 
L 361.71797 279.537335 
L 362.493077 247.079055 
L 365.311651 119.648376 
L 365.875365 105.293155 
L 366.298151 98.732531 
L 366.650473 96.176716 
L 366.791402 95.904383 
L 366.93233 96.058871 
L 367.143723 97.082268 
L 367.425581 99.890816 
L 367.848367 107.040527 
L 368.412081 121.471774 
L 369.187189 148.384406 
L 372.076227 256.821016 
L 372.639941 268.33641 
L 373.062727 273.43336 
L 373.344585 275.089978 
L 373.555978 275.413596 
L 373.696906 275.195623 
L 373.908299 274.228765 
L 374.190157 271.778892 
L 374.612943 265.762734 
L 375.176657 253.88426 
L 375.951765 232.08835 
L 378.629409 151.337144 
L 379.263588 140.153682 
L 379.756839 135.083337 
L 380.10916 133.51133 
L 380.250089 133.368137 
L 380.391018 133.493362 
L 380.602411 134.175509 
L 380.884268 135.978195 
L 381.307054 140.472935 
L 381.870769 149.387999 
L 382.645876 165.717604 
L 385.253057 224.231258 
L 385.887236 232.773733 
L 386.380486 236.804897 
L 386.732808 238.211062 
L 386.944201 238.465287 
L 387.085129 238.393116 
L 387.296522 237.930656 
L 387.57838 236.676737 
L 388.001166 233.519545 
L 388.56488 227.269804 
L 389.339988 215.914579 
L 391.735775 178.788371 
L 392.440419 171.990425 
L 392.933669 169.036858 
L 393.285991 167.884673 
L 393.567848 167.534871 
L 393.779241 167.59787 
L 393.990634 167.930005 
L 394.342956 169.049196 
L 394.765742 171.238915 
L 395.399921 175.93861 
L 396.386421 185.335243 
L 398.007101 200.705085 
L 398.711744 205.496837 
L 399.275459 208.049214 
L 399.698245 209.163478 
L 400.050566 209.593776 
L 400.332424 209.625469 
L 400.614281 209.395749 
L 400.966603 208.770919 
L 401.459853 207.348986 
L 402.164496 204.479276 
L 405.053534 191.537558 
L 405.687713 189.984439 
L 406.180963 189.27465 
L 406.603749 189.003607 
L 406.956071 189.013626 
L 407.378857 189.255189 
L 407.942572 189.883688 
L 408.788144 191.249047 
L 410.761145 194.568823 
L 411.606717 195.468776 
L 412.31136 195.919637 
L 413.016004 196.112513 
L 413.791111 196.083489 
L 414.848076 195.790728 
L 416.53922 195.328721 
L 417.66665 195.270138 
L 419.005472 195.43181 
L 420.485223 195.526431 
L 421.824045 195.389596 
L 424.008439 194.892907 
L 426.051905 194.520887 
L 427.390727 194.480291 
L 429.363729 194.697342 
L 431.82998 194.899612 
L 436.973877 195.138652 
L 439.79245 195.231344 
L 441.90638 195.076619 
L 445.359132 194.805554 
L 448.74142 194.865442 
L 460.086177 195.063163 
L 465.864253 194.890457 
L 479.604797 194.999194 
L 485.523801 194.936462 
L 498.34831 194.98581 
L 507.156351 194.964502 
L 586.710582 194.963616 
L 586.710582 194.963616 
" clip-path="url(#pa32c376272)" style="fill: none; stroke-dasharray: 4.81,2.08; stroke-dashoffset: 0; stroke: #d62728; stroke-width: 1.3"/>
   </g>
   <g id="patch_3">
    <path d="M 54.074219 361.438125 
L 54.074219 28.798125 
" style="fill: none; stroke: #000000; stroke-width: 0.8; stroke-linejoin: miter; stroke-linecap: square"/>
   </g>
   <g id="patch_4">
    <path d="M 612.074219 361.438125 
L 612.074219 28.798125 
" style="fill: none; stroke: #000000; stroke-width: 0.8; stroke-linejoin: miter; stroke-linecap: square"/>
   </g>
   <g id="patch_5">
    <path d="M 54.074219 361.438125 
L 612.074219 361.438125 
" style="fill: none; stroke: #000000; stroke-width: 0.8; stroke-linejoin: miter; stroke-linecap: square"/>
   </g>
   <g id="patch_6">
    <path d="M 54.074219 28.798125 
L 612.074219 28.798125 
" style="fill: none; stroke: #000000; stroke-width: 0.8; stroke-linejoin: miter; stroke-linecap: square"/>
   </g>
   <g id="text_20">
    <text style="font-weight: 700; font-size: 12px; font-family: 'DejaVu Sans', 'Bitstream Vera Sans', 'Computer Modern Sans Serif', 'Lucida Grande', 'Verdana', 'Geneva', 'Lucid', 'Arial', 'Helvetica', 'Avant Garde', sans-serif; text-anchor: middle" x="333.074219" y="16.798125" transform="rotate(-0 333.074219 16.798125)">Filtrado de fase cero: eliminación del retardo de grupo (banda de 250 Hz)</text>
   </g>
   <g id="legend_1">
    <g id="patch_7">
     <path d="M 405.011719 82.200469 
L 605.074219 82.200469 
Q 607.074219 82.200469 607.074219 80.200469 
L 607.074219 35.798125 
Q 607.074219 33.798125 605.074219 33.798125 
L 405.011719 33.798125 
Q 403.011719 33.798125 403.011719 35.798125 
L 403.011719 80.200469 
Q 403.011719 82.200469 405.011719 82.200469 
z
" style="fill: #ffffff; opacity: 0.8; stroke: #cccccc; stroke-linejoin: miter"/>
    </g>
    <g id="line2d_38">
     <path d="M 407.011719 42.296563 
L 417.011719 42.296563 
L 427.011719 42.296563 
" style="fill: none; stroke: #808080; stroke-opacity: 0.5; stroke-linecap: square"/>
    </g>
    <g id="text_21">
     <text style="font-size: 10px; font-family: 'DejaVu Sans', 'Bitstream Vera Sans', 'Computer Modern Sans Serif', 'Lucida Grande', 'Verdana', 'Geneva', 'Lucid', 'Arial', 'Helvetica', 'Avant Garde', sans-serif; text-anchor: start" x="435.011719" y="45.796563" transform="rotate(-0 435.011719 45.796563)">Ráfaga de entrada (250 Hz)</text>
    </g>
    <g id="line2d_39">
     <path d="M 407.011719 57.297344 
L 417.011719 57.297344 
L 427.011719 57.297344 
" style="fill: none; stroke: #1f77b4; stroke-width: 1.3; stroke-linecap: square"/>
    </g>
    <g id="text_22">
     <text style="font-size: 10px; font-family: 'DejaVu Sans', 'Bitstream Vera Sans', 'Computer Modern Sans Serif', 'Lucida Grande', 'Verdana', 'Geneva', 'Lucid', 'Arial', 'Helvetica', 'Avant Garde', sans-serif; text-anchor: start" x="435.011719" y="60.797344" transform="rotate(-0 435.011719 60.797344)">Filtrado causal (retardo de grupo)</text>
    </g>
    <g id="line2d_40">
     <path d="M 407.011719 72.298125 
L 417.011719 72.298125 
L 427.011719 72.298125 
" style="fill: none; stroke-dasharray: 4.81,2.08; stroke-dashoffset: 0; stroke: #d62728; stroke-width: 1.3"/>
    </g>
    <g id="text_23">
     <text style="font-size: 10px; font-family: 'DejaVu Sans', 'Bitstream Vera Sans', 'Computer Modern Sans Serif', 'Lucida Grande', 'Verdana', 'Geneva', 'Lucid', 'Arial', 'Helvetica', 'Avant Garde', sans-serif; text-anchor: start" x="435.011719" y="75.798125" transform="rotate(-0 435.011719 75.798125)">zero_phase=True (alineado)</text>
    </g>
   </g>
  </g>
 </g>
 <defs>
  <clipPath id="pa32c376272">
   <rect x="54.074219" y="28.798125" width="558" height="332.64"/>
  </clipPath>
 </defs>
</svg>
