<?xml version="1.0" encoding="utf-8" standalone="no"?>
<!DOCTYPE svg PUBLIC "-//W3C//DTD SVG 1.1//EN"
  "http://www.w3.org/Graphics/SVG/1.1/DTD/svg11.dtd">
<svg xmlns:xlink="http://www.w3.org/1999/xlink" width="624.046094pt" height="399.158906pt" viewBox="0 0 624.046094 399.158906" xmlns="http://www.w3.org/2000/svg" version="1.1">
 <metadata>
  <rdf:RDF xmlns:dc="http://purl.org/dc/elements/1.1/" xmlns:cc="http://creativecommons.org/ns#" xmlns:rdf="http://www.w3.org/1999/02/22-rdf-syntax-ns#">
   <cc:Work>
    <dc:type rdf:resource="http://purl.org/dc/dcmitype/StillImage"/>
    <dc:format>image/svg+xml</dc:format>
    <dc:creator>
     <cc:Agent>
      <dc:title>Matplotlib v3.11.1, https://matplotlib.org/</dc:title>
     </cc:Agent>
    </dc:creator>
   </cc:Work>
  </rdf:RDF>
 </metadata>
 <defs>
  <style type="text/css">*{stroke-linejoin: round; stroke-linecap: butt}</style>
 </defs>
 <g id="figure_1">
  <g id="patch_1">
   <path d="M 0 399.158906 
L 624.046094 399.158906 
L 624.046094 0 
L 0 0 
z
" style="fill: #ffffff"/>
  </g>
  <g id="axes_1">
   <g id="patch_2">
    <path d="M 58.846094 360.958125 
L 616.846094 360.958125 
L 616.846094 28.318125 
L 58.846094 28.318125 
z
" style="fill: #ffffff"/>
   </g>
   <g id="matplotlib.axis_1">
    <g id="xtick_1">
     <g id="line2d_1">
      <path d="M 84.20973 360.958125 
L 84.20973 28.318125 
" clip-path="url(#p01b46f7caf)" style="fill: none; stroke-dasharray: 2.96,1.28; stroke-dashoffset: 0; stroke: #b0b0b0; stroke-opacity: 0.5; stroke-width: 0.8"/>
     </g>
     <g id="line2d_2">
      <defs>
       <path id="m3d27035b55" d="M 0 0 
L 0 3.5 
" style="stroke: #000000; stroke-width: 0.8"/>
      </defs>
      <g>
       <use xlink:href="#m3d27035b55" x="84.20973" y="360.958125" style="stroke: #000000; stroke-width: 0.8"/>
      </g>
     </g>
     <g id="text_1">
      <text style="font-size: 10px; font-family: 'DejaVu Sans', 'Bitstream Vera Sans', 'Computer Modern Sans Serif', 'Lucida Grande', 'Verdana', 'Geneva', 'Lucid', 'Arial', 'Helvetica', 'Avant Garde', sans-serif; text-anchor: middle" x="84.20973" y="375.555781" transform="rotate(-0 84.20973 375.555781)">0.00</text>
     </g>
    </g>
    <g id="xtick_2">
     <g id="line2d_3">
      <path d="M 151.855489 360.958125 
L 151.855489 28.318125 
" clip-path="url(#p01b46f7caf)" style="fill: none; stroke-dasharray: 2.96,1.28; stroke-dashoffset: 0; stroke: #b0b0b0; stroke-opacity: 0.5; stroke-width: 0.8"/>
     </g>
     <g id="line2d_4">
      <g>
       <use xlink:href="#m3d27035b55" x="151.855489" y="360.958125" style="stroke: #000000; stroke-width: 0.8"/>
      </g>
     </g>
     <g id="text_2">
      <text style="font-size: 10px; font-family: 'DejaVu Sans', 'Bitstream Vera Sans', 'Computer Modern Sans Serif', 'Lucida Grande', 'Verdana', 'Geneva', 'Lucid', 'Arial', 'Helvetica', 'Avant Garde', sans-serif; text-anchor: middle" x="151.855489" y="375.555781" transform="rotate(-0 151.855489 375.555781)">0.02</text>
     </g>
    </g>
    <g id="xtick_3">
     <g id="line2d_5">
      <path d="M 219.501248 360.958125 
L 219.501248 28.318125 
" clip-path="url(#p01b46f7caf)" style="fill: none; stroke-dasharray: 2.96,1.28; stroke-dashoffset: 0; stroke: #b0b0b0; stroke-opacity: 0.5; stroke-width: 0.8"/>
     </g>
     <g id="line2d_6">
      <g>
       <use xlink:href="#m3d27035b55" x="219.501248" y="360.958125" style="stroke: #000000; stroke-width: 0.8"/>
      </g>
     </g>
     <g id="text_3">
      <text style="font-size: 10px; font-family: 'DejaVu Sans', 'Bitstream Vera Sans', 'Computer Modern Sans Serif', 'Lucida Grande', 'Verdana', 'Geneva', 'Lucid', 'Arial', 'Helvetica', 'Avant Garde', sans-serif; text-anchor: middle" x="219.501248" y="375.555781" transform="rotate(-0 219.501248 375.555781)">0.04</text>
     </g>
    </g>
    <g id="xtick_4">
     <g id="line2d_7">
      <path d="M 287.147007 360.958125 
L 287.147007 28.318125 
" clip-path="url(#p01b46f7caf)" style="fill: none; stroke-dasharray: 2.96,1.28; stroke-dashoffset: 0; stroke: #b0b0b0; stroke-opacity: 0.5; stroke-width: 0.8"/>
     </g>
     <g id="line2d_8">
      <g>
       <use xlink:href="#m3d27035b55" x="287.147007" y="360.958125" style="stroke: #000000; stroke-width: 0.8"/>
      </g>
     </g>
     <g id="text_4">
      <text style="font-size: 10px; font-family: 'DejaVu Sans', 'Bitstream Vera Sans', 'Computer Modern Sans Serif', 'Lucida Grande', 'Verdana', 'Geneva', 'Lucid', 'Arial', 'Helvetica', 'Avant Garde', sans-serif; text-anchor: middle" x="287.147007" y="375.555781" transform="rotate(-0 287.147007 375.555781)">0.06</text>
     </g>
    </g>
    <g id="xtick_5">
     <g id="line2d_9">
      <path d="M 354.792766 360.958125 
L 354.792766 28.318125 
" clip-path="url(#p01b46f7caf)" style="fill: none; stroke-dasharray: 2.96,1.28; stroke-dashoffset: 0; stroke: #b0b0b0; stroke-opacity: 0.5; stroke-width: 0.8"/>
     </g>
     <g id="line2d_10">
      <g>
       <use xlink:href="#m3d27035b55" x="354.792766" y="360.958125" style="stroke: #000000; stroke-width: 0.8"/>
      </g>
     </g>
     <g id="text_5">
      <text style="font-size: 10px; font-family: 'DejaVu Sans', 'Bitstream Vera Sans', 'Computer Modern Sans Serif', 'Lucida Grande', 'Verdana', 'Geneva', 'Lucid', 'Arial', 'Helvetica', 'Avant Garde', sans-serif; text-anchor: middle" x="354.792766" y="375.555781" transform="rotate(-0 354.792766 375.555781)">0.08</text>
     </g>
    </g>
    <g id="xtick_6">
     <g id="line2d_11">
      <path d="M 422.438525 360.958125 
L 422.438525 28.318125 
" clip-path="url(#p01b46f7caf)" style="fill: none; stroke-dasharray: 2.96,1.28; stroke-dashoffset: 0; stroke: #b0b0b0; stroke-opacity: 0.5; stroke-width: 0.8"/>
     </g>
     <g id="line2d_12">
      <g>
       <use xlink:href="#m3d27035b55" x="422.438525" y="360.958125" style="stroke: #000000; stroke-width: 0.8"/>
      </g>
     </g>
     <g id="text_6">
      <text style="font-size: 10px; font-family: 'DejaVu Sans', 'Bitstream Vera Sans', 'Computer Modern Sans Serif', 'Lucida Grande', 'Verdana', 'Geneva', 'Lucid', 'Arial', 'Helvetica', 'Avant Garde', sans-serif; text-anchor: middle" x="422.438525" y="375.555781" transform="rotate(-0 422.438525 375.555781)">0.10</text>
     </g>
    </g>
    <g id="xtick_7">
     <g id="line2d_13">
      <path d="M 490.084283 360.958125 
L 490.084283 28.318125 
" clip-path="url(#p01b46f7caf)" style="fill: none; stroke-dasharray: 2.96,1.28; stroke-dashoffset: 0; stroke: #b0b0b0; stroke-opacity: 0.5; stroke-width: 0.8"/>
     </g>
     <g id="line2d_14">
      <g>
       <use xlink:href="#m3d27035b55" x="490.084283" y="360.958125" style="stroke: #000000; stroke-width: 0.8"/>
      </g>
     </g>
     <g id="text_7">
      <text style="font-size: 10px; font-family: 'DejaVu Sans', 'Bitstream Vera Sans', 'Computer Modern Sans Serif', 'Lucida Grande', 'Verdana', 'Geneva', 'Lucid', 'Arial', 'Helvetica', 'Avant Garde', sans-serif; text-anchor: middle" x="490.084283" y="375.555781" transform="rotate(-0 490.084283 375.555781)">0.12</text>
     </g>
    </g>
    <g id="xtick_8">
     <g id="line2d_15">
      <path d="M 557.730042 360.958125 
L 557.730042 28.318125 
" clip-path="url(#p01b46f7caf)" style="fill: none; stroke-dasharray: 2.96,1.28; stroke-dashoffset: 0; stroke: #b0b0b0; stroke-opacity: 0.5; stroke-width: 0.8"/>
     </g>
     <g id="line2d_16">
      <g>
       <use xlink:href="#m3d27035b55" x="557.730042" y="360.958125" style="stroke: #000000; stroke-width: 0.8"/>
      </g>
     </g>
     <g id="text_8">
      <text style="font-size: 10px; font-family: 'DejaVu Sans', 'Bitstream Vera Sans', 'Computer Modern Sans Serif', 'Lucida Grande', 'Verdana', 'Geneva', 'Lucid', 'Arial', 'Helvetica', 'Avant Garde', sans-serif; text-anchor: middle" x="557.730042" y="375.555781" transform="rotate(-0 557.730042 375.555781)">0.14</text>
     </g>
    </g>
    <g id="text_9">
     <text style="font-size: 10px; font-family: 'DejaVu Sans', 'Bitstream Vera Sans', 'Computer Modern Sans Serif', 'Lucida Grande', 'Verdana', 'Geneva', 'Lucid', 'Arial', 'Helvetica', 'Avant Garde', sans-serif; text-anchor: middle" x="337.846094" y="389.556562" transform="rotate(-0 337.846094 389.556562)">Time [s]</text>
    </g>
   </g>
   <g id="matplotlib.axis_2">
    <g id="ytick_1">
     <g id="line2d_17">
      <path d="M 58.846094 345.83819 
L 616.846094 345.83819 
" clip-path="url(#p01b46f7caf)" style="fill: none; stroke-dasharray: 2.96,1.28; stroke-dashoffset: 0; stroke: #b0b0b0; stroke-opacity: 0.5; stroke-width: 0.8"/>
     </g>
     <g id="line2d_18">
      <defs>
       <path id="mef640d9f3a" d="M 0 0 
L -3.5 0 
" style="stroke: #000000; stroke-width: 0.8"/>
      </defs>
      <g>
       <use xlink:href="#mef640d9f3a" x="58.846094" y="345.83819" style="stroke: #000000; stroke-width: 0.8"/>
      </g>
     </g>
     <g id="text_10">
      <text style="font-size: 10px; font-family: 'DejaVu Sans', 'Bitstream Vera Sans', 'Computer Modern Sans Serif', 'Lucida Grande', 'Verdana', 'Geneva', 'Lucid', 'Arial', 'Helvetica', 'Avant Garde', sans-serif; text-anchor: end" x="51.846094" y="349.637018" transform="rotate(-0 51.846094 349.637018)">−1.00</text>
     </g>
    </g>
    <g id="ytick_2">
     <g id="line2d_19">
      <path d="M 58.846094 307.999751 
L 616.846094 307.999751 
" clip-path="url(#p01b46f7caf)" style="fill: none; stroke-dasharray: 2.96,1.28; stroke-dashoffset: 0; stroke: #b0b0b0; stroke-opacity: 0.5; stroke-width: 0.8"/>
     </g>
     <g id="line2d_20">
      <g>
       <use xlink:href="#mef640d9f3a" x="58.846094" y="307.999751" style="stroke: #000000; stroke-width: 0.8"/>
      </g>
     </g>
     <g id="text_11">
      <text style="font-size: 10px; font-family: 'DejaVu Sans', 'Bitstream Vera Sans', 'Computer Modern Sans Serif', 'Lucida Grande', 'Verdana', 'Geneva', 'Lucid', 'Arial', 'Helvetica', 'Avant Garde', sans-serif; text-anchor: end" x="51.846094" y="311.798579" transform="rotate(-0 51.846094 311.798579)">−0.75</text>
     </g>
    </g>
    <g id="ytick_3">
     <g id="line2d_21">
      <path d="M 58.846094 270.161312 
L 616.846094 270.161312 
" clip-path="url(#p01b46f7caf)" style="fill: none; stroke-dasharray: 2.96,1.28; stroke-dashoffset: 0; stroke: #b0b0b0; stroke-opacity: 0.5; stroke-width: 0.8"/>
     </g>
     <g id="line2d_22">
      <g>
       <use xlink:href="#mef640d9f3a" x="58.846094" y="270.161312" style="stroke: #000000; stroke-width: 0.8"/>
      </g>
     </g>
     <g id="text_12">
      <text style="font-size: 10px; font-family: 'DejaVu Sans', 'Bitstream Vera Sans', 'Computer Modern Sans Serif', 'Lucida Grande', 'Verdana', 'Geneva', 'Lucid', 'Arial', 'Helvetica', 'Avant Garde', sans-serif; text-anchor: end" x="51.846094" y="273.96014" transform="rotate(-0 51.846094 273.96014)">−0.50</text>
     </g>
    </g>
    <g id="ytick_4">
     <g id="line2d_23">
      <path d="M 58.846094 232.322873 
L 616.846094 232.322873 
" clip-path="url(#p01b46f7caf)" style="fill: none; stroke-dasharray: 2.96,1.28; stroke-dashoffset: 0; stroke: #b0b0b0; stroke-opacity: 0.5; stroke-width: 0.8"/>
     </g>
     <g id="line2d_24">
      <g>
       <use xlink:href="#mef640d9f3a" x="58.846094" y="232.322873" style="stroke: #000000; stroke-width: 0.8"/>
      </g>
     </g>
     <g id="text_13">
      <text style="font-size: 10px; font-family: 'DejaVu Sans', 'Bitstream Vera Sans', 'Computer Modern Sans Serif', 'Lucida Grande', 'Verdana', 'Geneva', 'Lucid', 'Arial', 'Helvetica', 'Avant Garde', sans-serif; text-anchor: end" x="51.846094" y="236.121701" transform="rotate(-0 51.846094 236.121701)">−0.25</text>
     </g>
    </g>
    <g id="ytick_5">
     <g id="line2d_25">
      <path d="M 58.846094 194.484435 
L 616.846094 194.484435 
" clip-path="url(#p01b46f7caf)" style="fill: none; stroke-dasharray: 2.96,1.28; stroke-dashoffset: 0; stroke: #b0b0b0; stroke-opacity: 0.5; stroke-width: 0.8"/>
     </g>
     <g id="line2d_26">
      <g>
       <use xlink:href="#mef640d9f3a" x="58.846094" y="194.484435" style="stroke: #000000; stroke-width: 0.8"/>
      </g>
     </g>
     <g id="text_14">
      <text style="font-size: 10px; font-family: 'DejaVu Sans', 'Bitstream Vera Sans', 'Computer Modern Sans Serif', 'Lucida Grande', 'Verdana', 'Geneva', 'Lucid', 'Arial', 'Helvetica', 'Avant Garde', sans-serif; text-anchor: end" x="51.846094" y="198.283263" transform="rotate(-0 51.846094 198.283263)">0.00</text>
     </g>
    </g>
    <g id="ytick_6">
     <g id="line2d_27">
      <path d="M 58.846094 156.645996 
L 616.846094 156.645996 
" clip-path="url(#p01b46f7caf)" style="fill: none; stroke-dasharray: 2.96,1.28; stroke-dashoffset: 0; stroke: #b0b0b0; stroke-opacity: 0.5; stroke-width: 0.8"/>
     </g>
     <g id="line2d_28">
      <g>
       <use xlink:href="#mef640d9f3a" x="58.846094" y="156.645996" style="stroke: #000000; stroke-width: 0.8"/>
      </g>
     </g>
     <g id="text_15">
      <text style="font-size: 10px; font-family: 'DejaVu Sans', 'Bitstream Vera Sans', 'Computer Modern Sans Serif', 'Lucida Grande', 'Verdana', 'Geneva', 'Lucid', 'Arial', 'Helvetica', 'Avant Garde', sans-serif; text-anchor: end" x="51.846094" y="160.444824" transform="rotate(-0 51.846094 160.444824)">0.25</text>
     </g>
    </g>
    <g id="ytick_7">
     <g id="line2d_29">
      <path d="M 58.846094 118.807557 
L 616.846094 118.807557 
" clip-path="url(#p01b46f7caf)" style="fill: none; stroke-dasharray: 2.96,1.28; stroke-dashoffset: 0; stroke: #b0b0b0; stroke-opacity: 0.5; stroke-width: 0.8"/>
     </g>
     <g id="line2d_30">
      <g>
       <use xlink:href="#mef640d9f3a" x="58.846094" y="118.807557" style="stroke: #000000; stroke-width: 0.8"/>
      </g>
     </g>
     <g id="text_16">
      <text style="font-size: 10px; font-family: 'DejaVu Sans', 'Bitstream Vera Sans', 'Computer Modern Sans Serif', 'Lucida Grande', 'Verdana', 'Geneva', 'Lucid', 'Arial', 'Helvetica', 'Avant Garde', sans-serif; text-anchor: end" x="51.846094" y="122.606385" transform="rotate(-0 51.846094 122.606385)">0.50</text>
     </g>
    </g>
    <g id="ytick_8">
     <g id="line2d_31">
      <path d="M 58.846094 80.969118 
L 616.846094 80.969118 
" clip-path="url(#p01b46f7caf)" style="fill: none; stroke-dasharray: 2.96,1.28; stroke-dashoffset: 0; stroke: #b0b0b0; stroke-opacity: 0.5; stroke-width: 0.8"/>
     </g>
     <g id="line2d_32">
      <g>
       <use xlink:href="#mef640d9f3a" x="58.846094" y="80.969118" style="stroke: #000000; stroke-width: 0.8"/>
      </g>
     </g>
     <g id="text_17">
      <text style="font-size: 10px; font-family: 'DejaVu Sans', 'Bitstream Vera Sans', 'Computer Modern Sans Serif', 'Lucida Grande', 'Verdana', 'Geneva', 'Lucid', 'Arial', 'Helvetica', 'Avant Garde', sans-serif; text-anchor: end" x="51.846094" y="84.767946" transform="rotate(-0 51.846094 84.767946)">0.75</text>
     </g>
    </g>
    <g id="ytick_9">
     <g id="line2d_33">
      <path d="M 58.846094 43.130679 
L 616.846094 43.130679 
" clip-path="url(#p01b46f7caf)" style="fill: none; stroke-dasharray: 2.96,1.28; stroke-dashoffset: 0; stroke: #b0b0b0; stroke-opacity: 0.5; stroke-width: 0.8"/>
     </g>
     <g id="line2d_34">
      <g>
       <use xlink:href="#mef640d9f3a" x="58.846094" y="43.130679" style="stroke: #000000; stroke-width: 0.8"/>
      </g>
     </g>
     <g id="text_18">
      <text style="font-size: 10px; font-family: 'DejaVu Sans', 'Bitstream Vera Sans', 'Computer Modern Sans Serif', 'Lucida Grande', 'Verdana', 'Geneva', 'Lucid', 'Arial', 'Helvetica', 'Avant Garde', sans-serif; text-anchor: end" x="51.846094" y="46.929507" transform="rotate(-0 51.846094 46.929507)">1.00</text>
     </g>
    </g>
    <g id="text_19">
     <text style="font-size: 10px; font-family: 'DejaVu Sans', 'Bitstream Vera Sans', 'Computer Modern Sans Serif', 'Lucida Grande', 'Verdana', 'Geneva', 'Lucid', 'Arial', 'Helvetica', 'Avant Garde', sans-serif; text-anchor: middle" x="14.798438" y="194.638125" transform="rotate(-90 14.798438 194.638125)">Amplitude</text>
    </g>
   </g>
   <g id="line2d_35">
    <path d="M 84.20973 194.484435 
L 255.015271 194.590116 
L 256.213165 194.908944 
L 258.045238 195.429096 
L 258.749881 195.377783 
L 259.38406 195.098892 
L 260.018239 194.560684 
L 260.722882 193.658974 
L 261.709383 191.992107 
L 263.189134 189.496902 
L 263.752848 188.917966 
L 264.175634 188.73406 
L 264.527956 188.780543 
L 264.880278 189.030632 
L 265.303064 189.619724 
L 265.796314 190.719357 
L 266.430493 192.766968 
L 267.205601 196.089223 
L 269.812781 207.992766 
L 270.306031 209.058031 
L 270.658353 209.364359 
L 270.94021 209.304786 
L 271.222068 208.957304 
L 271.574389 208.102736 
L 271.997175 206.452307 
L 272.56089 203.221437 
L 273.265533 197.718433 
L 274.322498 187.443912 
L 275.802249 173.329417 
L 276.436428 169.130277 
L 276.929679 167.191651 
L 277.211536 166.699092 
L 277.422929 166.647285 
L 277.634322 166.878468 
L 277.916179 167.638076 
L 278.268501 169.322225 
L 278.761751 173.033493 
L 279.39593 179.960466 
L 280.241502 192.207115 
L 282.778218 231.254774 
L 283.341933 236.08469 
L 283.764719 237.97195 
L 283.976112 238.299078 
L 284.11704 238.278721 
L 284.328433 237.883016 
L 284.610291 236.664728 
L 284.962612 234.029974 
L 285.455863 228.321883 
L 286.090042 217.827931 
L 286.935614 199.558219 
L 289.331401 145.023305 
L 289.895116 137.268076 
L 290.317902 133.822375 
L 290.599759 132.783445 
L 290.740688 132.659723 
L 290.881616 132.805376 
L 291.093009 133.534527 
L 291.374867 135.464742 
L 291.797653 140.390222 
L 292.290903 149.070686 
L 292.925082 164.317314 
L 293.841118 192.168749 
L 295.81412 253.481391 
L 296.448299 266.643549 
L 296.941549 272.913396 
L 297.293871 274.964533 
L 297.505264 275.167402 
L 297.646192 274.864966 
L 297.857585 273.749626 
L 298.139443 271.028769 
L 298.562229 264.35609 
L 299.125943 250.929652 
L 299.830587 227.995709 
L 300.958016 182.647055 
L 302.367303 127.625636 
L 303.071946 107.967315 
L 303.565196 99.243346 
L 303.917518 95.954215 
L 304.128911 95.230368 
L 304.269839 95.280939 
L 304.410768 95.761789 
L 304.622161 97.291772 
L 304.974483 101.981913 
L 305.397269 111.030266 
L 305.960983 128.415974 
L 306.736091 160.362883 
L 309.695593 292.841121 
L 310.259308 305.504671 
L 310.611629 309.707367 
L 310.893487 310.87266 
L 310.963951 310.852158 
L 311.10488 310.434146 
L 311.316273 308.863707 
L 311.59813 305.020685 
L 312.020916 295.612191 
L 312.584631 276.771738 
L 313.289274 244.817643 
L 314.487168 178.223765 
L 315.82599 107.401495 
L 316.530633 80.875909 
L 317.023884 69.109051 
L 317.376205 64.626592 
L 317.587598 63.589956 
L 317.728527 63.600476 
L 317.869456 64.175284 
L 318.080849 66.094435 
L 318.43317 72.076516 
L 318.855956 83.672918 
L 319.419671 105.942387 
L 320.194779 146.70439 
L 323.083816 311.093645 
L 323.647531 328.056033 
L 324.070317 334.920896 
L 324.352174 336.517529 
L 324.422638 336.536499 
L 324.563567 336.116067 
L 324.77496 334.341125 
L 325.056817 329.860571 
L 325.479603 318.758306 
L 326.043318 296.44047 
L 326.747961 258.618908 
L 328.016319 175.380797 
L 329.284677 97.1951 
L 329.989321 66.18299 
L 330.482571 52.343408 
L 330.834893 46.958839 
L 331.11675 45.485587 
L 331.187214 45.51658 
L 331.328143 46.058839 
L 331.539536 48.068744 
L 331.891858 54.559005 
L 332.314644 67.307977 
L 332.878358 91.899546 
L 333.653466 136.914795 
L 336.542504 317.439639 
L 337.106218 336.110531 
L 337.529004 343.811422 
L 337.810862 345.757088 
L 337.881326 345.838125 
L 337.95179 345.75657 
L 338.092719 345.106216 
L 338.304112 342.919215 
L 338.656434 336.105187 
L 339.07922 322.946883 
L 339.642934 297.833365 
L 340.418042 252.27278 
L 343.166151 78.626377 
L 343.729865 58.2636 
L 344.152651 49.100044 
L 344.434509 46.106411 
L 344.645902 45.534898 
L 344.78683 45.953727 
L 344.998223 47.775064 
L 345.280081 52.394912 
L 345.702867 63.828022 
L 346.266581 86.700023 
L 347.041689 129.478478 
L 350.071655 311.269398 
L 350.63537 328.284516 
L 351.058156 334.992928 
L 351.340013 336.441483 
L 351.410478 336.422008 
L 351.551406 335.926113 
L 351.762799 334.04825 
L 352.115121 327.961304 
L 352.537907 316.029248 
L 353.101622 293.133073 
L 353.876729 251.567115 
L 356.624838 93.996679 
L 357.188553 75.537489 
L 357.611339 67.142666 
L 357.963661 63.951237 
L 358.104589 63.660039 
L 358.245518 63.931722 
L 358.456911 65.386335 
L 358.738768 69.243047 
L 359.161554 78.94987 
L 359.725269 98.490373 
L 360.500377 135.053775 
L 363.459878 286.91432 
L 364.023593 302.212419 
L 364.446379 308.702609 
L 364.728236 310.5403 
L 364.869165 310.705634 
L 365.010094 310.370749 
L 365.221487 308.940525 
L 365.503344 305.340869 
L 365.92613 296.498284 
L 366.489845 278.965121 
L 367.264952 246.547102 
L 370.083526 119.145179 
L 370.64724 104.756982 
L 371.070026 98.195903 
L 371.422348 95.653742 
L 371.563277 95.389822 
L 371.704205 95.554107 
L 371.915598 96.594314 
L 372.197456 99.428017 
L 372.620242 106.61766 
L 373.183956 121.09773 
L 373.959064 148.074395 
L 376.848102 256.392541 
L 377.411816 267.900423 
L 377.834602 273.012265 
L 378.11646 274.669963 
L 378.327853 274.989583 
L 378.468781 274.766712 
L 378.680174 273.789343 
L 378.962032 271.320137 
L 379.384818 265.266047 
L 379.948532 253.328181 
L 380.72364 231.455806 
L 383.401284 150.681476 
L 384.035463 139.569742 
L 384.528714 134.548039 
L 384.881035 132.997907 
L 385.021964 132.853738 
L 385.162893 132.978104 
L 385.374286 133.659367 
L 385.656143 135.462024 
L 386.078929 139.960141 
L 386.642644 148.887476 
L 387.417751 165.247788 
L 390.024932 223.952869 
L 390.659111 232.485772 
L 391.152361 236.496732 
L 391.504683 237.887918 
L 391.716076 238.134425 
L 391.857004 238.057946 
L 392.068397 237.59054 
L 392.350255 236.33316 
L 392.773041 233.18527 
L 393.336755 226.954165 
L 394.111863 215.6177 
L 396.578115 177.48751 
L 397.212294 171.373353 
L 397.705544 168.352535 
L 398.12833 167.027309 
L 398.410187 166.785705 
L 398.62158 166.930621 
L 398.903438 167.539049 
L 399.255759 168.921571 
L 399.74901 171.877574 
L 400.453653 177.692824 
L 403.483619 204.90465 
L 404.047334 207.531624 
L 404.540584 208.847762 
L 404.892906 209.231235 
L 405.174763 209.219138 
L 405.45662 208.94134 
L 405.808942 208.252825 
L 406.302192 206.741609 
L 407.006836 203.763418 
L 409.68448 191.576598 
L 410.318659 189.940832 
L 410.81191 189.170477 
L 411.234696 188.851041 
L 411.657482 188.821244 
L 412.080268 189.045128 
L 412.643982 189.660317 
L 413.41909 190.892217 
L 415.392091 194.154243 
L 416.167199 194.938843 
L 416.801378 195.291496 
L 417.435557 195.410099 
L 418.210665 195.317516 
L 419.76088 194.820647 
L 421.029238 194.541464 
L 422.438525 194.484435 
L 591.482457 194.484435 
L 591.482457 194.484435 
" clip-path="url(#p01b46f7caf)" style="fill: none; stroke: #808080; stroke-opacity: 0.5; stroke-linecap: square"/>
   </g>
   <g id="line2d_36">
    <path d="M 84.20973 194.484456 
L 266.571422 194.593325 
L 270.517424 194.858013 
L 271.362996 194.709027 
L 272.419961 194.316455 
L 274.111105 193.395065 
L 275.238535 192.897262 
L 276.013642 192.777762 
L 276.718286 192.894964 
L 277.422929 193.261732 
L 278.127572 193.887802 
L 278.832216 194.800851 
L 280.030109 196.777824 
L 281.368932 198.886522 
L 282.003111 199.508483 
L 282.425897 199.673121 
L 282.848682 199.604735 
L 283.271468 199.283364 
L 283.764719 198.57275 
L 284.328433 197.322086 
L 285.033077 195.167896 
L 286.090042 191.078157 
L 287.640257 185.015875 
L 288.274436 183.334766 
L 288.697222 182.681949 
L 289.049544 182.483161 
L 289.331401 182.573747 
L 289.613258 182.900164 
L 289.96558 183.679953 
L 290.45883 185.442526 
L 291.022545 188.362994 
L 291.797653 193.712373 
L 294.68669 215.294011 
L 295.179941 216.943266 
L 295.532262 217.419952 
L 295.743655 217.400734 
L 295.955048 217.142812 
L 296.236906 216.4187 
L 296.589227 214.895489 
L 297.082478 211.625433 
L 297.646192 206.323191 
L 298.4213 196.801523 
L 301.098945 161.654258 
L 301.592195 158.239778 
L 301.944517 156.907647 
L 302.226374 156.570695 
L 302.367303 156.655753 
L 302.578696 157.107463 
L 302.860553 158.321534 
L 303.283339 161.449838 
L 303.776589 167.008082 
L 304.410768 176.848391 
L 305.326804 195.058244 
L 307.37027 237.057116 
L 308.004449 245.442126 
L 308.427235 248.797142 
L 308.709092 249.904237 
L 308.920485 250.093598 
L 309.061414 249.912105 
L 309.272807 249.172049 
L 309.554664 247.307953 
L 309.97745 242.654621 
L 310.470701 234.548924 
L 311.175344 218.63493 
L 312.232309 188.428433 
L 313.852989 142.232899 
L 314.557632 128.298476 
L 315.050882 122.347233 
L 315.403204 120.320059 
L 315.614597 120.049275 
L 315.755526 120.272495 
L 315.966919 121.219057 
L 316.248776 123.624666 
L 316.671562 129.686142 
L 317.164812 140.239511 
L 317.869456 160.90114 
L 318.926421 199.959688 
L 320.476636 256.970322 
L 321.181279 275.486382 
L 321.67453 283.761251 
L 322.026851 286.926593 
L 322.238244 287.657896 
L 322.379173 287.646609 
L 322.520102 287.232412 
L 322.731495 285.853196 
L 323.083816 281.546017 
L 323.506602 273.160501 
L 324.070317 256.935159 
L 324.845424 226.864668 
L 326.466104 151.39437 
L 327.452605 111.710665 
L 328.086784 94.050803 
L 328.580034 85.996882 
L 328.861891 83.880506 
L 329.073284 83.531049 
L 329.214213 83.895677 
L 329.425606 85.342092 
L 329.707463 88.93952 
L 330.130249 97.816367 
L 330.693964 115.676736 
L 331.398607 146.072644 
L 332.526037 205.960339 
L 333.935323 278.200258 
L 334.639967 303.973083 
L 335.133217 315.489367 
L 335.485539 319.928464 
L 335.696932 320.988727 
L 335.83786 321.016505 
L 335.978789 320.497666 
L 336.190182 318.694752 
L 336.542504 312.988615 
L 336.96529 301.848145 
L 337.529004 280.367814 
L 338.304112 240.936803 
L 341.263614 78.278979 
L 341.827329 62.596779 
L 342.17965 57.25137 
L 342.461508 55.600505 
L 342.531972 55.559507 
L 342.672901 55.926143 
L 342.884293 57.597092 
L 343.166151 61.916323 
L 343.588937 72.714753 
L 344.152651 94.522291 
L 344.857295 131.592236 
L 346.055188 208.696214 
L 347.394011 290.387764 
L 348.098654 321.039858 
L 348.591904 334.774051 
L 348.944226 340.156064 
L 349.226083 341.668351 
L 349.296548 341.652492 
L 349.437476 341.14662 
L 349.648869 339.205768 
L 349.930727 334.438828 
L 350.353513 322.785648 
L 350.917227 299.528848 
L 351.621871 260.334295 
L 352.960693 169.845569 
L 354.158587 95.050773 
L 354.86323 63.804219 
L 355.35648 50.019003 
L 355.708802 44.763614 
L 355.920195 43.526998 
L 355.990659 43.438125 
L 356.061124 43.511272 
L 356.202052 44.143244 
L 356.413445 46.299349 
L 356.765767 53.055766 
L 357.188553 66.141514 
L 357.752268 91.168308 
L 358.527375 136.684155 
L 361.345949 314.308688 
L 361.909663 333.787782 
L 362.332449 342.139591 
L 362.614307 344.546239 
L 362.755235 344.784191 
L 362.896164 344.377091 
L 363.107557 342.562988 
L 363.389414 337.932249 
L 363.8122 326.435895 
L 364.375915 303.38773 
L 365.080558 264.551574 
L 366.41938 175.139626 
L 367.617274 101.32427 
L 368.321917 70.358234 
L 368.815168 56.551801 
L 369.167489 51.139679 
L 369.449347 49.589501 
L 369.519811 49.591555 
L 369.66074 50.066888 
L 369.872133 51.945499 
L 370.15399 56.574429 
L 370.576776 67.868009 
L 371.140491 90.255651 
L 371.915598 131.822743 
L 374.8751 303.395256 
L 375.438815 320.482045 
L 375.861601 327.569445 
L 376.143458 329.42252 
L 376.284387 329.477447 
L 376.425316 328.952772 
L 376.636709 327.089021 
L 376.98903 321.18068 
L 377.411816 309.714385 
L 377.975531 287.848889 
L 378.750639 248.388512 
L 381.428283 103.382662 
L 382.062462 83.776118 
L 382.485248 76.133022 
L 382.83757 73.302466 
L 382.978499 73.084302 
L 383.119427 73.387318 
L 383.33082 74.809972 
L 383.612677 78.476216 
L 384.035463 87.58477 
L 384.599178 105.775365 
L 385.374286 139.586829 
L 388.263323 276.206334 
L 388.827038 290.733607 
L 389.249824 297.107942 
L 389.531681 299.113597 
L 389.743074 299.428571 
L 389.884003 299.075453 
L 390.095396 297.712678 
L 390.447718 293.283779 
L 390.870504 284.625775 
L 391.434218 268.106785 
L 392.27979 235.396557 
L 394.746042 134.406025 
L 395.380221 118.366718 
L 395.873471 110.767345 
L 396.225793 108.139849 
L 396.437186 107.714337 
L 396.578115 107.899398 
L 396.789508 108.869502 
L 397.071365 111.42106 
L 397.494151 117.791843 
L 398.057866 130.490861 
L 398.832973 153.949475 
L 401.581082 243.546451 
L 402.215261 255.394277 
L 402.708512 260.659995 
L 402.990369 262.037512 
L 403.201762 262.289061 
L 403.34269 262.088696 
L 403.554083 261.246412 
L 403.835941 259.143721 
L 404.258727 254.016291 
L 404.822441 243.976273 
L 405.597549 225.716381 
L 408.134265 161.996391 
L 408.768444 152.184986 
L 409.261694 147.414589 
L 409.614016 145.633662 
L 409.825409 145.220442 
L 409.966338 145.215028 
L 410.177731 145.604578 
L 410.459588 146.843572 
L 410.81191 149.4833 
L 411.30516 155.000921 
L 412.009803 165.797121 
L 413.348626 190.969141 
L 414.476055 210.547772 
L 415.180698 219.56028 
L 415.744413 224.279583 
L 416.167199 226.282662 
L 416.449056 226.882254 
L 416.660449 226.952671 
L 416.871842 226.707249 
L 417.1537 225.90899 
L 417.576486 223.77582 
L 418.1402 219.425042 
L 418.915308 211.390419 
L 421.452024 183.513837 
L 422.086203 179.233641 
L 422.579453 177.126317 
L 423.002239 176.206321 
L 423.284097 176.041603 
L 423.495489 176.134645 
L 423.777347 176.530941 
L 424.129668 177.428285 
L 424.622919 179.330598 
L 425.327562 183.023133 
L 428.075671 198.58502 
L 428.70985 200.707308 
L 429.273565 201.866477 
L 429.696351 202.288321 
L 430.048672 202.364454 
L 430.400994 202.21318 
L 430.82378 201.760451 
L 431.387495 200.812372 
L 432.373995 198.626138 
L 433.783282 195.560443 
L 434.55839 194.373188 
L 435.263033 193.69557 
L 435.967676 193.335569 
L 436.67232 193.230522 
L 437.588356 193.333088 
L 439.631822 193.627674 
L 440.688787 193.500735 
L 443.648288 192.935271 
L 444.423396 193.140608 
L 445.339432 193.630216 
L 446.748719 194.692661 
L 448.158006 195.645251 
L 449.074042 196.003156 
L 449.919614 196.10409 
L 450.765186 195.972632 
L 451.751687 195.571288 
L 454.852117 194.123621 
L 455.909082 193.981827 
L 457.388833 194.035036 
L 460.348335 194.146273 
L 464.01248 194.117756 
L 465.492231 194.407065 
L 468.522198 195.08767 
L 469.790556 195.085209 
L 471.340771 194.841022 
L 474.511666 194.281851 
L 476.273274 194.26292 
L 480.642063 194.32706 
L 483.531101 194.336284 
L 486.067816 194.628501 
L 488.252211 194.78879 
L 490.154748 194.683772 
L 494.382608 194.351914 
L 504.247614 194.490385 
L 507.982224 194.633381 
L 511.646369 194.440295 
L 514.535407 194.42732 
L 519.749767 194.448783 
L 523.625306 194.493596 
L 527.92363 194.544759 
L 534.476813 194.471098 
L 539.973031 194.458356 
L 562.098831 194.487729 
L 569.497586 194.4685 
L 591.482457 194.480749 
L 591.482457 194.480749 
" clip-path="url(#p01b46f7caf)" style="fill: none; stroke: #1f77b4; stroke-width: 1.3; stroke-linecap: square"/>
   </g>
   <g id="line2d_37">
    <path d="M 84.20973 194.483312 
L 187.158119 194.439842 
L 191.949694 194.534631 
L 195.966161 194.522942 
L 204.351416 194.42411 
L 208.438348 194.449258 
L 214.075494 194.606235 
L 225.56118 194.31792 
L 227.956968 194.478448 
L 231.691577 194.754707 
L 233.946436 194.667324 
L 237.821974 194.466846 
L 240.35869 194.34026 
L 244.727479 194.029518 
L 246.20723 194.204922 
L 248.039302 194.683428 
L 249.730446 195.016299 
L 250.92834 195.017578 
L 254.028771 194.846961 
L 255.367593 195.095652 
L 257.833845 195.63666 
L 258.608952 195.509847 
L 259.243131 195.189422 
L 259.87731 194.577624 
L 260.652418 193.492377 
L 261.779847 191.460117 
L 263.048205 189.287614 
L 263.682384 188.640325 
L 264.10517 188.477819 
L 264.457492 188.540023 
L 264.880278 188.877105 
L 265.303064 189.517617 
L 265.866778 190.851138 
L 266.500957 192.97093 
L 267.346529 196.673834 
L 269.671852 207.478474 
L 270.235567 208.895737 
L 270.587889 209.31381 
L 270.869746 209.338918 
L 271.151603 209.074954 
L 271.503925 208.327129 
L 271.926711 206.805581 
L 272.490426 203.743308 
L 273.195069 198.438238 
L 274.252034 188.406962 
L 275.872714 173.129718 
L 276.506893 169.103549 
L 276.929679 167.483872 
L 277.282 166.898237 
L 277.493393 166.906815 
L 277.704786 167.196814 
L 277.986644 168.031675 
L 278.338965 169.811189 
L 278.832216 173.692933 
L 279.466395 180.823973 
L 280.311967 193.26669 
L 282.637289 229.499364 
L 283.201004 234.899694 
L 283.62379 237.295365 
L 283.905647 238.005998 
L 284.11704 238.046741 
L 284.328433 237.653764 
L 284.610291 236.445253 
L 284.962612 233.833692 
L 285.455863 228.179406 
L 286.090042 217.755838 
L 286.935614 199.496314 
L 289.331401 144.968952 
L 289.895116 137.255405 
L 290.317902 133.854777 
L 290.599759 132.850742 
L 290.740688 132.745339 
L 290.881616 132.909568 
L 291.093009 133.666481 
L 291.374867 135.631988 
L 291.797653 140.601755 
L 292.290903 149.311331 
L 292.995546 166.475901 
L 293.982047 196.966514 
L 295.743655 251.815673 
L 296.448299 266.723232 
L 296.941549 272.978972 
L 297.293871 275.018514 
L 297.434799 275.227386 
L 297.575728 275.086103 
L 297.787121 274.212046 
L 298.068978 271.808604 
L 298.491764 265.592847 
L 298.985015 254.594067 
L 299.619194 235.286226 
L 300.605694 197.233984 
L 302.437767 125.289053 
L 303.14241 106.428089 
L 303.63566 98.369952 
L 303.987982 95.588346 
L 304.199375 95.175379 
L 304.340304 95.434074 
L 304.551697 96.628504 
L 304.833554 99.722913 
L 305.25634 107.55489 
L 305.74959 121.203141 
L 306.454234 147.87861 
L 307.511199 198.111615 
L 309.061414 271.106128 
L 309.766057 294.820054 
L 310.259308 305.513055 
L 310.611629 309.711279 
L 310.893487 310.877953 
L 310.963951 310.858605 
L 311.10488 310.443952 
L 311.316273 308.881302 
L 311.59813 305.053997 
L 312.020916 295.680277 
L 312.584631 276.894462 
L 313.289274 244.921881 
L 314.487168 178.232317 
L 315.82599 107.309574 
L 316.530633 80.780413 
L 317.023884 69.027895 
L 317.376205 64.560738 
L 317.587598 63.534302 
L 317.728527 63.551705 
L 317.869456 64.133254 
L 318.080849 66.061849 
L 318.43317 72.056339 
L 318.855956 83.658797 
L 319.419671 105.915527 
L 320.194779 146.625197 
L 323.083816 311.191171 
L 323.647531 328.181577 
L 324.070317 335.047201 
L 324.352174 336.62856 
L 324.422638 336.642986 
L 324.563567 336.212695 
L 324.77496 334.421291 
L 325.056817 329.916502 
L 325.479603 318.776073 
L 326.043318 296.413005 
L 326.747961 258.563058 
L 328.016319 175.377397 
L 329.284677 97.200319 
L 329.989321 66.164394 
L 330.482571 52.300929 
L 330.834893 46.898203 
L 331.11675 45.41093 
L 331.187214 45.438587 
L 331.328143 45.974451 
L 331.539536 47.975618 
L 331.891858 54.480166 
L 332.314644 67.254685 
L 332.878358 91.88953 
L 333.653466 136.962802 
L 336.542504 317.405263 
L 337.106218 336.070445 
L 337.529004 343.780376 
L 337.810862 345.737676 
L 337.881326 345.822237 
L 337.95179 345.74443 
L 338.092719 345.102199 
L 338.304112 342.928755 
L 338.656434 336.140073 
L 339.07922 323.014407 
L 339.642934 297.911144 
L 340.418042 252.325087 
L 343.166151 78.588611 
L 343.729865 58.262505 
L 344.152651 49.115709 
L 344.434509 46.12739 
L 344.645902 45.556741 
L 344.78683 45.974692 
L 344.998223 47.792623 
L 345.280081 52.404308 
L 345.702867 63.818549 
L 346.266581 86.656838 
L 347.041689 129.388377 
L 348.803297 245.606694 
L 349.719334 296.45488 
L 350.353513 320.995555 
L 350.846763 332.412858 
L 351.199085 336.102036 
L 351.340013 336.512645 
L 351.410478 336.489004 
L 351.551406 335.985009 
L 351.762799 334.095703 
L 352.115121 327.992077 
L 352.537907 316.044777 
L 353.101622 293.137231 
L 353.876729 251.571071 
L 356.624838 93.943846 
L 357.188553 75.435722 
L 357.611339 67.013127 
L 357.963661 63.807703 
L 358.104589 63.513557 
L 358.245518 63.788182 
L 358.456911 65.255716 
L 358.738768 69.132503 
L 359.161554 78.8736 
L 359.725269 98.46213 
L 360.500377 135.082536 
L 363.459878 286.910956 
L 364.023593 302.231385 
L 364.446379 308.746535 
L 364.728236 310.601506 
L 364.869165 310.775067 
L 365.010094 310.447898 
L 365.221487 309.027963 
L 365.503344 305.438988 
L 365.92613 296.602921 
L 366.489845 279.057335 
L 367.264952 246.599055 
L 370.083526 119.168376 
L 370.64724 104.813155 
L 371.070026 98.252531 
L 371.422348 95.696716 
L 371.563277 95.424383 
L 371.704205 95.578871 
L 371.915598 96.602268 
L 372.197456 99.410816 
L 372.620242 106.560527 
L 373.183956 120.991774 
L 373.959064 147.904406 
L 376.848102 256.341016 
L 377.411816 267.85641 
L 377.834602 272.95336 
L 378.11646 274.609978 
L 378.327853 274.933596 
L 378.468781 274.715623 
L 378.680174 273.748765 
L 378.962032 271.298892 
L 379.384818 265.282734 
L 379.948532 253.40426 
L 380.72364 231.60835 
L 383.401284 150.857144 
L 384.035463 139.673682 
L 384.528714 134.603337 
L 384.881035 133.03133 
L 385.021964 132.888137 
L 385.162893 133.013362 
L 385.374286 133.695509 
L 385.656143 135.498195 
L 386.078929 139.992935 
L 386.642644 148.907999 
L 387.417751 165.237604 
L 390.024932 223.751258 
L 390.659111 232.293733 
L 391.152361 236.324897 
L 391.504683 237.731062 
L 391.716076 237.985287 
L 391.857004 237.913116 
L 392.068397 237.450656 
L 392.350255 236.196737 
L 392.773041 233.039545 
L 393.336755 226.789804 
L 394.111863 215.434579 
L 396.50765 178.308371 
L 397.212294 171.510425 
L 397.705544 168.556858 
L 398.057866 167.404673 
L 398.339723 167.054871 
L 398.551116 167.11787 
L 398.762509 167.450005 
L 399.114831 168.569196 
L 399.537617 170.758915 
L 400.171796 175.45861 
L 401.158296 184.855243 
L 402.778976 200.225085 
L 403.483619 205.016837 
L 404.047334 207.569214 
L 404.47012 208.683478 
L 404.822441 209.113776 
L 405.104299 209.145469 
L 405.386156 208.915749 
L 405.738478 208.290919 
L 406.231728 206.868986 
L 406.936371 203.999276 
L 409.825409 191.057558 
L 410.459588 189.504439 
L 410.952838 188.79465 
L 411.375624 188.523607 
L 411.727946 188.533626 
L 412.150732 188.775189 
L 412.714447 189.403688 
L 413.560019 190.769047 
L 415.53302 194.088823 
L 416.378592 194.988776 
L 417.083235 195.439637 
L 417.787879 195.632513 
L 418.562986 195.603489 
L 419.619951 195.310728 
L 421.311095 194.848721 
L 422.438525 194.790138 
L 423.777347 194.95181 
L 425.257098 195.046431 
L 426.59592 194.909596 
L 428.780314 194.412907 
L 430.82378 194.040887 
L 432.162602 194.000291 
L 434.135604 194.217342 
L 436.601855 194.419612 
L 441.745752 194.658652 
L 444.564325 194.751344 
L 446.678255 194.596619 
L 450.131007 194.325554 
L 453.513295 194.385442 
L 464.858052 194.583163 
L 470.636128 194.410457 
L 484.376672 194.519194 
L 490.295676 194.456462 
L 503.120185 194.50581 
L 511.928226 194.484502 
L 591.482457 194.483616 
L 591.482457 194.483616 
" clip-path="url(#p01b46f7caf)" style="fill: none; stroke-dasharray: 4.81,2.08; stroke-dashoffset: 0; stroke: #d62728; stroke-width: 1.3"/>
   </g>
   <g id="patch_3">
    <path d="M 58.846094 360.958125 
L 58.846094 28.318125 
" style="fill: none; stroke: #000000; stroke-width: 0.8; stroke-linejoin: miter; stroke-linecap: square"/>
   </g>
   <g id="patch_4">
    <path d="M 616.846094 360.958125 
L 616.846094 28.318125 
" style="fill: none; stroke: #000000; stroke-width: 0.8; stroke-linejoin: miter; stroke-linecap: square"/>
   </g>
   <g id="patch_5">
    <path d="M 58.846094 360.958125 
L 616.846094 360.958125 
" style="fill: none; stroke: #000000; stroke-width: 0.8; stroke-linejoin: miter; stroke-linecap: square"/>
   </g>
   <g id="patch_6">
    <path d="M 58.846094 28.318125 
L 616.846094 28.318125 
" style="fill: none; stroke: #000000; stroke-width: 0.8; stroke-linejoin: miter; stroke-linecap: square"/>
   </g>
   <g id="text_20">
    <text style="font-weight: 700; font-size: 12px; font-family: 'DejaVu Sans', 'Bitstream Vera Sans', 'Computer Modern Sans Serif', 'Lucida Grande', 'Verdana', 'Geneva', 'Lucid', 'Arial', 'Helvetica', 'Avant Garde', sans-serif; text-anchor: middle" x="337.846094" y="16.318125" transform="rotate(-0 337.846094 16.318125)">Zero-Phase Filtering: Group Delay Elimination (250 Hz Band)</text>
   </g>
   <g id="legend_1">
    <g id="patch_7">
     <path d="M 431.849219 81.320469 
L 609.846094 81.320469 
Q 611.846094 81.320469 611.846094 79.320469 
L 611.846094 35.318125 
Q 611.846094 33.318125 609.846094 33.318125 
L 431.849219 33.318125 
Q 429.849219 33.318125 429.849219 35.318125 
L 429.849219 79.320469 
Q 429.849219 81.320469 431.849219 81.320469 
z
" style="fill: #ffffff; opacity: 0.8; stroke: #cccccc; stroke-linejoin: miter"/>
    </g>
    <g id="line2d_38">
     <path d="M 433.849219 41.416563 
L 443.849219 41.416563 
L 453.849219 41.416563 
" style="fill: none; stroke: #808080; stroke-opacity: 0.5; stroke-linecap: square"/>
    </g>
    <g id="text_21">
     <text style="font-size: 10px; font-family: 'DejaVu Sans', 'Bitstream Vera Sans', 'Computer Modern Sans Serif', 'Lucida Grande', 'Verdana', 'Geneva', 'Lucid', 'Arial', 'Helvetica', 'Avant Garde', sans-serif; text-anchor: start" x="461.849219" y="44.916563" transform="rotate(-0 461.849219 44.916563)">Input burst (250 Hz)</text>
    </g>
    <g id="line2d_39">
     <path d="M 433.849219 56.417344 
L 443.849219 56.417344 
L 453.849219 56.417344 
" style="fill: none; stroke: #1f77b4; stroke-width: 1.3; stroke-linecap: square"/>
    </g>
    <g id="text_22">
     <text style="font-size: 10px; font-family: 'DejaVu Sans', 'Bitstream Vera Sans', 'Computer Modern Sans Serif', 'Lucida Grande', 'Verdana', 'Geneva', 'Lucid', 'Arial', 'Helvetica', 'Avant Garde', sans-serif; text-anchor: start" x="461.849219" y="59.917344" transform="rotate(-0 461.849219 59.917344)">Causal filtering (group delay)</text>
    </g>
    <g id="line2d_40">
     <path d="M 433.849219 71.418125 
L 443.849219 71.418125 
L 453.849219 71.418125 
" style="fill: none; stroke-dasharray: 4.81,2.08; stroke-dashoffset: 0; stroke: #d62728; stroke-width: 1.3"/>
    </g>
    <g id="text_23">
     <text style="font-size: 10px; font-family: 'DejaVu Sans', 'Bitstream Vera Sans', 'Computer Modern Sans Serif', 'Lucida Grande', 'Verdana', 'Geneva', 'Lucid', 'Arial', 'Helvetica', 'Avant Garde', sans-serif; text-anchor: start" x="461.849219" y="74.918125" transform="rotate(-0 461.849219 74.918125)">zero_phase=True (aligned)</text>
    </g>
   </g>
  </g>
 </g>
 <defs>
  <clipPath id="p01b46f7caf">
   <rect x="58.846094" y="28.318125" width="558" height="332.64"/>
  </clipPath>
 </defs>
</svg>
