<?xml version="1.0" encoding="utf-8" standalone="no"?>
<!DOCTYPE svg PUBLIC "-//W3C//DTD SVG 1.1//EN"
  "http://www.w3.org/Graphics/SVG/1.1/DTD/svg11.dtd">
<svg xmlns:xlink="http://www.w3.org/1999/xlink" width="707.93125pt" height="424.716563pt" viewBox="0 0 707.93125 424.716563" xmlns="http://www.w3.org/2000/svg" version="1.1">
 <metadata>
  <rdf:RDF xmlns:dc="http://purl.org/dc/elements/1.1/" xmlns:cc="http://creativecommons.org/ns#" xmlns:rdf="http://www.w3.org/1999/02/22-rdf-syntax-ns#">
   <cc:Work>
    <dc:type rdf:resource="http://purl.org/dc/dcmitype/StillImage"/>
    <dc:format>image/svg+xml</dc:format>
    <dc:creator>
     <cc:Agent>
      <dc:title>Matplotlib v3.11.1, https://matplotlib.org/</dc:title>
     </cc:Agent>
    </dc:creator>
   </cc:Work>
  </rdf:RDF>
 </metadata>
 <defs>
  <style type="text/css">*{stroke-linejoin: round; stroke-linecap: butt}</style>
 </defs>
 <g id="figure_1">
  <g id="patch_1">
   <path d="M 0 424.716563 
L 707.93125 424.716563 
L 707.93125 0 
L 0 0 
z
"/>
  </g>
  <g id="axes_1">
   <g id="patch_2">
    <path d="M 44.533594 386.515781 
L 700.73125 386.515781 
L 700.73125 28.318125 
L 44.533594 28.318125 
z
"/>
   </g>
   <g id="matplotlib.axis_1">
    <g id="xtick_1">
     <g id="line2d_1">
      <path d="M 110.153359 386.515781 
L 110.153359 28.318125 
" clip-path="url(#p8698b4d86a)" style="fill: none; stroke-dasharray: 2.96,1.28; stroke-dashoffset: 0; stroke: #555555; stroke-opacity: 0.5; stroke-width: 0.8"/>
     </g>
     <g id="line2d_2">
      <defs>
       <path id="m8d14ee1197" d="M 0 0 
L 0 3.5 
" style="stroke: #ffffff; stroke-width: 0.8"/>
      </defs>
      <g>
       <use xlink:href="#m8d14ee1197" x="110.153359" y="386.515781" style="fill: #ffffff; stroke: #ffffff; stroke-width: 0.8"/>
      </g>
     </g>
     <g id="text_1">
      <text style="font-size: 10px; font-family: 'DejaVu Sans', 'Bitstream Vera Sans', 'Computer Modern Sans Serif', 'Lucida Grande', 'Verdana', 'Geneva', 'Lucid', 'Arial', 'Helvetica', 'Avant Garde', sans-serif; text-anchor: middle; fill: #ffffff" x="110.153359" y="401.113438" transform="rotate(-0 110.153359 401.113438)">960</text>
     </g>
    </g>
    <g id="xtick_2">
     <g id="line2d_3">
      <path d="M 241.392891 386.515781 
L 241.392891 28.318125 
" clip-path="url(#p8698b4d86a)" style="fill: none; stroke-dasharray: 2.96,1.28; stroke-dashoffset: 0; stroke: #555555; stroke-opacity: 0.5; stroke-width: 0.8"/>
     </g>
     <g id="line2d_4">
      <g>
       <use xlink:href="#m8d14ee1197" x="241.392891" y="386.515781" style="fill: #ffffff; stroke: #ffffff; stroke-width: 0.8"/>
      </g>
     </g>
     <g id="text_2">
      <text style="font-size: 10px; font-family: 'DejaVu Sans', 'Bitstream Vera Sans', 'Computer Modern Sans Serif', 'Lucida Grande', 'Verdana', 'Geneva', 'Lucid', 'Arial', 'Helvetica', 'Avant Garde', sans-serif; text-anchor: middle; fill: #ffffff" x="241.392891" y="401.113438" transform="rotate(-0 241.392891 401.113438)">980</text>
     </g>
    </g>
    <g id="xtick_3">
     <g id="line2d_5">
      <path d="M 372.632422 386.515781 
L 372.632422 28.318125 
" clip-path="url(#p8698b4d86a)" style="fill: none; stroke-dasharray: 2.96,1.28; stroke-dashoffset: 0; stroke: #555555; stroke-opacity: 0.5; stroke-width: 0.8"/>
     </g>
     <g id="line2d_6">
      <g>
       <use xlink:href="#m8d14ee1197" x="372.632422" y="386.515781" style="fill: #ffffff; stroke: #ffffff; stroke-width: 0.8"/>
      </g>
     </g>
     <g id="text_3">
      <text style="font-size: 10px; font-family: 'DejaVu Sans', 'Bitstream Vera Sans', 'Computer Modern Sans Serif', 'Lucida Grande', 'Verdana', 'Geneva', 'Lucid', 'Arial', 'Helvetica', 'Avant Garde', sans-serif; text-anchor: middle; fill: #ffffff" x="372.632422" y="401.113438" transform="rotate(-0 372.632422 401.113438)">1000</text>
     </g>
    </g>
    <g id="xtick_4">
     <g id="line2d_7">
      <path d="M 503.871953 386.515781 
L 503.871953 28.318125 
" clip-path="url(#p8698b4d86a)" style="fill: none; stroke-dasharray: 2.96,1.28; stroke-dashoffset: 0; stroke: #555555; stroke-opacity: 0.5; stroke-width: 0.8"/>
     </g>
     <g id="line2d_8">
      <g>
       <use xlink:href="#m8d14ee1197" x="503.871953" y="386.515781" style="fill: #ffffff; stroke: #ffffff; stroke-width: 0.8"/>
      </g>
     </g>
     <g id="text_4">
      <text style="font-size: 10px; font-family: 'DejaVu Sans', 'Bitstream Vera Sans', 'Computer Modern Sans Serif', 'Lucida Grande', 'Verdana', 'Geneva', 'Lucid', 'Arial', 'Helvetica', 'Avant Garde', sans-serif; text-anchor: middle; fill: #ffffff" x="503.871953" y="401.113438" transform="rotate(-0 503.871953 401.113438)">1020</text>
     </g>
    </g>
    <g id="xtick_5">
     <g id="line2d_9">
      <path d="M 635.111484 386.515781 
L 635.111484 28.318125 
" clip-path="url(#p8698b4d86a)" style="fill: none; stroke-dasharray: 2.96,1.28; stroke-dashoffset: 0; stroke: #555555; stroke-opacity: 0.5; stroke-width: 0.8"/>
     </g>
     <g id="line2d_10">
      <g>
       <use xlink:href="#m8d14ee1197" x="635.111484" y="386.515781" style="fill: #ffffff; stroke: #ffffff; stroke-width: 0.8"/>
      </g>
     </g>
     <g id="text_5">
      <text style="font-size: 10px; font-family: 'DejaVu Sans', 'Bitstream Vera Sans', 'Computer Modern Sans Serif', 'Lucida Grande', 'Verdana', 'Geneva', 'Lucid', 'Arial', 'Helvetica', 'Avant Garde', sans-serif; text-anchor: middle; fill: #ffffff" x="635.111484" y="401.113438" transform="rotate(-0 635.111484 401.113438)">1040</text>
     </g>
    </g>
    <g id="text_6">
     <text style="font-size: 10px; font-family: 'DejaVu Sans', 'Bitstream Vera Sans', 'Computer Modern Sans Serif', 'Lucida Grande', 'Verdana', 'Geneva', 'Lucid', 'Arial', 'Helvetica', 'Avant Garde', sans-serif; text-anchor: middle; fill: #ffffff" x="372.632422" y="415.114219" transform="rotate(-0 372.632422 415.114219)">Frecuencia [Hz]</text>
    </g>
   </g>
   <g id="matplotlib.axis_2">
    <g id="ytick_1">
     <g id="line2d_11">
      <path d="M 44.533594 386.515781 
L 700.73125 386.515781 
" clip-path="url(#p8698b4d86a)" style="fill: none; stroke-dasharray: 2.96,1.28; stroke-dashoffset: 0; stroke: #555555; stroke-opacity: 0.5; stroke-width: 0.8"/>
     </g>
     <g id="line2d_12">
      <defs>
       <path id="m5e07181663" d="M 0 0 
L -3.5 0 
" style="stroke: #ffffff; stroke-width: 0.8"/>
      </defs>
      <g>
       <use xlink:href="#m5e07181663" x="44.533594" y="386.515781" style="fill: #ffffff; stroke: #ffffff; stroke-width: 0.8"/>
      </g>
     </g>
     <g id="text_7">
      <text style="font-size: 10px; font-family: 'DejaVu Sans', 'Bitstream Vera Sans', 'Computer Modern Sans Serif', 'Lucida Grande', 'Verdana', 'Geneva', 'Lucid', 'Arial', 'Helvetica', 'Avant Garde', sans-serif; text-anchor: end; fill: #ffffff" x="37.533594" y="390.314609" transform="rotate(-0 37.533594 390.314609)">-70</text>
     </g>
    </g>
    <g id="ytick_2">
     <g id="line2d_13">
      <path d="M 44.533594 338.756094 
L 700.73125 338.756094 
" clip-path="url(#p8698b4d86a)" style="fill: none; stroke-dasharray: 2.96,1.28; stroke-dashoffset: 0; stroke: #555555; stroke-opacity: 0.5; stroke-width: 0.8"/>
     </g>
     <g id="line2d_14">
      <g>
       <use xlink:href="#m5e07181663" x="44.533594" y="338.756094" style="fill: #ffffff; stroke: #ffffff; stroke-width: 0.8"/>
      </g>
     </g>
     <g id="text_8">
      <text style="font-size: 10px; font-family: 'DejaVu Sans', 'Bitstream Vera Sans', 'Computer Modern Sans Serif', 'Lucida Grande', 'Verdana', 'Geneva', 'Lucid', 'Arial', 'Helvetica', 'Avant Garde', sans-serif; text-anchor: end; fill: #ffffff" x="37.533594" y="342.554922" transform="rotate(-0 37.533594 342.554922)">-60</text>
     </g>
    </g>
    <g id="ytick_3">
     <g id="line2d_15">
      <path d="M 44.533594 290.996406 
L 700.73125 290.996406 
" clip-path="url(#p8698b4d86a)" style="fill: none; stroke-dasharray: 2.96,1.28; stroke-dashoffset: 0; stroke: #555555; stroke-opacity: 0.5; stroke-width: 0.8"/>
     </g>
     <g id="line2d_16">
      <g>
       <use xlink:href="#m5e07181663" x="44.533594" y="290.996406" style="fill: #ffffff; stroke: #ffffff; stroke-width: 0.8"/>
      </g>
     </g>
     <g id="text_9">
      <text style="font-size: 10px; font-family: 'DejaVu Sans', 'Bitstream Vera Sans', 'Computer Modern Sans Serif', 'Lucida Grande', 'Verdana', 'Geneva', 'Lucid', 'Arial', 'Helvetica', 'Avant Garde', sans-serif; text-anchor: end; fill: #ffffff" x="37.533594" y="294.795234" transform="rotate(-0 37.533594 294.795234)">-50</text>
     </g>
    </g>
    <g id="ytick_4">
     <g id="line2d_17">
      <path d="M 44.533594 243.236719 
L 700.73125 243.236719 
" clip-path="url(#p8698b4d86a)" style="fill: none; stroke-dasharray: 2.96,1.28; stroke-dashoffset: 0; stroke: #555555; stroke-opacity: 0.5; stroke-width: 0.8"/>
     </g>
     <g id="line2d_18">
      <g>
       <use xlink:href="#m5e07181663" x="44.533594" y="243.236719" style="fill: #ffffff; stroke: #ffffff; stroke-width: 0.8"/>
      </g>
     </g>
     <g id="text_10">
      <text style="font-size: 10px; font-family: 'DejaVu Sans', 'Bitstream Vera Sans', 'Computer Modern Sans Serif', 'Lucida Grande', 'Verdana', 'Geneva', 'Lucid', 'Arial', 'Helvetica', 'Avant Garde', sans-serif; text-anchor: end; fill: #ffffff" x="37.533594" y="247.035547" transform="rotate(-0 37.533594 247.035547)">-40</text>
     </g>
    </g>
    <g id="ytick_5">
     <g id="line2d_19">
      <path d="M 44.533594 195.477031 
L 700.73125 195.477031 
" clip-path="url(#p8698b4d86a)" style="fill: none; stroke-dasharray: 2.96,1.28; stroke-dashoffset: 0; stroke: #555555; stroke-opacity: 0.5; stroke-width: 0.8"/>
     </g>
     <g id="line2d_20">
      <g>
       <use xlink:href="#m5e07181663" x="44.533594" y="195.477031" style="fill: #ffffff; stroke: #ffffff; stroke-width: 0.8"/>
      </g>
     </g>
     <g id="text_11">
      <text style="font-size: 10px; font-family: 'DejaVu Sans', 'Bitstream Vera Sans', 'Computer Modern Sans Serif', 'Lucida Grande', 'Verdana', 'Geneva', 'Lucid', 'Arial', 'Helvetica', 'Avant Garde', sans-serif; text-anchor: end; fill: #ffffff" x="37.533594" y="199.275859" transform="rotate(-0 37.533594 199.275859)">-30</text>
     </g>
    </g>
    <g id="ytick_6">
     <g id="line2d_21">
      <path d="M 44.533594 147.717344 
L 700.73125 147.717344 
" clip-path="url(#p8698b4d86a)" style="fill: none; stroke-dasharray: 2.96,1.28; stroke-dashoffset: 0; stroke: #555555; stroke-opacity: 0.5; stroke-width: 0.8"/>
     </g>
     <g id="line2d_22">
      <g>
       <use xlink:href="#m5e07181663" x="44.533594" y="147.717344" style="fill: #ffffff; stroke: #ffffff; stroke-width: 0.8"/>
      </g>
     </g>
     <g id="text_12">
      <text style="font-size: 10px; font-family: 'DejaVu Sans', 'Bitstream Vera Sans', 'Computer Modern Sans Serif', 'Lucida Grande', 'Verdana', 'Geneva', 'Lucid', 'Arial', 'Helvetica', 'Avant Garde', sans-serif; text-anchor: end; fill: #ffffff" x="37.533594" y="151.516172" transform="rotate(-0 37.533594 151.516172)">-20</text>
     </g>
    </g>
    <g id="ytick_7">
     <g id="line2d_23">
      <path d="M 44.533594 99.957656 
L 700.73125 99.957656 
" clip-path="url(#p8698b4d86a)" style="fill: none; stroke-dasharray: 2.96,1.28; stroke-dashoffset: 0; stroke: #555555; stroke-opacity: 0.5; stroke-width: 0.8"/>
     </g>
     <g id="line2d_24">
      <g>
       <use xlink:href="#m5e07181663" x="44.533594" y="99.957656" style="fill: #ffffff; stroke: #ffffff; stroke-width: 0.8"/>
      </g>
     </g>
     <g id="text_13">
      <text style="font-size: 10px; font-family: 'DejaVu Sans', 'Bitstream Vera Sans', 'Computer Modern Sans Serif', 'Lucida Grande', 'Verdana', 'Geneva', 'Lucid', 'Arial', 'Helvetica', 'Avant Garde', sans-serif; text-anchor: end; fill: #ffffff" x="37.533594" y="103.756484" transform="rotate(-0 37.533594 103.756484)">-10</text>
     </g>
    </g>
    <g id="ytick_8">
     <g id="line2d_25">
      <path d="M 44.533594 52.197969 
L 700.73125 52.197969 
" clip-path="url(#p8698b4d86a)" style="fill: none; stroke-dasharray: 2.96,1.28; stroke-dashoffset: 0; stroke: #555555; stroke-opacity: 0.5; stroke-width: 0.8"/>
     </g>
     <g id="line2d_26">
      <g>
       <use xlink:href="#m5e07181663" x="44.533594" y="52.197969" style="fill: #ffffff; stroke: #ffffff; stroke-width: 0.8"/>
      </g>
     </g>
     <g id="text_14">
      <text style="font-size: 10px; font-family: 'DejaVu Sans', 'Bitstream Vera Sans', 'Computer Modern Sans Serif', 'Lucida Grande', 'Verdana', 'Geneva', 'Lucid', 'Arial', 'Helvetica', 'Avant Garde', sans-serif; text-anchor: end; fill: #ffffff" x="37.533594" y="55.996797" transform="rotate(-0 37.533594 55.996797)">0</text>
     </g>
    </g>
    <g id="text_15">
     <text style="font-size: 10px; font-family: 'DejaVu Sans', 'Bitstream Vera Sans', 'Computer Modern Sans Serif', 'Lucida Grande', 'Verdana', 'Geneva', 'Lucid', 'Arial', 'Helvetica', 'Avant Garde', sans-serif; text-anchor: middle; fill: #ffffff" x="14.798438" y="207.416953" transform="rotate(-90 14.798438 207.416953)">Amplitud [dB]</text>
    </g>
   </g>
   <g id="line2d_27">
    <path d="M 57.657547 325.848394 
L 110.153359 300.833827 
L 162.649172 269.217462 
L 215.144984 225.826931 
L 267.640797 152.904741 
L 320.136609 64.140452 
L 372.632422 50.944088 
L 425.128234 93.554437 
L 477.624047 211.780701 
L 530.119859 259.795895 
L 582.615672 293.677959 
L 635.111484 320.060903 
L 687.607297 341.722995 
" clip-path="url(#p8698b4d86a)" style="fill: none; stroke-dasharray: 4.44,1.92; stroke-dashoffset: 0; stroke: #d62728; stroke-width: 1.2"/>
    <defs>
     <path id="m1b7f8bbf56" d="M 0 2 
C 0.530406 2 1.03916 1.789267 1.414214 1.414214 
C 1.789267 1.03916 2 0.530406 2 0 
C 2 -0.530406 1.789267 -1.03916 1.414214 -1.414214 
C 1.03916 -1.789267 0.530406 -2 0 -2 
C -0.530406 -2 -1.03916 -1.789267 -1.414214 -1.414214 
C -1.789267 -1.03916 -2 -0.530406 -2 0 
C -2 0.530406 -1.789267 1.03916 -1.414214 1.414214 
C -1.03916 1.789267 -0.530406 2 0 2 
z
" style="stroke: #d62728"/>
    </defs>
    <g clip-path="url(#p8698b4d86a)">
     <use xlink:href="#m1b7f8bbf56" x="57.657547" y="325.848394" style="fill: #d62728; stroke: #d62728"/>
     <use xlink:href="#m1b7f8bbf56" x="110.153359" y="300.833827" style="fill: #d62728; stroke: #d62728"/>
     <use xlink:href="#m1b7f8bbf56" x="162.649172" y="269.217462" style="fill: #d62728; stroke: #d62728"/>
     <use xlink:href="#m1b7f8bbf56" x="215.144984" y="225.826931" style="fill: #d62728; stroke: #d62728"/>
     <use xlink:href="#m1b7f8bbf56" x="267.640797" y="152.904741" style="fill: #d62728; stroke: #d62728"/>
     <use xlink:href="#m1b7f8bbf56" x="320.136609" y="64.140452" style="fill: #d62728; stroke: #d62728"/>
     <use xlink:href="#m1b7f8bbf56" x="372.632422" y="50.944088" style="fill: #d62728; stroke: #d62728"/>
     <use xlink:href="#m1b7f8bbf56" x="425.128234" y="93.554437" style="fill: #d62728; stroke: #d62728"/>
     <use xlink:href="#m1b7f8bbf56" x="477.624047" y="211.780701" style="fill: #d62728; stroke: #d62728"/>
     <use xlink:href="#m1b7f8bbf56" x="530.119859" y="259.795895" style="fill: #d62728; stroke: #d62728"/>
     <use xlink:href="#m1b7f8bbf56" x="582.615672" y="293.677959" style="fill: #d62728; stroke: #d62728"/>
     <use xlink:href="#m1b7f8bbf56" x="635.111484" y="320.060903" style="fill: #d62728; stroke: #d62728"/>
     <use xlink:href="#m1b7f8bbf56" x="687.607297" y="341.722995" style="fill: #d62728; stroke: #d62728"/>
    </g>
   </g>
   <g id="line2d_28">
    <path d="M 263.835877 425.716563 
L 264.359809 420.426894 
L 265.073946 425.716563 
M 269.505075 425.716563 
L 270.921785 411.265661 
L 272.562279 423.239169 
L 272.567522 425.716563 
M 275.827636 425.716563 
L 275.843268 418.282626 
L 277.483762 401.348233 
L 279.124256 413.112212 
L 279.150586 425.716563 
M 282.367882 425.716563 
L 282.405244 407.708065 
L 284.045738 390.534244 
L 285.686232 402.047368 
L 285.734989 425.716563 
M 288.906672 425.716563 
L 288.967221 396.103726 
L 290.607715 378.639282 
L 292.248209 389.846363 
L 292.320984 425.716563 
M 295.443715 425.716563 
L 295.529197 383.239092 
L 297.169691 365.414027 
L 298.810186 376.23895 
L 298.908907 425.716563 
M 301.978618 425.716563 
L 302.091174 368.794381 
L 303.731668 350.509285 
L 305.372162 360.842757 
L 305.499224 425.716563 
M 308.510821 425.716563 
L 308.65315 352.306937 
L 310.293645 333.413615 
L 311.934139 343.090367 
L 312.092611 425.716563 
M 315.039493 425.716563 
L 315.215127 333.069915 
L 316.855621 313.332832 
L 318.496115 322.085035 
L 318.690111 425.716563 
M 321.563305 425.716563 
L 321.777104 309.920734 
L 323.417598 288.930571 
L 325.058092 296.279447 
L 325.293464 425.716563 
M 328.079903 425.716563 
L 328.33908 280.731646 
L 329.979574 257.673903 
L 331.620068 262.621692 
L 331.905977 425.716563 
M 334.584373 425.716563 
L 334.901057 240.866636 
L 336.541551 213.679235 
L 338.182045 213.44557 
L 338.535583 425.716563 
M 341.061951 425.716563 
L 341.463033 175.661088 
L 343.103527 134.461676 
L 344.744021 108.457304 
L 346.384516 90.20895 
L 348.02501 77.265714 
L 349.665504 68.501594 
L 351.305998 63.329608 
L 352.946492 61.454753 
L 354.586986 62.798258 
L 356.22748 67.51969 
L 357.867975 76.171241 
L 359.508469 90.20895 
L 361.148963 114.093652 
L 362.789457 175.707376 
L 366.070445 109.706363 
L 367.710939 94.272356 
L 369.351434 85.897022 
L 370.991928 81.777867 
L 372.632422 80.952166 
L 374.272916 83.134629 
L 375.91341 88.38834 
L 377.553904 97.036096 
L 379.194398 109.706363 
L 380.834893 127.566723 
L 382.475387 153.10418 
L 384.115881 193.786804 
L 384.494602 425.716563 
M 387.065968 425.716563 
L 387.396869 230.471321 
L 389.037363 230.150061 
L 390.677857 256.791385 
L 390.972154 425.716563 
M 393.694822 425.716563 
L 393.958846 277.500906 
L 395.59934 272.059286 
L 397.239834 294.644256 
L 397.477748 425.716563 
M 400.306044 425.716563 
L 400.520822 309.310579 
L 402.161316 301.552363 
L 403.801811 322.153255 
L 403.995693 425.716563 
M 406.908056 425.716563 
L 407.082799 333.595804 
L 408.723293 324.509267 
L 410.363787 343.928452 
L 410.520806 425.716563 
M 413.504311 425.716563 
L 413.644775 353.358732 
L 415.28527 343.407945 
L 416.925764 362.040157 
L 417.050658 425.716563 
M 420.096585 425.716563 
L 420.206752 370.089489 
L 421.847246 359.529223 
L 423.48774 377.597624 
L 423.583909 425.716563 
M 426.685917 425.716563 
L 426.768729 384.63674 
L 428.409223 373.621979 
L 430.049717 391.265136 
L 430.119736 425.716563 
M 433.272971 425.716563 
L 433.330705 397.530602 
L 434.971199 386.162806 
L 436.611693 403.472826 
L 436.657596 425.716563 
M 439.858198 425.716563 
L 439.892682 409.125147 
L 441.533176 397.474505 
L 443.17367 414.515856 
L 443.19711 425.716563 
M 446.441919 425.716563 
L 446.454658 419.669184 
L 448.095152 407.78638 
L 449.738001 425.716563 
M 453.509456 425.716563 
L 454.657129 417.267547 
L 455.490428 425.716563 
L 455.490428 425.716563 
" clip-path="url(#p8698b4d86a)" style="fill: none; stroke: #1f77b4; stroke-width: 1.6; stroke-linecap: square"/>
   </g>
   <g id="line2d_29">
    <path d="M 352.946492 386.515781 
L 352.946492 28.318125 
" clip-path="url(#p8698b4d86a)" style="fill: none; stroke-dasharray: 1,1.65; stroke-dashoffset: 0; stroke: #ffffff; stroke-opacity: 0.6"/>
   </g>
   <g id="line2d_30">
    <path d="M 372.632422 386.515781 
L 372.632422 28.318125 
" clip-path="url(#p8698b4d86a)" style="fill: none; stroke-dasharray: 1,1.65; stroke-dashoffset: 0; stroke: #ffffff; stroke-opacity: 0.6"/>
   </g>
   <g id="patch_3">
    <path d="M 44.533594 386.515781 
L 44.533594 28.318125 
" style="fill: none; stroke: #ffffff; stroke-width: 0.8; stroke-linejoin: miter; stroke-linecap: square"/>
   </g>
   <g id="patch_4">
    <path d="M 700.73125 386.515781 
L 700.73125 28.318125 
" style="fill: none; stroke: #ffffff; stroke-width: 0.8; stroke-linejoin: miter; stroke-linecap: square"/>
   </g>
   <g id="patch_5">
    <path d="M 44.533594 386.515781 
L 700.73125 386.515781 
" style="fill: none; stroke: #ffffff; stroke-width: 0.8; stroke-linejoin: miter; stroke-linecap: square"/>
   </g>
   <g id="patch_6">
    <path d="M 44.533594 28.318125 
L 700.73125 28.318125 
" style="fill: none; stroke: #ffffff; stroke-width: 0.8; stroke-linejoin: miter; stroke-linecap: square"/>
   </g>
   <g id="text_16">
    <text style="font-size: 8.5px; font-family: 'DejaVu Sans', 'Bitstream Vera Sans', 'Computer Modern Sans Serif', 'Lucida Grande', 'Verdana', 'Geneva', 'Lucid', 'Arial', 'Helvetica', 'Avant Garde', sans-serif; fill: #ffffff" transform="translate(54.376559 48.164545)">997 y 1000 Hz, separados 3 Hz:</text>
    <text style="font-size: 8.5px; font-family: 'DejaVu Sans', 'Bitstream Vera Sans', 'Computer Modern Sans Serif', 'Lucida Grande', 'Verdana', 'Geneva', 'Lucid', 'Arial', 'Helvetica', 'Avant Garde', sans-serif; fill: #ffffff" transform="translate(54.376559 58.366869)">un solo bulto en la malla de 8 Hz,</text>
    <text style="font-size: 8.5px; font-family: 'DejaVu Sans', 'Bitstream Vera Sans', 'Computer Modern Sans Serif', 'Lucida Grande', 'Verdana', 'Geneva', 'Lucid', 'Arial', 'Helvetica', 'Avant Garde', sans-serif; fill: #ffffff" transform="translate(54.376559 68.909193)">dos líneas exactas en la malla del zoom</text>
   </g>
   <g id="text_17">
    <text style="font-weight: 700; font-size: 12px; font-family: 'DejaVu Sans', 'Bitstream Vera Sans', 'Computer Modern Sans Serif', 'Lucida Grande', 'Verdana', 'Geneva', 'Lucid', 'Arial', 'Helvetica', 'Avant Garde', sans-serif; text-anchor: middle; fill: #ffffff" x="372.632422" y="16.318125" transform="rotate(-0 372.632422 16.318125)">La FFT con zoom resuelve tonos a menos de un bin grueso (Bendat y Piersol)</text>
   </g>
   <g id="legend_1">
    <g id="patch_7">
     <path d="M 510.817188 62.519531 
L 694.43125 62.519531 
Q 696.23125 62.519531 696.23125 60.719531 
L 696.23125 34.618125 
Q 696.23125 32.818125 694.43125 32.818125 
L 510.817188 32.818125 
Q 509.017188 32.818125 509.017188 34.618125 
L 509.017188 60.719531 
Q 509.017188 62.519531 510.817188 62.519531 
z
" style="opacity: 0.8; stroke: #cccccc; stroke-linejoin: miter"/>
    </g>
    <g id="line2d_31">
     <path d="M 512.617188 40.106719 
L 521.617188 40.106719 
L 530.617188 40.106719 
" style="fill: none; stroke-dasharray: 4.44,1.92; stroke-dashoffset: 0; stroke: #d62728; stroke-width: 1.2"/>
     <g>
      <use xlink:href="#m1b7f8bbf56" x="521.617188" y="40.106719" style="fill: #d62728; stroke: #d62728"/>
     </g>
    </g>
    <g id="text_18">
     <text style="font-size: 9px; font-family: 'DejaVu Sans', 'Bitstream Vera Sans', 'Computer Modern Sans Serif', 'Lucida Grande', 'Verdana', 'Geneva', 'Lucid', 'Arial', 'Helvetica', 'Avant Garde', sans-serif; text-anchor: start; fill: #ffffff" x="537.817188" y="43.256719" transform="rotate(-0 537.817188 43.256719)">FFT de 1024 puntos (bins de 8 Hz)</text>
    </g>
    <g id="line2d_32">
     <path d="M 512.617188 53.607422 
L 521.617188 53.607422 
L 530.617188 53.607422 
" style="fill: none; stroke: #1f77b4; stroke-width: 1.6; stroke-linecap: square"/>
    </g>
    <g id="text_19">
     <text style="font-size: 9px; font-family: 'DejaVu Sans', 'Bitstream Vera Sans', 'Computer Modern Sans Serif', 'Lucida Grande', 'Verdana', 'Geneva', 'Lucid', 'Arial', 'Helvetica', 'Avant Garde', sans-serif; text-anchor: start; fill: #ffffff" x="537.817188" y="56.757422" transform="rotate(-0 537.817188 56.757422)">FFT con zoom del mismo registro</text>
    </g>
   </g>
  </g>
 </g>
 <defs>
  <clipPath id="p8698b4d86a">
   <rect x="44.533594" y="28.318125" width="656.197656" height="358.197656"/>
  </clipPath>
 </defs>
</svg>
